<?xml version="1.0" encoding="utf-8" standalone="no"?>
<!DOCTYPE svg PUBLIC "-//W3C//DTD SVG 1.1//EN"
  "http://www.w3.org/Graphics/SVG/1.1/DTD/svg11.dtd">
<!-- Created with matplotlib (https://matplotlib.org/) -->
<svg height="424.474375pt" version="1.1" viewBox="0 0 712.433125 424.474375" width="712.433125pt" xmlns="http://www.w3.org/2000/svg" xmlns:xlink="http://www.w3.org/1999/xlink">
 <defs>
  <style type="text/css">
*{stroke-linecap:butt;stroke-linejoin:round;}
  </style>
 </defs>
 <g id="figure_1">
  <g id="patch_1">
   <path d="M 0 424.474375 
L 712.433125 424.474375 
L 712.433125 -0 
L 0 -0 
z
" style="fill:#ffffff;"/>
  </g>
  <g id="axes_1">
   <g id="patch_2">
    <path d="M 40.603125 71.268125 
L 705.233125 71.268125 
L 705.233125 22.318125 
L 40.603125 22.318125 
z
" style="fill:#ffffff;"/>
   </g>
   <g id="matplotlib.axis_1">
    <g id="xtick_1">
     <g id="line2d_1">
      <defs>
       <path d="M 0 0 
L 0 3.5 
" id="mb6ac927bb6" style="stroke:#000000;stroke-width:0.8;"/>
      </defs>
      <g>
       <use style="stroke:#000000;stroke-width:0.8;" x="125.609595" xlink:href="#mb6ac927bb6" y="71.268125"/>
      </g>
     </g>
     <g id="text_1">
      <!-- 2.685 -->
      <defs>
       <path d="M 19.1875 8.296875 
L 53.609375 8.296875 
L 53.609375 0 
L 7.328125 0 
L 7.328125 8.296875 
Q 12.9375 14.109375 22.625 23.890625 
Q 32.328125 33.6875 34.8125 36.53125 
Q 39.546875 41.84375 41.421875 45.53125 
Q 43.3125 49.21875 43.3125 52.78125 
Q 43.3125 58.59375 39.234375 62.25 
Q 35.15625 65.921875 28.609375 65.921875 
Q 23.96875 65.921875 18.8125 64.3125 
Q 13.671875 62.703125 7.8125 59.421875 
L 7.8125 69.390625 
Q 13.765625 71.78125 18.9375 73 
Q 24.125 74.21875 28.421875 74.21875 
Q 39.75 74.21875 46.484375 68.546875 
Q 53.21875 62.890625 53.21875 53.421875 
Q 53.21875 48.921875 51.53125 44.890625 
Q 49.859375 40.875 45.40625 35.40625 
Q 44.1875 33.984375 37.640625 27.21875 
Q 31.109375 20.453125 19.1875 8.296875 
z
" id="DejaVuSans-50"/>
       <path d="M 10.6875 12.40625 
L 21 12.40625 
L 21 0 
L 10.6875 0 
z
" id="DejaVuSans-46"/>
       <path d="M 33.015625 40.375 
Q 26.375 40.375 22.484375 35.828125 
Q 18.609375 31.296875 18.609375 23.390625 
Q 18.609375 15.53125 22.484375 10.953125 
Q 26.375 6.390625 33.015625 6.390625 
Q 39.65625 6.390625 43.53125 10.953125 
Q 47.40625 15.53125 47.40625 23.390625 
Q 47.40625 31.296875 43.53125 35.828125 
Q 39.65625 40.375 33.015625 40.375 
z
M 52.59375 71.296875 
L 52.59375 62.3125 
Q 48.875 64.0625 45.09375 64.984375 
Q 41.3125 65.921875 37.59375 65.921875 
Q 27.828125 65.921875 22.671875 59.328125 
Q 17.53125 52.734375 16.796875 39.40625 
Q 19.671875 43.65625 24.015625 45.921875 
Q 28.375 48.1875 33.59375 48.1875 
Q 44.578125 48.1875 50.953125 41.515625 
Q 57.328125 34.859375 57.328125 23.390625 
Q 57.328125 12.15625 50.6875 5.359375 
Q 44.046875 -1.421875 33.015625 -1.421875 
Q 20.359375 -1.421875 13.671875 8.265625 
Q 6.984375 17.96875 6.984375 36.375 
Q 6.984375 53.65625 15.1875 63.9375 
Q 23.390625 74.21875 37.203125 74.21875 
Q 40.921875 74.21875 44.703125 73.484375 
Q 48.484375 72.75 52.59375 71.296875 
z
" id="DejaVuSans-54"/>
       <path d="M 31.78125 34.625 
Q 24.75 34.625 20.71875 30.859375 
Q 16.703125 27.09375 16.703125 20.515625 
Q 16.703125 13.921875 20.71875 10.15625 
Q 24.75 6.390625 31.78125 6.390625 
Q 38.8125 6.390625 42.859375 10.171875 
Q 46.921875 13.96875 46.921875 20.515625 
Q 46.921875 27.09375 42.890625 30.859375 
Q 38.875 34.625 31.78125 34.625 
z
M 21.921875 38.8125 
Q 15.578125 40.375 12.03125 44.71875 
Q 8.5 49.078125 8.5 55.328125 
Q 8.5 64.0625 14.71875 69.140625 
Q 20.953125 74.21875 31.78125 74.21875 
Q 42.671875 74.21875 48.875 69.140625 
Q 55.078125 64.0625 55.078125 55.328125 
Q 55.078125 49.078125 51.53125 44.71875 
Q 48 40.375 41.703125 38.8125 
Q 48.828125 37.15625 52.796875 32.3125 
Q 56.78125 27.484375 56.78125 20.515625 
Q 56.78125 9.90625 50.3125 4.234375 
Q 43.84375 -1.421875 31.78125 -1.421875 
Q 19.734375 -1.421875 13.25 4.234375 
Q 6.78125 9.90625 6.78125 20.515625 
Q 6.78125 27.484375 10.78125 32.3125 
Q 14.796875 37.15625 21.921875 38.8125 
z
M 18.3125 54.390625 
Q 18.3125 48.734375 21.84375 45.5625 
Q 25.390625 42.390625 31.78125 42.390625 
Q 38.140625 42.390625 41.71875 45.5625 
Q 45.3125 48.734375 45.3125 54.390625 
Q 45.3125 60.0625 41.71875 63.234375 
Q 38.140625 66.40625 31.78125 66.40625 
Q 25.390625 66.40625 21.84375 63.234375 
Q 18.3125 60.0625 18.3125 54.390625 
z
" id="DejaVuSans-56"/>
       <path d="M 10.796875 72.90625 
L 49.515625 72.90625 
L 49.515625 64.59375 
L 19.828125 64.59375 
L 19.828125 46.734375 
Q 21.96875 47.46875 24.109375 47.828125 
Q 26.265625 48.1875 28.421875 48.1875 
Q 40.625 48.1875 47.75 41.5 
Q 54.890625 34.8125 54.890625 23.390625 
Q 54.890625 11.625 47.5625 5.09375 
Q 40.234375 -1.421875 26.90625 -1.421875 
Q 22.3125 -1.421875 17.546875 -0.640625 
Q 12.796875 0.140625 7.71875 1.703125 
L 7.71875 11.625 
Q 12.109375 9.234375 16.796875 8.0625 
Q 21.484375 6.890625 26.703125 6.890625 
Q 35.15625 6.890625 40.078125 11.328125 
Q 45.015625 15.765625 45.015625 23.390625 
Q 45.015625 31 40.078125 35.4375 
Q 35.15625 39.890625 26.703125 39.890625 
Q 22.75 39.890625 18.8125 39.015625 
Q 14.890625 38.140625 10.796875 36.28125 
z
" id="DejaVuSans-53"/>
      </defs>
      <g transform="translate(111.295532 85.866562)scale(0.1 -0.1)">
       <use xlink:href="#DejaVuSans-50"/>
       <use x="63.623047" xlink:href="#DejaVuSans-46"/>
       <use x="95.410156" xlink:href="#DejaVuSans-54"/>
       <use x="159.033203" xlink:href="#DejaVuSans-56"/>
       <use x="222.65625" xlink:href="#DejaVuSans-53"/>
      </g>
     </g>
    </g>
    <g id="xtick_2">
     <g id="line2d_2">
      <g>
       <use style="stroke:#000000;stroke-width:0.8;" x="229.389926" xlink:href="#mb6ac927bb6" y="71.268125"/>
      </g>
     </g>
     <g id="text_2">
      <!-- 2.690 -->
      <defs>
       <path d="M 10.984375 1.515625 
L 10.984375 10.5 
Q 14.703125 8.734375 18.5 7.8125 
Q 22.3125 6.890625 25.984375 6.890625 
Q 35.75 6.890625 40.890625 13.453125 
Q 46.046875 20.015625 46.78125 33.40625 
Q 43.953125 29.203125 39.59375 26.953125 
Q 35.25 24.703125 29.984375 24.703125 
Q 19.046875 24.703125 12.671875 31.3125 
Q 6.296875 37.9375 6.296875 49.421875 
Q 6.296875 60.640625 12.9375 67.421875 
Q 19.578125 74.21875 30.609375 74.21875 
Q 43.265625 74.21875 49.921875 64.515625 
Q 56.59375 54.828125 56.59375 36.375 
Q 56.59375 19.140625 48.40625 8.859375 
Q 40.234375 -1.421875 26.421875 -1.421875 
Q 22.703125 -1.421875 18.890625 -0.6875 
Q 15.09375 0.046875 10.984375 1.515625 
z
M 30.609375 32.421875 
Q 37.25 32.421875 41.125 36.953125 
Q 45.015625 41.5 45.015625 49.421875 
Q 45.015625 57.28125 41.125 61.84375 
Q 37.25 66.40625 30.609375 66.40625 
Q 23.96875 66.40625 20.09375 61.84375 
Q 16.21875 57.28125 16.21875 49.421875 
Q 16.21875 41.5 20.09375 36.953125 
Q 23.96875 32.421875 30.609375 32.421875 
z
" id="DejaVuSans-57"/>
       <path d="M 31.78125 66.40625 
Q 24.171875 66.40625 20.328125 58.90625 
Q 16.5 51.421875 16.5 36.375 
Q 16.5 21.390625 20.328125 13.890625 
Q 24.171875 6.390625 31.78125 6.390625 
Q 39.453125 6.390625 43.28125 13.890625 
Q 47.125 21.390625 47.125 36.375 
Q 47.125 51.421875 43.28125 58.90625 
Q 39.453125 66.40625 31.78125 66.40625 
z
M 31.78125 74.21875 
Q 44.046875 74.21875 50.515625 64.515625 
Q 56.984375 54.828125 56.984375 36.375 
Q 56.984375 17.96875 50.515625 8.265625 
Q 44.046875 -1.421875 31.78125 -1.421875 
Q 19.53125 -1.421875 13.0625 8.265625 
Q 6.59375 17.96875 6.59375 36.375 
Q 6.59375 54.828125 13.0625 64.515625 
Q 19.53125 74.21875 31.78125 74.21875 
z
" id="DejaVuSans-48"/>
      </defs>
      <g transform="translate(215.075864 85.866562)scale(0.1 -0.1)">
       <use xlink:href="#DejaVuSans-50"/>
       <use x="63.623047" xlink:href="#DejaVuSans-46"/>
       <use x="95.410156" xlink:href="#DejaVuSans-54"/>
       <use x="159.033203" xlink:href="#DejaVuSans-57"/>
       <use x="222.65625" xlink:href="#DejaVuSans-48"/>
      </g>
     </g>
    </g>
    <g id="xtick_3">
     <g id="line2d_3">
      <g>
       <use style="stroke:#000000;stroke-width:0.8;" x="333.170258" xlink:href="#mb6ac927bb6" y="71.268125"/>
      </g>
     </g>
     <g id="text_3">
      <!-- 2.695 -->
      <g transform="translate(318.856195 85.866562)scale(0.1 -0.1)">
       <use xlink:href="#DejaVuSans-50"/>
       <use x="63.623047" xlink:href="#DejaVuSans-46"/>
       <use x="95.410156" xlink:href="#DejaVuSans-54"/>
       <use x="159.033203" xlink:href="#DejaVuSans-57"/>
       <use x="222.65625" xlink:href="#DejaVuSans-53"/>
      </g>
     </g>
    </g>
    <g id="xtick_4">
     <g id="line2d_4">
      <g>
       <use style="stroke:#000000;stroke-width:0.8;" x="436.95059" xlink:href="#mb6ac927bb6" y="71.268125"/>
      </g>
     </g>
     <g id="text_4">
      <!-- 2.700 -->
      <defs>
       <path d="M 8.203125 72.90625 
L 55.078125 72.90625 
L 55.078125 68.703125 
L 28.609375 0 
L 18.3125 0 
L 43.21875 64.59375 
L 8.203125 64.59375 
z
" id="DejaVuSans-55"/>
      </defs>
      <g transform="translate(422.636527 85.866562)scale(0.1 -0.1)">
       <use xlink:href="#DejaVuSans-50"/>
       <use x="63.623047" xlink:href="#DejaVuSans-46"/>
       <use x="95.410156" xlink:href="#DejaVuSans-55"/>
       <use x="159.033203" xlink:href="#DejaVuSans-48"/>
       <use x="222.65625" xlink:href="#DejaVuSans-48"/>
      </g>
     </g>
    </g>
    <g id="xtick_5">
     <g id="line2d_5">
      <g>
       <use style="stroke:#000000;stroke-width:0.8;" x="540.730921" xlink:href="#mb6ac927bb6" y="71.268125"/>
      </g>
     </g>
     <g id="text_5">
      <!-- 2.705 -->
      <g transform="translate(526.416859 85.866562)scale(0.1 -0.1)">
       <use xlink:href="#DejaVuSans-50"/>
       <use x="63.623047" xlink:href="#DejaVuSans-46"/>
       <use x="95.410156" xlink:href="#DejaVuSans-55"/>
       <use x="159.033203" xlink:href="#DejaVuSans-48"/>
       <use x="222.65625" xlink:href="#DejaVuSans-53"/>
      </g>
     </g>
    </g>
    <g id="xtick_6">
     <g id="line2d_6">
      <g>
       <use style="stroke:#000000;stroke-width:0.8;" x="644.511253" xlink:href="#mb6ac927bb6" y="71.268125"/>
      </g>
     </g>
     <g id="text_6">
      <!-- 2.710 -->
      <defs>
       <path d="M 12.40625 8.296875 
L 28.515625 8.296875 
L 28.515625 63.921875 
L 10.984375 60.40625 
L 10.984375 69.390625 
L 28.421875 72.90625 
L 38.28125 72.90625 
L 38.28125 8.296875 
L 54.390625 8.296875 
L 54.390625 0 
L 12.40625 0 
z
" id="DejaVuSans-49"/>
      </defs>
      <g transform="translate(630.19719 85.866562)scale(0.1 -0.1)">
       <use xlink:href="#DejaVuSans-50"/>
       <use x="63.623047" xlink:href="#DejaVuSans-46"/>
       <use x="95.410156" xlink:href="#DejaVuSans-55"/>
       <use x="159.033203" xlink:href="#DejaVuSans-49"/>
       <use x="222.65625" xlink:href="#DejaVuSans-48"/>
      </g>
     </g>
    </g>
    <g id="text_7">
     <!-- Time (ms) -->
     <defs>
      <path d="M -0.296875 72.90625 
L 61.375 72.90625 
L 61.375 64.59375 
L 35.5 64.59375 
L 35.5 0 
L 25.59375 0 
L 25.59375 64.59375 
L -0.296875 64.59375 
z
" id="DejaVuSans-84"/>
      <path d="M 9.421875 54.6875 
L 18.40625 54.6875 
L 18.40625 0 
L 9.421875 0 
z
M 9.421875 75.984375 
L 18.40625 75.984375 
L 18.40625 64.59375 
L 9.421875 64.59375 
z
" id="DejaVuSans-105"/>
      <path d="M 52 44.1875 
Q 55.375 50.25 60.0625 53.125 
Q 64.75 56 71.09375 56 
Q 79.640625 56 84.28125 50.015625 
Q 88.921875 44.046875 88.921875 33.015625 
L 88.921875 0 
L 79.890625 0 
L 79.890625 32.71875 
Q 79.890625 40.578125 77.09375 44.375 
Q 74.3125 48.1875 68.609375 48.1875 
Q 61.625 48.1875 57.5625 43.546875 
Q 53.515625 38.921875 53.515625 30.90625 
L 53.515625 0 
L 44.484375 0 
L 44.484375 32.71875 
Q 44.484375 40.625 41.703125 44.40625 
Q 38.921875 48.1875 33.109375 48.1875 
Q 26.21875 48.1875 22.15625 43.53125 
Q 18.109375 38.875 18.109375 30.90625 
L 18.109375 0 
L 9.078125 0 
L 9.078125 54.6875 
L 18.109375 54.6875 
L 18.109375 46.1875 
Q 21.1875 51.21875 25.484375 53.609375 
Q 29.78125 56 35.6875 56 
Q 41.65625 56 45.828125 52.96875 
Q 50 49.953125 52 44.1875 
z
" id="DejaVuSans-109"/>
      <path d="M 56.203125 29.59375 
L 56.203125 25.203125 
L 14.890625 25.203125 
Q 15.484375 15.921875 20.484375 11.0625 
Q 25.484375 6.203125 34.421875 6.203125 
Q 39.59375 6.203125 44.453125 7.46875 
Q 49.3125 8.734375 54.109375 11.28125 
L 54.109375 2.78125 
Q 49.265625 0.734375 44.1875 -0.34375 
Q 39.109375 -1.421875 33.890625 -1.421875 
Q 20.796875 -1.421875 13.15625 6.1875 
Q 5.515625 13.8125 5.515625 26.8125 
Q 5.515625 40.234375 12.765625 48.109375 
Q 20.015625 56 32.328125 56 
Q 43.359375 56 49.78125 48.890625 
Q 56.203125 41.796875 56.203125 29.59375 
z
M 47.21875 32.234375 
Q 47.125 39.59375 43.09375 43.984375 
Q 39.0625 48.390625 32.421875 48.390625 
Q 24.90625 48.390625 20.390625 44.140625 
Q 15.875 39.890625 15.1875 32.171875 
z
" id="DejaVuSans-101"/>
      <path id="DejaVuSans-32"/>
      <path d="M 31 75.875 
Q 24.46875 64.65625 21.28125 53.65625 
Q 18.109375 42.671875 18.109375 31.390625 
Q 18.109375 20.125 21.3125 9.0625 
Q 24.515625 -2 31 -13.1875 
L 23.1875 -13.1875 
Q 15.875 -1.703125 12.234375 9.375 
Q 8.59375 20.453125 8.59375 31.390625 
Q 8.59375 42.28125 12.203125 53.3125 
Q 15.828125 64.359375 23.1875 75.875 
z
" id="DejaVuSans-40"/>
      <path d="M 44.28125 53.078125 
L 44.28125 44.578125 
Q 40.484375 46.53125 36.375 47.5 
Q 32.28125 48.484375 27.875 48.484375 
Q 21.1875 48.484375 17.84375 46.4375 
Q 14.5 44.390625 14.5 40.28125 
Q 14.5 37.15625 16.890625 35.375 
Q 19.28125 33.59375 26.515625 31.984375 
L 29.59375 31.296875 
Q 39.15625 29.25 43.1875 25.515625 
Q 47.21875 21.78125 47.21875 15.09375 
Q 47.21875 7.46875 41.1875 3.015625 
Q 35.15625 -1.421875 24.609375 -1.421875 
Q 20.21875 -1.421875 15.453125 -0.5625 
Q 10.6875 0.296875 5.421875 2 
L 5.421875 11.28125 
Q 10.40625 8.6875 15.234375 7.390625 
Q 20.0625 6.109375 24.8125 6.109375 
Q 31.15625 6.109375 34.5625 8.28125 
Q 37.984375 10.453125 37.984375 14.40625 
Q 37.984375 18.0625 35.515625 20.015625 
Q 33.0625 21.96875 24.703125 23.78125 
L 21.578125 24.515625 
Q 13.234375 26.265625 9.515625 29.90625 
Q 5.8125 33.546875 5.8125 39.890625 
Q 5.8125 47.609375 11.28125 51.796875 
Q 16.75 56 26.8125 56 
Q 31.78125 56 36.171875 55.265625 
Q 40.578125 54.546875 44.28125 53.078125 
z
" id="DejaVuSans-115"/>
      <path d="M 8.015625 75.875 
L 15.828125 75.875 
Q 23.140625 64.359375 26.78125 53.3125 
Q 30.421875 42.28125 30.421875 31.390625 
Q 30.421875 20.453125 26.78125 9.375 
Q 23.140625 -1.703125 15.828125 -13.1875 
L 8.015625 -13.1875 
Q 14.5 -2 17.703125 9.0625 
Q 20.90625 20.125 20.90625 31.390625 
Q 20.90625 42.671875 17.703125 53.65625 
Q 14.5 64.65625 8.015625 75.875 
z
" id="DejaVuSans-41"/>
     </defs>
     <g transform="translate(347.565 99.544688)scale(0.1 -0.1)">
      <use xlink:href="#DejaVuSans-84"/>
      <use x="61.037109" xlink:href="#DejaVuSans-105"/>
      <use x="88.820312" xlink:href="#DejaVuSans-109"/>
      <use x="186.232422" xlink:href="#DejaVuSans-101"/>
      <use x="247.755859" xlink:href="#DejaVuSans-32"/>
      <use x="279.542969" xlink:href="#DejaVuSans-40"/>
      <use x="318.556641" xlink:href="#DejaVuSans-109"/>
      <use x="415.96875" xlink:href="#DejaVuSans-115"/>
      <use x="468.068359" xlink:href="#DejaVuSans-41"/>
     </g>
    </g>
    <g id="text_8">
     <!-- 1e5 -->
     <g transform="translate(686.355 98.544688)scale(0.1 -0.1)">
      <use xlink:href="#DejaVuSans-49"/>
      <use x="63.623047" xlink:href="#DejaVuSans-101"/>
      <use x="125.146484" xlink:href="#DejaVuSans-53"/>
     </g>
    </g>
   </g>
   <g id="matplotlib.axis_2">
    <g id="ytick_1">
     <g id="line2d_7">
      <defs>
       <path d="M 0 0 
L -3.5 0 
" id="m45e379ceb2" style="stroke:#000000;stroke-width:0.8;"/>
      </defs>
      <g>
       <use style="stroke:#000000;stroke-width:0.8;" x="40.603125" xlink:href="#m45e379ceb2" y="69.043125"/>
      </g>
     </g>
     <g id="text_9">
      <!-- 0 -->
      <g transform="translate(27.240625 72.842344)scale(0.1 -0.1)">
       <use xlink:href="#DejaVuSans-48"/>
      </g>
     </g>
    </g>
    <g id="ytick_2">
     <g id="line2d_8">
      <g>
       <use style="stroke:#000000;stroke-width:0.8;" x="40.603125" xlink:href="#m45e379ceb2" y="40.517484"/>
      </g>
     </g>
     <g id="text_10">
      <!-- 50 -->
      <g transform="translate(20.878125 44.316703)scale(0.1 -0.1)">
       <use xlink:href="#DejaVuSans-53"/>
       <use x="63.623047" xlink:href="#DejaVuSans-48"/>
      </g>
     </g>
    </g>
    <g id="text_11">
     <!-- ADC Value -->
     <defs>
      <path d="M 34.1875 63.1875 
L 20.796875 26.90625 
L 47.609375 26.90625 
z
M 28.609375 72.90625 
L 39.796875 72.90625 
L 67.578125 0 
L 57.328125 0 
L 50.6875 18.703125 
L 17.828125 18.703125 
L 11.1875 0 
L 0.78125 0 
z
" id="DejaVuSans-65"/>
      <path d="M 19.671875 64.796875 
L 19.671875 8.109375 
L 31.59375 8.109375 
Q 46.6875 8.109375 53.6875 14.9375 
Q 60.6875 21.78125 60.6875 36.53125 
Q 60.6875 51.171875 53.6875 57.984375 
Q 46.6875 64.796875 31.59375 64.796875 
z
M 9.8125 72.90625 
L 30.078125 72.90625 
Q 51.265625 72.90625 61.171875 64.09375 
Q 71.09375 55.28125 71.09375 36.53125 
Q 71.09375 17.671875 61.125 8.828125 
Q 51.171875 0 30.078125 0 
L 9.8125 0 
z
" id="DejaVuSans-68"/>
      <path d="M 64.40625 67.28125 
L 64.40625 56.890625 
Q 59.421875 61.53125 53.78125 63.8125 
Q 48.140625 66.109375 41.796875 66.109375 
Q 29.296875 66.109375 22.65625 58.46875 
Q 16.015625 50.828125 16.015625 36.375 
Q 16.015625 21.96875 22.65625 14.328125 
Q 29.296875 6.6875 41.796875 6.6875 
Q 48.140625 6.6875 53.78125 8.984375 
Q 59.421875 11.28125 64.40625 15.921875 
L 64.40625 5.609375 
Q 59.234375 2.09375 53.4375 0.328125 
Q 47.65625 -1.421875 41.21875 -1.421875 
Q 24.65625 -1.421875 15.125 8.703125 
Q 5.609375 18.84375 5.609375 36.375 
Q 5.609375 53.953125 15.125 64.078125 
Q 24.65625 74.21875 41.21875 74.21875 
Q 47.75 74.21875 53.53125 72.484375 
Q 59.328125 70.75 64.40625 67.28125 
z
" id="DejaVuSans-67"/>
      <path d="M 28.609375 0 
L 0.78125 72.90625 
L 11.078125 72.90625 
L 34.1875 11.53125 
L 57.328125 72.90625 
L 67.578125 72.90625 
L 39.796875 0 
z
" id="DejaVuSans-86"/>
      <path d="M 34.28125 27.484375 
Q 23.390625 27.484375 19.1875 25 
Q 14.984375 22.515625 14.984375 16.5 
Q 14.984375 11.71875 18.140625 8.90625 
Q 21.296875 6.109375 26.703125 6.109375 
Q 34.1875 6.109375 38.703125 11.40625 
Q 43.21875 16.703125 43.21875 25.484375 
L 43.21875 27.484375 
z
M 52.203125 31.203125 
L 52.203125 0 
L 43.21875 0 
L 43.21875 8.296875 
Q 40.140625 3.328125 35.546875 0.953125 
Q 30.953125 -1.421875 24.3125 -1.421875 
Q 15.921875 -1.421875 10.953125 3.296875 
Q 6 8.015625 6 15.921875 
Q 6 25.140625 12.171875 29.828125 
Q 18.359375 34.515625 30.609375 34.515625 
L 43.21875 34.515625 
L 43.21875 35.40625 
Q 43.21875 41.609375 39.140625 45 
Q 35.0625 48.390625 27.6875 48.390625 
Q 23 48.390625 18.546875 47.265625 
Q 14.109375 46.140625 10.015625 43.890625 
L 10.015625 52.203125 
Q 14.9375 54.109375 19.578125 55.046875 
Q 24.21875 56 28.609375 56 
Q 40.484375 56 46.34375 49.84375 
Q 52.203125 43.703125 52.203125 31.203125 
z
" id="DejaVuSans-97"/>
      <path d="M 9.421875 75.984375 
L 18.40625 75.984375 
L 18.40625 0 
L 9.421875 0 
z
" id="DejaVuSans-108"/>
      <path d="M 8.5 21.578125 
L 8.5 54.6875 
L 17.484375 54.6875 
L 17.484375 21.921875 
Q 17.484375 14.15625 20.5 10.265625 
Q 23.53125 6.390625 29.59375 6.390625 
Q 36.859375 6.390625 41.078125 11.03125 
Q 45.3125 15.671875 45.3125 23.6875 
L 45.3125 54.6875 
L 54.296875 54.6875 
L 54.296875 0 
L 45.3125 0 
L 45.3125 8.40625 
Q 42.046875 3.421875 37.71875 1 
Q 33.40625 -1.421875 27.6875 -1.421875 
Q 18.265625 -1.421875 13.375 4.4375 
Q 8.5 10.296875 8.5 21.578125 
z
M 31.109375 56 
z
" id="DejaVuSans-117"/>
     </defs>
     <g transform="translate(14.798438 73.257188)rotate(-90)scale(0.1 -0.1)">
      <use xlink:href="#DejaVuSans-65"/>
      <use x="68.408203" xlink:href="#DejaVuSans-68"/>
      <use x="145.410156" xlink:href="#DejaVuSans-67"/>
      <use x="215.234375" xlink:href="#DejaVuSans-32"/>
      <use x="247.021484" xlink:href="#DejaVuSans-86"/>
      <use x="315.320312" xlink:href="#DejaVuSans-97"/>
      <use x="376.599609" xlink:href="#DejaVuSans-108"/>
      <use x="404.382812" xlink:href="#DejaVuSans-117"/>
      <use x="467.761719" xlink:href="#DejaVuSans-101"/>
     </g>
    </g>
   </g>
   <g id="line2d_9">
    <path clip-path="url(#p969cdb3d10)" d="M 70.81358 69.043125 
L 82.644537 69.043125 
L 85.550387 65.049535 
L 87.418433 64.479022 
L 92.607449 64.479022 
L 98.004026 60.485433 
L 100.287194 57.062356 
L 106.721574 45.652099 
L 109.004742 42.229022 
L 111.287909 39.376458 
L 113.571076 37.094407 
L 118.137411 34.812356 
L 120.420578 32.530304 
L 122.703745 31.389279 
L 124.779352 31.389279 
L 127.27008 30.248253 
L 129.553247 32.530304 
L 131.628854 43.940561 
L 133.912021 61.626458 
L 136.402749 69.043125 
L 147.403464 69.043125 
L 149.894192 66.761074 
L 151.969799 59.91492 
L 154.460527 53.068766 
L 156.743694 47.363638 
L 158.819301 42.799535 
L 161.310029 39.376458 
L 163.593196 35.953381 
L 165.668803 33.100817 
L 167.95197 31.389279 
L 169.820016 30.818766 
L 174.593911 28.536715 
L 176.669518 27.395689 
L 179.160246 25.684151 
L 181.443413 24.543125 
L 192.444128 24.543125 
L 195.557538 25.113638 
L 200.123873 27.395689 
L 202.40704 30.818766 
L 206.973375 53.068766 
L 209.256542 61.055946 
L 212.369952 64.479022 
L 214.445559 62.196971 
L 216.521165 59.344407 
L 218.804332 55.92133 
L 221.0875 51.92774 
L 223.370667 48.504663 
L 225.446274 45.081587 
L 227.31432 41.65851 
L 229.597487 39.376458 
L 231.673094 38.235433 
L 234.163822 37.66492 
L 238.937717 37.66492 
L 241.220884 37.094407 
L 245.372097 38.235433 
L 249.523311 37.094407 
L 252.014039 35.953381 
L 253.882085 35.382869 
L 256.165252 34.812356 
L 261.354268 34.812356 
L 263.637436 35.382869 
L 268.20377 35.953381 
L 270.071816 37.094407 
L 272.354984 39.946971 
L 274.638151 45.081587 
L 276.921318 54.209792 
L 280.034728 64.479022 
L 282.317895 66.761074 
L 284.601063 66.761074 
L 286.676669 65.049535 
L 290.827883 59.91492 
L 292.903489 58.203381 
L 295.394217 57.062356 
L 297.884945 55.350817 
L 300.168113 53.068766 
L 302.45128 52.498253 
L 304.734447 51.357228 
L 307.017614 50.786715 
L 311.376388 48.504663 
L 316.150284 47.363638 
L 318.22589 46.222612 
L 320.716618 46.222612 
L 322.999785 45.081587 
L 325.075392 44.511074 
L 327.358559 44.511074 
L 329.226605 45.081587 
L 331.717333 44.511074 
L 336.076107 44.511074 
L 338.566835 43.940561 
L 342.925609 46.222612 
L 345.208776 49.645689 
L 347.284383 58.773894 
L 349.35999 69.043125 
L 360.568266 69.043125 
L 363.058993 68.472612 
L 369.908495 55.92133 
L 372.606784 49.075176 
L 375.097512 43.940561 
L 377.380679 41.087997 
L 379.456286 39.376458 
L 381.739453 38.235433 
L 384.437742 38.235433 
L 391.079683 41.65851 
L 393.570411 41.65851 
L 395.853578 42.799535 
L 397.929185 42.799535 
L 400.419913 43.370048 
L 402.287959 43.940561 
L 404.571126 44.511074 
L 407.061854 45.652099 
L 408.9299 46.222612 
L 413.703795 46.222612 
L 415.779402 47.363638 
L 418.27013 49.645689 
L 422.421343 64.479022 
L 424.70451 69.043125 
L 429.270845 69.043125 
L 431.554012 66.761074 
L 433.629619 64.479022 
L 435.497665 62.196971 
L 438.611075 58.773894 
L 440.479121 56.491843 
L 442.762288 54.209792 
L 447.743744 50.786715 
L 450.234472 49.645689 
L 452.310079 47.934151 
L 457.291535 45.652099 
L 459.367141 45.081587 
L 461.442748 43.940561 
L 463.933476 43.940561 
L 468.29225 42.799535 
L 474.934191 42.799535 
L 477.217358 43.370048 
L 484.274421 43.370048 
L 486.557588 45.081587 
L 488.633195 50.216202 
L 491.123923 59.91492 
L 492.991969 67.902099 
L 495.275136 69.043125 
L 499.841471 69.043125 
L 502.124638 67.331587 
L 504.407805 63.337997 
L 510.842186 53.639279 
L 513.125353 51.92774 
L 515.616081 49.645689 
L 517.691688 47.363638 
L 519.974855 45.081587 
L 522.258022 43.940561 
L 525.163872 42.799535 
L 527.031918 41.65851 
L 529.315085 40.517484 
L 531.183131 40.517484 
L 533.466298 39.946971 
L 535.541905 39.946971 
L 537.825072 38.235433 
L 540.3158 35.953381 
L 544.674574 33.67133 
L 546.54262 34.241843 
L 548.825787 34.241843 
L 554.014804 35.382869 
L 555.88285 37.094407 
L 557.958456 41.087997 
L 562.732352 58.773894 
L 565.015519 62.767484 
L 566.883565 63.337997 
L 569.374293 63.337997 
L 571.65746 62.196971 
L 575.808673 58.773894 
L 579.959887 54.780304 
L 583.488418 51.92774 
L 585.356464 50.786715 
L 587.847192 49.645689 
L 589.715238 49.075176 
L 592.205966 47.934151 
L 594.489133 47.363638 
L 596.56474 47.363638 
L 599.470589 46.793125 
L 601.753756 46.222612 
L 606.320091 46.222612 
L 608.603258 45.652099 
L 613.169593 45.652099 
L 615.45276 45.081587 
L 624.377869 45.081587 
L 626.661036 45.652099 
L 629.151764 47.363638 
L 631.22737 49.645689 
L 633.510538 52.498253 
L 635.793705 54.209792 
L 637.869312 54.780304 
L 640.36004 54.209792 
L 642.228086 53.068766 
L 644.511253 52.498253 
L 646.79442 51.357228 
L 649.077588 50.786715 
L 651.360755 49.645689 
L 655.719529 48.504663 
L 663.191713 48.504663 
L 665.47488 47.363638 
L 668.380729 46.222612 
L 672.531942 46.222612 
L 675.02267 45.652099 
L 675.02267 45.652099 
" style="fill:none;stroke:#1f77b4;stroke-linecap:square;stroke-width:1.5;"/>
   </g>
   <g id="patch_3">
    <path d="M 40.603125 71.268125 
L 40.603125 22.318125 
" style="fill:none;stroke:#000000;stroke-linecap:square;stroke-linejoin:miter;stroke-width:0.8;"/>
   </g>
   <g id="patch_4">
    <path d="M 705.233125 71.268125 
L 705.233125 22.318125 
" style="fill:none;stroke:#000000;stroke-linecap:square;stroke-linejoin:miter;stroke-width:0.8;"/>
   </g>
   <g id="patch_5">
    <path d="M 40.603125 71.268125 
L 705.233125 71.268125 
" style="fill:none;stroke:#000000;stroke-linecap:square;stroke-linejoin:miter;stroke-width:0.8;"/>
   </g>
   <g id="patch_6">
    <path d="M 40.603125 22.318125 
L 705.233125 22.318125 
" style="fill:none;stroke:#000000;stroke-linecap:square;stroke-linejoin:miter;stroke-width:0.8;"/>
   </g>
   <g id="text_12">
    <!-- IR LED Input Signal -->
    <defs>
     <path d="M 9.8125 72.90625 
L 19.671875 72.90625 
L 19.671875 0 
L 9.8125 0 
z
" id="DejaVuSans-73"/>
     <path d="M 44.390625 34.1875 
Q 47.5625 33.109375 50.5625 29.59375 
Q 53.5625 26.078125 56.59375 19.921875 
L 66.609375 0 
L 56 0 
L 46.6875 18.703125 
Q 43.0625 26.03125 39.671875 28.421875 
Q 36.28125 30.8125 30.421875 30.8125 
L 19.671875 30.8125 
L 19.671875 0 
L 9.8125 0 
L 9.8125 72.90625 
L 32.078125 72.90625 
Q 44.578125 72.90625 50.734375 67.671875 
Q 56.890625 62.453125 56.890625 51.90625 
Q 56.890625 45.015625 53.6875 40.46875 
Q 50.484375 35.9375 44.390625 34.1875 
z
M 19.671875 64.796875 
L 19.671875 38.921875 
L 32.078125 38.921875 
Q 39.203125 38.921875 42.84375 42.21875 
Q 46.484375 45.515625 46.484375 51.90625 
Q 46.484375 58.296875 42.84375 61.546875 
Q 39.203125 64.796875 32.078125 64.796875 
z
" id="DejaVuSans-82"/>
     <path d="M 9.8125 72.90625 
L 19.671875 72.90625 
L 19.671875 8.296875 
L 55.171875 8.296875 
L 55.171875 0 
L 9.8125 0 
z
" id="DejaVuSans-76"/>
     <path d="M 9.8125 72.90625 
L 55.90625 72.90625 
L 55.90625 64.59375 
L 19.671875 64.59375 
L 19.671875 43.015625 
L 54.390625 43.015625 
L 54.390625 34.71875 
L 19.671875 34.71875 
L 19.671875 8.296875 
L 56.78125 8.296875 
L 56.78125 0 
L 9.8125 0 
z
" id="DejaVuSans-69"/>
     <path d="M 54.890625 33.015625 
L 54.890625 0 
L 45.90625 0 
L 45.90625 32.71875 
Q 45.90625 40.484375 42.875 44.328125 
Q 39.84375 48.1875 33.796875 48.1875 
Q 26.515625 48.1875 22.3125 43.546875 
Q 18.109375 38.921875 18.109375 30.90625 
L 18.109375 0 
L 9.078125 0 
L 9.078125 54.6875 
L 18.109375 54.6875 
L 18.109375 46.1875 
Q 21.34375 51.125 25.703125 53.5625 
Q 30.078125 56 35.796875 56 
Q 45.21875 56 50.046875 50.171875 
Q 54.890625 44.34375 54.890625 33.015625 
z
" id="DejaVuSans-110"/>
     <path d="M 18.109375 8.203125 
L 18.109375 -20.796875 
L 9.078125 -20.796875 
L 9.078125 54.6875 
L 18.109375 54.6875 
L 18.109375 46.390625 
Q 20.953125 51.265625 25.265625 53.625 
Q 29.59375 56 35.59375 56 
Q 45.5625 56 51.78125 48.09375 
Q 58.015625 40.1875 58.015625 27.296875 
Q 58.015625 14.40625 51.78125 6.484375 
Q 45.5625 -1.421875 35.59375 -1.421875 
Q 29.59375 -1.421875 25.265625 0.953125 
Q 20.953125 3.328125 18.109375 8.203125 
z
M 48.6875 27.296875 
Q 48.6875 37.203125 44.609375 42.84375 
Q 40.53125 48.484375 33.40625 48.484375 
Q 26.265625 48.484375 22.1875 42.84375 
Q 18.109375 37.203125 18.109375 27.296875 
Q 18.109375 17.390625 22.1875 11.75 
Q 26.265625 6.109375 33.40625 6.109375 
Q 40.53125 6.109375 44.609375 11.75 
Q 48.6875 17.390625 48.6875 27.296875 
z
" id="DejaVuSans-112"/>
     <path d="M 18.3125 70.21875 
L 18.3125 54.6875 
L 36.8125 54.6875 
L 36.8125 47.703125 
L 18.3125 47.703125 
L 18.3125 18.015625 
Q 18.3125 11.328125 20.140625 9.421875 
Q 21.96875 7.515625 27.59375 7.515625 
L 36.8125 7.515625 
L 36.8125 0 
L 27.59375 0 
Q 17.1875 0 13.234375 3.875 
Q 9.28125 7.765625 9.28125 18.015625 
L 9.28125 47.703125 
L 2.6875 47.703125 
L 2.6875 54.6875 
L 9.28125 54.6875 
L 9.28125 70.21875 
z
" id="DejaVuSans-116"/>
     <path d="M 53.515625 70.515625 
L 53.515625 60.890625 
Q 47.90625 63.578125 42.921875 64.890625 
Q 37.9375 66.21875 33.296875 66.21875 
Q 25.25 66.21875 20.875 63.09375 
Q 16.5 59.96875 16.5 54.203125 
Q 16.5 49.359375 19.40625 46.890625 
Q 22.3125 44.4375 30.421875 42.921875 
L 36.375 41.703125 
Q 47.40625 39.59375 52.65625 34.296875 
Q 57.90625 29 57.90625 20.125 
Q 57.90625 9.515625 50.796875 4.046875 
Q 43.703125 -1.421875 29.984375 -1.421875 
Q 24.8125 -1.421875 18.96875 -0.25 
Q 13.140625 0.921875 6.890625 3.21875 
L 6.890625 13.375 
Q 12.890625 10.015625 18.65625 8.296875 
Q 24.421875 6.59375 29.984375 6.59375 
Q 38.421875 6.59375 43.015625 9.90625 
Q 47.609375 13.234375 47.609375 19.390625 
Q 47.609375 24.75 44.3125 27.78125 
Q 41.015625 30.8125 33.5 32.328125 
L 27.484375 33.5 
Q 16.453125 35.6875 11.515625 40.375 
Q 6.59375 45.0625 6.59375 53.421875 
Q 6.59375 63.09375 13.40625 68.65625 
Q 20.21875 74.21875 32.171875 74.21875 
Q 37.3125 74.21875 42.625 73.28125 
Q 47.953125 72.359375 53.515625 70.515625 
z
" id="DejaVuSans-83"/>
     <path d="M 45.40625 27.984375 
Q 45.40625 37.75 41.375 43.109375 
Q 37.359375 48.484375 30.078125 48.484375 
Q 22.859375 48.484375 18.828125 43.109375 
Q 14.796875 37.75 14.796875 27.984375 
Q 14.796875 18.265625 18.828125 12.890625 
Q 22.859375 7.515625 30.078125 7.515625 
Q 37.359375 7.515625 41.375 12.890625 
Q 45.40625 18.265625 45.40625 27.984375 
z
M 54.390625 6.78125 
Q 54.390625 -7.171875 48.1875 -13.984375 
Q 42 -20.796875 29.203125 -20.796875 
Q 24.46875 -20.796875 20.265625 -20.09375 
Q 16.0625 -19.390625 12.109375 -17.921875 
L 12.109375 -9.1875 
Q 16.0625 -11.328125 19.921875 -12.34375 
Q 23.78125 -13.375 27.78125 -13.375 
Q 36.625 -13.375 41.015625 -8.765625 
Q 45.40625 -4.15625 45.40625 5.171875 
L 45.40625 9.625 
Q 42.625 4.78125 38.28125 2.390625 
Q 33.9375 0 27.875 0 
Q 17.828125 0 11.671875 7.65625 
Q 5.515625 15.328125 5.515625 27.984375 
Q 5.515625 40.671875 11.671875 48.328125 
Q 17.828125 56 27.875 56 
Q 33.9375 56 38.28125 53.609375 
Q 42.625 51.21875 45.40625 46.390625 
L 45.40625 54.6875 
L 54.390625 54.6875 
z
" id="DejaVuSans-103"/>
    </defs>
    <g transform="translate(315.536563 16.318125)scale(0.12 -0.12)">
     <use xlink:href="#DejaVuSans-73"/>
     <use x="29.492188" xlink:href="#DejaVuSans-82"/>
     <use x="98.974609" xlink:href="#DejaVuSans-32"/>
     <use x="130.761719" xlink:href="#DejaVuSans-76"/>
     <use x="186.474609" xlink:href="#DejaVuSans-69"/>
     <use x="249.658203" xlink:href="#DejaVuSans-68"/>
     <use x="326.660156" xlink:href="#DejaVuSans-32"/>
     <use x="358.447266" xlink:href="#DejaVuSans-73"/>
     <use x="387.939453" xlink:href="#DejaVuSans-110"/>
     <use x="451.318359" xlink:href="#DejaVuSans-112"/>
     <use x="514.794922" xlink:href="#DejaVuSans-117"/>
     <use x="578.173828" xlink:href="#DejaVuSans-116"/>
     <use x="617.382812" xlink:href="#DejaVuSans-32"/>
     <use x="649.169922" xlink:href="#DejaVuSans-83"/>
     <use x="712.646484" xlink:href="#DejaVuSans-105"/>
     <use x="740.429688" xlink:href="#DejaVuSans-103"/>
     <use x="803.90625" xlink:href="#DejaVuSans-110"/>
     <use x="867.285156" xlink:href="#DejaVuSans-97"/>
     <use x="928.564453" xlink:href="#DejaVuSans-108"/>
    </g>
   </g>
  </g>
  <g id="axes_2">
   <g id="patch_7">
    <path d="M 40.603125 176.818125 
L 705.233125 176.818125 
L 705.233125 127.868125 
L 40.603125 127.868125 
z
" style="fill:#ffffff;"/>
   </g>
   <g id="matplotlib.axis_3">
    <g id="xtick_7">
     <g id="line2d_10">
      <g>
       <use style="stroke:#000000;stroke-width:0.8;" x="125.609595" xlink:href="#mb6ac927bb6" y="176.818125"/>
      </g>
     </g>
     <g id="text_13">
      <!-- 2.685 -->
      <g transform="translate(111.295532 191.416562)scale(0.1 -0.1)">
       <use xlink:href="#DejaVuSans-50"/>
       <use x="63.623047" xlink:href="#DejaVuSans-46"/>
       <use x="95.410156" xlink:href="#DejaVuSans-54"/>
       <use x="159.033203" xlink:href="#DejaVuSans-56"/>
       <use x="222.65625" xlink:href="#DejaVuSans-53"/>
      </g>
     </g>
    </g>
    <g id="xtick_8">
     <g id="line2d_11">
      <g>
       <use style="stroke:#000000;stroke-width:0.8;" x="229.389926" xlink:href="#mb6ac927bb6" y="176.818125"/>
      </g>
     </g>
     <g id="text_14">
      <!-- 2.690 -->
      <g transform="translate(215.075864 191.416562)scale(0.1 -0.1)">
       <use xlink:href="#DejaVuSans-50"/>
       <use x="63.623047" xlink:href="#DejaVuSans-46"/>
       <use x="95.410156" xlink:href="#DejaVuSans-54"/>
       <use x="159.033203" xlink:href="#DejaVuSans-57"/>
       <use x="222.65625" xlink:href="#DejaVuSans-48"/>
      </g>
     </g>
    </g>
    <g id="xtick_9">
     <g id="line2d_12">
      <g>
       <use style="stroke:#000000;stroke-width:0.8;" x="333.170258" xlink:href="#mb6ac927bb6" y="176.818125"/>
      </g>
     </g>
     <g id="text_15">
      <!-- 2.695 -->
      <g transform="translate(318.856195 191.416562)scale(0.1 -0.1)">
       <use xlink:href="#DejaVuSans-50"/>
       <use x="63.623047" xlink:href="#DejaVuSans-46"/>
       <use x="95.410156" xlink:href="#DejaVuSans-54"/>
       <use x="159.033203" xlink:href="#DejaVuSans-57"/>
       <use x="222.65625" xlink:href="#DejaVuSans-53"/>
      </g>
     </g>
    </g>
    <g id="xtick_10">
     <g id="line2d_13">
      <g>
       <use style="stroke:#000000;stroke-width:0.8;" x="436.95059" xlink:href="#mb6ac927bb6" y="176.818125"/>
      </g>
     </g>
     <g id="text_16">
      <!-- 2.700 -->
      <g transform="translate(422.636527 191.416562)scale(0.1 -0.1)">
       <use xlink:href="#DejaVuSans-50"/>
       <use x="63.623047" xlink:href="#DejaVuSans-46"/>
       <use x="95.410156" xlink:href="#DejaVuSans-55"/>
       <use x="159.033203" xlink:href="#DejaVuSans-48"/>
       <use x="222.65625" xlink:href="#DejaVuSans-48"/>
      </g>
     </g>
    </g>
    <g id="xtick_11">
     <g id="line2d_14">
      <g>
       <use style="stroke:#000000;stroke-width:0.8;" x="540.730921" xlink:href="#mb6ac927bb6" y="176.818125"/>
      </g>
     </g>
     <g id="text_17">
      <!-- 2.705 -->
      <g transform="translate(526.416859 191.416562)scale(0.1 -0.1)">
       <use xlink:href="#DejaVuSans-50"/>
       <use x="63.623047" xlink:href="#DejaVuSans-46"/>
       <use x="95.410156" xlink:href="#DejaVuSans-55"/>
       <use x="159.033203" xlink:href="#DejaVuSans-48"/>
       <use x="222.65625" xlink:href="#DejaVuSans-53"/>
      </g>
     </g>
    </g>
    <g id="xtick_12">
     <g id="line2d_15">
      <g>
       <use style="stroke:#000000;stroke-width:0.8;" x="644.511253" xlink:href="#mb6ac927bb6" y="176.818125"/>
      </g>
     </g>
     <g id="text_18">
      <!-- 2.710 -->
      <g transform="translate(630.19719 191.416562)scale(0.1 -0.1)">
       <use xlink:href="#DejaVuSans-50"/>
       <use x="63.623047" xlink:href="#DejaVuSans-46"/>
       <use x="95.410156" xlink:href="#DejaVuSans-55"/>
       <use x="159.033203" xlink:href="#DejaVuSans-49"/>
       <use x="222.65625" xlink:href="#DejaVuSans-48"/>
      </g>
     </g>
    </g>
    <g id="text_19">
     <!-- Time (ms) -->
     <g transform="translate(347.565 205.094687)scale(0.1 -0.1)">
      <use xlink:href="#DejaVuSans-84"/>
      <use x="61.037109" xlink:href="#DejaVuSans-105"/>
      <use x="88.820312" xlink:href="#DejaVuSans-109"/>
      <use x="186.232422" xlink:href="#DejaVuSans-101"/>
      <use x="247.755859" xlink:href="#DejaVuSans-32"/>
      <use x="279.542969" xlink:href="#DejaVuSans-40"/>
      <use x="318.556641" xlink:href="#DejaVuSans-109"/>
      <use x="415.96875" xlink:href="#DejaVuSans-115"/>
      <use x="468.068359" xlink:href="#DejaVuSans-41"/>
     </g>
    </g>
    <g id="text_20">
     <!-- 1e5 -->
     <g transform="translate(686.355 204.094687)scale(0.1 -0.1)">
      <use xlink:href="#DejaVuSans-49"/>
      <use x="63.623047" xlink:href="#DejaVuSans-101"/>
      <use x="125.146484" xlink:href="#DejaVuSans-53"/>
     </g>
    </g>
   </g>
   <g id="matplotlib.axis_4">
    <g id="ytick_3">
     <g id="line2d_16">
      <g>
       <use style="stroke:#000000;stroke-width:0.8;" x="40.603125" xlink:href="#m45e379ceb2" y="171.472414"/>
      </g>
     </g>
     <g id="text_21">
      <!-- 0 -->
      <g transform="translate(27.240625 175.271633)scale(0.1 -0.1)">
       <use xlink:href="#DejaVuSans-48"/>
      </g>
     </g>
    </g>
    <g id="ytick_4">
     <g id="line2d_17">
      <g>
       <use style="stroke:#000000;stroke-width:0.8;" x="40.603125" xlink:href="#m45e379ceb2" y="146.349963"/>
      </g>
     </g>
     <g id="text_22">
      <!-- 50 -->
      <g transform="translate(20.878125 150.149182)scale(0.1 -0.1)">
       <use xlink:href="#DejaVuSans-53"/>
       <use x="63.623047" xlink:href="#DejaVuSans-48"/>
      </g>
     </g>
    </g>
    <g id="text_23">
     <!-- ADC Value -->
     <g transform="translate(14.798438 178.807187)rotate(-90)scale(0.1 -0.1)">
      <use xlink:href="#DejaVuSans-65"/>
      <use x="68.408203" xlink:href="#DejaVuSans-68"/>
      <use x="145.410156" xlink:href="#DejaVuSans-67"/>
      <use x="215.234375" xlink:href="#DejaVuSans-32"/>
      <use x="247.021484" xlink:href="#DejaVuSans-86"/>
      <use x="315.320312" xlink:href="#DejaVuSans-97"/>
      <use x="376.599609" xlink:href="#DejaVuSans-108"/>
      <use x="404.382812" xlink:href="#DejaVuSans-117"/>
      <use x="467.761719" xlink:href="#DejaVuSans-101"/>
     </g>
    </g>
   </g>
   <g id="line2d_18">
    <path clip-path="url(#p8cdd3fad4f)" d="M 70.81358 171.491809 
L 78.078203 171.069199 
L 82.644537 170.521529 
L 85.550387 169.971398 
L 90.116721 167.926481 
L 95.720859 164.482193 
L 98.004026 162.344121 
L 102.570361 157.595627 
L 104.438407 155.058359 
L 109.004742 149.584931 
L 115.854243 140.752732 
L 118.137411 138.387151 
L 120.420578 136.928894 
L 122.703745 136.793283 
L 124.779352 138.291535 
L 127.27008 141.531427 
L 129.553247 146.350717 
L 133.912021 158.733623 
L 138.478356 169.883419 
L 140.761523 173.245959 
L 142.629569 174.593125 
L 145.327858 173.887184 
L 147.403464 171.37102 
L 149.894192 167.492365 
L 151.969799 162.798285 
L 156.743694 153.028717 
L 158.819301 148.711825 
L 161.310029 145.04651 
L 163.593196 142.085327 
L 165.668803 139.801696 
L 167.95197 138.12422 
L 169.820016 136.95693 
L 172.310744 136.183862 
L 176.669518 135.243428 
L 179.160246 134.750425 
L 181.443413 134.052976 
L 185.802187 131.950528 
L 187.877794 130.833182 
L 189.9534 130.093125 
L 192.444128 130.148143 
L 195.557538 131.386127 
L 197.840705 134.052524 
L 200.123873 138.154216 
L 202.40704 143.412395 
L 204.482647 149.281954 
L 206.973375 155.040271 
L 209.256542 159.926186 
L 212.369952 163.295659 
L 214.445559 164.754018 
L 216.521165 164.231873 
L 218.804332 161.985775 
L 221.0875 158.527468 
L 223.370667 154.5024 
L 227.31432 147.19252 
L 229.597487 144.741926 
L 231.673094 143.296028 
L 234.163822 142.75896 
L 236.031868 142.903515 
L 238.937717 143.442291 
L 243.296491 144.604355 
L 245.372097 144.811314 
L 247.655265 144.610887 
L 249.523311 143.982524 
L 252.014039 142.989434 
L 253.882085 141.783204 
L 256.165252 140.601545 
L 259.071101 139.749944 
L 261.354268 139.56042 
L 263.637436 140.329569 
L 268.20377 142.245457 
L 270.071816 145.323862 
L 272.354984 149.372847 
L 276.921318 158.686293 
L 282.317895 166.011849 
L 284.601063 167.837447 
L 286.676669 168.243727 
L 288.959837 167.382077 
L 290.827883 165.591399 
L 292.903489 163.307165 
L 295.394217 160.956659 
L 297.884945 158.869737 
L 300.168113 157.22713 
L 302.45128 156.055068 
L 304.734447 155.26165 
L 311.376388 153.718227 
L 316.150284 152.591586 
L 318.22589 152.013719 
L 325.075392 150.417137 
L 331.717333 148.879794 
L 334.000501 148.669268 
L 336.076107 148.917578 
L 338.566835 149.843642 
L 340.850003 151.608394 
L 342.925609 154.254642 
L 345.208776 157.66818 
L 351.435596 169.181749 
L 353.718764 171.967377 
L 356.209492 173.567576 
L 358.285098 173.7777 
L 360.568266 172.571371 
L 363.058993 170.094749 
L 365.549721 166.632122 
L 369.908495 158.263934 
L 375.097512 150.505468 
L 377.380679 147.595434 
L 379.456286 145.550868 
L 381.739453 144.413927 
L 384.437742 144.133008 
L 386.720909 144.5725 
L 389.211637 145.52856 
L 391.079683 146.752727 
L 395.853578 148.990283 
L 397.929185 149.609199 
L 400.419913 149.787619 
L 402.287959 149.601864 
L 404.571126 149.253566 
L 407.061854 149.035805 
L 408.9299 149.272106 
L 411.420628 150.239371 
L 413.703795 152.093257 
L 418.27013 158.193692 
L 420.138176 161.85961 
L 422.421343 165.34942 
L 424.70451 168.201823 
L 426.987678 170.051438 
L 429.270845 170.699949 
L 431.554012 170.146501 
L 433.629619 168.571424 
L 435.497665 166.281312 
L 438.611075 163.631798 
L 440.479121 160.951936 
L 442.762288 158.488629 
L 445.253016 156.382865 
L 447.743744 154.677704 
L 452.310079 152.335186 
L 454.800807 151.577242 
L 459.367141 150.60641 
L 466.216643 149.581816 
L 470.575417 148.407191 
L 474.934191 147.082685 
L 477.217358 146.853669 
L 479.708086 147.288237 
L 481.991254 148.626962 
L 484.274421 150.982493 
L 486.557588 154.280116 
L 488.633195 158.240269 
L 491.123923 162.412605 
L 492.991969 166.256591 
L 495.275136 169.249982 
L 497.558303 170.995992 
L 499.841471 171.301833 
L 502.124638 170.208453 
L 504.407805 167.965873 
L 506.690973 164.964092 
L 508.97414 161.640944 
L 510.842186 158.392611 
L 513.125353 155.509006 
L 515.616081 153.14634 
L 517.691688 151.335514 
L 519.974855 150.016233 
L 522.258022 149.079266 
L 529.315085 147.38119 
L 533.466298 146.157978 
L 535.541905 145.267035 
L 540.3158 142.805688 
L 542.391407 141.407825 
L 544.674574 140.173609 
L 546.54262 139.406218 
L 548.825787 139.425814 
L 551.316515 140.493619 
L 554.014804 142.734541 
L 555.88285 146.081605 
L 560.241624 154.819998 
L 562.732352 159.216477 
L 565.015519 162.91204 
L 566.883565 165.483925 
L 569.374293 166.703872 
L 571.65746 166.572883 
L 573.733067 165.303898 
L 578.091841 160.859234 
L 579.959887 158.496065 
L 583.488418 156.458283 
L 585.356464 154.897978 
L 587.847192 153.833238 
L 589.715238 153.182165 
L 592.205966 152.81201 
L 606.320091 151.368977 
L 615.45276 150.091802 
L 617.528367 149.924386 
L 620.019095 149.957296 
L 622.509823 150.276351 
L 624.377869 150.939684 
L 626.661036 151.951165 
L 629.151764 153.244267 
L 631.22737 154.683432 
L 633.510538 156.084813 
L 635.793705 157.252755 
L 637.869312 158.022256 
L 640.36004 158.295839 
L 642.228086 158.065316 
L 644.511253 157.41163 
L 653.643922 153.761438 
L 655.719529 153.25909 
L 661.116106 152.864064 
L 665.47488 152.648966 
L 668.380729 152.378447 
L 670.663897 151.951617 
L 672.531942 151.397415 
L 675.02267 150.785433 
L 675.02267 150.785433 
" style="fill:none;stroke:#1f77b4;stroke-linecap:square;stroke-width:1.5;"/>
   </g>
   <g id="patch_8">
    <path d="M 40.603125 176.818125 
L 40.603125 127.868125 
" style="fill:none;stroke:#000000;stroke-linecap:square;stroke-linejoin:miter;stroke-width:0.8;"/>
   </g>
   <g id="patch_9">
    <path d="M 705.233125 176.818125 
L 705.233125 127.868125 
" style="fill:none;stroke:#000000;stroke-linecap:square;stroke-linejoin:miter;stroke-width:0.8;"/>
   </g>
   <g id="patch_10">
    <path d="M 40.603125 176.818125 
L 705.233125 176.818125 
" style="fill:none;stroke:#000000;stroke-linecap:square;stroke-linejoin:miter;stroke-width:0.8;"/>
   </g>
   <g id="patch_11">
    <path d="M 40.603125 127.868125 
L 705.233125 127.868125 
" style="fill:none;stroke:#000000;stroke-linecap:square;stroke-linejoin:miter;stroke-width:0.8;"/>
   </g>
   <g id="text_24">
    <!-- Pre-processed Signal -->
    <defs>
     <path d="M 19.671875 64.796875 
L 19.671875 37.40625 
L 32.078125 37.40625 
Q 38.96875 37.40625 42.71875 40.96875 
Q 46.484375 44.53125 46.484375 51.125 
Q 46.484375 57.671875 42.71875 61.234375 
Q 38.96875 64.796875 32.078125 64.796875 
z
M 9.8125 72.90625 
L 32.078125 72.90625 
Q 44.34375 72.90625 50.609375 67.359375 
Q 56.890625 61.8125 56.890625 51.125 
Q 56.890625 40.328125 50.609375 34.8125 
Q 44.34375 29.296875 32.078125 29.296875 
L 19.671875 29.296875 
L 19.671875 0 
L 9.8125 0 
z
" id="DejaVuSans-80"/>
     <path d="M 41.109375 46.296875 
Q 39.59375 47.171875 37.8125 47.578125 
Q 36.03125 48 33.890625 48 
Q 26.265625 48 22.1875 43.046875 
Q 18.109375 38.09375 18.109375 28.8125 
L 18.109375 0 
L 9.078125 0 
L 9.078125 54.6875 
L 18.109375 54.6875 
L 18.109375 46.1875 
Q 20.953125 51.171875 25.484375 53.578125 
Q 30.03125 56 36.53125 56 
Q 37.453125 56 38.578125 55.875 
Q 39.703125 55.765625 41.0625 55.515625 
z
" id="DejaVuSans-114"/>
     <path d="M 4.890625 31.390625 
L 31.203125 31.390625 
L 31.203125 23.390625 
L 4.890625 23.390625 
z
" id="DejaVuSans-45"/>
     <path d="M 30.609375 48.390625 
Q 23.390625 48.390625 19.1875 42.75 
Q 14.984375 37.109375 14.984375 27.296875 
Q 14.984375 17.484375 19.15625 11.84375 
Q 23.34375 6.203125 30.609375 6.203125 
Q 37.796875 6.203125 41.984375 11.859375 
Q 46.1875 17.53125 46.1875 27.296875 
Q 46.1875 37.015625 41.984375 42.703125 
Q 37.796875 48.390625 30.609375 48.390625 
z
M 30.609375 56 
Q 42.328125 56 49.015625 48.375 
Q 55.71875 40.765625 55.71875 27.296875 
Q 55.71875 13.875 49.015625 6.21875 
Q 42.328125 -1.421875 30.609375 -1.421875 
Q 18.84375 -1.421875 12.171875 6.21875 
Q 5.515625 13.875 5.515625 27.296875 
Q 5.515625 40.765625 12.171875 48.375 
Q 18.84375 56 30.609375 56 
z
" id="DejaVuSans-111"/>
     <path d="M 48.78125 52.59375 
L 48.78125 44.1875 
Q 44.96875 46.296875 41.140625 47.34375 
Q 37.3125 48.390625 33.40625 48.390625 
Q 24.65625 48.390625 19.8125 42.84375 
Q 14.984375 37.3125 14.984375 27.296875 
Q 14.984375 17.28125 19.8125 11.734375 
Q 24.65625 6.203125 33.40625 6.203125 
Q 37.3125 6.203125 41.140625 7.25 
Q 44.96875 8.296875 48.78125 10.40625 
L 48.78125 2.09375 
Q 45.015625 0.34375 40.984375 -0.53125 
Q 36.96875 -1.421875 32.421875 -1.421875 
Q 20.0625 -1.421875 12.78125 6.34375 
Q 5.515625 14.109375 5.515625 27.296875 
Q 5.515625 40.671875 12.859375 48.328125 
Q 20.21875 56 33.015625 56 
Q 37.15625 56 41.109375 55.140625 
Q 45.0625 54.296875 48.78125 52.59375 
z
" id="DejaVuSans-99"/>
     <path d="M 45.40625 46.390625 
L 45.40625 75.984375 
L 54.390625 75.984375 
L 54.390625 0 
L 45.40625 0 
L 45.40625 8.203125 
Q 42.578125 3.328125 38.25 0.953125 
Q 33.9375 -1.421875 27.875 -1.421875 
Q 17.96875 -1.421875 11.734375 6.484375 
Q 5.515625 14.40625 5.515625 27.296875 
Q 5.515625 40.1875 11.734375 48.09375 
Q 17.96875 56 27.875 56 
Q 33.9375 56 38.25 53.625 
Q 42.578125 51.265625 45.40625 46.390625 
z
M 14.796875 27.296875 
Q 14.796875 17.390625 18.875 11.75 
Q 22.953125 6.109375 30.078125 6.109375 
Q 37.203125 6.109375 41.296875 11.75 
Q 45.40625 17.390625 45.40625 27.296875 
Q 45.40625 37.203125 41.296875 42.84375 
Q 37.203125 48.484375 30.078125 48.484375 
Q 22.953125 48.484375 18.875 42.84375 
Q 14.796875 37.203125 14.796875 27.296875 
z
" id="DejaVuSans-100"/>
    </defs>
    <g transform="translate(309.95375 121.868125)scale(0.12 -0.12)">
     <use xlink:href="#DejaVuSans-80"/>
     <use x="60.287109" xlink:href="#DejaVuSans-114"/>
     <use x="101.369141" xlink:href="#DejaVuSans-101"/>
     <use x="162.892578" xlink:href="#DejaVuSans-45"/>
     <use x="198.976562" xlink:href="#DejaVuSans-112"/>
     <use x="262.453125" xlink:href="#DejaVuSans-114"/>
     <use x="303.535156" xlink:href="#DejaVuSans-111"/>
     <use x="364.716797" xlink:href="#DejaVuSans-99"/>
     <use x="419.697266" xlink:href="#DejaVuSans-101"/>
     <use x="481.220703" xlink:href="#DejaVuSans-115"/>
     <use x="533.320312" xlink:href="#DejaVuSans-115"/>
     <use x="585.419922" xlink:href="#DejaVuSans-101"/>
     <use x="646.943359" xlink:href="#DejaVuSans-100"/>
     <use x="710.419922" xlink:href="#DejaVuSans-32"/>
     <use x="742.207031" xlink:href="#DejaVuSans-83"/>
     <use x="805.683594" xlink:href="#DejaVuSans-105"/>
     <use x="833.466797" xlink:href="#DejaVuSans-103"/>
     <use x="896.943359" xlink:href="#DejaVuSans-110"/>
     <use x="960.322266" xlink:href="#DejaVuSans-97"/>
     <use x="1021.601562" xlink:href="#DejaVuSans-108"/>
    </g>
   </g>
  </g>
  <g id="axes_3">
   <g id="patch_12">
    <path d="M 40.603125 282.368125 
L 705.233125 282.368125 
L 705.233125 233.418125 
L 40.603125 233.418125 
z
" style="fill:#ffffff;"/>
   </g>
   <g id="matplotlib.axis_5">
    <g id="xtick_13">
     <g id="line2d_19">
      <g>
       <use style="stroke:#000000;stroke-width:0.8;" x="125.609595" xlink:href="#mb6ac927bb6" y="282.368125"/>
      </g>
     </g>
     <g id="text_25">
      <!-- 2.685 -->
      <g transform="translate(111.295532 296.966563)scale(0.1 -0.1)">
       <use xlink:href="#DejaVuSans-50"/>
       <use x="63.623047" xlink:href="#DejaVuSans-46"/>
       <use x="95.410156" xlink:href="#DejaVuSans-54"/>
       <use x="159.033203" xlink:href="#DejaVuSans-56"/>
       <use x="222.65625" xlink:href="#DejaVuSans-53"/>
      </g>
     </g>
    </g>
    <g id="xtick_14">
     <g id="line2d_20">
      <g>
       <use style="stroke:#000000;stroke-width:0.8;" x="229.389926" xlink:href="#mb6ac927bb6" y="282.368125"/>
      </g>
     </g>
     <g id="text_26">
      <!-- 2.690 -->
      <g transform="translate(215.075864 296.966563)scale(0.1 -0.1)">
       <use xlink:href="#DejaVuSans-50"/>
       <use x="63.623047" xlink:href="#DejaVuSans-46"/>
       <use x="95.410156" xlink:href="#DejaVuSans-54"/>
       <use x="159.033203" xlink:href="#DejaVuSans-57"/>
       <use x="222.65625" xlink:href="#DejaVuSans-48"/>
      </g>
     </g>
    </g>
    <g id="xtick_15">
     <g id="line2d_21">
      <g>
       <use style="stroke:#000000;stroke-width:0.8;" x="333.170258" xlink:href="#mb6ac927bb6" y="282.368125"/>
      </g>
     </g>
     <g id="text_27">
      <!-- 2.695 -->
      <g transform="translate(318.856195 296.966563)scale(0.1 -0.1)">
       <use xlink:href="#DejaVuSans-50"/>
       <use x="63.623047" xlink:href="#DejaVuSans-46"/>
       <use x="95.410156" xlink:href="#DejaVuSans-54"/>
       <use x="159.033203" xlink:href="#DejaVuSans-57"/>
       <use x="222.65625" xlink:href="#DejaVuSans-53"/>
      </g>
     </g>
    </g>
    <g id="xtick_16">
     <g id="line2d_22">
      <g>
       <use style="stroke:#000000;stroke-width:0.8;" x="436.95059" xlink:href="#mb6ac927bb6" y="282.368125"/>
      </g>
     </g>
     <g id="text_28">
      <!-- 2.700 -->
      <g transform="translate(422.636527 296.966563)scale(0.1 -0.1)">
       <use xlink:href="#DejaVuSans-50"/>
       <use x="63.623047" xlink:href="#DejaVuSans-46"/>
       <use x="95.410156" xlink:href="#DejaVuSans-55"/>
       <use x="159.033203" xlink:href="#DejaVuSans-48"/>
       <use x="222.65625" xlink:href="#DejaVuSans-48"/>
      </g>
     </g>
    </g>
    <g id="xtick_17">
     <g id="line2d_23">
      <g>
       <use style="stroke:#000000;stroke-width:0.8;" x="540.730921" xlink:href="#mb6ac927bb6" y="282.368125"/>
      </g>
     </g>
     <g id="text_29">
      <!-- 2.705 -->
      <g transform="translate(526.416859 296.966563)scale(0.1 -0.1)">
       <use xlink:href="#DejaVuSans-50"/>
       <use x="63.623047" xlink:href="#DejaVuSans-46"/>
       <use x="95.410156" xlink:href="#DejaVuSans-55"/>
       <use x="159.033203" xlink:href="#DejaVuSans-48"/>
       <use x="222.65625" xlink:href="#DejaVuSans-53"/>
      </g>
     </g>
    </g>
    <g id="xtick_18">
     <g id="line2d_24">
      <g>
       <use style="stroke:#000000;stroke-width:0.8;" x="644.511253" xlink:href="#mb6ac927bb6" y="282.368125"/>
      </g>
     </g>
     <g id="text_30">
      <!-- 2.710 -->
      <g transform="translate(630.19719 296.966563)scale(0.1 -0.1)">
       <use xlink:href="#DejaVuSans-50"/>
       <use x="63.623047" xlink:href="#DejaVuSans-46"/>
       <use x="95.410156" xlink:href="#DejaVuSans-55"/>
       <use x="159.033203" xlink:href="#DejaVuSans-49"/>
       <use x="222.65625" xlink:href="#DejaVuSans-48"/>
      </g>
     </g>
    </g>
    <g id="text_31">
     <!-- 1e5 -->
     <g transform="translate(686.355 309.644687)scale(0.1 -0.1)">
      <use xlink:href="#DejaVuSans-49"/>
      <use x="63.623047" xlink:href="#DejaVuSans-101"/>
      <use x="125.146484" xlink:href="#DejaVuSans-53"/>
     </g>
    </g>
   </g>
   <g id="matplotlib.axis_6">
    <g id="ytick_5">
     <g id="line2d_25">
      <g>
       <use style="stroke:#000000;stroke-width:0.8;" x="40.603125" xlink:href="#m45e379ceb2" y="277.022414"/>
      </g>
     </g>
     <g id="text_32">
      <!-- 0 -->
      <g transform="translate(27.240625 280.821633)scale(0.1 -0.1)">
       <use xlink:href="#DejaVuSans-48"/>
      </g>
     </g>
    </g>
    <g id="ytick_6">
     <g id="line2d_26">
      <g>
       <use style="stroke:#000000;stroke-width:0.8;" x="40.603125" xlink:href="#m45e379ceb2" y="251.899963"/>
      </g>
     </g>
     <g id="text_33">
      <!-- 50 -->
      <g transform="translate(20.878125 255.699182)scale(0.1 -0.1)">
       <use xlink:href="#DejaVuSans-53"/>
       <use x="63.623047" xlink:href="#DejaVuSans-48"/>
      </g>
     </g>
    </g>
   </g>
   <g id="LineCollection_1">
    <path clip-path="url(#pe44fffcebe)" d="M 189.9534 279.3277 
L 189.9534 235.643125 
" style="fill:none;stroke:#000000;stroke-width:1.5;"/>
    <path clip-path="url(#pe44fffcebe)" d="M 261.354268 270.304018 
L 261.354268 245.11042 
" style="fill:none;stroke:#000000;stroke-width:1.5;"/>
    <path clip-path="url(#pe44fffcebe)" d="M 334.000501 273.793727 
L 334.000501 254.219268 
" style="fill:none;stroke:#000000;stroke-width:1.5;"/>
    <path clip-path="url(#pe44fffcebe)" d="M 384.437742 276.851833 
L 384.437742 249.683008 
" style="fill:none;stroke:#000000;stroke-width:1.5;"/>
    <path clip-path="url(#pe44fffcebe)" d="M 477.217358 276.249949 
L 477.217358 252.403669 
" style="fill:none;stroke:#000000;stroke-width:1.5;"/>
    <path clip-path="url(#pe44fffcebe)" d="M 546.54262 272.253872 
L 546.54262 244.956218 
" style="fill:none;stroke:#000000;stroke-width:1.5;"/>
   </g>
   <g id="line2d_27">
    <path clip-path="url(#pe44fffcebe)" d="M 70.81358 277.041809 
L 78.078203 276.619199 
L 82.644537 276.071529 
L 85.550387 275.521398 
L 90.116721 273.476481 
L 95.720859 270.032193 
L 98.004026 267.894121 
L 102.570361 263.145627 
L 104.438407 260.608359 
L 109.004742 255.134931 
L 115.854243 246.302732 
L 118.137411 243.937151 
L 120.420578 242.478894 
L 122.703745 242.343283 
L 124.779352 243.841535 
L 127.27008 247.081427 
L 129.553247 251.900717 
L 133.912021 264.283623 
L 138.478356 275.433419 
L 140.761523 278.795959 
L 142.629569 280.143125 
L 145.327858 279.437184 
L 147.403464 276.92102 
L 149.894192 273.042365 
L 151.969799 268.348285 
L 156.743694 258.578717 
L 158.819301 254.261825 
L 161.310029 250.59651 
L 163.593196 247.635327 
L 165.668803 245.351696 
L 167.95197 243.67422 
L 169.820016 242.50693 
L 172.310744 241.733862 
L 176.669518 240.793428 
L 179.160246 240.300425 
L 181.443413 239.602976 
L 185.802187 237.500528 
L 187.877794 236.383182 
L 189.9534 235.643125 
L 192.444128 235.698143 
L 195.557538 236.936127 
L 197.840705 239.602524 
L 200.123873 243.704216 
L 202.40704 248.962395 
L 204.482647 254.831954 
L 206.973375 260.590271 
L 209.256542 265.476186 
L 212.369952 268.845659 
L 214.445559 270.304018 
L 216.521165 269.781873 
L 218.804332 267.535775 
L 221.0875 264.077468 
L 223.370667 260.0524 
L 227.31432 252.74252 
L 229.597487 250.291926 
L 231.673094 248.846028 
L 234.163822 248.30896 
L 236.031868 248.453515 
L 238.937717 248.992291 
L 243.296491 250.154355 
L 245.372097 250.361314 
L 247.655265 250.160887 
L 249.523311 249.532524 
L 252.014039 248.539434 
L 253.882085 247.333204 
L 256.165252 246.151545 
L 259.071101 245.299944 
L 261.354268 245.11042 
L 263.637436 245.879569 
L 268.20377 247.795457 
L 270.071816 250.873862 
L 272.354984 254.922847 
L 276.921318 264.236293 
L 282.317895 271.561849 
L 284.601063 273.387447 
L 286.676669 273.793727 
L 288.959837 272.932077 
L 290.827883 271.141399 
L 292.903489 268.857165 
L 295.394217 266.506659 
L 297.884945 264.419737 
L 300.168113 262.77713 
L 302.45128 261.605068 
L 304.734447 260.81165 
L 311.376388 259.268227 
L 316.150284 258.141586 
L 318.22589 257.563719 
L 325.075392 255.967137 
L 331.717333 254.429794 
L 334.000501 254.219268 
L 336.076107 254.467578 
L 338.566835 255.393642 
L 340.850003 257.158394 
L 342.925609 259.804642 
L 345.208776 263.21818 
L 351.435596 274.731749 
L 353.718764 277.517377 
L 356.209492 279.117576 
L 358.285098 279.3277 
L 360.568266 278.121371 
L 363.058993 275.644749 
L 365.549721 272.182122 
L 369.908495 263.813934 
L 375.097512 256.055468 
L 377.380679 253.145434 
L 379.456286 251.100868 
L 381.739453 249.963927 
L 384.437742 249.683008 
L 386.720909 250.1225 
L 389.211637 251.07856 
L 391.079683 252.302727 
L 395.853578 254.540283 
L 397.929185 255.159199 
L 400.419913 255.337619 
L 402.287959 255.151864 
L 404.571126 254.803566 
L 407.061854 254.585805 
L 408.9299 254.822106 
L 411.420628 255.789371 
L 413.703795 257.643257 
L 418.27013 263.743692 
L 420.138176 267.40961 
L 422.421343 270.89942 
L 424.70451 273.751823 
L 426.987678 275.601438 
L 429.270845 276.249949 
L 431.554012 275.696501 
L 433.629619 274.121424 
L 435.497665 271.831312 
L 438.611075 269.181798 
L 440.479121 266.501936 
L 442.762288 264.038629 
L 445.253016 261.932865 
L 447.743744 260.227704 
L 452.310079 257.885186 
L 454.800807 257.127242 
L 459.367141 256.15641 
L 466.216643 255.131816 
L 470.575417 253.957191 
L 474.934191 252.632685 
L 477.217358 252.403669 
L 479.708086 252.838237 
L 481.991254 254.176962 
L 484.274421 256.532493 
L 486.557588 259.830116 
L 488.633195 263.790269 
L 491.123923 267.962605 
L 492.991969 271.806591 
L 495.275136 274.799982 
L 497.558303 276.545992 
L 499.841471 276.851833 
L 502.124638 275.758453 
L 504.407805 273.515873 
L 506.690973 270.514092 
L 508.97414 267.190944 
L 510.842186 263.942611 
L 513.125353 261.059006 
L 515.616081 258.69634 
L 517.691688 256.885514 
L 519.974855 255.566233 
L 522.258022 254.629266 
L 529.315085 252.93119 
L 533.466298 251.707978 
L 535.541905 250.817035 
L 540.3158 248.355688 
L 542.391407 246.957825 
L 544.674574 245.723609 
L 546.54262 244.956218 
L 548.825787 244.975814 
L 551.316515 246.043619 
L 554.014804 248.284541 
L 555.88285 251.631605 
L 560.241624 260.369998 
L 562.732352 264.766477 
L 565.015519 268.46204 
L 566.883565 271.033925 
L 569.374293 272.253872 
L 571.65746 272.122883 
L 573.733067 270.853898 
L 578.091841 266.409234 
L 579.959887 264.046065 
L 583.488418 262.008283 
L 585.356464 260.447978 
L 587.847192 259.383238 
L 589.715238 258.732165 
L 592.205966 258.36201 
L 606.320091 256.918977 
L 615.45276 255.641802 
L 617.528367 255.474386 
L 620.019095 255.507296 
L 622.509823 255.826351 
L 624.377869 256.489684 
L 626.661036 257.501165 
L 629.151764 258.794267 
L 631.22737 260.233432 
L 633.510538 261.634813 
L 635.793705 262.802755 
L 637.869312 263.572256 
L 640.36004 263.845839 
L 642.228086 263.615316 
L 644.511253 262.96163 
L 653.643922 259.311438 
L 655.719529 258.80909 
L 661.116106 258.414064 
L 665.47488 258.198966 
L 668.380729 257.928447 
L 670.663897 257.501617 
L 672.531942 256.947415 
L 675.02267 256.335433 
L 675.02267 256.335433 
" style="fill:none;stroke:#1f77b4;stroke-linecap:square;stroke-width:1.5;"/>
   </g>
   <g id="line2d_28">
    <defs>
     <path d="M -3 3 
L 3 -3 
M -3 -3 
L 3 3 
" id="m7feec443da" style="stroke:#008000;"/>
    </defs>
    <g clip-path="url(#pe44fffcebe)">
     <use style="fill:#008000;stroke:#008000;" x="189.9534" xlink:href="#m7feec443da" y="235.643125"/>
     <use style="fill:#008000;stroke:#008000;" x="261.354268" xlink:href="#m7feec443da" y="245.11042"/>
     <use style="fill:#008000;stroke:#008000;" x="334.000501" xlink:href="#m7feec443da" y="254.219268"/>
     <use style="fill:#008000;stroke:#008000;" x="384.437742" xlink:href="#m7feec443da" y="249.683008"/>
     <use style="fill:#008000;stroke:#008000;" x="477.217358" xlink:href="#m7feec443da" y="252.403669"/>
     <use style="fill:#008000;stroke:#008000;" x="546.54262" xlink:href="#m7feec443da" y="244.956218"/>
    </g>
   </g>
   <g id="line2d_29">
    <defs>
     <path d="M -3 3 
L 3 -3 
M -3 -3 
L 3 3 
" id="m2b6506e2a4" style="stroke:#ff0000;"/>
    </defs>
    <g clip-path="url(#pe44fffcebe)">
     <use style="fill:#ff0000;stroke:#ff0000;" x="189.9534" xlink:href="#m2b6506e2a4" y="279.3277"/>
     <use style="fill:#ff0000;stroke:#ff0000;" x="261.354268" xlink:href="#m2b6506e2a4" y="270.304018"/>
     <use style="fill:#ff0000;stroke:#ff0000;" x="334.000501" xlink:href="#m2b6506e2a4" y="273.793727"/>
     <use style="fill:#ff0000;stroke:#ff0000;" x="384.437742" xlink:href="#m2b6506e2a4" y="276.851833"/>
     <use style="fill:#ff0000;stroke:#ff0000;" x="477.217358" xlink:href="#m2b6506e2a4" y="276.249949"/>
     <use style="fill:#ff0000;stroke:#ff0000;" x="546.54262" xlink:href="#m2b6506e2a4" y="272.253872"/>
    </g>
   </g>
   <g id="patch_13">
    <path d="M 40.603125 282.368125 
L 40.603125 233.418125 
" style="fill:none;stroke:#000000;stroke-linecap:square;stroke-linejoin:miter;stroke-width:0.8;"/>
   </g>
   <g id="patch_14">
    <path d="M 705.233125 282.368125 
L 705.233125 233.418125 
" style="fill:none;stroke:#000000;stroke-linecap:square;stroke-linejoin:miter;stroke-width:0.8;"/>
   </g>
   <g id="patch_15">
    <path d="M 40.603125 282.368125 
L 705.233125 282.368125 
" style="fill:none;stroke:#000000;stroke-linecap:square;stroke-linejoin:miter;stroke-width:0.8;"/>
   </g>
   <g id="patch_16">
    <path d="M 40.603125 233.418125 
L 705.233125 233.418125 
" style="fill:none;stroke:#000000;stroke-linecap:square;stroke-linejoin:miter;stroke-width:0.8;"/>
   </g>
   <g id="text_34">
    <!-- AC Components -->
    <g transform="translate(324.757813 227.418125)scale(0.12 -0.12)">
     <use xlink:href="#DejaVuSans-65"/>
     <use x="68.392578" xlink:href="#DejaVuSans-67"/>
     <use x="138.216797" xlink:href="#DejaVuSans-32"/>
     <use x="170.003906" xlink:href="#DejaVuSans-67"/>
     <use x="239.828125" xlink:href="#DejaVuSans-111"/>
     <use x="301.009766" xlink:href="#DejaVuSans-109"/>
     <use x="398.421875" xlink:href="#DejaVuSans-112"/>
     <use x="461.898438" xlink:href="#DejaVuSans-111"/>
     <use x="523.080078" xlink:href="#DejaVuSans-110"/>
     <use x="586.458984" xlink:href="#DejaVuSans-101"/>
     <use x="647.982422" xlink:href="#DejaVuSans-110"/>
     <use x="711.361328" xlink:href="#DejaVuSans-116"/>
     <use x="750.570312" xlink:href="#DejaVuSans-115"/>
    </g>
   </g>
  </g>
  <g id="axes_4">
   <g id="patch_17">
    <path d="M 40.603125 387.918125 
L 705.233125 387.918125 
L 705.233125 338.968125 
L 40.603125 338.968125 
z
" style="fill:#ffffff;"/>
   </g>
   <g id="matplotlib.axis_7">
    <g id="xtick_19">
     <g id="line2d_30">
      <g>
       <use style="stroke:#000000;stroke-width:0.8;" x="125.609595" xlink:href="#mb6ac927bb6" y="387.918125"/>
      </g>
     </g>
     <g id="text_35">
      <!-- 2.685 -->
      <g transform="translate(111.295532 402.516563)scale(0.1 -0.1)">
       <use xlink:href="#DejaVuSans-50"/>
       <use x="63.623047" xlink:href="#DejaVuSans-46"/>
       <use x="95.410156" xlink:href="#DejaVuSans-54"/>
       <use x="159.033203" xlink:href="#DejaVuSans-56"/>
       <use x="222.65625" xlink:href="#DejaVuSans-53"/>
      </g>
     </g>
    </g>
    <g id="xtick_20">
     <g id="line2d_31">
      <g>
       <use style="stroke:#000000;stroke-width:0.8;" x="229.389926" xlink:href="#mb6ac927bb6" y="387.918125"/>
      </g>
     </g>
     <g id="text_36">
      <!-- 2.690 -->
      <g transform="translate(215.075864 402.516563)scale(0.1 -0.1)">
       <use xlink:href="#DejaVuSans-50"/>
       <use x="63.623047" xlink:href="#DejaVuSans-46"/>
       <use x="95.410156" xlink:href="#DejaVuSans-54"/>
       <use x="159.033203" xlink:href="#DejaVuSans-57"/>
       <use x="222.65625" xlink:href="#DejaVuSans-48"/>
      </g>
     </g>
    </g>
    <g id="xtick_21">
     <g id="line2d_32">
      <g>
       <use style="stroke:#000000;stroke-width:0.8;" x="333.170258" xlink:href="#mb6ac927bb6" y="387.918125"/>
      </g>
     </g>
     <g id="text_37">
      <!-- 2.695 -->
      <g transform="translate(318.856195 402.516563)scale(0.1 -0.1)">
       <use xlink:href="#DejaVuSans-50"/>
       <use x="63.623047" xlink:href="#DejaVuSans-46"/>
       <use x="95.410156" xlink:href="#DejaVuSans-54"/>
       <use x="159.033203" xlink:href="#DejaVuSans-57"/>
       <use x="222.65625" xlink:href="#DejaVuSans-53"/>
      </g>
     </g>
    </g>
    <g id="xtick_22">
     <g id="line2d_33">
      <g>
       <use style="stroke:#000000;stroke-width:0.8;" x="436.95059" xlink:href="#mb6ac927bb6" y="387.918125"/>
      </g>
     </g>
     <g id="text_38">
      <!-- 2.700 -->
      <g transform="translate(422.636527 402.516563)scale(0.1 -0.1)">
       <use xlink:href="#DejaVuSans-50"/>
       <use x="63.623047" xlink:href="#DejaVuSans-46"/>
       <use x="95.410156" xlink:href="#DejaVuSans-55"/>
       <use x="159.033203" xlink:href="#DejaVuSans-48"/>
       <use x="222.65625" xlink:href="#DejaVuSans-48"/>
      </g>
     </g>
    </g>
    <g id="xtick_23">
     <g id="line2d_34">
      <g>
       <use style="stroke:#000000;stroke-width:0.8;" x="540.730921" xlink:href="#mb6ac927bb6" y="387.918125"/>
      </g>
     </g>
     <g id="text_39">
      <!-- 2.705 -->
      <g transform="translate(526.416859 402.516563)scale(0.1 -0.1)">
       <use xlink:href="#DejaVuSans-50"/>
       <use x="63.623047" xlink:href="#DejaVuSans-46"/>
       <use x="95.410156" xlink:href="#DejaVuSans-55"/>
       <use x="159.033203" xlink:href="#DejaVuSans-48"/>
       <use x="222.65625" xlink:href="#DejaVuSans-53"/>
      </g>
     </g>
    </g>
    <g id="xtick_24">
     <g id="line2d_35">
      <g>
       <use style="stroke:#000000;stroke-width:0.8;" x="644.511253" xlink:href="#mb6ac927bb6" y="387.918125"/>
      </g>
     </g>
     <g id="text_40">
      <!-- 2.710 -->
      <g transform="translate(630.19719 402.516563)scale(0.1 -0.1)">
       <use xlink:href="#DejaVuSans-50"/>
       <use x="63.623047" xlink:href="#DejaVuSans-46"/>
       <use x="95.410156" xlink:href="#DejaVuSans-55"/>
       <use x="159.033203" xlink:href="#DejaVuSans-49"/>
       <use x="222.65625" xlink:href="#DejaVuSans-48"/>
      </g>
     </g>
    </g>
    <g id="text_41">
     <!-- 1e5 -->
     <g transform="translate(686.355 415.194687)scale(0.1 -0.1)">
      <use xlink:href="#DejaVuSans-49"/>
      <use x="63.623047" xlink:href="#DejaVuSans-101"/>
      <use x="125.146484" xlink:href="#DejaVuSans-53"/>
     </g>
    </g>
   </g>
   <g id="matplotlib.axis_8">
    <g id="ytick_7">
     <g id="line2d_36">
      <g>
       <use style="stroke:#000000;stroke-width:0.8;" x="40.603125" xlink:href="#m45e379ceb2" y="382.572414"/>
      </g>
     </g>
     <g id="text_42">
      <!-- 0 -->
      <g transform="translate(27.240625 386.371633)scale(0.1 -0.1)">
       <use xlink:href="#DejaVuSans-48"/>
      </g>
     </g>
    </g>
    <g id="ytick_8">
     <g id="line2d_37">
      <g>
       <use style="stroke:#000000;stroke-width:0.8;" x="40.603125" xlink:href="#m45e379ceb2" y="357.449963"/>
      </g>
     </g>
     <g id="text_43">
      <!-- 50 -->
      <g transform="translate(20.878125 361.249182)scale(0.1 -0.1)">
       <use xlink:href="#DejaVuSans-53"/>
       <use x="63.623047" xlink:href="#DejaVuSans-48"/>
      </g>
     </g>
    </g>
   </g>
   <g id="line2d_38">
    <path clip-path="url(#p17427da97c)" d="M 70.81358 382.591809 
L 78.078203 382.169199 
L 82.644537 381.621529 
L 85.550387 381.071398 
L 90.116721 379.026481 
L 95.720859 375.582193 
L 98.004026 373.444121 
L 102.570361 368.695627 
L 104.438407 366.158359 
L 109.004742 360.684931 
L 115.854243 351.852732 
L 118.137411 349.487151 
L 120.420578 348.028894 
L 122.703745 347.893283 
L 124.779352 349.391535 
L 127.27008 352.631427 
L 129.553247 357.450717 
L 133.912021 369.833623 
L 138.478356 380.983419 
L 140.761523 384.345959 
L 142.629569 385.693125 
L 145.327858 384.987184 
L 147.403464 382.47102 
L 149.894192 378.592365 
L 151.969799 373.898285 
L 156.743694 364.128717 
L 158.819301 359.811825 
L 161.310029 356.14651 
L 163.593196 353.185327 
L 165.668803 350.901696 
L 167.95197 349.22422 
L 169.820016 348.05693 
L 172.310744 347.283862 
L 176.669518 346.343428 
L 179.160246 345.850425 
L 181.443413 345.152976 
L 185.802187 343.050528 
L 187.877794 341.933182 
L 189.9534 341.193125 
L 192.444128 341.248143 
L 195.557538 342.486127 
L 197.840705 345.152524 
L 200.123873 349.254216 
L 202.40704 354.512395 
L 204.482647 360.381954 
L 206.973375 366.140271 
L 209.256542 371.026186 
L 212.369952 374.395659 
L 214.445559 375.854018 
L 216.521165 375.331873 
L 218.804332 373.085775 
L 221.0875 369.627468 
L 223.370667 365.6024 
L 227.31432 358.29252 
L 229.597487 355.841926 
L 231.673094 354.396028 
L 234.163822 353.85896 
L 236.031868 354.003515 
L 238.937717 354.542291 
L 243.296491 355.704355 
L 245.372097 355.911314 
L 247.655265 355.710887 
L 249.523311 355.082524 
L 252.014039 354.089434 
L 253.882085 352.883204 
L 256.165252 351.701545 
L 259.071101 350.849944 
L 261.354268 350.66042 
L 263.637436 351.429569 
L 268.20377 353.345457 
L 270.071816 356.423862 
L 272.354984 360.472847 
L 276.921318 369.786293 
L 282.317895 377.111849 
L 284.601063 378.937447 
L 286.676669 379.343727 
L 288.959837 378.482077 
L 290.827883 376.691399 
L 292.903489 374.407165 
L 295.394217 372.056659 
L 297.884945 369.969737 
L 300.168113 368.32713 
L 302.45128 367.155068 
L 304.734447 366.36165 
L 311.376388 364.818227 
L 316.150284 363.691586 
L 318.22589 363.113719 
L 325.075392 361.517137 
L 331.717333 359.979794 
L 334.000501 359.769268 
L 336.076107 360.017578 
L 338.566835 360.943642 
L 340.850003 362.708394 
L 342.925609 365.354642 
L 345.208776 368.76818 
L 351.435596 380.281749 
L 353.718764 383.067377 
L 356.209492 384.667576 
L 358.285098 384.8777 
L 360.568266 383.671371 
L 363.058993 381.194749 
L 365.549721 377.732122 
L 369.908495 369.363934 
L 375.097512 361.605468 
L 377.380679 358.695434 
L 379.456286 356.650868 
L 381.739453 355.513927 
L 384.437742 355.233008 
L 386.720909 355.6725 
L 389.211637 356.62856 
L 391.079683 357.852727 
L 395.853578 360.090283 
L 397.929185 360.709199 
L 400.419913 360.887619 
L 402.287959 360.701864 
L 404.571126 360.353566 
L 407.061854 360.135805 
L 408.9299 360.372106 
L 411.420628 361.339371 
L 413.703795 363.193257 
L 418.27013 369.293692 
L 420.138176 372.95961 
L 422.421343 376.44942 
L 424.70451 379.301823 
L 426.987678 381.151438 
L 429.270845 381.799949 
L 431.554012 381.246501 
L 433.629619 379.671424 
L 435.497665 377.381312 
L 438.611075 374.731798 
L 440.479121 372.051936 
L 442.762288 369.588629 
L 445.253016 367.482865 
L 447.743744 365.777704 
L 452.310079 363.435186 
L 454.800807 362.677242 
L 459.367141 361.70641 
L 466.216643 360.681816 
L 470.575417 359.507191 
L 474.934191 358.182685 
L 477.217358 357.953669 
L 479.708086 358.388237 
L 481.991254 359.726962 
L 484.274421 362.082493 
L 486.557588 365.380116 
L 488.633195 369.340269 
L 491.123923 373.512605 
L 492.991969 377.356591 
L 495.275136 380.349982 
L 497.558303 382.095992 
L 499.841471 382.401833 
L 502.124638 381.308453 
L 504.407805 379.065873 
L 506.690973 376.064092 
L 508.97414 372.740944 
L 510.842186 369.492611 
L 513.125353 366.609006 
L 515.616081 364.24634 
L 517.691688 362.435514 
L 519.974855 361.116233 
L 522.258022 360.179266 
L 529.315085 358.48119 
L 533.466298 357.257978 
L 535.541905 356.367035 
L 540.3158 353.905688 
L 542.391407 352.507825 
L 544.674574 351.273609 
L 546.54262 350.506218 
L 548.825787 350.525814 
L 551.316515 351.593619 
L 554.014804 353.834541 
L 555.88285 357.181605 
L 560.241624 365.919998 
L 562.732352 370.316477 
L 565.015519 374.01204 
L 566.883565 376.583925 
L 569.374293 377.803872 
L 571.65746 377.672883 
L 573.733067 376.403898 
L 578.091841 371.959234 
L 579.959887 369.596065 
L 583.488418 367.558283 
L 585.356464 365.997978 
L 587.847192 364.933238 
L 589.715238 364.282165 
L 592.205966 363.91201 
L 606.320091 362.468977 
L 615.45276 361.191802 
L 617.528367 361.024386 
L 620.019095 361.057296 
L 622.509823 361.376351 
L 624.377869 362.039684 
L 626.661036 363.051165 
L 629.151764 364.344267 
L 631.22737 365.783432 
L 633.510538 367.184813 
L 635.793705 368.352755 
L 637.869312 369.122256 
L 640.36004 369.395839 
L 642.228086 369.165316 
L 644.511253 368.51163 
L 653.643922 364.861438 
L 655.719529 364.35909 
L 661.116106 363.964064 
L 665.47488 363.748966 
L 668.380729 363.478447 
L 670.663897 363.051617 
L 672.531942 362.497415 
L 675.02267 361.885433 
L 675.02267 361.885433 
" style="fill:none;stroke:#1f77b4;stroke-linecap:square;stroke-width:1.5;"/>
   </g>
   <g id="line2d_39">
    <g clip-path="url(#p17427da97c)">
     <use style="fill:#ff0000;stroke:#ff0000;" x="142.629569" xlink:href="#m2b6506e2a4" y="385.693125"/>
     <use style="fill:#ff0000;stroke:#ff0000;" x="214.445559" xlink:href="#m2b6506e2a4" y="375.854018"/>
     <use style="fill:#ff0000;stroke:#ff0000;" x="286.676669" xlink:href="#m2b6506e2a4" y="379.343727"/>
     <use style="fill:#ff0000;stroke:#ff0000;" x="358.285098" xlink:href="#m2b6506e2a4" y="384.8777"/>
     <use style="fill:#ff0000;stroke:#ff0000;" x="400.419913" xlink:href="#m2b6506e2a4" y="360.887619"/>
     <use style="fill:#ff0000;stroke:#ff0000;" x="499.841471" xlink:href="#m2b6506e2a4" y="382.401833"/>
    </g>
   </g>
   <g id="patch_18">
    <path d="M 40.603125 387.918125 
L 40.603125 338.968125 
" style="fill:none;stroke:#000000;stroke-linecap:square;stroke-linejoin:miter;stroke-width:0.8;"/>
   </g>
   <g id="patch_19">
    <path d="M 705.233125 387.918125 
L 705.233125 338.968125 
" style="fill:none;stroke:#000000;stroke-linecap:square;stroke-linejoin:miter;stroke-width:0.8;"/>
   </g>
   <g id="patch_20">
    <path d="M 40.603125 387.918125 
L 705.233125 387.918125 
" style="fill:none;stroke:#000000;stroke-linecap:square;stroke-linejoin:miter;stroke-width:0.8;"/>
   </g>
   <g id="patch_21">
    <path d="M 40.603125 338.968125 
L 705.233125 338.968125 
" style="fill:none;stroke:#000000;stroke-linecap:square;stroke-linejoin:miter;stroke-width:0.8;"/>
   </g>
   <g id="text_44">
    <!-- DC Components -->
    <g transform="translate(324.24125 332.968125)scale(0.12 -0.12)">
     <use xlink:href="#DejaVuSans-68"/>
     <use x="77.001953" xlink:href="#DejaVuSans-67"/>
     <use x="146.826172" xlink:href="#DejaVuSans-32"/>
     <use x="178.613281" xlink:href="#DejaVuSans-67"/>
     <use x="248.4375" xlink:href="#DejaVuSans-111"/>
     <use x="309.619141" xlink:href="#DejaVuSans-109"/>
     <use x="407.03125" xlink:href="#DejaVuSans-112"/>
     <use x="470.507812" xlink:href="#DejaVuSans-111"/>
     <use x="531.689453" xlink:href="#DejaVuSans-110"/>
     <use x="595.068359" xlink:href="#DejaVuSans-101"/>
     <use x="656.591797" xlink:href="#DejaVuSans-110"/>
     <use x="719.970703" xlink:href="#DejaVuSans-116"/>
     <use x="759.179688" xlink:href="#DejaVuSans-115"/>
    </g>
   </g>
  </g>
 </g>
 <defs>
  <clipPath id="p969cdb3d10">
   <rect height="48.95" width="664.63" x="40.603125" y="22.318125"/>
  </clipPath>
  <clipPath id="p8cdd3fad4f">
   <rect height="48.95" width="664.63" x="40.603125" y="127.868125"/>
  </clipPath>
  <clipPath id="pe44fffcebe">
   <rect height="48.95" width="664.63" x="40.603125" y="233.418125"/>
  </clipPath>
  <clipPath id="p17427da97c">
   <rect height="48.95" width="664.63" x="40.603125" y="338.968125"/>
  </clipPath>
 </defs>
</svg>
