<?xml version="1.0" encoding="utf-8" standalone="no"?>
<!DOCTYPE svg PUBLIC "-//W3C//DTD SVG 1.1//EN"
  "http://www.w3.org/Graphics/SVG/1.1/DTD/svg11.dtd">
<!-- Created with matplotlib (https://matplotlib.org/) -->
<svg height="424.474375pt" version="1.1" viewBox="0 0 712.343125 424.474375" width="712.343125pt" xmlns="http://www.w3.org/2000/svg" xmlns:xlink="http://www.w3.org/1999/xlink">
 <defs>
  <style type="text/css">
*{stroke-linecap:butt;stroke-linejoin:round;}
  </style>
 </defs>
 <g id="figure_1">
  <g id="patch_1">
   <path d="M 0 424.474375 
L 712.343125 424.474375 
L 712.343125 -0 
L 0 -0 
z
" style="fill:#ffffff;"/>
  </g>
  <g id="axes_1">
   <g id="patch_2">
    <path d="M 40.603125 71.268125 
L 705.143125 71.268125 
L 705.143125 22.318125 
L 40.603125 22.318125 
z
" style="fill:#ffffff;"/>
   </g>
   <g id="matplotlib.axis_1">
    <g id="xtick_1">
     <g id="line2d_1">
      <defs>
       <path d="M 0 0 
L 0 3.5 
" id="mb4408014e4" style="stroke:#000000;stroke-width:0.8;"/>
      </defs>
      <g>
       <use style="stroke:#000000;stroke-width:0.8;" x="115.467302" xlink:href="#mb4408014e4" y="71.268125"/>
      </g>
     </g>
     <g id="text_1">
      <!-- 7.730 -->
      <defs>
       <path d="M 8.203125 72.90625 
L 55.078125 72.90625 
L 55.078125 68.703125 
L 28.609375 0 
L 18.3125 0 
L 43.21875 64.59375 
L 8.203125 64.59375 
z
" id="DejaVuSans-55"/>
       <path d="M 10.6875 12.40625 
L 21 12.40625 
L 21 0 
L 10.6875 0 
z
" id="DejaVuSans-46"/>
       <path d="M 40.578125 39.3125 
Q 47.65625 37.796875 51.625 33 
Q 55.609375 28.21875 55.609375 21.1875 
Q 55.609375 10.40625 48.1875 4.484375 
Q 40.765625 -1.421875 27.09375 -1.421875 
Q 22.515625 -1.421875 17.65625 -0.515625 
Q 12.796875 0.390625 7.625 2.203125 
L 7.625 11.71875 
Q 11.71875 9.328125 16.59375 8.109375 
Q 21.484375 6.890625 26.8125 6.890625 
Q 36.078125 6.890625 40.9375 10.546875 
Q 45.796875 14.203125 45.796875 21.1875 
Q 45.796875 27.640625 41.28125 31.265625 
Q 36.765625 34.90625 28.71875 34.90625 
L 20.21875 34.90625 
L 20.21875 43.015625 
L 29.109375 43.015625 
Q 36.375 43.015625 40.234375 45.921875 
Q 44.09375 48.828125 44.09375 54.296875 
Q 44.09375 59.90625 40.109375 62.90625 
Q 36.140625 65.921875 28.71875 65.921875 
Q 24.65625 65.921875 20.015625 65.03125 
Q 15.375 64.15625 9.8125 62.3125 
L 9.8125 71.09375 
Q 15.4375 72.65625 20.34375 73.4375 
Q 25.25 74.21875 29.59375 74.21875 
Q 40.828125 74.21875 47.359375 69.109375 
Q 53.90625 64.015625 53.90625 55.328125 
Q 53.90625 49.265625 50.4375 45.09375 
Q 46.96875 40.921875 40.578125 39.3125 
z
" id="DejaVuSans-51"/>
       <path d="M 31.78125 66.40625 
Q 24.171875 66.40625 20.328125 58.90625 
Q 16.5 51.421875 16.5 36.375 
Q 16.5 21.390625 20.328125 13.890625 
Q 24.171875 6.390625 31.78125 6.390625 
Q 39.453125 6.390625 43.28125 13.890625 
Q 47.125 21.390625 47.125 36.375 
Q 47.125 51.421875 43.28125 58.90625 
Q 39.453125 66.40625 31.78125 66.40625 
z
M 31.78125 74.21875 
Q 44.046875 74.21875 50.515625 64.515625 
Q 56.984375 54.828125 56.984375 36.375 
Q 56.984375 17.96875 50.515625 8.265625 
Q 44.046875 -1.421875 31.78125 -1.421875 
Q 19.53125 -1.421875 13.0625 8.265625 
Q 6.59375 17.96875 6.59375 36.375 
Q 6.59375 54.828125 13.0625 64.515625 
Q 19.53125 74.21875 31.78125 74.21875 
z
" id="DejaVuSans-48"/>
      </defs>
      <g transform="translate(101.15324 85.866562)scale(0.1 -0.1)">
       <use xlink:href="#DejaVuSans-55"/>
       <use x="63.623047" xlink:href="#DejaVuSans-46"/>
       <use x="95.410156" xlink:href="#DejaVuSans-55"/>
       <use x="159.033203" xlink:href="#DejaVuSans-51"/>
       <use x="222.65625" xlink:href="#DejaVuSans-48"/>
      </g>
     </g>
    </g>
    <g id="xtick_2">
     <g id="line2d_2">
      <g>
       <use style="stroke:#000000;stroke-width:0.8;" x="228.812006" xlink:href="#mb4408014e4" y="71.268125"/>
      </g>
     </g>
     <g id="text_2">
      <!-- 7.735 -->
      <defs>
       <path d="M 10.796875 72.90625 
L 49.515625 72.90625 
L 49.515625 64.59375 
L 19.828125 64.59375 
L 19.828125 46.734375 
Q 21.96875 47.46875 24.109375 47.828125 
Q 26.265625 48.1875 28.421875 48.1875 
Q 40.625 48.1875 47.75 41.5 
Q 54.890625 34.8125 54.890625 23.390625 
Q 54.890625 11.625 47.5625 5.09375 
Q 40.234375 -1.421875 26.90625 -1.421875 
Q 22.3125 -1.421875 17.546875 -0.640625 
Q 12.796875 0.140625 7.71875 1.703125 
L 7.71875 11.625 
Q 12.109375 9.234375 16.796875 8.0625 
Q 21.484375 6.890625 26.703125 6.890625 
Q 35.15625 6.890625 40.078125 11.328125 
Q 45.015625 15.765625 45.015625 23.390625 
Q 45.015625 31 40.078125 35.4375 
Q 35.15625 39.890625 26.703125 39.890625 
Q 22.75 39.890625 18.8125 39.015625 
Q 14.890625 38.140625 10.796875 36.28125 
z
" id="DejaVuSans-53"/>
      </defs>
      <g transform="translate(214.497944 85.866562)scale(0.1 -0.1)">
       <use xlink:href="#DejaVuSans-55"/>
       <use x="63.623047" xlink:href="#DejaVuSans-46"/>
       <use x="95.410156" xlink:href="#DejaVuSans-55"/>
       <use x="159.033203" xlink:href="#DejaVuSans-51"/>
       <use x="222.65625" xlink:href="#DejaVuSans-53"/>
      </g>
     </g>
    </g>
    <g id="xtick_3">
     <g id="line2d_3">
      <g>
       <use style="stroke:#000000;stroke-width:0.8;" x="342.15671" xlink:href="#mb4408014e4" y="71.268125"/>
      </g>
     </g>
     <g id="text_3">
      <!-- 7.740 -->
      <defs>
       <path d="M 37.796875 64.3125 
L 12.890625 25.390625 
L 37.796875 25.390625 
z
M 35.203125 72.90625 
L 47.609375 72.90625 
L 47.609375 25.390625 
L 58.015625 25.390625 
L 58.015625 17.1875 
L 47.609375 17.1875 
L 47.609375 0 
L 37.796875 0 
L 37.796875 17.1875 
L 4.890625 17.1875 
L 4.890625 26.703125 
z
" id="DejaVuSans-52"/>
      </defs>
      <g transform="translate(327.842648 85.866562)scale(0.1 -0.1)">
       <use xlink:href="#DejaVuSans-55"/>
       <use x="63.623047" xlink:href="#DejaVuSans-46"/>
       <use x="95.410156" xlink:href="#DejaVuSans-55"/>
       <use x="159.033203" xlink:href="#DejaVuSans-52"/>
       <use x="222.65625" xlink:href="#DejaVuSans-48"/>
      </g>
     </g>
    </g>
    <g id="xtick_4">
     <g id="line2d_4">
      <g>
       <use style="stroke:#000000;stroke-width:0.8;" x="455.501414" xlink:href="#mb4408014e4" y="71.268125"/>
      </g>
     </g>
     <g id="text_4">
      <!-- 7.745 -->
      <g transform="translate(441.187352 85.866562)scale(0.1 -0.1)">
       <use xlink:href="#DejaVuSans-55"/>
       <use x="63.623047" xlink:href="#DejaVuSans-46"/>
       <use x="95.410156" xlink:href="#DejaVuSans-55"/>
       <use x="159.033203" xlink:href="#DejaVuSans-52"/>
       <use x="222.65625" xlink:href="#DejaVuSans-53"/>
      </g>
     </g>
    </g>
    <g id="xtick_5">
     <g id="line2d_5">
      <g>
       <use style="stroke:#000000;stroke-width:0.8;" x="568.846118" xlink:href="#mb4408014e4" y="71.268125"/>
      </g>
     </g>
     <g id="text_5">
      <!-- 7.750 -->
      <g transform="translate(554.532056 85.866562)scale(0.1 -0.1)">
       <use xlink:href="#DejaVuSans-55"/>
       <use x="63.623047" xlink:href="#DejaVuSans-46"/>
       <use x="95.410156" xlink:href="#DejaVuSans-55"/>
       <use x="159.033203" xlink:href="#DejaVuSans-53"/>
       <use x="222.65625" xlink:href="#DejaVuSans-48"/>
      </g>
     </g>
    </g>
    <g id="xtick_6">
     <g id="line2d_6">
      <g>
       <use style="stroke:#000000;stroke-width:0.8;" x="682.190822" xlink:href="#mb4408014e4" y="71.268125"/>
      </g>
     </g>
     <g id="text_6">
      <!-- 7.755 -->
      <g transform="translate(667.87676 85.866562)scale(0.1 -0.1)">
       <use xlink:href="#DejaVuSans-55"/>
       <use x="63.623047" xlink:href="#DejaVuSans-46"/>
       <use x="95.410156" xlink:href="#DejaVuSans-55"/>
       <use x="159.033203" xlink:href="#DejaVuSans-53"/>
       <use x="222.65625" xlink:href="#DejaVuSans-53"/>
      </g>
     </g>
    </g>
    <g id="text_7">
     <!-- Time (ms) -->
     <defs>
      <path d="M -0.296875 72.90625 
L 61.375 72.90625 
L 61.375 64.59375 
L 35.5 64.59375 
L 35.5 0 
L 25.59375 0 
L 25.59375 64.59375 
L -0.296875 64.59375 
z
" id="DejaVuSans-84"/>
      <path d="M 9.421875 54.6875 
L 18.40625 54.6875 
L 18.40625 0 
L 9.421875 0 
z
M 9.421875 75.984375 
L 18.40625 75.984375 
L 18.40625 64.59375 
L 9.421875 64.59375 
z
" id="DejaVuSans-105"/>
      <path d="M 52 44.1875 
Q 55.375 50.25 60.0625 53.125 
Q 64.75 56 71.09375 56 
Q 79.640625 56 84.28125 50.015625 
Q 88.921875 44.046875 88.921875 33.015625 
L 88.921875 0 
L 79.890625 0 
L 79.890625 32.71875 
Q 79.890625 40.578125 77.09375 44.375 
Q 74.3125 48.1875 68.609375 48.1875 
Q 61.625 48.1875 57.5625 43.546875 
Q 53.515625 38.921875 53.515625 30.90625 
L 53.515625 0 
L 44.484375 0 
L 44.484375 32.71875 
Q 44.484375 40.625 41.703125 44.40625 
Q 38.921875 48.1875 33.109375 48.1875 
Q 26.21875 48.1875 22.15625 43.53125 
Q 18.109375 38.875 18.109375 30.90625 
L 18.109375 0 
L 9.078125 0 
L 9.078125 54.6875 
L 18.109375 54.6875 
L 18.109375 46.1875 
Q 21.1875 51.21875 25.484375 53.609375 
Q 29.78125 56 35.6875 56 
Q 41.65625 56 45.828125 52.96875 
Q 50 49.953125 52 44.1875 
z
" id="DejaVuSans-109"/>
      <path d="M 56.203125 29.59375 
L 56.203125 25.203125 
L 14.890625 25.203125 
Q 15.484375 15.921875 20.484375 11.0625 
Q 25.484375 6.203125 34.421875 6.203125 
Q 39.59375 6.203125 44.453125 7.46875 
Q 49.3125 8.734375 54.109375 11.28125 
L 54.109375 2.78125 
Q 49.265625 0.734375 44.1875 -0.34375 
Q 39.109375 -1.421875 33.890625 -1.421875 
Q 20.796875 -1.421875 13.15625 6.1875 
Q 5.515625 13.8125 5.515625 26.8125 
Q 5.515625 40.234375 12.765625 48.109375 
Q 20.015625 56 32.328125 56 
Q 43.359375 56 49.78125 48.890625 
Q 56.203125 41.796875 56.203125 29.59375 
z
M 47.21875 32.234375 
Q 47.125 39.59375 43.09375 43.984375 
Q 39.0625 48.390625 32.421875 48.390625 
Q 24.90625 48.390625 20.390625 44.140625 
Q 15.875 39.890625 15.1875 32.171875 
z
" id="DejaVuSans-101"/>
      <path id="DejaVuSans-32"/>
      <path d="M 31 75.875 
Q 24.46875 64.65625 21.28125 53.65625 
Q 18.109375 42.671875 18.109375 31.390625 
Q 18.109375 20.125 21.3125 9.0625 
Q 24.515625 -2 31 -13.1875 
L 23.1875 -13.1875 
Q 15.875 -1.703125 12.234375 9.375 
Q 8.59375 20.453125 8.59375 31.390625 
Q 8.59375 42.28125 12.203125 53.3125 
Q 15.828125 64.359375 23.1875 75.875 
z
" id="DejaVuSans-40"/>
      <path d="M 44.28125 53.078125 
L 44.28125 44.578125 
Q 40.484375 46.53125 36.375 47.5 
Q 32.28125 48.484375 27.875 48.484375 
Q 21.1875 48.484375 17.84375 46.4375 
Q 14.5 44.390625 14.5 40.28125 
Q 14.5 37.15625 16.890625 35.375 
Q 19.28125 33.59375 26.515625 31.984375 
L 29.59375 31.296875 
Q 39.15625 29.25 43.1875 25.515625 
Q 47.21875 21.78125 47.21875 15.09375 
Q 47.21875 7.46875 41.1875 3.015625 
Q 35.15625 -1.421875 24.609375 -1.421875 
Q 20.21875 -1.421875 15.453125 -0.5625 
Q 10.6875 0.296875 5.421875 2 
L 5.421875 11.28125 
Q 10.40625 8.6875 15.234375 7.390625 
Q 20.0625 6.109375 24.8125 6.109375 
Q 31.15625 6.109375 34.5625 8.28125 
Q 37.984375 10.453125 37.984375 14.40625 
Q 37.984375 18.0625 35.515625 20.015625 
Q 33.0625 21.96875 24.703125 23.78125 
L 21.578125 24.515625 
Q 13.234375 26.265625 9.515625 29.90625 
Q 5.8125 33.546875 5.8125 39.890625 
Q 5.8125 47.609375 11.28125 51.796875 
Q 16.75 56 26.8125 56 
Q 31.78125 56 36.171875 55.265625 
Q 40.578125 54.546875 44.28125 53.078125 
z
" id="DejaVuSans-115"/>
      <path d="M 8.015625 75.875 
L 15.828125 75.875 
Q 23.140625 64.359375 26.78125 53.3125 
Q 30.421875 42.28125 30.421875 31.390625 
Q 30.421875 20.453125 26.78125 9.375 
Q 23.140625 -1.703125 15.828125 -13.1875 
L 8.015625 -13.1875 
Q 14.5 -2 17.703125 9.0625 
Q 20.90625 20.125 20.90625 31.390625 
Q 20.90625 42.671875 17.703125 53.65625 
Q 14.5 64.65625 8.015625 75.875 
z
" id="DejaVuSans-41"/>
     </defs>
     <g transform="translate(347.52 99.544688)scale(0.1 -0.1)">
      <use xlink:href="#DejaVuSans-84"/>
      <use x="61.037109" xlink:href="#DejaVuSans-105"/>
      <use x="88.820312" xlink:href="#DejaVuSans-109"/>
      <use x="186.232422" xlink:href="#DejaVuSans-101"/>
      <use x="247.755859" xlink:href="#DejaVuSans-32"/>
      <use x="279.542969" xlink:href="#DejaVuSans-40"/>
      <use x="318.556641" xlink:href="#DejaVuSans-109"/>
      <use x="415.96875" xlink:href="#DejaVuSans-115"/>
      <use x="468.068359" xlink:href="#DejaVuSans-41"/>
     </g>
    </g>
    <g id="text_8">
     <!-- 1e5 -->
     <defs>
      <path d="M 12.40625 8.296875 
L 28.515625 8.296875 
L 28.515625 63.921875 
L 10.984375 60.40625 
L 10.984375 69.390625 
L 28.421875 72.90625 
L 38.28125 72.90625 
L 38.28125 8.296875 
L 54.390625 8.296875 
L 54.390625 0 
L 12.40625 0 
z
" id="DejaVuSans-49"/>
     </defs>
     <g transform="translate(686.265 98.544688)scale(0.1 -0.1)">
      <use xlink:href="#DejaVuSans-49"/>
      <use x="63.623047" xlink:href="#DejaVuSans-101"/>
      <use x="125.146484" xlink:href="#DejaVuSans-53"/>
     </g>
    </g>
   </g>
   <g id="matplotlib.axis_2">
    <g id="ytick_1">
     <g id="line2d_7">
      <defs>
       <path d="M 0 0 
L -3.5 0 
" id="m88356226f4" style="stroke:#000000;stroke-width:0.8;"/>
      </defs>
      <g>
       <use style="stroke:#000000;stroke-width:0.8;" x="40.603125" xlink:href="#m88356226f4" y="69.043125"/>
      </g>
     </g>
     <g id="text_9">
      <!-- 10 -->
      <g transform="translate(20.878125 72.842344)scale(0.1 -0.1)">
       <use xlink:href="#DejaVuSans-49"/>
       <use x="63.623047" xlink:href="#DejaVuSans-48"/>
      </g>
     </g>
    </g>
    <g id="ytick_2">
     <g id="line2d_8">
      <g>
       <use style="stroke:#000000;stroke-width:0.8;" x="40.603125" xlink:href="#m88356226f4" y="41.230625"/>
      </g>
     </g>
     <g id="text_10">
      <!-- 15 -->
      <g transform="translate(20.878125 45.029844)scale(0.1 -0.1)">
       <use xlink:href="#DejaVuSans-49"/>
       <use x="63.623047" xlink:href="#DejaVuSans-53"/>
      </g>
     </g>
    </g>
    <g id="text_11">
     <!-- ADC Value -->
     <defs>
      <path d="M 34.1875 63.1875 
L 20.796875 26.90625 
L 47.609375 26.90625 
z
M 28.609375 72.90625 
L 39.796875 72.90625 
L 67.578125 0 
L 57.328125 0 
L 50.6875 18.703125 
L 17.828125 18.703125 
L 11.1875 0 
L 0.78125 0 
z
" id="DejaVuSans-65"/>
      <path d="M 19.671875 64.796875 
L 19.671875 8.109375 
L 31.59375 8.109375 
Q 46.6875 8.109375 53.6875 14.9375 
Q 60.6875 21.78125 60.6875 36.53125 
Q 60.6875 51.171875 53.6875 57.984375 
Q 46.6875 64.796875 31.59375 64.796875 
z
M 9.8125 72.90625 
L 30.078125 72.90625 
Q 51.265625 72.90625 61.171875 64.09375 
Q 71.09375 55.28125 71.09375 36.53125 
Q 71.09375 17.671875 61.125 8.828125 
Q 51.171875 0 30.078125 0 
L 9.8125 0 
z
" id="DejaVuSans-68"/>
      <path d="M 64.40625 67.28125 
L 64.40625 56.890625 
Q 59.421875 61.53125 53.78125 63.8125 
Q 48.140625 66.109375 41.796875 66.109375 
Q 29.296875 66.109375 22.65625 58.46875 
Q 16.015625 50.828125 16.015625 36.375 
Q 16.015625 21.96875 22.65625 14.328125 
Q 29.296875 6.6875 41.796875 6.6875 
Q 48.140625 6.6875 53.78125 8.984375 
Q 59.421875 11.28125 64.40625 15.921875 
L 64.40625 5.609375 
Q 59.234375 2.09375 53.4375 0.328125 
Q 47.65625 -1.421875 41.21875 -1.421875 
Q 24.65625 -1.421875 15.125 8.703125 
Q 5.609375 18.84375 5.609375 36.375 
Q 5.609375 53.953125 15.125 64.078125 
Q 24.65625 74.21875 41.21875 74.21875 
Q 47.75 74.21875 53.53125 72.484375 
Q 59.328125 70.75 64.40625 67.28125 
z
" id="DejaVuSans-67"/>
      <path d="M 28.609375 0 
L 0.78125 72.90625 
L 11.078125 72.90625 
L 34.1875 11.53125 
L 57.328125 72.90625 
L 67.578125 72.90625 
L 39.796875 0 
z
" id="DejaVuSans-86"/>
      <path d="M 34.28125 27.484375 
Q 23.390625 27.484375 19.1875 25 
Q 14.984375 22.515625 14.984375 16.5 
Q 14.984375 11.71875 18.140625 8.90625 
Q 21.296875 6.109375 26.703125 6.109375 
Q 34.1875 6.109375 38.703125 11.40625 
Q 43.21875 16.703125 43.21875 25.484375 
L 43.21875 27.484375 
z
M 52.203125 31.203125 
L 52.203125 0 
L 43.21875 0 
L 43.21875 8.296875 
Q 40.140625 3.328125 35.546875 0.953125 
Q 30.953125 -1.421875 24.3125 -1.421875 
Q 15.921875 -1.421875 10.953125 3.296875 
Q 6 8.015625 6 15.921875 
Q 6 25.140625 12.171875 29.828125 
Q 18.359375 34.515625 30.609375 34.515625 
L 43.21875 34.515625 
L 43.21875 35.40625 
Q 43.21875 41.609375 39.140625 45 
Q 35.0625 48.390625 27.6875 48.390625 
Q 23 48.390625 18.546875 47.265625 
Q 14.109375 46.140625 10.015625 43.890625 
L 10.015625 52.203125 
Q 14.9375 54.109375 19.578125 55.046875 
Q 24.21875 56 28.609375 56 
Q 40.484375 56 46.34375 49.84375 
Q 52.203125 43.703125 52.203125 31.203125 
z
" id="DejaVuSans-97"/>
      <path d="M 9.421875 75.984375 
L 18.40625 75.984375 
L 18.40625 0 
L 9.421875 0 
z
" id="DejaVuSans-108"/>
      <path d="M 8.5 21.578125 
L 8.5 54.6875 
L 17.484375 54.6875 
L 17.484375 21.921875 
Q 17.484375 14.15625 20.5 10.265625 
Q 23.53125 6.390625 29.59375 6.390625 
Q 36.859375 6.390625 41.078125 11.03125 
Q 45.3125 15.671875 45.3125 23.6875 
L 45.3125 54.6875 
L 54.296875 54.6875 
L 54.296875 0 
L 45.3125 0 
L 45.3125 8.40625 
Q 42.046875 3.421875 37.71875 1 
Q 33.40625 -1.421875 27.6875 -1.421875 
Q 18.265625 -1.421875 13.375 4.4375 
Q 8.5 10.296875 8.5 21.578125 
z
M 31.109375 56 
z
" id="DejaVuSans-117"/>
     </defs>
     <g transform="translate(14.798438 73.257188)rotate(-90)scale(0.1 -0.1)">
      <use xlink:href="#DejaVuSans-65"/>
      <use x="68.408203" xlink:href="#DejaVuSans-68"/>
      <use x="145.410156" xlink:href="#DejaVuSans-67"/>
      <use x="215.234375" xlink:href="#DejaVuSans-32"/>
      <use x="247.021484" xlink:href="#DejaVuSans-86"/>
      <use x="315.320312" xlink:href="#DejaVuSans-97"/>
      <use x="376.599609" xlink:href="#DejaVuSans-108"/>
      <use x="404.382812" xlink:href="#DejaVuSans-117"/>
      <use x="467.761719" xlink:href="#DejaVuSans-101"/>
     </g>
    </g>
   </g>
   <g id="line2d_9">
    <path clip-path="url(#p0ec1872ec4)" d="M 70.809489 69.043125 
L 72.849693 69.043125 
L 75.569966 63.480625 
L 77.610171 69.043125 
L 80.103754 63.480625 
L 84.864232 63.480625 
L 86.904437 57.918125 
L 93.931808 57.918125 
L 96.425392 52.355625 
L 100.95918 52.355625 
L 103.452763 46.793125 
L 106.173036 41.230625 
L 117.507507 41.230625 
L 120.00109 35.668125 
L 122.041295 41.230625 
L 124.534878 35.668125 
L 127.028462 41.230625 
L 129.522045 35.668125 
L 132.015629 35.668125 
L 134.282523 24.543125 
L 136.322728 41.230625 
L 138.362932 46.793125 
L 140.629826 52.355625 
L 143.12341 46.793125 
L 147.657198 46.793125 
L 149.697403 52.355625 
L 151.964297 46.793125 
L 158.764979 46.793125 
L 160.805184 52.355625 
L 163.072078 46.793125 
L 165.565661 41.230625 
L 168.059245 46.793125 
L 176.673442 46.793125 
L 179.393715 41.230625 
L 182.340677 35.668125 
L 184.380882 41.230625 
L 191.181564 41.230625 
L 193.675148 35.668125 
L 196.168731 41.230625 
L 198.435625 35.668125 
L 200.929209 35.668125 
L 202.969414 41.230625 
L 205.462997 35.668125 
L 207.729891 41.230625 
L 210.450164 41.230625 
L 213.170437 35.668125 
L 215.89071 35.668125 
L 217.930915 41.230625 
L 220.651187 35.668125 
L 222.691392 35.668125 
L 225.184976 41.230625 
L 227.905248 46.793125 
L 230.625521 46.793125 
L 234.705931 57.918125 
L 239.466408 57.918125 
L 241.506613 63.480625 
L 244.000196 57.918125 
L 246.040401 63.480625 
L 248.307295 57.918125 
L 255.334667 57.918125 
L 257.82825 52.355625 
L 260.095144 57.918125 
L 262.135349 52.355625 
L 264.628933 52.355625 
L 267.122516 46.793125 
L 269.38941 52.355625 
L 272.109683 46.793125 
L 290.018146 46.793125 
L 292.51173 41.230625 
L 297.045518 41.230625 
L 299.539101 35.668125 
L 301.579306 41.230625 
L 304.07289 35.668125 
L 315.40736 35.668125 
L 318.127633 41.230625 
L 320.167838 41.230625 
L 322.208042 35.668125 
L 324.474936 41.230625 
L 326.96852 46.793125 
L 331.502308 46.793125 
L 333.769202 52.355625 
L 338.756369 52.355625 
L 340.796574 57.918125 
L 343.516847 57.918125 
L 346.01043 52.355625 
L 348.277324 57.918125 
L 350.317529 57.918125 
L 352.584423 52.355625 
L 361.878689 52.355625 
L 363.918893 46.793125 
L 366.412477 46.793125 
L 368.679371 57.918125 
L 380.240531 57.918125 
L 382.734114 52.355625 
L 385.681077 46.793125 
L 387.721281 52.355625 
L 390.214865 52.355625 
L 392.255069 46.793125 
L 394.975342 52.355625 
L 397.015547 46.793125 
L 399.50913 41.230625 
L 401.549335 46.793125 
L 403.816229 46.793125 
L 406.309813 41.230625 
L 408.350017 41.230625 
L 411.07029 35.668125 
L 413.563874 35.668125 
L 415.604078 41.230625 
L 418.324351 35.668125 
L 424.898344 35.668125 
L 426.938549 41.230625 
L 429.885511 35.668125 
L 432.152405 41.230625 
L 434.645989 52.355625 
L 436.912883 46.793125 
L 438.953087 46.793125 
L 440.993292 52.355625 
L 443.260186 57.918125 
L 445.52708 57.918125 
L 447.567285 52.355625 
L 449.60749 52.355625 
L 451.647694 57.918125 
L 454.367967 46.793125 
L 467.515953 46.793125 
L 469.556158 41.230625 
L 477.036908 41.230625 
L 479.303802 35.668125 
L 484.06428 35.668125 
L 486.104484 30.105625 
L 492.905167 30.105625 
L 495.39875 24.543125 
L 497.665644 24.543125 
L 500.612606 30.105625 
L 503.10619 24.543125 
L 505.146395 30.105625 
L 507.413289 30.105625 
L 509.453493 35.668125 
L 511.720387 30.105625 
L 518.067691 30.105625 
L 520.561274 24.543125 
L 522.828168 24.543125 
L 524.868373 35.668125 
L 529.85554 35.668125 
L 532.122434 41.230625 
L 534.389328 41.230625 
L 536.656222 46.793125 
L 538.696427 46.793125 
L 540.963321 52.355625 
L 543.003526 46.793125 
L 557.058269 46.793125 
L 559.551853 41.230625 
L 565.445777 41.230625 
L 567.712671 35.668125 
L 570.432944 41.230625 
L 579.273831 41.230625 
L 581.767415 35.668125 
L 588.568097 35.668125 
L 591.06168 41.230625 
L 593.555264 35.668125 
L 595.595469 41.230625 
L 597.862363 41.230625 
L 600.355946 46.793125 
L 602.396151 52.355625 
L 604.436355 52.355625 
L 606.929939 46.793125 
L 608.970144 41.230625 
L 611.237038 46.793125 
L 616.224205 24.543125 
L 622.798197 24.543125 
L 624.838402 35.668125 
L 629.145501 35.668125 
L 631.412395 41.230625 
L 633.679289 41.230625 
L 636.626251 46.793125 
L 638.893145 35.668125 
L 642.973555 46.793125 
L 645.693828 41.230625 
L 647.734032 46.793125 
L 649.774237 46.793125 
L 652.267821 41.230625 
L 661.788776 41.230625 
L 664.05567 35.668125 
L 666.322564 41.230625 
L 674.936761 41.230625 
L 674.936761 41.230625 
" style="fill:none;stroke:#1f77b4;stroke-linecap:square;stroke-width:1.5;"/>
   </g>
   <g id="patch_3">
    <path d="M 40.603125 71.268125 
L 40.603125 22.318125 
" style="fill:none;stroke:#000000;stroke-linecap:square;stroke-linejoin:miter;stroke-width:0.8;"/>
   </g>
   <g id="patch_4">
    <path d="M 705.143125 71.268125 
L 705.143125 22.318125 
" style="fill:none;stroke:#000000;stroke-linecap:square;stroke-linejoin:miter;stroke-width:0.8;"/>
   </g>
   <g id="patch_5">
    <path d="M 40.603125 71.268125 
L 705.143125 71.268125 
" style="fill:none;stroke:#000000;stroke-linecap:square;stroke-linejoin:miter;stroke-width:0.8;"/>
   </g>
   <g id="patch_6">
    <path d="M 40.603125 22.318125 
L 705.143125 22.318125 
" style="fill:none;stroke:#000000;stroke-linecap:square;stroke-linejoin:miter;stroke-width:0.8;"/>
   </g>
   <g id="text_12">
    <!-- RED LED Input Signal -->
    <defs>
     <path d="M 44.390625 34.1875 
Q 47.5625 33.109375 50.5625 29.59375 
Q 53.5625 26.078125 56.59375 19.921875 
L 66.609375 0 
L 56 0 
L 46.6875 18.703125 
Q 43.0625 26.03125 39.671875 28.421875 
Q 36.28125 30.8125 30.421875 30.8125 
L 19.671875 30.8125 
L 19.671875 0 
L 9.8125 0 
L 9.8125 72.90625 
L 32.078125 72.90625 
Q 44.578125 72.90625 50.734375 67.671875 
Q 56.890625 62.453125 56.890625 51.90625 
Q 56.890625 45.015625 53.6875 40.46875 
Q 50.484375 35.9375 44.390625 34.1875 
z
M 19.671875 64.796875 
L 19.671875 38.921875 
L 32.078125 38.921875 
Q 39.203125 38.921875 42.84375 42.21875 
Q 46.484375 45.515625 46.484375 51.90625 
Q 46.484375 58.296875 42.84375 61.546875 
Q 39.203125 64.796875 32.078125 64.796875 
z
" id="DejaVuSans-82"/>
     <path d="M 9.8125 72.90625 
L 55.90625 72.90625 
L 55.90625 64.59375 
L 19.671875 64.59375 
L 19.671875 43.015625 
L 54.390625 43.015625 
L 54.390625 34.71875 
L 19.671875 34.71875 
L 19.671875 8.296875 
L 56.78125 8.296875 
L 56.78125 0 
L 9.8125 0 
z
" id="DejaVuSans-69"/>
     <path d="M 9.8125 72.90625 
L 19.671875 72.90625 
L 19.671875 8.296875 
L 55.171875 8.296875 
L 55.171875 0 
L 9.8125 0 
z
" id="DejaVuSans-76"/>
     <path d="M 9.8125 72.90625 
L 19.671875 72.90625 
L 19.671875 0 
L 9.8125 0 
z
" id="DejaVuSans-73"/>
     <path d="M 54.890625 33.015625 
L 54.890625 0 
L 45.90625 0 
L 45.90625 32.71875 
Q 45.90625 40.484375 42.875 44.328125 
Q 39.84375 48.1875 33.796875 48.1875 
Q 26.515625 48.1875 22.3125 43.546875 
Q 18.109375 38.921875 18.109375 30.90625 
L 18.109375 0 
L 9.078125 0 
L 9.078125 54.6875 
L 18.109375 54.6875 
L 18.109375 46.1875 
Q 21.34375 51.125 25.703125 53.5625 
Q 30.078125 56 35.796875 56 
Q 45.21875 56 50.046875 50.171875 
Q 54.890625 44.34375 54.890625 33.015625 
z
" id="DejaVuSans-110"/>
     <path d="M 18.109375 8.203125 
L 18.109375 -20.796875 
L 9.078125 -20.796875 
L 9.078125 54.6875 
L 18.109375 54.6875 
L 18.109375 46.390625 
Q 20.953125 51.265625 25.265625 53.625 
Q 29.59375 56 35.59375 56 
Q 45.5625 56 51.78125 48.09375 
Q 58.015625 40.1875 58.015625 27.296875 
Q 58.015625 14.40625 51.78125 6.484375 
Q 45.5625 -1.421875 35.59375 -1.421875 
Q 29.59375 -1.421875 25.265625 0.953125 
Q 20.953125 3.328125 18.109375 8.203125 
z
M 48.6875 27.296875 
Q 48.6875 37.203125 44.609375 42.84375 
Q 40.53125 48.484375 33.40625 48.484375 
Q 26.265625 48.484375 22.1875 42.84375 
Q 18.109375 37.203125 18.109375 27.296875 
Q 18.109375 17.390625 22.1875 11.75 
Q 26.265625 6.109375 33.40625 6.109375 
Q 40.53125 6.109375 44.609375 11.75 
Q 48.6875 17.390625 48.6875 27.296875 
z
" id="DejaVuSans-112"/>
     <path d="M 18.3125 70.21875 
L 18.3125 54.6875 
L 36.8125 54.6875 
L 36.8125 47.703125 
L 18.3125 47.703125 
L 18.3125 18.015625 
Q 18.3125 11.328125 20.140625 9.421875 
Q 21.96875 7.515625 27.59375 7.515625 
L 36.8125 7.515625 
L 36.8125 0 
L 27.59375 0 
Q 17.1875 0 13.234375 3.875 
Q 9.28125 7.765625 9.28125 18.015625 
L 9.28125 47.703125 
L 2.6875 47.703125 
L 2.6875 54.6875 
L 9.28125 54.6875 
L 9.28125 70.21875 
z
" id="DejaVuSans-116"/>
     <path d="M 53.515625 70.515625 
L 53.515625 60.890625 
Q 47.90625 63.578125 42.921875 64.890625 
Q 37.9375 66.21875 33.296875 66.21875 
Q 25.25 66.21875 20.875 63.09375 
Q 16.5 59.96875 16.5 54.203125 
Q 16.5 49.359375 19.40625 46.890625 
Q 22.3125 44.4375 30.421875 42.921875 
L 36.375 41.703125 
Q 47.40625 39.59375 52.65625 34.296875 
Q 57.90625 29 57.90625 20.125 
Q 57.90625 9.515625 50.796875 4.046875 
Q 43.703125 -1.421875 29.984375 -1.421875 
Q 24.8125 -1.421875 18.96875 -0.25 
Q 13.140625 0.921875 6.890625 3.21875 
L 6.890625 13.375 
Q 12.890625 10.015625 18.65625 8.296875 
Q 24.421875 6.59375 29.984375 6.59375 
Q 38.421875 6.59375 43.015625 9.90625 
Q 47.609375 13.234375 47.609375 19.390625 
Q 47.609375 24.75 44.3125 27.78125 
Q 41.015625 30.8125 33.5 32.328125 
L 27.484375 33.5 
Q 16.453125 35.6875 11.515625 40.375 
Q 6.59375 45.0625 6.59375 53.421875 
Q 6.59375 63.09375 13.40625 68.65625 
Q 20.21875 74.21875 32.171875 74.21875 
Q 37.3125 74.21875 42.625 73.28125 
Q 47.953125 72.359375 53.515625 70.515625 
z
" id="DejaVuSans-83"/>
     <path d="M 45.40625 27.984375 
Q 45.40625 37.75 41.375 43.109375 
Q 37.359375 48.484375 30.078125 48.484375 
Q 22.859375 48.484375 18.828125 43.109375 
Q 14.796875 37.75 14.796875 27.984375 
Q 14.796875 18.265625 18.828125 12.890625 
Q 22.859375 7.515625 30.078125 7.515625 
Q 37.359375 7.515625 41.375 12.890625 
Q 45.40625 18.265625 45.40625 27.984375 
z
M 54.390625 6.78125 
Q 54.390625 -7.171875 48.1875 -13.984375 
Q 42 -20.796875 29.203125 -20.796875 
Q 24.46875 -20.796875 20.265625 -20.09375 
Q 16.0625 -19.390625 12.109375 -17.921875 
L 12.109375 -9.1875 
Q 16.0625 -11.328125 19.921875 -12.34375 
Q 23.78125 -13.375 27.78125 -13.375 
Q 36.625 -13.375 41.015625 -8.765625 
Q 45.40625 -4.15625 45.40625 5.171875 
L 45.40625 9.625 
Q 42.625 4.78125 38.28125 2.390625 
Q 33.9375 0 27.875 0 
Q 17.828125 0 11.671875 7.65625 
Q 5.515625 15.328125 5.515625 27.984375 
Q 5.515625 40.671875 11.671875 48.328125 
Q 17.828125 56 27.875 56 
Q 33.9375 56 38.28125 53.609375 
Q 42.625 51.21875 45.40625 46.390625 
L 45.40625 54.6875 
L 54.390625 54.6875 
z
" id="DejaVuSans-103"/>
    </defs>
    <g transform="translate(308.850312 16.318125)scale(0.12 -0.12)">
     <use xlink:href="#DejaVuSans-82"/>
     <use x="69.482422" xlink:href="#DejaVuSans-69"/>
     <use x="132.666016" xlink:href="#DejaVuSans-68"/>
     <use x="209.667969" xlink:href="#DejaVuSans-32"/>
     <use x="241.455078" xlink:href="#DejaVuSans-76"/>
     <use x="297.167969" xlink:href="#DejaVuSans-69"/>
     <use x="360.351562" xlink:href="#DejaVuSans-68"/>
     <use x="437.353516" xlink:href="#DejaVuSans-32"/>
     <use x="469.140625" xlink:href="#DejaVuSans-73"/>
     <use x="498.632812" xlink:href="#DejaVuSans-110"/>
     <use x="562.011719" xlink:href="#DejaVuSans-112"/>
     <use x="625.488281" xlink:href="#DejaVuSans-117"/>
     <use x="688.867188" xlink:href="#DejaVuSans-116"/>
     <use x="728.076172" xlink:href="#DejaVuSans-32"/>
     <use x="759.863281" xlink:href="#DejaVuSans-83"/>
     <use x="823.339844" xlink:href="#DejaVuSans-105"/>
     <use x="851.123047" xlink:href="#DejaVuSans-103"/>
     <use x="914.599609" xlink:href="#DejaVuSans-110"/>
     <use x="977.978516" xlink:href="#DejaVuSans-97"/>
     <use x="1039.257812" xlink:href="#DejaVuSans-108"/>
    </g>
   </g>
  </g>
  <g id="axes_2">
   <g id="patch_7">
    <path d="M 40.603125 176.818125 
L 705.143125 176.818125 
L 705.143125 127.868125 
L 40.603125 127.868125 
z
" style="fill:#ffffff;"/>
   </g>
   <g id="matplotlib.axis_3">
    <g id="xtick_7">
     <g id="line2d_10">
      <g>
       <use style="stroke:#000000;stroke-width:0.8;" x="115.467302" xlink:href="#mb4408014e4" y="176.818125"/>
      </g>
     </g>
     <g id="text_13">
      <!-- 7.730 -->
      <g transform="translate(101.15324 191.416562)scale(0.1 -0.1)">
       <use xlink:href="#DejaVuSans-55"/>
       <use x="63.623047" xlink:href="#DejaVuSans-46"/>
       <use x="95.410156" xlink:href="#DejaVuSans-55"/>
       <use x="159.033203" xlink:href="#DejaVuSans-51"/>
       <use x="222.65625" xlink:href="#DejaVuSans-48"/>
      </g>
     </g>
    </g>
    <g id="xtick_8">
     <g id="line2d_11">
      <g>
       <use style="stroke:#000000;stroke-width:0.8;" x="228.812006" xlink:href="#mb4408014e4" y="176.818125"/>
      </g>
     </g>
     <g id="text_14">
      <!-- 7.735 -->
      <g transform="translate(214.497944 191.416562)scale(0.1 -0.1)">
       <use xlink:href="#DejaVuSans-55"/>
       <use x="63.623047" xlink:href="#DejaVuSans-46"/>
       <use x="95.410156" xlink:href="#DejaVuSans-55"/>
       <use x="159.033203" xlink:href="#DejaVuSans-51"/>
       <use x="222.65625" xlink:href="#DejaVuSans-53"/>
      </g>
     </g>
    </g>
    <g id="xtick_9">
     <g id="line2d_12">
      <g>
       <use style="stroke:#000000;stroke-width:0.8;" x="342.15671" xlink:href="#mb4408014e4" y="176.818125"/>
      </g>
     </g>
     <g id="text_15">
      <!-- 7.740 -->
      <g transform="translate(327.842648 191.416562)scale(0.1 -0.1)">
       <use xlink:href="#DejaVuSans-55"/>
       <use x="63.623047" xlink:href="#DejaVuSans-46"/>
       <use x="95.410156" xlink:href="#DejaVuSans-55"/>
       <use x="159.033203" xlink:href="#DejaVuSans-52"/>
       <use x="222.65625" xlink:href="#DejaVuSans-48"/>
      </g>
     </g>
    </g>
    <g id="xtick_10">
     <g id="line2d_13">
      <g>
       <use style="stroke:#000000;stroke-width:0.8;" x="455.501414" xlink:href="#mb4408014e4" y="176.818125"/>
      </g>
     </g>
     <g id="text_16">
      <!-- 7.745 -->
      <g transform="translate(441.187352 191.416562)scale(0.1 -0.1)">
       <use xlink:href="#DejaVuSans-55"/>
       <use x="63.623047" xlink:href="#DejaVuSans-46"/>
       <use x="95.410156" xlink:href="#DejaVuSans-55"/>
       <use x="159.033203" xlink:href="#DejaVuSans-52"/>
       <use x="222.65625" xlink:href="#DejaVuSans-53"/>
      </g>
     </g>
    </g>
    <g id="xtick_11">
     <g id="line2d_14">
      <g>
       <use style="stroke:#000000;stroke-width:0.8;" x="568.846118" xlink:href="#mb4408014e4" y="176.818125"/>
      </g>
     </g>
     <g id="text_17">
      <!-- 7.750 -->
      <g transform="translate(554.532056 191.416562)scale(0.1 -0.1)">
       <use xlink:href="#DejaVuSans-55"/>
       <use x="63.623047" xlink:href="#DejaVuSans-46"/>
       <use x="95.410156" xlink:href="#DejaVuSans-55"/>
       <use x="159.033203" xlink:href="#DejaVuSans-53"/>
       <use x="222.65625" xlink:href="#DejaVuSans-48"/>
      </g>
     </g>
    </g>
    <g id="xtick_12">
     <g id="line2d_15">
      <g>
       <use style="stroke:#000000;stroke-width:0.8;" x="682.190822" xlink:href="#mb4408014e4" y="176.818125"/>
      </g>
     </g>
     <g id="text_18">
      <!-- 7.755 -->
      <g transform="translate(667.87676 191.416562)scale(0.1 -0.1)">
       <use xlink:href="#DejaVuSans-55"/>
       <use x="63.623047" xlink:href="#DejaVuSans-46"/>
       <use x="95.410156" xlink:href="#DejaVuSans-55"/>
       <use x="159.033203" xlink:href="#DejaVuSans-53"/>
       <use x="222.65625" xlink:href="#DejaVuSans-53"/>
      </g>
     </g>
    </g>
    <g id="text_19">
     <!-- Time (ms) -->
     <g transform="translate(347.52 205.094687)scale(0.1 -0.1)">
      <use xlink:href="#DejaVuSans-84"/>
      <use x="61.037109" xlink:href="#DejaVuSans-105"/>
      <use x="88.820312" xlink:href="#DejaVuSans-109"/>
      <use x="186.232422" xlink:href="#DejaVuSans-101"/>
      <use x="247.755859" xlink:href="#DejaVuSans-32"/>
      <use x="279.542969" xlink:href="#DejaVuSans-40"/>
      <use x="318.556641" xlink:href="#DejaVuSans-109"/>
      <use x="415.96875" xlink:href="#DejaVuSans-115"/>
      <use x="468.068359" xlink:href="#DejaVuSans-41"/>
     </g>
    </g>
    <g id="text_20">
     <!-- 1e5 -->
     <g transform="translate(686.265 204.094687)scale(0.1 -0.1)">
      <use xlink:href="#DejaVuSans-49"/>
      <use x="63.623047" xlink:href="#DejaVuSans-101"/>
      <use x="125.146484" xlink:href="#DejaVuSans-53"/>
     </g>
    </g>
   </g>
   <g id="matplotlib.axis_4">
    <g id="ytick_3">
     <g id="line2d_16">
      <g>
       <use style="stroke:#000000;stroke-width:0.8;" x="40.603125" xlink:href="#m88356226f4" y="174.580344"/>
      </g>
     </g>
     <g id="text_21">
      <!-- 10 -->
      <g transform="translate(20.878125 178.379563)scale(0.1 -0.1)">
       <use xlink:href="#DejaVuSans-49"/>
       <use x="63.623047" xlink:href="#DejaVuSans-48"/>
      </g>
     </g>
    </g>
    <g id="ytick_4">
     <g id="line2d_17">
      <g>
       <use style="stroke:#000000;stroke-width:0.8;" x="40.603125" xlink:href="#m88356226f4" y="145.532968"/>
      </g>
     </g>
     <g id="text_22">
      <!-- 15 -->
      <g transform="translate(20.878125 149.332186)scale(0.1 -0.1)">
       <use xlink:href="#DejaVuSans-49"/>
       <use x="63.623047" xlink:href="#DejaVuSans-53"/>
      </g>
     </g>
    </g>
    <g id="text_23">
     <!-- ADC Value -->
     <g transform="translate(14.798438 178.807187)rotate(-90)scale(0.1 -0.1)">
      <use xlink:href="#DejaVuSans-65"/>
      <use x="68.408203" xlink:href="#DejaVuSans-68"/>
      <use x="145.410156" xlink:href="#DejaVuSans-67"/>
      <use x="215.234375" xlink:href="#DejaVuSans-32"/>
      <use x="247.021484" xlink:href="#DejaVuSans-86"/>
      <use x="315.320312" xlink:href="#DejaVuSans-97"/>
      <use x="376.599609" xlink:href="#DejaVuSans-108"/>
      <use x="404.382812" xlink:href="#DejaVuSans-117"/>
      <use x="467.761719" xlink:href="#DejaVuSans-101"/>
     </g>
    </g>
   </g>
   <g id="line2d_18">
    <path clip-path="url(#pe7c4b9069e)" d="M 70.809489 174.593125 
L 72.849693 173.114033 
L 75.569966 171.71453 
L 77.610171 170.453874 
L 82.597338 168.344453 
L 84.864232 167.353938 
L 89.39802 164.862835 
L 91.891604 163.119411 
L 98.918975 155.826777 
L 100.95918 153.181142 
L 103.452763 150.781248 
L 108.213241 147.311248 
L 110.253446 146.266704 
L 117.507507 144.059685 
L 120.00109 143.074398 
L 122.041295 141.925864 
L 124.534878 140.798826 
L 127.028462 139.974462 
L 129.522045 139.749635 
L 132.015629 140.342782 
L 134.282523 141.816065 
L 136.322728 144.03819 
L 138.362932 146.709386 
L 140.629826 149.423573 
L 143.12341 151.773506 
L 145.163615 153.444892 
L 147.657198 154.287266 
L 149.697403 154.337227 
L 151.964297 153.791137 
L 158.764979 151.384271 
L 160.805184 151.016531 
L 163.072078 150.931713 
L 168.059245 151.065331 
L 170.099449 150.943332 
L 172.366343 150.522726 
L 174.406548 149.76517 
L 182.340677 146.133086 
L 184.380882 144.886954 
L 188.91467 143.059874 
L 191.181564 142.60383 
L 193.675148 142.455688 
L 196.168731 142.556192 
L 202.969414 143.201044 
L 205.462997 143.109254 
L 207.729891 142.744419 
L 215.89071 141.032367 
L 217.930915 141.017262 
L 220.651187 141.724856 
L 222.691392 143.325367 
L 225.184976 145.843774 
L 227.905248 149.136004 
L 230.625521 152.905773 
L 232.665726 156.759198 
L 234.705931 160.284387 
L 236.746135 163.136259 
L 239.466408 165.097538 
L 241.506613 166.113034 
L 244.000196 166.27628 
L 246.040401 165.786541 
L 251.254258 163.777044 
L 255.334667 161.454997 
L 257.82825 160.286711 
L 260.095144 159.064978 
L 262.135349 157.757846 
L 269.38941 153.694699 
L 274.149888 151.878657 
L 276.416782 151.465604 
L 281.403949 151.343024 
L 283.444153 151.318624 
L 285.484358 151.076369 
L 287.977942 150.476831 
L 290.018146 149.459592 
L 292.51173 148.053118 
L 301.579306 141.446583 
L 304.07289 140.387515 
L 306.566473 139.773454 
L 308.833367 139.606141 
L 311.326951 139.842006 
L 313.367155 140.412496 
L 318.127633 142.293604 
L 320.167838 143.525794 
L 324.474936 146.572283 
L 326.96852 148.426667 
L 329.235414 150.507621 
L 336.262786 157.423802 
L 340.796574 161.029162 
L 343.516847 161.949964 
L 346.01043 162.113791 
L 348.277324 161.522386 
L 350.317529 160.308206 
L 354.851317 157.115899 
L 357.344901 155.826777 
L 359.385105 155.151716 
L 361.878689 155.25222 
L 363.918893 156.11667 
L 366.412477 157.559162 
L 370.719576 160.835126 
L 373.213159 161.942412 
L 375.706743 162.344427 
L 378.200326 161.964488 
L 380.240531 160.892058 
L 385.681077 157.592276 
L 387.721281 155.894167 
L 392.255069 153.238656 
L 394.975342 152.291711 
L 397.015547 151.453404 
L 399.50913 150.573849 
L 403.816229 148.247154 
L 406.309813 146.747148 
L 408.350017 145.105971 
L 415.604078 140.667532 
L 418.324351 139.817606 
L 420.364556 139.481818 
L 422.404761 139.747311 
L 424.898344 140.669275 
L 429.885511 144.466929 
L 434.645989 150.15731 
L 438.953087 155.899395 
L 440.993292 158.070977 
L 443.260186 159.469318 
L 445.52708 159.991009 
L 447.567285 159.661612 
L 449.60749 158.628106 
L 451.647694 157.120547 
L 454.367967 155.403266 
L 456.408172 153.716775 
L 458.675066 152.232454 
L 460.715271 151.031636 
L 465.022369 149.353859 
L 467.515953 148.665437 
L 472.049741 146.935375 
L 474.770014 145.689242 
L 477.036908 144.119522 
L 481.797386 140.092394 
L 484.06428 137.806946 
L 486.104484 135.538927 
L 488.144689 133.484697 
L 490.184894 131.847587 
L 492.905167 130.797814 
L 495.39875 130.428332 
L 497.665644 130.72171 
L 500.612606 131.536199 
L 503.10619 132.623732 
L 505.146395 133.684543 
L 507.413289 134.435708 
L 509.453493 134.691325 
L 511.720387 134.417698 
L 518.067691 132.44422 
L 520.561274 132.499991 
L 522.828168 133.380126 
L 524.868373 135.158987 
L 527.361957 137.730261 
L 529.85554 140.837169 
L 534.389328 147.267096 
L 536.656222 149.938874 
L 538.696427 151.955343 
L 540.963321 153.234008 
L 543.003526 153.786489 
L 545.497109 153.689471 
L 547.990693 153.051591 
L 550.257587 151.997752 
L 552.75117 150.661572 
L 554.791375 149.192937 
L 557.058269 147.755092 
L 561.592057 145.600357 
L 565.445777 145.089705 
L 567.712671 144.949115 
L 572.473149 145.130371 
L 574.966732 144.975258 
L 577.006937 144.385596 
L 579.273831 143.315491 
L 581.767415 141.911922 
L 583.807619 140.508933 
L 586.301203 139.553856 
L 588.568097 139.486466 
L 591.06168 140.597237 
L 593.555264 142.904761 
L 597.862363 149.585077 
L 600.355946 152.581023 
L 602.396151 154.325608 
L 604.436355 154.264028 
L 606.929939 152.208055 
L 608.970144 148.406334 
L 611.237038 143.500232 
L 613.730621 138.383246 
L 616.224205 133.991864 
L 618.491099 131.087707 
L 620.531303 130.093125 
L 622.798197 131.016832 
L 624.838402 133.488182 
L 627.105296 136.882078 
L 629.145501 140.493248 
L 631.412395 143.70763 
L 633.679289 146.127858 
L 636.626251 147.618569 
L 638.893145 148.276783 
L 640.93335 148.345335 
L 652.267821 146.995793 
L 657.028298 146.173172 
L 659.068503 145.58351 
L 664.05567 144.426843 
L 666.322564 144.089894 
L 668.362769 144.024828 
L 670.402973 144.24675 
L 672.669867 144.708603 
L 674.936761 145.318017 
L 674.936761 145.318017 
" style="fill:none;stroke:#1f77b4;stroke-linecap:square;stroke-width:1.5;"/>
   </g>
   <g id="patch_8">
    <path d="M 40.603125 176.818125 
L 40.603125 127.868125 
" style="fill:none;stroke:#000000;stroke-linecap:square;stroke-linejoin:miter;stroke-width:0.8;"/>
   </g>
   <g id="patch_9">
    <path d="M 705.143125 176.818125 
L 705.143125 127.868125 
" style="fill:none;stroke:#000000;stroke-linecap:square;stroke-linejoin:miter;stroke-width:0.8;"/>
   </g>
   <g id="patch_10">
    <path d="M 40.603125 176.818125 
L 705.143125 176.818125 
" style="fill:none;stroke:#000000;stroke-linecap:square;stroke-linejoin:miter;stroke-width:0.8;"/>
   </g>
   <g id="patch_11">
    <path d="M 40.603125 127.868125 
L 705.143125 127.868125 
" style="fill:none;stroke:#000000;stroke-linecap:square;stroke-linejoin:miter;stroke-width:0.8;"/>
   </g>
   <g id="text_24">
    <!-- Pre-processed Signal -->
    <defs>
     <path d="M 19.671875 64.796875 
L 19.671875 37.40625 
L 32.078125 37.40625 
Q 38.96875 37.40625 42.71875 40.96875 
Q 46.484375 44.53125 46.484375 51.125 
Q 46.484375 57.671875 42.71875 61.234375 
Q 38.96875 64.796875 32.078125 64.796875 
z
M 9.8125 72.90625 
L 32.078125 72.90625 
Q 44.34375 72.90625 50.609375 67.359375 
Q 56.890625 61.8125 56.890625 51.125 
Q 56.890625 40.328125 50.609375 34.8125 
Q 44.34375 29.296875 32.078125 29.296875 
L 19.671875 29.296875 
L 19.671875 0 
L 9.8125 0 
z
" id="DejaVuSans-80"/>
     <path d="M 41.109375 46.296875 
Q 39.59375 47.171875 37.8125 47.578125 
Q 36.03125 48 33.890625 48 
Q 26.265625 48 22.1875 43.046875 
Q 18.109375 38.09375 18.109375 28.8125 
L 18.109375 0 
L 9.078125 0 
L 9.078125 54.6875 
L 18.109375 54.6875 
L 18.109375 46.1875 
Q 20.953125 51.171875 25.484375 53.578125 
Q 30.03125 56 36.53125 56 
Q 37.453125 56 38.578125 55.875 
Q 39.703125 55.765625 41.0625 55.515625 
z
" id="DejaVuSans-114"/>
     <path d="M 4.890625 31.390625 
L 31.203125 31.390625 
L 31.203125 23.390625 
L 4.890625 23.390625 
z
" id="DejaVuSans-45"/>
     <path d="M 30.609375 48.390625 
Q 23.390625 48.390625 19.1875 42.75 
Q 14.984375 37.109375 14.984375 27.296875 
Q 14.984375 17.484375 19.15625 11.84375 
Q 23.34375 6.203125 30.609375 6.203125 
Q 37.796875 6.203125 41.984375 11.859375 
Q 46.1875 17.53125 46.1875 27.296875 
Q 46.1875 37.015625 41.984375 42.703125 
Q 37.796875 48.390625 30.609375 48.390625 
z
M 30.609375 56 
Q 42.328125 56 49.015625 48.375 
Q 55.71875 40.765625 55.71875 27.296875 
Q 55.71875 13.875 49.015625 6.21875 
Q 42.328125 -1.421875 30.609375 -1.421875 
Q 18.84375 -1.421875 12.171875 6.21875 
Q 5.515625 13.875 5.515625 27.296875 
Q 5.515625 40.765625 12.171875 48.375 
Q 18.84375 56 30.609375 56 
z
" id="DejaVuSans-111"/>
     <path d="M 48.78125 52.59375 
L 48.78125 44.1875 
Q 44.96875 46.296875 41.140625 47.34375 
Q 37.3125 48.390625 33.40625 48.390625 
Q 24.65625 48.390625 19.8125 42.84375 
Q 14.984375 37.3125 14.984375 27.296875 
Q 14.984375 17.28125 19.8125 11.734375 
Q 24.65625 6.203125 33.40625 6.203125 
Q 37.3125 6.203125 41.140625 7.25 
Q 44.96875 8.296875 48.78125 10.40625 
L 48.78125 2.09375 
Q 45.015625 0.34375 40.984375 -0.53125 
Q 36.96875 -1.421875 32.421875 -1.421875 
Q 20.0625 -1.421875 12.78125 6.34375 
Q 5.515625 14.109375 5.515625 27.296875 
Q 5.515625 40.671875 12.859375 48.328125 
Q 20.21875 56 33.015625 56 
Q 37.15625 56 41.109375 55.140625 
Q 45.0625 54.296875 48.78125 52.59375 
z
" id="DejaVuSans-99"/>
     <path d="M 45.40625 46.390625 
L 45.40625 75.984375 
L 54.390625 75.984375 
L 54.390625 0 
L 45.40625 0 
L 45.40625 8.203125 
Q 42.578125 3.328125 38.25 0.953125 
Q 33.9375 -1.421875 27.875 -1.421875 
Q 17.96875 -1.421875 11.734375 6.484375 
Q 5.515625 14.40625 5.515625 27.296875 
Q 5.515625 40.1875 11.734375 48.09375 
Q 17.96875 56 27.875 56 
Q 33.9375 56 38.25 53.625 
Q 42.578125 51.265625 45.40625 46.390625 
z
M 14.796875 27.296875 
Q 14.796875 17.390625 18.875 11.75 
Q 22.953125 6.109375 30.078125 6.109375 
Q 37.203125 6.109375 41.296875 11.75 
Q 45.40625 17.390625 45.40625 27.296875 
Q 45.40625 37.203125 41.296875 42.84375 
Q 37.203125 48.484375 30.078125 48.484375 
Q 22.953125 48.484375 18.875 42.84375 
Q 14.796875 37.203125 14.796875 27.296875 
z
" id="DejaVuSans-100"/>
    </defs>
    <g transform="translate(309.90875 121.868125)scale(0.12 -0.12)">
     <use xlink:href="#DejaVuSans-80"/>
     <use x="60.287109" xlink:href="#DejaVuSans-114"/>
     <use x="101.369141" xlink:href="#DejaVuSans-101"/>
     <use x="162.892578" xlink:href="#DejaVuSans-45"/>
     <use x="198.976562" xlink:href="#DejaVuSans-112"/>
     <use x="262.453125" xlink:href="#DejaVuSans-114"/>
     <use x="303.535156" xlink:href="#DejaVuSans-111"/>
     <use x="364.716797" xlink:href="#DejaVuSans-99"/>
     <use x="419.697266" xlink:href="#DejaVuSans-101"/>
     <use x="481.220703" xlink:href="#DejaVuSans-115"/>
     <use x="533.320312" xlink:href="#DejaVuSans-115"/>
     <use x="585.419922" xlink:href="#DejaVuSans-101"/>
     <use x="646.943359" xlink:href="#DejaVuSans-100"/>
     <use x="710.419922" xlink:href="#DejaVuSans-32"/>
     <use x="742.207031" xlink:href="#DejaVuSans-83"/>
     <use x="805.683594" xlink:href="#DejaVuSans-105"/>
     <use x="833.466797" xlink:href="#DejaVuSans-103"/>
     <use x="896.943359" xlink:href="#DejaVuSans-110"/>
     <use x="960.322266" xlink:href="#DejaVuSans-97"/>
     <use x="1021.601562" xlink:href="#DejaVuSans-108"/>
    </g>
   </g>
  </g>
  <g id="axes_3">
   <g id="patch_12">
    <path d="M 40.603125 282.368125 
L 705.143125 282.368125 
L 705.143125 233.418125 
L 40.603125 233.418125 
z
" style="fill:#ffffff;"/>
   </g>
   <g id="matplotlib.axis_5">
    <g id="xtick_13">
     <g id="line2d_19">
      <g>
       <use style="stroke:#000000;stroke-width:0.8;" x="115.467302" xlink:href="#mb4408014e4" y="282.368125"/>
      </g>
     </g>
     <g id="text_25">
      <!-- 7.730 -->
      <g transform="translate(101.15324 296.966563)scale(0.1 -0.1)">
       <use xlink:href="#DejaVuSans-55"/>
       <use x="63.623047" xlink:href="#DejaVuSans-46"/>
       <use x="95.410156" xlink:href="#DejaVuSans-55"/>
       <use x="159.033203" xlink:href="#DejaVuSans-51"/>
       <use x="222.65625" xlink:href="#DejaVuSans-48"/>
      </g>
     </g>
    </g>
    <g id="xtick_14">
     <g id="line2d_20">
      <g>
       <use style="stroke:#000000;stroke-width:0.8;" x="228.812006" xlink:href="#mb4408014e4" y="282.368125"/>
      </g>
     </g>
     <g id="text_26">
      <!-- 7.735 -->
      <g transform="translate(214.497944 296.966563)scale(0.1 -0.1)">
       <use xlink:href="#DejaVuSans-55"/>
       <use x="63.623047" xlink:href="#DejaVuSans-46"/>
       <use x="95.410156" xlink:href="#DejaVuSans-55"/>
       <use x="159.033203" xlink:href="#DejaVuSans-51"/>
       <use x="222.65625" xlink:href="#DejaVuSans-53"/>
      </g>
     </g>
    </g>
    <g id="xtick_15">
     <g id="line2d_21">
      <g>
       <use style="stroke:#000000;stroke-width:0.8;" x="342.15671" xlink:href="#mb4408014e4" y="282.368125"/>
      </g>
     </g>
     <g id="text_27">
      <!-- 7.740 -->
      <g transform="translate(327.842648 296.966563)scale(0.1 -0.1)">
       <use xlink:href="#DejaVuSans-55"/>
       <use x="63.623047" xlink:href="#DejaVuSans-46"/>
       <use x="95.410156" xlink:href="#DejaVuSans-55"/>
       <use x="159.033203" xlink:href="#DejaVuSans-52"/>
       <use x="222.65625" xlink:href="#DejaVuSans-48"/>
      </g>
     </g>
    </g>
    <g id="xtick_16">
     <g id="line2d_22">
      <g>
       <use style="stroke:#000000;stroke-width:0.8;" x="455.501414" xlink:href="#mb4408014e4" y="282.368125"/>
      </g>
     </g>
     <g id="text_28">
      <!-- 7.745 -->
      <g transform="translate(441.187352 296.966563)scale(0.1 -0.1)">
       <use xlink:href="#DejaVuSans-55"/>
       <use x="63.623047" xlink:href="#DejaVuSans-46"/>
       <use x="95.410156" xlink:href="#DejaVuSans-55"/>
       <use x="159.033203" xlink:href="#DejaVuSans-52"/>
       <use x="222.65625" xlink:href="#DejaVuSans-53"/>
      </g>
     </g>
    </g>
    <g id="xtick_17">
     <g id="line2d_23">
      <g>
       <use style="stroke:#000000;stroke-width:0.8;" x="568.846118" xlink:href="#mb4408014e4" y="282.368125"/>
      </g>
     </g>
     <g id="text_29">
      <!-- 7.750 -->
      <g transform="translate(554.532056 296.966563)scale(0.1 -0.1)">
       <use xlink:href="#DejaVuSans-55"/>
       <use x="63.623047" xlink:href="#DejaVuSans-46"/>
       <use x="95.410156" xlink:href="#DejaVuSans-55"/>
       <use x="159.033203" xlink:href="#DejaVuSans-53"/>
       <use x="222.65625" xlink:href="#DejaVuSans-48"/>
      </g>
     </g>
    </g>
    <g id="xtick_18">
     <g id="line2d_24">
      <g>
       <use style="stroke:#000000;stroke-width:0.8;" x="682.190822" xlink:href="#mb4408014e4" y="282.368125"/>
      </g>
     </g>
     <g id="text_30">
      <!-- 7.755 -->
      <g transform="translate(667.87676 296.966563)scale(0.1 -0.1)">
       <use xlink:href="#DejaVuSans-55"/>
       <use x="63.623047" xlink:href="#DejaVuSans-46"/>
       <use x="95.410156" xlink:href="#DejaVuSans-55"/>
       <use x="159.033203" xlink:href="#DejaVuSans-53"/>
       <use x="222.65625" xlink:href="#DejaVuSans-53"/>
      </g>
     </g>
    </g>
    <g id="text_31">
     <!-- 1e5 -->
     <g transform="translate(686.265 309.644687)scale(0.1 -0.1)">
      <use xlink:href="#DejaVuSans-49"/>
      <use x="63.623047" xlink:href="#DejaVuSans-101"/>
      <use x="125.146484" xlink:href="#DejaVuSans-53"/>
     </g>
    </g>
   </g>
   <g id="matplotlib.axis_6">
    <g id="ytick_5">
     <g id="line2d_25">
      <g>
       <use style="stroke:#000000;stroke-width:0.8;" x="40.603125" xlink:href="#m88356226f4" y="280.130344"/>
      </g>
     </g>
     <g id="text_32">
      <!-- 10 -->
      <g transform="translate(20.878125 283.929563)scale(0.1 -0.1)">
       <use xlink:href="#DejaVuSans-49"/>
       <use x="63.623047" xlink:href="#DejaVuSans-48"/>
      </g>
     </g>
    </g>
    <g id="ytick_6">
     <g id="line2d_26">
      <g>
       <use style="stroke:#000000;stroke-width:0.8;" x="40.603125" xlink:href="#m88356226f4" y="251.082968"/>
      </g>
     </g>
     <g id="text_33">
      <!-- 15 -->
      <g transform="translate(20.878125 254.882186)scale(0.1 -0.1)">
       <use xlink:href="#DejaVuSans-49"/>
       <use x="63.623047" xlink:href="#DejaVuSans-53"/>
      </g>
     </g>
    </g>
   </g>
   <g id="LineCollection_1">
    <path clip-path="url(#p21e541f11c)" d="M 217.930915 259.887227 
L 217.930915 246.567262 
" style="fill:none;stroke:#000000;stroke-width:1.5;"/>
    <path clip-path="url(#p21e541f11c)" d="M 308.833367 267.894427 
L 308.833367 245.156141 
" style="fill:none;stroke:#000000;stroke-width:1.5;"/>
    <path clip-path="url(#p21e541f11c)" d="M 359.385105 267.663791 
L 359.385105 260.701716 
" style="fill:none;stroke:#000000;stroke-width:1.5;"/>
    <path clip-path="url(#p21e541f11c)" d="M 420.364556 265.541009 
L 420.364556 245.031818 
" style="fill:none;stroke:#000000;stroke-width:1.5;"/>
    <path clip-path="url(#p21e541f11c)" d="M 495.39875 259.875608 
L 495.39875 235.978332 
" style="fill:none;stroke:#000000;stroke-width:1.5;"/>
    <path clip-path="url(#p21e541f11c)" d="M 588.568097 259.336489 
L 588.568097 245.036466 
" style="fill:none;stroke:#000000;stroke-width:1.5;"/>
    <path clip-path="url(#p21e541f11c)" d="M 620.531303 253.895335 
L 620.531303 235.643125 
" style="fill:none;stroke:#000000;stroke-width:1.5;"/>
   </g>
   <g id="line2d_27">
    <path clip-path="url(#p21e541f11c)" d="M 70.809489 280.143125 
L 72.849693 278.664033 
L 75.569966 277.26453 
L 77.610171 276.003874 
L 82.597338 273.894453 
L 84.864232 272.903938 
L 89.39802 270.412835 
L 91.891604 268.669411 
L 98.918975 261.376777 
L 100.95918 258.731142 
L 103.452763 256.331248 
L 108.213241 252.861248 
L 110.253446 251.816704 
L 117.507507 249.609685 
L 120.00109 248.624398 
L 122.041295 247.475864 
L 124.534878 246.348826 
L 127.028462 245.524462 
L 129.522045 245.299635 
L 132.015629 245.892782 
L 134.282523 247.366065 
L 136.322728 249.58819 
L 138.362932 252.259386 
L 140.629826 254.973573 
L 143.12341 257.323506 
L 145.163615 258.994892 
L 147.657198 259.837266 
L 149.697403 259.887227 
L 151.964297 259.341137 
L 158.764979 256.934271 
L 160.805184 256.566531 
L 163.072078 256.481713 
L 168.059245 256.615331 
L 170.099449 256.493332 
L 172.366343 256.072726 
L 174.406548 255.31517 
L 182.340677 251.683086 
L 184.380882 250.436954 
L 188.91467 248.609874 
L 191.181564 248.15383 
L 193.675148 248.005688 
L 196.168731 248.106192 
L 202.969414 248.751044 
L 205.462997 248.659254 
L 207.729891 248.294419 
L 215.89071 246.582367 
L 217.930915 246.567262 
L 220.651187 247.274856 
L 222.691392 248.875367 
L 225.184976 251.393774 
L 227.905248 254.686004 
L 230.625521 258.455773 
L 232.665726 262.309198 
L 234.705931 265.834387 
L 236.746135 268.686259 
L 239.466408 270.647538 
L 241.506613 271.663034 
L 244.000196 271.82628 
L 246.040401 271.336541 
L 251.254258 269.327044 
L 255.334667 267.004997 
L 257.82825 265.836711 
L 260.095144 264.614978 
L 262.135349 263.307846 
L 269.38941 259.244699 
L 274.149888 257.428657 
L 276.416782 257.015604 
L 281.403949 256.893024 
L 283.444153 256.868624 
L 285.484358 256.626369 
L 287.977942 256.026831 
L 290.018146 255.009592 
L 292.51173 253.603118 
L 301.579306 246.996583 
L 304.07289 245.937515 
L 306.566473 245.323454 
L 308.833367 245.156141 
L 311.326951 245.392006 
L 313.367155 245.962496 
L 318.127633 247.843604 
L 320.167838 249.075794 
L 324.474936 252.122283 
L 326.96852 253.976667 
L 329.235414 256.057621 
L 336.262786 262.973802 
L 340.796574 266.579162 
L 343.516847 267.499964 
L 346.01043 267.663791 
L 348.277324 267.072386 
L 350.317529 265.858206 
L 354.851317 262.665899 
L 357.344901 261.376777 
L 359.385105 260.701716 
L 361.878689 260.80222 
L 363.918893 261.66667 
L 366.412477 263.109162 
L 370.719576 266.385126 
L 373.213159 267.492412 
L 375.706743 267.894427 
L 378.200326 267.514488 
L 380.240531 266.442058 
L 385.681077 263.142276 
L 387.721281 261.444167 
L 392.255069 258.788656 
L 394.975342 257.841711 
L 397.015547 257.003404 
L 399.50913 256.123849 
L 403.816229 253.797154 
L 406.309813 252.297148 
L 408.350017 250.655971 
L 415.604078 246.217532 
L 418.324351 245.367606 
L 420.364556 245.031818 
L 422.404761 245.297311 
L 424.898344 246.219275 
L 429.885511 250.016929 
L 434.645989 255.70731 
L 438.953087 261.449395 
L 440.993292 263.620977 
L 443.260186 265.019318 
L 445.52708 265.541009 
L 447.567285 265.211612 
L 449.60749 264.178106 
L 451.647694 262.670547 
L 454.367967 260.953266 
L 456.408172 259.266775 
L 458.675066 257.782454 
L 460.715271 256.581636 
L 465.022369 254.903859 
L 467.515953 254.215437 
L 472.049741 252.485375 
L 474.770014 251.239242 
L 477.036908 249.669522 
L 481.797386 245.642394 
L 484.06428 243.356946 
L 486.104484 241.088927 
L 488.144689 239.034697 
L 490.184894 237.397587 
L 492.905167 236.347814 
L 495.39875 235.978332 
L 497.665644 236.27171 
L 500.612606 237.086199 
L 503.10619 238.173732 
L 505.146395 239.234543 
L 507.413289 239.985708 
L 509.453493 240.241325 
L 511.720387 239.967698 
L 518.067691 237.99422 
L 520.561274 238.049991 
L 522.828168 238.930126 
L 524.868373 240.708987 
L 527.361957 243.280261 
L 529.85554 246.387169 
L 534.389328 252.817096 
L 536.656222 255.488874 
L 538.696427 257.505343 
L 540.963321 258.784008 
L 543.003526 259.336489 
L 545.497109 259.239471 
L 547.990693 258.601591 
L 550.257587 257.547752 
L 552.75117 256.211572 
L 554.791375 254.742937 
L 557.058269 253.305092 
L 561.592057 251.150357 
L 565.445777 250.639705 
L 567.712671 250.499115 
L 572.473149 250.680371 
L 574.966732 250.525258 
L 577.006937 249.935596 
L 579.273831 248.865491 
L 581.767415 247.461922 
L 583.807619 246.058933 
L 586.301203 245.103856 
L 588.568097 245.036466 
L 591.06168 246.147237 
L 593.555264 248.454761 
L 597.862363 255.135077 
L 600.355946 258.131023 
L 602.396151 259.875608 
L 604.436355 259.814028 
L 606.929939 257.758055 
L 608.970144 253.956334 
L 611.237038 249.050232 
L 613.730621 243.933246 
L 616.224205 239.541864 
L 618.491099 236.637707 
L 620.531303 235.643125 
L 622.798197 236.566832 
L 624.838402 239.038182 
L 627.105296 242.432078 
L 629.145501 246.043248 
L 631.412395 249.25763 
L 633.679289 251.677858 
L 636.626251 253.168569 
L 638.893145 253.826783 
L 640.93335 253.895335 
L 652.267821 252.545793 
L 657.028298 251.723172 
L 659.068503 251.13351 
L 664.05567 249.976843 
L 666.322564 249.639894 
L 668.362769 249.574828 
L 670.402973 249.79675 
L 672.669867 250.258603 
L 674.936761 250.868017 
L 674.936761 250.868017 
" style="fill:none;stroke:#1f77b4;stroke-linecap:square;stroke-width:1.5;"/>
   </g>
   <g id="line2d_28">
    <defs>
     <path d="M -3 3 
L 3 -3 
M -3 -3 
L 3 3 
" id="m6f2729b96b" style="stroke:#008000;"/>
    </defs>
    <g clip-path="url(#p21e541f11c)">
     <use style="fill:#008000;stroke:#008000;" x="217.930915" xlink:href="#m6f2729b96b" y="246.567262"/>
     <use style="fill:#008000;stroke:#008000;" x="308.833367" xlink:href="#m6f2729b96b" y="245.156141"/>
     <use style="fill:#008000;stroke:#008000;" x="359.385105" xlink:href="#m6f2729b96b" y="260.701716"/>
     <use style="fill:#008000;stroke:#008000;" x="420.364556" xlink:href="#m6f2729b96b" y="245.031818"/>
     <use style="fill:#008000;stroke:#008000;" x="495.39875" xlink:href="#m6f2729b96b" y="235.978332"/>
     <use style="fill:#008000;stroke:#008000;" x="588.568097" xlink:href="#m6f2729b96b" y="245.036466"/>
     <use style="fill:#008000;stroke:#008000;" x="620.531303" xlink:href="#m6f2729b96b" y="235.643125"/>
    </g>
   </g>
   <g id="line2d_29">
    <defs>
     <path d="M -3 3 
L 3 -3 
M -3 -3 
L 3 3 
" id="m5087b1fd74" style="stroke:#ff0000;"/>
    </defs>
    <g clip-path="url(#p21e541f11c)">
     <use style="fill:#ff0000;stroke:#ff0000;" x="217.930915" xlink:href="#m5087b1fd74" y="259.887227"/>
     <use style="fill:#ff0000;stroke:#ff0000;" x="308.833367" xlink:href="#m5087b1fd74" y="267.894427"/>
     <use style="fill:#ff0000;stroke:#ff0000;" x="359.385105" xlink:href="#m5087b1fd74" y="267.663791"/>
     <use style="fill:#ff0000;stroke:#ff0000;" x="420.364556" xlink:href="#m5087b1fd74" y="265.541009"/>
     <use style="fill:#ff0000;stroke:#ff0000;" x="495.39875" xlink:href="#m5087b1fd74" y="259.875608"/>
     <use style="fill:#ff0000;stroke:#ff0000;" x="588.568097" xlink:href="#m5087b1fd74" y="259.336489"/>
     <use style="fill:#ff0000;stroke:#ff0000;" x="620.531303" xlink:href="#m5087b1fd74" y="253.895335"/>
    </g>
   </g>
   <g id="patch_13">
    <path d="M 40.603125 282.368125 
L 40.603125 233.418125 
" style="fill:none;stroke:#000000;stroke-linecap:square;stroke-linejoin:miter;stroke-width:0.8;"/>
   </g>
   <g id="patch_14">
    <path d="M 705.143125 282.368125 
L 705.143125 233.418125 
" style="fill:none;stroke:#000000;stroke-linecap:square;stroke-linejoin:miter;stroke-width:0.8;"/>
   </g>
   <g id="patch_15">
    <path d="M 40.603125 282.368125 
L 705.143125 282.368125 
" style="fill:none;stroke:#000000;stroke-linecap:square;stroke-linejoin:miter;stroke-width:0.8;"/>
   </g>
   <g id="patch_16">
    <path d="M 40.603125 233.418125 
L 705.143125 233.418125 
" style="fill:none;stroke:#000000;stroke-linecap:square;stroke-linejoin:miter;stroke-width:0.8;"/>
   </g>
   <g id="text_34">
    <!-- AC Components -->
    <g transform="translate(324.712812 227.418125)scale(0.12 -0.12)">
     <use xlink:href="#DejaVuSans-65"/>
     <use x="68.392578" xlink:href="#DejaVuSans-67"/>
     <use x="138.216797" xlink:href="#DejaVuSans-32"/>
     <use x="170.003906" xlink:href="#DejaVuSans-67"/>
     <use x="239.828125" xlink:href="#DejaVuSans-111"/>
     <use x="301.009766" xlink:href="#DejaVuSans-109"/>
     <use x="398.421875" xlink:href="#DejaVuSans-112"/>
     <use x="461.898438" xlink:href="#DejaVuSans-111"/>
     <use x="523.080078" xlink:href="#DejaVuSans-110"/>
     <use x="586.458984" xlink:href="#DejaVuSans-101"/>
     <use x="647.982422" xlink:href="#DejaVuSans-110"/>
     <use x="711.361328" xlink:href="#DejaVuSans-116"/>
     <use x="750.570312" xlink:href="#DejaVuSans-115"/>
    </g>
   </g>
  </g>
  <g id="axes_4">
   <g id="patch_17">
    <path d="M 40.603125 387.918125 
L 705.143125 387.918125 
L 705.143125 338.968125 
L 40.603125 338.968125 
z
" style="fill:#ffffff;"/>
   </g>
   <g id="matplotlib.axis_7">
    <g id="xtick_19">
     <g id="line2d_30">
      <g>
       <use style="stroke:#000000;stroke-width:0.8;" x="115.467302" xlink:href="#mb4408014e4" y="387.918125"/>
      </g>
     </g>
     <g id="text_35">
      <!-- 7.730 -->
      <g transform="translate(101.15324 402.516563)scale(0.1 -0.1)">
       <use xlink:href="#DejaVuSans-55"/>
       <use x="63.623047" xlink:href="#DejaVuSans-46"/>
       <use x="95.410156" xlink:href="#DejaVuSans-55"/>
       <use x="159.033203" xlink:href="#DejaVuSans-51"/>
       <use x="222.65625" xlink:href="#DejaVuSans-48"/>
      </g>
     </g>
    </g>
    <g id="xtick_20">
     <g id="line2d_31">
      <g>
       <use style="stroke:#000000;stroke-width:0.8;" x="228.812006" xlink:href="#mb4408014e4" y="387.918125"/>
      </g>
     </g>
     <g id="text_36">
      <!-- 7.735 -->
      <g transform="translate(214.497944 402.516563)scale(0.1 -0.1)">
       <use xlink:href="#DejaVuSans-55"/>
       <use x="63.623047" xlink:href="#DejaVuSans-46"/>
       <use x="95.410156" xlink:href="#DejaVuSans-55"/>
       <use x="159.033203" xlink:href="#DejaVuSans-51"/>
       <use x="222.65625" xlink:href="#DejaVuSans-53"/>
      </g>
     </g>
    </g>
    <g id="xtick_21">
     <g id="line2d_32">
      <g>
       <use style="stroke:#000000;stroke-width:0.8;" x="342.15671" xlink:href="#mb4408014e4" y="387.918125"/>
      </g>
     </g>
     <g id="text_37">
      <!-- 7.740 -->
      <g transform="translate(327.842648 402.516563)scale(0.1 -0.1)">
       <use xlink:href="#DejaVuSans-55"/>
       <use x="63.623047" xlink:href="#DejaVuSans-46"/>
       <use x="95.410156" xlink:href="#DejaVuSans-55"/>
       <use x="159.033203" xlink:href="#DejaVuSans-52"/>
       <use x="222.65625" xlink:href="#DejaVuSans-48"/>
      </g>
     </g>
    </g>
    <g id="xtick_22">
     <g id="line2d_33">
      <g>
       <use style="stroke:#000000;stroke-width:0.8;" x="455.501414" xlink:href="#mb4408014e4" y="387.918125"/>
      </g>
     </g>
     <g id="text_38">
      <!-- 7.745 -->
      <g transform="translate(441.187352 402.516563)scale(0.1 -0.1)">
       <use xlink:href="#DejaVuSans-55"/>
       <use x="63.623047" xlink:href="#DejaVuSans-46"/>
       <use x="95.410156" xlink:href="#DejaVuSans-55"/>
       <use x="159.033203" xlink:href="#DejaVuSans-52"/>
       <use x="222.65625" xlink:href="#DejaVuSans-53"/>
      </g>
     </g>
    </g>
    <g id="xtick_23">
     <g id="line2d_34">
      <g>
       <use style="stroke:#000000;stroke-width:0.8;" x="568.846118" xlink:href="#mb4408014e4" y="387.918125"/>
      </g>
     </g>
     <g id="text_39">
      <!-- 7.750 -->
      <g transform="translate(554.532056 402.516563)scale(0.1 -0.1)">
       <use xlink:href="#DejaVuSans-55"/>
       <use x="63.623047" xlink:href="#DejaVuSans-46"/>
       <use x="95.410156" xlink:href="#DejaVuSans-55"/>
       <use x="159.033203" xlink:href="#DejaVuSans-53"/>
       <use x="222.65625" xlink:href="#DejaVuSans-48"/>
      </g>
     </g>
    </g>
    <g id="xtick_24">
     <g id="line2d_35">
      <g>
       <use style="stroke:#000000;stroke-width:0.8;" x="682.190822" xlink:href="#mb4408014e4" y="387.918125"/>
      </g>
     </g>
     <g id="text_40">
      <!-- 7.755 -->
      <g transform="translate(667.87676 402.516563)scale(0.1 -0.1)">
       <use xlink:href="#DejaVuSans-55"/>
       <use x="63.623047" xlink:href="#DejaVuSans-46"/>
       <use x="95.410156" xlink:href="#DejaVuSans-55"/>
       <use x="159.033203" xlink:href="#DejaVuSans-53"/>
       <use x="222.65625" xlink:href="#DejaVuSans-53"/>
      </g>
     </g>
    </g>
    <g id="text_41">
     <!-- 1e5 -->
     <g transform="translate(686.265 415.194687)scale(0.1 -0.1)">
      <use xlink:href="#DejaVuSans-49"/>
      <use x="63.623047" xlink:href="#DejaVuSans-101"/>
      <use x="125.146484" xlink:href="#DejaVuSans-53"/>
     </g>
    </g>
   </g>
   <g id="matplotlib.axis_8">
    <g id="ytick_7">
     <g id="line2d_36">
      <g>
       <use style="stroke:#000000;stroke-width:0.8;" x="40.603125" xlink:href="#m88356226f4" y="385.680344"/>
      </g>
     </g>
     <g id="text_42">
      <!-- 10 -->
      <g transform="translate(20.878125 389.479563)scale(0.1 -0.1)">
       <use xlink:href="#DejaVuSans-49"/>
       <use x="63.623047" xlink:href="#DejaVuSans-48"/>
      </g>
     </g>
    </g>
    <g id="ytick_8">
     <g id="line2d_37">
      <g>
       <use style="stroke:#000000;stroke-width:0.8;" x="40.603125" xlink:href="#m88356226f4" y="356.632968"/>
      </g>
     </g>
     <g id="text_43">
      <!-- 15 -->
      <g transform="translate(20.878125 360.432186)scale(0.1 -0.1)">
       <use xlink:href="#DejaVuSans-49"/>
       <use x="63.623047" xlink:href="#DejaVuSans-53"/>
      </g>
     </g>
    </g>
   </g>
   <g id="line2d_38">
    <path clip-path="url(#pa5fbfaa860)" d="M 70.809489 385.693125 
L 72.849693 384.214033 
L 75.569966 382.81453 
L 77.610171 381.553874 
L 82.597338 379.444453 
L 84.864232 378.453938 
L 89.39802 375.962835 
L 91.891604 374.219411 
L 98.918975 366.926777 
L 100.95918 364.281142 
L 103.452763 361.881248 
L 108.213241 358.411248 
L 110.253446 357.366704 
L 117.507507 355.159685 
L 120.00109 354.174398 
L 122.041295 353.025864 
L 124.534878 351.898826 
L 127.028462 351.074462 
L 129.522045 350.849635 
L 132.015629 351.442782 
L 134.282523 352.916065 
L 136.322728 355.13819 
L 138.362932 357.809386 
L 140.629826 360.523573 
L 143.12341 362.873506 
L 145.163615 364.544892 
L 147.657198 365.387266 
L 149.697403 365.437227 
L 151.964297 364.891137 
L 158.764979 362.484271 
L 160.805184 362.116531 
L 163.072078 362.031713 
L 168.059245 362.165331 
L 170.099449 362.043332 
L 172.366343 361.622726 
L 174.406548 360.86517 
L 182.340677 357.233086 
L 184.380882 355.986954 
L 188.91467 354.159874 
L 191.181564 353.70383 
L 193.675148 353.555688 
L 196.168731 353.656192 
L 202.969414 354.301044 
L 205.462997 354.209254 
L 207.729891 353.844419 
L 215.89071 352.132367 
L 217.930915 352.117262 
L 220.651187 352.824856 
L 222.691392 354.425367 
L 225.184976 356.943774 
L 227.905248 360.236004 
L 230.625521 364.005773 
L 232.665726 367.859198 
L 234.705931 371.384387 
L 236.746135 374.236259 
L 239.466408 376.197538 
L 241.506613 377.213034 
L 244.000196 377.37628 
L 246.040401 376.886541 
L 251.254258 374.877044 
L 255.334667 372.554997 
L 257.82825 371.386711 
L 260.095144 370.164978 
L 262.135349 368.857846 
L 269.38941 364.794699 
L 274.149888 362.978657 
L 276.416782 362.565604 
L 281.403949 362.443024 
L 283.444153 362.418624 
L 285.484358 362.176369 
L 287.977942 361.576831 
L 290.018146 360.559592 
L 292.51173 359.153118 
L 301.579306 352.546583 
L 304.07289 351.487515 
L 306.566473 350.873454 
L 308.833367 350.706141 
L 311.326951 350.942006 
L 313.367155 351.512496 
L 318.127633 353.393604 
L 320.167838 354.625794 
L 324.474936 357.672283 
L 326.96852 359.526667 
L 329.235414 361.607621 
L 336.262786 368.523802 
L 340.796574 372.129162 
L 343.516847 373.049964 
L 346.01043 373.213791 
L 348.277324 372.622386 
L 350.317529 371.408206 
L 354.851317 368.215899 
L 357.344901 366.926777 
L 359.385105 366.251716 
L 361.878689 366.35222 
L 363.918893 367.21667 
L 366.412477 368.659162 
L 370.719576 371.935126 
L 373.213159 373.042412 
L 375.706743 373.444427 
L 378.200326 373.064488 
L 380.240531 371.992058 
L 385.681077 368.692276 
L 387.721281 366.994167 
L 392.255069 364.338656 
L 394.975342 363.391711 
L 397.015547 362.553404 
L 399.50913 361.673849 
L 403.816229 359.347154 
L 406.309813 357.847148 
L 408.350017 356.205971 
L 415.604078 351.767532 
L 418.324351 350.917606 
L 420.364556 350.581818 
L 422.404761 350.847311 
L 424.898344 351.769275 
L 429.885511 355.566929 
L 434.645989 361.25731 
L 438.953087 366.999395 
L 440.993292 369.170977 
L 443.260186 370.569318 
L 445.52708 371.091009 
L 447.567285 370.761612 
L 449.60749 369.728106 
L 451.647694 368.220547 
L 454.367967 366.503266 
L 456.408172 364.816775 
L 458.675066 363.332454 
L 460.715271 362.131636 
L 465.022369 360.453859 
L 467.515953 359.765437 
L 472.049741 358.035375 
L 474.770014 356.789242 
L 477.036908 355.219522 
L 481.797386 351.192394 
L 484.06428 348.906946 
L 486.104484 346.638927 
L 488.144689 344.584697 
L 490.184894 342.947587 
L 492.905167 341.897814 
L 495.39875 341.528332 
L 497.665644 341.82171 
L 500.612606 342.636199 
L 503.10619 343.723732 
L 505.146395 344.784543 
L 507.413289 345.535708 
L 509.453493 345.791325 
L 511.720387 345.517698 
L 518.067691 343.54422 
L 520.561274 343.599991 
L 522.828168 344.480126 
L 524.868373 346.258987 
L 527.361957 348.830261 
L 529.85554 351.937169 
L 534.389328 358.367096 
L 536.656222 361.038874 
L 538.696427 363.055343 
L 540.963321 364.334008 
L 543.003526 364.886489 
L 545.497109 364.789471 
L 547.990693 364.151591 
L 550.257587 363.097752 
L 552.75117 361.761572 
L 554.791375 360.292937 
L 557.058269 358.855092 
L 561.592057 356.700357 
L 565.445777 356.189705 
L 567.712671 356.049115 
L 572.473149 356.230371 
L 574.966732 356.075258 
L 577.006937 355.485596 
L 579.273831 354.415491 
L 581.767415 353.011922 
L 583.807619 351.608933 
L 586.301203 350.653856 
L 588.568097 350.586466 
L 591.06168 351.697237 
L 593.555264 354.004761 
L 597.862363 360.685077 
L 600.355946 363.681023 
L 602.396151 365.425608 
L 604.436355 365.364028 
L 606.929939 363.308055 
L 608.970144 359.506334 
L 611.237038 354.600232 
L 613.730621 349.483246 
L 616.224205 345.091864 
L 618.491099 342.187707 
L 620.531303 341.193125 
L 622.798197 342.116832 
L 624.838402 344.588182 
L 627.105296 347.982078 
L 629.145501 351.593248 
L 631.412395 354.80763 
L 633.679289 357.227858 
L 636.626251 358.718569 
L 638.893145 359.376783 
L 640.93335 359.445335 
L 652.267821 358.095793 
L 657.028298 357.273172 
L 659.068503 356.68351 
L 664.05567 355.526843 
L 666.322564 355.189894 
L 668.362769 355.124828 
L 670.402973 355.34675 
L 672.669867 355.808603 
L 674.936761 356.418017 
L 674.936761 356.418017 
" style="fill:none;stroke:#1f77b4;stroke-linecap:square;stroke-width:1.5;"/>
   </g>
   <g id="line2d_39">
    <g clip-path="url(#pa5fbfaa860)">
     <use style="fill:#ff0000;stroke:#ff0000;" x="149.697403" xlink:href="#m5087b1fd74" y="365.437227"/>
     <use style="fill:#ff0000;stroke:#ff0000;" x="244.000196" xlink:href="#m5087b1fd74" y="377.37628"/>
     <use style="fill:#ff0000;stroke:#ff0000;" x="346.01043" xlink:href="#m5087b1fd74" y="373.213791"/>
     <use style="fill:#ff0000;stroke:#ff0000;" x="375.706743" xlink:href="#m5087b1fd74" y="373.444427"/>
     <use style="fill:#ff0000;stroke:#ff0000;" x="445.52708" xlink:href="#m5087b1fd74" y="371.091009"/>
     <use style="fill:#ff0000;stroke:#ff0000;" x="509.453493" xlink:href="#m5087b1fd74" y="345.791325"/>
     <use style="fill:#ff0000;stroke:#ff0000;" x="602.396151" xlink:href="#m5087b1fd74" y="365.425608"/>
    </g>
   </g>
   <g id="patch_18">
    <path d="M 40.603125 387.918125 
L 40.603125 338.968125 
" style="fill:none;stroke:#000000;stroke-linecap:square;stroke-linejoin:miter;stroke-width:0.8;"/>
   </g>
   <g id="patch_19">
    <path d="M 705.143125 387.918125 
L 705.143125 338.968125 
" style="fill:none;stroke:#000000;stroke-linecap:square;stroke-linejoin:miter;stroke-width:0.8;"/>
   </g>
   <g id="patch_20">
    <path d="M 40.603125 387.918125 
L 705.143125 387.918125 
" style="fill:none;stroke:#000000;stroke-linecap:square;stroke-linejoin:miter;stroke-width:0.8;"/>
   </g>
   <g id="patch_21">
    <path d="M 40.603125 338.968125 
L 705.143125 338.968125 
" style="fill:none;stroke:#000000;stroke-linecap:square;stroke-linejoin:miter;stroke-width:0.8;"/>
   </g>
   <g id="text_44">
    <!-- DC Components -->
    <g transform="translate(324.19625 332.968125)scale(0.12 -0.12)">
     <use xlink:href="#DejaVuSans-68"/>
     <use x="77.001953" xlink:href="#DejaVuSans-67"/>
     <use x="146.826172" xlink:href="#DejaVuSans-32"/>
     <use x="178.613281" xlink:href="#DejaVuSans-67"/>
     <use x="248.4375" xlink:href="#DejaVuSans-111"/>
     <use x="309.619141" xlink:href="#DejaVuSans-109"/>
     <use x="407.03125" xlink:href="#DejaVuSans-112"/>
     <use x="470.507812" xlink:href="#DejaVuSans-111"/>
     <use x="531.689453" xlink:href="#DejaVuSans-110"/>
     <use x="595.068359" xlink:href="#DejaVuSans-101"/>
     <use x="656.591797" xlink:href="#DejaVuSans-110"/>
     <use x="719.970703" xlink:href="#DejaVuSans-116"/>
     <use x="759.179688" xlink:href="#DejaVuSans-115"/>
    </g>
   </g>
  </g>
 </g>
 <defs>
  <clipPath id="p0ec1872ec4">
   <rect height="48.95" width="664.54" x="40.603125" y="22.318125"/>
  </clipPath>
  <clipPath id="pe7c4b9069e">
   <rect height="48.95" width="664.54" x="40.603125" y="127.868125"/>
  </clipPath>
  <clipPath id="p21e541f11c">
   <rect height="48.95" width="664.54" x="40.603125" y="233.418125"/>
  </clipPath>
  <clipPath id="pa5fbfaa860">
   <rect height="48.95" width="664.54" x="40.603125" y="338.968125"/>
  </clipPath>
 </defs>
</svg>
