<?xml version="1.0" encoding="utf-8" standalone="no"?>
<!DOCTYPE svg PUBLIC "-//W3C//DTD SVG 1.1//EN"
  "http://www.w3.org/Graphics/SVG/1.1/DTD/svg11.dtd">
<!-- Created with matplotlib (https://matplotlib.org/) -->
<svg height="424.474375pt" version="1.1" viewBox="0 0 712.433125 424.474375" width="712.433125pt" xmlns="http://www.w3.org/2000/svg" xmlns:xlink="http://www.w3.org/1999/xlink">
 <defs>
  <style type="text/css">
*{stroke-linecap:butt;stroke-linejoin:round;}
  </style>
 </defs>
 <g id="figure_1">
  <g id="patch_1">
   <path d="M 0 424.474375 
L 712.433125 424.474375 
L 712.433125 -0 
L 0 -0 
z
" style="fill:#ffffff;"/>
  </g>
  <g id="axes_1">
   <g id="patch_2">
    <path d="M 40.603125 71.268125 
L 705.233125 71.268125 
L 705.233125 22.318125 
L 40.603125 22.318125 
z
" style="fill:#ffffff;"/>
   </g>
   <g id="matplotlib.axis_1">
    <g id="xtick_1">
     <g id="line2d_1">
      <defs>
       <path d="M 0 0 
L 0 3.5 
" id="m771c080af9" style="stroke:#000000;stroke-width:0.8;"/>
      </defs>
      <g>
       <use style="stroke:#000000;stroke-width:0.8;" x="50.377096" xlink:href="#m771c080af9" y="71.268125"/>
      </g>
     </g>
     <g id="text_1">
      <!-- 7.680 -->
      <defs>
       <path d="M 8.203125 72.90625 
L 55.078125 72.90625 
L 55.078125 68.703125 
L 28.609375 0 
L 18.3125 0 
L 43.21875 64.59375 
L 8.203125 64.59375 
z
" id="DejaVuSans-55"/>
       <path d="M 10.6875 12.40625 
L 21 12.40625 
L 21 0 
L 10.6875 0 
z
" id="DejaVuSans-46"/>
       <path d="M 33.015625 40.375 
Q 26.375 40.375 22.484375 35.828125 
Q 18.609375 31.296875 18.609375 23.390625 
Q 18.609375 15.53125 22.484375 10.953125 
Q 26.375 6.390625 33.015625 6.390625 
Q 39.65625 6.390625 43.53125 10.953125 
Q 47.40625 15.53125 47.40625 23.390625 
Q 47.40625 31.296875 43.53125 35.828125 
Q 39.65625 40.375 33.015625 40.375 
z
M 52.59375 71.296875 
L 52.59375 62.3125 
Q 48.875 64.0625 45.09375 64.984375 
Q 41.3125 65.921875 37.59375 65.921875 
Q 27.828125 65.921875 22.671875 59.328125 
Q 17.53125 52.734375 16.796875 39.40625 
Q 19.671875 43.65625 24.015625 45.921875 
Q 28.375 48.1875 33.59375 48.1875 
Q 44.578125 48.1875 50.953125 41.515625 
Q 57.328125 34.859375 57.328125 23.390625 
Q 57.328125 12.15625 50.6875 5.359375 
Q 44.046875 -1.421875 33.015625 -1.421875 
Q 20.359375 -1.421875 13.671875 8.265625 
Q 6.984375 17.96875 6.984375 36.375 
Q 6.984375 53.65625 15.1875 63.9375 
Q 23.390625 74.21875 37.203125 74.21875 
Q 40.921875 74.21875 44.703125 73.484375 
Q 48.484375 72.75 52.59375 71.296875 
z
" id="DejaVuSans-54"/>
       <path d="M 31.78125 34.625 
Q 24.75 34.625 20.71875 30.859375 
Q 16.703125 27.09375 16.703125 20.515625 
Q 16.703125 13.921875 20.71875 10.15625 
Q 24.75 6.390625 31.78125 6.390625 
Q 38.8125 6.390625 42.859375 10.171875 
Q 46.921875 13.96875 46.921875 20.515625 
Q 46.921875 27.09375 42.890625 30.859375 
Q 38.875 34.625 31.78125 34.625 
z
M 21.921875 38.8125 
Q 15.578125 40.375 12.03125 44.71875 
Q 8.5 49.078125 8.5 55.328125 
Q 8.5 64.0625 14.71875 69.140625 
Q 20.953125 74.21875 31.78125 74.21875 
Q 42.671875 74.21875 48.875 69.140625 
Q 55.078125 64.0625 55.078125 55.328125 
Q 55.078125 49.078125 51.53125 44.71875 
Q 48 40.375 41.703125 38.8125 
Q 48.828125 37.15625 52.796875 32.3125 
Q 56.78125 27.484375 56.78125 20.515625 
Q 56.78125 9.90625 50.3125 4.234375 
Q 43.84375 -1.421875 31.78125 -1.421875 
Q 19.734375 -1.421875 13.25 4.234375 
Q 6.78125 9.90625 6.78125 20.515625 
Q 6.78125 27.484375 10.78125 32.3125 
Q 14.796875 37.15625 21.921875 38.8125 
z
M 18.3125 54.390625 
Q 18.3125 48.734375 21.84375 45.5625 
Q 25.390625 42.390625 31.78125 42.390625 
Q 38.140625 42.390625 41.71875 45.5625 
Q 45.3125 48.734375 45.3125 54.390625 
Q 45.3125 60.0625 41.71875 63.234375 
Q 38.140625 66.40625 31.78125 66.40625 
Q 25.390625 66.40625 21.84375 63.234375 
Q 18.3125 60.0625 18.3125 54.390625 
z
" id="DejaVuSans-56"/>
       <path d="M 31.78125 66.40625 
Q 24.171875 66.40625 20.328125 58.90625 
Q 16.5 51.421875 16.5 36.375 
Q 16.5 21.390625 20.328125 13.890625 
Q 24.171875 6.390625 31.78125 6.390625 
Q 39.453125 6.390625 43.28125 13.890625 
Q 47.125 21.390625 47.125 36.375 
Q 47.125 51.421875 43.28125 58.90625 
Q 39.453125 66.40625 31.78125 66.40625 
z
M 31.78125 74.21875 
Q 44.046875 74.21875 50.515625 64.515625 
Q 56.984375 54.828125 56.984375 36.375 
Q 56.984375 17.96875 50.515625 8.265625 
Q 44.046875 -1.421875 31.78125 -1.421875 
Q 19.53125 -1.421875 13.0625 8.265625 
Q 6.59375 17.96875 6.59375 36.375 
Q 6.59375 54.828125 13.0625 64.515625 
Q 19.53125 74.21875 31.78125 74.21875 
z
" id="DejaVuSans-48"/>
      </defs>
      <g transform="translate(36.063033 85.866562)scale(0.1 -0.1)">
       <use xlink:href="#DejaVuSans-55"/>
       <use x="63.623047" xlink:href="#DejaVuSans-46"/>
       <use x="95.410156" xlink:href="#DejaVuSans-54"/>
       <use x="159.033203" xlink:href="#DejaVuSans-56"/>
       <use x="222.65625" xlink:href="#DejaVuSans-48"/>
      </g>
     </g>
    </g>
    <g id="xtick_2">
     <g id="line2d_2">
      <g>
       <use style="stroke:#000000;stroke-width:0.8;" x="161.444943" xlink:href="#m771c080af9" y="71.268125"/>
      </g>
     </g>
     <g id="text_2">
      <!-- 7.685 -->
      <defs>
       <path d="M 10.796875 72.90625 
L 49.515625 72.90625 
L 49.515625 64.59375 
L 19.828125 64.59375 
L 19.828125 46.734375 
Q 21.96875 47.46875 24.109375 47.828125 
Q 26.265625 48.1875 28.421875 48.1875 
Q 40.625 48.1875 47.75 41.5 
Q 54.890625 34.8125 54.890625 23.390625 
Q 54.890625 11.625 47.5625 5.09375 
Q 40.234375 -1.421875 26.90625 -1.421875 
Q 22.3125 -1.421875 17.546875 -0.640625 
Q 12.796875 0.140625 7.71875 1.703125 
L 7.71875 11.625 
Q 12.109375 9.234375 16.796875 8.0625 
Q 21.484375 6.890625 26.703125 6.890625 
Q 35.15625 6.890625 40.078125 11.328125 
Q 45.015625 15.765625 45.015625 23.390625 
Q 45.015625 31 40.078125 35.4375 
Q 35.15625 39.890625 26.703125 39.890625 
Q 22.75 39.890625 18.8125 39.015625 
Q 14.890625 38.140625 10.796875 36.28125 
z
" id="DejaVuSans-53"/>
      </defs>
      <g transform="translate(147.130881 85.866562)scale(0.1 -0.1)">
       <use xlink:href="#DejaVuSans-55"/>
       <use x="63.623047" xlink:href="#DejaVuSans-46"/>
       <use x="95.410156" xlink:href="#DejaVuSans-54"/>
       <use x="159.033203" xlink:href="#DejaVuSans-56"/>
       <use x="222.65625" xlink:href="#DejaVuSans-53"/>
      </g>
     </g>
    </g>
    <g id="xtick_3">
     <g id="line2d_3">
      <g>
       <use style="stroke:#000000;stroke-width:0.8;" x="272.512791" xlink:href="#m771c080af9" y="71.268125"/>
      </g>
     </g>
     <g id="text_3">
      <!-- 7.690 -->
      <defs>
       <path d="M 10.984375 1.515625 
L 10.984375 10.5 
Q 14.703125 8.734375 18.5 7.8125 
Q 22.3125 6.890625 25.984375 6.890625 
Q 35.75 6.890625 40.890625 13.453125 
Q 46.046875 20.015625 46.78125 33.40625 
Q 43.953125 29.203125 39.59375 26.953125 
Q 35.25 24.703125 29.984375 24.703125 
Q 19.046875 24.703125 12.671875 31.3125 
Q 6.296875 37.9375 6.296875 49.421875 
Q 6.296875 60.640625 12.9375 67.421875 
Q 19.578125 74.21875 30.609375 74.21875 
Q 43.265625 74.21875 49.921875 64.515625 
Q 56.59375 54.828125 56.59375 36.375 
Q 56.59375 19.140625 48.40625 8.859375 
Q 40.234375 -1.421875 26.421875 -1.421875 
Q 22.703125 -1.421875 18.890625 -0.6875 
Q 15.09375 0.046875 10.984375 1.515625 
z
M 30.609375 32.421875 
Q 37.25 32.421875 41.125 36.953125 
Q 45.015625 41.5 45.015625 49.421875 
Q 45.015625 57.28125 41.125 61.84375 
Q 37.25 66.40625 30.609375 66.40625 
Q 23.96875 66.40625 20.09375 61.84375 
Q 16.21875 57.28125 16.21875 49.421875 
Q 16.21875 41.5 20.09375 36.953125 
Q 23.96875 32.421875 30.609375 32.421875 
z
" id="DejaVuSans-57"/>
      </defs>
      <g transform="translate(258.198728 85.866562)scale(0.1 -0.1)">
       <use xlink:href="#DejaVuSans-55"/>
       <use x="63.623047" xlink:href="#DejaVuSans-46"/>
       <use x="95.410156" xlink:href="#DejaVuSans-54"/>
       <use x="159.033203" xlink:href="#DejaVuSans-57"/>
       <use x="222.65625" xlink:href="#DejaVuSans-48"/>
      </g>
     </g>
    </g>
    <g id="xtick_4">
     <g id="line2d_4">
      <g>
       <use style="stroke:#000000;stroke-width:0.8;" x="383.580638" xlink:href="#m771c080af9" y="71.268125"/>
      </g>
     </g>
     <g id="text_4">
      <!-- 7.695 -->
      <g transform="translate(369.266576 85.866562)scale(0.1 -0.1)">
       <use xlink:href="#DejaVuSans-55"/>
       <use x="63.623047" xlink:href="#DejaVuSans-46"/>
       <use x="95.410156" xlink:href="#DejaVuSans-54"/>
       <use x="159.033203" xlink:href="#DejaVuSans-57"/>
       <use x="222.65625" xlink:href="#DejaVuSans-53"/>
      </g>
     </g>
    </g>
    <g id="xtick_5">
     <g id="line2d_5">
      <g>
       <use style="stroke:#000000;stroke-width:0.8;" x="494.648486" xlink:href="#m771c080af9" y="71.268125"/>
      </g>
     </g>
     <g id="text_5">
      <!-- 7.700 -->
      <g transform="translate(480.334423 85.866562)scale(0.1 -0.1)">
       <use xlink:href="#DejaVuSans-55"/>
       <use x="63.623047" xlink:href="#DejaVuSans-46"/>
       <use x="95.410156" xlink:href="#DejaVuSans-55"/>
       <use x="159.033203" xlink:href="#DejaVuSans-48"/>
       <use x="222.65625" xlink:href="#DejaVuSans-48"/>
      </g>
     </g>
    </g>
    <g id="xtick_6">
     <g id="line2d_6">
      <g>
       <use style="stroke:#000000;stroke-width:0.8;" x="605.716334" xlink:href="#m771c080af9" y="71.268125"/>
      </g>
     </g>
     <g id="text_6">
      <!-- 7.705 -->
      <g transform="translate(591.402271 85.866562)scale(0.1 -0.1)">
       <use xlink:href="#DejaVuSans-55"/>
       <use x="63.623047" xlink:href="#DejaVuSans-46"/>
       <use x="95.410156" xlink:href="#DejaVuSans-55"/>
       <use x="159.033203" xlink:href="#DejaVuSans-48"/>
       <use x="222.65625" xlink:href="#DejaVuSans-53"/>
      </g>
     </g>
    </g>
    <g id="text_7">
     <!-- Time (ms) -->
     <defs>
      <path d="M -0.296875 72.90625 
L 61.375 72.90625 
L 61.375 64.59375 
L 35.5 64.59375 
L 35.5 0 
L 25.59375 0 
L 25.59375 64.59375 
L -0.296875 64.59375 
z
" id="DejaVuSans-84"/>
      <path d="M 9.421875 54.6875 
L 18.40625 54.6875 
L 18.40625 0 
L 9.421875 0 
z
M 9.421875 75.984375 
L 18.40625 75.984375 
L 18.40625 64.59375 
L 9.421875 64.59375 
z
" id="DejaVuSans-105"/>
      <path d="M 52 44.1875 
Q 55.375 50.25 60.0625 53.125 
Q 64.75 56 71.09375 56 
Q 79.640625 56 84.28125 50.015625 
Q 88.921875 44.046875 88.921875 33.015625 
L 88.921875 0 
L 79.890625 0 
L 79.890625 32.71875 
Q 79.890625 40.578125 77.09375 44.375 
Q 74.3125 48.1875 68.609375 48.1875 
Q 61.625 48.1875 57.5625 43.546875 
Q 53.515625 38.921875 53.515625 30.90625 
L 53.515625 0 
L 44.484375 0 
L 44.484375 32.71875 
Q 44.484375 40.625 41.703125 44.40625 
Q 38.921875 48.1875 33.109375 48.1875 
Q 26.21875 48.1875 22.15625 43.53125 
Q 18.109375 38.875 18.109375 30.90625 
L 18.109375 0 
L 9.078125 0 
L 9.078125 54.6875 
L 18.109375 54.6875 
L 18.109375 46.1875 
Q 21.1875 51.21875 25.484375 53.609375 
Q 29.78125 56 35.6875 56 
Q 41.65625 56 45.828125 52.96875 
Q 50 49.953125 52 44.1875 
z
" id="DejaVuSans-109"/>
      <path d="M 56.203125 29.59375 
L 56.203125 25.203125 
L 14.890625 25.203125 
Q 15.484375 15.921875 20.484375 11.0625 
Q 25.484375 6.203125 34.421875 6.203125 
Q 39.59375 6.203125 44.453125 7.46875 
Q 49.3125 8.734375 54.109375 11.28125 
L 54.109375 2.78125 
Q 49.265625 0.734375 44.1875 -0.34375 
Q 39.109375 -1.421875 33.890625 -1.421875 
Q 20.796875 -1.421875 13.15625 6.1875 
Q 5.515625 13.8125 5.515625 26.8125 
Q 5.515625 40.234375 12.765625 48.109375 
Q 20.015625 56 32.328125 56 
Q 43.359375 56 49.78125 48.890625 
Q 56.203125 41.796875 56.203125 29.59375 
z
M 47.21875 32.234375 
Q 47.125 39.59375 43.09375 43.984375 
Q 39.0625 48.390625 32.421875 48.390625 
Q 24.90625 48.390625 20.390625 44.140625 
Q 15.875 39.890625 15.1875 32.171875 
z
" id="DejaVuSans-101"/>
      <path id="DejaVuSans-32"/>
      <path d="M 31 75.875 
Q 24.46875 64.65625 21.28125 53.65625 
Q 18.109375 42.671875 18.109375 31.390625 
Q 18.109375 20.125 21.3125 9.0625 
Q 24.515625 -2 31 -13.1875 
L 23.1875 -13.1875 
Q 15.875 -1.703125 12.234375 9.375 
Q 8.59375 20.453125 8.59375 31.390625 
Q 8.59375 42.28125 12.203125 53.3125 
Q 15.828125 64.359375 23.1875 75.875 
z
" id="DejaVuSans-40"/>
      <path d="M 44.28125 53.078125 
L 44.28125 44.578125 
Q 40.484375 46.53125 36.375 47.5 
Q 32.28125 48.484375 27.875 48.484375 
Q 21.1875 48.484375 17.84375 46.4375 
Q 14.5 44.390625 14.5 40.28125 
Q 14.5 37.15625 16.890625 35.375 
Q 19.28125 33.59375 26.515625 31.984375 
L 29.59375 31.296875 
Q 39.15625 29.25 43.1875 25.515625 
Q 47.21875 21.78125 47.21875 15.09375 
Q 47.21875 7.46875 41.1875 3.015625 
Q 35.15625 -1.421875 24.609375 -1.421875 
Q 20.21875 -1.421875 15.453125 -0.5625 
Q 10.6875 0.296875 5.421875 2 
L 5.421875 11.28125 
Q 10.40625 8.6875 15.234375 7.390625 
Q 20.0625 6.109375 24.8125 6.109375 
Q 31.15625 6.109375 34.5625 8.28125 
Q 37.984375 10.453125 37.984375 14.40625 
Q 37.984375 18.0625 35.515625 20.015625 
Q 33.0625 21.96875 24.703125 23.78125 
L 21.578125 24.515625 
Q 13.234375 26.265625 9.515625 29.90625 
Q 5.8125 33.546875 5.8125 39.890625 
Q 5.8125 47.609375 11.28125 51.796875 
Q 16.75 56 26.8125 56 
Q 31.78125 56 36.171875 55.265625 
Q 40.578125 54.546875 44.28125 53.078125 
z
" id="DejaVuSans-115"/>
      <path d="M 8.015625 75.875 
L 15.828125 75.875 
Q 23.140625 64.359375 26.78125 53.3125 
Q 30.421875 42.28125 30.421875 31.390625 
Q 30.421875 20.453125 26.78125 9.375 
Q 23.140625 -1.703125 15.828125 -13.1875 
L 8.015625 -13.1875 
Q 14.5 -2 17.703125 9.0625 
Q 20.90625 20.125 20.90625 31.390625 
Q 20.90625 42.671875 17.703125 53.65625 
Q 14.5 64.65625 8.015625 75.875 
z
" id="DejaVuSans-41"/>
     </defs>
     <g transform="translate(347.565 99.544688)scale(0.1 -0.1)">
      <use xlink:href="#DejaVuSans-84"/>
      <use x="61.037109" xlink:href="#DejaVuSans-105"/>
      <use x="88.820312" xlink:href="#DejaVuSans-109"/>
      <use x="186.232422" xlink:href="#DejaVuSans-101"/>
      <use x="247.755859" xlink:href="#DejaVuSans-32"/>
      <use x="279.542969" xlink:href="#DejaVuSans-40"/>
      <use x="318.556641" xlink:href="#DejaVuSans-109"/>
      <use x="415.96875" xlink:href="#DejaVuSans-115"/>
      <use x="468.068359" xlink:href="#DejaVuSans-41"/>
     </g>
    </g>
    <g id="text_8">
     <!-- 1e5 -->
     <defs>
      <path d="M 12.40625 8.296875 
L 28.515625 8.296875 
L 28.515625 63.921875 
L 10.984375 60.40625 
L 10.984375 69.390625 
L 28.421875 72.90625 
L 38.28125 72.90625 
L 38.28125 8.296875 
L 54.390625 8.296875 
L 54.390625 0 
L 12.40625 0 
z
" id="DejaVuSans-49"/>
     </defs>
     <g transform="translate(686.355 98.544688)scale(0.1 -0.1)">
      <use xlink:href="#DejaVuSans-49"/>
      <use x="63.623047" xlink:href="#DejaVuSans-101"/>
      <use x="125.146484" xlink:href="#DejaVuSans-53"/>
     </g>
    </g>
   </g>
   <g id="matplotlib.axis_2">
    <g id="ytick_1">
     <g id="line2d_7">
      <defs>
       <path d="M 0 0 
L -3.5 0 
" id="m33e4ecfcdc" style="stroke:#000000;stroke-width:0.8;"/>
      </defs>
      <g>
       <use style="stroke:#000000;stroke-width:0.8;" x="40.603125" xlink:href="#m33e4ecfcdc" y="51.450102"/>
      </g>
     </g>
     <g id="text_9">
      <!-- 25 -->
      <defs>
       <path d="M 19.1875 8.296875 
L 53.609375 8.296875 
L 53.609375 0 
L 7.328125 0 
L 7.328125 8.296875 
Q 12.9375 14.109375 22.625 23.890625 
Q 32.328125 33.6875 34.8125 36.53125 
Q 39.546875 41.84375 41.421875 45.53125 
Q 43.3125 49.21875 43.3125 52.78125 
Q 43.3125 58.59375 39.234375 62.25 
Q 35.15625 65.921875 28.609375 65.921875 
Q 23.96875 65.921875 18.8125 64.3125 
Q 13.671875 62.703125 7.8125 59.421875 
L 7.8125 69.390625 
Q 13.765625 71.78125 18.9375 73 
Q 24.125 74.21875 28.421875 74.21875 
Q 39.75 74.21875 46.484375 68.546875 
Q 53.21875 62.890625 53.21875 53.421875 
Q 53.21875 48.921875 51.53125 44.890625 
Q 49.859375 40.875 45.40625 35.40625 
Q 44.1875 33.984375 37.640625 27.21875 
Q 31.109375 20.453125 19.1875 8.296875 
z
" id="DejaVuSans-50"/>
      </defs>
      <g transform="translate(20.878125 55.24932)scale(0.1 -0.1)">
       <use xlink:href="#DejaVuSans-50"/>
       <use x="63.623047" xlink:href="#DejaVuSans-53"/>
      </g>
     </g>
    </g>
    <g id="ytick_2">
     <g id="line2d_8">
      <g>
       <use style="stroke:#000000;stroke-width:0.8;" x="40.603125" xlink:href="#m33e4ecfcdc" y="25.578009"/>
      </g>
     </g>
     <g id="text_10">
      <!-- 50 -->
      <g transform="translate(20.878125 29.377227)scale(0.1 -0.1)">
       <use xlink:href="#DejaVuSans-53"/>
       <use x="63.623047" xlink:href="#DejaVuSans-48"/>
      </g>
     </g>
    </g>
    <g id="text_11">
     <!-- ADC Value -->
     <defs>
      <path d="M 34.1875 63.1875 
L 20.796875 26.90625 
L 47.609375 26.90625 
z
M 28.609375 72.90625 
L 39.796875 72.90625 
L 67.578125 0 
L 57.328125 0 
L 50.6875 18.703125 
L 17.828125 18.703125 
L 11.1875 0 
L 0.78125 0 
z
" id="DejaVuSans-65"/>
      <path d="M 19.671875 64.796875 
L 19.671875 8.109375 
L 31.59375 8.109375 
Q 46.6875 8.109375 53.6875 14.9375 
Q 60.6875 21.78125 60.6875 36.53125 
Q 60.6875 51.171875 53.6875 57.984375 
Q 46.6875 64.796875 31.59375 64.796875 
z
M 9.8125 72.90625 
L 30.078125 72.90625 
Q 51.265625 72.90625 61.171875 64.09375 
Q 71.09375 55.28125 71.09375 36.53125 
Q 71.09375 17.671875 61.125 8.828125 
Q 51.171875 0 30.078125 0 
L 9.8125 0 
z
" id="DejaVuSans-68"/>
      <path d="M 64.40625 67.28125 
L 64.40625 56.890625 
Q 59.421875 61.53125 53.78125 63.8125 
Q 48.140625 66.109375 41.796875 66.109375 
Q 29.296875 66.109375 22.65625 58.46875 
Q 16.015625 50.828125 16.015625 36.375 
Q 16.015625 21.96875 22.65625 14.328125 
Q 29.296875 6.6875 41.796875 6.6875 
Q 48.140625 6.6875 53.78125 8.984375 
Q 59.421875 11.28125 64.40625 15.921875 
L 64.40625 5.609375 
Q 59.234375 2.09375 53.4375 0.328125 
Q 47.65625 -1.421875 41.21875 -1.421875 
Q 24.65625 -1.421875 15.125 8.703125 
Q 5.609375 18.84375 5.609375 36.375 
Q 5.609375 53.953125 15.125 64.078125 
Q 24.65625 74.21875 41.21875 74.21875 
Q 47.75 74.21875 53.53125 72.484375 
Q 59.328125 70.75 64.40625 67.28125 
z
" id="DejaVuSans-67"/>
      <path d="M 28.609375 0 
L 0.78125 72.90625 
L 11.078125 72.90625 
L 34.1875 11.53125 
L 57.328125 72.90625 
L 67.578125 72.90625 
L 39.796875 0 
z
" id="DejaVuSans-86"/>
      <path d="M 34.28125 27.484375 
Q 23.390625 27.484375 19.1875 25 
Q 14.984375 22.515625 14.984375 16.5 
Q 14.984375 11.71875 18.140625 8.90625 
Q 21.296875 6.109375 26.703125 6.109375 
Q 34.1875 6.109375 38.703125 11.40625 
Q 43.21875 16.703125 43.21875 25.484375 
L 43.21875 27.484375 
z
M 52.203125 31.203125 
L 52.203125 0 
L 43.21875 0 
L 43.21875 8.296875 
Q 40.140625 3.328125 35.546875 0.953125 
Q 30.953125 -1.421875 24.3125 -1.421875 
Q 15.921875 -1.421875 10.953125 3.296875 
Q 6 8.015625 6 15.921875 
Q 6 25.140625 12.171875 29.828125 
Q 18.359375 34.515625 30.609375 34.515625 
L 43.21875 34.515625 
L 43.21875 35.40625 
Q 43.21875 41.609375 39.140625 45 
Q 35.0625 48.390625 27.6875 48.390625 
Q 23 48.390625 18.546875 47.265625 
Q 14.109375 46.140625 10.015625 43.890625 
L 10.015625 52.203125 
Q 14.9375 54.109375 19.578125 55.046875 
Q 24.21875 56 28.609375 56 
Q 40.484375 56 46.34375 49.84375 
Q 52.203125 43.703125 52.203125 31.203125 
z
" id="DejaVuSans-97"/>
      <path d="M 9.421875 75.984375 
L 18.40625 75.984375 
L 18.40625 0 
L 9.421875 0 
z
" id="DejaVuSans-108"/>
      <path d="M 8.5 21.578125 
L 8.5 54.6875 
L 17.484375 54.6875 
L 17.484375 21.921875 
Q 17.484375 14.15625 20.5 10.265625 
Q 23.53125 6.390625 29.59375 6.390625 
Q 36.859375 6.390625 41.078125 11.03125 
Q 45.3125 15.671875 45.3125 23.6875 
L 45.3125 54.6875 
L 54.296875 54.6875 
L 54.296875 0 
L 45.3125 0 
L 45.3125 8.40625 
Q 42.046875 3.421875 37.71875 1 
Q 33.40625 -1.421875 27.6875 -1.421875 
Q 18.265625 -1.421875 13.375 4.4375 
Q 8.5 10.296875 8.5 21.578125 
z
M 31.109375 56 
z
" id="DejaVuSans-117"/>
     </defs>
     <g transform="translate(14.798438 73.257188)rotate(-90)scale(0.1 -0.1)">
      <use xlink:href="#DejaVuSans-65"/>
      <use x="68.408203" xlink:href="#DejaVuSans-68"/>
      <use x="145.410156" xlink:href="#DejaVuSans-67"/>
      <use x="215.234375" xlink:href="#DejaVuSans-32"/>
      <use x="247.021484" xlink:href="#DejaVuSans-86"/>
      <use x="315.320312" xlink:href="#DejaVuSans-97"/>
      <use x="376.599609" xlink:href="#DejaVuSans-108"/>
      <use x="404.382812" xlink:href="#DejaVuSans-117"/>
      <use x="467.761719" xlink:href="#DejaVuSans-101"/>
     </g>
    </g>
   </g>
   <g id="line2d_9">
    <path clip-path="url(#pd4deb2dba4)" d="M 70.81358 32.822195 
L 77.255515 29.717544 
L 80.143279 27.647776 
L 82.586771 25.578009 
L 95.248506 25.578009 
L 97.469863 24.543125 
L 100.801898 26.612892 
L 102.80112 27.647776 
L 105.022477 27.647776 
L 109.243055 29.717544 
L 117.906347 29.717544 
L 120.127704 30.752427 
L 122.349061 32.822195 
L 124.792553 37.996613 
L 131.900896 57.659404 
L 133.900117 60.764055 
L 136.121474 64.90359 
L 138.564967 64.90359 
L 141.008459 65.938474 
L 143.00768 64.90359 
L 147.67253 64.90359 
L 150.560294 63.868706 
L 152.559515 62.833823 
L 155.003008 63.868706 
L 157.002229 62.833823 
L 163.444164 62.833823 
L 168.109014 60.764055 
L 171.218914 58.694288 
L 173.218135 57.659404 
L 178.549392 53.519869 
L 180.548613 52.484985 
L 183.214241 50.415218 
L 185.213463 50.415218 
L 187.212684 49.380334 
L 189.211905 49.380334 
L 193.876755 47.310567 
L 196.320247 45.240799 
L 199.652283 42.136148 
L 202.317911 41.101265 
L 206.316354 41.101265 
L 208.537711 37.996613 
L 210.536932 36.96173 
L 212.980424 37.996613 
L 215.201781 42.136148 
L 217.201003 46.275683 
L 219.644495 54.554753 
L 224.531481 64.90359 
L 226.530702 66.973358 
L 228.752059 68.008241 
L 230.973416 68.008241 
L 232.972637 69.043125 
L 234.971858 66.973358 
L 237.415351 65.938474 
L 239.414572 63.868706 
L 241.635929 60.764055 
L 244.079422 56.62452 
L 246.078643 53.519869 
L 248.3 51.450102 
L 250.743493 49.380334 
L 255.186207 47.310567 
L 257.185428 47.310567 
L 259.851056 45.240799 
L 261.850277 44.205916 
L 264.29377 44.205916 
L 266.292991 43.171032 
L 268.736484 42.136148 
L 272.734926 42.136148 
L 274.734148 40.066381 
L 276.955505 40.066381 
L 280.731811 37.996613 
L 283.841711 36.96173 
L 286.063068 36.96173 
L 288.506561 35.926846 
L 294.948496 35.926846 
L 297.169853 37.996613 
L 299.169074 39.031497 
L 301.612567 37.996613 
L 303.611788 37.996613 
L 305.611009 36.96173 
L 308.276638 35.926846 
L 310.275859 37.996613 
L 312.497216 42.136148 
L 319.383422 59.729172 
L 321.826915 62.833823 
L 323.826136 66.973358 
L 326.491765 65.938474 
L 328.490986 66.973358 
L 330.490207 65.938474 
L 332.711564 65.938474 
L 335.155057 63.868706 
L 337.376414 62.833823 
L 339.375635 60.764055 
L 344.706892 56.62452 
L 346.928249 54.554753 
L 349.371741 52.484985 
L 352.03737 50.415218 
L 354.258727 48.345451 
L 356.924355 46.275683 
L 363.144154 42.136148 
L 368.03114 40.066381 
L 375.583753 40.066381 
L 380.470739 42.136148 
L 385.135588 42.136148 
L 389.134031 44.205916 
L 391.133252 44.205916 
L 393.576745 46.275683 
L 399.574408 43.171032 
L 402.240037 42.136148 
L 409.570515 42.136148 
L 412.014007 44.205916 
L 414.013229 49.380334 
L 416.456721 56.62452 
L 419.344485 62.833823 
L 421.565842 66.973358 
L 423.787199 68.008241 
L 426.674963 68.008241 
L 429.562727 66.973358 
L 431.561949 64.90359 
L 435.782527 62.833823 
L 438.226019 60.764055 
L 440.447376 59.729172 
L 442.890869 57.659404 
L 444.89009 56.62452 
L 447.555719 54.554753 
L 455.774739 54.554753 
L 458.662503 52.484985 
L 461.105996 52.484985 
L 463.105217 50.415218 
L 465.54871 50.415218 
L 468.214338 48.345451 
L 474.212002 42.136148 
L 476.87763 40.066381 
L 478.876852 39.031497 
L 481.320344 36.96173 
L 483.319566 35.926846 
L 485.763058 33.857078 
L 487.984415 33.857078 
L 490.650043 31.787311 
L 493.093536 31.787311 
L 495.092757 29.717544 
L 497.980521 29.717544 
L 502.867507 27.647776 
L 504.866728 26.612892 
L 507.088085 27.647776 
L 509.531578 27.647776 
L 512.419342 33.857078 
L 514.862834 40.066381 
L 518.861277 48.345451 
L 520.860498 50.415218 
L 523.303991 52.484985 
L 527.96884 52.484985 
L 530.634469 51.450102 
L 532.63369 48.345451 
L 535.077182 48.345451 
L 537.742811 46.275683 
L 539.742032 44.205916 
L 541.741253 41.101265 
L 544.406882 42.136148 
L 546.406103 43.171032 
L 549.071731 44.205916 
L 551.070953 44.205916 
L 553.514445 45.240799 
L 557.512888 43.171032 
L 560.178516 41.101265 
L 562.622009 42.136148 
L 564.62123 40.066381 
L 566.842587 39.031497 
L 569.063944 39.031497 
L 571.063165 44.205916 
L 573.284522 48.345451 
L 575.728015 52.484985 
L 577.727236 53.519869 
L 580.170729 53.519869 
L 582.392086 52.484985 
L 584.391307 52.484985 
L 586.834799 49.380334 
L 589.944699 47.310567 
L 592.388192 45.240799 
L 594.387413 44.205916 
L 596.60877 44.205916 
L 598.607991 41.101265 
L 600.829348 39.031497 
L 602.82857 37.996613 
L 605.272062 40.066381 
L 609.714776 49.380334 
L 611.713997 54.554753 
L 614.15749 58.694288 
L 616.378847 62.833823 
L 620.821561 62.833823 
L 624.153596 60.764055 
L 626.152818 59.729172 
L 628.818446 59.729172 
L 632.816888 55.589637 
L 635.260381 52.484985 
L 637.259602 49.380334 
L 639.925231 48.345451 
L 641.924452 46.275683 
L 644.145809 44.205916 
L 646.14503 42.136148 
L 650.80988 40.066381 
L 652.809101 40.066381 
L 655.252594 39.031497 
L 657.473951 39.031497 
L 659.473172 37.996613 
L 663.69375 37.996613 
L 665.915107 35.926846 
L 670.357821 35.926846 
L 673.023449 34.891962 
L 675.02267 33.857078 
L 675.02267 33.857078 
" style="fill:none;stroke:#1f77b4;stroke-linecap:square;stroke-width:1.5;"/>
   </g>
   <g id="patch_3">
    <path d="M 40.603125 71.268125 
L 40.603125 22.318125 
" style="fill:none;stroke:#000000;stroke-linecap:square;stroke-linejoin:miter;stroke-width:0.8;"/>
   </g>
   <g id="patch_4">
    <path d="M 705.233125 71.268125 
L 705.233125 22.318125 
" style="fill:none;stroke:#000000;stroke-linecap:square;stroke-linejoin:miter;stroke-width:0.8;"/>
   </g>
   <g id="patch_5">
    <path d="M 40.603125 71.268125 
L 705.233125 71.268125 
" style="fill:none;stroke:#000000;stroke-linecap:square;stroke-linejoin:miter;stroke-width:0.8;"/>
   </g>
   <g id="patch_6">
    <path d="M 40.603125 22.318125 
L 705.233125 22.318125 
" style="fill:none;stroke:#000000;stroke-linecap:square;stroke-linejoin:miter;stroke-width:0.8;"/>
   </g>
   <g id="text_12">
    <!-- IR LED Input Signal -->
    <defs>
     <path d="M 9.8125 72.90625 
L 19.671875 72.90625 
L 19.671875 0 
L 9.8125 0 
z
" id="DejaVuSans-73"/>
     <path d="M 44.390625 34.1875 
Q 47.5625 33.109375 50.5625 29.59375 
Q 53.5625 26.078125 56.59375 19.921875 
L 66.609375 0 
L 56 0 
L 46.6875 18.703125 
Q 43.0625 26.03125 39.671875 28.421875 
Q 36.28125 30.8125 30.421875 30.8125 
L 19.671875 30.8125 
L 19.671875 0 
L 9.8125 0 
L 9.8125 72.90625 
L 32.078125 72.90625 
Q 44.578125 72.90625 50.734375 67.671875 
Q 56.890625 62.453125 56.890625 51.90625 
Q 56.890625 45.015625 53.6875 40.46875 
Q 50.484375 35.9375 44.390625 34.1875 
z
M 19.671875 64.796875 
L 19.671875 38.921875 
L 32.078125 38.921875 
Q 39.203125 38.921875 42.84375 42.21875 
Q 46.484375 45.515625 46.484375 51.90625 
Q 46.484375 58.296875 42.84375 61.546875 
Q 39.203125 64.796875 32.078125 64.796875 
z
" id="DejaVuSans-82"/>
     <path d="M 9.8125 72.90625 
L 19.671875 72.90625 
L 19.671875 8.296875 
L 55.171875 8.296875 
L 55.171875 0 
L 9.8125 0 
z
" id="DejaVuSans-76"/>
     <path d="M 9.8125 72.90625 
L 55.90625 72.90625 
L 55.90625 64.59375 
L 19.671875 64.59375 
L 19.671875 43.015625 
L 54.390625 43.015625 
L 54.390625 34.71875 
L 19.671875 34.71875 
L 19.671875 8.296875 
L 56.78125 8.296875 
L 56.78125 0 
L 9.8125 0 
z
" id="DejaVuSans-69"/>
     <path d="M 54.890625 33.015625 
L 54.890625 0 
L 45.90625 0 
L 45.90625 32.71875 
Q 45.90625 40.484375 42.875 44.328125 
Q 39.84375 48.1875 33.796875 48.1875 
Q 26.515625 48.1875 22.3125 43.546875 
Q 18.109375 38.921875 18.109375 30.90625 
L 18.109375 0 
L 9.078125 0 
L 9.078125 54.6875 
L 18.109375 54.6875 
L 18.109375 46.1875 
Q 21.34375 51.125 25.703125 53.5625 
Q 30.078125 56 35.796875 56 
Q 45.21875 56 50.046875 50.171875 
Q 54.890625 44.34375 54.890625 33.015625 
z
" id="DejaVuSans-110"/>
     <path d="M 18.109375 8.203125 
L 18.109375 -20.796875 
L 9.078125 -20.796875 
L 9.078125 54.6875 
L 18.109375 54.6875 
L 18.109375 46.390625 
Q 20.953125 51.265625 25.265625 53.625 
Q 29.59375 56 35.59375 56 
Q 45.5625 56 51.78125 48.09375 
Q 58.015625 40.1875 58.015625 27.296875 
Q 58.015625 14.40625 51.78125 6.484375 
Q 45.5625 -1.421875 35.59375 -1.421875 
Q 29.59375 -1.421875 25.265625 0.953125 
Q 20.953125 3.328125 18.109375 8.203125 
z
M 48.6875 27.296875 
Q 48.6875 37.203125 44.609375 42.84375 
Q 40.53125 48.484375 33.40625 48.484375 
Q 26.265625 48.484375 22.1875 42.84375 
Q 18.109375 37.203125 18.109375 27.296875 
Q 18.109375 17.390625 22.1875 11.75 
Q 26.265625 6.109375 33.40625 6.109375 
Q 40.53125 6.109375 44.609375 11.75 
Q 48.6875 17.390625 48.6875 27.296875 
z
" id="DejaVuSans-112"/>
     <path d="M 18.3125 70.21875 
L 18.3125 54.6875 
L 36.8125 54.6875 
L 36.8125 47.703125 
L 18.3125 47.703125 
L 18.3125 18.015625 
Q 18.3125 11.328125 20.140625 9.421875 
Q 21.96875 7.515625 27.59375 7.515625 
L 36.8125 7.515625 
L 36.8125 0 
L 27.59375 0 
Q 17.1875 0 13.234375 3.875 
Q 9.28125 7.765625 9.28125 18.015625 
L 9.28125 47.703125 
L 2.6875 47.703125 
L 2.6875 54.6875 
L 9.28125 54.6875 
L 9.28125 70.21875 
z
" id="DejaVuSans-116"/>
     <path d="M 53.515625 70.515625 
L 53.515625 60.890625 
Q 47.90625 63.578125 42.921875 64.890625 
Q 37.9375 66.21875 33.296875 66.21875 
Q 25.25 66.21875 20.875 63.09375 
Q 16.5 59.96875 16.5 54.203125 
Q 16.5 49.359375 19.40625 46.890625 
Q 22.3125 44.4375 30.421875 42.921875 
L 36.375 41.703125 
Q 47.40625 39.59375 52.65625 34.296875 
Q 57.90625 29 57.90625 20.125 
Q 57.90625 9.515625 50.796875 4.046875 
Q 43.703125 -1.421875 29.984375 -1.421875 
Q 24.8125 -1.421875 18.96875 -0.25 
Q 13.140625 0.921875 6.890625 3.21875 
L 6.890625 13.375 
Q 12.890625 10.015625 18.65625 8.296875 
Q 24.421875 6.59375 29.984375 6.59375 
Q 38.421875 6.59375 43.015625 9.90625 
Q 47.609375 13.234375 47.609375 19.390625 
Q 47.609375 24.75 44.3125 27.78125 
Q 41.015625 30.8125 33.5 32.328125 
L 27.484375 33.5 
Q 16.453125 35.6875 11.515625 40.375 
Q 6.59375 45.0625 6.59375 53.421875 
Q 6.59375 63.09375 13.40625 68.65625 
Q 20.21875 74.21875 32.171875 74.21875 
Q 37.3125 74.21875 42.625 73.28125 
Q 47.953125 72.359375 53.515625 70.515625 
z
" id="DejaVuSans-83"/>
     <path d="M 45.40625 27.984375 
Q 45.40625 37.75 41.375 43.109375 
Q 37.359375 48.484375 30.078125 48.484375 
Q 22.859375 48.484375 18.828125 43.109375 
Q 14.796875 37.75 14.796875 27.984375 
Q 14.796875 18.265625 18.828125 12.890625 
Q 22.859375 7.515625 30.078125 7.515625 
Q 37.359375 7.515625 41.375 12.890625 
Q 45.40625 18.265625 45.40625 27.984375 
z
M 54.390625 6.78125 
Q 54.390625 -7.171875 48.1875 -13.984375 
Q 42 -20.796875 29.203125 -20.796875 
Q 24.46875 -20.796875 20.265625 -20.09375 
Q 16.0625 -19.390625 12.109375 -17.921875 
L 12.109375 -9.1875 
Q 16.0625 -11.328125 19.921875 -12.34375 
Q 23.78125 -13.375 27.78125 -13.375 
Q 36.625 -13.375 41.015625 -8.765625 
Q 45.40625 -4.15625 45.40625 5.171875 
L 45.40625 9.625 
Q 42.625 4.78125 38.28125 2.390625 
Q 33.9375 0 27.875 0 
Q 17.828125 0 11.671875 7.65625 
Q 5.515625 15.328125 5.515625 27.984375 
Q 5.515625 40.671875 11.671875 48.328125 
Q 17.828125 56 27.875 56 
Q 33.9375 56 38.28125 53.609375 
Q 42.625 51.21875 45.40625 46.390625 
L 45.40625 54.6875 
L 54.390625 54.6875 
z
" id="DejaVuSans-103"/>
    </defs>
    <g transform="translate(315.536562 16.318125)scale(0.12 -0.12)">
     <use xlink:href="#DejaVuSans-73"/>
     <use x="29.492188" xlink:href="#DejaVuSans-82"/>
     <use x="98.974609" xlink:href="#DejaVuSans-32"/>
     <use x="130.761719" xlink:href="#DejaVuSans-76"/>
     <use x="186.474609" xlink:href="#DejaVuSans-69"/>
     <use x="249.658203" xlink:href="#DejaVuSans-68"/>
     <use x="326.660156" xlink:href="#DejaVuSans-32"/>
     <use x="358.447266" xlink:href="#DejaVuSans-73"/>
     <use x="387.939453" xlink:href="#DejaVuSans-110"/>
     <use x="451.318359" xlink:href="#DejaVuSans-112"/>
     <use x="514.794922" xlink:href="#DejaVuSans-117"/>
     <use x="578.173828" xlink:href="#DejaVuSans-116"/>
     <use x="617.382812" xlink:href="#DejaVuSans-32"/>
     <use x="649.169922" xlink:href="#DejaVuSans-83"/>
     <use x="712.646484" xlink:href="#DejaVuSans-105"/>
     <use x="740.429688" xlink:href="#DejaVuSans-103"/>
     <use x="803.90625" xlink:href="#DejaVuSans-110"/>
     <use x="867.285156" xlink:href="#DejaVuSans-97"/>
     <use x="928.564453" xlink:href="#DejaVuSans-108"/>
    </g>
   </g>
  </g>
  <g id="axes_2">
   <g id="patch_7">
    <path d="M 40.603125 176.818125 
L 705.233125 176.818125 
L 705.233125 127.868125 
L 40.603125 127.868125 
z
" style="fill:#ffffff;"/>
   </g>
   <g id="matplotlib.axis_3">
    <g id="xtick_7">
     <g id="line2d_10">
      <g>
       <use style="stroke:#000000;stroke-width:0.8;" x="50.377096" xlink:href="#m771c080af9" y="176.818125"/>
      </g>
     </g>
     <g id="text_13">
      <!-- 7.680 -->
      <g transform="translate(36.063033 191.416562)scale(0.1 -0.1)">
       <use xlink:href="#DejaVuSans-55"/>
       <use x="63.623047" xlink:href="#DejaVuSans-46"/>
       <use x="95.410156" xlink:href="#DejaVuSans-54"/>
       <use x="159.033203" xlink:href="#DejaVuSans-56"/>
       <use x="222.65625" xlink:href="#DejaVuSans-48"/>
      </g>
     </g>
    </g>
    <g id="xtick_8">
     <g id="line2d_11">
      <g>
       <use style="stroke:#000000;stroke-width:0.8;" x="161.444943" xlink:href="#m771c080af9" y="176.818125"/>
      </g>
     </g>
     <g id="text_14">
      <!-- 7.685 -->
      <g transform="translate(147.130881 191.416562)scale(0.1 -0.1)">
       <use xlink:href="#DejaVuSans-55"/>
       <use x="63.623047" xlink:href="#DejaVuSans-46"/>
       <use x="95.410156" xlink:href="#DejaVuSans-54"/>
       <use x="159.033203" xlink:href="#DejaVuSans-56"/>
       <use x="222.65625" xlink:href="#DejaVuSans-53"/>
      </g>
     </g>
    </g>
    <g id="xtick_9">
     <g id="line2d_12">
      <g>
       <use style="stroke:#000000;stroke-width:0.8;" x="272.512791" xlink:href="#m771c080af9" y="176.818125"/>
      </g>
     </g>
     <g id="text_15">
      <!-- 7.690 -->
      <g transform="translate(258.198728 191.416562)scale(0.1 -0.1)">
       <use xlink:href="#DejaVuSans-55"/>
       <use x="63.623047" xlink:href="#DejaVuSans-46"/>
       <use x="95.410156" xlink:href="#DejaVuSans-54"/>
       <use x="159.033203" xlink:href="#DejaVuSans-57"/>
       <use x="222.65625" xlink:href="#DejaVuSans-48"/>
      </g>
     </g>
    </g>
    <g id="xtick_10">
     <g id="line2d_13">
      <g>
       <use style="stroke:#000000;stroke-width:0.8;" x="383.580638" xlink:href="#m771c080af9" y="176.818125"/>
      </g>
     </g>
     <g id="text_16">
      <!-- 7.695 -->
      <g transform="translate(369.266576 191.416562)scale(0.1 -0.1)">
       <use xlink:href="#DejaVuSans-55"/>
       <use x="63.623047" xlink:href="#DejaVuSans-46"/>
       <use x="95.410156" xlink:href="#DejaVuSans-54"/>
       <use x="159.033203" xlink:href="#DejaVuSans-57"/>
       <use x="222.65625" xlink:href="#DejaVuSans-53"/>
      </g>
     </g>
    </g>
    <g id="xtick_11">
     <g id="line2d_14">
      <g>
       <use style="stroke:#000000;stroke-width:0.8;" x="494.648486" xlink:href="#m771c080af9" y="176.818125"/>
      </g>
     </g>
     <g id="text_17">
      <!-- 7.700 -->
      <g transform="translate(480.334423 191.416562)scale(0.1 -0.1)">
       <use xlink:href="#DejaVuSans-55"/>
       <use x="63.623047" xlink:href="#DejaVuSans-46"/>
       <use x="95.410156" xlink:href="#DejaVuSans-55"/>
       <use x="159.033203" xlink:href="#DejaVuSans-48"/>
       <use x="222.65625" xlink:href="#DejaVuSans-48"/>
      </g>
     </g>
    </g>
    <g id="xtick_12">
     <g id="line2d_15">
      <g>
       <use style="stroke:#000000;stroke-width:0.8;" x="605.716334" xlink:href="#m771c080af9" y="176.818125"/>
      </g>
     </g>
     <g id="text_18">
      <!-- 7.705 -->
      <g transform="translate(591.402271 191.416562)scale(0.1 -0.1)">
       <use xlink:href="#DejaVuSans-55"/>
       <use x="63.623047" xlink:href="#DejaVuSans-46"/>
       <use x="95.410156" xlink:href="#DejaVuSans-55"/>
       <use x="159.033203" xlink:href="#DejaVuSans-48"/>
       <use x="222.65625" xlink:href="#DejaVuSans-53"/>
      </g>
     </g>
    </g>
    <g id="text_19">
     <!-- Time (ms) -->
     <g transform="translate(347.565 205.094687)scale(0.1 -0.1)">
      <use xlink:href="#DejaVuSans-84"/>
      <use x="61.037109" xlink:href="#DejaVuSans-105"/>
      <use x="88.820312" xlink:href="#DejaVuSans-109"/>
      <use x="186.232422" xlink:href="#DejaVuSans-101"/>
      <use x="247.755859" xlink:href="#DejaVuSans-32"/>
      <use x="279.542969" xlink:href="#DejaVuSans-40"/>
      <use x="318.556641" xlink:href="#DejaVuSans-109"/>
      <use x="415.96875" xlink:href="#DejaVuSans-115"/>
      <use x="468.068359" xlink:href="#DejaVuSans-41"/>
     </g>
    </g>
    <g id="text_20">
     <!-- 1e5 -->
     <g transform="translate(686.355 204.094687)scale(0.1 -0.1)">
      <use xlink:href="#DejaVuSans-49"/>
      <use x="63.623047" xlink:href="#DejaVuSans-101"/>
      <use x="125.146484" xlink:href="#DejaVuSans-53"/>
     </g>
    </g>
   </g>
   <g id="matplotlib.axis_4">
    <g id="ytick_3">
     <g id="line2d_16">
      <g>
       <use style="stroke:#000000;stroke-width:0.8;" x="40.603125" xlink:href="#m33e4ecfcdc" y="156.54426"/>
      </g>
     </g>
     <g id="text_21">
      <!-- 25 -->
      <g transform="translate(20.878125 160.343479)scale(0.1 -0.1)">
       <use xlink:href="#DejaVuSans-50"/>
       <use x="63.623047" xlink:href="#DejaVuSans-53"/>
      </g>
     </g>
    </g>
    <g id="ytick_4">
     <g id="line2d_17">
      <g>
       <use style="stroke:#000000;stroke-width:0.8;" x="40.603125" xlink:href="#m33e4ecfcdc" y="131.097949"/>
      </g>
     </g>
     <g id="text_22">
      <!-- 50 -->
      <g transform="translate(20.878125 134.897168)scale(0.1 -0.1)">
       <use xlink:href="#DejaVuSans-53"/>
       <use x="63.623047" xlink:href="#DejaVuSans-48"/>
      </g>
     </g>
    </g>
    <g id="text_23">
     <!-- ADC Value -->
     <g transform="translate(14.798438 178.807187)rotate(-90)scale(0.1 -0.1)">
      <use xlink:href="#DejaVuSans-65"/>
      <use x="68.408203" xlink:href="#DejaVuSans-68"/>
      <use x="145.410156" xlink:href="#DejaVuSans-67"/>
      <use x="215.234375" xlink:href="#DejaVuSans-32"/>
      <use x="247.021484" xlink:href="#DejaVuSans-86"/>
      <use x="315.320312" xlink:href="#DejaVuSans-97"/>
      <use x="376.599609" xlink:href="#DejaVuSans-108"/>
      <use x="404.382812" xlink:href="#DejaVuSans-117"/>
      <use x="467.761719" xlink:href="#DejaVuSans-101"/>
     </g>
    </g>
   </g>
   <g id="line2d_18">
    <path clip-path="url(#p8c14799df5)" d="M 70.81358 138.221695 
L 75.256293 136.001657 
L 77.255515 134.813518 
L 80.143279 133.588532 
L 84.808128 131.329103 
L 87.029485 130.524186 
L 89.917249 130.093125 
L 92.805013 130.109207 
L 95.248506 130.573755 
L 97.469863 131.401065 
L 100.801898 132.424923 
L 102.80112 133.429544 
L 105.022477 134.20301 
L 107.243834 134.598954 
L 109.243055 134.593152 
L 113.685769 134.039237 
L 115.68499 134.143058 
L 117.906347 135.019022 
L 120.127704 136.979508 
L 122.349061 140.167625 
L 124.792553 144.502964 
L 127.01391 149.677319 
L 129.235267 155.205581 
L 131.900896 160.520297 
L 133.900117 165.086689 
L 136.121474 168.509625 
L 138.564967 170.606604 
L 141.008459 171.429232 
L 143.00768 171.231362 
L 145.451173 170.39428 
L 147.67253 169.329505 
L 152.559515 167.783387 
L 155.003008 167.578697 
L 157.002229 167.681602 
L 159.001451 167.897081 
L 161.222807 167.9894 
L 163.444164 167.747457 
L 165.665521 167.036283 
L 171.218914 164.194235 
L 173.218135 162.302862 
L 175.883763 160.358967 
L 178.549392 158.566733 
L 180.548613 157.081483 
L 185.213463 155.217489 
L 191.655398 153.499354 
L 193.876755 152.450966 
L 196.320247 150.948413 
L 199.652283 149.034138 
L 202.317911 146.898887 
L 204.317132 144.865116 
L 206.316354 143.335385 
L 208.537711 142.715819 
L 210.536932 143.328566 
L 212.980424 145.333226 
L 215.201781 148.677889 
L 217.201003 153.090789 
L 222.087988 163.20641 
L 226.530702 171.387399 
L 228.752059 173.693751 
L 230.973416 174.593125 
L 232.972637 174.165118 
L 234.971858 172.64007 
L 237.415351 170.335346 
L 241.635929 164.690744 
L 244.079422 161.874957 
L 246.078643 159.284726 
L 248.3 156.997001 
L 250.743493 155.041605 
L 252.96485 153.421896 
L 255.186207 152.128104 
L 257.185428 151.138344 
L 261.850277 149.878446 
L 266.292991 148.982125 
L 268.736484 148.388921 
L 270.735705 147.584512 
L 272.734926 146.555463 
L 276.955505 144.148955 
L 283.841711 142.29341 
L 286.063068 141.901842 
L 288.506561 141.890035 
L 294.948496 142.696479 
L 297.169853 142.658005 
L 303.611788 141.698577 
L 305.611009 141.999658 
L 308.276638 143.187084 
L 310.275859 145.480102 
L 312.497216 148.895201 
L 314.496437 153.21629 
L 317.384201 158.02605 
L 319.383422 162.789294 
L 321.826915 166.966866 
L 323.826136 170.12801 
L 326.491765 172.032106 
L 328.490986 172.658086 
L 330.490207 172.179186 
L 332.711564 170.893537 
L 335.155057 169.134281 
L 337.376414 167.186213 
L 339.375635 165.232547 
L 344.706892 161.485527 
L 349.371741 157.62298 
L 352.03737 155.54595 
L 354.258727 153.420573 
L 356.924355 151.350261 
L 360.034255 149.459396 
L 365.587647 146.617858 
L 368.03114 145.760215 
L 370.252497 145.268491 
L 372.695989 145.107365 
L 375.583753 145.242841 
L 378.027246 145.651916 
L 380.470739 146.315454 
L 385.135588 148.220365 
L 387.134809 149.251246 
L 389.134031 150.109397 
L 391.133252 150.60163 
L 393.576745 150.578525 
L 395.575966 149.995703 
L 397.575187 148.960649 
L 399.574408 147.742483 
L 402.240037 146.736234 
L 404.239258 146.382937 
L 406.682751 147.064695 
L 409.570515 148.999938 
L 412.014007 152.171261 
L 414.013229 156.306897 
L 416.456721 160.924385 
L 419.344485 165.427669 
L 421.565842 169.232096 
L 423.787199 171.885332 
L 426.674963 173.15378 
L 429.562727 173.053216 
L 431.561949 171.821004 
L 433.783305 169.840874 
L 435.782527 167.544191 
L 440.447376 163.425248 
L 442.890869 161.998524 
L 444.89009 161.02617 
L 447.555719 160.402023 
L 455.774739 159.084005 
L 458.662503 158.405709 
L 461.105996 157.488216 
L 468.214338 153.201429 
L 472.212781 149.376747 
L 474.212002 147.395497 
L 476.87763 145.507584 
L 478.876852 143.806956 
L 483.319566 141.131429 
L 493.093536 136.878435 
L 495.092757 135.546982 
L 500.424014 133.023319 
L 502.867507 132.364157 
L 504.866728 132.523655 
L 507.088085 133.744976 
L 509.531578 136.123188 
L 512.419342 139.555488 
L 514.862834 143.734485 
L 516.862055 148.18932 
L 518.861277 152.368011 
L 520.860498 155.74321 
L 523.303991 157.916732 
L 525.525348 158.699257 
L 527.96884 158.14524 
L 530.634469 156.536219 
L 532.63369 154.313942 
L 535.077182 151.981838 
L 537.742811 149.99499 
L 539.742032 148.666286 
L 541.741253 148.108503 
L 544.406882 148.226879 
L 549.071731 149.367281 
L 551.070953 149.71732 
L 553.514445 149.590903 
L 555.513666 148.937136 
L 557.512888 147.889664 
L 560.178516 146.732468 
L 562.622009 145.825256 
L 564.62123 145.509518 
L 566.842587 146.017834 
L 569.063944 147.410765 
L 571.063165 149.555482 
L 573.284522 152.149071 
L 577.727236 157.010335 
L 580.170729 158.459451 
L 582.392086 158.873615 
L 584.391307 158.167735 
L 586.834799 156.436978 
L 589.944699 153.938863 
L 592.388192 151.05315 
L 594.387413 148.227082 
L 596.60877 145.911672 
L 598.607991 144.498994 
L 600.829348 144.264277 
L 602.82857 145.323353 
L 605.272062 147.609857 
L 609.714776 154.753247 
L 611.713997 158.758903 
L 614.15749 162.424292 
L 616.378847 165.344103 
L 618.600204 167.24138 
L 620.821561 168.000698 
L 624.153596 167.66725 
L 626.152818 166.415088 
L 628.818446 164.496131 
L 632.816888 159.71711 
L 635.260381 157.284035 
L 637.259602 154.998549 
L 639.925231 152.916736 
L 641.924452 151.055694 
L 646.14503 147.989719 
L 650.80988 145.781081 
L 652.809101 144.984917 
L 657.473951 143.878817 
L 668.3586 141.555161 
L 670.357821 140.874829 
L 673.023449 140.124061 
L 675.02267 139.328304 
L 675.02267 139.328304 
" style="fill:none;stroke:#1f77b4;stroke-linecap:square;stroke-width:1.5;"/>
   </g>
   <g id="patch_8">
    <path d="M 40.603125 176.818125 
L 40.603125 127.868125 
" style="fill:none;stroke:#000000;stroke-linecap:square;stroke-linejoin:miter;stroke-width:0.8;"/>
   </g>
   <g id="patch_9">
    <path d="M 705.233125 176.818125 
L 705.233125 127.868125 
" style="fill:none;stroke:#000000;stroke-linecap:square;stroke-linejoin:miter;stroke-width:0.8;"/>
   </g>
   <g id="patch_10">
    <path d="M 40.603125 176.818125 
L 705.233125 176.818125 
" style="fill:none;stroke:#000000;stroke-linecap:square;stroke-linejoin:miter;stroke-width:0.8;"/>
   </g>
   <g id="patch_11">
    <path d="M 40.603125 127.868125 
L 705.233125 127.868125 
" style="fill:none;stroke:#000000;stroke-linecap:square;stroke-linejoin:miter;stroke-width:0.8;"/>
   </g>
   <g id="text_24">
    <!-- Pre-processed Signal -->
    <defs>
     <path d="M 19.671875 64.796875 
L 19.671875 37.40625 
L 32.078125 37.40625 
Q 38.96875 37.40625 42.71875 40.96875 
Q 46.484375 44.53125 46.484375 51.125 
Q 46.484375 57.671875 42.71875 61.234375 
Q 38.96875 64.796875 32.078125 64.796875 
z
M 9.8125 72.90625 
L 32.078125 72.90625 
Q 44.34375 72.90625 50.609375 67.359375 
Q 56.890625 61.8125 56.890625 51.125 
Q 56.890625 40.328125 50.609375 34.8125 
Q 44.34375 29.296875 32.078125 29.296875 
L 19.671875 29.296875 
L 19.671875 0 
L 9.8125 0 
z
" id="DejaVuSans-80"/>
     <path d="M 41.109375 46.296875 
Q 39.59375 47.171875 37.8125 47.578125 
Q 36.03125 48 33.890625 48 
Q 26.265625 48 22.1875 43.046875 
Q 18.109375 38.09375 18.109375 28.8125 
L 18.109375 0 
L 9.078125 0 
L 9.078125 54.6875 
L 18.109375 54.6875 
L 18.109375 46.1875 
Q 20.953125 51.171875 25.484375 53.578125 
Q 30.03125 56 36.53125 56 
Q 37.453125 56 38.578125 55.875 
Q 39.703125 55.765625 41.0625 55.515625 
z
" id="DejaVuSans-114"/>
     <path d="M 4.890625 31.390625 
L 31.203125 31.390625 
L 31.203125 23.390625 
L 4.890625 23.390625 
z
" id="DejaVuSans-45"/>
     <path d="M 30.609375 48.390625 
Q 23.390625 48.390625 19.1875 42.75 
Q 14.984375 37.109375 14.984375 27.296875 
Q 14.984375 17.484375 19.15625 11.84375 
Q 23.34375 6.203125 30.609375 6.203125 
Q 37.796875 6.203125 41.984375 11.859375 
Q 46.1875 17.53125 46.1875 27.296875 
Q 46.1875 37.015625 41.984375 42.703125 
Q 37.796875 48.390625 30.609375 48.390625 
z
M 30.609375 56 
Q 42.328125 56 49.015625 48.375 
Q 55.71875 40.765625 55.71875 27.296875 
Q 55.71875 13.875 49.015625 6.21875 
Q 42.328125 -1.421875 30.609375 -1.421875 
Q 18.84375 -1.421875 12.171875 6.21875 
Q 5.515625 13.875 5.515625 27.296875 
Q 5.515625 40.765625 12.171875 48.375 
Q 18.84375 56 30.609375 56 
z
" id="DejaVuSans-111"/>
     <path d="M 48.78125 52.59375 
L 48.78125 44.1875 
Q 44.96875 46.296875 41.140625 47.34375 
Q 37.3125 48.390625 33.40625 48.390625 
Q 24.65625 48.390625 19.8125 42.84375 
Q 14.984375 37.3125 14.984375 27.296875 
Q 14.984375 17.28125 19.8125 11.734375 
Q 24.65625 6.203125 33.40625 6.203125 
Q 37.3125 6.203125 41.140625 7.25 
Q 44.96875 8.296875 48.78125 10.40625 
L 48.78125 2.09375 
Q 45.015625 0.34375 40.984375 -0.53125 
Q 36.96875 -1.421875 32.421875 -1.421875 
Q 20.0625 -1.421875 12.78125 6.34375 
Q 5.515625 14.109375 5.515625 27.296875 
Q 5.515625 40.671875 12.859375 48.328125 
Q 20.21875 56 33.015625 56 
Q 37.15625 56 41.109375 55.140625 
Q 45.0625 54.296875 48.78125 52.59375 
z
" id="DejaVuSans-99"/>
     <path d="M 45.40625 46.390625 
L 45.40625 75.984375 
L 54.390625 75.984375 
L 54.390625 0 
L 45.40625 0 
L 45.40625 8.203125 
Q 42.578125 3.328125 38.25 0.953125 
Q 33.9375 -1.421875 27.875 -1.421875 
Q 17.96875 -1.421875 11.734375 6.484375 
Q 5.515625 14.40625 5.515625 27.296875 
Q 5.515625 40.1875 11.734375 48.09375 
Q 17.96875 56 27.875 56 
Q 33.9375 56 38.25 53.625 
Q 42.578125 51.265625 45.40625 46.390625 
z
M 14.796875 27.296875 
Q 14.796875 17.390625 18.875 11.75 
Q 22.953125 6.109375 30.078125 6.109375 
Q 37.203125 6.109375 41.296875 11.75 
Q 45.40625 17.390625 45.40625 27.296875 
Q 45.40625 37.203125 41.296875 42.84375 
Q 37.203125 48.484375 30.078125 48.484375 
Q 22.953125 48.484375 18.875 42.84375 
Q 14.796875 37.203125 14.796875 27.296875 
z
" id="DejaVuSans-100"/>
    </defs>
    <g transform="translate(309.95375 121.868125)scale(0.12 -0.12)">
     <use xlink:href="#DejaVuSans-80"/>
     <use x="60.287109" xlink:href="#DejaVuSans-114"/>
     <use x="101.369141" xlink:href="#DejaVuSans-101"/>
     <use x="162.892578" xlink:href="#DejaVuSans-45"/>
     <use x="198.976562" xlink:href="#DejaVuSans-112"/>
     <use x="262.453125" xlink:href="#DejaVuSans-114"/>
     <use x="303.535156" xlink:href="#DejaVuSans-111"/>
     <use x="364.716797" xlink:href="#DejaVuSans-99"/>
     <use x="419.697266" xlink:href="#DejaVuSans-101"/>
     <use x="481.220703" xlink:href="#DejaVuSans-115"/>
     <use x="533.320312" xlink:href="#DejaVuSans-115"/>
     <use x="585.419922" xlink:href="#DejaVuSans-101"/>
     <use x="646.943359" xlink:href="#DejaVuSans-100"/>
     <use x="710.419922" xlink:href="#DejaVuSans-32"/>
     <use x="742.207031" xlink:href="#DejaVuSans-83"/>
     <use x="805.683594" xlink:href="#DejaVuSans-105"/>
     <use x="833.466797" xlink:href="#DejaVuSans-103"/>
     <use x="896.943359" xlink:href="#DejaVuSans-110"/>
     <use x="960.322266" xlink:href="#DejaVuSans-97"/>
     <use x="1021.601562" xlink:href="#DejaVuSans-108"/>
    </g>
   </g>
  </g>
  <g id="axes_3">
   <g id="patch_12">
    <path d="M 40.603125 282.368125 
L 705.233125 282.368125 
L 705.233125 233.418125 
L 40.603125 233.418125 
z
" style="fill:#ffffff;"/>
   </g>
   <g id="matplotlib.axis_5">
    <g id="xtick_13">
     <g id="line2d_19">
      <g>
       <use style="stroke:#000000;stroke-width:0.8;" x="50.377096" xlink:href="#m771c080af9" y="282.368125"/>
      </g>
     </g>
     <g id="text_25">
      <!-- 7.680 -->
      <g transform="translate(36.063033 296.966563)scale(0.1 -0.1)">
       <use xlink:href="#DejaVuSans-55"/>
       <use x="63.623047" xlink:href="#DejaVuSans-46"/>
       <use x="95.410156" xlink:href="#DejaVuSans-54"/>
       <use x="159.033203" xlink:href="#DejaVuSans-56"/>
       <use x="222.65625" xlink:href="#DejaVuSans-48"/>
      </g>
     </g>
    </g>
    <g id="xtick_14">
     <g id="line2d_20">
      <g>
       <use style="stroke:#000000;stroke-width:0.8;" x="161.444943" xlink:href="#m771c080af9" y="282.368125"/>
      </g>
     </g>
     <g id="text_26">
      <!-- 7.685 -->
      <g transform="translate(147.130881 296.966563)scale(0.1 -0.1)">
       <use xlink:href="#DejaVuSans-55"/>
       <use x="63.623047" xlink:href="#DejaVuSans-46"/>
       <use x="95.410156" xlink:href="#DejaVuSans-54"/>
       <use x="159.033203" xlink:href="#DejaVuSans-56"/>
       <use x="222.65625" xlink:href="#DejaVuSans-53"/>
      </g>
     </g>
    </g>
    <g id="xtick_15">
     <g id="line2d_21">
      <g>
       <use style="stroke:#000000;stroke-width:0.8;" x="272.512791" xlink:href="#m771c080af9" y="282.368125"/>
      </g>
     </g>
     <g id="text_27">
      <!-- 7.690 -->
      <g transform="translate(258.198728 296.966563)scale(0.1 -0.1)">
       <use xlink:href="#DejaVuSans-55"/>
       <use x="63.623047" xlink:href="#DejaVuSans-46"/>
       <use x="95.410156" xlink:href="#DejaVuSans-54"/>
       <use x="159.033203" xlink:href="#DejaVuSans-57"/>
       <use x="222.65625" xlink:href="#DejaVuSans-48"/>
      </g>
     </g>
    </g>
    <g id="xtick_16">
     <g id="line2d_22">
      <g>
       <use style="stroke:#000000;stroke-width:0.8;" x="383.580638" xlink:href="#m771c080af9" y="282.368125"/>
      </g>
     </g>
     <g id="text_28">
      <!-- 7.695 -->
      <g transform="translate(369.266576 296.966563)scale(0.1 -0.1)">
       <use xlink:href="#DejaVuSans-55"/>
       <use x="63.623047" xlink:href="#DejaVuSans-46"/>
       <use x="95.410156" xlink:href="#DejaVuSans-54"/>
       <use x="159.033203" xlink:href="#DejaVuSans-57"/>
       <use x="222.65625" xlink:href="#DejaVuSans-53"/>
      </g>
     </g>
    </g>
    <g id="xtick_17">
     <g id="line2d_23">
      <g>
       <use style="stroke:#000000;stroke-width:0.8;" x="494.648486" xlink:href="#m771c080af9" y="282.368125"/>
      </g>
     </g>
     <g id="text_29">
      <!-- 7.700 -->
      <g transform="translate(480.334423 296.966563)scale(0.1 -0.1)">
       <use xlink:href="#DejaVuSans-55"/>
       <use x="63.623047" xlink:href="#DejaVuSans-46"/>
       <use x="95.410156" xlink:href="#DejaVuSans-55"/>
       <use x="159.033203" xlink:href="#DejaVuSans-48"/>
       <use x="222.65625" xlink:href="#DejaVuSans-48"/>
      </g>
     </g>
    </g>
    <g id="xtick_18">
     <g id="line2d_24">
      <g>
       <use style="stroke:#000000;stroke-width:0.8;" x="605.716334" xlink:href="#m771c080af9" y="282.368125"/>
      </g>
     </g>
     <g id="text_30">
      <!-- 7.705 -->
      <g transform="translate(591.402271 296.966563)scale(0.1 -0.1)">
       <use xlink:href="#DejaVuSans-55"/>
       <use x="63.623047" xlink:href="#DejaVuSans-46"/>
       <use x="95.410156" xlink:href="#DejaVuSans-55"/>
       <use x="159.033203" xlink:href="#DejaVuSans-48"/>
       <use x="222.65625" xlink:href="#DejaVuSans-53"/>
      </g>
     </g>
    </g>
    <g id="text_31">
     <!-- 1e5 -->
     <g transform="translate(686.355 309.644687)scale(0.1 -0.1)">
      <use xlink:href="#DejaVuSans-49"/>
      <use x="63.623047" xlink:href="#DejaVuSans-101"/>
      <use x="125.146484" xlink:href="#DejaVuSans-53"/>
     </g>
    </g>
   </g>
   <g id="matplotlib.axis_6">
    <g id="ytick_5">
     <g id="line2d_25">
      <g>
       <use style="stroke:#000000;stroke-width:0.8;" x="40.603125" xlink:href="#m33e4ecfcdc" y="262.09426"/>
      </g>
     </g>
     <g id="text_32">
      <!-- 25 -->
      <g transform="translate(20.878125 265.893479)scale(0.1 -0.1)">
       <use xlink:href="#DejaVuSans-50"/>
       <use x="63.623047" xlink:href="#DejaVuSans-53"/>
      </g>
     </g>
    </g>
    <g id="ytick_6">
     <g id="line2d_26">
      <g>
       <use style="stroke:#000000;stroke-width:0.8;" x="40.603125" xlink:href="#m33e4ecfcdc" y="236.647949"/>
      </g>
     </g>
     <g id="text_33">
      <!-- 50 -->
      <g transform="translate(20.878125 240.447168)scale(0.1 -0.1)">
       <use xlink:href="#DejaVuSans-53"/>
       <use x="63.623047" xlink:href="#DejaVuSans-48"/>
      </g>
     </g>
    </g>
   </g>
   <g id="LineCollection_1">
    <path clip-path="url(#p8d5a20580b)" d="M 208.537711 276.979232 
L 208.537711 248.265819 
" style="fill:none;stroke:#000000;stroke-width:1.5;"/>
    <path clip-path="url(#p8d5a20580b)" d="M 303.611788 278.70378 
L 303.611788 247.248577 
" style="fill:none;stroke:#000000;stroke-width:1.5;"/>
    <path clip-path="url(#p8d5a20580b)" d="M 372.695989 278.208086 
L 372.695989 250.657365 
" style="fill:none;stroke:#000000;stroke-width:1.5;"/>
    <path clip-path="url(#p8d5a20580b)" d="M 502.867507 273.550698 
L 502.867507 237.914157 
" style="fill:none;stroke:#000000;stroke-width:1.5;"/>
    <path clip-path="url(#p8d5a20580b)" d="M 564.62123 264.249257 
L 564.62123 251.059518 
" style="fill:none;stroke:#000000;stroke-width:1.5;"/>
    <path clip-path="url(#p8d5a20580b)" d="M 600.829348 264.423615 
L 600.829348 249.814277 
" style="fill:none;stroke:#000000;stroke-width:1.5;"/>
   </g>
   <g id="line2d_27">
    <path clip-path="url(#p8d5a20580b)" d="M 70.81358 243.771695 
L 75.256293 241.551657 
L 77.255515 240.363518 
L 80.143279 239.138532 
L 84.808128 236.879103 
L 87.029485 236.074186 
L 89.917249 235.643125 
L 92.805013 235.659207 
L 95.248506 236.123755 
L 97.469863 236.951065 
L 100.801898 237.974923 
L 102.80112 238.979544 
L 105.022477 239.75301 
L 107.243834 240.148954 
L 109.243055 240.143152 
L 113.685769 239.589237 
L 115.68499 239.693058 
L 117.906347 240.569022 
L 120.127704 242.529508 
L 122.349061 245.717625 
L 124.792553 250.052964 
L 127.01391 255.227319 
L 129.235267 260.755581 
L 131.900896 266.070297 
L 133.900117 270.636689 
L 136.121474 274.059625 
L 138.564967 276.156604 
L 141.008459 276.979232 
L 143.00768 276.781362 
L 145.451173 275.94428 
L 147.67253 274.879505 
L 152.559515 273.333387 
L 155.003008 273.128697 
L 157.002229 273.231602 
L 159.001451 273.447081 
L 161.222807 273.5394 
L 163.444164 273.297457 
L 165.665521 272.586283 
L 171.218914 269.744235 
L 173.218135 267.852862 
L 175.883763 265.908967 
L 178.549392 264.116733 
L 180.548613 262.631483 
L 185.213463 260.767489 
L 191.655398 259.049354 
L 193.876755 258.000966 
L 196.320247 256.498413 
L 199.652283 254.584138 
L 202.317911 252.448887 
L 204.317132 250.415116 
L 206.316354 248.885385 
L 208.537711 248.265819 
L 210.536932 248.878566 
L 212.980424 250.883226 
L 215.201781 254.227889 
L 217.201003 258.640789 
L 222.087988 268.75641 
L 226.530702 276.937399 
L 228.752059 279.243751 
L 230.973416 280.143125 
L 232.972637 279.715118 
L 234.971858 278.19007 
L 237.415351 275.885346 
L 241.635929 270.240744 
L 244.079422 267.424957 
L 246.078643 264.834726 
L 248.3 262.547001 
L 250.743493 260.591605 
L 252.96485 258.971896 
L 255.186207 257.678104 
L 257.185428 256.688344 
L 261.850277 255.428446 
L 266.292991 254.532125 
L 268.736484 253.938921 
L 270.735705 253.134512 
L 272.734926 252.105463 
L 276.955505 249.698955 
L 283.841711 247.84341 
L 286.063068 247.451842 
L 288.506561 247.440035 
L 294.948496 248.246479 
L 297.169853 248.208005 
L 303.611788 247.248577 
L 305.611009 247.549658 
L 308.276638 248.737084 
L 310.275859 251.030102 
L 312.497216 254.445201 
L 314.496437 258.76629 
L 317.384201 263.57605 
L 319.383422 268.339294 
L 321.826915 272.516866 
L 323.826136 275.67801 
L 326.491765 277.582106 
L 328.490986 278.208086 
L 330.490207 277.729186 
L 332.711564 276.443537 
L 335.155057 274.684281 
L 337.376414 272.736213 
L 339.375635 270.782547 
L 344.706892 267.035527 
L 349.371741 263.17298 
L 352.03737 261.09595 
L 354.258727 258.970573 
L 356.924355 256.900261 
L 360.034255 255.009396 
L 365.587647 252.167858 
L 368.03114 251.310215 
L 370.252497 250.818491 
L 372.695989 250.657365 
L 375.583753 250.792841 
L 378.027246 251.201916 
L 380.470739 251.865454 
L 385.135588 253.770365 
L 387.134809 254.801246 
L 389.134031 255.659397 
L 391.133252 256.15163 
L 393.576745 256.128525 
L 395.575966 255.545703 
L 397.575187 254.510649 
L 399.574408 253.292483 
L 402.240037 252.286234 
L 404.239258 251.932937 
L 406.682751 252.614695 
L 409.570515 254.549938 
L 412.014007 257.721261 
L 414.013229 261.856897 
L 416.456721 266.474385 
L 419.344485 270.977669 
L 421.565842 274.782096 
L 423.787199 277.435332 
L 426.674963 278.70378 
L 429.562727 278.603216 
L 431.561949 277.371004 
L 433.783305 275.390874 
L 435.782527 273.094191 
L 440.447376 268.975248 
L 442.890869 267.548524 
L 444.89009 266.57617 
L 447.555719 265.952023 
L 455.774739 264.634005 
L 458.662503 263.955709 
L 461.105996 263.038216 
L 468.214338 258.751429 
L 472.212781 254.926747 
L 474.212002 252.945497 
L 476.87763 251.057584 
L 478.876852 249.356956 
L 483.319566 246.681429 
L 493.093536 242.428435 
L 495.092757 241.096982 
L 500.424014 238.573319 
L 502.867507 237.914157 
L 504.866728 238.073655 
L 507.088085 239.294976 
L 509.531578 241.673188 
L 512.419342 245.105488 
L 514.862834 249.284485 
L 516.862055 253.73932 
L 518.861277 257.918011 
L 520.860498 261.29321 
L 523.303991 263.466732 
L 525.525348 264.249257 
L 527.96884 263.69524 
L 530.634469 262.086219 
L 532.63369 259.863942 
L 535.077182 257.531838 
L 537.742811 255.54499 
L 539.742032 254.216286 
L 541.741253 253.658503 
L 544.406882 253.776879 
L 549.071731 254.917281 
L 551.070953 255.26732 
L 553.514445 255.140903 
L 555.513666 254.487136 
L 557.512888 253.439664 
L 560.178516 252.282468 
L 562.622009 251.375256 
L 564.62123 251.059518 
L 566.842587 251.567834 
L 569.063944 252.960765 
L 571.063165 255.105482 
L 573.284522 257.699071 
L 577.727236 262.560335 
L 580.170729 264.009451 
L 582.392086 264.423615 
L 584.391307 263.717735 
L 586.834799 261.986978 
L 589.944699 259.488863 
L 592.388192 256.60315 
L 594.387413 253.777082 
L 596.60877 251.461672 
L 598.607991 250.048994 
L 600.829348 249.814277 
L 602.82857 250.873353 
L 605.272062 253.159857 
L 609.714776 260.303247 
L 611.713997 264.308903 
L 614.15749 267.974292 
L 616.378847 270.894103 
L 618.600204 272.79138 
L 620.821561 273.550698 
L 624.153596 273.21725 
L 626.152818 271.965088 
L 628.818446 270.046131 
L 632.816888 265.26711 
L 635.260381 262.834035 
L 637.259602 260.548549 
L 639.925231 258.466736 
L 641.924452 256.605694 
L 646.14503 253.539719 
L 650.80988 251.331081 
L 652.809101 250.534917 
L 657.473951 249.428817 
L 668.3586 247.105161 
L 670.357821 246.424829 
L 673.023449 245.674061 
L 675.02267 244.878304 
L 675.02267 244.878304 
" style="fill:none;stroke:#1f77b4;stroke-linecap:square;stroke-width:1.5;"/>
   </g>
   <g id="line2d_28">
    <defs>
     <path d="M -3 3 
L 3 -3 
M -3 -3 
L 3 3 
" id="me80be77e45" style="stroke:#008000;"/>
    </defs>
    <g clip-path="url(#p8d5a20580b)">
     <use style="fill:#008000;stroke:#008000;" x="208.537711" xlink:href="#me80be77e45" y="248.265819"/>
     <use style="fill:#008000;stroke:#008000;" x="303.611788" xlink:href="#me80be77e45" y="247.248577"/>
     <use style="fill:#008000;stroke:#008000;" x="372.695989" xlink:href="#me80be77e45" y="250.657365"/>
     <use style="fill:#008000;stroke:#008000;" x="502.867507" xlink:href="#me80be77e45" y="237.914157"/>
     <use style="fill:#008000;stroke:#008000;" x="564.62123" xlink:href="#me80be77e45" y="251.059518"/>
     <use style="fill:#008000;stroke:#008000;" x="600.829348" xlink:href="#me80be77e45" y="249.814277"/>
    </g>
   </g>
   <g id="line2d_29">
    <defs>
     <path d="M -3 3 
L 3 -3 
M -3 -3 
L 3 3 
" id="mcf2d5576ac" style="stroke:#ff0000;"/>
    </defs>
    <g clip-path="url(#p8d5a20580b)">
     <use style="fill:#ff0000;stroke:#ff0000;" x="208.537711" xlink:href="#mcf2d5576ac" y="276.979232"/>
     <use style="fill:#ff0000;stroke:#ff0000;" x="303.611788" xlink:href="#mcf2d5576ac" y="278.70378"/>
     <use style="fill:#ff0000;stroke:#ff0000;" x="372.695989" xlink:href="#mcf2d5576ac" y="278.208086"/>
     <use style="fill:#ff0000;stroke:#ff0000;" x="502.867507" xlink:href="#mcf2d5576ac" y="273.550698"/>
     <use style="fill:#ff0000;stroke:#ff0000;" x="564.62123" xlink:href="#mcf2d5576ac" y="264.249257"/>
     <use style="fill:#ff0000;stroke:#ff0000;" x="600.829348" xlink:href="#mcf2d5576ac" y="264.423615"/>
    </g>
   </g>
   <g id="patch_13">
    <path d="M 40.603125 282.368125 
L 40.603125 233.418125 
" style="fill:none;stroke:#000000;stroke-linecap:square;stroke-linejoin:miter;stroke-width:0.8;"/>
   </g>
   <g id="patch_14">
    <path d="M 705.233125 282.368125 
L 705.233125 233.418125 
" style="fill:none;stroke:#000000;stroke-linecap:square;stroke-linejoin:miter;stroke-width:0.8;"/>
   </g>
   <g id="patch_15">
    <path d="M 40.603125 282.368125 
L 705.233125 282.368125 
" style="fill:none;stroke:#000000;stroke-linecap:square;stroke-linejoin:miter;stroke-width:0.8;"/>
   </g>
   <g id="patch_16">
    <path d="M 40.603125 233.418125 
L 705.233125 233.418125 
" style="fill:none;stroke:#000000;stroke-linecap:square;stroke-linejoin:miter;stroke-width:0.8;"/>
   </g>
   <g id="text_34">
    <!-- AC Components -->
    <g transform="translate(324.757812 227.418125)scale(0.12 -0.12)">
     <use xlink:href="#DejaVuSans-65"/>
     <use x="68.392578" xlink:href="#DejaVuSans-67"/>
     <use x="138.216797" xlink:href="#DejaVuSans-32"/>
     <use x="170.003906" xlink:href="#DejaVuSans-67"/>
     <use x="239.828125" xlink:href="#DejaVuSans-111"/>
     <use x="301.009766" xlink:href="#DejaVuSans-109"/>
     <use x="398.421875" xlink:href="#DejaVuSans-112"/>
     <use x="461.898438" xlink:href="#DejaVuSans-111"/>
     <use x="523.080078" xlink:href="#DejaVuSans-110"/>
     <use x="586.458984" xlink:href="#DejaVuSans-101"/>
     <use x="647.982422" xlink:href="#DejaVuSans-110"/>
     <use x="711.361328" xlink:href="#DejaVuSans-116"/>
     <use x="750.570312" xlink:href="#DejaVuSans-115"/>
    </g>
   </g>
  </g>
  <g id="axes_4">
   <g id="patch_17">
    <path d="M 40.603125 387.918125 
L 705.233125 387.918125 
L 705.233125 338.968125 
L 40.603125 338.968125 
z
" style="fill:#ffffff;"/>
   </g>
   <g id="matplotlib.axis_7">
    <g id="xtick_19">
     <g id="line2d_30">
      <g>
       <use style="stroke:#000000;stroke-width:0.8;" x="50.377096" xlink:href="#m771c080af9" y="387.918125"/>
      </g>
     </g>
     <g id="text_35">
      <!-- 7.680 -->
      <g transform="translate(36.063033 402.516563)scale(0.1 -0.1)">
       <use xlink:href="#DejaVuSans-55"/>
       <use x="63.623047" xlink:href="#DejaVuSans-46"/>
       <use x="95.410156" xlink:href="#DejaVuSans-54"/>
       <use x="159.033203" xlink:href="#DejaVuSans-56"/>
       <use x="222.65625" xlink:href="#DejaVuSans-48"/>
      </g>
     </g>
    </g>
    <g id="xtick_20">
     <g id="line2d_31">
      <g>
       <use style="stroke:#000000;stroke-width:0.8;" x="161.444943" xlink:href="#m771c080af9" y="387.918125"/>
      </g>
     </g>
     <g id="text_36">
      <!-- 7.685 -->
      <g transform="translate(147.130881 402.516563)scale(0.1 -0.1)">
       <use xlink:href="#DejaVuSans-55"/>
       <use x="63.623047" xlink:href="#DejaVuSans-46"/>
       <use x="95.410156" xlink:href="#DejaVuSans-54"/>
       <use x="159.033203" xlink:href="#DejaVuSans-56"/>
       <use x="222.65625" xlink:href="#DejaVuSans-53"/>
      </g>
     </g>
    </g>
    <g id="xtick_21">
     <g id="line2d_32">
      <g>
       <use style="stroke:#000000;stroke-width:0.8;" x="272.512791" xlink:href="#m771c080af9" y="387.918125"/>
      </g>
     </g>
     <g id="text_37">
      <!-- 7.690 -->
      <g transform="translate(258.198728 402.516563)scale(0.1 -0.1)">
       <use xlink:href="#DejaVuSans-55"/>
       <use x="63.623047" xlink:href="#DejaVuSans-46"/>
       <use x="95.410156" xlink:href="#DejaVuSans-54"/>
       <use x="159.033203" xlink:href="#DejaVuSans-57"/>
       <use x="222.65625" xlink:href="#DejaVuSans-48"/>
      </g>
     </g>
    </g>
    <g id="xtick_22">
     <g id="line2d_33">
      <g>
       <use style="stroke:#000000;stroke-width:0.8;" x="383.580638" xlink:href="#m771c080af9" y="387.918125"/>
      </g>
     </g>
     <g id="text_38">
      <!-- 7.695 -->
      <g transform="translate(369.266576 402.516563)scale(0.1 -0.1)">
       <use xlink:href="#DejaVuSans-55"/>
       <use x="63.623047" xlink:href="#DejaVuSans-46"/>
       <use x="95.410156" xlink:href="#DejaVuSans-54"/>
       <use x="159.033203" xlink:href="#DejaVuSans-57"/>
       <use x="222.65625" xlink:href="#DejaVuSans-53"/>
      </g>
     </g>
    </g>
    <g id="xtick_23">
     <g id="line2d_34">
      <g>
       <use style="stroke:#000000;stroke-width:0.8;" x="494.648486" xlink:href="#m771c080af9" y="387.918125"/>
      </g>
     </g>
     <g id="text_39">
      <!-- 7.700 -->
      <g transform="translate(480.334423 402.516563)scale(0.1 -0.1)">
       <use xlink:href="#DejaVuSans-55"/>
       <use x="63.623047" xlink:href="#DejaVuSans-46"/>
       <use x="95.410156" xlink:href="#DejaVuSans-55"/>
       <use x="159.033203" xlink:href="#DejaVuSans-48"/>
       <use x="222.65625" xlink:href="#DejaVuSans-48"/>
      </g>
     </g>
    </g>
    <g id="xtick_24">
     <g id="line2d_35">
      <g>
       <use style="stroke:#000000;stroke-width:0.8;" x="605.716334" xlink:href="#m771c080af9" y="387.918125"/>
      </g>
     </g>
     <g id="text_40">
      <!-- 7.705 -->
      <g transform="translate(591.402271 402.516563)scale(0.1 -0.1)">
       <use xlink:href="#DejaVuSans-55"/>
       <use x="63.623047" xlink:href="#DejaVuSans-46"/>
       <use x="95.410156" xlink:href="#DejaVuSans-55"/>
       <use x="159.033203" xlink:href="#DejaVuSans-48"/>
       <use x="222.65625" xlink:href="#DejaVuSans-53"/>
      </g>
     </g>
    </g>
    <g id="text_41">
     <!-- 1e5 -->
     <g transform="translate(686.355 415.194687)scale(0.1 -0.1)">
      <use xlink:href="#DejaVuSans-49"/>
      <use x="63.623047" xlink:href="#DejaVuSans-101"/>
      <use x="125.146484" xlink:href="#DejaVuSans-53"/>
     </g>
    </g>
   </g>
   <g id="matplotlib.axis_8">
    <g id="ytick_7">
     <g id="line2d_36">
      <g>
       <use style="stroke:#000000;stroke-width:0.8;" x="40.603125" xlink:href="#m33e4ecfcdc" y="367.64426"/>
      </g>
     </g>
     <g id="text_42">
      <!-- 25 -->
      <g transform="translate(20.878125 371.443479)scale(0.1 -0.1)">
       <use xlink:href="#DejaVuSans-50"/>
       <use x="63.623047" xlink:href="#DejaVuSans-53"/>
      </g>
     </g>
    </g>
    <g id="ytick_8">
     <g id="line2d_37">
      <g>
       <use style="stroke:#000000;stroke-width:0.8;" x="40.603125" xlink:href="#m33e4ecfcdc" y="342.197949"/>
      </g>
     </g>
     <g id="text_43">
      <!-- 50 -->
      <g transform="translate(20.878125 345.997168)scale(0.1 -0.1)">
       <use xlink:href="#DejaVuSans-53"/>
       <use x="63.623047" xlink:href="#DejaVuSans-48"/>
      </g>
     </g>
    </g>
   </g>
   <g id="line2d_38">
    <path clip-path="url(#p34b66f59e6)" d="M 70.81358 349.321695 
L 75.256293 347.101657 
L 77.255515 345.913518 
L 80.143279 344.688532 
L 84.808128 342.429103 
L 87.029485 341.624186 
L 89.917249 341.193125 
L 92.805013 341.209207 
L 95.248506 341.673755 
L 97.469863 342.501065 
L 100.801898 343.524923 
L 102.80112 344.529544 
L 105.022477 345.30301 
L 107.243834 345.698954 
L 109.243055 345.693152 
L 113.685769 345.139237 
L 115.68499 345.243058 
L 117.906347 346.119022 
L 120.127704 348.079508 
L 122.349061 351.267625 
L 124.792553 355.602964 
L 127.01391 360.777319 
L 129.235267 366.305581 
L 131.900896 371.620297 
L 133.900117 376.186689 
L 136.121474 379.609625 
L 138.564967 381.706604 
L 141.008459 382.529232 
L 143.00768 382.331362 
L 145.451173 381.49428 
L 147.67253 380.429505 
L 152.559515 378.883387 
L 155.003008 378.678697 
L 157.002229 378.781602 
L 159.001451 378.997081 
L 161.222807 379.0894 
L 163.444164 378.847457 
L 165.665521 378.136283 
L 171.218914 375.294235 
L 173.218135 373.402862 
L 175.883763 371.458967 
L 178.549392 369.666733 
L 180.548613 368.181483 
L 185.213463 366.317489 
L 191.655398 364.599354 
L 193.876755 363.550966 
L 196.320247 362.048413 
L 199.652283 360.134138 
L 202.317911 357.998887 
L 204.317132 355.965116 
L 206.316354 354.435385 
L 208.537711 353.815819 
L 210.536932 354.428566 
L 212.980424 356.433226 
L 215.201781 359.777889 
L 217.201003 364.190789 
L 222.087988 374.30641 
L 226.530702 382.487399 
L 228.752059 384.793751 
L 230.973416 385.693125 
L 232.972637 385.265118 
L 234.971858 383.74007 
L 237.415351 381.435346 
L 241.635929 375.790744 
L 244.079422 372.974957 
L 246.078643 370.384726 
L 248.3 368.097001 
L 250.743493 366.141605 
L 252.96485 364.521896 
L 255.186207 363.228104 
L 257.185428 362.238344 
L 261.850277 360.978446 
L 266.292991 360.082125 
L 268.736484 359.488921 
L 270.735705 358.684512 
L 272.734926 357.655463 
L 276.955505 355.248955 
L 283.841711 353.39341 
L 286.063068 353.001842 
L 288.506561 352.990035 
L 294.948496 353.796479 
L 297.169853 353.758005 
L 303.611788 352.798577 
L 305.611009 353.099658 
L 308.276638 354.287084 
L 310.275859 356.580102 
L 312.497216 359.995201 
L 314.496437 364.31629 
L 317.384201 369.12605 
L 319.383422 373.889294 
L 321.826915 378.066866 
L 323.826136 381.22801 
L 326.491765 383.132106 
L 328.490986 383.758086 
L 330.490207 383.279186 
L 332.711564 381.993537 
L 335.155057 380.234281 
L 337.376414 378.286213 
L 339.375635 376.332547 
L 344.706892 372.585527 
L 349.371741 368.72298 
L 352.03737 366.64595 
L 354.258727 364.520573 
L 356.924355 362.450261 
L 360.034255 360.559396 
L 365.587647 357.717858 
L 368.03114 356.860215 
L 370.252497 356.368491 
L 372.695989 356.207365 
L 375.583753 356.342841 
L 378.027246 356.751916 
L 380.470739 357.415454 
L 385.135588 359.320365 
L 387.134809 360.351246 
L 389.134031 361.209397 
L 391.133252 361.70163 
L 393.576745 361.678525 
L 395.575966 361.095703 
L 397.575187 360.060649 
L 399.574408 358.842483 
L 402.240037 357.836234 
L 404.239258 357.482937 
L 406.682751 358.164695 
L 409.570515 360.099938 
L 412.014007 363.271261 
L 414.013229 367.406897 
L 416.456721 372.024385 
L 419.344485 376.527669 
L 421.565842 380.332096 
L 423.787199 382.985332 
L 426.674963 384.25378 
L 429.562727 384.153216 
L 431.561949 382.921004 
L 433.783305 380.940874 
L 435.782527 378.644191 
L 440.447376 374.525248 
L 442.890869 373.098524 
L 444.89009 372.12617 
L 447.555719 371.502023 
L 455.774739 370.184005 
L 458.662503 369.505709 
L 461.105996 368.588216 
L 468.214338 364.301429 
L 472.212781 360.476747 
L 474.212002 358.495497 
L 476.87763 356.607584 
L 478.876852 354.906956 
L 483.319566 352.231429 
L 493.093536 347.978435 
L 495.092757 346.646982 
L 500.424014 344.123319 
L 502.867507 343.464157 
L 504.866728 343.623655 
L 507.088085 344.844976 
L 509.531578 347.223188 
L 512.419342 350.655488 
L 514.862834 354.834485 
L 516.862055 359.28932 
L 518.861277 363.468011 
L 520.860498 366.84321 
L 523.303991 369.016732 
L 525.525348 369.799257 
L 527.96884 369.24524 
L 530.634469 367.636219 
L 532.63369 365.413942 
L 535.077182 363.081838 
L 537.742811 361.09499 
L 539.742032 359.766286 
L 541.741253 359.208503 
L 544.406882 359.326879 
L 549.071731 360.467281 
L 551.070953 360.81732 
L 553.514445 360.690903 
L 555.513666 360.037136 
L 557.512888 358.989664 
L 560.178516 357.832468 
L 562.622009 356.925256 
L 564.62123 356.609518 
L 566.842587 357.117834 
L 569.063944 358.510765 
L 571.063165 360.655482 
L 573.284522 363.249071 
L 577.727236 368.110335 
L 580.170729 369.559451 
L 582.392086 369.973615 
L 584.391307 369.267735 
L 586.834799 367.536978 
L 589.944699 365.038863 
L 592.388192 362.15315 
L 594.387413 359.327082 
L 596.60877 357.011672 
L 598.607991 355.598994 
L 600.829348 355.364277 
L 602.82857 356.423353 
L 605.272062 358.709857 
L 609.714776 365.853247 
L 611.713997 369.858903 
L 614.15749 373.524292 
L 616.378847 376.444103 
L 618.600204 378.34138 
L 620.821561 379.100698 
L 624.153596 378.76725 
L 626.152818 377.515088 
L 628.818446 375.596131 
L 632.816888 370.81711 
L 635.260381 368.384035 
L 637.259602 366.098549 
L 639.925231 364.016736 
L 641.924452 362.155694 
L 646.14503 359.089719 
L 650.80988 356.881081 
L 652.809101 356.084917 
L 657.473951 354.978817 
L 668.3586 352.655161 
L 670.357821 351.974829 
L 673.023449 351.224061 
L 675.02267 350.428304 
L 675.02267 350.428304 
" style="fill:none;stroke:#1f77b4;stroke-linecap:square;stroke-width:1.5;"/>
   </g>
   <g id="line2d_39">
    <g clip-path="url(#p34b66f59e6)">
     <use style="fill:#ff0000;stroke:#ff0000;" x="107.243834" xlink:href="#mcf2d5576ac" y="345.698954"/>
     <use style="fill:#ff0000;stroke:#ff0000;" x="230.973416" xlink:href="#mcf2d5576ac" y="385.693125"/>
     <use style="fill:#ff0000;stroke:#ff0000;" x="328.490986" xlink:href="#mcf2d5576ac" y="383.758086"/>
     <use style="fill:#ff0000;stroke:#ff0000;" x="391.133252" xlink:href="#mcf2d5576ac" y="361.70163"/>
     <use style="fill:#ff0000;stroke:#ff0000;" x="525.525348" xlink:href="#mcf2d5576ac" y="369.799257"/>
     <use style="fill:#ff0000;stroke:#ff0000;" x="582.392086" xlink:href="#mcf2d5576ac" y="369.973615"/>
    </g>
   </g>
   <g id="patch_18">
    <path d="M 40.603125 387.918125 
L 40.603125 338.968125 
" style="fill:none;stroke:#000000;stroke-linecap:square;stroke-linejoin:miter;stroke-width:0.8;"/>
   </g>
   <g id="patch_19">
    <path d="M 705.233125 387.918125 
L 705.233125 338.968125 
" style="fill:none;stroke:#000000;stroke-linecap:square;stroke-linejoin:miter;stroke-width:0.8;"/>
   </g>
   <g id="patch_20">
    <path d="M 40.603125 387.918125 
L 705.233125 387.918125 
" style="fill:none;stroke:#000000;stroke-linecap:square;stroke-linejoin:miter;stroke-width:0.8;"/>
   </g>
   <g id="patch_21">
    <path d="M 40.603125 338.968125 
L 705.233125 338.968125 
" style="fill:none;stroke:#000000;stroke-linecap:square;stroke-linejoin:miter;stroke-width:0.8;"/>
   </g>
   <g id="text_44">
    <!-- DC Components -->
    <g transform="translate(324.24125 332.968125)scale(0.12 -0.12)">
     <use xlink:href="#DejaVuSans-68"/>
     <use x="77.001953" xlink:href="#DejaVuSans-67"/>
     <use x="146.826172" xlink:href="#DejaVuSans-32"/>
     <use x="178.613281" xlink:href="#DejaVuSans-67"/>
     <use x="248.4375" xlink:href="#DejaVuSans-111"/>
     <use x="309.619141" xlink:href="#DejaVuSans-109"/>
     <use x="407.03125" xlink:href="#DejaVuSans-112"/>
     <use x="470.507812" xlink:href="#DejaVuSans-111"/>
     <use x="531.689453" xlink:href="#DejaVuSans-110"/>
     <use x="595.068359" xlink:href="#DejaVuSans-101"/>
     <use x="656.591797" xlink:href="#DejaVuSans-110"/>
     <use x="719.970703" xlink:href="#DejaVuSans-116"/>
     <use x="759.179688" xlink:href="#DejaVuSans-115"/>
    </g>
   </g>
  </g>
 </g>
 <defs>
  <clipPath id="pd4deb2dba4">
   <rect height="48.95" width="664.63" x="40.603125" y="22.318125"/>
  </clipPath>
  <clipPath id="p8c14799df5">
   <rect height="48.95" width="664.63" x="40.603125" y="127.868125"/>
  </clipPath>
  <clipPath id="p8d5a20580b">
   <rect height="48.95" width="664.63" x="40.603125" y="233.418125"/>
  </clipPath>
  <clipPath id="p34b66f59e6">
   <rect height="48.95" width="664.63" x="40.603125" y="338.968125"/>
  </clipPath>
 </defs>
</svg>
