<?xml version="1.0" encoding="utf-8" standalone="no"?>
<!DOCTYPE svg PUBLIC "-//W3C//DTD SVG 1.1//EN"
  "http://www.w3.org/Graphics/SVG/1.1/DTD/svg11.dtd">
<!-- Created with matplotlib (https://matplotlib.org/) -->
<svg height="424.474375pt" version="1.1" viewBox="0 0 712.433125 424.474375" width="712.433125pt" xmlns="http://www.w3.org/2000/svg" xmlns:xlink="http://www.w3.org/1999/xlink">
 <defs>
  <style type="text/css">
*{stroke-linecap:butt;stroke-linejoin:round;}
  </style>
 </defs>
 <g id="figure_1">
  <g id="patch_1">
   <path d="M 0 424.474375 
L 712.433125 424.474375 
L 712.433125 -0 
L 0 -0 
z
" style="fill:#ffffff;"/>
  </g>
  <g id="axes_1">
   <g id="patch_2">
    <path d="M 40.603125 71.268125 
L 705.233125 71.268125 
L 705.233125 22.318125 
L 40.603125 22.318125 
z
" style="fill:#ffffff;"/>
   </g>
   <g id="matplotlib.axis_1">
    <g id="xtick_1">
     <g id="line2d_1">
      <defs>
       <path d="M 0 0 
L 0 3.5 
" id="mc3e8cb364a" style="stroke:#000000;stroke-width:0.8;"/>
      </defs>
      <g>
       <use style="stroke:#000000;stroke-width:0.8;" x="54.504795" xlink:href="#mc3e8cb364a" y="71.268125"/>
      </g>
     </g>
     <g id="text_1">
      <!-- 2.725 -->
      <defs>
       <path d="M 19.1875 8.296875 
L 53.609375 8.296875 
L 53.609375 0 
L 7.328125 0 
L 7.328125 8.296875 
Q 12.9375 14.109375 22.625 23.890625 
Q 32.328125 33.6875 34.8125 36.53125 
Q 39.546875 41.84375 41.421875 45.53125 
Q 43.3125 49.21875 43.3125 52.78125 
Q 43.3125 58.59375 39.234375 62.25 
Q 35.15625 65.921875 28.609375 65.921875 
Q 23.96875 65.921875 18.8125 64.3125 
Q 13.671875 62.703125 7.8125 59.421875 
L 7.8125 69.390625 
Q 13.765625 71.78125 18.9375 73 
Q 24.125 74.21875 28.421875 74.21875 
Q 39.75 74.21875 46.484375 68.546875 
Q 53.21875 62.890625 53.21875 53.421875 
Q 53.21875 48.921875 51.53125 44.890625 
Q 49.859375 40.875 45.40625 35.40625 
Q 44.1875 33.984375 37.640625 27.21875 
Q 31.109375 20.453125 19.1875 8.296875 
z
" id="DejaVuSans-50"/>
       <path d="M 10.6875 12.40625 
L 21 12.40625 
L 21 0 
L 10.6875 0 
z
" id="DejaVuSans-46"/>
       <path d="M 8.203125 72.90625 
L 55.078125 72.90625 
L 55.078125 68.703125 
L 28.609375 0 
L 18.3125 0 
L 43.21875 64.59375 
L 8.203125 64.59375 
z
" id="DejaVuSans-55"/>
       <path d="M 10.796875 72.90625 
L 49.515625 72.90625 
L 49.515625 64.59375 
L 19.828125 64.59375 
L 19.828125 46.734375 
Q 21.96875 47.46875 24.109375 47.828125 
Q 26.265625 48.1875 28.421875 48.1875 
Q 40.625 48.1875 47.75 41.5 
Q 54.890625 34.8125 54.890625 23.390625 
Q 54.890625 11.625 47.5625 5.09375 
Q 40.234375 -1.421875 26.90625 -1.421875 
Q 22.3125 -1.421875 17.546875 -0.640625 
Q 12.796875 0.140625 7.71875 1.703125 
L 7.71875 11.625 
Q 12.109375 9.234375 16.796875 8.0625 
Q 21.484375 6.890625 26.703125 6.890625 
Q 35.15625 6.890625 40.078125 11.328125 
Q 45.015625 15.765625 45.015625 23.390625 
Q 45.015625 31 40.078125 35.4375 
Q 35.15625 39.890625 26.703125 39.890625 
Q 22.75 39.890625 18.8125 39.015625 
Q 14.890625 38.140625 10.796875 36.28125 
z
" id="DejaVuSans-53"/>
      </defs>
      <g transform="translate(40.190733 85.866562)scale(0.1 -0.1)">
       <use xlink:href="#DejaVuSans-50"/>
       <use x="63.623047" xlink:href="#DejaVuSans-46"/>
       <use x="95.410156" xlink:href="#DejaVuSans-55"/>
       <use x="159.033203" xlink:href="#DejaVuSans-50"/>
       <use x="222.65625" xlink:href="#DejaVuSans-53"/>
      </g>
     </g>
    </g>
    <g id="xtick_2">
     <g id="line2d_2">
      <g>
       <use style="stroke:#000000;stroke-width:0.8;" x="132.912412" xlink:href="#mc3e8cb364a" y="71.268125"/>
      </g>
     </g>
     <g id="text_2">
      <!-- 2.730 -->
      <defs>
       <path d="M 40.578125 39.3125 
Q 47.65625 37.796875 51.625 33 
Q 55.609375 28.21875 55.609375 21.1875 
Q 55.609375 10.40625 48.1875 4.484375 
Q 40.765625 -1.421875 27.09375 -1.421875 
Q 22.515625 -1.421875 17.65625 -0.515625 
Q 12.796875 0.390625 7.625 2.203125 
L 7.625 11.71875 
Q 11.71875 9.328125 16.59375 8.109375 
Q 21.484375 6.890625 26.8125 6.890625 
Q 36.078125 6.890625 40.9375 10.546875 
Q 45.796875 14.203125 45.796875 21.1875 
Q 45.796875 27.640625 41.28125 31.265625 
Q 36.765625 34.90625 28.71875 34.90625 
L 20.21875 34.90625 
L 20.21875 43.015625 
L 29.109375 43.015625 
Q 36.375 43.015625 40.234375 45.921875 
Q 44.09375 48.828125 44.09375 54.296875 
Q 44.09375 59.90625 40.109375 62.90625 
Q 36.140625 65.921875 28.71875 65.921875 
Q 24.65625 65.921875 20.015625 65.03125 
Q 15.375 64.15625 9.8125 62.3125 
L 9.8125 71.09375 
Q 15.4375 72.65625 20.34375 73.4375 
Q 25.25 74.21875 29.59375 74.21875 
Q 40.828125 74.21875 47.359375 69.109375 
Q 53.90625 64.015625 53.90625 55.328125 
Q 53.90625 49.265625 50.4375 45.09375 
Q 46.96875 40.921875 40.578125 39.3125 
z
" id="DejaVuSans-51"/>
       <path d="M 31.78125 66.40625 
Q 24.171875 66.40625 20.328125 58.90625 
Q 16.5 51.421875 16.5 36.375 
Q 16.5 21.390625 20.328125 13.890625 
Q 24.171875 6.390625 31.78125 6.390625 
Q 39.453125 6.390625 43.28125 13.890625 
Q 47.125 21.390625 47.125 36.375 
Q 47.125 51.421875 43.28125 58.90625 
Q 39.453125 66.40625 31.78125 66.40625 
z
M 31.78125 74.21875 
Q 44.046875 74.21875 50.515625 64.515625 
Q 56.984375 54.828125 56.984375 36.375 
Q 56.984375 17.96875 50.515625 8.265625 
Q 44.046875 -1.421875 31.78125 -1.421875 
Q 19.53125 -1.421875 13.0625 8.265625 
Q 6.59375 17.96875 6.59375 36.375 
Q 6.59375 54.828125 13.0625 64.515625 
Q 19.53125 74.21875 31.78125 74.21875 
z
" id="DejaVuSans-48"/>
      </defs>
      <g transform="translate(118.598349 85.866562)scale(0.1 -0.1)">
       <use xlink:href="#DejaVuSans-50"/>
       <use x="63.623047" xlink:href="#DejaVuSans-46"/>
       <use x="95.410156" xlink:href="#DejaVuSans-55"/>
       <use x="159.033203" xlink:href="#DejaVuSans-51"/>
       <use x="222.65625" xlink:href="#DejaVuSans-48"/>
      </g>
     </g>
    </g>
    <g id="xtick_3">
     <g id="line2d_3">
      <g>
       <use style="stroke:#000000;stroke-width:0.8;" x="211.320028" xlink:href="#mc3e8cb364a" y="71.268125"/>
      </g>
     </g>
     <g id="text_3">
      <!-- 2.735 -->
      <g transform="translate(197.005965 85.866562)scale(0.1 -0.1)">
       <use xlink:href="#DejaVuSans-50"/>
       <use x="63.623047" xlink:href="#DejaVuSans-46"/>
       <use x="95.410156" xlink:href="#DejaVuSans-55"/>
       <use x="159.033203" xlink:href="#DejaVuSans-51"/>
       <use x="222.65625" xlink:href="#DejaVuSans-53"/>
      </g>
     </g>
    </g>
    <g id="xtick_4">
     <g id="line2d_4">
      <g>
       <use style="stroke:#000000;stroke-width:0.8;" x="289.727644" xlink:href="#mc3e8cb364a" y="71.268125"/>
      </g>
     </g>
     <g id="text_4">
      <!-- 2.740 -->
      <defs>
       <path d="M 37.796875 64.3125 
L 12.890625 25.390625 
L 37.796875 25.390625 
z
M 35.203125 72.90625 
L 47.609375 72.90625 
L 47.609375 25.390625 
L 58.015625 25.390625 
L 58.015625 17.1875 
L 47.609375 17.1875 
L 47.609375 0 
L 37.796875 0 
L 37.796875 17.1875 
L 4.890625 17.1875 
L 4.890625 26.703125 
z
" id="DejaVuSans-52"/>
      </defs>
      <g transform="translate(275.413582 85.866562)scale(0.1 -0.1)">
       <use xlink:href="#DejaVuSans-50"/>
       <use x="63.623047" xlink:href="#DejaVuSans-46"/>
       <use x="95.410156" xlink:href="#DejaVuSans-55"/>
       <use x="159.033203" xlink:href="#DejaVuSans-52"/>
       <use x="222.65625" xlink:href="#DejaVuSans-48"/>
      </g>
     </g>
    </g>
    <g id="xtick_5">
     <g id="line2d_5">
      <g>
       <use style="stroke:#000000;stroke-width:0.8;" x="368.13526" xlink:href="#mc3e8cb364a" y="71.268125"/>
      </g>
     </g>
     <g id="text_5">
      <!-- 2.745 -->
      <g transform="translate(353.821198 85.866562)scale(0.1 -0.1)">
       <use xlink:href="#DejaVuSans-50"/>
       <use x="63.623047" xlink:href="#DejaVuSans-46"/>
       <use x="95.410156" xlink:href="#DejaVuSans-55"/>
       <use x="159.033203" xlink:href="#DejaVuSans-52"/>
       <use x="222.65625" xlink:href="#DejaVuSans-53"/>
      </g>
     </g>
    </g>
    <g id="xtick_6">
     <g id="line2d_6">
      <g>
       <use style="stroke:#000000;stroke-width:0.8;" x="446.542877" xlink:href="#mc3e8cb364a" y="71.268125"/>
      </g>
     </g>
     <g id="text_6">
      <!-- 2.750 -->
      <g transform="translate(432.228814 85.866562)scale(0.1 -0.1)">
       <use xlink:href="#DejaVuSans-50"/>
       <use x="63.623047" xlink:href="#DejaVuSans-46"/>
       <use x="95.410156" xlink:href="#DejaVuSans-55"/>
       <use x="159.033203" xlink:href="#DejaVuSans-53"/>
       <use x="222.65625" xlink:href="#DejaVuSans-48"/>
      </g>
     </g>
    </g>
    <g id="xtick_7">
     <g id="line2d_7">
      <g>
       <use style="stroke:#000000;stroke-width:0.8;" x="524.950493" xlink:href="#mc3e8cb364a" y="71.268125"/>
      </g>
     </g>
     <g id="text_7">
      <!-- 2.755 -->
      <g transform="translate(510.63643 85.866562)scale(0.1 -0.1)">
       <use xlink:href="#DejaVuSans-50"/>
       <use x="63.623047" xlink:href="#DejaVuSans-46"/>
       <use x="95.410156" xlink:href="#DejaVuSans-55"/>
       <use x="159.033203" xlink:href="#DejaVuSans-53"/>
       <use x="222.65625" xlink:href="#DejaVuSans-53"/>
      </g>
     </g>
    </g>
    <g id="xtick_8">
     <g id="line2d_8">
      <g>
       <use style="stroke:#000000;stroke-width:0.8;" x="603.358109" xlink:href="#mc3e8cb364a" y="71.268125"/>
      </g>
     </g>
     <g id="text_8">
      <!-- 2.760 -->
      <defs>
       <path d="M 33.015625 40.375 
Q 26.375 40.375 22.484375 35.828125 
Q 18.609375 31.296875 18.609375 23.390625 
Q 18.609375 15.53125 22.484375 10.953125 
Q 26.375 6.390625 33.015625 6.390625 
Q 39.65625 6.390625 43.53125 10.953125 
Q 47.40625 15.53125 47.40625 23.390625 
Q 47.40625 31.296875 43.53125 35.828125 
Q 39.65625 40.375 33.015625 40.375 
z
M 52.59375 71.296875 
L 52.59375 62.3125 
Q 48.875 64.0625 45.09375 64.984375 
Q 41.3125 65.921875 37.59375 65.921875 
Q 27.828125 65.921875 22.671875 59.328125 
Q 17.53125 52.734375 16.796875 39.40625 
Q 19.671875 43.65625 24.015625 45.921875 
Q 28.375 48.1875 33.59375 48.1875 
Q 44.578125 48.1875 50.953125 41.515625 
Q 57.328125 34.859375 57.328125 23.390625 
Q 57.328125 12.15625 50.6875 5.359375 
Q 44.046875 -1.421875 33.015625 -1.421875 
Q 20.359375 -1.421875 13.671875 8.265625 
Q 6.984375 17.96875 6.984375 36.375 
Q 6.984375 53.65625 15.1875 63.9375 
Q 23.390625 74.21875 37.203125 74.21875 
Q 40.921875 74.21875 44.703125 73.484375 
Q 48.484375 72.75 52.59375 71.296875 
z
" id="DejaVuSans-54"/>
      </defs>
      <g transform="translate(589.044047 85.866562)scale(0.1 -0.1)">
       <use xlink:href="#DejaVuSans-50"/>
       <use x="63.623047" xlink:href="#DejaVuSans-46"/>
       <use x="95.410156" xlink:href="#DejaVuSans-55"/>
       <use x="159.033203" xlink:href="#DejaVuSans-54"/>
       <use x="222.65625" xlink:href="#DejaVuSans-48"/>
      </g>
     </g>
    </g>
    <g id="xtick_9">
     <g id="line2d_9">
      <g>
       <use style="stroke:#000000;stroke-width:0.8;" x="681.765725" xlink:href="#mc3e8cb364a" y="71.268125"/>
      </g>
     </g>
     <g id="text_9">
      <!-- 2.765 -->
      <g transform="translate(667.451663 85.866562)scale(0.1 -0.1)">
       <use xlink:href="#DejaVuSans-50"/>
       <use x="63.623047" xlink:href="#DejaVuSans-46"/>
       <use x="95.410156" xlink:href="#DejaVuSans-55"/>
       <use x="159.033203" xlink:href="#DejaVuSans-54"/>
       <use x="222.65625" xlink:href="#DejaVuSans-53"/>
      </g>
     </g>
    </g>
    <g id="text_10">
     <!-- Time (ms) -->
     <defs>
      <path d="M -0.296875 72.90625 
L 61.375 72.90625 
L 61.375 64.59375 
L 35.5 64.59375 
L 35.5 0 
L 25.59375 0 
L 25.59375 64.59375 
L -0.296875 64.59375 
z
" id="DejaVuSans-84"/>
      <path d="M 9.421875 54.6875 
L 18.40625 54.6875 
L 18.40625 0 
L 9.421875 0 
z
M 9.421875 75.984375 
L 18.40625 75.984375 
L 18.40625 64.59375 
L 9.421875 64.59375 
z
" id="DejaVuSans-105"/>
      <path d="M 52 44.1875 
Q 55.375 50.25 60.0625 53.125 
Q 64.75 56 71.09375 56 
Q 79.640625 56 84.28125 50.015625 
Q 88.921875 44.046875 88.921875 33.015625 
L 88.921875 0 
L 79.890625 0 
L 79.890625 32.71875 
Q 79.890625 40.578125 77.09375 44.375 
Q 74.3125 48.1875 68.609375 48.1875 
Q 61.625 48.1875 57.5625 43.546875 
Q 53.515625 38.921875 53.515625 30.90625 
L 53.515625 0 
L 44.484375 0 
L 44.484375 32.71875 
Q 44.484375 40.625 41.703125 44.40625 
Q 38.921875 48.1875 33.109375 48.1875 
Q 26.21875 48.1875 22.15625 43.53125 
Q 18.109375 38.875 18.109375 30.90625 
L 18.109375 0 
L 9.078125 0 
L 9.078125 54.6875 
L 18.109375 54.6875 
L 18.109375 46.1875 
Q 21.1875 51.21875 25.484375 53.609375 
Q 29.78125 56 35.6875 56 
Q 41.65625 56 45.828125 52.96875 
Q 50 49.953125 52 44.1875 
z
" id="DejaVuSans-109"/>
      <path d="M 56.203125 29.59375 
L 56.203125 25.203125 
L 14.890625 25.203125 
Q 15.484375 15.921875 20.484375 11.0625 
Q 25.484375 6.203125 34.421875 6.203125 
Q 39.59375 6.203125 44.453125 7.46875 
Q 49.3125 8.734375 54.109375 11.28125 
L 54.109375 2.78125 
Q 49.265625 0.734375 44.1875 -0.34375 
Q 39.109375 -1.421875 33.890625 -1.421875 
Q 20.796875 -1.421875 13.15625 6.1875 
Q 5.515625 13.8125 5.515625 26.8125 
Q 5.515625 40.234375 12.765625 48.109375 
Q 20.015625 56 32.328125 56 
Q 43.359375 56 49.78125 48.890625 
Q 56.203125 41.796875 56.203125 29.59375 
z
M 47.21875 32.234375 
Q 47.125 39.59375 43.09375 43.984375 
Q 39.0625 48.390625 32.421875 48.390625 
Q 24.90625 48.390625 20.390625 44.140625 
Q 15.875 39.890625 15.1875 32.171875 
z
" id="DejaVuSans-101"/>
      <path id="DejaVuSans-32"/>
      <path d="M 31 75.875 
Q 24.46875 64.65625 21.28125 53.65625 
Q 18.109375 42.671875 18.109375 31.390625 
Q 18.109375 20.125 21.3125 9.0625 
Q 24.515625 -2 31 -13.1875 
L 23.1875 -13.1875 
Q 15.875 -1.703125 12.234375 9.375 
Q 8.59375 20.453125 8.59375 31.390625 
Q 8.59375 42.28125 12.203125 53.3125 
Q 15.828125 64.359375 23.1875 75.875 
z
" id="DejaVuSans-40"/>
      <path d="M 44.28125 53.078125 
L 44.28125 44.578125 
Q 40.484375 46.53125 36.375 47.5 
Q 32.28125 48.484375 27.875 48.484375 
Q 21.1875 48.484375 17.84375 46.4375 
Q 14.5 44.390625 14.5 40.28125 
Q 14.5 37.15625 16.890625 35.375 
Q 19.28125 33.59375 26.515625 31.984375 
L 29.59375 31.296875 
Q 39.15625 29.25 43.1875 25.515625 
Q 47.21875 21.78125 47.21875 15.09375 
Q 47.21875 7.46875 41.1875 3.015625 
Q 35.15625 -1.421875 24.609375 -1.421875 
Q 20.21875 -1.421875 15.453125 -0.5625 
Q 10.6875 0.296875 5.421875 2 
L 5.421875 11.28125 
Q 10.40625 8.6875 15.234375 7.390625 
Q 20.0625 6.109375 24.8125 6.109375 
Q 31.15625 6.109375 34.5625 8.28125 
Q 37.984375 10.453125 37.984375 14.40625 
Q 37.984375 18.0625 35.515625 20.015625 
Q 33.0625 21.96875 24.703125 23.78125 
L 21.578125 24.515625 
Q 13.234375 26.265625 9.515625 29.90625 
Q 5.8125 33.546875 5.8125 39.890625 
Q 5.8125 47.609375 11.28125 51.796875 
Q 16.75 56 26.8125 56 
Q 31.78125 56 36.171875 55.265625 
Q 40.578125 54.546875 44.28125 53.078125 
z
" id="DejaVuSans-115"/>
      <path d="M 8.015625 75.875 
L 15.828125 75.875 
Q 23.140625 64.359375 26.78125 53.3125 
Q 30.421875 42.28125 30.421875 31.390625 
Q 30.421875 20.453125 26.78125 9.375 
Q 23.140625 -1.703125 15.828125 -13.1875 
L 8.015625 -13.1875 
Q 14.5 -2 17.703125 9.0625 
Q 20.90625 20.125 20.90625 31.390625 
Q 20.90625 42.671875 17.703125 53.65625 
Q 14.5 64.65625 8.015625 75.875 
z
" id="DejaVuSans-41"/>
     </defs>
     <g transform="translate(347.565 99.544688)scale(0.1 -0.1)">
      <use xlink:href="#DejaVuSans-84"/>
      <use x="61.037109" xlink:href="#DejaVuSans-105"/>
      <use x="88.820312" xlink:href="#DejaVuSans-109"/>
      <use x="186.232422" xlink:href="#DejaVuSans-101"/>
      <use x="247.755859" xlink:href="#DejaVuSans-32"/>
      <use x="279.542969" xlink:href="#DejaVuSans-40"/>
      <use x="318.556641" xlink:href="#DejaVuSans-109"/>
      <use x="415.96875" xlink:href="#DejaVuSans-115"/>
      <use x="468.068359" xlink:href="#DejaVuSans-41"/>
     </g>
    </g>
    <g id="text_11">
     <!-- 1e5 -->
     <defs>
      <path d="M 12.40625 8.296875 
L 28.515625 8.296875 
L 28.515625 63.921875 
L 10.984375 60.40625 
L 10.984375 69.390625 
L 28.421875 72.90625 
L 38.28125 72.90625 
L 38.28125 8.296875 
L 54.390625 8.296875 
L 54.390625 0 
L 12.40625 0 
z
" id="DejaVuSans-49"/>
     </defs>
     <g transform="translate(686.355 98.544688)scale(0.1 -0.1)">
      <use xlink:href="#DejaVuSans-49"/>
      <use x="63.623047" xlink:href="#DejaVuSans-101"/>
      <use x="125.146484" xlink:href="#DejaVuSans-53"/>
     </g>
    </g>
   </g>
   <g id="matplotlib.axis_2">
    <g id="ytick_1">
     <g id="line2d_10">
      <defs>
       <path d="M 0 0 
L -3.5 0 
" id="mc095b0bc7f" style="stroke:#000000;stroke-width:0.8;"/>
      </defs>
      <g>
       <use style="stroke:#000000;stroke-width:0.8;" x="40.603125" xlink:href="#mc095b0bc7f" y="71.162173"/>
      </g>
     </g>
     <g id="text_12">
      <!-- 0 -->
      <g transform="translate(27.240625 74.961391)scale(0.1 -0.1)">
       <use xlink:href="#DejaVuSans-48"/>
      </g>
     </g>
    </g>
    <g id="ytick_2">
     <g id="line2d_11">
      <g>
       <use style="stroke:#000000;stroke-width:0.8;" x="40.603125" xlink:href="#mc095b0bc7f" y="28.78122"/>
      </g>
     </g>
     <g id="text_13">
      <!-- 20 -->
      <g transform="translate(20.878125 32.580439)scale(0.1 -0.1)">
       <use xlink:href="#DejaVuSans-50"/>
       <use x="63.623047" xlink:href="#DejaVuSans-48"/>
      </g>
     </g>
    </g>
    <g id="text_14">
     <!-- ADC Value -->
     <defs>
      <path d="M 34.1875 63.1875 
L 20.796875 26.90625 
L 47.609375 26.90625 
z
M 28.609375 72.90625 
L 39.796875 72.90625 
L 67.578125 0 
L 57.328125 0 
L 50.6875 18.703125 
L 17.828125 18.703125 
L 11.1875 0 
L 0.78125 0 
z
" id="DejaVuSans-65"/>
      <path d="M 19.671875 64.796875 
L 19.671875 8.109375 
L 31.59375 8.109375 
Q 46.6875 8.109375 53.6875 14.9375 
Q 60.6875 21.78125 60.6875 36.53125 
Q 60.6875 51.171875 53.6875 57.984375 
Q 46.6875 64.796875 31.59375 64.796875 
z
M 9.8125 72.90625 
L 30.078125 72.90625 
Q 51.265625 72.90625 61.171875 64.09375 
Q 71.09375 55.28125 71.09375 36.53125 
Q 71.09375 17.671875 61.125 8.828125 
Q 51.171875 0 30.078125 0 
L 9.8125 0 
z
" id="DejaVuSans-68"/>
      <path d="M 64.40625 67.28125 
L 64.40625 56.890625 
Q 59.421875 61.53125 53.78125 63.8125 
Q 48.140625 66.109375 41.796875 66.109375 
Q 29.296875 66.109375 22.65625 58.46875 
Q 16.015625 50.828125 16.015625 36.375 
Q 16.015625 21.96875 22.65625 14.328125 
Q 29.296875 6.6875 41.796875 6.6875 
Q 48.140625 6.6875 53.78125 8.984375 
Q 59.421875 11.28125 64.40625 15.921875 
L 64.40625 5.609375 
Q 59.234375 2.09375 53.4375 0.328125 
Q 47.65625 -1.421875 41.21875 -1.421875 
Q 24.65625 -1.421875 15.125 8.703125 
Q 5.609375 18.84375 5.609375 36.375 
Q 5.609375 53.953125 15.125 64.078125 
Q 24.65625 74.21875 41.21875 74.21875 
Q 47.75 74.21875 53.53125 72.484375 
Q 59.328125 70.75 64.40625 67.28125 
z
" id="DejaVuSans-67"/>
      <path d="M 28.609375 0 
L 0.78125 72.90625 
L 11.078125 72.90625 
L 34.1875 11.53125 
L 57.328125 72.90625 
L 67.578125 72.90625 
L 39.796875 0 
z
" id="DejaVuSans-86"/>
      <path d="M 34.28125 27.484375 
Q 23.390625 27.484375 19.1875 25 
Q 14.984375 22.515625 14.984375 16.5 
Q 14.984375 11.71875 18.140625 8.90625 
Q 21.296875 6.109375 26.703125 6.109375 
Q 34.1875 6.109375 38.703125 11.40625 
Q 43.21875 16.703125 43.21875 25.484375 
L 43.21875 27.484375 
z
M 52.203125 31.203125 
L 52.203125 0 
L 43.21875 0 
L 43.21875 8.296875 
Q 40.140625 3.328125 35.546875 0.953125 
Q 30.953125 -1.421875 24.3125 -1.421875 
Q 15.921875 -1.421875 10.953125 3.296875 
Q 6 8.015625 6 15.921875 
Q 6 25.140625 12.171875 29.828125 
Q 18.359375 34.515625 30.609375 34.515625 
L 43.21875 34.515625 
L 43.21875 35.40625 
Q 43.21875 41.609375 39.140625 45 
Q 35.0625 48.390625 27.6875 48.390625 
Q 23 48.390625 18.546875 47.265625 
Q 14.109375 46.140625 10.015625 43.890625 
L 10.015625 52.203125 
Q 14.9375 54.109375 19.578125 55.046875 
Q 24.21875 56 28.609375 56 
Q 40.484375 56 46.34375 49.84375 
Q 52.203125 43.703125 52.203125 31.203125 
z
" id="DejaVuSans-97"/>
      <path d="M 9.421875 75.984375 
L 18.40625 75.984375 
L 18.40625 0 
L 9.421875 0 
z
" id="DejaVuSans-108"/>
      <path d="M 8.5 21.578125 
L 8.5 54.6875 
L 17.484375 54.6875 
L 17.484375 21.921875 
Q 17.484375 14.15625 20.5 10.265625 
Q 23.53125 6.390625 29.59375 6.390625 
Q 36.859375 6.390625 41.078125 11.03125 
Q 45.3125 15.671875 45.3125 23.6875 
L 45.3125 54.6875 
L 54.296875 54.6875 
L 54.296875 0 
L 45.3125 0 
L 45.3125 8.40625 
Q 42.046875 3.421875 37.71875 1 
Q 33.40625 -1.421875 27.6875 -1.421875 
Q 18.265625 -1.421875 13.375 4.4375 
Q 8.5 10.296875 8.5 21.578125 
z
M 31.109375 56 
z
" id="DejaVuSans-117"/>
     </defs>
     <g transform="translate(14.798438 73.257188)rotate(-90)scale(0.1 -0.1)">
      <use xlink:href="#DejaVuSans-65"/>
      <use x="68.408203" xlink:href="#DejaVuSans-68"/>
      <use x="145.410156" xlink:href="#DejaVuSans-67"/>
      <use x="215.234375" xlink:href="#DejaVuSans-32"/>
      <use x="247.021484" xlink:href="#DejaVuSans-86"/>
      <use x="315.320312" xlink:href="#DejaVuSans-97"/>
      <use x="376.599609" xlink:href="#DejaVuSans-108"/>
      <use x="404.382812" xlink:href="#DejaVuSans-117"/>
      <use x="467.761719" xlink:href="#DejaVuSans-101"/>
     </g>
    </g>
   </g>
   <g id="line2d_12">
    <path clip-path="url(#pd9c669b2da)" d="M 70.81358 58.447887 
L 72.381732 66.924077 
L 74.106699 69.043125 
L 75.831667 66.924077 
L 79.281602 58.447887 
L 81.00657 52.090744 
L 82.574722 47.852649 
L 84.456505 43.614554 
L 86.338288 37.257411 
L 88.063255 35.138363 
L 90.101853 33.019315 
L 91.670005 33.019315 
L 93.394973 35.138363 
L 95.119941 33.019315 
L 96.844908 35.138363 
L 98.569876 33.019315 
L 101.549365 33.019315 
L 102.960702 30.900268 
L 104.528855 33.019315 
L 108.135605 33.019315 
L 110.017388 30.900268 
L 111.58554 33.019315 
L 115.035475 28.78122 
L 116.760443 28.78122 
L 118.48541 33.019315 
L 119.896747 37.257411 
L 123.033052 60.566935 
L 124.914835 66.924077 
L 126.482987 64.80503 
L 128.207955 62.685982 
L 130.089737 58.447887 
L 132.128335 49.971696 
L 133.853303 45.733601 
L 135.26464 41.495506 
L 137.146423 39.376458 
L 138.87139 37.257411 
L 140.753173 35.138363 
L 142.321326 33.019315 
L 144.203108 35.138363 
L 145.614445 37.257411 
L 147.339413 37.257411 
L 149.064381 35.138363 
L 151.573424 35.138363 
L 153.141577 33.019315 
L 158.159664 33.019315 
L 159.571001 30.900268 
L 168.195839 30.900268 
L 169.763991 35.138363 
L 171.645774 45.733601 
L 173.370742 56.328839 
L 174.938894 64.80503 
L 176.820677 66.924077 
L 178.545644 64.80503 
L 180.113797 60.566935 
L 181.838764 54.209792 
L 183.720547 49.971696 
L 185.288699 45.733601 
L 186.700036 41.495506 
L 188.425004 37.257411 
L 189.836341 37.257411 
L 191.718124 35.138363 
L 198.147548 35.138363 
L 199.872516 33.019315 
L 203.008821 33.019315 
L 204.733788 30.900268 
L 206.458756 30.900268 
L 207.870093 28.78122 
L 209.59506 30.900268 
L 217.592637 30.900268 
L 219.003974 33.019315 
L 220.728942 35.138363 
L 222.453909 45.733601 
L 224.178877 58.447887 
L 226.37429 66.924077 
L 227.942443 66.924077 
L 229.66741 64.80503 
L 231.235562 60.566935 
L 232.96053 54.209792 
L 234.685498 49.971696 
L 236.25365 45.733601 
L 238.135433 41.495506 
L 239.8604 37.257411 
L 241.428553 37.257411 
L 243.15352 35.138363 
L 244.721672 35.138363 
L 246.917086 33.019315 
L 248.328423 33.019315 
L 249.73976 30.900268 
L 253.03288 30.900268 
L 254.757847 28.78122 
L 266.51899 28.78122 
L 268.243957 30.900268 
L 270.282555 33.019315 
L 272.164338 41.495506 
L 273.889306 54.209792 
L 275.457458 62.685982 
L 277.652871 66.924077 
L 279.221024 64.80503 
L 280.632361 62.685982 
L 282.357328 56.328839 
L 283.925481 52.090744 
L 285.650448 45.733601 
L 289.414014 35.138363 
L 290.982166 33.019315 
L 292.550318 33.019315 
L 294.118471 30.900268 
L 295.843438 28.78122 
L 312.152222 28.78122 
L 313.87719 26.662173 
L 315.288527 26.662173 
L 316.699864 24.543125 
L 321.717952 24.543125 
L 323.599734 28.78122 
L 325.167887 39.376458 
L 326.892854 49.971696 
L 328.617822 56.328839 
L 330.185974 58.447887 
L 332.067757 58.447887 
L 333.792724 54.209792 
L 335.674507 47.852649 
L 337.399475 45.733601 
L 339.124442 39.376458 
L 340.535779 37.257411 
L 342.260747 33.019315 
L 344.14253 33.019315 
L 345.710682 30.900268 
L 347.43565 33.019315 
L 348.846987 30.900268 
L 350.415139 33.019315 
L 352.140107 33.019315 
L 353.865074 30.900268 
L 357.62864 30.900268 
L 359.196792 28.78122 
L 362.333097 28.78122 
L 363.901249 26.662173 
L 370.644304 26.662173 
L 372.526087 28.78122 
L 374.251054 30.900268 
L 375.819207 41.495506 
L 377.70099 49.971696 
L 379.425957 58.447887 
L 380.994109 60.566935 
L 382.562262 58.447887 
L 387.737164 45.733601 
L 389.305317 41.495506 
L 390.716654 37.257411 
L 392.598437 37.257411 
L 394.323404 33.019315 
L 395.891557 33.019315 
L 397.773339 28.78122 
L 399.498307 28.78122 
L 401.223274 30.900268 
L 408.436775 30.900268 
L 409.848112 28.78122 
L 421.76607 28.78122 
L 423.177407 30.900268 
L 425.686451 39.376458 
L 427.411418 49.971696 
L 428.979571 58.447887 
L 430.390908 60.566935 
L 432.272691 58.447887 
L 433.684028 58.447887 
L 435.408995 52.090744 
L 438.85893 43.614554 
L 440.583898 41.495506 
L 442.779311 35.138363 
L 444.504279 33.019315 
L 449.365551 33.019315 
L 450.933703 30.900268 
L 454.540454 30.900268 
L 456.265421 28.78122 
L 461.126693 28.78122 
L 463.008476 26.662173 
L 468.183379 26.662173 
L 469.908346 28.78122 
L 471.790129 28.78122 
L 473.671912 33.019315 
L 475.083249 41.495506 
L 476.808217 49.971696 
L 478.533184 54.209792 
L 481.669489 54.209792 
L 483.394456 49.971696 
L 484.962609 45.733601 
L 486.687576 43.614554 
L 488.098913 41.495506 
L 489.51025 37.257411 
L 491.078403 35.138363 
L 492.80337 33.019315 
L 502.839545 33.019315 
L 504.721328 30.900268 
L 506.28948 30.900268 
L 508.014448 28.78122 
L 520.402851 28.78122 
L 522.127819 33.019315 
L 523.852786 41.495506 
L 525.734569 49.971696 
L 527.302721 56.328839 
L 529.027689 58.447887 
L 530.752657 54.209792 
L 532.320809 54.209792 
L 533.732146 49.971696 
L 535.457114 45.733601 
L 537.025266 41.495506 
L 538.907049 37.257411 
L 540.318386 37.257411 
L 542.043353 33.019315 
L 543.45469 35.138363 
L 548.472778 35.138363 
L 550.04093 33.019315 
L 553.33405 33.019315 
L 555.059018 30.900268 
L 556.470355 30.900268 
L 558.352137 28.78122 
L 564.938377 28.78122 
L 567.13379 26.662173 
L 568.858758 28.78122 
L 570.42691 28.78122 
L 572.308693 33.019315 
L 574.033661 39.376458 
L 575.601813 47.852649 
L 577.326781 52.090744 
L 579.522194 52.090744 
L 581.090346 49.971696 
L 582.658498 45.733601 
L 584.383466 41.495506 
L 585.951618 41.495506 
L 587.676586 37.257411 
L 589.401553 35.138363 
L 590.969706 33.019315 
L 594.733271 33.019315 
L 596.144608 35.138363 
L 597.869576 37.257411 
L 606.337599 37.257411 
L 608.062566 35.138363 
L 611.355686 35.138363 
L 612.923838 33.019315 
L 619.666893 33.019315 
L 621.235046 39.376458 
L 622.646383 47.852649 
L 624.214535 58.447887 
L 625.939503 64.80503 
L 627.66447 64.80503 
L 629.075807 62.685982 
L 630.800775 58.447887 
L 632.682558 54.209792 
L 634.25071 49.971696 
L 637.700645 41.495506 
L 639.268797 37.257411 
L 640.993765 37.257411 
L 642.561917 35.138363 
L 646.168668 35.138363 
L 647.73682 33.019315 
L 649.461788 33.019315 
L 650.873125 35.138363 
L 652.754907 33.019315 
L 654.479875 33.019315 
L 656.048027 30.900268 
L 661.22293 30.900268 
L 662.947898 28.78122 
L 664.672865 28.78122 
L 666.241017 30.900268 
L 668.1228 30.900268 
L 669.847768 33.019315 
L 673.297703 52.090744 
L 675.02267 62.685982 
L 675.02267 62.685982 
" style="fill:none;stroke:#1f77b4;stroke-linecap:square;stroke-width:1.5;"/>
   </g>
   <g id="patch_3">
    <path d="M 40.603125 71.268125 
L 40.603125 22.318125 
" style="fill:none;stroke:#000000;stroke-linecap:square;stroke-linejoin:miter;stroke-width:0.8;"/>
   </g>
   <g id="patch_4">
    <path d="M 705.233125 71.268125 
L 705.233125 22.318125 
" style="fill:none;stroke:#000000;stroke-linecap:square;stroke-linejoin:miter;stroke-width:0.8;"/>
   </g>
   <g id="patch_5">
    <path d="M 40.603125 71.268125 
L 705.233125 71.268125 
" style="fill:none;stroke:#000000;stroke-linecap:square;stroke-linejoin:miter;stroke-width:0.8;"/>
   </g>
   <g id="patch_6">
    <path d="M 40.603125 22.318125 
L 705.233125 22.318125 
" style="fill:none;stroke:#000000;stroke-linecap:square;stroke-linejoin:miter;stroke-width:0.8;"/>
   </g>
   <g id="text_15">
    <!-- RED LED Input Signal -->
    <defs>
     <path d="M 44.390625 34.1875 
Q 47.5625 33.109375 50.5625 29.59375 
Q 53.5625 26.078125 56.59375 19.921875 
L 66.609375 0 
L 56 0 
L 46.6875 18.703125 
Q 43.0625 26.03125 39.671875 28.421875 
Q 36.28125 30.8125 30.421875 30.8125 
L 19.671875 30.8125 
L 19.671875 0 
L 9.8125 0 
L 9.8125 72.90625 
L 32.078125 72.90625 
Q 44.578125 72.90625 50.734375 67.671875 
Q 56.890625 62.453125 56.890625 51.90625 
Q 56.890625 45.015625 53.6875 40.46875 
Q 50.484375 35.9375 44.390625 34.1875 
z
M 19.671875 64.796875 
L 19.671875 38.921875 
L 32.078125 38.921875 
Q 39.203125 38.921875 42.84375 42.21875 
Q 46.484375 45.515625 46.484375 51.90625 
Q 46.484375 58.296875 42.84375 61.546875 
Q 39.203125 64.796875 32.078125 64.796875 
z
" id="DejaVuSans-82"/>
     <path d="M 9.8125 72.90625 
L 55.90625 72.90625 
L 55.90625 64.59375 
L 19.671875 64.59375 
L 19.671875 43.015625 
L 54.390625 43.015625 
L 54.390625 34.71875 
L 19.671875 34.71875 
L 19.671875 8.296875 
L 56.78125 8.296875 
L 56.78125 0 
L 9.8125 0 
z
" id="DejaVuSans-69"/>
     <path d="M 9.8125 72.90625 
L 19.671875 72.90625 
L 19.671875 8.296875 
L 55.171875 8.296875 
L 55.171875 0 
L 9.8125 0 
z
" id="DejaVuSans-76"/>
     <path d="M 9.8125 72.90625 
L 19.671875 72.90625 
L 19.671875 0 
L 9.8125 0 
z
" id="DejaVuSans-73"/>
     <path d="M 54.890625 33.015625 
L 54.890625 0 
L 45.90625 0 
L 45.90625 32.71875 
Q 45.90625 40.484375 42.875 44.328125 
Q 39.84375 48.1875 33.796875 48.1875 
Q 26.515625 48.1875 22.3125 43.546875 
Q 18.109375 38.921875 18.109375 30.90625 
L 18.109375 0 
L 9.078125 0 
L 9.078125 54.6875 
L 18.109375 54.6875 
L 18.109375 46.1875 
Q 21.34375 51.125 25.703125 53.5625 
Q 30.078125 56 35.796875 56 
Q 45.21875 56 50.046875 50.171875 
Q 54.890625 44.34375 54.890625 33.015625 
z
" id="DejaVuSans-110"/>
     <path d="M 18.109375 8.203125 
L 18.109375 -20.796875 
L 9.078125 -20.796875 
L 9.078125 54.6875 
L 18.109375 54.6875 
L 18.109375 46.390625 
Q 20.953125 51.265625 25.265625 53.625 
Q 29.59375 56 35.59375 56 
Q 45.5625 56 51.78125 48.09375 
Q 58.015625 40.1875 58.015625 27.296875 
Q 58.015625 14.40625 51.78125 6.484375 
Q 45.5625 -1.421875 35.59375 -1.421875 
Q 29.59375 -1.421875 25.265625 0.953125 
Q 20.953125 3.328125 18.109375 8.203125 
z
M 48.6875 27.296875 
Q 48.6875 37.203125 44.609375 42.84375 
Q 40.53125 48.484375 33.40625 48.484375 
Q 26.265625 48.484375 22.1875 42.84375 
Q 18.109375 37.203125 18.109375 27.296875 
Q 18.109375 17.390625 22.1875 11.75 
Q 26.265625 6.109375 33.40625 6.109375 
Q 40.53125 6.109375 44.609375 11.75 
Q 48.6875 17.390625 48.6875 27.296875 
z
" id="DejaVuSans-112"/>
     <path d="M 18.3125 70.21875 
L 18.3125 54.6875 
L 36.8125 54.6875 
L 36.8125 47.703125 
L 18.3125 47.703125 
L 18.3125 18.015625 
Q 18.3125 11.328125 20.140625 9.421875 
Q 21.96875 7.515625 27.59375 7.515625 
L 36.8125 7.515625 
L 36.8125 0 
L 27.59375 0 
Q 17.1875 0 13.234375 3.875 
Q 9.28125 7.765625 9.28125 18.015625 
L 9.28125 47.703125 
L 2.6875 47.703125 
L 2.6875 54.6875 
L 9.28125 54.6875 
L 9.28125 70.21875 
z
" id="DejaVuSans-116"/>
     <path d="M 53.515625 70.515625 
L 53.515625 60.890625 
Q 47.90625 63.578125 42.921875 64.890625 
Q 37.9375 66.21875 33.296875 66.21875 
Q 25.25 66.21875 20.875 63.09375 
Q 16.5 59.96875 16.5 54.203125 
Q 16.5 49.359375 19.40625 46.890625 
Q 22.3125 44.4375 30.421875 42.921875 
L 36.375 41.703125 
Q 47.40625 39.59375 52.65625 34.296875 
Q 57.90625 29 57.90625 20.125 
Q 57.90625 9.515625 50.796875 4.046875 
Q 43.703125 -1.421875 29.984375 -1.421875 
Q 24.8125 -1.421875 18.96875 -0.25 
Q 13.140625 0.921875 6.890625 3.21875 
L 6.890625 13.375 
Q 12.890625 10.015625 18.65625 8.296875 
Q 24.421875 6.59375 29.984375 6.59375 
Q 38.421875 6.59375 43.015625 9.90625 
Q 47.609375 13.234375 47.609375 19.390625 
Q 47.609375 24.75 44.3125 27.78125 
Q 41.015625 30.8125 33.5 32.328125 
L 27.484375 33.5 
Q 16.453125 35.6875 11.515625 40.375 
Q 6.59375 45.0625 6.59375 53.421875 
Q 6.59375 63.09375 13.40625 68.65625 
Q 20.21875 74.21875 32.171875 74.21875 
Q 37.3125 74.21875 42.625 73.28125 
Q 47.953125 72.359375 53.515625 70.515625 
z
" id="DejaVuSans-83"/>
     <path d="M 45.40625 27.984375 
Q 45.40625 37.75 41.375 43.109375 
Q 37.359375 48.484375 30.078125 48.484375 
Q 22.859375 48.484375 18.828125 43.109375 
Q 14.796875 37.75 14.796875 27.984375 
Q 14.796875 18.265625 18.828125 12.890625 
Q 22.859375 7.515625 30.078125 7.515625 
Q 37.359375 7.515625 41.375 12.890625 
Q 45.40625 18.265625 45.40625 27.984375 
z
M 54.390625 6.78125 
Q 54.390625 -7.171875 48.1875 -13.984375 
Q 42 -20.796875 29.203125 -20.796875 
Q 24.46875 -20.796875 20.265625 -20.09375 
Q 16.0625 -19.390625 12.109375 -17.921875 
L 12.109375 -9.1875 
Q 16.0625 -11.328125 19.921875 -12.34375 
Q 23.78125 -13.375 27.78125 -13.375 
Q 36.625 -13.375 41.015625 -8.765625 
Q 45.40625 -4.15625 45.40625 5.171875 
L 45.40625 9.625 
Q 42.625 4.78125 38.28125 2.390625 
Q 33.9375 0 27.875 0 
Q 17.828125 0 11.671875 7.65625 
Q 5.515625 15.328125 5.515625 27.984375 
Q 5.515625 40.671875 11.671875 48.328125 
Q 17.828125 56 27.875 56 
Q 33.9375 56 38.28125 53.609375 
Q 42.625 51.21875 45.40625 46.390625 
L 45.40625 54.6875 
L 54.390625 54.6875 
z
" id="DejaVuSans-103"/>
    </defs>
    <g transform="translate(308.895313 16.318125)scale(0.12 -0.12)">
     <use xlink:href="#DejaVuSans-82"/>
     <use x="69.482422" xlink:href="#DejaVuSans-69"/>
     <use x="132.666016" xlink:href="#DejaVuSans-68"/>
     <use x="209.667969" xlink:href="#DejaVuSans-32"/>
     <use x="241.455078" xlink:href="#DejaVuSans-76"/>
     <use x="297.167969" xlink:href="#DejaVuSans-69"/>
     <use x="360.351562" xlink:href="#DejaVuSans-68"/>
     <use x="437.353516" xlink:href="#DejaVuSans-32"/>
     <use x="469.140625" xlink:href="#DejaVuSans-73"/>
     <use x="498.632812" xlink:href="#DejaVuSans-110"/>
     <use x="562.011719" xlink:href="#DejaVuSans-112"/>
     <use x="625.488281" xlink:href="#DejaVuSans-117"/>
     <use x="688.867188" xlink:href="#DejaVuSans-116"/>
     <use x="728.076172" xlink:href="#DejaVuSans-32"/>
     <use x="759.863281" xlink:href="#DejaVuSans-83"/>
     <use x="823.339844" xlink:href="#DejaVuSans-105"/>
     <use x="851.123047" xlink:href="#DejaVuSans-103"/>
     <use x="914.599609" xlink:href="#DejaVuSans-110"/>
     <use x="977.978516" xlink:href="#DejaVuSans-97"/>
     <use x="1039.257812" xlink:href="#DejaVuSans-108"/>
    </g>
   </g>
  </g>
  <g id="axes_2">
   <g id="patch_7">
    <path d="M 40.603125 176.818125 
L 705.233125 176.818125 
L 705.233125 127.868125 
L 40.603125 127.868125 
z
" style="fill:#ffffff;"/>
   </g>
   <g id="matplotlib.axis_3">
    <g id="xtick_10">
     <g id="line2d_13">
      <g>
       <use style="stroke:#000000;stroke-width:0.8;" x="54.504795" xlink:href="#mc3e8cb364a" y="176.818125"/>
      </g>
     </g>
     <g id="text_16">
      <!-- 2.725 -->
      <g transform="translate(40.190733 191.416562)scale(0.1 -0.1)">
       <use xlink:href="#DejaVuSans-50"/>
       <use x="63.623047" xlink:href="#DejaVuSans-46"/>
       <use x="95.410156" xlink:href="#DejaVuSans-55"/>
       <use x="159.033203" xlink:href="#DejaVuSans-50"/>
       <use x="222.65625" xlink:href="#DejaVuSans-53"/>
      </g>
     </g>
    </g>
    <g id="xtick_11">
     <g id="line2d_14">
      <g>
       <use style="stroke:#000000;stroke-width:0.8;" x="132.912412" xlink:href="#mc3e8cb364a" y="176.818125"/>
      </g>
     </g>
     <g id="text_17">
      <!-- 2.730 -->
      <g transform="translate(118.598349 191.416562)scale(0.1 -0.1)">
       <use xlink:href="#DejaVuSans-50"/>
       <use x="63.623047" xlink:href="#DejaVuSans-46"/>
       <use x="95.410156" xlink:href="#DejaVuSans-55"/>
       <use x="159.033203" xlink:href="#DejaVuSans-51"/>
       <use x="222.65625" xlink:href="#DejaVuSans-48"/>
      </g>
     </g>
    </g>
    <g id="xtick_12">
     <g id="line2d_15">
      <g>
       <use style="stroke:#000000;stroke-width:0.8;" x="211.320028" xlink:href="#mc3e8cb364a" y="176.818125"/>
      </g>
     </g>
     <g id="text_18">
      <!-- 2.735 -->
      <g transform="translate(197.005965 191.416562)scale(0.1 -0.1)">
       <use xlink:href="#DejaVuSans-50"/>
       <use x="63.623047" xlink:href="#DejaVuSans-46"/>
       <use x="95.410156" xlink:href="#DejaVuSans-55"/>
       <use x="159.033203" xlink:href="#DejaVuSans-51"/>
       <use x="222.65625" xlink:href="#DejaVuSans-53"/>
      </g>
     </g>
    </g>
    <g id="xtick_13">
     <g id="line2d_16">
      <g>
       <use style="stroke:#000000;stroke-width:0.8;" x="289.727644" xlink:href="#mc3e8cb364a" y="176.818125"/>
      </g>
     </g>
     <g id="text_19">
      <!-- 2.740 -->
      <g transform="translate(275.413582 191.416562)scale(0.1 -0.1)">
       <use xlink:href="#DejaVuSans-50"/>
       <use x="63.623047" xlink:href="#DejaVuSans-46"/>
       <use x="95.410156" xlink:href="#DejaVuSans-55"/>
       <use x="159.033203" xlink:href="#DejaVuSans-52"/>
       <use x="222.65625" xlink:href="#DejaVuSans-48"/>
      </g>
     </g>
    </g>
    <g id="xtick_14">
     <g id="line2d_17">
      <g>
       <use style="stroke:#000000;stroke-width:0.8;" x="368.13526" xlink:href="#mc3e8cb364a" y="176.818125"/>
      </g>
     </g>
     <g id="text_20">
      <!-- 2.745 -->
      <g transform="translate(353.821198 191.416562)scale(0.1 -0.1)">
       <use xlink:href="#DejaVuSans-50"/>
       <use x="63.623047" xlink:href="#DejaVuSans-46"/>
       <use x="95.410156" xlink:href="#DejaVuSans-55"/>
       <use x="159.033203" xlink:href="#DejaVuSans-52"/>
       <use x="222.65625" xlink:href="#DejaVuSans-53"/>
      </g>
     </g>
    </g>
    <g id="xtick_15">
     <g id="line2d_18">
      <g>
       <use style="stroke:#000000;stroke-width:0.8;" x="446.542877" xlink:href="#mc3e8cb364a" y="176.818125"/>
      </g>
     </g>
     <g id="text_21">
      <!-- 2.750 -->
      <g transform="translate(432.228814 191.416562)scale(0.1 -0.1)">
       <use xlink:href="#DejaVuSans-50"/>
       <use x="63.623047" xlink:href="#DejaVuSans-46"/>
       <use x="95.410156" xlink:href="#DejaVuSans-55"/>
       <use x="159.033203" xlink:href="#DejaVuSans-53"/>
       <use x="222.65625" xlink:href="#DejaVuSans-48"/>
      </g>
     </g>
    </g>
    <g id="xtick_16">
     <g id="line2d_19">
      <g>
       <use style="stroke:#000000;stroke-width:0.8;" x="524.950493" xlink:href="#mc3e8cb364a" y="176.818125"/>
      </g>
     </g>
     <g id="text_22">
      <!-- 2.755 -->
      <g transform="translate(510.63643 191.416562)scale(0.1 -0.1)">
       <use xlink:href="#DejaVuSans-50"/>
       <use x="63.623047" xlink:href="#DejaVuSans-46"/>
       <use x="95.410156" xlink:href="#DejaVuSans-55"/>
       <use x="159.033203" xlink:href="#DejaVuSans-53"/>
       <use x="222.65625" xlink:href="#DejaVuSans-53"/>
      </g>
     </g>
    </g>
    <g id="xtick_17">
     <g id="line2d_20">
      <g>
       <use style="stroke:#000000;stroke-width:0.8;" x="603.358109" xlink:href="#mc3e8cb364a" y="176.818125"/>
      </g>
     </g>
     <g id="text_23">
      <!-- 2.760 -->
      <g transform="translate(589.044047 191.416562)scale(0.1 -0.1)">
       <use xlink:href="#DejaVuSans-50"/>
       <use x="63.623047" xlink:href="#DejaVuSans-46"/>
       <use x="95.410156" xlink:href="#DejaVuSans-55"/>
       <use x="159.033203" xlink:href="#DejaVuSans-54"/>
       <use x="222.65625" xlink:href="#DejaVuSans-48"/>
      </g>
     </g>
    </g>
    <g id="xtick_18">
     <g id="line2d_21">
      <g>
       <use style="stroke:#000000;stroke-width:0.8;" x="681.765725" xlink:href="#mc3e8cb364a" y="176.818125"/>
      </g>
     </g>
     <g id="text_24">
      <!-- 2.765 -->
      <g transform="translate(667.451663 191.416562)scale(0.1 -0.1)">
       <use xlink:href="#DejaVuSans-50"/>
       <use x="63.623047" xlink:href="#DejaVuSans-46"/>
       <use x="95.410156" xlink:href="#DejaVuSans-55"/>
       <use x="159.033203" xlink:href="#DejaVuSans-54"/>
       <use x="222.65625" xlink:href="#DejaVuSans-53"/>
      </g>
     </g>
    </g>
    <g id="text_25">
     <!-- Time (ms) -->
     <g transform="translate(347.565 205.094687)scale(0.1 -0.1)">
      <use xlink:href="#DejaVuSans-84"/>
      <use x="61.037109" xlink:href="#DejaVuSans-105"/>
      <use x="88.820312" xlink:href="#DejaVuSans-109"/>
      <use x="186.232422" xlink:href="#DejaVuSans-101"/>
      <use x="247.755859" xlink:href="#DejaVuSans-32"/>
      <use x="279.542969" xlink:href="#DejaVuSans-40"/>
      <use x="318.556641" xlink:href="#DejaVuSans-109"/>
      <use x="415.96875" xlink:href="#DejaVuSans-115"/>
      <use x="468.068359" xlink:href="#DejaVuSans-41"/>
     </g>
    </g>
    <g id="text_26">
     <!-- 1e5 -->
     <g transform="translate(686.355 204.094687)scale(0.1 -0.1)">
      <use xlink:href="#DejaVuSans-49"/>
      <use x="63.623047" xlink:href="#DejaVuSans-101"/>
      <use x="125.146484" xlink:href="#DejaVuSans-53"/>
     </g>
    </g>
   </g>
   <g id="matplotlib.axis_4">
    <g id="ytick_3">
     <g id="line2d_22">
      <g>
       <use style="stroke:#000000;stroke-width:0.8;" x="40.603125" xlink:href="#mc095b0bc7f" y="160.810041"/>
      </g>
     </g>
     <g id="text_27">
      <!-- 10 -->
      <g transform="translate(20.878125 164.60926)scale(0.1 -0.1)">
       <use xlink:href="#DejaVuSans-49"/>
       <use x="63.623047" xlink:href="#DejaVuSans-48"/>
      </g>
     </g>
    </g>
    <g id="ytick_4">
     <g id="line2d_23">
      <g>
       <use style="stroke:#000000;stroke-width:0.8;" x="40.603125" xlink:href="#mc095b0bc7f" y="136.372382"/>
      </g>
     </g>
     <g id="text_28">
      <!-- 20 -->
      <g transform="translate(20.878125 140.1716)scale(0.1 -0.1)">
       <use xlink:href="#DejaVuSans-50"/>
       <use x="63.623047" xlink:href="#DejaVuSans-48"/>
      </g>
     </g>
    </g>
    <g id="text_29">
     <!-- ADC Value -->
     <g transform="translate(14.798438 178.807187)rotate(-90)scale(0.1 -0.1)">
      <use xlink:href="#DejaVuSans-65"/>
      <use x="68.408203" xlink:href="#DejaVuSans-68"/>
      <use x="145.410156" xlink:href="#DejaVuSans-67"/>
      <use x="215.234375" xlink:href="#DejaVuSans-32"/>
      <use x="247.021484" xlink:href="#DejaVuSans-86"/>
      <use x="315.320312" xlink:href="#DejaVuSans-97"/>
      <use x="376.599609" xlink:href="#DejaVuSans-108"/>
      <use x="404.382812" xlink:href="#DejaVuSans-117"/>
      <use x="467.761719" xlink:href="#DejaVuSans-101"/>
     </g>
    </g>
   </g>
   <g id="line2d_24">
    <path clip-path="url(#p5a7edcdf02)" d="M 70.81358 170.920389 
L 72.381732 172.155713 
L 74.106699 172.857318 
L 75.831667 172.638845 
L 77.556635 171.265449 
L 79.281602 168.688498 
L 81.00657 165.05364 
L 82.574722 160.671479 
L 86.338288 151.386391 
L 88.063255 147.361753 
L 90.101853 144.199519 
L 91.670005 142.055359 
L 93.394973 140.910944 
L 95.119941 140.588367 
L 96.844908 140.793643 
L 99.981213 141.421935 
L 101.549365 141.283129 
L 102.960702 140.666567 
L 108.135605 137.347933 
L 110.017388 136.809083 
L 111.58554 137.166605 
L 113.310508 138.682962 
L 115.035475 141.459813 
L 116.760443 145.403319 
L 118.48541 150.224136 
L 119.896747 155.468946 
L 123.033052 165.000611 
L 124.914835 168.212697 
L 126.482987 169.863949 
L 128.207955 169.797234 
L 130.089737 168.079023 
L 132.128335 164.983749 
L 133.853303 160.948602 
L 135.26464 156.499726 
L 138.87139 148.405485 
L 140.753173 145.520619 
L 142.321326 143.638186 
L 144.203108 142.695382 
L 145.614445 142.469822 
L 149.064381 142.846162 
L 151.573424 142.792155 
L 153.141577 142.287028 
L 154.866544 141.30048 
L 156.748327 139.970338 
L 158.159664 138.582768 
L 159.571001 137.518019 
L 161.295969 137.179802 
L 162.864121 137.914153 
L 164.745904 139.935637 
L 166.470871 143.275287 
L 168.195839 147.757643 
L 169.763991 153.011739 
L 174.938894 167.913824 
L 176.820677 170.730997 
L 178.545644 171.816274 
L 180.113797 171.072147 
L 181.838764 168.632536 
L 183.720547 164.838833 
L 185.288699 160.184925 
L 186.700036 155.239232 
L 189.836341 146.598809 
L 191.718124 143.664335 
L 193.129461 141.859369 
L 194.854428 141.092271 
L 196.265766 141.107422 
L 199.872516 142.00624 
L 201.440668 142.153843 
L 203.008821 141.759175 
L 204.733788 140.758453 
L 206.458756 139.266778 
L 207.870093 137.561518 
L 209.59506 136.03392 
L 211.163213 135.120685 
L 212.57455 135.223323 
L 214.299517 136.630932 
L 215.710854 139.460569 
L 217.592637 143.623035 
L 219.003974 148.823369 
L 222.453909 160.354278 
L 224.178877 165.496939 
L 226.37429 169.470503 
L 227.942443 171.85904 
L 229.66741 172.441389 
L 231.235562 171.218284 
L 232.96053 168.40551 
L 234.685498 164.396023 
L 236.25365 159.693484 
L 241.428553 146.463913 
L 243.15352 143.527973 
L 244.721672 141.518953 
L 248.328423 139.627967 
L 251.621543 138.720841 
L 253.03288 138.01166 
L 254.757847 137.003606 
L 258.207782 134.592587 
L 259.775935 133.754131 
L 261.344087 133.642695 
L 263.069055 134.593076 
L 264.637207 136.830832 
L 266.51899 140.413882 
L 270.282555 150.850473 
L 275.457458 167.4803 
L 277.652871 170.910859 
L 279.221024 172.494419 
L 280.632361 172.037679 
L 282.357328 169.590247 
L 283.925481 165.440733 
L 285.650448 160.073979 
L 287.845861 154.102636 
L 289.414014 148.178215 
L 290.982166 142.899192 
L 292.550318 138.728905 
L 294.118471 135.935436 
L 295.843438 134.563995 
L 297.411591 134.443761 
L 299.136558 135.229677 
L 302.429678 137.685906 
L 304.311461 138.463023 
L 305.722798 138.517031 
L 307.29095 137.746022 
L 310.740885 134.296402 
L 312.152222 132.308888 
L 313.87719 130.757096 
L 315.288527 130.093125 
L 316.699864 130.666921 
L 318.581647 132.65859 
L 319.992984 136.041496 
L 321.717952 140.57517 
L 323.599734 145.83391 
L 325.167887 151.266157 
L 326.892854 156.273678 
L 328.617822 160.299294 
L 330.185974 162.90948 
L 332.067757 163.855462 
L 333.792724 163.106448 
L 335.674507 160.849385 
L 337.399475 157.45304 
L 339.124442 153.405674 
L 340.535779 149.235877 
L 342.260747 145.429222 
L 344.14253 142.355942 
L 345.710682 140.221069 
L 347.43565 139.04464 
L 348.846987 138.673432 
L 350.415139 138.825189 
L 352.140107 139.15241 
L 353.865074 139.316631 
L 355.590042 139.059302 
L 357.62864 138.257014 
L 359.196792 136.949599 
L 360.92176 135.337935 
L 362.333097 133.749976 
L 363.901249 132.582589 
L 365.626217 132.228732 
L 367.351184 133.000229 
L 369.076152 135.064722 
L 370.644304 138.404129 
L 372.526087 142.803152 
L 374.251054 147.871766 
L 375.819207 153.097027 
L 377.70099 157.9154 
L 379.425957 161.795856 
L 380.994109 164.317578 
L 382.562262 165.230813 
L 384.287229 164.490841 
L 386.012197 162.258216 
L 387.737164 158.868958 
L 389.305317 154.775894 
L 390.716654 150.475843 
L 392.598437 146.432388 
L 394.323404 143.007695 
L 395.891557 140.417303 
L 397.773339 138.710821 
L 399.498307 137.784145 
L 401.223274 137.419046 
L 404.67321 137.280974 
L 406.398177 137.044906 
L 408.436775 136.549555 
L 409.848112 135.845994 
L 413.141232 134.612137 
L 414.8662 134.65197 
L 416.591167 135.5046 
L 418.316135 137.353309 
L 420.041102 140.243062 
L 421.76607 144.05607 
L 423.177407 148.516188 
L 425.686451 153.221903 
L 428.979571 161.48281 
L 430.390908 164.162888 
L 432.272691 165.468347 
L 433.684028 165.294107 
L 435.408995 163.714701 
L 437.133963 160.966931 
L 438.85893 157.406852 
L 440.583898 153.449907 
L 442.779311 149.504935 
L 444.504279 145.913332 
L 447.640583 140.578347 
L 449.365551 138.901679 
L 450.933703 137.745289 
L 454.540454 136.257769 
L 461.126693 133.725539 
L 463.008476 133.563273 
L 464.890259 133.977491 
L 466.615226 135.151232 
L 468.183379 137.182246 
L 469.908346 140.049516 
L 471.790129 143.597131 
L 473.671912 147.547479 
L 475.083249 151.534238 
L 476.808217 155.154678 
L 478.533184 158.02928 
L 480.101336 159.861615 
L 481.669489 160.483065 
L 483.394456 159.8775 
L 484.962609 158.182259 
L 486.687576 155.660782 
L 489.51025 149.544769 
L 491.078403 146.650617 
L 492.80337 144.222491 
L 494.528338 142.386978 
L 496.253305 141.143101 
L 497.664642 140.378203 
L 502.839545 139.002118 
L 504.721328 138.280718 
L 509.739415 135.337691 
L 511.778013 134.756075 
L 513.346166 134.820346 
L 515.071133 135.757041 
L 516.48247 137.689571 
L 518.364253 140.603762 
L 520.402851 144.332949 
L 523.852786 152.917166 
L 527.302721 160.149002 
L 529.027689 162.269458 
L 530.752657 163.077611 
L 532.320809 162.536806 
L 533.732146 160.780471 
L 535.457114 158.085486 
L 537.025266 154.825502 
L 538.907049 151.409606 
L 540.318386 148.216093 
L 543.45469 143.535793 
L 545.336473 142.235954 
L 546.74781 141.527995 
L 550.04093 141.016759 
L 551.922713 140.720819 
L 553.33405 140.143357 
L 555.059018 139.215214 
L 556.470355 137.991132 
L 558.352137 136.642662 
L 559.763475 135.427622 
L 561.488442 134.640485 
L 563.21341 134.55422 
L 564.938377 135.363106 
L 567.13379 137.138502 
L 568.858758 139.803918 
L 570.42691 143.137459 
L 574.033661 150.380781 
L 575.601813 153.467013 
L 577.326781 155.703792 
L 579.522194 156.852362 
L 581.090346 156.828657 
L 582.658498 155.7143 
L 584.383466 153.742425 
L 587.676586 148.645218 
L 589.401553 146.29065 
L 590.969706 144.490572 
L 592.851489 143.418003 
L 594.733271 143.096892 
L 596.144608 143.405051 
L 597.869576 144.106168 
L 599.437728 144.900147 
L 601.162696 145.489339 
L 602.887663 145.640364 
L 604.455816 145.236898 
L 606.337599 144.309489 
L 608.062566 143.038486 
L 609.630718 141.72594 
L 611.355686 140.745989 
L 612.923838 140.475709 
L 614.491991 141.22399 
L 616.060143 143.167761 
L 617.785111 146.308489 
L 619.666893 150.456049 
L 621.235046 155.246319 
L 622.646383 160.187369 
L 624.214535 164.726909 
L 625.939503 168.334885 
L 627.66447 170.582172 
L 629.075807 171.203866 
L 630.800775 170.140583 
L 632.682558 167.543593 
L 634.25071 163.751113 
L 637.700645 154.516855 
L 639.268797 150.109523 
L 640.993765 146.418948 
L 642.561917 143.700258 
L 644.286885 142.026034 
L 646.168668 141.288261 
L 647.73682 141.232543 
L 650.873125 141.772371 
L 652.754907 141.701013 
L 654.479875 141.114998 
L 656.048027 139.989888 
L 659.654778 136.885328 
L 661.22293 135.638274 
L 662.947898 135.20695 
L 664.672865 136.036364 
L 666.241017 138.472554 
L 668.1228 142.70369 
L 669.847768 148.723908 
L 673.297703 165.122555 
L 675.02267 174.593125 
L 675.02267 174.593125 
" style="fill:none;stroke:#1f77b4;stroke-linecap:square;stroke-width:1.5;"/>
   </g>
   <g id="patch_8">
    <path d="M 40.603125 176.818125 
L 40.603125 127.868125 
" style="fill:none;stroke:#000000;stroke-linecap:square;stroke-linejoin:miter;stroke-width:0.8;"/>
   </g>
   <g id="patch_9">
    <path d="M 705.233125 176.818125 
L 705.233125 127.868125 
" style="fill:none;stroke:#000000;stroke-linecap:square;stroke-linejoin:miter;stroke-width:0.8;"/>
   </g>
   <g id="patch_10">
    <path d="M 40.603125 176.818125 
L 705.233125 176.818125 
" style="fill:none;stroke:#000000;stroke-linecap:square;stroke-linejoin:miter;stroke-width:0.8;"/>
   </g>
   <g id="patch_11">
    <path d="M 40.603125 127.868125 
L 705.233125 127.868125 
" style="fill:none;stroke:#000000;stroke-linecap:square;stroke-linejoin:miter;stroke-width:0.8;"/>
   </g>
   <g id="text_30">
    <!-- Pre-processed Signal -->
    <defs>
     <path d="M 19.671875 64.796875 
L 19.671875 37.40625 
L 32.078125 37.40625 
Q 38.96875 37.40625 42.71875 40.96875 
Q 46.484375 44.53125 46.484375 51.125 
Q 46.484375 57.671875 42.71875 61.234375 
Q 38.96875 64.796875 32.078125 64.796875 
z
M 9.8125 72.90625 
L 32.078125 72.90625 
Q 44.34375 72.90625 50.609375 67.359375 
Q 56.890625 61.8125 56.890625 51.125 
Q 56.890625 40.328125 50.609375 34.8125 
Q 44.34375 29.296875 32.078125 29.296875 
L 19.671875 29.296875 
L 19.671875 0 
L 9.8125 0 
z
" id="DejaVuSans-80"/>
     <path d="M 41.109375 46.296875 
Q 39.59375 47.171875 37.8125 47.578125 
Q 36.03125 48 33.890625 48 
Q 26.265625 48 22.1875 43.046875 
Q 18.109375 38.09375 18.109375 28.8125 
L 18.109375 0 
L 9.078125 0 
L 9.078125 54.6875 
L 18.109375 54.6875 
L 18.109375 46.1875 
Q 20.953125 51.171875 25.484375 53.578125 
Q 30.03125 56 36.53125 56 
Q 37.453125 56 38.578125 55.875 
Q 39.703125 55.765625 41.0625 55.515625 
z
" id="DejaVuSans-114"/>
     <path d="M 4.890625 31.390625 
L 31.203125 31.390625 
L 31.203125 23.390625 
L 4.890625 23.390625 
z
" id="DejaVuSans-45"/>
     <path d="M 30.609375 48.390625 
Q 23.390625 48.390625 19.1875 42.75 
Q 14.984375 37.109375 14.984375 27.296875 
Q 14.984375 17.484375 19.15625 11.84375 
Q 23.34375 6.203125 30.609375 6.203125 
Q 37.796875 6.203125 41.984375 11.859375 
Q 46.1875 17.53125 46.1875 27.296875 
Q 46.1875 37.015625 41.984375 42.703125 
Q 37.796875 48.390625 30.609375 48.390625 
z
M 30.609375 56 
Q 42.328125 56 49.015625 48.375 
Q 55.71875 40.765625 55.71875 27.296875 
Q 55.71875 13.875 49.015625 6.21875 
Q 42.328125 -1.421875 30.609375 -1.421875 
Q 18.84375 -1.421875 12.171875 6.21875 
Q 5.515625 13.875 5.515625 27.296875 
Q 5.515625 40.765625 12.171875 48.375 
Q 18.84375 56 30.609375 56 
z
" id="DejaVuSans-111"/>
     <path d="M 48.78125 52.59375 
L 48.78125 44.1875 
Q 44.96875 46.296875 41.140625 47.34375 
Q 37.3125 48.390625 33.40625 48.390625 
Q 24.65625 48.390625 19.8125 42.84375 
Q 14.984375 37.3125 14.984375 27.296875 
Q 14.984375 17.28125 19.8125 11.734375 
Q 24.65625 6.203125 33.40625 6.203125 
Q 37.3125 6.203125 41.140625 7.25 
Q 44.96875 8.296875 48.78125 10.40625 
L 48.78125 2.09375 
Q 45.015625 0.34375 40.984375 -0.53125 
Q 36.96875 -1.421875 32.421875 -1.421875 
Q 20.0625 -1.421875 12.78125 6.34375 
Q 5.515625 14.109375 5.515625 27.296875 
Q 5.515625 40.671875 12.859375 48.328125 
Q 20.21875 56 33.015625 56 
Q 37.15625 56 41.109375 55.140625 
Q 45.0625 54.296875 48.78125 52.59375 
z
" id="DejaVuSans-99"/>
     <path d="M 45.40625 46.390625 
L 45.40625 75.984375 
L 54.390625 75.984375 
L 54.390625 0 
L 45.40625 0 
L 45.40625 8.203125 
Q 42.578125 3.328125 38.25 0.953125 
Q 33.9375 -1.421875 27.875 -1.421875 
Q 17.96875 -1.421875 11.734375 6.484375 
Q 5.515625 14.40625 5.515625 27.296875 
Q 5.515625 40.1875 11.734375 48.09375 
Q 17.96875 56 27.875 56 
Q 33.9375 56 38.25 53.625 
Q 42.578125 51.265625 45.40625 46.390625 
z
M 14.796875 27.296875 
Q 14.796875 17.390625 18.875 11.75 
Q 22.953125 6.109375 30.078125 6.109375 
Q 37.203125 6.109375 41.296875 11.75 
Q 45.40625 17.390625 45.40625 27.296875 
Q 45.40625 37.203125 41.296875 42.84375 
Q 37.203125 48.484375 30.078125 48.484375 
Q 22.953125 48.484375 18.875 42.84375 
Q 14.796875 37.203125 14.796875 27.296875 
z
" id="DejaVuSans-100"/>
    </defs>
    <g transform="translate(309.95375 121.868125)scale(0.12 -0.12)">
     <use xlink:href="#DejaVuSans-80"/>
     <use x="60.287109" xlink:href="#DejaVuSans-114"/>
     <use x="101.369141" xlink:href="#DejaVuSans-101"/>
     <use x="162.892578" xlink:href="#DejaVuSans-45"/>
     <use x="198.976562" xlink:href="#DejaVuSans-112"/>
     <use x="262.453125" xlink:href="#DejaVuSans-114"/>
     <use x="303.535156" xlink:href="#DejaVuSans-111"/>
     <use x="364.716797" xlink:href="#DejaVuSans-99"/>
     <use x="419.697266" xlink:href="#DejaVuSans-101"/>
     <use x="481.220703" xlink:href="#DejaVuSans-115"/>
     <use x="533.320312" xlink:href="#DejaVuSans-115"/>
     <use x="585.419922" xlink:href="#DejaVuSans-101"/>
     <use x="646.943359" xlink:href="#DejaVuSans-100"/>
     <use x="710.419922" xlink:href="#DejaVuSans-32"/>
     <use x="742.207031" xlink:href="#DejaVuSans-83"/>
     <use x="805.683594" xlink:href="#DejaVuSans-105"/>
     <use x="833.466797" xlink:href="#DejaVuSans-103"/>
     <use x="896.943359" xlink:href="#DejaVuSans-110"/>
     <use x="960.322266" xlink:href="#DejaVuSans-97"/>
     <use x="1021.601562" xlink:href="#DejaVuSans-108"/>
    </g>
   </g>
  </g>
  <g id="axes_3">
   <g id="patch_12">
    <path d="M 40.603125 282.368125 
L 705.233125 282.368125 
L 705.233125 233.418125 
L 40.603125 233.418125 
z
" style="fill:#ffffff;"/>
   </g>
   <g id="matplotlib.axis_5">
    <g id="xtick_19">
     <g id="line2d_25">
      <g>
       <use style="stroke:#000000;stroke-width:0.8;" x="54.504795" xlink:href="#mc3e8cb364a" y="282.368125"/>
      </g>
     </g>
     <g id="text_31">
      <!-- 2.725 -->
      <g transform="translate(40.190733 296.966563)scale(0.1 -0.1)">
       <use xlink:href="#DejaVuSans-50"/>
       <use x="63.623047" xlink:href="#DejaVuSans-46"/>
       <use x="95.410156" xlink:href="#DejaVuSans-55"/>
       <use x="159.033203" xlink:href="#DejaVuSans-50"/>
       <use x="222.65625" xlink:href="#DejaVuSans-53"/>
      </g>
     </g>
    </g>
    <g id="xtick_20">
     <g id="line2d_26">
      <g>
       <use style="stroke:#000000;stroke-width:0.8;" x="132.912412" xlink:href="#mc3e8cb364a" y="282.368125"/>
      </g>
     </g>
     <g id="text_32">
      <!-- 2.730 -->
      <g transform="translate(118.598349 296.966563)scale(0.1 -0.1)">
       <use xlink:href="#DejaVuSans-50"/>
       <use x="63.623047" xlink:href="#DejaVuSans-46"/>
       <use x="95.410156" xlink:href="#DejaVuSans-55"/>
       <use x="159.033203" xlink:href="#DejaVuSans-51"/>
       <use x="222.65625" xlink:href="#DejaVuSans-48"/>
      </g>
     </g>
    </g>
    <g id="xtick_21">
     <g id="line2d_27">
      <g>
       <use style="stroke:#000000;stroke-width:0.8;" x="211.320028" xlink:href="#mc3e8cb364a" y="282.368125"/>
      </g>
     </g>
     <g id="text_33">
      <!-- 2.735 -->
      <g transform="translate(197.005965 296.966563)scale(0.1 -0.1)">
       <use xlink:href="#DejaVuSans-50"/>
       <use x="63.623047" xlink:href="#DejaVuSans-46"/>
       <use x="95.410156" xlink:href="#DejaVuSans-55"/>
       <use x="159.033203" xlink:href="#DejaVuSans-51"/>
       <use x="222.65625" xlink:href="#DejaVuSans-53"/>
      </g>
     </g>
    </g>
    <g id="xtick_22">
     <g id="line2d_28">
      <g>
       <use style="stroke:#000000;stroke-width:0.8;" x="289.727644" xlink:href="#mc3e8cb364a" y="282.368125"/>
      </g>
     </g>
     <g id="text_34">
      <!-- 2.740 -->
      <g transform="translate(275.413582 296.966563)scale(0.1 -0.1)">
       <use xlink:href="#DejaVuSans-50"/>
       <use x="63.623047" xlink:href="#DejaVuSans-46"/>
       <use x="95.410156" xlink:href="#DejaVuSans-55"/>
       <use x="159.033203" xlink:href="#DejaVuSans-52"/>
       <use x="222.65625" xlink:href="#DejaVuSans-48"/>
      </g>
     </g>
    </g>
    <g id="xtick_23">
     <g id="line2d_29">
      <g>
       <use style="stroke:#000000;stroke-width:0.8;" x="368.13526" xlink:href="#mc3e8cb364a" y="282.368125"/>
      </g>
     </g>
     <g id="text_35">
      <!-- 2.745 -->
      <g transform="translate(353.821198 296.966563)scale(0.1 -0.1)">
       <use xlink:href="#DejaVuSans-50"/>
       <use x="63.623047" xlink:href="#DejaVuSans-46"/>
       <use x="95.410156" xlink:href="#DejaVuSans-55"/>
       <use x="159.033203" xlink:href="#DejaVuSans-52"/>
       <use x="222.65625" xlink:href="#DejaVuSans-53"/>
      </g>
     </g>
    </g>
    <g id="xtick_24">
     <g id="line2d_30">
      <g>
       <use style="stroke:#000000;stroke-width:0.8;" x="446.542877" xlink:href="#mc3e8cb364a" y="282.368125"/>
      </g>
     </g>
     <g id="text_36">
      <!-- 2.750 -->
      <g transform="translate(432.228814 296.966563)scale(0.1 -0.1)">
       <use xlink:href="#DejaVuSans-50"/>
       <use x="63.623047" xlink:href="#DejaVuSans-46"/>
       <use x="95.410156" xlink:href="#DejaVuSans-55"/>
       <use x="159.033203" xlink:href="#DejaVuSans-53"/>
       <use x="222.65625" xlink:href="#DejaVuSans-48"/>
      </g>
     </g>
    </g>
    <g id="xtick_25">
     <g id="line2d_31">
      <g>
       <use style="stroke:#000000;stroke-width:0.8;" x="524.950493" xlink:href="#mc3e8cb364a" y="282.368125"/>
      </g>
     </g>
     <g id="text_37">
      <!-- 2.755 -->
      <g transform="translate(510.63643 296.966563)scale(0.1 -0.1)">
       <use xlink:href="#DejaVuSans-50"/>
       <use x="63.623047" xlink:href="#DejaVuSans-46"/>
       <use x="95.410156" xlink:href="#DejaVuSans-55"/>
       <use x="159.033203" xlink:href="#DejaVuSans-53"/>
       <use x="222.65625" xlink:href="#DejaVuSans-53"/>
      </g>
     </g>
    </g>
    <g id="xtick_26">
     <g id="line2d_32">
      <g>
       <use style="stroke:#000000;stroke-width:0.8;" x="603.358109" xlink:href="#mc3e8cb364a" y="282.368125"/>
      </g>
     </g>
     <g id="text_38">
      <!-- 2.760 -->
      <g transform="translate(589.044047 296.966563)scale(0.1 -0.1)">
       <use xlink:href="#DejaVuSans-50"/>
       <use x="63.623047" xlink:href="#DejaVuSans-46"/>
       <use x="95.410156" xlink:href="#DejaVuSans-55"/>
       <use x="159.033203" xlink:href="#DejaVuSans-54"/>
       <use x="222.65625" xlink:href="#DejaVuSans-48"/>
      </g>
     </g>
    </g>
    <g id="xtick_27">
     <g id="line2d_33">
      <g>
       <use style="stroke:#000000;stroke-width:0.8;" x="681.765725" xlink:href="#mc3e8cb364a" y="282.368125"/>
      </g>
     </g>
     <g id="text_39">
      <!-- 2.765 -->
      <g transform="translate(667.451663 296.966563)scale(0.1 -0.1)">
       <use xlink:href="#DejaVuSans-50"/>
       <use x="63.623047" xlink:href="#DejaVuSans-46"/>
       <use x="95.410156" xlink:href="#DejaVuSans-55"/>
       <use x="159.033203" xlink:href="#DejaVuSans-54"/>
       <use x="222.65625" xlink:href="#DejaVuSans-53"/>
      </g>
     </g>
    </g>
    <g id="text_40">
     <!-- 1e5 -->
     <g transform="translate(686.355 309.644687)scale(0.1 -0.1)">
      <use xlink:href="#DejaVuSans-49"/>
      <use x="63.623047" xlink:href="#DejaVuSans-101"/>
      <use x="125.146484" xlink:href="#DejaVuSans-53"/>
     </g>
    </g>
   </g>
   <g id="matplotlib.axis_6">
    <g id="ytick_5">
     <g id="line2d_34">
      <g>
       <use style="stroke:#000000;stroke-width:0.8;" x="40.603125" xlink:href="#mc095b0bc7f" y="266.360041"/>
      </g>
     </g>
     <g id="text_41">
      <!-- 10 -->
      <g transform="translate(20.878125 270.15926)scale(0.1 -0.1)">
       <use xlink:href="#DejaVuSans-49"/>
       <use x="63.623047" xlink:href="#DejaVuSans-48"/>
      </g>
     </g>
    </g>
    <g id="ytick_6">
     <g id="line2d_35">
      <g>
       <use style="stroke:#000000;stroke-width:0.8;" x="40.603125" xlink:href="#mc095b0bc7f" y="241.922382"/>
      </g>
     </g>
     <g id="text_42">
      <!-- 20 -->
      <g transform="translate(20.878125 245.7216)scale(0.1 -0.1)">
       <use xlink:href="#DejaVuSans-50"/>
       <use x="63.623047" xlink:href="#DejaVuSans-48"/>
      </g>
     </g>
    </g>
   </g>
   <g id="LineCollection_1">
    <path clip-path="url(#p95507507a8)" d="M 161.295969 275.413949 
L 161.295969 242.729802 
" style="fill:none;stroke:#000000;stroke-width:1.5;"/>
    <path clip-path="url(#p95507507a8)" d="M 211.163213 277.991389 
L 211.163213 240.670685 
" style="fill:none;stroke:#000000;stroke-width:1.5;"/>
    <path clip-path="url(#p95507507a8)" d="M 261.344087 278.044419 
L 261.344087 239.192695 
" style="fill:none;stroke:#000000;stroke-width:1.5;"/>
    <path clip-path="url(#p95507507a8)" d="M 315.288527 278.407318 
L 315.288527 235.643125 
" style="fill:none;stroke:#000000;stroke-width:1.5;"/>
    <path clip-path="url(#p95507507a8)" d="M 365.626217 269.405462 
L 365.626217 237.778732 
" style="fill:none;stroke:#000000;stroke-width:1.5;"/>
    <path clip-path="url(#p95507507a8)" d="M 413.141232 270.780813 
L 413.141232 240.162137 
" style="fill:none;stroke:#000000;stroke-width:1.5;"/>
    <path clip-path="url(#p95507507a8)" d="M 463.008476 271.018347 
L 463.008476 239.113273 
" style="fill:none;stroke:#000000;stroke-width:1.5;"/>
    <path clip-path="url(#p95507507a8)" d="M 511.778013 266.033065 
L 511.778013 240.306075 
" style="fill:none;stroke:#000000;stroke-width:1.5;"/>
    <path clip-path="url(#p95507507a8)" d="M 563.21341 268.627611 
L 563.21341 240.10422 
" style="fill:none;stroke:#000000;stroke-width:1.5;"/>
    <path clip-path="url(#p95507507a8)" d="M 612.923838 262.402362 
L 612.923838 246.025709 
" style="fill:none;stroke:#000000;stroke-width:1.5;"/>
    <path clip-path="url(#p95507507a8)" d="M 662.947898 276.753866 
L 662.947898 240.75695 
" style="fill:none;stroke:#000000;stroke-width:1.5;"/>
   </g>
   <g id="line2d_36">
    <path clip-path="url(#p95507507a8)" d="M 70.81358 276.470389 
L 72.381732 277.705713 
L 74.106699 278.407318 
L 75.831667 278.188845 
L 77.556635 276.815449 
L 79.281602 274.238498 
L 81.00657 270.60364 
L 82.574722 266.221479 
L 86.338288 256.936391 
L 88.063255 252.911753 
L 90.101853 249.749519 
L 91.670005 247.605359 
L 93.394973 246.460944 
L 95.119941 246.138367 
L 96.844908 246.343643 
L 99.981213 246.971935 
L 101.549365 246.833129 
L 102.960702 246.216567 
L 108.135605 242.897933 
L 110.017388 242.359083 
L 111.58554 242.716605 
L 113.310508 244.232962 
L 115.035475 247.009813 
L 116.760443 250.953319 
L 118.48541 255.774136 
L 119.896747 261.018946 
L 123.033052 270.550611 
L 124.914835 273.762697 
L 126.482987 275.413949 
L 128.207955 275.347234 
L 130.089737 273.629023 
L 132.128335 270.533749 
L 133.853303 266.498602 
L 135.26464 262.049726 
L 138.87139 253.955485 
L 140.753173 251.070619 
L 142.321326 249.188186 
L 144.203108 248.245382 
L 145.614445 248.019822 
L 149.064381 248.396162 
L 151.573424 248.342155 
L 153.141577 247.837028 
L 154.866544 246.85048 
L 156.748327 245.520338 
L 158.159664 244.132768 
L 159.571001 243.068019 
L 161.295969 242.729802 
L 162.864121 243.464153 
L 164.745904 245.485637 
L 166.470871 248.825287 
L 168.195839 253.307643 
L 169.763991 258.561739 
L 174.938894 273.463824 
L 176.820677 276.280997 
L 178.545644 277.366274 
L 180.113797 276.622147 
L 181.838764 274.182536 
L 183.720547 270.388833 
L 185.288699 265.734925 
L 186.700036 260.789232 
L 189.836341 252.148809 
L 191.718124 249.214335 
L 193.129461 247.409369 
L 194.854428 246.642271 
L 196.265766 246.657422 
L 199.872516 247.55624 
L 201.440668 247.703843 
L 203.008821 247.309175 
L 204.733788 246.308453 
L 206.458756 244.816778 
L 207.870093 243.111518 
L 209.59506 241.58392 
L 211.163213 240.670685 
L 212.57455 240.773323 
L 214.299517 242.180932 
L 215.710854 245.010569 
L 217.592637 249.173035 
L 219.003974 254.373369 
L 222.453909 265.904278 
L 224.178877 271.046939 
L 226.37429 275.020503 
L 227.942443 277.40904 
L 229.66741 277.991389 
L 231.235562 276.768284 
L 232.96053 273.95551 
L 234.685498 269.946023 
L 236.25365 265.243484 
L 241.428553 252.013913 
L 243.15352 249.077973 
L 244.721672 247.068953 
L 248.328423 245.177967 
L 251.621543 244.270841 
L 253.03288 243.56166 
L 254.757847 242.553606 
L 258.207782 240.142587 
L 259.775935 239.304131 
L 261.344087 239.192695 
L 263.069055 240.143076 
L 264.637207 242.380832 
L 266.51899 245.963882 
L 270.282555 256.400473 
L 275.457458 273.0303 
L 277.652871 276.460859 
L 279.221024 278.044419 
L 280.632361 277.587679 
L 282.357328 275.140247 
L 283.925481 270.990733 
L 285.650448 265.623979 
L 287.845861 259.652636 
L 289.414014 253.728215 
L 290.982166 248.449192 
L 292.550318 244.278905 
L 294.118471 241.485436 
L 295.843438 240.113995 
L 297.411591 239.993761 
L 299.136558 240.779677 
L 302.429678 243.235906 
L 304.311461 244.013023 
L 305.722798 244.067031 
L 307.29095 243.296022 
L 310.740885 239.846402 
L 312.152222 237.858888 
L 313.87719 236.307096 
L 315.288527 235.643125 
L 316.699864 236.216921 
L 318.581647 238.20859 
L 319.992984 241.591496 
L 321.717952 246.12517 
L 323.599734 251.38391 
L 325.167887 256.816157 
L 326.892854 261.823678 
L 328.617822 265.849294 
L 330.185974 268.45948 
L 332.067757 269.405462 
L 333.792724 268.656448 
L 335.674507 266.399385 
L 337.399475 263.00304 
L 339.124442 258.955674 
L 340.535779 254.785877 
L 342.260747 250.979222 
L 344.14253 247.905942 
L 345.710682 245.771069 
L 347.43565 244.59464 
L 348.846987 244.223432 
L 350.415139 244.375189 
L 352.140107 244.70241 
L 353.865074 244.866631 
L 355.590042 244.609302 
L 357.62864 243.807014 
L 359.196792 242.499599 
L 360.92176 240.887935 
L 362.333097 239.299976 
L 363.901249 238.132589 
L 365.626217 237.778732 
L 367.351184 238.550229 
L 369.076152 240.614722 
L 370.644304 243.954129 
L 372.526087 248.353152 
L 374.251054 253.421766 
L 375.819207 258.647027 
L 377.70099 263.4654 
L 379.425957 267.345856 
L 380.994109 269.867578 
L 382.562262 270.780813 
L 384.287229 270.040841 
L 386.012197 267.808216 
L 387.737164 264.418958 
L 389.305317 260.325894 
L 390.716654 256.025843 
L 392.598437 251.982388 
L 394.323404 248.557695 
L 395.891557 245.967303 
L 397.773339 244.260821 
L 399.498307 243.334145 
L 401.223274 242.969046 
L 404.67321 242.830974 
L 406.398177 242.594906 
L 408.436775 242.099555 
L 409.848112 241.395994 
L 413.141232 240.162137 
L 414.8662 240.20197 
L 416.591167 241.0546 
L 418.316135 242.903309 
L 420.041102 245.793062 
L 421.76607 249.60607 
L 423.177407 254.066188 
L 425.686451 258.771903 
L 428.979571 267.03281 
L 430.390908 269.712888 
L 432.272691 271.018347 
L 433.684028 270.844107 
L 435.408995 269.264701 
L 437.133963 266.516931 
L 438.85893 262.956852 
L 440.583898 258.999907 
L 442.779311 255.054935 
L 444.504279 251.463332 
L 447.640583 246.128347 
L 449.365551 244.451679 
L 450.933703 243.295289 
L 454.540454 241.807769 
L 461.126693 239.275539 
L 463.008476 239.113273 
L 464.890259 239.527491 
L 466.615226 240.701232 
L 468.183379 242.732246 
L 469.908346 245.599516 
L 471.790129 249.147131 
L 473.671912 253.097479 
L 475.083249 257.084238 
L 476.808217 260.704678 
L 478.533184 263.57928 
L 480.101336 265.411615 
L 481.669489 266.033065 
L 483.394456 265.4275 
L 484.962609 263.732259 
L 486.687576 261.210782 
L 489.51025 255.094769 
L 491.078403 252.200617 
L 492.80337 249.772491 
L 494.528338 247.936978 
L 496.253305 246.693101 
L 497.664642 245.928203 
L 502.839545 244.552118 
L 504.721328 243.830718 
L 509.739415 240.887691 
L 511.778013 240.306075 
L 513.346166 240.370346 
L 515.071133 241.307041 
L 516.48247 243.239571 
L 518.364253 246.153762 
L 520.402851 249.882949 
L 523.852786 258.467166 
L 527.302721 265.699002 
L 529.027689 267.819458 
L 530.752657 268.627611 
L 532.320809 268.086806 
L 533.732146 266.330471 
L 535.457114 263.635486 
L 537.025266 260.375502 
L 538.907049 256.959606 
L 540.318386 253.766093 
L 543.45469 249.085793 
L 545.336473 247.785954 
L 546.74781 247.077995 
L 550.04093 246.566759 
L 551.922713 246.270819 
L 553.33405 245.693357 
L 555.059018 244.765214 
L 556.470355 243.541132 
L 558.352137 242.192662 
L 559.763475 240.977622 
L 561.488442 240.190485 
L 563.21341 240.10422 
L 564.938377 240.913106 
L 567.13379 242.688502 
L 568.858758 245.353918 
L 570.42691 248.687459 
L 574.033661 255.930781 
L 575.601813 259.017013 
L 577.326781 261.253792 
L 579.522194 262.402362 
L 581.090346 262.378657 
L 582.658498 261.2643 
L 584.383466 259.292425 
L 587.676586 254.195218 
L 589.401553 251.84065 
L 590.969706 250.040572 
L 592.851489 248.968003 
L 594.733271 248.646892 
L 596.144608 248.955051 
L 597.869576 249.656168 
L 599.437728 250.450147 
L 601.162696 251.039339 
L 602.887663 251.190364 
L 604.455816 250.786898 
L 606.337599 249.859489 
L 608.062566 248.588486 
L 609.630718 247.27594 
L 611.355686 246.295989 
L 612.923838 246.025709 
L 614.491991 246.77399 
L 616.060143 248.717761 
L 617.785111 251.858489 
L 619.666893 256.006049 
L 621.235046 260.796319 
L 622.646383 265.737369 
L 624.214535 270.276909 
L 625.939503 273.884885 
L 627.66447 276.132172 
L 629.075807 276.753866 
L 630.800775 275.690583 
L 632.682558 273.093593 
L 634.25071 269.301113 
L 637.700645 260.066855 
L 639.268797 255.659523 
L 640.993765 251.968948 
L 642.561917 249.250258 
L 644.286885 247.576034 
L 646.168668 246.838261 
L 647.73682 246.782543 
L 650.873125 247.322371 
L 652.754907 247.251013 
L 654.479875 246.664998 
L 656.048027 245.539888 
L 659.654778 242.435328 
L 661.22293 241.188274 
L 662.947898 240.75695 
L 664.672865 241.586364 
L 666.241017 244.022554 
L 668.1228 248.25369 
L 669.847768 254.273908 
L 673.297703 270.672555 
L 675.02267 280.143125 
L 675.02267 280.143125 
" style="fill:none;stroke:#1f77b4;stroke-linecap:square;stroke-width:1.5;"/>
   </g>
   <g id="line2d_37">
    <defs>
     <path d="M -3 3 
L 3 -3 
M -3 -3 
L 3 3 
" id="mf6ea0d2604" style="stroke:#008000;"/>
    </defs>
    <g clip-path="url(#p95507507a8)">
     <use style="fill:#008000;stroke:#008000;" x="161.295969" xlink:href="#mf6ea0d2604" y="242.729802"/>
     <use style="fill:#008000;stroke:#008000;" x="211.163213" xlink:href="#mf6ea0d2604" y="240.670685"/>
     <use style="fill:#008000;stroke:#008000;" x="261.344087" xlink:href="#mf6ea0d2604" y="239.192695"/>
     <use style="fill:#008000;stroke:#008000;" x="315.288527" xlink:href="#mf6ea0d2604" y="235.643125"/>
     <use style="fill:#008000;stroke:#008000;" x="365.626217" xlink:href="#mf6ea0d2604" y="237.778732"/>
     <use style="fill:#008000;stroke:#008000;" x="413.141232" xlink:href="#mf6ea0d2604" y="240.162137"/>
     <use style="fill:#008000;stroke:#008000;" x="463.008476" xlink:href="#mf6ea0d2604" y="239.113273"/>
     <use style="fill:#008000;stroke:#008000;" x="511.778013" xlink:href="#mf6ea0d2604" y="240.306075"/>
     <use style="fill:#008000;stroke:#008000;" x="563.21341" xlink:href="#mf6ea0d2604" y="240.10422"/>
     <use style="fill:#008000;stroke:#008000;" x="612.923838" xlink:href="#mf6ea0d2604" y="246.025709"/>
     <use style="fill:#008000;stroke:#008000;" x="662.947898" xlink:href="#mf6ea0d2604" y="240.75695"/>
    </g>
   </g>
   <g id="line2d_38">
    <defs>
     <path d="M -3 3 
L 3 -3 
M -3 -3 
L 3 3 
" id="m20c4619a1f" style="stroke:#ff0000;"/>
    </defs>
    <g clip-path="url(#p95507507a8)">
     <use style="fill:#ff0000;stroke:#ff0000;" x="161.295969" xlink:href="#m20c4619a1f" y="275.413949"/>
     <use style="fill:#ff0000;stroke:#ff0000;" x="211.163213" xlink:href="#m20c4619a1f" y="277.991389"/>
     <use style="fill:#ff0000;stroke:#ff0000;" x="261.344087" xlink:href="#m20c4619a1f" y="278.044419"/>
     <use style="fill:#ff0000;stroke:#ff0000;" x="315.288527" xlink:href="#m20c4619a1f" y="278.407318"/>
     <use style="fill:#ff0000;stroke:#ff0000;" x="365.626217" xlink:href="#m20c4619a1f" y="269.405462"/>
     <use style="fill:#ff0000;stroke:#ff0000;" x="413.141232" xlink:href="#m20c4619a1f" y="270.780813"/>
     <use style="fill:#ff0000;stroke:#ff0000;" x="463.008476" xlink:href="#m20c4619a1f" y="271.018347"/>
     <use style="fill:#ff0000;stroke:#ff0000;" x="511.778013" xlink:href="#m20c4619a1f" y="266.033065"/>
     <use style="fill:#ff0000;stroke:#ff0000;" x="563.21341" xlink:href="#m20c4619a1f" y="268.627611"/>
     <use style="fill:#ff0000;stroke:#ff0000;" x="612.923838" xlink:href="#m20c4619a1f" y="262.402362"/>
     <use style="fill:#ff0000;stroke:#ff0000;" x="662.947898" xlink:href="#m20c4619a1f" y="276.753866"/>
    </g>
   </g>
   <g id="patch_13">
    <path d="M 40.603125 282.368125 
L 40.603125 233.418125 
" style="fill:none;stroke:#000000;stroke-linecap:square;stroke-linejoin:miter;stroke-width:0.8;"/>
   </g>
   <g id="patch_14">
    <path d="M 705.233125 282.368125 
L 705.233125 233.418125 
" style="fill:none;stroke:#000000;stroke-linecap:square;stroke-linejoin:miter;stroke-width:0.8;"/>
   </g>
   <g id="patch_15">
    <path d="M 40.603125 282.368125 
L 705.233125 282.368125 
" style="fill:none;stroke:#000000;stroke-linecap:square;stroke-linejoin:miter;stroke-width:0.8;"/>
   </g>
   <g id="patch_16">
    <path d="M 40.603125 233.418125 
L 705.233125 233.418125 
" style="fill:none;stroke:#000000;stroke-linecap:square;stroke-linejoin:miter;stroke-width:0.8;"/>
   </g>
   <g id="text_43">
    <!-- AC Components -->
    <g transform="translate(324.757813 227.418125)scale(0.12 -0.12)">
     <use xlink:href="#DejaVuSans-65"/>
     <use x="68.392578" xlink:href="#DejaVuSans-67"/>
     <use x="138.216797" xlink:href="#DejaVuSans-32"/>
     <use x="170.003906" xlink:href="#DejaVuSans-67"/>
     <use x="239.828125" xlink:href="#DejaVuSans-111"/>
     <use x="301.009766" xlink:href="#DejaVuSans-109"/>
     <use x="398.421875" xlink:href="#DejaVuSans-112"/>
     <use x="461.898438" xlink:href="#DejaVuSans-111"/>
     <use x="523.080078" xlink:href="#DejaVuSans-110"/>
     <use x="586.458984" xlink:href="#DejaVuSans-101"/>
     <use x="647.982422" xlink:href="#DejaVuSans-110"/>
     <use x="711.361328" xlink:href="#DejaVuSans-116"/>
     <use x="750.570312" xlink:href="#DejaVuSans-115"/>
    </g>
   </g>
  </g>
  <g id="axes_4">
   <g id="patch_17">
    <path d="M 40.603125 387.918125 
L 705.233125 387.918125 
L 705.233125 338.968125 
L 40.603125 338.968125 
z
" style="fill:#ffffff;"/>
   </g>
   <g id="matplotlib.axis_7">
    <g id="xtick_28">
     <g id="line2d_39">
      <g>
       <use style="stroke:#000000;stroke-width:0.8;" x="54.504795" xlink:href="#mc3e8cb364a" y="387.918125"/>
      </g>
     </g>
     <g id="text_44">
      <!-- 2.725 -->
      <g transform="translate(40.190733 402.516563)scale(0.1 -0.1)">
       <use xlink:href="#DejaVuSans-50"/>
       <use x="63.623047" xlink:href="#DejaVuSans-46"/>
       <use x="95.410156" xlink:href="#DejaVuSans-55"/>
       <use x="159.033203" xlink:href="#DejaVuSans-50"/>
       <use x="222.65625" xlink:href="#DejaVuSans-53"/>
      </g>
     </g>
    </g>
    <g id="xtick_29">
     <g id="line2d_40">
      <g>
       <use style="stroke:#000000;stroke-width:0.8;" x="132.912412" xlink:href="#mc3e8cb364a" y="387.918125"/>
      </g>
     </g>
     <g id="text_45">
      <!-- 2.730 -->
      <g transform="translate(118.598349 402.516563)scale(0.1 -0.1)">
       <use xlink:href="#DejaVuSans-50"/>
       <use x="63.623047" xlink:href="#DejaVuSans-46"/>
       <use x="95.410156" xlink:href="#DejaVuSans-55"/>
       <use x="159.033203" xlink:href="#DejaVuSans-51"/>
       <use x="222.65625" xlink:href="#DejaVuSans-48"/>
      </g>
     </g>
    </g>
    <g id="xtick_30">
     <g id="line2d_41">
      <g>
       <use style="stroke:#000000;stroke-width:0.8;" x="211.320028" xlink:href="#mc3e8cb364a" y="387.918125"/>
      </g>
     </g>
     <g id="text_46">
      <!-- 2.735 -->
      <g transform="translate(197.005965 402.516563)scale(0.1 -0.1)">
       <use xlink:href="#DejaVuSans-50"/>
       <use x="63.623047" xlink:href="#DejaVuSans-46"/>
       <use x="95.410156" xlink:href="#DejaVuSans-55"/>
       <use x="159.033203" xlink:href="#DejaVuSans-51"/>
       <use x="222.65625" xlink:href="#DejaVuSans-53"/>
      </g>
     </g>
    </g>
    <g id="xtick_31">
     <g id="line2d_42">
      <g>
       <use style="stroke:#000000;stroke-width:0.8;" x="289.727644" xlink:href="#mc3e8cb364a" y="387.918125"/>
      </g>
     </g>
     <g id="text_47">
      <!-- 2.740 -->
      <g transform="translate(275.413582 402.516563)scale(0.1 -0.1)">
       <use xlink:href="#DejaVuSans-50"/>
       <use x="63.623047" xlink:href="#DejaVuSans-46"/>
       <use x="95.410156" xlink:href="#DejaVuSans-55"/>
       <use x="159.033203" xlink:href="#DejaVuSans-52"/>
       <use x="222.65625" xlink:href="#DejaVuSans-48"/>
      </g>
     </g>
    </g>
    <g id="xtick_32">
     <g id="line2d_43">
      <g>
       <use style="stroke:#000000;stroke-width:0.8;" x="368.13526" xlink:href="#mc3e8cb364a" y="387.918125"/>
      </g>
     </g>
     <g id="text_48">
      <!-- 2.745 -->
      <g transform="translate(353.821198 402.516563)scale(0.1 -0.1)">
       <use xlink:href="#DejaVuSans-50"/>
       <use x="63.623047" xlink:href="#DejaVuSans-46"/>
       <use x="95.410156" xlink:href="#DejaVuSans-55"/>
       <use x="159.033203" xlink:href="#DejaVuSans-52"/>
       <use x="222.65625" xlink:href="#DejaVuSans-53"/>
      </g>
     </g>
    </g>
    <g id="xtick_33">
     <g id="line2d_44">
      <g>
       <use style="stroke:#000000;stroke-width:0.8;" x="446.542877" xlink:href="#mc3e8cb364a" y="387.918125"/>
      </g>
     </g>
     <g id="text_49">
      <!-- 2.750 -->
      <g transform="translate(432.228814 402.516563)scale(0.1 -0.1)">
       <use xlink:href="#DejaVuSans-50"/>
       <use x="63.623047" xlink:href="#DejaVuSans-46"/>
       <use x="95.410156" xlink:href="#DejaVuSans-55"/>
       <use x="159.033203" xlink:href="#DejaVuSans-53"/>
       <use x="222.65625" xlink:href="#DejaVuSans-48"/>
      </g>
     </g>
    </g>
    <g id="xtick_34">
     <g id="line2d_45">
      <g>
       <use style="stroke:#000000;stroke-width:0.8;" x="524.950493" xlink:href="#mc3e8cb364a" y="387.918125"/>
      </g>
     </g>
     <g id="text_50">
      <!-- 2.755 -->
      <g transform="translate(510.63643 402.516563)scale(0.1 -0.1)">
       <use xlink:href="#DejaVuSans-50"/>
       <use x="63.623047" xlink:href="#DejaVuSans-46"/>
       <use x="95.410156" xlink:href="#DejaVuSans-55"/>
       <use x="159.033203" xlink:href="#DejaVuSans-53"/>
       <use x="222.65625" xlink:href="#DejaVuSans-53"/>
      </g>
     </g>
    </g>
    <g id="xtick_35">
     <g id="line2d_46">
      <g>
       <use style="stroke:#000000;stroke-width:0.8;" x="603.358109" xlink:href="#mc3e8cb364a" y="387.918125"/>
      </g>
     </g>
     <g id="text_51">
      <!-- 2.760 -->
      <g transform="translate(589.044047 402.516563)scale(0.1 -0.1)">
       <use xlink:href="#DejaVuSans-50"/>
       <use x="63.623047" xlink:href="#DejaVuSans-46"/>
       <use x="95.410156" xlink:href="#DejaVuSans-55"/>
       <use x="159.033203" xlink:href="#DejaVuSans-54"/>
       <use x="222.65625" xlink:href="#DejaVuSans-48"/>
      </g>
     </g>
    </g>
    <g id="xtick_36">
     <g id="line2d_47">
      <g>
       <use style="stroke:#000000;stroke-width:0.8;" x="681.765725" xlink:href="#mc3e8cb364a" y="387.918125"/>
      </g>
     </g>
     <g id="text_52">
      <!-- 2.765 -->
      <g transform="translate(667.451663 402.516563)scale(0.1 -0.1)">
       <use xlink:href="#DejaVuSans-50"/>
       <use x="63.623047" xlink:href="#DejaVuSans-46"/>
       <use x="95.410156" xlink:href="#DejaVuSans-55"/>
       <use x="159.033203" xlink:href="#DejaVuSans-54"/>
       <use x="222.65625" xlink:href="#DejaVuSans-53"/>
      </g>
     </g>
    </g>
    <g id="text_53">
     <!-- 1e5 -->
     <g transform="translate(686.355 415.194687)scale(0.1 -0.1)">
      <use xlink:href="#DejaVuSans-49"/>
      <use x="63.623047" xlink:href="#DejaVuSans-101"/>
      <use x="125.146484" xlink:href="#DejaVuSans-53"/>
     </g>
    </g>
   </g>
   <g id="matplotlib.axis_8">
    <g id="ytick_7">
     <g id="line2d_48">
      <g>
       <use style="stroke:#000000;stroke-width:0.8;" x="40.603125" xlink:href="#mc095b0bc7f" y="371.910041"/>
      </g>
     </g>
     <g id="text_54">
      <!-- 10 -->
      <g transform="translate(20.878125 375.70926)scale(0.1 -0.1)">
       <use xlink:href="#DejaVuSans-49"/>
       <use x="63.623047" xlink:href="#DejaVuSans-48"/>
      </g>
     </g>
    </g>
    <g id="ytick_8">
     <g id="line2d_49">
      <g>
       <use style="stroke:#000000;stroke-width:0.8;" x="40.603125" xlink:href="#mc095b0bc7f" y="347.472382"/>
      </g>
     </g>
     <g id="text_55">
      <!-- 20 -->
      <g transform="translate(20.878125 351.2716)scale(0.1 -0.1)">
       <use xlink:href="#DejaVuSans-50"/>
       <use x="63.623047" xlink:href="#DejaVuSans-48"/>
      </g>
     </g>
    </g>
   </g>
   <g id="line2d_50">
    <path clip-path="url(#pc00211d5aa)" d="M 70.81358 382.020389 
L 72.381732 383.255713 
L 74.106699 383.957318 
L 75.831667 383.738845 
L 77.556635 382.365449 
L 79.281602 379.788498 
L 81.00657 376.15364 
L 82.574722 371.771479 
L 86.338288 362.486391 
L 88.063255 358.461753 
L 90.101853 355.299519 
L 91.670005 353.155359 
L 93.394973 352.010944 
L 95.119941 351.688367 
L 96.844908 351.893643 
L 99.981213 352.521935 
L 101.549365 352.383129 
L 102.960702 351.766567 
L 108.135605 348.447933 
L 110.017388 347.909083 
L 111.58554 348.266605 
L 113.310508 349.782962 
L 115.035475 352.559813 
L 116.760443 356.503319 
L 118.48541 361.324136 
L 119.896747 366.568946 
L 123.033052 376.100611 
L 124.914835 379.312697 
L 126.482987 380.963949 
L 128.207955 380.897234 
L 130.089737 379.179023 
L 132.128335 376.083749 
L 133.853303 372.048602 
L 135.26464 367.599726 
L 138.87139 359.505485 
L 140.753173 356.620619 
L 142.321326 354.738186 
L 144.203108 353.795382 
L 145.614445 353.569822 
L 149.064381 353.946162 
L 151.573424 353.892155 
L 153.141577 353.387028 
L 154.866544 352.40048 
L 156.748327 351.070338 
L 158.159664 349.682768 
L 159.571001 348.618019 
L 161.295969 348.279802 
L 162.864121 349.014153 
L 164.745904 351.035637 
L 166.470871 354.375287 
L 168.195839 358.857643 
L 169.763991 364.111739 
L 174.938894 379.013824 
L 176.820677 381.830997 
L 178.545644 382.916274 
L 180.113797 382.172147 
L 181.838764 379.732536 
L 183.720547 375.938833 
L 185.288699 371.284925 
L 186.700036 366.339232 
L 189.836341 357.698809 
L 191.718124 354.764335 
L 193.129461 352.959369 
L 194.854428 352.192271 
L 196.265766 352.207422 
L 199.872516 353.10624 
L 201.440668 353.253843 
L 203.008821 352.859175 
L 204.733788 351.858453 
L 206.458756 350.366778 
L 207.870093 348.661518 
L 209.59506 347.13392 
L 211.163213 346.220685 
L 212.57455 346.323323 
L 214.299517 347.730932 
L 215.710854 350.560569 
L 217.592637 354.723035 
L 219.003974 359.923369 
L 222.453909 371.454278 
L 224.178877 376.596939 
L 226.37429 380.570503 
L 227.942443 382.95904 
L 229.66741 383.541389 
L 231.235562 382.318284 
L 232.96053 379.50551 
L 234.685498 375.496023 
L 236.25365 370.793484 
L 241.428553 357.563913 
L 243.15352 354.627973 
L 244.721672 352.618953 
L 248.328423 350.727967 
L 251.621543 349.820841 
L 253.03288 349.11166 
L 254.757847 348.103606 
L 258.207782 345.692587 
L 259.775935 344.854131 
L 261.344087 344.742695 
L 263.069055 345.693076 
L 264.637207 347.930832 
L 266.51899 351.513882 
L 270.282555 361.950473 
L 275.457458 378.5803 
L 277.652871 382.010859 
L 279.221024 383.594419 
L 280.632361 383.137679 
L 282.357328 380.690247 
L 283.925481 376.540733 
L 285.650448 371.173979 
L 287.845861 365.202636 
L 289.414014 359.278215 
L 290.982166 353.999192 
L 292.550318 349.828905 
L 294.118471 347.035436 
L 295.843438 345.663995 
L 297.411591 345.543761 
L 299.136558 346.329677 
L 302.429678 348.785906 
L 304.311461 349.563023 
L 305.722798 349.617031 
L 307.29095 348.846022 
L 310.740885 345.396402 
L 312.152222 343.408888 
L 313.87719 341.857096 
L 315.288527 341.193125 
L 316.699864 341.766921 
L 318.581647 343.75859 
L 319.992984 347.141496 
L 321.717952 351.67517 
L 323.599734 356.93391 
L 325.167887 362.366157 
L 326.892854 367.373678 
L 328.617822 371.399294 
L 330.185974 374.00948 
L 332.067757 374.955462 
L 333.792724 374.206448 
L 335.674507 371.949385 
L 337.399475 368.55304 
L 339.124442 364.505674 
L 340.535779 360.335877 
L 342.260747 356.529222 
L 344.14253 353.455942 
L 345.710682 351.321069 
L 347.43565 350.14464 
L 348.846987 349.773432 
L 350.415139 349.925189 
L 352.140107 350.25241 
L 353.865074 350.416631 
L 355.590042 350.159302 
L 357.62864 349.357014 
L 359.196792 348.049599 
L 360.92176 346.437935 
L 362.333097 344.849976 
L 363.901249 343.682589 
L 365.626217 343.328732 
L 367.351184 344.100229 
L 369.076152 346.164722 
L 370.644304 349.504129 
L 372.526087 353.903152 
L 374.251054 358.971766 
L 375.819207 364.197027 
L 377.70099 369.0154 
L 379.425957 372.895856 
L 380.994109 375.417578 
L 382.562262 376.330813 
L 384.287229 375.590841 
L 386.012197 373.358216 
L 387.737164 369.968958 
L 389.305317 365.875894 
L 390.716654 361.575843 
L 392.598437 357.532388 
L 394.323404 354.107695 
L 395.891557 351.517303 
L 397.773339 349.810821 
L 399.498307 348.884145 
L 401.223274 348.519046 
L 404.67321 348.380974 
L 406.398177 348.144906 
L 408.436775 347.649555 
L 409.848112 346.945994 
L 413.141232 345.712137 
L 414.8662 345.75197 
L 416.591167 346.6046 
L 418.316135 348.453309 
L 420.041102 351.343062 
L 421.76607 355.15607 
L 423.177407 359.616188 
L 425.686451 364.321903 
L 428.979571 372.58281 
L 430.390908 375.262888 
L 432.272691 376.568347 
L 433.684028 376.394107 
L 435.408995 374.814701 
L 437.133963 372.066931 
L 438.85893 368.506852 
L 440.583898 364.549907 
L 442.779311 360.604935 
L 444.504279 357.013332 
L 447.640583 351.678347 
L 449.365551 350.001679 
L 450.933703 348.845289 
L 454.540454 347.357769 
L 461.126693 344.825539 
L 463.008476 344.663273 
L 464.890259 345.077491 
L 466.615226 346.251232 
L 468.183379 348.282246 
L 469.908346 351.149516 
L 471.790129 354.697131 
L 473.671912 358.647479 
L 475.083249 362.634238 
L 476.808217 366.254678 
L 478.533184 369.12928 
L 480.101336 370.961615 
L 481.669489 371.583065 
L 483.394456 370.9775 
L 484.962609 369.282259 
L 486.687576 366.760782 
L 489.51025 360.644769 
L 491.078403 357.750617 
L 492.80337 355.322491 
L 494.528338 353.486978 
L 496.253305 352.243101 
L 497.664642 351.478203 
L 502.839545 350.102118 
L 504.721328 349.380718 
L 509.739415 346.437691 
L 511.778013 345.856075 
L 513.346166 345.920346 
L 515.071133 346.857041 
L 516.48247 348.789571 
L 518.364253 351.703762 
L 520.402851 355.432949 
L 523.852786 364.017166 
L 527.302721 371.249002 
L 529.027689 373.369458 
L 530.752657 374.177611 
L 532.320809 373.636806 
L 533.732146 371.880471 
L 535.457114 369.185486 
L 537.025266 365.925502 
L 538.907049 362.509606 
L 540.318386 359.316093 
L 543.45469 354.635793 
L 545.336473 353.335954 
L 546.74781 352.627995 
L 550.04093 352.116759 
L 551.922713 351.820819 
L 553.33405 351.243357 
L 555.059018 350.315214 
L 556.470355 349.091132 
L 558.352137 347.742662 
L 559.763475 346.527622 
L 561.488442 345.740485 
L 563.21341 345.65422 
L 564.938377 346.463106 
L 567.13379 348.238502 
L 568.858758 350.903918 
L 570.42691 354.237459 
L 574.033661 361.480781 
L 575.601813 364.567013 
L 577.326781 366.803792 
L 579.522194 367.952362 
L 581.090346 367.928657 
L 582.658498 366.8143 
L 584.383466 364.842425 
L 587.676586 359.745218 
L 589.401553 357.39065 
L 590.969706 355.590572 
L 592.851489 354.518003 
L 594.733271 354.196892 
L 596.144608 354.505051 
L 597.869576 355.206168 
L 599.437728 356.000147 
L 601.162696 356.589339 
L 602.887663 356.740364 
L 604.455816 356.336898 
L 606.337599 355.409489 
L 608.062566 354.138486 
L 609.630718 352.82594 
L 611.355686 351.845989 
L 612.923838 351.575709 
L 614.491991 352.32399 
L 616.060143 354.267761 
L 617.785111 357.408489 
L 619.666893 361.556049 
L 621.235046 366.346319 
L 622.646383 371.287369 
L 624.214535 375.826909 
L 625.939503 379.434885 
L 627.66447 381.682172 
L 629.075807 382.303866 
L 630.800775 381.240583 
L 632.682558 378.643593 
L 634.25071 374.851113 
L 637.700645 365.616855 
L 639.268797 361.209523 
L 640.993765 357.518948 
L 642.561917 354.800258 
L 644.286885 353.126034 
L 646.168668 352.388261 
L 647.73682 352.332543 
L 650.873125 352.872371 
L 652.754907 352.801013 
L 654.479875 352.214998 
L 656.048027 351.089888 
L 659.654778 347.985328 
L 661.22293 346.738274 
L 662.947898 346.30695 
L 664.672865 347.136364 
L 666.241017 349.572554 
L 668.1228 353.80369 
L 669.847768 359.823908 
L 673.297703 376.222555 
L 675.02267 385.693125 
L 675.02267 385.693125 
" style="fill:none;stroke:#1f77b4;stroke-linecap:square;stroke-width:1.5;"/>
   </g>
   <g id="line2d_51">
    <g clip-path="url(#pc00211d5aa)">
     <use style="fill:#ff0000;stroke:#ff0000;" x="126.482987" xlink:href="#m20c4619a1f" y="380.963949"/>
     <use style="fill:#ff0000;stroke:#ff0000;" x="178.545644" xlink:href="#m20c4619a1f" y="382.916274"/>
     <use style="fill:#ff0000;stroke:#ff0000;" x="229.66741" xlink:href="#m20c4619a1f" y="383.541389"/>
     <use style="fill:#ff0000;stroke:#ff0000;" x="279.221024" xlink:href="#m20c4619a1f" y="383.594419"/>
     <use style="fill:#ff0000;stroke:#ff0000;" x="332.067757" xlink:href="#m20c4619a1f" y="374.955462"/>
     <use style="fill:#ff0000;stroke:#ff0000;" x="382.562262" xlink:href="#m20c4619a1f" y="376.330813"/>
     <use style="fill:#ff0000;stroke:#ff0000;" x="432.272691" xlink:href="#m20c4619a1f" y="376.568347"/>
     <use style="fill:#ff0000;stroke:#ff0000;" x="481.669489" xlink:href="#m20c4619a1f" y="371.583065"/>
     <use style="fill:#ff0000;stroke:#ff0000;" x="530.752657" xlink:href="#m20c4619a1f" y="374.177611"/>
     <use style="fill:#ff0000;stroke:#ff0000;" x="579.522194" xlink:href="#m20c4619a1f" y="367.952362"/>
     <use style="fill:#ff0000;stroke:#ff0000;" x="629.075807" xlink:href="#m20c4619a1f" y="382.303866"/>
    </g>
   </g>
   <g id="patch_18">
    <path d="M 40.603125 387.918125 
L 40.603125 338.968125 
" style="fill:none;stroke:#000000;stroke-linecap:square;stroke-linejoin:miter;stroke-width:0.8;"/>
   </g>
   <g id="patch_19">
    <path d="M 705.233125 387.918125 
L 705.233125 338.968125 
" style="fill:none;stroke:#000000;stroke-linecap:square;stroke-linejoin:miter;stroke-width:0.8;"/>
   </g>
   <g id="patch_20">
    <path d="M 40.603125 387.918125 
L 705.233125 387.918125 
" style="fill:none;stroke:#000000;stroke-linecap:square;stroke-linejoin:miter;stroke-width:0.8;"/>
   </g>
   <g id="patch_21">
    <path d="M 40.603125 338.968125 
L 705.233125 338.968125 
" style="fill:none;stroke:#000000;stroke-linecap:square;stroke-linejoin:miter;stroke-width:0.8;"/>
   </g>
   <g id="text_56">
    <!-- DC Components -->
    <g transform="translate(324.24125 332.968125)scale(0.12 -0.12)">
     <use xlink:href="#DejaVuSans-68"/>
     <use x="77.001953" xlink:href="#DejaVuSans-67"/>
     <use x="146.826172" xlink:href="#DejaVuSans-32"/>
     <use x="178.613281" xlink:href="#DejaVuSans-67"/>
     <use x="248.4375" xlink:href="#DejaVuSans-111"/>
     <use x="309.619141" xlink:href="#DejaVuSans-109"/>
     <use x="407.03125" xlink:href="#DejaVuSans-112"/>
     <use x="470.507812" xlink:href="#DejaVuSans-111"/>
     <use x="531.689453" xlink:href="#DejaVuSans-110"/>
     <use x="595.068359" xlink:href="#DejaVuSans-101"/>
     <use x="656.591797" xlink:href="#DejaVuSans-110"/>
     <use x="719.970703" xlink:href="#DejaVuSans-116"/>
     <use x="759.179688" xlink:href="#DejaVuSans-115"/>
    </g>
   </g>
  </g>
 </g>
 <defs>
  <clipPath id="pd9c669b2da">
   <rect height="48.95" width="664.63" x="40.603125" y="22.318125"/>
  </clipPath>
  <clipPath id="p5a7edcdf02">
   <rect height="48.95" width="664.63" x="40.603125" y="127.868125"/>
  </clipPath>
  <clipPath id="p95507507a8">
   <rect height="48.95" width="664.63" x="40.603125" y="233.418125"/>
  </clipPath>
  <clipPath id="pc00211d5aa">
   <rect height="48.95" width="664.63" x="40.603125" y="338.968125"/>
  </clipPath>
 </defs>
</svg>
