<?xml version="1.0" encoding="utf-8" standalone="no"?>
<!DOCTYPE svg PUBLIC "-//W3C//DTD SVG 1.1//EN"
  "http://www.w3.org/Graphics/SVG/1.1/DTD/svg11.dtd">
<!-- Created with matplotlib (https://matplotlib.org/) -->
<svg height="424.474375pt" version="1.1" viewBox="0 0 712.371941 424.474375" width="712.371941pt" xmlns="http://www.w3.org/2000/svg" xmlns:xlink="http://www.w3.org/1999/xlink">
 <defs>
  <style type="text/css">
*{stroke-linecap:butt;stroke-linejoin:round;}
  </style>
 </defs>
 <g id="figure_1">
  <g id="patch_1">
   <path d="M 0 424.474375 
L 712.371941 424.474375 
L 712.371941 -0 
L 0 -0 
z
" style="fill:#ffffff;"/>
  </g>
  <g id="axes_1">
   <g id="patch_2">
    <path d="M 40.603125 71.268125 
L 700.234076 71.268125 
L 700.234076 22.318125 
L 40.603125 22.318125 
z
" style="fill:#ffffff;"/>
   </g>
   <g id="matplotlib.axis_1">
    <g id="xtick_1">
     <g id="line2d_1">
      <defs>
       <path d="M 0 0 
L 0 3.5 
" id="m0acddb1c65" style="stroke:#000000;stroke-width:0.8;"/>
      </defs>
      <g>
       <use style="stroke:#000000;stroke-width:0.8;" x="72.647053" xlink:href="#m0acddb1c65" y="71.268125"/>
      </g>
     </g>
     <g id="text_1">
      <!-- 3.575 -->
      <defs>
       <path d="M 40.578125 39.3125 
Q 47.65625 37.796875 51.625 33 
Q 55.609375 28.21875 55.609375 21.1875 
Q 55.609375 10.40625 48.1875 4.484375 
Q 40.765625 -1.421875 27.09375 -1.421875 
Q 22.515625 -1.421875 17.65625 -0.515625 
Q 12.796875 0.390625 7.625 2.203125 
L 7.625 11.71875 
Q 11.71875 9.328125 16.59375 8.109375 
Q 21.484375 6.890625 26.8125 6.890625 
Q 36.078125 6.890625 40.9375 10.546875 
Q 45.796875 14.203125 45.796875 21.1875 
Q 45.796875 27.640625 41.28125 31.265625 
Q 36.765625 34.90625 28.71875 34.90625 
L 20.21875 34.90625 
L 20.21875 43.015625 
L 29.109375 43.015625 
Q 36.375 43.015625 40.234375 45.921875 
Q 44.09375 48.828125 44.09375 54.296875 
Q 44.09375 59.90625 40.109375 62.90625 
Q 36.140625 65.921875 28.71875 65.921875 
Q 24.65625 65.921875 20.015625 65.03125 
Q 15.375 64.15625 9.8125 62.3125 
L 9.8125 71.09375 
Q 15.4375 72.65625 20.34375 73.4375 
Q 25.25 74.21875 29.59375 74.21875 
Q 40.828125 74.21875 47.359375 69.109375 
Q 53.90625 64.015625 53.90625 55.328125 
Q 53.90625 49.265625 50.4375 45.09375 
Q 46.96875 40.921875 40.578125 39.3125 
z
" id="DejaVuSans-51"/>
       <path d="M 10.6875 12.40625 
L 21 12.40625 
L 21 0 
L 10.6875 0 
z
" id="DejaVuSans-46"/>
       <path d="M 10.796875 72.90625 
L 49.515625 72.90625 
L 49.515625 64.59375 
L 19.828125 64.59375 
L 19.828125 46.734375 
Q 21.96875 47.46875 24.109375 47.828125 
Q 26.265625 48.1875 28.421875 48.1875 
Q 40.625 48.1875 47.75 41.5 
Q 54.890625 34.8125 54.890625 23.390625 
Q 54.890625 11.625 47.5625 5.09375 
Q 40.234375 -1.421875 26.90625 -1.421875 
Q 22.3125 -1.421875 17.546875 -0.640625 
Q 12.796875 0.140625 7.71875 1.703125 
L 7.71875 11.625 
Q 12.109375 9.234375 16.796875 8.0625 
Q 21.484375 6.890625 26.703125 6.890625 
Q 35.15625 6.890625 40.078125 11.328125 
Q 45.015625 15.765625 45.015625 23.390625 
Q 45.015625 31 40.078125 35.4375 
Q 35.15625 39.890625 26.703125 39.890625 
Q 22.75 39.890625 18.8125 39.015625 
Q 14.890625 38.140625 10.796875 36.28125 
z
" id="DejaVuSans-53"/>
       <path d="M 8.203125 72.90625 
L 55.078125 72.90625 
L 55.078125 68.703125 
L 28.609375 0 
L 18.3125 0 
L 43.21875 64.59375 
L 8.203125 64.59375 
z
" id="DejaVuSans-55"/>
      </defs>
      <g transform="translate(58.33299 85.866562)scale(0.1 -0.1)">
       <use xlink:href="#DejaVuSans-51"/>
       <use x="63.623047" xlink:href="#DejaVuSans-46"/>
       <use x="95.410156" xlink:href="#DejaVuSans-53"/>
       <use x="159.033203" xlink:href="#DejaVuSans-55"/>
       <use x="222.65625" xlink:href="#DejaVuSans-53"/>
      </g>
     </g>
    </g>
    <g id="xtick_2">
     <g id="line2d_2">
      <g>
       <use style="stroke:#000000;stroke-width:0.8;" x="175.68219" xlink:href="#m0acddb1c65" y="71.268125"/>
      </g>
     </g>
     <g id="text_2">
      <!-- 3.580 -->
      <defs>
       <path d="M 31.78125 34.625 
Q 24.75 34.625 20.71875 30.859375 
Q 16.703125 27.09375 16.703125 20.515625 
Q 16.703125 13.921875 20.71875 10.15625 
Q 24.75 6.390625 31.78125 6.390625 
Q 38.8125 6.390625 42.859375 10.171875 
Q 46.921875 13.96875 46.921875 20.515625 
Q 46.921875 27.09375 42.890625 30.859375 
Q 38.875 34.625 31.78125 34.625 
z
M 21.921875 38.8125 
Q 15.578125 40.375 12.03125 44.71875 
Q 8.5 49.078125 8.5 55.328125 
Q 8.5 64.0625 14.71875 69.140625 
Q 20.953125 74.21875 31.78125 74.21875 
Q 42.671875 74.21875 48.875 69.140625 
Q 55.078125 64.0625 55.078125 55.328125 
Q 55.078125 49.078125 51.53125 44.71875 
Q 48 40.375 41.703125 38.8125 
Q 48.828125 37.15625 52.796875 32.3125 
Q 56.78125 27.484375 56.78125 20.515625 
Q 56.78125 9.90625 50.3125 4.234375 
Q 43.84375 -1.421875 31.78125 -1.421875 
Q 19.734375 -1.421875 13.25 4.234375 
Q 6.78125 9.90625 6.78125 20.515625 
Q 6.78125 27.484375 10.78125 32.3125 
Q 14.796875 37.15625 21.921875 38.8125 
z
M 18.3125 54.390625 
Q 18.3125 48.734375 21.84375 45.5625 
Q 25.390625 42.390625 31.78125 42.390625 
Q 38.140625 42.390625 41.71875 45.5625 
Q 45.3125 48.734375 45.3125 54.390625 
Q 45.3125 60.0625 41.71875 63.234375 
Q 38.140625 66.40625 31.78125 66.40625 
Q 25.390625 66.40625 21.84375 63.234375 
Q 18.3125 60.0625 18.3125 54.390625 
z
" id="DejaVuSans-56"/>
       <path d="M 31.78125 66.40625 
Q 24.171875 66.40625 20.328125 58.90625 
Q 16.5 51.421875 16.5 36.375 
Q 16.5 21.390625 20.328125 13.890625 
Q 24.171875 6.390625 31.78125 6.390625 
Q 39.453125 6.390625 43.28125 13.890625 
Q 47.125 21.390625 47.125 36.375 
Q 47.125 51.421875 43.28125 58.90625 
Q 39.453125 66.40625 31.78125 66.40625 
z
M 31.78125 74.21875 
Q 44.046875 74.21875 50.515625 64.515625 
Q 56.984375 54.828125 56.984375 36.375 
Q 56.984375 17.96875 50.515625 8.265625 
Q 44.046875 -1.421875 31.78125 -1.421875 
Q 19.53125 -1.421875 13.0625 8.265625 
Q 6.59375 17.96875 6.59375 36.375 
Q 6.59375 54.828125 13.0625 64.515625 
Q 19.53125 74.21875 31.78125 74.21875 
z
" id="DejaVuSans-48"/>
      </defs>
      <g transform="translate(161.368128 85.866562)scale(0.1 -0.1)">
       <use xlink:href="#DejaVuSans-51"/>
       <use x="63.623047" xlink:href="#DejaVuSans-46"/>
       <use x="95.410156" xlink:href="#DejaVuSans-53"/>
       <use x="159.033203" xlink:href="#DejaVuSans-56"/>
       <use x="222.65625" xlink:href="#DejaVuSans-48"/>
      </g>
     </g>
    </g>
    <g id="xtick_3">
     <g id="line2d_3">
      <g>
       <use style="stroke:#000000;stroke-width:0.8;" x="278.717328" xlink:href="#m0acddb1c65" y="71.268125"/>
      </g>
     </g>
     <g id="text_3">
      <!-- 3.585 -->
      <g transform="translate(264.403266 85.866562)scale(0.1 -0.1)">
       <use xlink:href="#DejaVuSans-51"/>
       <use x="63.623047" xlink:href="#DejaVuSans-46"/>
       <use x="95.410156" xlink:href="#DejaVuSans-53"/>
       <use x="159.033203" xlink:href="#DejaVuSans-56"/>
       <use x="222.65625" xlink:href="#DejaVuSans-53"/>
      </g>
     </g>
    </g>
    <g id="xtick_4">
     <g id="line2d_4">
      <g>
       <use style="stroke:#000000;stroke-width:0.8;" x="381.752466" xlink:href="#m0acddb1c65" y="71.268125"/>
      </g>
     </g>
     <g id="text_4">
      <!-- 3.590 -->
      <defs>
       <path d="M 10.984375 1.515625 
L 10.984375 10.5 
Q 14.703125 8.734375 18.5 7.8125 
Q 22.3125 6.890625 25.984375 6.890625 
Q 35.75 6.890625 40.890625 13.453125 
Q 46.046875 20.015625 46.78125 33.40625 
Q 43.953125 29.203125 39.59375 26.953125 
Q 35.25 24.703125 29.984375 24.703125 
Q 19.046875 24.703125 12.671875 31.3125 
Q 6.296875 37.9375 6.296875 49.421875 
Q 6.296875 60.640625 12.9375 67.421875 
Q 19.578125 74.21875 30.609375 74.21875 
Q 43.265625 74.21875 49.921875 64.515625 
Q 56.59375 54.828125 56.59375 36.375 
Q 56.59375 19.140625 48.40625 8.859375 
Q 40.234375 -1.421875 26.421875 -1.421875 
Q 22.703125 -1.421875 18.890625 -0.6875 
Q 15.09375 0.046875 10.984375 1.515625 
z
M 30.609375 32.421875 
Q 37.25 32.421875 41.125 36.953125 
Q 45.015625 41.5 45.015625 49.421875 
Q 45.015625 57.28125 41.125 61.84375 
Q 37.25 66.40625 30.609375 66.40625 
Q 23.96875 66.40625 20.09375 61.84375 
Q 16.21875 57.28125 16.21875 49.421875 
Q 16.21875 41.5 20.09375 36.953125 
Q 23.96875 32.421875 30.609375 32.421875 
z
" id="DejaVuSans-57"/>
      </defs>
      <g transform="translate(367.438403 85.866562)scale(0.1 -0.1)">
       <use xlink:href="#DejaVuSans-51"/>
       <use x="63.623047" xlink:href="#DejaVuSans-46"/>
       <use x="95.410156" xlink:href="#DejaVuSans-53"/>
       <use x="159.033203" xlink:href="#DejaVuSans-57"/>
       <use x="222.65625" xlink:href="#DejaVuSans-48"/>
      </g>
     </g>
    </g>
    <g id="xtick_5">
     <g id="line2d_5">
      <g>
       <use style="stroke:#000000;stroke-width:0.8;" x="484.787603" xlink:href="#m0acddb1c65" y="71.268125"/>
      </g>
     </g>
     <g id="text_5">
      <!-- 3.595 -->
      <g transform="translate(470.473541 85.866562)scale(0.1 -0.1)">
       <use xlink:href="#DejaVuSans-51"/>
       <use x="63.623047" xlink:href="#DejaVuSans-46"/>
       <use x="95.410156" xlink:href="#DejaVuSans-53"/>
       <use x="159.033203" xlink:href="#DejaVuSans-57"/>
       <use x="222.65625" xlink:href="#DejaVuSans-53"/>
      </g>
     </g>
    </g>
    <g id="xtick_6">
     <g id="line2d_6">
      <g>
       <use style="stroke:#000000;stroke-width:0.8;" x="587.822741" xlink:href="#m0acddb1c65" y="71.268125"/>
      </g>
     </g>
     <g id="text_6">
      <!-- 3.600 -->
      <defs>
       <path d="M 33.015625 40.375 
Q 26.375 40.375 22.484375 35.828125 
Q 18.609375 31.296875 18.609375 23.390625 
Q 18.609375 15.53125 22.484375 10.953125 
Q 26.375 6.390625 33.015625 6.390625 
Q 39.65625 6.390625 43.53125 10.953125 
Q 47.40625 15.53125 47.40625 23.390625 
Q 47.40625 31.296875 43.53125 35.828125 
Q 39.65625 40.375 33.015625 40.375 
z
M 52.59375 71.296875 
L 52.59375 62.3125 
Q 48.875 64.0625 45.09375 64.984375 
Q 41.3125 65.921875 37.59375 65.921875 
Q 27.828125 65.921875 22.671875 59.328125 
Q 17.53125 52.734375 16.796875 39.40625 
Q 19.671875 43.65625 24.015625 45.921875 
Q 28.375 48.1875 33.59375 48.1875 
Q 44.578125 48.1875 50.953125 41.515625 
Q 57.328125 34.859375 57.328125 23.390625 
Q 57.328125 12.15625 50.6875 5.359375 
Q 44.046875 -1.421875 33.015625 -1.421875 
Q 20.359375 -1.421875 13.671875 8.265625 
Q 6.984375 17.96875 6.984375 36.375 
Q 6.984375 53.65625 15.1875 63.9375 
Q 23.390625 74.21875 37.203125 74.21875 
Q 40.921875 74.21875 44.703125 73.484375 
Q 48.484375 72.75 52.59375 71.296875 
z
" id="DejaVuSans-54"/>
      </defs>
      <g transform="translate(573.508678 85.866562)scale(0.1 -0.1)">
       <use xlink:href="#DejaVuSans-51"/>
       <use x="63.623047" xlink:href="#DejaVuSans-46"/>
       <use x="95.410156" xlink:href="#DejaVuSans-54"/>
       <use x="159.033203" xlink:href="#DejaVuSans-48"/>
       <use x="222.65625" xlink:href="#DejaVuSans-48"/>
      </g>
     </g>
    </g>
    <g id="xtick_7">
     <g id="line2d_7">
      <g>
       <use style="stroke:#000000;stroke-width:0.8;" x="690.857879" xlink:href="#m0acddb1c65" y="71.268125"/>
      </g>
     </g>
     <g id="text_7">
      <!-- 3.605 -->
      <g transform="translate(676.543816 85.866562)scale(0.1 -0.1)">
       <use xlink:href="#DejaVuSans-51"/>
       <use x="63.623047" xlink:href="#DejaVuSans-46"/>
       <use x="95.410156" xlink:href="#DejaVuSans-54"/>
       <use x="159.033203" xlink:href="#DejaVuSans-48"/>
       <use x="222.65625" xlink:href="#DejaVuSans-53"/>
      </g>
     </g>
    </g>
    <g id="text_8">
     <!-- Time (ms) -->
     <defs>
      <path d="M -0.296875 72.90625 
L 61.375 72.90625 
L 61.375 64.59375 
L 35.5 64.59375 
L 35.5 0 
L 25.59375 0 
L 25.59375 64.59375 
L -0.296875 64.59375 
z
" id="DejaVuSans-84"/>
      <path d="M 9.421875 54.6875 
L 18.40625 54.6875 
L 18.40625 0 
L 9.421875 0 
z
M 9.421875 75.984375 
L 18.40625 75.984375 
L 18.40625 64.59375 
L 9.421875 64.59375 
z
" id="DejaVuSans-105"/>
      <path d="M 52 44.1875 
Q 55.375 50.25 60.0625 53.125 
Q 64.75 56 71.09375 56 
Q 79.640625 56 84.28125 50.015625 
Q 88.921875 44.046875 88.921875 33.015625 
L 88.921875 0 
L 79.890625 0 
L 79.890625 32.71875 
Q 79.890625 40.578125 77.09375 44.375 
Q 74.3125 48.1875 68.609375 48.1875 
Q 61.625 48.1875 57.5625 43.546875 
Q 53.515625 38.921875 53.515625 30.90625 
L 53.515625 0 
L 44.484375 0 
L 44.484375 32.71875 
Q 44.484375 40.625 41.703125 44.40625 
Q 38.921875 48.1875 33.109375 48.1875 
Q 26.21875 48.1875 22.15625 43.53125 
Q 18.109375 38.875 18.109375 30.90625 
L 18.109375 0 
L 9.078125 0 
L 9.078125 54.6875 
L 18.109375 54.6875 
L 18.109375 46.1875 
Q 21.1875 51.21875 25.484375 53.609375 
Q 29.78125 56 35.6875 56 
Q 41.65625 56 45.828125 52.96875 
Q 50 49.953125 52 44.1875 
z
" id="DejaVuSans-109"/>
      <path d="M 56.203125 29.59375 
L 56.203125 25.203125 
L 14.890625 25.203125 
Q 15.484375 15.921875 20.484375 11.0625 
Q 25.484375 6.203125 34.421875 6.203125 
Q 39.59375 6.203125 44.453125 7.46875 
Q 49.3125 8.734375 54.109375 11.28125 
L 54.109375 2.78125 
Q 49.265625 0.734375 44.1875 -0.34375 
Q 39.109375 -1.421875 33.890625 -1.421875 
Q 20.796875 -1.421875 13.15625 6.1875 
Q 5.515625 13.8125 5.515625 26.8125 
Q 5.515625 40.234375 12.765625 48.109375 
Q 20.015625 56 32.328125 56 
Q 43.359375 56 49.78125 48.890625 
Q 56.203125 41.796875 56.203125 29.59375 
z
M 47.21875 32.234375 
Q 47.125 39.59375 43.09375 43.984375 
Q 39.0625 48.390625 32.421875 48.390625 
Q 24.90625 48.390625 20.390625 44.140625 
Q 15.875 39.890625 15.1875 32.171875 
z
" id="DejaVuSans-101"/>
      <path id="DejaVuSans-32"/>
      <path d="M 31 75.875 
Q 24.46875 64.65625 21.28125 53.65625 
Q 18.109375 42.671875 18.109375 31.390625 
Q 18.109375 20.125 21.3125 9.0625 
Q 24.515625 -2 31 -13.1875 
L 23.1875 -13.1875 
Q 15.875 -1.703125 12.234375 9.375 
Q 8.59375 20.453125 8.59375 31.390625 
Q 8.59375 42.28125 12.203125 53.3125 
Q 15.828125 64.359375 23.1875 75.875 
z
" id="DejaVuSans-40"/>
      <path d="M 44.28125 53.078125 
L 44.28125 44.578125 
Q 40.484375 46.53125 36.375 47.5 
Q 32.28125 48.484375 27.875 48.484375 
Q 21.1875 48.484375 17.84375 46.4375 
Q 14.5 44.390625 14.5 40.28125 
Q 14.5 37.15625 16.890625 35.375 
Q 19.28125 33.59375 26.515625 31.984375 
L 29.59375 31.296875 
Q 39.15625 29.25 43.1875 25.515625 
Q 47.21875 21.78125 47.21875 15.09375 
Q 47.21875 7.46875 41.1875 3.015625 
Q 35.15625 -1.421875 24.609375 -1.421875 
Q 20.21875 -1.421875 15.453125 -0.5625 
Q 10.6875 0.296875 5.421875 2 
L 5.421875 11.28125 
Q 10.40625 8.6875 15.234375 7.390625 
Q 20.0625 6.109375 24.8125 6.109375 
Q 31.15625 6.109375 34.5625 8.28125 
Q 37.984375 10.453125 37.984375 14.40625 
Q 37.984375 18.0625 35.515625 20.015625 
Q 33.0625 21.96875 24.703125 23.78125 
L 21.578125 24.515625 
Q 13.234375 26.265625 9.515625 29.90625 
Q 5.8125 33.546875 5.8125 39.890625 
Q 5.8125 47.609375 11.28125 51.796875 
Q 16.75 56 26.8125 56 
Q 31.78125 56 36.171875 55.265625 
Q 40.578125 54.546875 44.28125 53.078125 
z
" id="DejaVuSans-115"/>
      <path d="M 8.015625 75.875 
L 15.828125 75.875 
Q 23.140625 64.359375 26.78125 53.3125 
Q 30.421875 42.28125 30.421875 31.390625 
Q 30.421875 20.453125 26.78125 9.375 
Q 23.140625 -1.703125 15.828125 -13.1875 
L 8.015625 -13.1875 
Q 14.5 -2 17.703125 9.0625 
Q 20.90625 20.125 20.90625 31.390625 
Q 20.90625 42.671875 17.703125 53.65625 
Q 14.5 64.65625 8.015625 75.875 
z
" id="DejaVuSans-41"/>
     </defs>
     <g transform="translate(345.065476 99.544688)scale(0.1 -0.1)">
      <use xlink:href="#DejaVuSans-84"/>
      <use x="61.037109" xlink:href="#DejaVuSans-105"/>
      <use x="88.820312" xlink:href="#DejaVuSans-109"/>
      <use x="186.232422" xlink:href="#DejaVuSans-101"/>
      <use x="247.755859" xlink:href="#DejaVuSans-32"/>
      <use x="279.542969" xlink:href="#DejaVuSans-40"/>
      <use x="318.556641" xlink:href="#DejaVuSans-109"/>
      <use x="415.96875" xlink:href="#DejaVuSans-115"/>
      <use x="468.068359" xlink:href="#DejaVuSans-41"/>
     </g>
    </g>
    <g id="text_9">
     <!-- 1e5 -->
     <defs>
      <path d="M 12.40625 8.296875 
L 28.515625 8.296875 
L 28.515625 63.921875 
L 10.984375 60.40625 
L 10.984375 69.390625 
L 28.421875 72.90625 
L 38.28125 72.90625 
L 38.28125 8.296875 
L 54.390625 8.296875 
L 54.390625 0 
L 12.40625 0 
z
" id="DejaVuSans-49"/>
     </defs>
     <g transform="translate(681.355951 98.544688)scale(0.1 -0.1)">
      <use xlink:href="#DejaVuSans-49"/>
      <use x="63.623047" xlink:href="#DejaVuSans-101"/>
      <use x="125.146484" xlink:href="#DejaVuSans-53"/>
     </g>
    </g>
   </g>
   <g id="matplotlib.axis_2">
    <g id="ytick_1">
     <g id="line2d_8">
      <defs>
       <path d="M 0 0 
L -3.5 0 
" id="mf830110dd8" style="stroke:#000000;stroke-width:0.8;"/>
      </defs>
      <g>
       <use style="stroke:#000000;stroke-width:0.8;" x="40.603125" xlink:href="#mf830110dd8" y="54.209792"/>
      </g>
     </g>
     <g id="text_10">
      <!-- 10 -->
      <g transform="translate(20.878125 58.00901)scale(0.1 -0.1)">
       <use xlink:href="#DejaVuSans-49"/>
       <use x="63.623047" xlink:href="#DejaVuSans-48"/>
      </g>
     </g>
    </g>
    <g id="ytick_2">
     <g id="line2d_9">
      <g>
       <use style="stroke:#000000;stroke-width:0.8;" x="40.603125" xlink:href="#mf830110dd8" y="35.668125"/>
      </g>
     </g>
     <g id="text_11">
      <!-- 15 -->
      <g transform="translate(20.878125 39.467344)scale(0.1 -0.1)">
       <use xlink:href="#DejaVuSans-49"/>
       <use x="63.623047" xlink:href="#DejaVuSans-53"/>
      </g>
     </g>
    </g>
    <g id="text_12">
     <!-- ADC Value -->
     <defs>
      <path d="M 34.1875 63.1875 
L 20.796875 26.90625 
L 47.609375 26.90625 
z
M 28.609375 72.90625 
L 39.796875 72.90625 
L 67.578125 0 
L 57.328125 0 
L 50.6875 18.703125 
L 17.828125 18.703125 
L 11.1875 0 
L 0.78125 0 
z
" id="DejaVuSans-65"/>
      <path d="M 19.671875 64.796875 
L 19.671875 8.109375 
L 31.59375 8.109375 
Q 46.6875 8.109375 53.6875 14.9375 
Q 60.6875 21.78125 60.6875 36.53125 
Q 60.6875 51.171875 53.6875 57.984375 
Q 46.6875 64.796875 31.59375 64.796875 
z
M 9.8125 72.90625 
L 30.078125 72.90625 
Q 51.265625 72.90625 61.171875 64.09375 
Q 71.09375 55.28125 71.09375 36.53125 
Q 71.09375 17.671875 61.125 8.828125 
Q 51.171875 0 30.078125 0 
L 9.8125 0 
z
" id="DejaVuSans-68"/>
      <path d="M 64.40625 67.28125 
L 64.40625 56.890625 
Q 59.421875 61.53125 53.78125 63.8125 
Q 48.140625 66.109375 41.796875 66.109375 
Q 29.296875 66.109375 22.65625 58.46875 
Q 16.015625 50.828125 16.015625 36.375 
Q 16.015625 21.96875 22.65625 14.328125 
Q 29.296875 6.6875 41.796875 6.6875 
Q 48.140625 6.6875 53.78125 8.984375 
Q 59.421875 11.28125 64.40625 15.921875 
L 64.40625 5.609375 
Q 59.234375 2.09375 53.4375 0.328125 
Q 47.65625 -1.421875 41.21875 -1.421875 
Q 24.65625 -1.421875 15.125 8.703125 
Q 5.609375 18.84375 5.609375 36.375 
Q 5.609375 53.953125 15.125 64.078125 
Q 24.65625 74.21875 41.21875 74.21875 
Q 47.75 74.21875 53.53125 72.484375 
Q 59.328125 70.75 64.40625 67.28125 
z
" id="DejaVuSans-67"/>
      <path d="M 28.609375 0 
L 0.78125 72.90625 
L 11.078125 72.90625 
L 34.1875 11.53125 
L 57.328125 72.90625 
L 67.578125 72.90625 
L 39.796875 0 
z
" id="DejaVuSans-86"/>
      <path d="M 34.28125 27.484375 
Q 23.390625 27.484375 19.1875 25 
Q 14.984375 22.515625 14.984375 16.5 
Q 14.984375 11.71875 18.140625 8.90625 
Q 21.296875 6.109375 26.703125 6.109375 
Q 34.1875 6.109375 38.703125 11.40625 
Q 43.21875 16.703125 43.21875 25.484375 
L 43.21875 27.484375 
z
M 52.203125 31.203125 
L 52.203125 0 
L 43.21875 0 
L 43.21875 8.296875 
Q 40.140625 3.328125 35.546875 0.953125 
Q 30.953125 -1.421875 24.3125 -1.421875 
Q 15.921875 -1.421875 10.953125 3.296875 
Q 6 8.015625 6 15.921875 
Q 6 25.140625 12.171875 29.828125 
Q 18.359375 34.515625 30.609375 34.515625 
L 43.21875 34.515625 
L 43.21875 35.40625 
Q 43.21875 41.609375 39.140625 45 
Q 35.0625 48.390625 27.6875 48.390625 
Q 23 48.390625 18.546875 47.265625 
Q 14.109375 46.140625 10.015625 43.890625 
L 10.015625 52.203125 
Q 14.9375 54.109375 19.578125 55.046875 
Q 24.21875 56 28.609375 56 
Q 40.484375 56 46.34375 49.84375 
Q 52.203125 43.703125 52.203125 31.203125 
z
" id="DejaVuSans-97"/>
      <path d="M 9.421875 75.984375 
L 18.40625 75.984375 
L 18.40625 0 
L 9.421875 0 
z
" id="DejaVuSans-108"/>
      <path d="M 8.5 21.578125 
L 8.5 54.6875 
L 17.484375 54.6875 
L 17.484375 21.921875 
Q 17.484375 14.15625 20.5 10.265625 
Q 23.53125 6.390625 29.59375 6.390625 
Q 36.859375 6.390625 41.078125 11.03125 
Q 45.3125 15.671875 45.3125 23.6875 
L 45.3125 54.6875 
L 54.296875 54.6875 
L 54.296875 0 
L 45.3125 0 
L 45.3125 8.40625 
Q 42.046875 3.421875 37.71875 1 
Q 33.40625 -1.421875 27.6875 -1.421875 
Q 18.265625 -1.421875 13.375 4.4375 
Q 8.5 10.296875 8.5 21.578125 
z
M 31.109375 56 
z
" id="DejaVuSans-117"/>
     </defs>
     <g transform="translate(14.798438 73.257188)rotate(-90)scale(0.1 -0.1)">
      <use xlink:href="#DejaVuSans-65"/>
      <use x="68.408203" xlink:href="#DejaVuSans-68"/>
      <use x="145.410156" xlink:href="#DejaVuSans-67"/>
      <use x="215.234375" xlink:href="#DejaVuSans-32"/>
      <use x="247.021484" xlink:href="#DejaVuSans-86"/>
      <use x="315.320312" xlink:href="#DejaVuSans-97"/>
      <use x="376.599609" xlink:href="#DejaVuSans-108"/>
      <use x="404.382812" xlink:href="#DejaVuSans-117"/>
      <use x="467.761719" xlink:href="#DejaVuSans-101"/>
     </g>
    </g>
   </g>
   <g id="line2d_10">
    <path clip-path="url(#p44e11918d7)" d="M 70.58635 69.043125 
L 72.440983 69.043125 
L 74.707756 61.626458 
L 80.477723 61.626458 
L 84.599129 54.209792 
L 88.308394 54.209792 
L 90.575167 50.501458 
L 93.25408 50.501458 
L 95.726924 46.793125 
L 97.993697 46.793125 
L 100.67261 43.084792 
L 102.939383 43.084792 
L 104.794016 46.793125 
L 106.648648 46.793125 
L 108.709351 50.501458 
L 110.770054 46.793125 
L 112.624686 46.793125 
L 115.3036 43.084792 
L 119.425005 43.084792 
L 121.279638 39.376458 
L 131.583152 39.376458 
L 133.437784 46.793125 
L 135.910627 50.501458 
L 137.76526 54.209792 
L 140.032033 61.626458 
L 144.153438 61.626458 
L 146.008071 65.334792 
L 148.068774 61.626458 
L 150.335547 65.334792 
L 152.190179 61.626458 
L 154.456952 61.626458 
L 158.166217 54.209792 
L 162.287623 54.209792 
L 164.142255 46.793125 
L 166.821169 43.084792 
L 169.087942 46.793125 
L 171.148644 43.084792 
L 173.003277 46.793125 
L 175.68219 43.084792 
L 177.536823 46.793125 
L 179.597526 43.084792 
L 181.452158 46.793125 
L 183.512861 39.376458 
L 185.367493 39.376458 
L 187.222126 46.793125 
L 189.282829 39.376458 
L 193.198164 39.376458 
L 195.464937 35.668125 
L 199.998483 35.668125 
L 201.853115 31.959792 
L 203.707748 35.668125 
L 205.974521 35.668125 
L 207.829153 31.959792 
L 210.095926 31.959792 
L 211.950559 28.251458 
L 213.805191 31.959792 
L 216.278035 28.251458 
L 218.132667 35.668125 
L 219.9873 39.376458 
L 221.841932 46.793125 
L 224.314775 54.209792 
L 226.169408 57.918125 
L 228.230111 61.626458 
L 240.594327 61.626458 
L 242.44896 57.918125 
L 244.303592 57.918125 
L 248.424998 50.501458 
L 253.164614 50.501458 
L 255.637457 46.793125 
L 257.69816 43.084792 
L 259.964933 46.793125 
L 262.437776 39.376458 
L 264.704549 43.084792 
L 266.971322 39.376458 
L 274.595923 39.376458 
L 277.274836 31.959792 
L 279.541609 35.668125 
L 281.396242 35.668125 
L 283.250874 31.959792 
L 293.966528 31.959792 
L 298.087934 39.376458 
L 299.942566 43.084792 
L 302.209339 54.209792 
L 304.270042 54.209792 
L 307.979307 61.626458 
L 312.306783 61.626458 
L 314.161415 65.334792 
L 318.282821 57.918125 
L 320.755664 54.209792 
L 324.464929 54.209792 
L 326.731702 50.501458 
L 328.792405 50.501458 
L 330.853108 46.793125 
L 332.70774 46.793125 
L 334.974513 43.084792 
L 336.829146 46.793125 
L 338.889848 39.376458 
L 340.744481 46.793125 
L 343.011254 43.084792 
L 344.865886 35.668125 
L 346.926589 39.376458 
L 353.108697 39.376458 
L 355.1694 35.668125 
L 359.290806 35.668125 
L 361.145438 31.959792 
L 369.388249 31.959792 
L 371.861092 28.251458 
L 375.776428 28.251458 
L 377.63106 31.959792 
L 381.752466 39.376458 
L 385.461731 54.209792 
L 387.522433 57.918125 
L 389.377066 57.918125 
L 391.437769 61.626458 
L 393.292401 65.334792 
L 399.88665 65.334792 
L 401.741282 61.626458 
L 403.595915 61.626458 
L 407.71732 54.209792 
L 409.571953 54.209792 
L 411.426585 50.501458 
L 413.487288 46.793125 
L 415.547991 46.793125 
L 417.814764 43.084792 
L 419.669396 46.793125 
L 423.378661 46.793125 
L 425.645434 43.084792 
L 428.118278 39.376458 
L 434.300386 39.376458 
L 436.155018 35.668125 
L 438.009651 39.376458 
L 440.482494 35.668125 
L 442.749267 31.959792 
L 448.725305 31.959792 
L 450.786008 28.251458 
L 453.052781 28.251458 
L 455.113484 24.543125 
L 463.562365 24.543125 
L 465.623068 28.251458 
L 467.4777 28.251458 
L 469.744473 35.668125 
L 472.423387 46.793125 
L 474.278019 46.793125 
L 476.132652 54.209792 
L 478.193355 54.209792 
L 480.254057 57.918125 
L 483.963322 57.918125 
L 485.817955 54.209792 
L 489.93936 54.209792 
L 491.793993 50.501458 
L 493.648625 50.501458 
L 495.915398 46.793125 
L 497.976101 46.793125 
L 500.448944 50.501458 
L 505.188561 50.501458 
L 507.043193 54.209792 
L 509.516036 50.501458 
L 513.637442 50.501458 
L 515.698145 46.793125 
L 521.468112 46.793125 
L 523.528815 43.084792 
L 525.795588 46.793125 
L 527.650221 39.376458 
L 529.504853 43.084792 
L 531.771626 39.376458 
L 535.068751 31.959792 
L 537.129453 39.376458 
L 545.166194 39.376458 
L 547.432967 35.668125 
L 549.49367 39.376458 
L 551.760443 35.668125 
L 553.821146 39.376458 
L 556.087919 46.793125 
L 558.560762 54.209792 
L 560.621465 61.626458 
L 567.215713 61.626458 
L 569.276416 65.334792 
L 571.337119 65.334792 
L 573.397822 61.626458 
L 575.870665 57.918125 
L 577.725297 54.209792 
L 579.992071 54.209792 
L 581.846703 50.501458 
L 584.319546 46.793125 
L 588.028811 46.793125 
L 590.295584 43.084792 
L 592.356287 46.793125 
L 594.41699 43.084792 
L 596.271622 39.376458 
L 602.453731 39.376458 
L 604.308363 35.668125 
L 606.369066 35.668125 
L 608.429768 31.959792 
L 610.490471 35.668125 
L 612.757244 35.668125 
L 614.611877 39.376458 
L 619.557563 31.959792 
L 621.412196 35.668125 
L 623.678969 31.959792 
L 632.33392 31.959792 
L 634.600693 35.668125 
L 636.661396 39.376458 
L 640.782802 54.209792 
L 642.637434 54.209792 
L 645.110277 50.501458 
L 646.96491 57.918125 
L 651.086315 57.918125 
L 653.147018 54.209792 
L 657.680564 54.209792 
L 659.947337 46.793125 
L 661.80197 46.793125 
L 663.862673 50.501458 
L 666.129446 43.084792 
L 667.984078 39.376458 
L 670.250851 39.376458 
L 670.250851 39.376458 
" style="fill:none;stroke:#1f77b4;stroke-linecap:square;stroke-width:1.5;"/>
   </g>
   <g id="patch_3">
    <path d="M 40.603125 71.268125 
L 40.603125 22.318125 
" style="fill:none;stroke:#000000;stroke-linecap:square;stroke-linejoin:miter;stroke-width:0.8;"/>
   </g>
   <g id="patch_4">
    <path d="M 700.234076 71.268125 
L 700.234076 22.318125 
" style="fill:none;stroke:#000000;stroke-linecap:square;stroke-linejoin:miter;stroke-width:0.8;"/>
   </g>
   <g id="patch_5">
    <path d="M 40.603125 71.268125 
L 700.234076 71.268125 
" style="fill:none;stroke:#000000;stroke-linecap:square;stroke-linejoin:miter;stroke-width:0.8;"/>
   </g>
   <g id="patch_6">
    <path d="M 40.603125 22.318125 
L 700.234076 22.318125 
" style="fill:none;stroke:#000000;stroke-linecap:square;stroke-linejoin:miter;stroke-width:0.8;"/>
   </g>
   <g id="text_13">
    <!-- RED LED Input Signal -->
    <defs>
     <path d="M 44.390625 34.1875 
Q 47.5625 33.109375 50.5625 29.59375 
Q 53.5625 26.078125 56.59375 19.921875 
L 66.609375 0 
L 56 0 
L 46.6875 18.703125 
Q 43.0625 26.03125 39.671875 28.421875 
Q 36.28125 30.8125 30.421875 30.8125 
L 19.671875 30.8125 
L 19.671875 0 
L 9.8125 0 
L 9.8125 72.90625 
L 32.078125 72.90625 
Q 44.578125 72.90625 50.734375 67.671875 
Q 56.890625 62.453125 56.890625 51.90625 
Q 56.890625 45.015625 53.6875 40.46875 
Q 50.484375 35.9375 44.390625 34.1875 
z
M 19.671875 64.796875 
L 19.671875 38.921875 
L 32.078125 38.921875 
Q 39.203125 38.921875 42.84375 42.21875 
Q 46.484375 45.515625 46.484375 51.90625 
Q 46.484375 58.296875 42.84375 61.546875 
Q 39.203125 64.796875 32.078125 64.796875 
z
" id="DejaVuSans-82"/>
     <path d="M 9.8125 72.90625 
L 55.90625 72.90625 
L 55.90625 64.59375 
L 19.671875 64.59375 
L 19.671875 43.015625 
L 54.390625 43.015625 
L 54.390625 34.71875 
L 19.671875 34.71875 
L 19.671875 8.296875 
L 56.78125 8.296875 
L 56.78125 0 
L 9.8125 0 
z
" id="DejaVuSans-69"/>
     <path d="M 9.8125 72.90625 
L 19.671875 72.90625 
L 19.671875 8.296875 
L 55.171875 8.296875 
L 55.171875 0 
L 9.8125 0 
z
" id="DejaVuSans-76"/>
     <path d="M 9.8125 72.90625 
L 19.671875 72.90625 
L 19.671875 0 
L 9.8125 0 
z
" id="DejaVuSans-73"/>
     <path d="M 54.890625 33.015625 
L 54.890625 0 
L 45.90625 0 
L 45.90625 32.71875 
Q 45.90625 40.484375 42.875 44.328125 
Q 39.84375 48.1875 33.796875 48.1875 
Q 26.515625 48.1875 22.3125 43.546875 
Q 18.109375 38.921875 18.109375 30.90625 
L 18.109375 0 
L 9.078125 0 
L 9.078125 54.6875 
L 18.109375 54.6875 
L 18.109375 46.1875 
Q 21.34375 51.125 25.703125 53.5625 
Q 30.078125 56 35.796875 56 
Q 45.21875 56 50.046875 50.171875 
Q 54.890625 44.34375 54.890625 33.015625 
z
" id="DejaVuSans-110"/>
     <path d="M 18.109375 8.203125 
L 18.109375 -20.796875 
L 9.078125 -20.796875 
L 9.078125 54.6875 
L 18.109375 54.6875 
L 18.109375 46.390625 
Q 20.953125 51.265625 25.265625 53.625 
Q 29.59375 56 35.59375 56 
Q 45.5625 56 51.78125 48.09375 
Q 58.015625 40.1875 58.015625 27.296875 
Q 58.015625 14.40625 51.78125 6.484375 
Q 45.5625 -1.421875 35.59375 -1.421875 
Q 29.59375 -1.421875 25.265625 0.953125 
Q 20.953125 3.328125 18.109375 8.203125 
z
M 48.6875 27.296875 
Q 48.6875 37.203125 44.609375 42.84375 
Q 40.53125 48.484375 33.40625 48.484375 
Q 26.265625 48.484375 22.1875 42.84375 
Q 18.109375 37.203125 18.109375 27.296875 
Q 18.109375 17.390625 22.1875 11.75 
Q 26.265625 6.109375 33.40625 6.109375 
Q 40.53125 6.109375 44.609375 11.75 
Q 48.6875 17.390625 48.6875 27.296875 
z
" id="DejaVuSans-112"/>
     <path d="M 18.3125 70.21875 
L 18.3125 54.6875 
L 36.8125 54.6875 
L 36.8125 47.703125 
L 18.3125 47.703125 
L 18.3125 18.015625 
Q 18.3125 11.328125 20.140625 9.421875 
Q 21.96875 7.515625 27.59375 7.515625 
L 36.8125 7.515625 
L 36.8125 0 
L 27.59375 0 
Q 17.1875 0 13.234375 3.875 
Q 9.28125 7.765625 9.28125 18.015625 
L 9.28125 47.703125 
L 2.6875 47.703125 
L 2.6875 54.6875 
L 9.28125 54.6875 
L 9.28125 70.21875 
z
" id="DejaVuSans-116"/>
     <path d="M 53.515625 70.515625 
L 53.515625 60.890625 
Q 47.90625 63.578125 42.921875 64.890625 
Q 37.9375 66.21875 33.296875 66.21875 
Q 25.25 66.21875 20.875 63.09375 
Q 16.5 59.96875 16.5 54.203125 
Q 16.5 49.359375 19.40625 46.890625 
Q 22.3125 44.4375 30.421875 42.921875 
L 36.375 41.703125 
Q 47.40625 39.59375 52.65625 34.296875 
Q 57.90625 29 57.90625 20.125 
Q 57.90625 9.515625 50.796875 4.046875 
Q 43.703125 -1.421875 29.984375 -1.421875 
Q 24.8125 -1.421875 18.96875 -0.25 
Q 13.140625 0.921875 6.890625 3.21875 
L 6.890625 13.375 
Q 12.890625 10.015625 18.65625 8.296875 
Q 24.421875 6.59375 29.984375 6.59375 
Q 38.421875 6.59375 43.015625 9.90625 
Q 47.609375 13.234375 47.609375 19.390625 
Q 47.609375 24.75 44.3125 27.78125 
Q 41.015625 30.8125 33.5 32.328125 
L 27.484375 33.5 
Q 16.453125 35.6875 11.515625 40.375 
Q 6.59375 45.0625 6.59375 53.421875 
Q 6.59375 63.09375 13.40625 68.65625 
Q 20.21875 74.21875 32.171875 74.21875 
Q 37.3125 74.21875 42.625 73.28125 
Q 47.953125 72.359375 53.515625 70.515625 
z
" id="DejaVuSans-83"/>
     <path d="M 45.40625 27.984375 
Q 45.40625 37.75 41.375 43.109375 
Q 37.359375 48.484375 30.078125 48.484375 
Q 22.859375 48.484375 18.828125 43.109375 
Q 14.796875 37.75 14.796875 27.984375 
Q 14.796875 18.265625 18.828125 12.890625 
Q 22.859375 7.515625 30.078125 7.515625 
Q 37.359375 7.515625 41.375 12.890625 
Q 45.40625 18.265625 45.40625 27.984375 
z
M 54.390625 6.78125 
Q 54.390625 -7.171875 48.1875 -13.984375 
Q 42 -20.796875 29.203125 -20.796875 
Q 24.46875 -20.796875 20.265625 -20.09375 
Q 16.0625 -19.390625 12.109375 -17.921875 
L 12.109375 -9.1875 
Q 16.0625 -11.328125 19.921875 -12.34375 
Q 23.78125 -13.375 27.78125 -13.375 
Q 36.625 -13.375 41.015625 -8.765625 
Q 45.40625 -4.15625 45.40625 5.171875 
L 45.40625 9.625 
Q 42.625 4.78125 38.28125 2.390625 
Q 33.9375 0 27.875 0 
Q 17.828125 0 11.671875 7.65625 
Q 5.515625 15.328125 5.515625 27.984375 
Q 5.515625 40.671875 11.671875 48.328125 
Q 17.828125 56 27.875 56 
Q 33.9375 56 38.28125 53.609375 
Q 42.625 51.21875 45.40625 46.390625 
L 45.40625 54.6875 
L 54.390625 54.6875 
z
" id="DejaVuSans-103"/>
    </defs>
    <g transform="translate(306.395788 16.318125)scale(0.12 -0.12)">
     <use xlink:href="#DejaVuSans-82"/>
     <use x="69.482422" xlink:href="#DejaVuSans-69"/>
     <use x="132.666016" xlink:href="#DejaVuSans-68"/>
     <use x="209.667969" xlink:href="#DejaVuSans-32"/>
     <use x="241.455078" xlink:href="#DejaVuSans-76"/>
     <use x="297.167969" xlink:href="#DejaVuSans-69"/>
     <use x="360.351562" xlink:href="#DejaVuSans-68"/>
     <use x="437.353516" xlink:href="#DejaVuSans-32"/>
     <use x="469.140625" xlink:href="#DejaVuSans-73"/>
     <use x="498.632812" xlink:href="#DejaVuSans-110"/>
     <use x="562.011719" xlink:href="#DejaVuSans-112"/>
     <use x="625.488281" xlink:href="#DejaVuSans-117"/>
     <use x="688.867188" xlink:href="#DejaVuSans-116"/>
     <use x="728.076172" xlink:href="#DejaVuSans-32"/>
     <use x="759.863281" xlink:href="#DejaVuSans-83"/>
     <use x="823.339844" xlink:href="#DejaVuSans-105"/>
     <use x="851.123047" xlink:href="#DejaVuSans-103"/>
     <use x="914.599609" xlink:href="#DejaVuSans-110"/>
     <use x="977.978516" xlink:href="#DejaVuSans-97"/>
     <use x="1039.257812" xlink:href="#DejaVuSans-108"/>
    </g>
   </g>
  </g>
  <g id="axes_2">
   <g id="patch_7">
    <path d="M 40.603125 176.818125 
L 700.234076 176.818125 
L 700.234076 127.868125 
L 40.603125 127.868125 
z
" style="fill:#ffffff;"/>
   </g>
   <g id="matplotlib.axis_3">
    <g id="xtick_8">
     <g id="line2d_11">
      <g>
       <use style="stroke:#000000;stroke-width:0.8;" x="72.647053" xlink:href="#m0acddb1c65" y="176.818125"/>
      </g>
     </g>
     <g id="text_14">
      <!-- 3.575 -->
      <g transform="translate(58.33299 191.416562)scale(0.1 -0.1)">
       <use xlink:href="#DejaVuSans-51"/>
       <use x="63.623047" xlink:href="#DejaVuSans-46"/>
       <use x="95.410156" xlink:href="#DejaVuSans-53"/>
       <use x="159.033203" xlink:href="#DejaVuSans-55"/>
       <use x="222.65625" xlink:href="#DejaVuSans-53"/>
      </g>
     </g>
    </g>
    <g id="xtick_9">
     <g id="line2d_12">
      <g>
       <use style="stroke:#000000;stroke-width:0.8;" x="175.68219" xlink:href="#m0acddb1c65" y="176.818125"/>
      </g>
     </g>
     <g id="text_15">
      <!-- 3.580 -->
      <g transform="translate(161.368128 191.416562)scale(0.1 -0.1)">
       <use xlink:href="#DejaVuSans-51"/>
       <use x="63.623047" xlink:href="#DejaVuSans-46"/>
       <use x="95.410156" xlink:href="#DejaVuSans-53"/>
       <use x="159.033203" xlink:href="#DejaVuSans-56"/>
       <use x="222.65625" xlink:href="#DejaVuSans-48"/>
      </g>
     </g>
    </g>
    <g id="xtick_10">
     <g id="line2d_13">
      <g>
       <use style="stroke:#000000;stroke-width:0.8;" x="278.717328" xlink:href="#m0acddb1c65" y="176.818125"/>
      </g>
     </g>
     <g id="text_16">
      <!-- 3.585 -->
      <g transform="translate(264.403266 191.416562)scale(0.1 -0.1)">
       <use xlink:href="#DejaVuSans-51"/>
       <use x="63.623047" xlink:href="#DejaVuSans-46"/>
       <use x="95.410156" xlink:href="#DejaVuSans-53"/>
       <use x="159.033203" xlink:href="#DejaVuSans-56"/>
       <use x="222.65625" xlink:href="#DejaVuSans-53"/>
      </g>
     </g>
    </g>
    <g id="xtick_11">
     <g id="line2d_14">
      <g>
       <use style="stroke:#000000;stroke-width:0.8;" x="381.752466" xlink:href="#m0acddb1c65" y="176.818125"/>
      </g>
     </g>
     <g id="text_17">
      <!-- 3.590 -->
      <g transform="translate(367.438403 191.416562)scale(0.1 -0.1)">
       <use xlink:href="#DejaVuSans-51"/>
       <use x="63.623047" xlink:href="#DejaVuSans-46"/>
       <use x="95.410156" xlink:href="#DejaVuSans-53"/>
       <use x="159.033203" xlink:href="#DejaVuSans-57"/>
       <use x="222.65625" xlink:href="#DejaVuSans-48"/>
      </g>
     </g>
    </g>
    <g id="xtick_12">
     <g id="line2d_15">
      <g>
       <use style="stroke:#000000;stroke-width:0.8;" x="484.787603" xlink:href="#m0acddb1c65" y="176.818125"/>
      </g>
     </g>
     <g id="text_18">
      <!-- 3.595 -->
      <g transform="translate(470.473541 191.416562)scale(0.1 -0.1)">
       <use xlink:href="#DejaVuSans-51"/>
       <use x="63.623047" xlink:href="#DejaVuSans-46"/>
       <use x="95.410156" xlink:href="#DejaVuSans-53"/>
       <use x="159.033203" xlink:href="#DejaVuSans-57"/>
       <use x="222.65625" xlink:href="#DejaVuSans-53"/>
      </g>
     </g>
    </g>
    <g id="xtick_13">
     <g id="line2d_16">
      <g>
       <use style="stroke:#000000;stroke-width:0.8;" x="587.822741" xlink:href="#m0acddb1c65" y="176.818125"/>
      </g>
     </g>
     <g id="text_19">
      <!-- 3.600 -->
      <g transform="translate(573.508678 191.416562)scale(0.1 -0.1)">
       <use xlink:href="#DejaVuSans-51"/>
       <use x="63.623047" xlink:href="#DejaVuSans-46"/>
       <use x="95.410156" xlink:href="#DejaVuSans-54"/>
       <use x="159.033203" xlink:href="#DejaVuSans-48"/>
       <use x="222.65625" xlink:href="#DejaVuSans-48"/>
      </g>
     </g>
    </g>
    <g id="xtick_14">
     <g id="line2d_17">
      <g>
       <use style="stroke:#000000;stroke-width:0.8;" x="690.857879" xlink:href="#m0acddb1c65" y="176.818125"/>
      </g>
     </g>
     <g id="text_20">
      <!-- 3.605 -->
      <g transform="translate(676.543816 191.416562)scale(0.1 -0.1)">
       <use xlink:href="#DejaVuSans-51"/>
       <use x="63.623047" xlink:href="#DejaVuSans-46"/>
       <use x="95.410156" xlink:href="#DejaVuSans-54"/>
       <use x="159.033203" xlink:href="#DejaVuSans-48"/>
       <use x="222.65625" xlink:href="#DejaVuSans-53"/>
      </g>
     </g>
    </g>
    <g id="text_21">
     <!-- Time (ms) -->
     <g transform="translate(345.065476 205.094687)scale(0.1 -0.1)">
      <use xlink:href="#DejaVuSans-84"/>
      <use x="61.037109" xlink:href="#DejaVuSans-105"/>
      <use x="88.820312" xlink:href="#DejaVuSans-109"/>
      <use x="186.232422" xlink:href="#DejaVuSans-101"/>
      <use x="247.755859" xlink:href="#DejaVuSans-32"/>
      <use x="279.542969" xlink:href="#DejaVuSans-40"/>
      <use x="318.556641" xlink:href="#DejaVuSans-109"/>
      <use x="415.96875" xlink:href="#DejaVuSans-115"/>
      <use x="468.068359" xlink:href="#DejaVuSans-41"/>
     </g>
    </g>
    <g id="text_22">
     <!-- 1e5 -->
     <g transform="translate(681.355951 204.094687)scale(0.1 -0.1)">
      <use xlink:href="#DejaVuSans-49"/>
      <use x="63.623047" xlink:href="#DejaVuSans-101"/>
      <use x="125.146484" xlink:href="#DejaVuSans-53"/>
     </g>
    </g>
   </g>
   <g id="matplotlib.axis_4">
    <g id="ytick_3">
     <g id="line2d_18">
      <g>
       <use style="stroke:#000000;stroke-width:0.8;" x="40.603125" xlink:href="#mf830110dd8" y="160.130282"/>
      </g>
     </g>
     <g id="text_23">
      <!-- 10 -->
      <g transform="translate(20.878125 163.929501)scale(0.1 -0.1)">
       <use xlink:href="#DejaVuSans-49"/>
       <use x="63.623047" xlink:href="#DejaVuSans-48"/>
      </g>
     </g>
    </g>
    <g id="ytick_4">
     <g id="line2d_19">
      <g>
       <use style="stroke:#000000;stroke-width:0.8;" x="40.603125" xlink:href="#mf830110dd8" y="142.092764"/>
      </g>
     </g>
     <g id="text_24">
      <!-- 15 -->
      <g transform="translate(20.878125 145.891983)scale(0.1 -0.1)">
       <use xlink:href="#DejaVuSans-49"/>
       <use x="63.623047" xlink:href="#DejaVuSans-53"/>
      </g>
     </g>
    </g>
    <g id="text_25">
     <!-- ADC Value -->
     <g transform="translate(14.798438 178.807187)rotate(-90)scale(0.1 -0.1)">
      <use xlink:href="#DejaVuSans-65"/>
      <use x="68.408203" xlink:href="#DejaVuSans-68"/>
      <use x="145.410156" xlink:href="#DejaVuSans-67"/>
      <use x="215.234375" xlink:href="#DejaVuSans-32"/>
      <use x="247.021484" xlink:href="#DejaVuSans-86"/>
      <use x="315.320312" xlink:href="#DejaVuSans-97"/>
      <use x="376.599609" xlink:href="#DejaVuSans-108"/>
      <use x="404.382812" xlink:href="#DejaVuSans-117"/>
      <use x="467.761719" xlink:href="#DejaVuSans-101"/>
     </g>
    </g>
   </g>
   <g id="line2d_20">
    <path clip-path="url(#pb5dae3caa2)" d="M 70.58635 174.593125 
L 72.440983 172.62451 
L 76.768458 168.849619 
L 80.477723 165.357555 
L 84.599129 161.881004 
L 88.308394 158.217945 
L 90.575167 156.418883 
L 93.25408 154.785044 
L 95.726924 153.44666 
L 97.993697 152.513038 
L 100.67261 152.036487 
L 102.939383 151.988507 
L 104.794016 152.251855 
L 106.648648 152.637497 
L 108.709351 152.919243 
L 110.770054 152.883529 
L 112.624686 152.378479 
L 115.3036 151.357194 
L 117.570373 149.899041 
L 121.279638 146.561379 
L 123.13427 145.305246 
L 125.194973 144.747165 
L 127.461746 145.120181 
L 129.316379 146.535405 
L 131.583152 148.957122 
L 133.437784 152.206761 
L 135.910627 155.98959 
L 137.76526 159.939085 
L 141.886665 166.838074 
L 144.153438 169.164554 
L 146.008071 170.485261 
L 148.068774 170.748969 
L 150.335547 170.015564 
L 152.190179 168.437642 
L 154.456952 166.233818 
L 160.02085 158.398681 
L 164.142255 154.294063 
L 166.821169 152.927901 
L 169.087942 152.009792 
L 171.148644 151.454597 
L 173.003277 151.135694 
L 177.536823 150.654813 
L 179.597526 150.271696 
L 183.512861 149.013038 
L 189.282829 146.535766 
L 197.73171 143.473717 
L 199.998483 142.453154 
L 201.853115 141.22516 
L 203.707748 139.839157 
L 207.829153 137.251855 
L 210.095926 136.564626 
L 211.950559 136.662028 
L 213.805191 137.769171 
L 216.278035 139.995362 
L 218.132667 143.295506 
L 219.9873 147.462173 
L 221.841932 152.149763 
L 224.314775 156.926819 
L 226.169408 161.346011 
L 228.230111 165.017007 
L 230.084743 167.664554 
L 232.145446 169.163111 
L 234.000078 169.541898 
L 236.266851 168.957844 
L 240.594327 165.886415 
L 244.303592 161.896516 
L 248.424998 158.133529 
L 250.691771 156.406978 
L 255.637457 153.137858 
L 257.69816 151.575809 
L 259.964933 150.094207 
L 264.704549 147.572923 
L 268.825955 145.831581 
L 272.74129 144.563543 
L 274.595923 143.860441 
L 277.274836 142.980571 
L 279.541609 141.884251 
L 283.250874 139.286848 
L 285.517647 138.125232 
L 287.57835 137.386776 
L 289.845123 137.339517 
L 291.699755 138.204236 
L 293.966528 140.104669 
L 296.027231 143.032519 
L 298.087934 146.833024 
L 299.942566 151.218305 
L 306.124675 163.912028 
L 307.979307 166.715419 
L 309.83394 168.389301 
L 312.306783 168.891466 
L 314.161415 168.321841 
L 316.222118 166.893991 
L 320.755664 162.610441 
L 322.610297 160.318955 
L 324.464929 158.212533 
L 326.731702 156.399763 
L 328.792405 154.902288 
L 332.70774 152.620903 
L 334.974513 151.650845 
L 340.744481 148.63894 
L 343.011254 147.602144 
L 344.865886 146.62451 
L 346.926589 145.757266 
L 348.987292 145.027108 
L 353.108697 143.886054 
L 355.1694 143.333024 
L 359.290806 141.793341 
L 361.145438 140.684756 
L 363.000071 139.366574 
L 367.327546 136.611523 
L 369.388249 135.598176 
L 371.861092 135.167079 
L 373.921795 135.555246 
L 375.776428 136.93223 
L 377.63106 139.366935 
L 379.691763 142.802721 
L 381.752466 147.05705 
L 385.461731 156.781797 
L 389.377066 165.60503 
L 391.437769 168.809575 
L 393.292401 170.905896 
L 395.559174 171.813543 
L 397.825947 171.574366 
L 399.88665 170.339878 
L 401.741282 168.342764 
L 405.656618 163.184756 
L 409.571953 158.209287 
L 411.426585 156.229128 
L 413.487288 154.664554 
L 415.547991 153.473717 
L 423.378661 150.205318 
L 428.118278 148.110441 
L 429.97291 146.896516 
L 438.009651 142.502216 
L 442.749267 140.8121 
L 446.870673 138.668522 
L 453.052781 133.699186 
L 455.113484 131.98959 
L 457.174186 130.681509 
L 459.64703 130.093125 
L 461.707733 130.505823 
L 463.562365 132.103226 
L 465.623068 134.923572 
L 469.744473 143.53793 
L 472.423387 148.607555 
L 474.278019 153.550917 
L 476.132652 157.886415 
L 478.193355 161.218305 
L 480.254057 163.298392 
L 482.10869 164.0621 
L 483.963322 163.629922 
L 485.817955 162.278551 
L 488.084728 160.384972 
L 489.93936 158.357555 
L 491.793993 156.565708 
L 493.648625 155.280715 
L 495.915398 154.640023 
L 497.976101 154.63894 
L 500.448944 155.145795 
L 502.509647 155.939806 
L 507.043193 157.372707 
L 509.516036 157.582302 
L 511.370669 157.294784 
L 513.637442 156.510513 
L 515.698145 155.317512 
L 521.468112 150.887497 
L 523.528815 149.643269 
L 527.650221 147.901206 
L 529.504853 147.301278 
L 531.771626 146.742115 
L 535.068751 146.115492 
L 537.129453 145.358998 
L 538.984086 144.487425 
L 543.311562 142.914914 
L 545.166194 142.656617 
L 547.432967 143.089157 
L 549.49367 144.414193 
L 551.760443 146.724438 
L 553.821146 149.963616 
L 558.560762 158.21578 
L 560.621465 162.421769 
L 562.682167 166.066429 
L 564.74287 168.748608 
L 567.215713 170.198464 
L 569.276416 170.325087 
L 571.337119 169.224077 
L 573.397822 167.15337 
L 575.870665 164.473717 
L 577.725297 161.577252 
L 581.846703 156.416718 
L 586.174179 153.04262 
L 588.028811 151.909142 
L 592.356287 149.924294 
L 594.41699 148.79731 
L 599.980887 144.846733 
L 604.308363 142.886415 
L 606.369066 142.39832 
L 608.429768 142.207844 
L 612.757244 142.171769 
L 614.611877 141.984539 
L 617.08472 141.516285 
L 619.557563 140.75402 
L 621.412196 139.803082 
L 623.678969 138.877757 
L 625.945742 138.262317 
L 628.212515 138.250412 
L 630.479288 139.078695 
L 632.33392 140.870181 
L 634.600693 143.59529 
L 636.661396 147.067512 
L 642.637434 158.448103 
L 645.110277 161.256545 
L 646.96491 163.075087 
L 649.231683 163.796227 
L 651.086315 163.457483 
L 653.147018 162.22047 
L 655.413791 160.33122 
L 659.947337 155.687642 
L 661.80197 153.389301 
L 663.862673 151.285766 
L 666.129446 149.397238 
L 667.984078 147.665636 
L 670.250851 145.979849 
L 670.250851 145.979849 
" style="fill:none;stroke:#1f77b4;stroke-linecap:square;stroke-width:1.5;"/>
   </g>
   <g id="patch_8">
    <path d="M 40.603125 176.818125 
L 40.603125 127.868125 
" style="fill:none;stroke:#000000;stroke-linecap:square;stroke-linejoin:miter;stroke-width:0.8;"/>
   </g>
   <g id="patch_9">
    <path d="M 700.234076 176.818125 
L 700.234076 127.868125 
" style="fill:none;stroke:#000000;stroke-linecap:square;stroke-linejoin:miter;stroke-width:0.8;"/>
   </g>
   <g id="patch_10">
    <path d="M 40.603125 176.818125 
L 700.234076 176.818125 
" style="fill:none;stroke:#000000;stroke-linecap:square;stroke-linejoin:miter;stroke-width:0.8;"/>
   </g>
   <g id="patch_11">
    <path d="M 40.603125 127.868125 
L 700.234076 127.868125 
" style="fill:none;stroke:#000000;stroke-linecap:square;stroke-linejoin:miter;stroke-width:0.8;"/>
   </g>
   <g id="text_26">
    <!-- Pre-processed Signal -->
    <defs>
     <path d="M 19.671875 64.796875 
L 19.671875 37.40625 
L 32.078125 37.40625 
Q 38.96875 37.40625 42.71875 40.96875 
Q 46.484375 44.53125 46.484375 51.125 
Q 46.484375 57.671875 42.71875 61.234375 
Q 38.96875 64.796875 32.078125 64.796875 
z
M 9.8125 72.90625 
L 32.078125 72.90625 
Q 44.34375 72.90625 50.609375 67.359375 
Q 56.890625 61.8125 56.890625 51.125 
Q 56.890625 40.328125 50.609375 34.8125 
Q 44.34375 29.296875 32.078125 29.296875 
L 19.671875 29.296875 
L 19.671875 0 
L 9.8125 0 
z
" id="DejaVuSans-80"/>
     <path d="M 41.109375 46.296875 
Q 39.59375 47.171875 37.8125 47.578125 
Q 36.03125 48 33.890625 48 
Q 26.265625 48 22.1875 43.046875 
Q 18.109375 38.09375 18.109375 28.8125 
L 18.109375 0 
L 9.078125 0 
L 9.078125 54.6875 
L 18.109375 54.6875 
L 18.109375 46.1875 
Q 20.953125 51.171875 25.484375 53.578125 
Q 30.03125 56 36.53125 56 
Q 37.453125 56 38.578125 55.875 
Q 39.703125 55.765625 41.0625 55.515625 
z
" id="DejaVuSans-114"/>
     <path d="M 4.890625 31.390625 
L 31.203125 31.390625 
L 31.203125 23.390625 
L 4.890625 23.390625 
z
" id="DejaVuSans-45"/>
     <path d="M 30.609375 48.390625 
Q 23.390625 48.390625 19.1875 42.75 
Q 14.984375 37.109375 14.984375 27.296875 
Q 14.984375 17.484375 19.15625 11.84375 
Q 23.34375 6.203125 30.609375 6.203125 
Q 37.796875 6.203125 41.984375 11.859375 
Q 46.1875 17.53125 46.1875 27.296875 
Q 46.1875 37.015625 41.984375 42.703125 
Q 37.796875 48.390625 30.609375 48.390625 
z
M 30.609375 56 
Q 42.328125 56 49.015625 48.375 
Q 55.71875 40.765625 55.71875 27.296875 
Q 55.71875 13.875 49.015625 6.21875 
Q 42.328125 -1.421875 30.609375 -1.421875 
Q 18.84375 -1.421875 12.171875 6.21875 
Q 5.515625 13.875 5.515625 27.296875 
Q 5.515625 40.765625 12.171875 48.375 
Q 18.84375 56 30.609375 56 
z
" id="DejaVuSans-111"/>
     <path d="M 48.78125 52.59375 
L 48.78125 44.1875 
Q 44.96875 46.296875 41.140625 47.34375 
Q 37.3125 48.390625 33.40625 48.390625 
Q 24.65625 48.390625 19.8125 42.84375 
Q 14.984375 37.3125 14.984375 27.296875 
Q 14.984375 17.28125 19.8125 11.734375 
Q 24.65625 6.203125 33.40625 6.203125 
Q 37.3125 6.203125 41.140625 7.25 
Q 44.96875 8.296875 48.78125 10.40625 
L 48.78125 2.09375 
Q 45.015625 0.34375 40.984375 -0.53125 
Q 36.96875 -1.421875 32.421875 -1.421875 
Q 20.0625 -1.421875 12.78125 6.34375 
Q 5.515625 14.109375 5.515625 27.296875 
Q 5.515625 40.671875 12.859375 48.328125 
Q 20.21875 56 33.015625 56 
Q 37.15625 56 41.109375 55.140625 
Q 45.0625 54.296875 48.78125 52.59375 
z
" id="DejaVuSans-99"/>
     <path d="M 45.40625 46.390625 
L 45.40625 75.984375 
L 54.390625 75.984375 
L 54.390625 0 
L 45.40625 0 
L 45.40625 8.203125 
Q 42.578125 3.328125 38.25 0.953125 
Q 33.9375 -1.421875 27.875 -1.421875 
Q 17.96875 -1.421875 11.734375 6.484375 
Q 5.515625 14.40625 5.515625 27.296875 
Q 5.515625 40.1875 11.734375 48.09375 
Q 17.96875 56 27.875 56 
Q 33.9375 56 38.25 53.625 
Q 42.578125 51.265625 45.40625 46.390625 
z
M 14.796875 27.296875 
Q 14.796875 17.390625 18.875 11.75 
Q 22.953125 6.109375 30.078125 6.109375 
Q 37.203125 6.109375 41.296875 11.75 
Q 45.40625 17.390625 45.40625 27.296875 
Q 45.40625 37.203125 41.296875 42.84375 
Q 37.203125 48.484375 30.078125 48.484375 
Q 22.953125 48.484375 18.875 42.84375 
Q 14.796875 37.203125 14.796875 27.296875 
z
" id="DejaVuSans-100"/>
    </defs>
    <g transform="translate(307.454226 121.868125)scale(0.12 -0.12)">
     <use xlink:href="#DejaVuSans-80"/>
     <use x="60.287109" xlink:href="#DejaVuSans-114"/>
     <use x="101.369141" xlink:href="#DejaVuSans-101"/>
     <use x="162.892578" xlink:href="#DejaVuSans-45"/>
     <use x="198.976562" xlink:href="#DejaVuSans-112"/>
     <use x="262.453125" xlink:href="#DejaVuSans-114"/>
     <use x="303.535156" xlink:href="#DejaVuSans-111"/>
     <use x="364.716797" xlink:href="#DejaVuSans-99"/>
     <use x="419.697266" xlink:href="#DejaVuSans-101"/>
     <use x="481.220703" xlink:href="#DejaVuSans-115"/>
     <use x="533.320312" xlink:href="#DejaVuSans-115"/>
     <use x="585.419922" xlink:href="#DejaVuSans-101"/>
     <use x="646.943359" xlink:href="#DejaVuSans-100"/>
     <use x="710.419922" xlink:href="#DejaVuSans-32"/>
     <use x="742.207031" xlink:href="#DejaVuSans-83"/>
     <use x="805.683594" xlink:href="#DejaVuSans-105"/>
     <use x="833.466797" xlink:href="#DejaVuSans-103"/>
     <use x="896.943359" xlink:href="#DejaVuSans-110"/>
     <use x="960.322266" xlink:href="#DejaVuSans-97"/>
     <use x="1021.601562" xlink:href="#DejaVuSans-108"/>
    </g>
   </g>
  </g>
  <g id="axes_3">
   <g id="patch_12">
    <path d="M 40.603125 282.368125 
L 700.234076 282.368125 
L 700.234076 233.418125 
L 40.603125 233.418125 
z
" style="fill:#ffffff;"/>
   </g>
   <g id="matplotlib.axis_5">
    <g id="xtick_15">
     <g id="line2d_21">
      <g>
       <use style="stroke:#000000;stroke-width:0.8;" x="72.647053" xlink:href="#m0acddb1c65" y="282.368125"/>
      </g>
     </g>
     <g id="text_27">
      <!-- 3.575 -->
      <g transform="translate(58.33299 296.966563)scale(0.1 -0.1)">
       <use xlink:href="#DejaVuSans-51"/>
       <use x="63.623047" xlink:href="#DejaVuSans-46"/>
       <use x="95.410156" xlink:href="#DejaVuSans-53"/>
       <use x="159.033203" xlink:href="#DejaVuSans-55"/>
       <use x="222.65625" xlink:href="#DejaVuSans-53"/>
      </g>
     </g>
    </g>
    <g id="xtick_16">
     <g id="line2d_22">
      <g>
       <use style="stroke:#000000;stroke-width:0.8;" x="175.68219" xlink:href="#m0acddb1c65" y="282.368125"/>
      </g>
     </g>
     <g id="text_28">
      <!-- 3.580 -->
      <g transform="translate(161.368128 296.966563)scale(0.1 -0.1)">
       <use xlink:href="#DejaVuSans-51"/>
       <use x="63.623047" xlink:href="#DejaVuSans-46"/>
       <use x="95.410156" xlink:href="#DejaVuSans-53"/>
       <use x="159.033203" xlink:href="#DejaVuSans-56"/>
       <use x="222.65625" xlink:href="#DejaVuSans-48"/>
      </g>
     </g>
    </g>
    <g id="xtick_17">
     <g id="line2d_23">
      <g>
       <use style="stroke:#000000;stroke-width:0.8;" x="278.717328" xlink:href="#m0acddb1c65" y="282.368125"/>
      </g>
     </g>
     <g id="text_29">
      <!-- 3.585 -->
      <g transform="translate(264.403266 296.966563)scale(0.1 -0.1)">
       <use xlink:href="#DejaVuSans-51"/>
       <use x="63.623047" xlink:href="#DejaVuSans-46"/>
       <use x="95.410156" xlink:href="#DejaVuSans-53"/>
       <use x="159.033203" xlink:href="#DejaVuSans-56"/>
       <use x="222.65625" xlink:href="#DejaVuSans-53"/>
      </g>
     </g>
    </g>
    <g id="xtick_18">
     <g id="line2d_24">
      <g>
       <use style="stroke:#000000;stroke-width:0.8;" x="381.752466" xlink:href="#m0acddb1c65" y="282.368125"/>
      </g>
     </g>
     <g id="text_30">
      <!-- 3.590 -->
      <g transform="translate(367.438403 296.966563)scale(0.1 -0.1)">
       <use xlink:href="#DejaVuSans-51"/>
       <use x="63.623047" xlink:href="#DejaVuSans-46"/>
       <use x="95.410156" xlink:href="#DejaVuSans-53"/>
       <use x="159.033203" xlink:href="#DejaVuSans-57"/>
       <use x="222.65625" xlink:href="#DejaVuSans-48"/>
      </g>
     </g>
    </g>
    <g id="xtick_19">
     <g id="line2d_25">
      <g>
       <use style="stroke:#000000;stroke-width:0.8;" x="484.787603" xlink:href="#m0acddb1c65" y="282.368125"/>
      </g>
     </g>
     <g id="text_31">
      <!-- 3.595 -->
      <g transform="translate(470.473541 296.966563)scale(0.1 -0.1)">
       <use xlink:href="#DejaVuSans-51"/>
       <use x="63.623047" xlink:href="#DejaVuSans-46"/>
       <use x="95.410156" xlink:href="#DejaVuSans-53"/>
       <use x="159.033203" xlink:href="#DejaVuSans-57"/>
       <use x="222.65625" xlink:href="#DejaVuSans-53"/>
      </g>
     </g>
    </g>
    <g id="xtick_20">
     <g id="line2d_26">
      <g>
       <use style="stroke:#000000;stroke-width:0.8;" x="587.822741" xlink:href="#m0acddb1c65" y="282.368125"/>
      </g>
     </g>
     <g id="text_32">
      <!-- 3.600 -->
      <g transform="translate(573.508678 296.966563)scale(0.1 -0.1)">
       <use xlink:href="#DejaVuSans-51"/>
       <use x="63.623047" xlink:href="#DejaVuSans-46"/>
       <use x="95.410156" xlink:href="#DejaVuSans-54"/>
       <use x="159.033203" xlink:href="#DejaVuSans-48"/>
       <use x="222.65625" xlink:href="#DejaVuSans-48"/>
      </g>
     </g>
    </g>
    <g id="xtick_21">
     <g id="line2d_27">
      <g>
       <use style="stroke:#000000;stroke-width:0.8;" x="690.857879" xlink:href="#m0acddb1c65" y="282.368125"/>
      </g>
     </g>
     <g id="text_33">
      <!-- 3.605 -->
      <g transform="translate(676.543816 296.966563)scale(0.1 -0.1)">
       <use xlink:href="#DejaVuSans-51"/>
       <use x="63.623047" xlink:href="#DejaVuSans-46"/>
       <use x="95.410156" xlink:href="#DejaVuSans-54"/>
       <use x="159.033203" xlink:href="#DejaVuSans-48"/>
       <use x="222.65625" xlink:href="#DejaVuSans-53"/>
      </g>
     </g>
    </g>
    <g id="text_34">
     <!-- 1e5 -->
     <g transform="translate(681.355951 309.644687)scale(0.1 -0.1)">
      <use xlink:href="#DejaVuSans-49"/>
      <use x="63.623047" xlink:href="#DejaVuSans-101"/>
      <use x="125.146484" xlink:href="#DejaVuSans-53"/>
     </g>
    </g>
   </g>
   <g id="matplotlib.axis_6">
    <g id="ytick_5">
     <g id="line2d_28">
      <g>
       <use style="stroke:#000000;stroke-width:0.8;" x="40.603125" xlink:href="#mf830110dd8" y="265.680282"/>
      </g>
     </g>
     <g id="text_35">
      <!-- 10 -->
      <g transform="translate(20.878125 269.479501)scale(0.1 -0.1)">
       <use xlink:href="#DejaVuSans-49"/>
       <use x="63.623047" xlink:href="#DejaVuSans-48"/>
      </g>
     </g>
    </g>
    <g id="ytick_6">
     <g id="line2d_29">
      <g>
       <use style="stroke:#000000;stroke-width:0.8;" x="40.603125" xlink:href="#mf830110dd8" y="247.642764"/>
      </g>
     </g>
     <g id="text_36">
      <!-- 15 -->
      <g transform="translate(20.878125 251.441983)scale(0.1 -0.1)">
       <use xlink:href="#DejaVuSans-49"/>
       <use x="63.623047" xlink:href="#DejaVuSans-53"/>
      </g>
     </g>
    </g>
   </g>
   <g id="LineCollection_1">
    <path clip-path="url(#pbd8a2a7db8)" d="M 210.095926 275.091898 
L 210.095926 242.114626 
" style="fill:none;stroke:#000000;stroke-width:1.5;"/>
    <path clip-path="url(#pbd8a2a7db8)" d="M 289.845123 274.441466 
L 289.845123 242.889517 
" style="fill:none;stroke:#000000;stroke-width:1.5;"/>
    <path clip-path="url(#pbd8a2a7db8)" d="M 371.861092 277.363543 
L 371.861092 240.717079 
" style="fill:none;stroke:#000000;stroke-width:1.5;"/>
    <path clip-path="url(#pbd8a2a7db8)" d="M 459.64703 275.875087 
L 459.64703 235.643125 
" style="fill:none;stroke:#000000;stroke-width:1.5;"/>
    <path clip-path="url(#pbd8a2a7db8)" d="M 545.166194 269.6121 
L 545.166194 248.206617 
" style="fill:none;stroke:#000000;stroke-width:1.5;"/>
    <path clip-path="url(#pbd8a2a7db8)" d="M 628.212515 269.346227 
L 628.212515 243.800412 
" style="fill:none;stroke:#000000;stroke-width:1.5;"/>
   </g>
   <g id="line2d_30">
    <path clip-path="url(#pbd8a2a7db8)" d="M 70.58635 280.143125 
L 72.440983 278.17451 
L 76.768458 274.399619 
L 80.477723 270.907555 
L 84.599129 267.431004 
L 88.308394 263.767945 
L 90.575167 261.968883 
L 93.25408 260.335044 
L 95.726924 258.99666 
L 97.993697 258.063038 
L 100.67261 257.586487 
L 102.939383 257.538507 
L 104.794016 257.801855 
L 106.648648 258.187497 
L 108.709351 258.469243 
L 110.770054 258.433529 
L 112.624686 257.928479 
L 115.3036 256.907194 
L 117.570373 255.449041 
L 121.279638 252.111379 
L 123.13427 250.855246 
L 125.194973 250.297165 
L 127.461746 250.670181 
L 129.316379 252.085405 
L 131.583152 254.507122 
L 133.437784 257.756761 
L 135.910627 261.53959 
L 137.76526 265.489085 
L 141.886665 272.388074 
L 144.153438 274.714554 
L 146.008071 276.035261 
L 148.068774 276.298969 
L 150.335547 275.565564 
L 152.190179 273.987642 
L 154.456952 271.783818 
L 160.02085 263.948681 
L 164.142255 259.844063 
L 166.821169 258.477901 
L 169.087942 257.559792 
L 171.148644 257.004597 
L 173.003277 256.685694 
L 177.536823 256.204813 
L 179.597526 255.821696 
L 183.512861 254.563038 
L 189.282829 252.085766 
L 197.73171 249.023717 
L 199.998483 248.003154 
L 201.853115 246.77516 
L 203.707748 245.389157 
L 207.829153 242.801855 
L 210.095926 242.114626 
L 211.950559 242.212028 
L 213.805191 243.319171 
L 216.278035 245.545362 
L 218.132667 248.845506 
L 219.9873 253.012173 
L 221.841932 257.699763 
L 224.314775 262.476819 
L 226.169408 266.896011 
L 228.230111 270.567007 
L 230.084743 273.214554 
L 232.145446 274.713111 
L 234.000078 275.091898 
L 236.266851 274.507844 
L 240.594327 271.436415 
L 244.303592 267.446516 
L 248.424998 263.683529 
L 250.691771 261.956978 
L 255.637457 258.687858 
L 257.69816 257.125809 
L 259.964933 255.644207 
L 264.704549 253.122923 
L 268.825955 251.381581 
L 272.74129 250.113543 
L 274.595923 249.410441 
L 277.274836 248.530571 
L 279.541609 247.434251 
L 283.250874 244.836848 
L 285.517647 243.675232 
L 287.57835 242.936776 
L 289.845123 242.889517 
L 291.699755 243.754236 
L 293.966528 245.654669 
L 296.027231 248.582519 
L 298.087934 252.383024 
L 299.942566 256.768305 
L 306.124675 269.462028 
L 307.979307 272.265419 
L 309.83394 273.939301 
L 312.306783 274.441466 
L 314.161415 273.871841 
L 316.222118 272.443991 
L 320.755664 268.160441 
L 322.610297 265.868955 
L 324.464929 263.762533 
L 326.731702 261.949763 
L 328.792405 260.452288 
L 332.70774 258.170903 
L 334.974513 257.200845 
L 340.744481 254.18894 
L 343.011254 253.152144 
L 344.865886 252.17451 
L 346.926589 251.307266 
L 348.987292 250.577108 
L 353.108697 249.436054 
L 355.1694 248.883024 
L 359.290806 247.343341 
L 361.145438 246.234756 
L 363.000071 244.916574 
L 367.327546 242.161523 
L 369.388249 241.148176 
L 371.861092 240.717079 
L 373.921795 241.105246 
L 375.776428 242.48223 
L 377.63106 244.916935 
L 379.691763 248.352721 
L 381.752466 252.60705 
L 385.461731 262.331797 
L 389.377066 271.15503 
L 391.437769 274.359575 
L 393.292401 276.455896 
L 395.559174 277.363543 
L 397.825947 277.124366 
L 399.88665 275.889878 
L 401.741282 273.892764 
L 405.656618 268.734756 
L 409.571953 263.759287 
L 411.426585 261.779128 
L 413.487288 260.214554 
L 415.547991 259.023717 
L 423.378661 255.755318 
L 428.118278 253.660441 
L 429.97291 252.446516 
L 438.009651 248.052216 
L 442.749267 246.3621 
L 446.870673 244.218522 
L 453.052781 239.249186 
L 455.113484 237.53959 
L 457.174186 236.231509 
L 459.64703 235.643125 
L 461.707733 236.055823 
L 463.562365 237.653226 
L 465.623068 240.473572 
L 469.744473 249.08793 
L 472.423387 254.157555 
L 474.278019 259.100917 
L 476.132652 263.436415 
L 478.193355 266.768305 
L 480.254057 268.848392 
L 482.10869 269.6121 
L 483.963322 269.179922 
L 485.817955 267.828551 
L 488.084728 265.934972 
L 489.93936 263.907555 
L 491.793993 262.115708 
L 493.648625 260.830715 
L 495.915398 260.190023 
L 497.976101 260.18894 
L 500.448944 260.695795 
L 502.509647 261.489806 
L 507.043193 262.922707 
L 509.516036 263.132302 
L 511.370669 262.844784 
L 513.637442 262.060513 
L 515.698145 260.867512 
L 521.468112 256.437497 
L 523.528815 255.193269 
L 527.650221 253.451206 
L 529.504853 252.851278 
L 531.771626 252.292115 
L 535.068751 251.665492 
L 537.129453 250.908998 
L 538.984086 250.037425 
L 543.311562 248.464914 
L 545.166194 248.206617 
L 547.432967 248.639157 
L 549.49367 249.964193 
L 551.760443 252.274438 
L 553.821146 255.513616 
L 558.560762 263.76578 
L 560.621465 267.971769 
L 562.682167 271.616429 
L 564.74287 274.298608 
L 567.215713 275.748464 
L 569.276416 275.875087 
L 571.337119 274.774077 
L 573.397822 272.70337 
L 575.870665 270.023717 
L 577.725297 267.127252 
L 581.846703 261.966718 
L 586.174179 258.59262 
L 588.028811 257.459142 
L 592.356287 255.474294 
L 594.41699 254.34731 
L 599.980887 250.396733 
L 604.308363 248.436415 
L 606.369066 247.94832 
L 608.429768 247.757844 
L 612.757244 247.721769 
L 614.611877 247.534539 
L 617.08472 247.066285 
L 619.557563 246.30402 
L 621.412196 245.353082 
L 623.678969 244.427757 
L 625.945742 243.812317 
L 628.212515 243.800412 
L 630.479288 244.628695 
L 632.33392 246.420181 
L 634.600693 249.14529 
L 636.661396 252.617512 
L 642.637434 263.998103 
L 645.110277 266.806545 
L 646.96491 268.625087 
L 649.231683 269.346227 
L 651.086315 269.007483 
L 653.147018 267.77047 
L 655.413791 265.88122 
L 659.947337 261.237642 
L 661.80197 258.939301 
L 663.862673 256.835766 
L 666.129446 254.947238 
L 667.984078 253.215636 
L 670.250851 251.529849 
L 670.250851 251.529849 
" style="fill:none;stroke:#1f77b4;stroke-linecap:square;stroke-width:1.5;"/>
   </g>
   <g id="line2d_31">
    <defs>
     <path d="M -3 3 
L 3 -3 
M -3 -3 
L 3 3 
" id="mf93da08588" style="stroke:#008000;"/>
    </defs>
    <g clip-path="url(#pbd8a2a7db8)">
     <use style="fill:#008000;stroke:#008000;" x="210.095926" xlink:href="#mf93da08588" y="242.114626"/>
     <use style="fill:#008000;stroke:#008000;" x="289.845123" xlink:href="#mf93da08588" y="242.889517"/>
     <use style="fill:#008000;stroke:#008000;" x="371.861092" xlink:href="#mf93da08588" y="240.717079"/>
     <use style="fill:#008000;stroke:#008000;" x="459.64703" xlink:href="#mf93da08588" y="235.643125"/>
     <use style="fill:#008000;stroke:#008000;" x="545.166194" xlink:href="#mf93da08588" y="248.206617"/>
     <use style="fill:#008000;stroke:#008000;" x="628.212515" xlink:href="#mf93da08588" y="243.800412"/>
    </g>
   </g>
   <g id="line2d_32">
    <defs>
     <path d="M -3 3 
L 3 -3 
M -3 -3 
L 3 3 
" id="m111cf5199f" style="stroke:#ff0000;"/>
    </defs>
    <g clip-path="url(#pbd8a2a7db8)">
     <use style="fill:#ff0000;stroke:#ff0000;" x="210.095926" xlink:href="#m111cf5199f" y="275.091898"/>
     <use style="fill:#ff0000;stroke:#ff0000;" x="289.845123" xlink:href="#m111cf5199f" y="274.441466"/>
     <use style="fill:#ff0000;stroke:#ff0000;" x="371.861092" xlink:href="#m111cf5199f" y="277.363543"/>
     <use style="fill:#ff0000;stroke:#ff0000;" x="459.64703" xlink:href="#m111cf5199f" y="275.875087"/>
     <use style="fill:#ff0000;stroke:#ff0000;" x="545.166194" xlink:href="#m111cf5199f" y="269.6121"/>
     <use style="fill:#ff0000;stroke:#ff0000;" x="628.212515" xlink:href="#m111cf5199f" y="269.346227"/>
    </g>
   </g>
   <g id="patch_13">
    <path d="M 40.603125 282.368125 
L 40.603125 233.418125 
" style="fill:none;stroke:#000000;stroke-linecap:square;stroke-linejoin:miter;stroke-width:0.8;"/>
   </g>
   <g id="patch_14">
    <path d="M 700.234076 282.368125 
L 700.234076 233.418125 
" style="fill:none;stroke:#000000;stroke-linecap:square;stroke-linejoin:miter;stroke-width:0.8;"/>
   </g>
   <g id="patch_15">
    <path d="M 40.603125 282.368125 
L 700.234076 282.368125 
" style="fill:none;stroke:#000000;stroke-linecap:square;stroke-linejoin:miter;stroke-width:0.8;"/>
   </g>
   <g id="patch_16">
    <path d="M 40.603125 233.418125 
L 700.234076 233.418125 
" style="fill:none;stroke:#000000;stroke-linecap:square;stroke-linejoin:miter;stroke-width:0.8;"/>
   </g>
   <g id="text_37">
    <!-- AC Components -->
    <g transform="translate(322.258288 227.418125)scale(0.12 -0.12)">
     <use xlink:href="#DejaVuSans-65"/>
     <use x="68.392578" xlink:href="#DejaVuSans-67"/>
     <use x="138.216797" xlink:href="#DejaVuSans-32"/>
     <use x="170.003906" xlink:href="#DejaVuSans-67"/>
     <use x="239.828125" xlink:href="#DejaVuSans-111"/>
     <use x="301.009766" xlink:href="#DejaVuSans-109"/>
     <use x="398.421875" xlink:href="#DejaVuSans-112"/>
     <use x="461.898438" xlink:href="#DejaVuSans-111"/>
     <use x="523.080078" xlink:href="#DejaVuSans-110"/>
     <use x="586.458984" xlink:href="#DejaVuSans-101"/>
     <use x="647.982422" xlink:href="#DejaVuSans-110"/>
     <use x="711.361328" xlink:href="#DejaVuSans-116"/>
     <use x="750.570312" xlink:href="#DejaVuSans-115"/>
    </g>
   </g>
  </g>
  <g id="axes_4">
   <g id="patch_17">
    <path d="M 40.603125 387.918125 
L 700.234076 387.918125 
L 700.234076 338.968125 
L 40.603125 338.968125 
z
" style="fill:#ffffff;"/>
   </g>
   <g id="matplotlib.axis_7">
    <g id="xtick_22">
     <g id="line2d_33">
      <g>
       <use style="stroke:#000000;stroke-width:0.8;" x="72.647053" xlink:href="#m0acddb1c65" y="387.918125"/>
      </g>
     </g>
     <g id="text_38">
      <!-- 3.575 -->
      <g transform="translate(58.33299 402.516563)scale(0.1 -0.1)">
       <use xlink:href="#DejaVuSans-51"/>
       <use x="63.623047" xlink:href="#DejaVuSans-46"/>
       <use x="95.410156" xlink:href="#DejaVuSans-53"/>
       <use x="159.033203" xlink:href="#DejaVuSans-55"/>
       <use x="222.65625" xlink:href="#DejaVuSans-53"/>
      </g>
     </g>
    </g>
    <g id="xtick_23">
     <g id="line2d_34">
      <g>
       <use style="stroke:#000000;stroke-width:0.8;" x="175.68219" xlink:href="#m0acddb1c65" y="387.918125"/>
      </g>
     </g>
     <g id="text_39">
      <!-- 3.580 -->
      <g transform="translate(161.368128 402.516563)scale(0.1 -0.1)">
       <use xlink:href="#DejaVuSans-51"/>
       <use x="63.623047" xlink:href="#DejaVuSans-46"/>
       <use x="95.410156" xlink:href="#DejaVuSans-53"/>
       <use x="159.033203" xlink:href="#DejaVuSans-56"/>
       <use x="222.65625" xlink:href="#DejaVuSans-48"/>
      </g>
     </g>
    </g>
    <g id="xtick_24">
     <g id="line2d_35">
      <g>
       <use style="stroke:#000000;stroke-width:0.8;" x="278.717328" xlink:href="#m0acddb1c65" y="387.918125"/>
      </g>
     </g>
     <g id="text_40">
      <!-- 3.585 -->
      <g transform="translate(264.403266 402.516563)scale(0.1 -0.1)">
       <use xlink:href="#DejaVuSans-51"/>
       <use x="63.623047" xlink:href="#DejaVuSans-46"/>
       <use x="95.410156" xlink:href="#DejaVuSans-53"/>
       <use x="159.033203" xlink:href="#DejaVuSans-56"/>
       <use x="222.65625" xlink:href="#DejaVuSans-53"/>
      </g>
     </g>
    </g>
    <g id="xtick_25">
     <g id="line2d_36">
      <g>
       <use style="stroke:#000000;stroke-width:0.8;" x="381.752466" xlink:href="#m0acddb1c65" y="387.918125"/>
      </g>
     </g>
     <g id="text_41">
      <!-- 3.590 -->
      <g transform="translate(367.438403 402.516563)scale(0.1 -0.1)">
       <use xlink:href="#DejaVuSans-51"/>
       <use x="63.623047" xlink:href="#DejaVuSans-46"/>
       <use x="95.410156" xlink:href="#DejaVuSans-53"/>
       <use x="159.033203" xlink:href="#DejaVuSans-57"/>
       <use x="222.65625" xlink:href="#DejaVuSans-48"/>
      </g>
     </g>
    </g>
    <g id="xtick_26">
     <g id="line2d_37">
      <g>
       <use style="stroke:#000000;stroke-width:0.8;" x="484.787603" xlink:href="#m0acddb1c65" y="387.918125"/>
      </g>
     </g>
     <g id="text_42">
      <!-- 3.595 -->
      <g transform="translate(470.473541 402.516563)scale(0.1 -0.1)">
       <use xlink:href="#DejaVuSans-51"/>
       <use x="63.623047" xlink:href="#DejaVuSans-46"/>
       <use x="95.410156" xlink:href="#DejaVuSans-53"/>
       <use x="159.033203" xlink:href="#DejaVuSans-57"/>
       <use x="222.65625" xlink:href="#DejaVuSans-53"/>
      </g>
     </g>
    </g>
    <g id="xtick_27">
     <g id="line2d_38">
      <g>
       <use style="stroke:#000000;stroke-width:0.8;" x="587.822741" xlink:href="#m0acddb1c65" y="387.918125"/>
      </g>
     </g>
     <g id="text_43">
      <!-- 3.600 -->
      <g transform="translate(573.508678 402.516563)scale(0.1 -0.1)">
       <use xlink:href="#DejaVuSans-51"/>
       <use x="63.623047" xlink:href="#DejaVuSans-46"/>
       <use x="95.410156" xlink:href="#DejaVuSans-54"/>
       <use x="159.033203" xlink:href="#DejaVuSans-48"/>
       <use x="222.65625" xlink:href="#DejaVuSans-48"/>
      </g>
     </g>
    </g>
    <g id="xtick_28">
     <g id="line2d_39">
      <g>
       <use style="stroke:#000000;stroke-width:0.8;" x="690.857879" xlink:href="#m0acddb1c65" y="387.918125"/>
      </g>
     </g>
     <g id="text_44">
      <!-- 3.605 -->
      <g transform="translate(676.543816 402.516563)scale(0.1 -0.1)">
       <use xlink:href="#DejaVuSans-51"/>
       <use x="63.623047" xlink:href="#DejaVuSans-46"/>
       <use x="95.410156" xlink:href="#DejaVuSans-54"/>
       <use x="159.033203" xlink:href="#DejaVuSans-48"/>
       <use x="222.65625" xlink:href="#DejaVuSans-53"/>
      </g>
     </g>
    </g>
    <g id="text_45">
     <!-- 1e5 -->
     <g transform="translate(681.355951 415.194687)scale(0.1 -0.1)">
      <use xlink:href="#DejaVuSans-49"/>
      <use x="63.623047" xlink:href="#DejaVuSans-101"/>
      <use x="125.146484" xlink:href="#DejaVuSans-53"/>
     </g>
    </g>
   </g>
   <g id="matplotlib.axis_8">
    <g id="ytick_7">
     <g id="line2d_40">
      <g>
       <use style="stroke:#000000;stroke-width:0.8;" x="40.603125" xlink:href="#mf830110dd8" y="371.230282"/>
      </g>
     </g>
     <g id="text_46">
      <!-- 10 -->
      <g transform="translate(20.878125 375.029501)scale(0.1 -0.1)">
       <use xlink:href="#DejaVuSans-49"/>
       <use x="63.623047" xlink:href="#DejaVuSans-48"/>
      </g>
     </g>
    </g>
    <g id="ytick_8">
     <g id="line2d_41">
      <g>
       <use style="stroke:#000000;stroke-width:0.8;" x="40.603125" xlink:href="#mf830110dd8" y="353.192764"/>
      </g>
     </g>
     <g id="text_47">
      <!-- 15 -->
      <g transform="translate(20.878125 356.991983)scale(0.1 -0.1)">
       <use xlink:href="#DejaVuSans-49"/>
       <use x="63.623047" xlink:href="#DejaVuSans-53"/>
      </g>
     </g>
    </g>
   </g>
   <g id="line2d_42">
    <path clip-path="url(#pa9c9d76f2a)" d="M 70.58635 385.693125 
L 72.440983 383.72451 
L 76.768458 379.949619 
L 80.477723 376.457555 
L 84.599129 372.981004 
L 88.308394 369.317945 
L 90.575167 367.518883 
L 93.25408 365.885044 
L 95.726924 364.54666 
L 97.993697 363.613038 
L 100.67261 363.136487 
L 102.939383 363.088507 
L 104.794016 363.351855 
L 106.648648 363.737497 
L 108.709351 364.019243 
L 110.770054 363.983529 
L 112.624686 363.478479 
L 115.3036 362.457194 
L 117.570373 360.999041 
L 121.279638 357.661379 
L 123.13427 356.405246 
L 125.194973 355.847165 
L 127.461746 356.220181 
L 129.316379 357.635405 
L 131.583152 360.057122 
L 133.437784 363.306761 
L 135.910627 367.08959 
L 137.76526 371.039085 
L 141.886665 377.938074 
L 144.153438 380.264554 
L 146.008071 381.585261 
L 148.068774 381.848969 
L 150.335547 381.115564 
L 152.190179 379.537642 
L 154.456952 377.333818 
L 160.02085 369.498681 
L 164.142255 365.394063 
L 166.821169 364.027901 
L 169.087942 363.109792 
L 171.148644 362.554597 
L 173.003277 362.235694 
L 177.536823 361.754813 
L 179.597526 361.371696 
L 183.512861 360.113038 
L 189.282829 357.635766 
L 197.73171 354.573717 
L 199.998483 353.553154 
L 201.853115 352.32516 
L 203.707748 350.939157 
L 207.829153 348.351855 
L 210.095926 347.664626 
L 211.950559 347.762028 
L 213.805191 348.869171 
L 216.278035 351.095362 
L 218.132667 354.395506 
L 219.9873 358.562173 
L 221.841932 363.249763 
L 224.314775 368.026819 
L 226.169408 372.446011 
L 228.230111 376.117007 
L 230.084743 378.764554 
L 232.145446 380.263111 
L 234.000078 380.641898 
L 236.266851 380.057844 
L 240.594327 376.986415 
L 244.303592 372.996516 
L 248.424998 369.233529 
L 250.691771 367.506978 
L 255.637457 364.237858 
L 257.69816 362.675809 
L 259.964933 361.194207 
L 264.704549 358.672923 
L 268.825955 356.931581 
L 272.74129 355.663543 
L 274.595923 354.960441 
L 277.274836 354.080571 
L 279.541609 352.984251 
L 283.250874 350.386848 
L 285.517647 349.225232 
L 287.57835 348.486776 
L 289.845123 348.439517 
L 291.699755 349.304236 
L 293.966528 351.204669 
L 296.027231 354.132519 
L 298.087934 357.933024 
L 299.942566 362.318305 
L 306.124675 375.012028 
L 307.979307 377.815419 
L 309.83394 379.489301 
L 312.306783 379.991466 
L 314.161415 379.421841 
L 316.222118 377.993991 
L 320.755664 373.710441 
L 322.610297 371.418955 
L 324.464929 369.312533 
L 326.731702 367.499763 
L 328.792405 366.002288 
L 332.70774 363.720903 
L 334.974513 362.750845 
L 340.744481 359.73894 
L 343.011254 358.702144 
L 344.865886 357.72451 
L 346.926589 356.857266 
L 348.987292 356.127108 
L 353.108697 354.986054 
L 355.1694 354.433024 
L 359.290806 352.893341 
L 361.145438 351.784756 
L 363.000071 350.466574 
L 367.327546 347.711523 
L 369.388249 346.698176 
L 371.861092 346.267079 
L 373.921795 346.655246 
L 375.776428 348.03223 
L 377.63106 350.466935 
L 379.691763 353.902721 
L 381.752466 358.15705 
L 385.461731 367.881797 
L 389.377066 376.70503 
L 391.437769 379.909575 
L 393.292401 382.005896 
L 395.559174 382.913543 
L 397.825947 382.674366 
L 399.88665 381.439878 
L 401.741282 379.442764 
L 405.656618 374.284756 
L 409.571953 369.309287 
L 411.426585 367.329128 
L 413.487288 365.764554 
L 415.547991 364.573717 
L 423.378661 361.305318 
L 428.118278 359.210441 
L 429.97291 357.996516 
L 438.009651 353.602216 
L 442.749267 351.9121 
L 446.870673 349.768522 
L 453.052781 344.799186 
L 455.113484 343.08959 
L 457.174186 341.781509 
L 459.64703 341.193125 
L 461.707733 341.605823 
L 463.562365 343.203226 
L 465.623068 346.023572 
L 469.744473 354.63793 
L 472.423387 359.707555 
L 474.278019 364.650917 
L 476.132652 368.986415 
L 478.193355 372.318305 
L 480.254057 374.398392 
L 482.10869 375.1621 
L 483.963322 374.729922 
L 485.817955 373.378551 
L 488.084728 371.484972 
L 489.93936 369.457555 
L 491.793993 367.665708 
L 493.648625 366.380715 
L 495.915398 365.740023 
L 497.976101 365.73894 
L 500.448944 366.245795 
L 502.509647 367.039806 
L 507.043193 368.472707 
L 509.516036 368.682302 
L 511.370669 368.394784 
L 513.637442 367.610513 
L 515.698145 366.417512 
L 521.468112 361.987497 
L 523.528815 360.743269 
L 527.650221 359.001206 
L 529.504853 358.401278 
L 531.771626 357.842115 
L 535.068751 357.215492 
L 537.129453 356.458998 
L 538.984086 355.587425 
L 543.311562 354.014914 
L 545.166194 353.756617 
L 547.432967 354.189157 
L 549.49367 355.514193 
L 551.760443 357.824438 
L 553.821146 361.063616 
L 558.560762 369.31578 
L 560.621465 373.521769 
L 562.682167 377.166429 
L 564.74287 379.848608 
L 567.215713 381.298464 
L 569.276416 381.425087 
L 571.337119 380.324077 
L 573.397822 378.25337 
L 575.870665 375.573717 
L 577.725297 372.677252 
L 581.846703 367.516718 
L 586.174179 364.14262 
L 588.028811 363.009142 
L 592.356287 361.024294 
L 594.41699 359.89731 
L 599.980887 355.946733 
L 604.308363 353.986415 
L 606.369066 353.49832 
L 608.429768 353.307844 
L 612.757244 353.271769 
L 614.611877 353.084539 
L 617.08472 352.616285 
L 619.557563 351.85402 
L 621.412196 350.903082 
L 623.678969 349.977757 
L 625.945742 349.362317 
L 628.212515 349.350412 
L 630.479288 350.178695 
L 632.33392 351.970181 
L 634.600693 354.69529 
L 636.661396 358.167512 
L 642.637434 369.548103 
L 645.110277 372.356545 
L 646.96491 374.175087 
L 649.231683 374.896227 
L 651.086315 374.557483 
L 653.147018 373.32047 
L 655.413791 371.43122 
L 659.947337 366.787642 
L 661.80197 364.489301 
L 663.862673 362.385766 
L 666.129446 360.497238 
L 667.984078 358.765636 
L 670.250851 357.079849 
L 670.250851 357.079849 
" style="fill:none;stroke:#1f77b4;stroke-linecap:square;stroke-width:1.5;"/>
   </g>
   <g id="line2d_43">
    <g clip-path="url(#pa9c9d76f2a)">
     <use style="fill:#ff0000;stroke:#ff0000;" x="148.068774" xlink:href="#m111cf5199f" y="381.848969"/>
     <use style="fill:#ff0000;stroke:#ff0000;" x="234.000078" xlink:href="#m111cf5199f" y="380.641898"/>
     <use style="fill:#ff0000;stroke:#ff0000;" x="312.306783" xlink:href="#m111cf5199f" y="379.991466"/>
     <use style="fill:#ff0000;stroke:#ff0000;" x="395.559174" xlink:href="#m111cf5199f" y="382.913543"/>
     <use style="fill:#ff0000;stroke:#ff0000;" x="482.10869" xlink:href="#m111cf5199f" y="375.1621"/>
     <use style="fill:#ff0000;stroke:#ff0000;" x="569.276416" xlink:href="#m111cf5199f" y="381.425087"/>
    </g>
   </g>
   <g id="patch_18">
    <path d="M 40.603125 387.918125 
L 40.603125 338.968125 
" style="fill:none;stroke:#000000;stroke-linecap:square;stroke-linejoin:miter;stroke-width:0.8;"/>
   </g>
   <g id="patch_19">
    <path d="M 700.234076 387.918125 
L 700.234076 338.968125 
" style="fill:none;stroke:#000000;stroke-linecap:square;stroke-linejoin:miter;stroke-width:0.8;"/>
   </g>
   <g id="patch_20">
    <path d="M 40.603125 387.918125 
L 700.234076 387.918125 
" style="fill:none;stroke:#000000;stroke-linecap:square;stroke-linejoin:miter;stroke-width:0.8;"/>
   </g>
   <g id="patch_21">
    <path d="M 40.603125 338.968125 
L 700.234076 338.968125 
" style="fill:none;stroke:#000000;stroke-linecap:square;stroke-linejoin:miter;stroke-width:0.8;"/>
   </g>
   <g id="text_48">
    <!-- DC Components -->
    <g transform="translate(321.741726 332.968125)scale(0.12 -0.12)">
     <use xlink:href="#DejaVuSans-68"/>
     <use x="77.001953" xlink:href="#DejaVuSans-67"/>
     <use x="146.826172" xlink:href="#DejaVuSans-32"/>
     <use x="178.613281" xlink:href="#DejaVuSans-67"/>
     <use x="248.4375" xlink:href="#DejaVuSans-111"/>
     <use x="309.619141" xlink:href="#DejaVuSans-109"/>
     <use x="407.03125" xlink:href="#DejaVuSans-112"/>
     <use x="470.507812" xlink:href="#DejaVuSans-111"/>
     <use x="531.689453" xlink:href="#DejaVuSans-110"/>
     <use x="595.068359" xlink:href="#DejaVuSans-101"/>
     <use x="656.591797" xlink:href="#DejaVuSans-110"/>
     <use x="719.970703" xlink:href="#DejaVuSans-116"/>
     <use x="759.179688" xlink:href="#DejaVuSans-115"/>
    </g>
   </g>
  </g>
 </g>
 <defs>
  <clipPath id="p44e11918d7">
   <rect height="48.95" width="659.630951" x="40.603125" y="22.318125"/>
  </clipPath>
  <clipPath id="pb5dae3caa2">
   <rect height="48.95" width="659.630951" x="40.603125" y="127.868125"/>
  </clipPath>
  <clipPath id="pbd8a2a7db8">
   <rect height="48.95" width="659.630951" x="40.603125" y="233.418125"/>
  </clipPath>
  <clipPath id="pa9c9d76f2a">
   <rect height="48.95" width="659.630951" x="40.603125" y="338.968125"/>
  </clipPath>
 </defs>
</svg>
