<?xml version="1.0" encoding="utf-8" standalone="no"?>
<!DOCTYPE svg PUBLIC "-//W3C//DTD SVG 1.1//EN"
  "http://www.w3.org/Graphics/SVG/1.1/DTD/svg11.dtd">
<!-- Created with matplotlib (https://matplotlib.org/) -->
<svg height="424.474375pt" version="1.1" viewBox="0 0 712.433125 424.474375" width="712.433125pt" xmlns="http://www.w3.org/2000/svg" xmlns:xlink="http://www.w3.org/1999/xlink">
 <defs>
  <style type="text/css">
*{stroke-linecap:butt;stroke-linejoin:round;}
  </style>
 </defs>
 <g id="figure_1">
  <g id="patch_1">
   <path d="M 0 424.474375 
L 712.433125 424.474375 
L 712.433125 -0 
L 0 -0 
z
" style="fill:#ffffff;"/>
  </g>
  <g id="axes_1">
   <g id="patch_2">
    <path d="M 40.603125 71.268125 
L 705.233125 71.268125 
L 705.233125 22.318125 
L 40.603125 22.318125 
z
" style="fill:#ffffff;"/>
   </g>
   <g id="matplotlib.axis_1">
    <g id="xtick_1">
     <g id="line2d_1">
      <defs>
       <path d="M 0 0 
L 0 3.5 
" id="mbdda68b742" style="stroke:#000000;stroke-width:0.8;"/>
      </defs>
      <g>
       <use style="stroke:#000000;stroke-width:0.8;" x="123.768973" xlink:href="#mbdda68b742" y="71.268125"/>
      </g>
     </g>
     <g id="text_1">
      <!-- 3.530 -->
      <defs>
       <path d="M 40.578125 39.3125 
Q 47.65625 37.796875 51.625 33 
Q 55.609375 28.21875 55.609375 21.1875 
Q 55.609375 10.40625 48.1875 4.484375 
Q 40.765625 -1.421875 27.09375 -1.421875 
Q 22.515625 -1.421875 17.65625 -0.515625 
Q 12.796875 0.390625 7.625 2.203125 
L 7.625 11.71875 
Q 11.71875 9.328125 16.59375 8.109375 
Q 21.484375 6.890625 26.8125 6.890625 
Q 36.078125 6.890625 40.9375 10.546875 
Q 45.796875 14.203125 45.796875 21.1875 
Q 45.796875 27.640625 41.28125 31.265625 
Q 36.765625 34.90625 28.71875 34.90625 
L 20.21875 34.90625 
L 20.21875 43.015625 
L 29.109375 43.015625 
Q 36.375 43.015625 40.234375 45.921875 
Q 44.09375 48.828125 44.09375 54.296875 
Q 44.09375 59.90625 40.109375 62.90625 
Q 36.140625 65.921875 28.71875 65.921875 
Q 24.65625 65.921875 20.015625 65.03125 
Q 15.375 64.15625 9.8125 62.3125 
L 9.8125 71.09375 
Q 15.4375 72.65625 20.34375 73.4375 
Q 25.25 74.21875 29.59375 74.21875 
Q 40.828125 74.21875 47.359375 69.109375 
Q 53.90625 64.015625 53.90625 55.328125 
Q 53.90625 49.265625 50.4375 45.09375 
Q 46.96875 40.921875 40.578125 39.3125 
z
" id="DejaVuSans-51"/>
       <path d="M 10.6875 12.40625 
L 21 12.40625 
L 21 0 
L 10.6875 0 
z
" id="DejaVuSans-46"/>
       <path d="M 10.796875 72.90625 
L 49.515625 72.90625 
L 49.515625 64.59375 
L 19.828125 64.59375 
L 19.828125 46.734375 
Q 21.96875 47.46875 24.109375 47.828125 
Q 26.265625 48.1875 28.421875 48.1875 
Q 40.625 48.1875 47.75 41.5 
Q 54.890625 34.8125 54.890625 23.390625 
Q 54.890625 11.625 47.5625 5.09375 
Q 40.234375 -1.421875 26.90625 -1.421875 
Q 22.3125 -1.421875 17.546875 -0.640625 
Q 12.796875 0.140625 7.71875 1.703125 
L 7.71875 11.625 
Q 12.109375 9.234375 16.796875 8.0625 
Q 21.484375 6.890625 26.703125 6.890625 
Q 35.15625 6.890625 40.078125 11.328125 
Q 45.015625 15.765625 45.015625 23.390625 
Q 45.015625 31 40.078125 35.4375 
Q 35.15625 39.890625 26.703125 39.890625 
Q 22.75 39.890625 18.8125 39.015625 
Q 14.890625 38.140625 10.796875 36.28125 
z
" id="DejaVuSans-53"/>
       <path d="M 31.78125 66.40625 
Q 24.171875 66.40625 20.328125 58.90625 
Q 16.5 51.421875 16.5 36.375 
Q 16.5 21.390625 20.328125 13.890625 
Q 24.171875 6.390625 31.78125 6.390625 
Q 39.453125 6.390625 43.28125 13.890625 
Q 47.125 21.390625 47.125 36.375 
Q 47.125 51.421875 43.28125 58.90625 
Q 39.453125 66.40625 31.78125 66.40625 
z
M 31.78125 74.21875 
Q 44.046875 74.21875 50.515625 64.515625 
Q 56.984375 54.828125 56.984375 36.375 
Q 56.984375 17.96875 50.515625 8.265625 
Q 44.046875 -1.421875 31.78125 -1.421875 
Q 19.53125 -1.421875 13.0625 8.265625 
Q 6.59375 17.96875 6.59375 36.375 
Q 6.59375 54.828125 13.0625 64.515625 
Q 19.53125 74.21875 31.78125 74.21875 
z
" id="DejaVuSans-48"/>
      </defs>
      <g transform="translate(109.45491 85.866562)scale(0.1 -0.1)">
       <use xlink:href="#DejaVuSans-51"/>
       <use x="63.623047" xlink:href="#DejaVuSans-46"/>
       <use x="95.410156" xlink:href="#DejaVuSans-53"/>
       <use x="159.033203" xlink:href="#DejaVuSans-51"/>
       <use x="222.65625" xlink:href="#DejaVuSans-48"/>
      </g>
     </g>
    </g>
    <g id="xtick_2">
     <g id="line2d_2">
      <g>
       <use style="stroke:#000000;stroke-width:0.8;" x="223.309185" xlink:href="#mbdda68b742" y="71.268125"/>
      </g>
     </g>
     <g id="text_2">
      <!-- 3.535 -->
      <g transform="translate(208.995123 85.866562)scale(0.1 -0.1)">
       <use xlink:href="#DejaVuSans-51"/>
       <use x="63.623047" xlink:href="#DejaVuSans-46"/>
       <use x="95.410156" xlink:href="#DejaVuSans-53"/>
       <use x="159.033203" xlink:href="#DejaVuSans-51"/>
       <use x="222.65625" xlink:href="#DejaVuSans-53"/>
      </g>
     </g>
    </g>
    <g id="xtick_3">
     <g id="line2d_3">
      <g>
       <use style="stroke:#000000;stroke-width:0.8;" x="322.849398" xlink:href="#mbdda68b742" y="71.268125"/>
      </g>
     </g>
     <g id="text_3">
      <!-- 3.540 -->
      <defs>
       <path d="M 37.796875 64.3125 
L 12.890625 25.390625 
L 37.796875 25.390625 
z
M 35.203125 72.90625 
L 47.609375 72.90625 
L 47.609375 25.390625 
L 58.015625 25.390625 
L 58.015625 17.1875 
L 47.609375 17.1875 
L 47.609375 0 
L 37.796875 0 
L 37.796875 17.1875 
L 4.890625 17.1875 
L 4.890625 26.703125 
z
" id="DejaVuSans-52"/>
      </defs>
      <g transform="translate(308.535336 85.866562)scale(0.1 -0.1)">
       <use xlink:href="#DejaVuSans-51"/>
       <use x="63.623047" xlink:href="#DejaVuSans-46"/>
       <use x="95.410156" xlink:href="#DejaVuSans-53"/>
       <use x="159.033203" xlink:href="#DejaVuSans-52"/>
       <use x="222.65625" xlink:href="#DejaVuSans-48"/>
      </g>
     </g>
    </g>
    <g id="xtick_4">
     <g id="line2d_4">
      <g>
       <use style="stroke:#000000;stroke-width:0.8;" x="422.389611" xlink:href="#mbdda68b742" y="71.268125"/>
      </g>
     </g>
     <g id="text_4">
      <!-- 3.545 -->
      <g transform="translate(408.075548 85.866562)scale(0.1 -0.1)">
       <use xlink:href="#DejaVuSans-51"/>
       <use x="63.623047" xlink:href="#DejaVuSans-46"/>
       <use x="95.410156" xlink:href="#DejaVuSans-53"/>
       <use x="159.033203" xlink:href="#DejaVuSans-52"/>
       <use x="222.65625" xlink:href="#DejaVuSans-53"/>
      </g>
     </g>
    </g>
    <g id="xtick_5">
     <g id="line2d_5">
      <g>
       <use style="stroke:#000000;stroke-width:0.8;" x="521.929823" xlink:href="#mbdda68b742" y="71.268125"/>
      </g>
     </g>
     <g id="text_5">
      <!-- 3.550 -->
      <g transform="translate(507.615761 85.866562)scale(0.1 -0.1)">
       <use xlink:href="#DejaVuSans-51"/>
       <use x="63.623047" xlink:href="#DejaVuSans-46"/>
       <use x="95.410156" xlink:href="#DejaVuSans-53"/>
       <use x="159.033203" xlink:href="#DejaVuSans-53"/>
       <use x="222.65625" xlink:href="#DejaVuSans-48"/>
      </g>
     </g>
    </g>
    <g id="xtick_6">
     <g id="line2d_6">
      <g>
       <use style="stroke:#000000;stroke-width:0.8;" x="621.470036" xlink:href="#mbdda68b742" y="71.268125"/>
      </g>
     </g>
     <g id="text_6">
      <!-- 3.555 -->
      <g transform="translate(607.155974 85.866562)scale(0.1 -0.1)">
       <use xlink:href="#DejaVuSans-51"/>
       <use x="63.623047" xlink:href="#DejaVuSans-46"/>
       <use x="95.410156" xlink:href="#DejaVuSans-53"/>
       <use x="159.033203" xlink:href="#DejaVuSans-53"/>
       <use x="222.65625" xlink:href="#DejaVuSans-53"/>
      </g>
     </g>
    </g>
    <g id="text_7">
     <!-- Time (ms) -->
     <defs>
      <path d="M -0.296875 72.90625 
L 61.375 72.90625 
L 61.375 64.59375 
L 35.5 64.59375 
L 35.5 0 
L 25.59375 0 
L 25.59375 64.59375 
L -0.296875 64.59375 
z
" id="DejaVuSans-84"/>
      <path d="M 9.421875 54.6875 
L 18.40625 54.6875 
L 18.40625 0 
L 9.421875 0 
z
M 9.421875 75.984375 
L 18.40625 75.984375 
L 18.40625 64.59375 
L 9.421875 64.59375 
z
" id="DejaVuSans-105"/>
      <path d="M 52 44.1875 
Q 55.375 50.25 60.0625 53.125 
Q 64.75 56 71.09375 56 
Q 79.640625 56 84.28125 50.015625 
Q 88.921875 44.046875 88.921875 33.015625 
L 88.921875 0 
L 79.890625 0 
L 79.890625 32.71875 
Q 79.890625 40.578125 77.09375 44.375 
Q 74.3125 48.1875 68.609375 48.1875 
Q 61.625 48.1875 57.5625 43.546875 
Q 53.515625 38.921875 53.515625 30.90625 
L 53.515625 0 
L 44.484375 0 
L 44.484375 32.71875 
Q 44.484375 40.625 41.703125 44.40625 
Q 38.921875 48.1875 33.109375 48.1875 
Q 26.21875 48.1875 22.15625 43.53125 
Q 18.109375 38.875 18.109375 30.90625 
L 18.109375 0 
L 9.078125 0 
L 9.078125 54.6875 
L 18.109375 54.6875 
L 18.109375 46.1875 
Q 21.1875 51.21875 25.484375 53.609375 
Q 29.78125 56 35.6875 56 
Q 41.65625 56 45.828125 52.96875 
Q 50 49.953125 52 44.1875 
z
" id="DejaVuSans-109"/>
      <path d="M 56.203125 29.59375 
L 56.203125 25.203125 
L 14.890625 25.203125 
Q 15.484375 15.921875 20.484375 11.0625 
Q 25.484375 6.203125 34.421875 6.203125 
Q 39.59375 6.203125 44.453125 7.46875 
Q 49.3125 8.734375 54.109375 11.28125 
L 54.109375 2.78125 
Q 49.265625 0.734375 44.1875 -0.34375 
Q 39.109375 -1.421875 33.890625 -1.421875 
Q 20.796875 -1.421875 13.15625 6.1875 
Q 5.515625 13.8125 5.515625 26.8125 
Q 5.515625 40.234375 12.765625 48.109375 
Q 20.015625 56 32.328125 56 
Q 43.359375 56 49.78125 48.890625 
Q 56.203125 41.796875 56.203125 29.59375 
z
M 47.21875 32.234375 
Q 47.125 39.59375 43.09375 43.984375 
Q 39.0625 48.390625 32.421875 48.390625 
Q 24.90625 48.390625 20.390625 44.140625 
Q 15.875 39.890625 15.1875 32.171875 
z
" id="DejaVuSans-101"/>
      <path id="DejaVuSans-32"/>
      <path d="M 31 75.875 
Q 24.46875 64.65625 21.28125 53.65625 
Q 18.109375 42.671875 18.109375 31.390625 
Q 18.109375 20.125 21.3125 9.0625 
Q 24.515625 -2 31 -13.1875 
L 23.1875 -13.1875 
Q 15.875 -1.703125 12.234375 9.375 
Q 8.59375 20.453125 8.59375 31.390625 
Q 8.59375 42.28125 12.203125 53.3125 
Q 15.828125 64.359375 23.1875 75.875 
z
" id="DejaVuSans-40"/>
      <path d="M 44.28125 53.078125 
L 44.28125 44.578125 
Q 40.484375 46.53125 36.375 47.5 
Q 32.28125 48.484375 27.875 48.484375 
Q 21.1875 48.484375 17.84375 46.4375 
Q 14.5 44.390625 14.5 40.28125 
Q 14.5 37.15625 16.890625 35.375 
Q 19.28125 33.59375 26.515625 31.984375 
L 29.59375 31.296875 
Q 39.15625 29.25 43.1875 25.515625 
Q 47.21875 21.78125 47.21875 15.09375 
Q 47.21875 7.46875 41.1875 3.015625 
Q 35.15625 -1.421875 24.609375 -1.421875 
Q 20.21875 -1.421875 15.453125 -0.5625 
Q 10.6875 0.296875 5.421875 2 
L 5.421875 11.28125 
Q 10.40625 8.6875 15.234375 7.390625 
Q 20.0625 6.109375 24.8125 6.109375 
Q 31.15625 6.109375 34.5625 8.28125 
Q 37.984375 10.453125 37.984375 14.40625 
Q 37.984375 18.0625 35.515625 20.015625 
Q 33.0625 21.96875 24.703125 23.78125 
L 21.578125 24.515625 
Q 13.234375 26.265625 9.515625 29.90625 
Q 5.8125 33.546875 5.8125 39.890625 
Q 5.8125 47.609375 11.28125 51.796875 
Q 16.75 56 26.8125 56 
Q 31.78125 56 36.171875 55.265625 
Q 40.578125 54.546875 44.28125 53.078125 
z
" id="DejaVuSans-115"/>
      <path d="M 8.015625 75.875 
L 15.828125 75.875 
Q 23.140625 64.359375 26.78125 53.3125 
Q 30.421875 42.28125 30.421875 31.390625 
Q 30.421875 20.453125 26.78125 9.375 
Q 23.140625 -1.703125 15.828125 -13.1875 
L 8.015625 -13.1875 
Q 14.5 -2 17.703125 9.0625 
Q 20.90625 20.125 20.90625 31.390625 
Q 20.90625 42.671875 17.703125 53.65625 
Q 14.5 64.65625 8.015625 75.875 
z
" id="DejaVuSans-41"/>
     </defs>
     <g transform="translate(347.565 99.544688)scale(0.1 -0.1)">
      <use xlink:href="#DejaVuSans-84"/>
      <use x="61.037109" xlink:href="#DejaVuSans-105"/>
      <use x="88.820312" xlink:href="#DejaVuSans-109"/>
      <use x="186.232422" xlink:href="#DejaVuSans-101"/>
      <use x="247.755859" xlink:href="#DejaVuSans-32"/>
      <use x="279.542969" xlink:href="#DejaVuSans-40"/>
      <use x="318.556641" xlink:href="#DejaVuSans-109"/>
      <use x="415.96875" xlink:href="#DejaVuSans-115"/>
      <use x="468.068359" xlink:href="#DejaVuSans-41"/>
     </g>
    </g>
    <g id="text_8">
     <!-- 1e5 -->
     <defs>
      <path d="M 12.40625 8.296875 
L 28.515625 8.296875 
L 28.515625 63.921875 
L 10.984375 60.40625 
L 10.984375 69.390625 
L 28.421875 72.90625 
L 38.28125 72.90625 
L 38.28125 8.296875 
L 54.390625 8.296875 
L 54.390625 0 
L 12.40625 0 
z
" id="DejaVuSans-49"/>
     </defs>
     <g transform="translate(686.355 98.544688)scale(0.1 -0.1)">
      <use xlink:href="#DejaVuSans-49"/>
      <use x="63.623047" xlink:href="#DejaVuSans-101"/>
      <use x="125.146484" xlink:href="#DejaVuSans-53"/>
     </g>
    </g>
   </g>
   <g id="matplotlib.axis_2">
    <g id="ytick_1">
     <g id="line2d_7">
      <defs>
       <path d="M 0 0 
L -3.5 0 
" id="mae3ba4aac7" style="stroke:#000000;stroke-width:0.8;"/>
      </defs>
      <g>
       <use style="stroke:#000000;stroke-width:0.8;" x="40.603125" xlink:href="#mae3ba4aac7" y="61.190184"/>
      </g>
     </g>
     <g id="text_9">
      <!-- 25 -->
      <defs>
       <path d="M 19.1875 8.296875 
L 53.609375 8.296875 
L 53.609375 0 
L 7.328125 0 
L 7.328125 8.296875 
Q 12.9375 14.109375 22.625 23.890625 
Q 32.328125 33.6875 34.8125 36.53125 
Q 39.546875 41.84375 41.421875 45.53125 
Q 43.3125 49.21875 43.3125 52.78125 
Q 43.3125 58.59375 39.234375 62.25 
Q 35.15625 65.921875 28.609375 65.921875 
Q 23.96875 65.921875 18.8125 64.3125 
Q 13.671875 62.703125 7.8125 59.421875 
L 7.8125 69.390625 
Q 13.765625 71.78125 18.9375 73 
Q 24.125 74.21875 28.421875 74.21875 
Q 39.75 74.21875 46.484375 68.546875 
Q 53.21875 62.890625 53.21875 53.421875 
Q 53.21875 48.921875 51.53125 44.890625 
Q 49.859375 40.875 45.40625 35.40625 
Q 44.1875 33.984375 37.640625 27.21875 
Q 31.109375 20.453125 19.1875 8.296875 
z
" id="DejaVuSans-50"/>
      </defs>
      <g transform="translate(20.878125 64.989403)scale(0.1 -0.1)">
       <use xlink:href="#DejaVuSans-50"/>
       <use x="63.623047" xlink:href="#DejaVuSans-53"/>
      </g>
     </g>
    </g>
    <g id="ytick_2">
     <g id="line2d_8">
      <g>
       <use style="stroke:#000000;stroke-width:0.8;" x="40.603125" xlink:href="#mae3ba4aac7" y="39.376458"/>
      </g>
     </g>
     <g id="text_10">
      <!-- 50 -->
      <g transform="translate(20.878125 43.175677)scale(0.1 -0.1)">
       <use xlink:href="#DejaVuSans-53"/>
       <use x="63.623047" xlink:href="#DejaVuSans-48"/>
      </g>
     </g>
    </g>
    <g id="text_11">
     <!-- ADC Value -->
     <defs>
      <path d="M 34.1875 63.1875 
L 20.796875 26.90625 
L 47.609375 26.90625 
z
M 28.609375 72.90625 
L 39.796875 72.90625 
L 67.578125 0 
L 57.328125 0 
L 50.6875 18.703125 
L 17.828125 18.703125 
L 11.1875 0 
L 0.78125 0 
z
" id="DejaVuSans-65"/>
      <path d="M 19.671875 64.796875 
L 19.671875 8.109375 
L 31.59375 8.109375 
Q 46.6875 8.109375 53.6875 14.9375 
Q 60.6875 21.78125 60.6875 36.53125 
Q 60.6875 51.171875 53.6875 57.984375 
Q 46.6875 64.796875 31.59375 64.796875 
z
M 9.8125 72.90625 
L 30.078125 72.90625 
Q 51.265625 72.90625 61.171875 64.09375 
Q 71.09375 55.28125 71.09375 36.53125 
Q 71.09375 17.671875 61.125 8.828125 
Q 51.171875 0 30.078125 0 
L 9.8125 0 
z
" id="DejaVuSans-68"/>
      <path d="M 64.40625 67.28125 
L 64.40625 56.890625 
Q 59.421875 61.53125 53.78125 63.8125 
Q 48.140625 66.109375 41.796875 66.109375 
Q 29.296875 66.109375 22.65625 58.46875 
Q 16.015625 50.828125 16.015625 36.375 
Q 16.015625 21.96875 22.65625 14.328125 
Q 29.296875 6.6875 41.796875 6.6875 
Q 48.140625 6.6875 53.78125 8.984375 
Q 59.421875 11.28125 64.40625 15.921875 
L 64.40625 5.609375 
Q 59.234375 2.09375 53.4375 0.328125 
Q 47.65625 -1.421875 41.21875 -1.421875 
Q 24.65625 -1.421875 15.125 8.703125 
Q 5.609375 18.84375 5.609375 36.375 
Q 5.609375 53.953125 15.125 64.078125 
Q 24.65625 74.21875 41.21875 74.21875 
Q 47.75 74.21875 53.53125 72.484375 
Q 59.328125 70.75 64.40625 67.28125 
z
" id="DejaVuSans-67"/>
      <path d="M 28.609375 0 
L 0.78125 72.90625 
L 11.078125 72.90625 
L 34.1875 11.53125 
L 57.328125 72.90625 
L 67.578125 72.90625 
L 39.796875 0 
z
" id="DejaVuSans-86"/>
      <path d="M 34.28125 27.484375 
Q 23.390625 27.484375 19.1875 25 
Q 14.984375 22.515625 14.984375 16.5 
Q 14.984375 11.71875 18.140625 8.90625 
Q 21.296875 6.109375 26.703125 6.109375 
Q 34.1875 6.109375 38.703125 11.40625 
Q 43.21875 16.703125 43.21875 25.484375 
L 43.21875 27.484375 
z
M 52.203125 31.203125 
L 52.203125 0 
L 43.21875 0 
L 43.21875 8.296875 
Q 40.140625 3.328125 35.546875 0.953125 
Q 30.953125 -1.421875 24.3125 -1.421875 
Q 15.921875 -1.421875 10.953125 3.296875 
Q 6 8.015625 6 15.921875 
Q 6 25.140625 12.171875 29.828125 
Q 18.359375 34.515625 30.609375 34.515625 
L 43.21875 34.515625 
L 43.21875 35.40625 
Q 43.21875 41.609375 39.140625 45 
Q 35.0625 48.390625 27.6875 48.390625 
Q 23 48.390625 18.546875 47.265625 
Q 14.109375 46.140625 10.015625 43.890625 
L 10.015625 52.203125 
Q 14.9375 54.109375 19.578125 55.046875 
Q 24.21875 56 28.609375 56 
Q 40.484375 56 46.34375 49.84375 
Q 52.203125 43.703125 52.203125 31.203125 
z
" id="DejaVuSans-97"/>
      <path d="M 9.421875 75.984375 
L 18.40625 75.984375 
L 18.40625 0 
L 9.421875 0 
z
" id="DejaVuSans-108"/>
      <path d="M 8.5 21.578125 
L 8.5 54.6875 
L 17.484375 54.6875 
L 17.484375 21.921875 
Q 17.484375 14.15625 20.5 10.265625 
Q 23.53125 6.390625 29.59375 6.390625 
Q 36.859375 6.390625 41.078125 11.03125 
Q 45.3125 15.671875 45.3125 23.6875 
L 45.3125 54.6875 
L 54.296875 54.6875 
L 54.296875 0 
L 45.3125 0 
L 45.3125 8.40625 
Q 42.046875 3.421875 37.71875 1 
Q 33.40625 -1.421875 27.6875 -1.421875 
Q 18.265625 -1.421875 13.375 4.4375 
Q 8.5 10.296875 8.5 21.578125 
z
M 31.109375 56 
z
" id="DejaVuSans-117"/>
     </defs>
     <g transform="translate(14.798438 73.257188)rotate(-90)scale(0.1 -0.1)">
      <use xlink:href="#DejaVuSans-65"/>
      <use x="68.408203" xlink:href="#DejaVuSans-68"/>
      <use x="145.410156" xlink:href="#DejaVuSans-67"/>
      <use x="215.234375" xlink:href="#DejaVuSans-32"/>
      <use x="247.021484" xlink:href="#DejaVuSans-86"/>
      <use x="315.320312" xlink:href="#DejaVuSans-97"/>
      <use x="376.599609" xlink:href="#DejaVuSans-108"/>
      <use x="404.382812" xlink:href="#DejaVuSans-117"/>
      <use x="467.761719" xlink:href="#DejaVuSans-101"/>
     </g>
    </g>
   </g>
   <g id="line2d_9">
    <path clip-path="url(#p84de08f391)" d="M 70.81358 47.2294 
L 73.003464 45.484301 
L 75.193349 44.611752 
L 78.975877 44.611752 
L 80.767601 42.866654 
L 88.730818 42.866654 
L 92.911507 44.611752 
L 95.300472 48.101949 
L 97.291276 54.209792 
L 100.078402 60.317635 
L 101.870126 63.807831 
L 104.060011 66.425478 
L 105.851734 69.043125 
L 107.643458 69.043125 
L 109.435182 67.298027 
L 111.625067 67.298027 
L 113.416791 66.425478 
L 116.402997 63.807831 
L 118.194721 62.935282 
L 122.176329 59.445086 
L 126.755179 55.082341 
L 128.945064 55.082341 
L 130.736788 55.95489 
L 132.727592 54.209792 
L 135.315637 52.464694 
L 137.306442 51.592145 
L 139.496326 49.847047 
L 141.686211 49.847047 
L 143.677015 47.2294 
L 146.06598 45.484301 
L 147.857704 41.994105 
L 149.848508 40.249007 
L 152.237474 37.63136 
L 154.228278 37.63136 
L 156.020002 35.886262 
L 158.209886 34.141164 
L 160.399771 35.886262 
L 162.987816 34.141164 
L 167.168505 34.141164 
L 168.960229 33.268615 
L 171.150114 32.396066 
L 173.140918 34.141164 
L 175.131722 36.758811 
L 176.923446 42.866654 
L 178.914251 48.101949 
L 181.303216 53.337243 
L 183.094939 55.082341 
L 185.085744 58.572537 
L 191.854478 58.572537 
L 193.646202 56.827439 
L 198.225052 55.082341 
L 200.016776 54.209792 
L 201.808499 51.592145 
L 203.600223 50.719596 
L 205.989188 48.974498 
L 207.780912 48.101949 
L 209.970797 48.101949 
L 211.762521 48.974498 
L 214.151486 48.101949 
L 220.123899 48.101949 
L 222.512864 46.35685 
L 224.702748 44.611752 
L 226.693553 42.866654 
L 228.883437 41.121556 
L 231.272402 41.121556 
L 234.85585 37.63136 
L 236.846654 36.758811 
L 238.638378 36.758811 
L 241.027343 35.886262 
L 245.208032 34.141164 
L 247.596997 33.268615 
L 249.388721 32.396066 
L 251.379525 32.396066 
L 253.37033 35.013713 
L 255.361134 38.503909 
L 260.139064 48.101949 
L 261.930788 50.719596 
L 263.921592 53.337243 
L 268.102281 55.082341 
L 272.08389 55.082341 
L 276.065498 51.592145 
L 278.255383 49.847047 
L 280.445267 48.974498 
L 282.834233 47.2294 
L 284.825037 46.35685 
L 287.014921 44.611752 
L 290.79745 42.866654 
L 292.987334 41.121556 
L 294.779058 41.121556 
L 296.968943 39.376458 
L 298.959747 37.63136 
L 301.149632 38.503909 
L 303.339516 37.63136 
L 305.13124 36.758811 
L 307.520205 35.886262 
L 309.51101 35.013713 
L 311.899975 32.396066 
L 313.890779 33.268615 
L 316.478824 31.523517 
L 322.451237 31.523517 
L 332.604339 27.160772 
L 334.794224 27.160772 
L 336.585947 30.650968 
L 338.576752 35.013713 
L 340.567556 41.121556 
L 344.350084 46.35685 
L 346.340888 49.847047 
L 348.132612 49.847047 
L 350.720658 50.719596 
L 352.512381 50.719596 
L 354.702266 51.592145 
L 356.892151 51.592145 
L 358.882955 50.719596 
L 361.27192 48.101949 
L 363.063644 46.35685 
L 365.253529 45.484301 
L 367.244333 45.484301 
L 369.434218 44.611752 
L 371.225941 43.739203 
L 373.017665 41.994105 
L 375.40663 41.994105 
L 377.198354 40.249007 
L 378.990078 39.376458 
L 380.980882 37.63136 
L 382.772606 36.758811 
L 386.555134 33.268615 
L 388.346858 32.396066 
L 390.337662 32.396066 
L 392.527547 30.650968 
L 394.717432 29.778419 
L 396.509155 28.90587 
L 398.69904 28.90587 
L 401.486166 28.033321 
L 403.47697 27.160772 
L 405.865935 27.160772 
L 408.453981 28.033321 
L 410.842946 26.288223 
L 412.63467 25.415674 
L 414.824555 24.543125 
L 417.61168 26.288223 
L 419.801565 28.90587 
L 422.19053 33.268615 
L 424.380415 38.503909 
L 428.561104 46.35685 
L 430.352828 48.974498 
L 432.542712 49.847047 
L 435.329838 49.847047 
L 437.519723 48.974498 
L 440.306849 48.974498 
L 442.297653 47.2294 
L 444.288457 44.611752 
L 446.279262 44.611752 
L 448.270066 41.994105 
L 451.853514 41.121556 
L 457.626846 41.121556 
L 459.41857 40.249007 
L 461.608454 39.376458 
L 463.400178 39.376458 
L 465.988224 37.63136 
L 471.761556 35.013713 
L 473.951441 33.268615 
L 475.743165 33.268615 
L 477.733969 32.396066 
L 479.923854 30.650968 
L 483.706382 30.650968 
L 485.896266 29.778419 
L 488.086151 29.778419 
L 489.877875 28.90587 
L 493.859483 28.90587 
L 495.651207 30.650968 
L 497.841092 30.650968 
L 499.831896 32.396066 
L 502.021781 35.013713 
L 505.605228 41.121556 
L 507.596033 46.35685 
L 509.785917 48.974498 
L 512.174883 52.464694 
L 513.966606 50.719596 
L 516.156491 53.337243 
L 520.1381 51.592145 
L 522.327984 49.847047 
L 524.119708 46.35685 
L 526.110512 46.35685 
L 530.291201 44.611752 
L 532.282005 42.866654 
L 534.47189 43.739203 
L 540.245222 41.121556 
L 544.226831 41.121556 
L 548.009359 39.376458 
L 549.801083 39.376458 
L 551.791887 37.63136 
L 553.782691 36.758811 
L 555.574415 35.013713 
L 557.366139 34.141164 
L 559.356943 32.396066 
L 561.347748 31.523517 
L 563.736713 30.650968 
L 567.32016 30.650968 
L 569.510045 28.90587 
L 571.89901 28.90587 
L 575.482458 25.415674 
L 577.672342 24.543125 
L 579.663147 25.415674 
L 581.853031 28.90587 
L 584.042916 33.268615 
L 586.03372 39.376458 
L 590.015329 47.2294 
L 592.006133 50.719596 
L 593.996937 51.592145 
L 600.566591 51.592145 
L 602.955556 49.847047 
L 604.946361 48.974498 
L 606.738085 47.2294 
L 608.927969 46.35685 
L 610.719693 44.611752 
L 613.108658 42.866654 
L 614.900382 42.866654 
L 617.090267 41.994105 
L 620.673714 40.249007 
L 623.062679 39.376458 
L 624.854403 39.376458 
L 627.044288 37.63136 
L 628.836012 37.63136 
L 631.025896 36.758811 
L 632.81762 35.886262 
L 634.609344 37.63136 
L 636.401068 36.758811 
L 638.790033 37.63136 
L 644.961526 31.523517 
L 646.95233 30.650968 
L 650.535778 30.650968 
L 652.526582 29.778419 
L 654.517387 28.033321 
L 656.906352 27.160772 
L 660.88796 27.160772 
L 663.077845 28.90587 
L 667.457614 39.376458 
L 669.249338 45.484301 
L 671.041062 49.847047 
L 673.230947 53.337243 
L 675.02267 56.827439 
L 675.02267 56.827439 
" style="fill:none;stroke:#1f77b4;stroke-linecap:square;stroke-width:1.5;"/>
   </g>
   <g id="patch_3">
    <path d="M 40.603125 71.268125 
L 40.603125 22.318125 
" style="fill:none;stroke:#000000;stroke-linecap:square;stroke-linejoin:miter;stroke-width:0.8;"/>
   </g>
   <g id="patch_4">
    <path d="M 705.233125 71.268125 
L 705.233125 22.318125 
" style="fill:none;stroke:#000000;stroke-linecap:square;stroke-linejoin:miter;stroke-width:0.8;"/>
   </g>
   <g id="patch_5">
    <path d="M 40.603125 71.268125 
L 705.233125 71.268125 
" style="fill:none;stroke:#000000;stroke-linecap:square;stroke-linejoin:miter;stroke-width:0.8;"/>
   </g>
   <g id="patch_6">
    <path d="M 40.603125 22.318125 
L 705.233125 22.318125 
" style="fill:none;stroke:#000000;stroke-linecap:square;stroke-linejoin:miter;stroke-width:0.8;"/>
   </g>
   <g id="text_12">
    <!-- IR LED Input Signal -->
    <defs>
     <path d="M 9.8125 72.90625 
L 19.671875 72.90625 
L 19.671875 0 
L 9.8125 0 
z
" id="DejaVuSans-73"/>
     <path d="M 44.390625 34.1875 
Q 47.5625 33.109375 50.5625 29.59375 
Q 53.5625 26.078125 56.59375 19.921875 
L 66.609375 0 
L 56 0 
L 46.6875 18.703125 
Q 43.0625 26.03125 39.671875 28.421875 
Q 36.28125 30.8125 30.421875 30.8125 
L 19.671875 30.8125 
L 19.671875 0 
L 9.8125 0 
L 9.8125 72.90625 
L 32.078125 72.90625 
Q 44.578125 72.90625 50.734375 67.671875 
Q 56.890625 62.453125 56.890625 51.90625 
Q 56.890625 45.015625 53.6875 40.46875 
Q 50.484375 35.9375 44.390625 34.1875 
z
M 19.671875 64.796875 
L 19.671875 38.921875 
L 32.078125 38.921875 
Q 39.203125 38.921875 42.84375 42.21875 
Q 46.484375 45.515625 46.484375 51.90625 
Q 46.484375 58.296875 42.84375 61.546875 
Q 39.203125 64.796875 32.078125 64.796875 
z
" id="DejaVuSans-82"/>
     <path d="M 9.8125 72.90625 
L 19.671875 72.90625 
L 19.671875 8.296875 
L 55.171875 8.296875 
L 55.171875 0 
L 9.8125 0 
z
" id="DejaVuSans-76"/>
     <path d="M 9.8125 72.90625 
L 55.90625 72.90625 
L 55.90625 64.59375 
L 19.671875 64.59375 
L 19.671875 43.015625 
L 54.390625 43.015625 
L 54.390625 34.71875 
L 19.671875 34.71875 
L 19.671875 8.296875 
L 56.78125 8.296875 
L 56.78125 0 
L 9.8125 0 
z
" id="DejaVuSans-69"/>
     <path d="M 54.890625 33.015625 
L 54.890625 0 
L 45.90625 0 
L 45.90625 32.71875 
Q 45.90625 40.484375 42.875 44.328125 
Q 39.84375 48.1875 33.796875 48.1875 
Q 26.515625 48.1875 22.3125 43.546875 
Q 18.109375 38.921875 18.109375 30.90625 
L 18.109375 0 
L 9.078125 0 
L 9.078125 54.6875 
L 18.109375 54.6875 
L 18.109375 46.1875 
Q 21.34375 51.125 25.703125 53.5625 
Q 30.078125 56 35.796875 56 
Q 45.21875 56 50.046875 50.171875 
Q 54.890625 44.34375 54.890625 33.015625 
z
" id="DejaVuSans-110"/>
     <path d="M 18.109375 8.203125 
L 18.109375 -20.796875 
L 9.078125 -20.796875 
L 9.078125 54.6875 
L 18.109375 54.6875 
L 18.109375 46.390625 
Q 20.953125 51.265625 25.265625 53.625 
Q 29.59375 56 35.59375 56 
Q 45.5625 56 51.78125 48.09375 
Q 58.015625 40.1875 58.015625 27.296875 
Q 58.015625 14.40625 51.78125 6.484375 
Q 45.5625 -1.421875 35.59375 -1.421875 
Q 29.59375 -1.421875 25.265625 0.953125 
Q 20.953125 3.328125 18.109375 8.203125 
z
M 48.6875 27.296875 
Q 48.6875 37.203125 44.609375 42.84375 
Q 40.53125 48.484375 33.40625 48.484375 
Q 26.265625 48.484375 22.1875 42.84375 
Q 18.109375 37.203125 18.109375 27.296875 
Q 18.109375 17.390625 22.1875 11.75 
Q 26.265625 6.109375 33.40625 6.109375 
Q 40.53125 6.109375 44.609375 11.75 
Q 48.6875 17.390625 48.6875 27.296875 
z
" id="DejaVuSans-112"/>
     <path d="M 18.3125 70.21875 
L 18.3125 54.6875 
L 36.8125 54.6875 
L 36.8125 47.703125 
L 18.3125 47.703125 
L 18.3125 18.015625 
Q 18.3125 11.328125 20.140625 9.421875 
Q 21.96875 7.515625 27.59375 7.515625 
L 36.8125 7.515625 
L 36.8125 0 
L 27.59375 0 
Q 17.1875 0 13.234375 3.875 
Q 9.28125 7.765625 9.28125 18.015625 
L 9.28125 47.703125 
L 2.6875 47.703125 
L 2.6875 54.6875 
L 9.28125 54.6875 
L 9.28125 70.21875 
z
" id="DejaVuSans-116"/>
     <path d="M 53.515625 70.515625 
L 53.515625 60.890625 
Q 47.90625 63.578125 42.921875 64.890625 
Q 37.9375 66.21875 33.296875 66.21875 
Q 25.25 66.21875 20.875 63.09375 
Q 16.5 59.96875 16.5 54.203125 
Q 16.5 49.359375 19.40625 46.890625 
Q 22.3125 44.4375 30.421875 42.921875 
L 36.375 41.703125 
Q 47.40625 39.59375 52.65625 34.296875 
Q 57.90625 29 57.90625 20.125 
Q 57.90625 9.515625 50.796875 4.046875 
Q 43.703125 -1.421875 29.984375 -1.421875 
Q 24.8125 -1.421875 18.96875 -0.25 
Q 13.140625 0.921875 6.890625 3.21875 
L 6.890625 13.375 
Q 12.890625 10.015625 18.65625 8.296875 
Q 24.421875 6.59375 29.984375 6.59375 
Q 38.421875 6.59375 43.015625 9.90625 
Q 47.609375 13.234375 47.609375 19.390625 
Q 47.609375 24.75 44.3125 27.78125 
Q 41.015625 30.8125 33.5 32.328125 
L 27.484375 33.5 
Q 16.453125 35.6875 11.515625 40.375 
Q 6.59375 45.0625 6.59375 53.421875 
Q 6.59375 63.09375 13.40625 68.65625 
Q 20.21875 74.21875 32.171875 74.21875 
Q 37.3125 74.21875 42.625 73.28125 
Q 47.953125 72.359375 53.515625 70.515625 
z
" id="DejaVuSans-83"/>
     <path d="M 45.40625 27.984375 
Q 45.40625 37.75 41.375 43.109375 
Q 37.359375 48.484375 30.078125 48.484375 
Q 22.859375 48.484375 18.828125 43.109375 
Q 14.796875 37.75 14.796875 27.984375 
Q 14.796875 18.265625 18.828125 12.890625 
Q 22.859375 7.515625 30.078125 7.515625 
Q 37.359375 7.515625 41.375 12.890625 
Q 45.40625 18.265625 45.40625 27.984375 
z
M 54.390625 6.78125 
Q 54.390625 -7.171875 48.1875 -13.984375 
Q 42 -20.796875 29.203125 -20.796875 
Q 24.46875 -20.796875 20.265625 -20.09375 
Q 16.0625 -19.390625 12.109375 -17.921875 
L 12.109375 -9.1875 
Q 16.0625 -11.328125 19.921875 -12.34375 
Q 23.78125 -13.375 27.78125 -13.375 
Q 36.625 -13.375 41.015625 -8.765625 
Q 45.40625 -4.15625 45.40625 5.171875 
L 45.40625 9.625 
Q 42.625 4.78125 38.28125 2.390625 
Q 33.9375 0 27.875 0 
Q 17.828125 0 11.671875 7.65625 
Q 5.515625 15.328125 5.515625 27.984375 
Q 5.515625 40.671875 11.671875 48.328125 
Q 17.828125 56 27.875 56 
Q 33.9375 56 38.28125 53.609375 
Q 42.625 51.21875 45.40625 46.390625 
L 45.40625 54.6875 
L 54.390625 54.6875 
z
" id="DejaVuSans-103"/>
    </defs>
    <g transform="translate(315.536563 16.318125)scale(0.12 -0.12)">
     <use xlink:href="#DejaVuSans-73"/>
     <use x="29.492188" xlink:href="#DejaVuSans-82"/>
     <use x="98.974609" xlink:href="#DejaVuSans-32"/>
     <use x="130.761719" xlink:href="#DejaVuSans-76"/>
     <use x="186.474609" xlink:href="#DejaVuSans-69"/>
     <use x="249.658203" xlink:href="#DejaVuSans-68"/>
     <use x="326.660156" xlink:href="#DejaVuSans-32"/>
     <use x="358.447266" xlink:href="#DejaVuSans-73"/>
     <use x="387.939453" xlink:href="#DejaVuSans-110"/>
     <use x="451.318359" xlink:href="#DejaVuSans-112"/>
     <use x="514.794922" xlink:href="#DejaVuSans-117"/>
     <use x="578.173828" xlink:href="#DejaVuSans-116"/>
     <use x="617.382812" xlink:href="#DejaVuSans-32"/>
     <use x="649.169922" xlink:href="#DejaVuSans-83"/>
     <use x="712.646484" xlink:href="#DejaVuSans-105"/>
     <use x="740.429688" xlink:href="#DejaVuSans-103"/>
     <use x="803.90625" xlink:href="#DejaVuSans-110"/>
     <use x="867.285156" xlink:href="#DejaVuSans-97"/>
     <use x="928.564453" xlink:href="#DejaVuSans-108"/>
    </g>
   </g>
  </g>
  <g id="axes_2">
   <g id="patch_7">
    <path d="M 40.603125 176.818125 
L 705.233125 176.818125 
L 705.233125 127.868125 
L 40.603125 127.868125 
z
" style="fill:#ffffff;"/>
   </g>
   <g id="matplotlib.axis_3">
    <g id="xtick_7">
     <g id="line2d_10">
      <g>
       <use style="stroke:#000000;stroke-width:0.8;" x="123.768973" xlink:href="#mbdda68b742" y="176.818125"/>
      </g>
     </g>
     <g id="text_13">
      <!-- 3.530 -->
      <g transform="translate(109.45491 191.416562)scale(0.1 -0.1)">
       <use xlink:href="#DejaVuSans-51"/>
       <use x="63.623047" xlink:href="#DejaVuSans-46"/>
       <use x="95.410156" xlink:href="#DejaVuSans-53"/>
       <use x="159.033203" xlink:href="#DejaVuSans-51"/>
       <use x="222.65625" xlink:href="#DejaVuSans-48"/>
      </g>
     </g>
    </g>
    <g id="xtick_8">
     <g id="line2d_11">
      <g>
       <use style="stroke:#000000;stroke-width:0.8;" x="223.309185" xlink:href="#mbdda68b742" y="176.818125"/>
      </g>
     </g>
     <g id="text_14">
      <!-- 3.535 -->
      <g transform="translate(208.995123 191.416562)scale(0.1 -0.1)">
       <use xlink:href="#DejaVuSans-51"/>
       <use x="63.623047" xlink:href="#DejaVuSans-46"/>
       <use x="95.410156" xlink:href="#DejaVuSans-53"/>
       <use x="159.033203" xlink:href="#DejaVuSans-51"/>
       <use x="222.65625" xlink:href="#DejaVuSans-53"/>
      </g>
     </g>
    </g>
    <g id="xtick_9">
     <g id="line2d_12">
      <g>
       <use style="stroke:#000000;stroke-width:0.8;" x="322.849398" xlink:href="#mbdda68b742" y="176.818125"/>
      </g>
     </g>
     <g id="text_15">
      <!-- 3.540 -->
      <g transform="translate(308.535336 191.416562)scale(0.1 -0.1)">
       <use xlink:href="#DejaVuSans-51"/>
       <use x="63.623047" xlink:href="#DejaVuSans-46"/>
       <use x="95.410156" xlink:href="#DejaVuSans-53"/>
       <use x="159.033203" xlink:href="#DejaVuSans-52"/>
       <use x="222.65625" xlink:href="#DejaVuSans-48"/>
      </g>
     </g>
    </g>
    <g id="xtick_10">
     <g id="line2d_13">
      <g>
       <use style="stroke:#000000;stroke-width:0.8;" x="422.389611" xlink:href="#mbdda68b742" y="176.818125"/>
      </g>
     </g>
     <g id="text_16">
      <!-- 3.545 -->
      <g transform="translate(408.075548 191.416562)scale(0.1 -0.1)">
       <use xlink:href="#DejaVuSans-51"/>
       <use x="63.623047" xlink:href="#DejaVuSans-46"/>
       <use x="95.410156" xlink:href="#DejaVuSans-53"/>
       <use x="159.033203" xlink:href="#DejaVuSans-52"/>
       <use x="222.65625" xlink:href="#DejaVuSans-53"/>
      </g>
     </g>
    </g>
    <g id="xtick_11">
     <g id="line2d_14">
      <g>
       <use style="stroke:#000000;stroke-width:0.8;" x="521.929823" xlink:href="#mbdda68b742" y="176.818125"/>
      </g>
     </g>
     <g id="text_17">
      <!-- 3.550 -->
      <g transform="translate(507.615761 191.416562)scale(0.1 -0.1)">
       <use xlink:href="#DejaVuSans-51"/>
       <use x="63.623047" xlink:href="#DejaVuSans-46"/>
       <use x="95.410156" xlink:href="#DejaVuSans-53"/>
       <use x="159.033203" xlink:href="#DejaVuSans-53"/>
       <use x="222.65625" xlink:href="#DejaVuSans-48"/>
      </g>
     </g>
    </g>
    <g id="xtick_12">
     <g id="line2d_15">
      <g>
       <use style="stroke:#000000;stroke-width:0.8;" x="621.470036" xlink:href="#mbdda68b742" y="176.818125"/>
      </g>
     </g>
     <g id="text_18">
      <!-- 3.555 -->
      <g transform="translate(607.155974 191.416562)scale(0.1 -0.1)">
       <use xlink:href="#DejaVuSans-51"/>
       <use x="63.623047" xlink:href="#DejaVuSans-46"/>
       <use x="95.410156" xlink:href="#DejaVuSans-53"/>
       <use x="159.033203" xlink:href="#DejaVuSans-53"/>
       <use x="222.65625" xlink:href="#DejaVuSans-53"/>
      </g>
     </g>
    </g>
    <g id="text_19">
     <!-- Time (ms) -->
     <g transform="translate(347.565 205.094687)scale(0.1 -0.1)">
      <use xlink:href="#DejaVuSans-84"/>
      <use x="61.037109" xlink:href="#DejaVuSans-105"/>
      <use x="88.820312" xlink:href="#DejaVuSans-109"/>
      <use x="186.232422" xlink:href="#DejaVuSans-101"/>
      <use x="247.755859" xlink:href="#DejaVuSans-32"/>
      <use x="279.542969" xlink:href="#DejaVuSans-40"/>
      <use x="318.556641" xlink:href="#DejaVuSans-109"/>
      <use x="415.96875" xlink:href="#DejaVuSans-115"/>
      <use x="468.068359" xlink:href="#DejaVuSans-41"/>
     </g>
    </g>
    <g id="text_20">
     <!-- 1e5 -->
     <g transform="translate(686.355 204.094687)scale(0.1 -0.1)">
      <use xlink:href="#DejaVuSans-49"/>
      <use x="63.623047" xlink:href="#DejaVuSans-101"/>
      <use x="125.146484" xlink:href="#DejaVuSans-53"/>
     </g>
    </g>
   </g>
   <g id="matplotlib.axis_4">
    <g id="ytick_3">
     <g id="line2d_16">
      <g>
       <use style="stroke:#000000;stroke-width:0.8;" x="40.603125" xlink:href="#mae3ba4aac7" y="166.54279"/>
      </g>
     </g>
     <g id="text_21">
      <!-- 25 -->
      <g transform="translate(20.878125 170.342009)scale(0.1 -0.1)">
       <use xlink:href="#DejaVuSans-50"/>
       <use x="63.623047" xlink:href="#DejaVuSans-53"/>
      </g>
     </g>
    </g>
    <g id="ytick_4">
     <g id="line2d_17">
      <g>
       <use style="stroke:#000000;stroke-width:0.8;" x="40.603125" xlink:href="#mae3ba4aac7" y="144.482728"/>
      </g>
     </g>
     <g id="text_22">
      <!-- 50 -->
      <g transform="translate(20.878125 148.281946)scale(0.1 -0.1)">
       <use xlink:href="#DejaVuSans-53"/>
       <use x="63.623047" xlink:href="#DejaVuSans-48"/>
      </g>
     </g>
    </g>
    <g id="text_23">
     <!-- ADC Value -->
     <g transform="translate(14.798438 178.807187)rotate(-90)scale(0.1 -0.1)">
      <use xlink:href="#DejaVuSans-65"/>
      <use x="68.408203" xlink:href="#DejaVuSans-68"/>
      <use x="145.410156" xlink:href="#DejaVuSans-67"/>
      <use x="215.234375" xlink:href="#DejaVuSans-32"/>
      <use x="247.021484" xlink:href="#DejaVuSans-86"/>
      <use x="315.320312" xlink:href="#DejaVuSans-97"/>
      <use x="376.599609" xlink:href="#DejaVuSans-108"/>
      <use x="404.382812" xlink:href="#DejaVuSans-117"/>
      <use x="467.761719" xlink:href="#DejaVuSans-101"/>
     </g>
    </g>
   </g>
   <g id="line2d_18">
    <path clip-path="url(#p85950f4ab8)" d="M 70.81358 152.370877 
L 75.193349 151.23046 
L 78.975877 149.424358 
L 80.767601 148.342091 
L 82.758405 147.361742 
L 84.550129 146.733295 
L 86.939094 146.719794 
L 88.730818 147.542546 
L 90.721622 149.328176 
L 92.911507 152.070948 
L 95.300472 155.618824 
L 97.291276 159.68617 
L 100.078402 163.892671 
L 101.870126 167.821303 
L 104.060011 171.083898 
L 105.851734 173.382733 
L 107.643458 174.554829 
L 109.435182 174.593125 
L 111.625067 173.638101 
L 113.416791 171.945123 
L 116.402997 169.832299 
L 118.194721 167.621704 
L 120.185525 165.582913 
L 122.176329 163.89223 
L 123.968053 162.61204 
L 130.736788 160.369679 
L 135.315637 158.57549 
L 137.306442 157.212178 
L 139.496326 155.52573 
L 141.686211 153.595739 
L 143.677015 151.546183 
L 146.06598 149.510569 
L 147.857704 147.59902 
L 149.848508 145.873923 
L 154.228278 142.966848 
L 156.020002 141.690541 
L 160.399771 139.321555 
L 164.978621 137.598664 
L 167.168505 137.371622 
L 168.960229 137.837795 
L 171.150114 139.157517 
L 173.140918 141.396613 
L 175.131722 144.490669 
L 178.914251 152.299314 
L 181.303216 156.283185 
L 183.094939 159.773087 
L 185.085744 162.417294 
L 189.465513 163.98647 
L 191.854478 164.411259 
L 193.646202 163.789959 
L 196.035167 162.362673 
L 198.225052 160.460478 
L 200.016776 158.438629 
L 201.808499 156.610732 
L 203.600223 155.194741 
L 205.989188 154.283837 
L 207.780912 153.845195 
L 209.970797 153.744248 
L 214.151486 153.779897 
L 216.34137 153.556561 
L 218.133094 153.027913 
L 222.512864 151.078245 
L 224.702748 149.812615 
L 226.693553 148.491041 
L 228.883437 147.193997 
L 231.272402 145.958281 
L 234.85585 143.606325 
L 236.846654 142.411905 
L 238.638378 141.183513 
L 243.018147 138.886178 
L 245.208032 138.107281 
L 247.596997 137.835589 
L 249.388721 138.258525 
L 251.379525 139.501389 
L 253.37033 141.587124 
L 255.361134 144.415135 
L 257.551019 147.763853 
L 260.139064 151.318523 
L 261.930788 154.719567 
L 263.921592 157.620377 
L 265.912396 159.743791 
L 268.102281 160.924887 
L 270.093085 161.132163 
L 272.08389 160.463302 
L 274.074694 159.117991 
L 280.445267 153.593092 
L 284.825037 150.655839 
L 288.806645 148.755497 
L 292.987334 147.173261 
L 298.959747 144.042409 
L 305.13124 140.758548 
L 309.51101 139.446503 
L 316.478824 138.224199 
L 318.469629 137.572722 
L 320.460433 136.668436 
L 326.631926 133.223801 
L 328.42365 132.513555 
L 330.414454 132.459905 
L 332.604339 133.273745 
L 334.794224 135.056021 
L 336.585947 137.763674 
L 338.576752 141.203014 
L 340.567556 145.053465 
L 344.350084 148.91883 
L 346.340888 152.393907 
L 348.132612 155.135091 
L 350.720658 156.917544 
L 352.512381 157.668998 
L 354.702266 157.471781 
L 356.892151 156.534758 
L 363.063644 152.123363 
L 365.253529 150.900882 
L 367.244333 149.964212 
L 371.225941 148.626931 
L 375.40663 147.012399 
L 377.198354 145.801302 
L 380.980882 142.586974 
L 382.772606 140.81158 
L 386.555134 139.133692 
L 388.346858 137.691405 
L 390.337662 136.562018 
L 392.527547 135.742442 
L 401.486166 133.420135 
L 405.865935 131.568855 
L 408.453981 130.66801 
L 410.842946 130.093125 
L 412.63467 130.114567 
L 414.824555 130.960174 
L 417.61168 132.755775 
L 419.801565 135.482751 
L 422.19053 138.964623 
L 424.380415 142.885755 
L 426.76938 146.840772 
L 428.561104 150.403295 
L 430.352828 153.201659 
L 432.542712 154.982876 
L 435.329838 155.653855 
L 437.519723 155.289952 
L 440.306849 154.11071 
L 442.297653 152.428586 
L 446.279262 148.87471 
L 448.270066 147.511662 
L 453.645237 146.054463 
L 459.41857 145.402103 
L 461.608454 144.943077 
L 465.988224 143.203067 
L 469.969832 140.798521 
L 471.761556 139.641514 
L 475.743165 137.841149 
L 477.733969 137.202995 
L 481.715577 136.115169 
L 489.877875 133.578262 
L 491.669599 133.341513 
L 493.859483 133.641442 
L 495.651207 134.657352 
L 497.841092 136.487367 
L 499.831896 139.113396 
L 502.021781 142.387463 
L 505.605228 146.043786 
L 507.596033 149.736376 
L 509.785917 153.093299 
L 512.174883 155.778892 
L 513.966606 157.54952 
L 516.156491 158.292503 
L 518.147295 158.040577 
L 520.1381 156.95937 
L 522.327984 155.311836 
L 524.119708 153.406464 
L 526.110512 151.541065 
L 528.101317 149.952652 
L 530.291201 148.782851 
L 532.282005 148.064046 
L 534.47189 147.727939 
L 540.245222 147.463218 
L 542.036946 147.094815 
L 544.226831 146.437337 
L 546.217635 145.506932 
L 551.791887 142.015971 
L 555.574415 140.111835 
L 557.366139 139.373264 
L 561.347748 137.915712 
L 563.736713 136.973659 
L 565.528437 135.79671 
L 567.32016 134.410985 
L 569.510045 132.94152 
L 573.690734 130.675158 
L 575.482458 130.435144 
L 577.672342 131.113888 
L 579.663147 132.832191 
L 581.853031 135.564815 
L 584.042916 139.129721 
L 586.03372 143.209156 
L 588.223605 147.398185 
L 590.015329 151.27105 
L 592.006133 154.452376 
L 593.996937 156.676736 
L 596.186822 157.826242 
L 598.177626 157.938307 
L 600.566591 157.183588 
L 602.955556 155.820806 
L 604.946361 154.140182 
L 606.738085 152.407143 
L 610.719693 149.485067 
L 614.900382 147.576695 
L 618.881991 146.189735 
L 620.673714 145.495902 
L 623.062679 144.763155 
L 624.854403 144.017348 
L 628.836012 142.711657 
L 632.81762 141.93779 
L 638.790033 141.174071 
L 640.581757 140.621599 
L 644.961526 138.587396 
L 646.95233 137.142197 
L 650.535778 134.032611 
L 652.526582 132.781982 
L 654.517387 132.029999 
L 656.906352 131.962759 
L 659.096236 132.704683 
L 660.88796 134.30395 
L 663.077845 136.733292 
L 665.26773 139.903323 
L 667.457614 143.684947 
L 669.249338 147.933186 
L 671.041062 152.508267 
L 673.230947 157.286476 
L 675.02267 162.161397 
L 675.02267 162.161397 
" style="fill:none;stroke:#1f77b4;stroke-linecap:square;stroke-width:1.5;"/>
   </g>
   <g id="patch_8">
    <path d="M 40.603125 176.818125 
L 40.603125 127.868125 
" style="fill:none;stroke:#000000;stroke-linecap:square;stroke-linejoin:miter;stroke-width:0.8;"/>
   </g>
   <g id="patch_9">
    <path d="M 705.233125 176.818125 
L 705.233125 127.868125 
" style="fill:none;stroke:#000000;stroke-linecap:square;stroke-linejoin:miter;stroke-width:0.8;"/>
   </g>
   <g id="patch_10">
    <path d="M 40.603125 176.818125 
L 705.233125 176.818125 
" style="fill:none;stroke:#000000;stroke-linecap:square;stroke-linejoin:miter;stroke-width:0.8;"/>
   </g>
   <g id="patch_11">
    <path d="M 40.603125 127.868125 
L 705.233125 127.868125 
" style="fill:none;stroke:#000000;stroke-linecap:square;stroke-linejoin:miter;stroke-width:0.8;"/>
   </g>
   <g id="text_24">
    <!-- Pre-processed Signal -->
    <defs>
     <path d="M 19.671875 64.796875 
L 19.671875 37.40625 
L 32.078125 37.40625 
Q 38.96875 37.40625 42.71875 40.96875 
Q 46.484375 44.53125 46.484375 51.125 
Q 46.484375 57.671875 42.71875 61.234375 
Q 38.96875 64.796875 32.078125 64.796875 
z
M 9.8125 72.90625 
L 32.078125 72.90625 
Q 44.34375 72.90625 50.609375 67.359375 
Q 56.890625 61.8125 56.890625 51.125 
Q 56.890625 40.328125 50.609375 34.8125 
Q 44.34375 29.296875 32.078125 29.296875 
L 19.671875 29.296875 
L 19.671875 0 
L 9.8125 0 
z
" id="DejaVuSans-80"/>
     <path d="M 41.109375 46.296875 
Q 39.59375 47.171875 37.8125 47.578125 
Q 36.03125 48 33.890625 48 
Q 26.265625 48 22.1875 43.046875 
Q 18.109375 38.09375 18.109375 28.8125 
L 18.109375 0 
L 9.078125 0 
L 9.078125 54.6875 
L 18.109375 54.6875 
L 18.109375 46.1875 
Q 20.953125 51.171875 25.484375 53.578125 
Q 30.03125 56 36.53125 56 
Q 37.453125 56 38.578125 55.875 
Q 39.703125 55.765625 41.0625 55.515625 
z
" id="DejaVuSans-114"/>
     <path d="M 4.890625 31.390625 
L 31.203125 31.390625 
L 31.203125 23.390625 
L 4.890625 23.390625 
z
" id="DejaVuSans-45"/>
     <path d="M 30.609375 48.390625 
Q 23.390625 48.390625 19.1875 42.75 
Q 14.984375 37.109375 14.984375 27.296875 
Q 14.984375 17.484375 19.15625 11.84375 
Q 23.34375 6.203125 30.609375 6.203125 
Q 37.796875 6.203125 41.984375 11.859375 
Q 46.1875 17.53125 46.1875 27.296875 
Q 46.1875 37.015625 41.984375 42.703125 
Q 37.796875 48.390625 30.609375 48.390625 
z
M 30.609375 56 
Q 42.328125 56 49.015625 48.375 
Q 55.71875 40.765625 55.71875 27.296875 
Q 55.71875 13.875 49.015625 6.21875 
Q 42.328125 -1.421875 30.609375 -1.421875 
Q 18.84375 -1.421875 12.171875 6.21875 
Q 5.515625 13.875 5.515625 27.296875 
Q 5.515625 40.765625 12.171875 48.375 
Q 18.84375 56 30.609375 56 
z
" id="DejaVuSans-111"/>
     <path d="M 48.78125 52.59375 
L 48.78125 44.1875 
Q 44.96875 46.296875 41.140625 47.34375 
Q 37.3125 48.390625 33.40625 48.390625 
Q 24.65625 48.390625 19.8125 42.84375 
Q 14.984375 37.3125 14.984375 27.296875 
Q 14.984375 17.28125 19.8125 11.734375 
Q 24.65625 6.203125 33.40625 6.203125 
Q 37.3125 6.203125 41.140625 7.25 
Q 44.96875 8.296875 48.78125 10.40625 
L 48.78125 2.09375 
Q 45.015625 0.34375 40.984375 -0.53125 
Q 36.96875 -1.421875 32.421875 -1.421875 
Q 20.0625 -1.421875 12.78125 6.34375 
Q 5.515625 14.109375 5.515625 27.296875 
Q 5.515625 40.671875 12.859375 48.328125 
Q 20.21875 56 33.015625 56 
Q 37.15625 56 41.109375 55.140625 
Q 45.0625 54.296875 48.78125 52.59375 
z
" id="DejaVuSans-99"/>
     <path d="M 45.40625 46.390625 
L 45.40625 75.984375 
L 54.390625 75.984375 
L 54.390625 0 
L 45.40625 0 
L 45.40625 8.203125 
Q 42.578125 3.328125 38.25 0.953125 
Q 33.9375 -1.421875 27.875 -1.421875 
Q 17.96875 -1.421875 11.734375 6.484375 
Q 5.515625 14.40625 5.515625 27.296875 
Q 5.515625 40.1875 11.734375 48.09375 
Q 17.96875 56 27.875 56 
Q 33.9375 56 38.25 53.625 
Q 42.578125 51.265625 45.40625 46.390625 
z
M 14.796875 27.296875 
Q 14.796875 17.390625 18.875 11.75 
Q 22.953125 6.109375 30.078125 6.109375 
Q 37.203125 6.109375 41.296875 11.75 
Q 45.40625 17.390625 45.40625 27.296875 
Q 45.40625 37.203125 41.296875 42.84375 
Q 37.203125 48.484375 30.078125 48.484375 
Q 22.953125 48.484375 18.875 42.84375 
Q 14.796875 37.203125 14.796875 27.296875 
z
" id="DejaVuSans-100"/>
    </defs>
    <g transform="translate(309.95375 121.868125)scale(0.12 -0.12)">
     <use xlink:href="#DejaVuSans-80"/>
     <use x="60.287109" xlink:href="#DejaVuSans-114"/>
     <use x="101.369141" xlink:href="#DejaVuSans-101"/>
     <use x="162.892578" xlink:href="#DejaVuSans-45"/>
     <use x="198.976562" xlink:href="#DejaVuSans-112"/>
     <use x="262.453125" xlink:href="#DejaVuSans-114"/>
     <use x="303.535156" xlink:href="#DejaVuSans-111"/>
     <use x="364.716797" xlink:href="#DejaVuSans-99"/>
     <use x="419.697266" xlink:href="#DejaVuSans-101"/>
     <use x="481.220703" xlink:href="#DejaVuSans-115"/>
     <use x="533.320312" xlink:href="#DejaVuSans-115"/>
     <use x="585.419922" xlink:href="#DejaVuSans-101"/>
     <use x="646.943359" xlink:href="#DejaVuSans-100"/>
     <use x="710.419922" xlink:href="#DejaVuSans-32"/>
     <use x="742.207031" xlink:href="#DejaVuSans-83"/>
     <use x="805.683594" xlink:href="#DejaVuSans-105"/>
     <use x="833.466797" xlink:href="#DejaVuSans-103"/>
     <use x="896.943359" xlink:href="#DejaVuSans-110"/>
     <use x="960.322266" xlink:href="#DejaVuSans-97"/>
     <use x="1021.601562" xlink:href="#DejaVuSans-108"/>
    </g>
   </g>
  </g>
  <g id="axes_3">
   <g id="patch_12">
    <path d="M 40.603125 282.368125 
L 705.233125 282.368125 
L 705.233125 233.418125 
L 40.603125 233.418125 
z
" style="fill:#ffffff;"/>
   </g>
   <g id="matplotlib.axis_5">
    <g id="xtick_13">
     <g id="line2d_19">
      <g>
       <use style="stroke:#000000;stroke-width:0.8;" x="123.768973" xlink:href="#mbdda68b742" y="282.368125"/>
      </g>
     </g>
     <g id="text_25">
      <!-- 3.530 -->
      <g transform="translate(109.45491 296.966563)scale(0.1 -0.1)">
       <use xlink:href="#DejaVuSans-51"/>
       <use x="63.623047" xlink:href="#DejaVuSans-46"/>
       <use x="95.410156" xlink:href="#DejaVuSans-53"/>
       <use x="159.033203" xlink:href="#DejaVuSans-51"/>
       <use x="222.65625" xlink:href="#DejaVuSans-48"/>
      </g>
     </g>
    </g>
    <g id="xtick_14">
     <g id="line2d_20">
      <g>
       <use style="stroke:#000000;stroke-width:0.8;" x="223.309185" xlink:href="#mbdda68b742" y="282.368125"/>
      </g>
     </g>
     <g id="text_26">
      <!-- 3.535 -->
      <g transform="translate(208.995123 296.966563)scale(0.1 -0.1)">
       <use xlink:href="#DejaVuSans-51"/>
       <use x="63.623047" xlink:href="#DejaVuSans-46"/>
       <use x="95.410156" xlink:href="#DejaVuSans-53"/>
       <use x="159.033203" xlink:href="#DejaVuSans-51"/>
       <use x="222.65625" xlink:href="#DejaVuSans-53"/>
      </g>
     </g>
    </g>
    <g id="xtick_15">
     <g id="line2d_21">
      <g>
       <use style="stroke:#000000;stroke-width:0.8;" x="322.849398" xlink:href="#mbdda68b742" y="282.368125"/>
      </g>
     </g>
     <g id="text_27">
      <!-- 3.540 -->
      <g transform="translate(308.535336 296.966563)scale(0.1 -0.1)">
       <use xlink:href="#DejaVuSans-51"/>
       <use x="63.623047" xlink:href="#DejaVuSans-46"/>
       <use x="95.410156" xlink:href="#DejaVuSans-53"/>
       <use x="159.033203" xlink:href="#DejaVuSans-52"/>
       <use x="222.65625" xlink:href="#DejaVuSans-48"/>
      </g>
     </g>
    </g>
    <g id="xtick_16">
     <g id="line2d_22">
      <g>
       <use style="stroke:#000000;stroke-width:0.8;" x="422.389611" xlink:href="#mbdda68b742" y="282.368125"/>
      </g>
     </g>
     <g id="text_28">
      <!-- 3.545 -->
      <g transform="translate(408.075548 296.966563)scale(0.1 -0.1)">
       <use xlink:href="#DejaVuSans-51"/>
       <use x="63.623047" xlink:href="#DejaVuSans-46"/>
       <use x="95.410156" xlink:href="#DejaVuSans-53"/>
       <use x="159.033203" xlink:href="#DejaVuSans-52"/>
       <use x="222.65625" xlink:href="#DejaVuSans-53"/>
      </g>
     </g>
    </g>
    <g id="xtick_17">
     <g id="line2d_23">
      <g>
       <use style="stroke:#000000;stroke-width:0.8;" x="521.929823" xlink:href="#mbdda68b742" y="282.368125"/>
      </g>
     </g>
     <g id="text_29">
      <!-- 3.550 -->
      <g transform="translate(507.615761 296.966563)scale(0.1 -0.1)">
       <use xlink:href="#DejaVuSans-51"/>
       <use x="63.623047" xlink:href="#DejaVuSans-46"/>
       <use x="95.410156" xlink:href="#DejaVuSans-53"/>
       <use x="159.033203" xlink:href="#DejaVuSans-53"/>
       <use x="222.65625" xlink:href="#DejaVuSans-48"/>
      </g>
     </g>
    </g>
    <g id="xtick_18">
     <g id="line2d_24">
      <g>
       <use style="stroke:#000000;stroke-width:0.8;" x="621.470036" xlink:href="#mbdda68b742" y="282.368125"/>
      </g>
     </g>
     <g id="text_30">
      <!-- 3.555 -->
      <g transform="translate(607.155974 296.966563)scale(0.1 -0.1)">
       <use xlink:href="#DejaVuSans-51"/>
       <use x="63.623047" xlink:href="#DejaVuSans-46"/>
       <use x="95.410156" xlink:href="#DejaVuSans-53"/>
       <use x="159.033203" xlink:href="#DejaVuSans-53"/>
       <use x="222.65625" xlink:href="#DejaVuSans-53"/>
      </g>
     </g>
    </g>
    <g id="text_31">
     <!-- 1e5 -->
     <g transform="translate(686.355 309.644687)scale(0.1 -0.1)">
      <use xlink:href="#DejaVuSans-49"/>
      <use x="63.623047" xlink:href="#DejaVuSans-101"/>
      <use x="125.146484" xlink:href="#DejaVuSans-53"/>
     </g>
    </g>
   </g>
   <g id="matplotlib.axis_6">
    <g id="ytick_5">
     <g id="line2d_25">
      <g>
       <use style="stroke:#000000;stroke-width:0.8;" x="40.603125" xlink:href="#mae3ba4aac7" y="272.09279"/>
      </g>
     </g>
     <g id="text_32">
      <!-- 25 -->
      <g transform="translate(20.878125 275.892009)scale(0.1 -0.1)">
       <use xlink:href="#DejaVuSans-50"/>
       <use x="63.623047" xlink:href="#DejaVuSans-53"/>
      </g>
     </g>
    </g>
    <g id="ytick_6">
     <g id="line2d_26">
      <g>
       <use style="stroke:#000000;stroke-width:0.8;" x="40.603125" xlink:href="#mae3ba4aac7" y="250.032728"/>
      </g>
     </g>
     <g id="text_33">
      <!-- 50 -->
      <g transform="translate(20.878125 253.831946)scale(0.1 -0.1)">
       <use xlink:href="#DejaVuSans-53"/>
       <use x="63.623047" xlink:href="#DejaVuSans-48"/>
      </g>
     </g>
    </g>
   </g>
   <g id="LineCollection_1">
    <path clip-path="url(#p5459f90643)" d="M 247.596997 266.682163 
L 247.596997 243.385589 
" style="fill:none;stroke:#000000;stroke-width:1.5;"/>
    <path clip-path="url(#p5459f90643)" d="M 330.414454 263.218998 
L 330.414454 238.009905 
" style="fill:none;stroke:#000000;stroke-width:1.5;"/>
    <path clip-path="url(#p5459f90643)" d="M 410.842946 267.711397 
L 410.842946 235.643125 
" style="fill:none;stroke:#000000;stroke-width:1.5;"/>
    <path clip-path="url(#p5459f90643)" d="M 491.669599 261.203855 
L 491.669599 238.891513 
" style="fill:none;stroke:#000000;stroke-width:1.5;"/>
    <path clip-path="url(#p5459f90643)" d="M 575.482458 263.842503 
L 575.482458 235.985144 
" style="fill:none;stroke:#000000;stroke-width:1.5;"/>
    <path clip-path="url(#p5459f90643)" d="M 656.906352 263.488307 
L 656.906352 237.512759 
" style="fill:none;stroke:#000000;stroke-width:1.5;"/>
   </g>
   <g id="line2d_27">
    <path clip-path="url(#p5459f90643)" d="M 70.81358 257.920877 
L 75.193349 256.78046 
L 78.975877 254.974358 
L 80.767601 253.892091 
L 82.758405 252.911742 
L 84.550129 252.283295 
L 86.939094 252.269794 
L 88.730818 253.092546 
L 90.721622 254.878176 
L 92.911507 257.620948 
L 95.300472 261.168824 
L 97.291276 265.23617 
L 100.078402 269.442671 
L 101.870126 273.371303 
L 104.060011 276.633898 
L 105.851734 278.932733 
L 107.643458 280.104829 
L 109.435182 280.143125 
L 111.625067 279.188101 
L 113.416791 277.495123 
L 116.402997 275.382299 
L 118.194721 273.171704 
L 120.185525 271.132913 
L 122.176329 269.44223 
L 123.968053 268.16204 
L 130.736788 265.919679 
L 135.315637 264.12549 
L 137.306442 262.762178 
L 139.496326 261.07573 
L 141.686211 259.145739 
L 143.677015 257.096183 
L 146.06598 255.060569 
L 147.857704 253.14902 
L 149.848508 251.423923 
L 154.228278 248.516848 
L 156.020002 247.240541 
L 160.399771 244.871555 
L 164.978621 243.148664 
L 167.168505 242.921622 
L 168.960229 243.387795 
L 171.150114 244.707517 
L 173.140918 246.946613 
L 175.131722 250.040669 
L 178.914251 257.849314 
L 181.303216 261.833185 
L 183.094939 265.323087 
L 185.085744 267.967294 
L 189.465513 269.53647 
L 191.854478 269.961259 
L 193.646202 269.339959 
L 196.035167 267.912673 
L 198.225052 266.010478 
L 200.016776 263.988629 
L 201.808499 262.160732 
L 203.600223 260.744741 
L 205.989188 259.833837 
L 207.780912 259.395195 
L 209.970797 259.294248 
L 214.151486 259.329897 
L 216.34137 259.106561 
L 218.133094 258.577913 
L 222.512864 256.628245 
L 224.702748 255.362615 
L 226.693553 254.041041 
L 228.883437 252.743997 
L 231.272402 251.508281 
L 234.85585 249.156325 
L 236.846654 247.961905 
L 238.638378 246.733513 
L 243.018147 244.436178 
L 245.208032 243.657281 
L 247.596997 243.385589 
L 249.388721 243.808525 
L 251.379525 245.051389 
L 253.37033 247.137124 
L 255.361134 249.965135 
L 257.551019 253.313853 
L 260.139064 256.868523 
L 261.930788 260.269567 
L 263.921592 263.170377 
L 265.912396 265.293791 
L 268.102281 266.474887 
L 270.093085 266.682163 
L 272.08389 266.013302 
L 274.074694 264.667991 
L 280.445267 259.143092 
L 284.825037 256.205839 
L 288.806645 254.305497 
L 292.987334 252.723261 
L 298.959747 249.592409 
L 305.13124 246.308548 
L 309.51101 244.996503 
L 316.478824 243.774199 
L 318.469629 243.122722 
L 320.460433 242.218436 
L 326.631926 238.773801 
L 328.42365 238.063555 
L 330.414454 238.009905 
L 332.604339 238.823745 
L 334.794224 240.606021 
L 336.585947 243.313674 
L 338.576752 246.753014 
L 340.567556 250.603465 
L 344.350084 254.46883 
L 346.340888 257.943907 
L 348.132612 260.685091 
L 350.720658 262.467544 
L 352.512381 263.218998 
L 354.702266 263.021781 
L 356.892151 262.084758 
L 363.063644 257.673363 
L 365.253529 256.450882 
L 367.244333 255.514212 
L 371.225941 254.176931 
L 375.40663 252.562399 
L 377.198354 251.351302 
L 380.980882 248.136974 
L 382.772606 246.36158 
L 386.555134 244.683692 
L 388.346858 243.241405 
L 390.337662 242.112018 
L 392.527547 241.292442 
L 401.486166 238.970135 
L 405.865935 237.118855 
L 408.453981 236.21801 
L 410.842946 235.643125 
L 412.63467 235.664567 
L 414.824555 236.510174 
L 417.61168 238.305775 
L 419.801565 241.032751 
L 422.19053 244.514623 
L 424.380415 248.435755 
L 426.76938 252.390772 
L 428.561104 255.953295 
L 430.352828 258.751659 
L 432.542712 260.532876 
L 435.329838 261.203855 
L 437.519723 260.839952 
L 440.306849 259.66071 
L 442.297653 257.978586 
L 446.279262 254.42471 
L 448.270066 253.061662 
L 453.645237 251.604463 
L 459.41857 250.952103 
L 461.608454 250.493077 
L 465.988224 248.753067 
L 469.969832 246.348521 
L 471.761556 245.191514 
L 475.743165 243.391149 
L 477.733969 242.752995 
L 481.715577 241.665169 
L 489.877875 239.128262 
L 491.669599 238.891513 
L 493.859483 239.191442 
L 495.651207 240.207352 
L 497.841092 242.037367 
L 499.831896 244.663396 
L 502.021781 247.937463 
L 505.605228 251.593786 
L 507.596033 255.286376 
L 509.785917 258.643299 
L 512.174883 261.328892 
L 513.966606 263.09952 
L 516.156491 263.842503 
L 518.147295 263.590577 
L 520.1381 262.50937 
L 522.327984 260.861836 
L 524.119708 258.956464 
L 526.110512 257.091065 
L 528.101317 255.502652 
L 530.291201 254.332851 
L 532.282005 253.614046 
L 534.47189 253.277939 
L 540.245222 253.013218 
L 542.036946 252.644815 
L 544.226831 251.987337 
L 546.217635 251.056932 
L 551.791887 247.565971 
L 555.574415 245.661835 
L 557.366139 244.923264 
L 561.347748 243.465712 
L 563.736713 242.523659 
L 565.528437 241.34671 
L 567.32016 239.960985 
L 569.510045 238.49152 
L 573.690734 236.225158 
L 575.482458 235.985144 
L 577.672342 236.663888 
L 579.663147 238.382191 
L 581.853031 241.114815 
L 584.042916 244.679721 
L 586.03372 248.759156 
L 588.223605 252.948185 
L 590.015329 256.82105 
L 592.006133 260.002376 
L 593.996937 262.226736 
L 596.186822 263.376242 
L 598.177626 263.488307 
L 600.566591 262.733588 
L 602.955556 261.370806 
L 604.946361 259.690182 
L 606.738085 257.957143 
L 610.719693 255.035067 
L 614.900382 253.126695 
L 618.881991 251.739735 
L 620.673714 251.045902 
L 623.062679 250.313155 
L 624.854403 249.567348 
L 628.836012 248.261657 
L 632.81762 247.48779 
L 638.790033 246.724071 
L 640.581757 246.171599 
L 644.961526 244.137396 
L 646.95233 242.692197 
L 650.535778 239.582611 
L 652.526582 238.331982 
L 654.517387 237.579999 
L 656.906352 237.512759 
L 659.096236 238.254683 
L 660.88796 239.85395 
L 663.077845 242.283292 
L 665.26773 245.453323 
L 667.457614 249.234947 
L 669.249338 253.483186 
L 671.041062 258.058267 
L 673.230947 262.836476 
L 675.02267 267.711397 
L 675.02267 267.711397 
" style="fill:none;stroke:#1f77b4;stroke-linecap:square;stroke-width:1.5;"/>
   </g>
   <g id="line2d_28">
    <defs>
     <path d="M -3 3 
L 3 -3 
M -3 -3 
L 3 3 
" id="m6f010ec67b" style="stroke:#008000;"/>
    </defs>
    <g clip-path="url(#p5459f90643)">
     <use style="fill:#008000;stroke:#008000;" x="247.596997" xlink:href="#m6f010ec67b" y="243.385589"/>
     <use style="fill:#008000;stroke:#008000;" x="330.414454" xlink:href="#m6f010ec67b" y="238.009905"/>
     <use style="fill:#008000;stroke:#008000;" x="410.842946" xlink:href="#m6f010ec67b" y="235.643125"/>
     <use style="fill:#008000;stroke:#008000;" x="491.669599" xlink:href="#m6f010ec67b" y="238.891513"/>
     <use style="fill:#008000;stroke:#008000;" x="575.482458" xlink:href="#m6f010ec67b" y="235.985144"/>
     <use style="fill:#008000;stroke:#008000;" x="656.906352" xlink:href="#m6f010ec67b" y="237.512759"/>
    </g>
   </g>
   <g id="line2d_29">
    <defs>
     <path d="M -3 3 
L 3 -3 
M -3 -3 
L 3 3 
" id="m88487247b3" style="stroke:#ff0000;"/>
    </defs>
    <g clip-path="url(#p5459f90643)">
     <use style="fill:#ff0000;stroke:#ff0000;" x="247.596997" xlink:href="#m88487247b3" y="266.682163"/>
     <use style="fill:#ff0000;stroke:#ff0000;" x="330.414454" xlink:href="#m88487247b3" y="263.218998"/>
     <use style="fill:#ff0000;stroke:#ff0000;" x="410.842946" xlink:href="#m88487247b3" y="267.711397"/>
     <use style="fill:#ff0000;stroke:#ff0000;" x="491.669599" xlink:href="#m88487247b3" y="261.203855"/>
     <use style="fill:#ff0000;stroke:#ff0000;" x="575.482458" xlink:href="#m88487247b3" y="263.842503"/>
     <use style="fill:#ff0000;stroke:#ff0000;" x="656.906352" xlink:href="#m88487247b3" y="263.488307"/>
    </g>
   </g>
   <g id="patch_13">
    <path d="M 40.603125 282.368125 
L 40.603125 233.418125 
" style="fill:none;stroke:#000000;stroke-linecap:square;stroke-linejoin:miter;stroke-width:0.8;"/>
   </g>
   <g id="patch_14">
    <path d="M 705.233125 282.368125 
L 705.233125 233.418125 
" style="fill:none;stroke:#000000;stroke-linecap:square;stroke-linejoin:miter;stroke-width:0.8;"/>
   </g>
   <g id="patch_15">
    <path d="M 40.603125 282.368125 
L 705.233125 282.368125 
" style="fill:none;stroke:#000000;stroke-linecap:square;stroke-linejoin:miter;stroke-width:0.8;"/>
   </g>
   <g id="patch_16">
    <path d="M 40.603125 233.418125 
L 705.233125 233.418125 
" style="fill:none;stroke:#000000;stroke-linecap:square;stroke-linejoin:miter;stroke-width:0.8;"/>
   </g>
   <g id="text_34">
    <!-- AC Components -->
    <g transform="translate(324.757813 227.418125)scale(0.12 -0.12)">
     <use xlink:href="#DejaVuSans-65"/>
     <use x="68.392578" xlink:href="#DejaVuSans-67"/>
     <use x="138.216797" xlink:href="#DejaVuSans-32"/>
     <use x="170.003906" xlink:href="#DejaVuSans-67"/>
     <use x="239.828125" xlink:href="#DejaVuSans-111"/>
     <use x="301.009766" xlink:href="#DejaVuSans-109"/>
     <use x="398.421875" xlink:href="#DejaVuSans-112"/>
     <use x="461.898438" xlink:href="#DejaVuSans-111"/>
     <use x="523.080078" xlink:href="#DejaVuSans-110"/>
     <use x="586.458984" xlink:href="#DejaVuSans-101"/>
     <use x="647.982422" xlink:href="#DejaVuSans-110"/>
     <use x="711.361328" xlink:href="#DejaVuSans-116"/>
     <use x="750.570312" xlink:href="#DejaVuSans-115"/>
    </g>
   </g>
  </g>
  <g id="axes_4">
   <g id="patch_17">
    <path d="M 40.603125 387.918125 
L 705.233125 387.918125 
L 705.233125 338.968125 
L 40.603125 338.968125 
z
" style="fill:#ffffff;"/>
   </g>
   <g id="matplotlib.axis_7">
    <g id="xtick_19">
     <g id="line2d_30">
      <g>
       <use style="stroke:#000000;stroke-width:0.8;" x="123.768973" xlink:href="#mbdda68b742" y="387.918125"/>
      </g>
     </g>
     <g id="text_35">
      <!-- 3.530 -->
      <g transform="translate(109.45491 402.516563)scale(0.1 -0.1)">
       <use xlink:href="#DejaVuSans-51"/>
       <use x="63.623047" xlink:href="#DejaVuSans-46"/>
       <use x="95.410156" xlink:href="#DejaVuSans-53"/>
       <use x="159.033203" xlink:href="#DejaVuSans-51"/>
       <use x="222.65625" xlink:href="#DejaVuSans-48"/>
      </g>
     </g>
    </g>
    <g id="xtick_20">
     <g id="line2d_31">
      <g>
       <use style="stroke:#000000;stroke-width:0.8;" x="223.309185" xlink:href="#mbdda68b742" y="387.918125"/>
      </g>
     </g>
     <g id="text_36">
      <!-- 3.535 -->
      <g transform="translate(208.995123 402.516563)scale(0.1 -0.1)">
       <use xlink:href="#DejaVuSans-51"/>
       <use x="63.623047" xlink:href="#DejaVuSans-46"/>
       <use x="95.410156" xlink:href="#DejaVuSans-53"/>
       <use x="159.033203" xlink:href="#DejaVuSans-51"/>
       <use x="222.65625" xlink:href="#DejaVuSans-53"/>
      </g>
     </g>
    </g>
    <g id="xtick_21">
     <g id="line2d_32">
      <g>
       <use style="stroke:#000000;stroke-width:0.8;" x="322.849398" xlink:href="#mbdda68b742" y="387.918125"/>
      </g>
     </g>
     <g id="text_37">
      <!-- 3.540 -->
      <g transform="translate(308.535336 402.516563)scale(0.1 -0.1)">
       <use xlink:href="#DejaVuSans-51"/>
       <use x="63.623047" xlink:href="#DejaVuSans-46"/>
       <use x="95.410156" xlink:href="#DejaVuSans-53"/>
       <use x="159.033203" xlink:href="#DejaVuSans-52"/>
       <use x="222.65625" xlink:href="#DejaVuSans-48"/>
      </g>
     </g>
    </g>
    <g id="xtick_22">
     <g id="line2d_33">
      <g>
       <use style="stroke:#000000;stroke-width:0.8;" x="422.389611" xlink:href="#mbdda68b742" y="387.918125"/>
      </g>
     </g>
     <g id="text_38">
      <!-- 3.545 -->
      <g transform="translate(408.075548 402.516563)scale(0.1 -0.1)">
       <use xlink:href="#DejaVuSans-51"/>
       <use x="63.623047" xlink:href="#DejaVuSans-46"/>
       <use x="95.410156" xlink:href="#DejaVuSans-53"/>
       <use x="159.033203" xlink:href="#DejaVuSans-52"/>
       <use x="222.65625" xlink:href="#DejaVuSans-53"/>
      </g>
     </g>
    </g>
    <g id="xtick_23">
     <g id="line2d_34">
      <g>
       <use style="stroke:#000000;stroke-width:0.8;" x="521.929823" xlink:href="#mbdda68b742" y="387.918125"/>
      </g>
     </g>
     <g id="text_39">
      <!-- 3.550 -->
      <g transform="translate(507.615761 402.516563)scale(0.1 -0.1)">
       <use xlink:href="#DejaVuSans-51"/>
       <use x="63.623047" xlink:href="#DejaVuSans-46"/>
       <use x="95.410156" xlink:href="#DejaVuSans-53"/>
       <use x="159.033203" xlink:href="#DejaVuSans-53"/>
       <use x="222.65625" xlink:href="#DejaVuSans-48"/>
      </g>
     </g>
    </g>
    <g id="xtick_24">
     <g id="line2d_35">
      <g>
       <use style="stroke:#000000;stroke-width:0.8;" x="621.470036" xlink:href="#mbdda68b742" y="387.918125"/>
      </g>
     </g>
     <g id="text_40">
      <!-- 3.555 -->
      <g transform="translate(607.155974 402.516563)scale(0.1 -0.1)">
       <use xlink:href="#DejaVuSans-51"/>
       <use x="63.623047" xlink:href="#DejaVuSans-46"/>
       <use x="95.410156" xlink:href="#DejaVuSans-53"/>
       <use x="159.033203" xlink:href="#DejaVuSans-53"/>
       <use x="222.65625" xlink:href="#DejaVuSans-53"/>
      </g>
     </g>
    </g>
    <g id="text_41">
     <!-- 1e5 -->
     <g transform="translate(686.355 415.194687)scale(0.1 -0.1)">
      <use xlink:href="#DejaVuSans-49"/>
      <use x="63.623047" xlink:href="#DejaVuSans-101"/>
      <use x="125.146484" xlink:href="#DejaVuSans-53"/>
     </g>
    </g>
   </g>
   <g id="matplotlib.axis_8">
    <g id="ytick_7">
     <g id="line2d_36">
      <g>
       <use style="stroke:#000000;stroke-width:0.8;" x="40.603125" xlink:href="#mae3ba4aac7" y="377.64279"/>
      </g>
     </g>
     <g id="text_42">
      <!-- 25 -->
      <g transform="translate(20.878125 381.442009)scale(0.1 -0.1)">
       <use xlink:href="#DejaVuSans-50"/>
       <use x="63.623047" xlink:href="#DejaVuSans-53"/>
      </g>
     </g>
    </g>
    <g id="ytick_8">
     <g id="line2d_37">
      <g>
       <use style="stroke:#000000;stroke-width:0.8;" x="40.603125" xlink:href="#mae3ba4aac7" y="355.582728"/>
      </g>
     </g>
     <g id="text_43">
      <!-- 50 -->
      <g transform="translate(20.878125 359.381946)scale(0.1 -0.1)">
       <use xlink:href="#DejaVuSans-53"/>
       <use x="63.623047" xlink:href="#DejaVuSans-48"/>
      </g>
     </g>
    </g>
   </g>
   <g id="line2d_38">
    <path clip-path="url(#pa8ccea387a)" d="M 70.81358 363.470877 
L 75.193349 362.33046 
L 78.975877 360.524358 
L 80.767601 359.442091 
L 82.758405 358.461742 
L 84.550129 357.833295 
L 86.939094 357.819794 
L 88.730818 358.642546 
L 90.721622 360.428176 
L 92.911507 363.170948 
L 95.300472 366.718824 
L 97.291276 370.78617 
L 100.078402 374.992671 
L 101.870126 378.921303 
L 104.060011 382.183898 
L 105.851734 384.482733 
L 107.643458 385.654829 
L 109.435182 385.693125 
L 111.625067 384.738101 
L 113.416791 383.045123 
L 116.402997 380.932299 
L 118.194721 378.721704 
L 120.185525 376.682913 
L 122.176329 374.99223 
L 123.968053 373.71204 
L 130.736788 371.469679 
L 135.315637 369.67549 
L 137.306442 368.312178 
L 139.496326 366.62573 
L 141.686211 364.695739 
L 143.677015 362.646183 
L 146.06598 360.610569 
L 147.857704 358.69902 
L 149.848508 356.973923 
L 154.228278 354.066848 
L 156.020002 352.790541 
L 160.399771 350.421555 
L 164.978621 348.698664 
L 167.168505 348.471622 
L 168.960229 348.937795 
L 171.150114 350.257517 
L 173.140918 352.496613 
L 175.131722 355.590669 
L 178.914251 363.399314 
L 181.303216 367.383185 
L 183.094939 370.873087 
L 185.085744 373.517294 
L 189.465513 375.08647 
L 191.854478 375.511259 
L 193.646202 374.889959 
L 196.035167 373.462673 
L 198.225052 371.560478 
L 200.016776 369.538629 
L 201.808499 367.710732 
L 203.600223 366.294741 
L 205.989188 365.383837 
L 207.780912 364.945195 
L 209.970797 364.844248 
L 214.151486 364.879897 
L 216.34137 364.656561 
L 218.133094 364.127913 
L 222.512864 362.178245 
L 224.702748 360.912615 
L 226.693553 359.591041 
L 228.883437 358.293997 
L 231.272402 357.058281 
L 234.85585 354.706325 
L 236.846654 353.511905 
L 238.638378 352.283513 
L 243.018147 349.986178 
L 245.208032 349.207281 
L 247.596997 348.935589 
L 249.388721 349.358525 
L 251.379525 350.601389 
L 253.37033 352.687124 
L 255.361134 355.515135 
L 257.551019 358.863853 
L 260.139064 362.418523 
L 261.930788 365.819567 
L 263.921592 368.720377 
L 265.912396 370.843791 
L 268.102281 372.024887 
L 270.093085 372.232163 
L 272.08389 371.563302 
L 274.074694 370.217991 
L 280.445267 364.693092 
L 284.825037 361.755839 
L 288.806645 359.855497 
L 292.987334 358.273261 
L 298.959747 355.142409 
L 305.13124 351.858548 
L 309.51101 350.546503 
L 316.478824 349.324199 
L 318.469629 348.672722 
L 320.460433 347.768436 
L 326.631926 344.323801 
L 328.42365 343.613555 
L 330.414454 343.559905 
L 332.604339 344.373745 
L 334.794224 346.156021 
L 336.585947 348.863674 
L 338.576752 352.303014 
L 340.567556 356.153465 
L 344.350084 360.01883 
L 346.340888 363.493907 
L 348.132612 366.235091 
L 350.720658 368.017544 
L 352.512381 368.768998 
L 354.702266 368.571781 
L 356.892151 367.634758 
L 363.063644 363.223363 
L 365.253529 362.000882 
L 367.244333 361.064212 
L 371.225941 359.726931 
L 375.40663 358.112399 
L 377.198354 356.901302 
L 380.980882 353.686974 
L 382.772606 351.91158 
L 386.555134 350.233692 
L 388.346858 348.791405 
L 390.337662 347.662018 
L 392.527547 346.842442 
L 401.486166 344.520135 
L 405.865935 342.668855 
L 408.453981 341.76801 
L 410.842946 341.193125 
L 412.63467 341.214567 
L 414.824555 342.060174 
L 417.61168 343.855775 
L 419.801565 346.582751 
L 422.19053 350.064623 
L 424.380415 353.985755 
L 426.76938 357.940772 
L 428.561104 361.503295 
L 430.352828 364.301659 
L 432.542712 366.082876 
L 435.329838 366.753855 
L 437.519723 366.389952 
L 440.306849 365.21071 
L 442.297653 363.528586 
L 446.279262 359.97471 
L 448.270066 358.611662 
L 453.645237 357.154463 
L 459.41857 356.502103 
L 461.608454 356.043077 
L 465.988224 354.303067 
L 469.969832 351.898521 
L 471.761556 350.741514 
L 475.743165 348.941149 
L 477.733969 348.302995 
L 481.715577 347.215169 
L 489.877875 344.678262 
L 491.669599 344.441513 
L 493.859483 344.741442 
L 495.651207 345.757352 
L 497.841092 347.587367 
L 499.831896 350.213396 
L 502.021781 353.487463 
L 505.605228 357.143786 
L 507.596033 360.836376 
L 509.785917 364.193299 
L 512.174883 366.878892 
L 513.966606 368.64952 
L 516.156491 369.392503 
L 518.147295 369.140577 
L 520.1381 368.05937 
L 522.327984 366.411836 
L 524.119708 364.506464 
L 526.110512 362.641065 
L 528.101317 361.052652 
L 530.291201 359.882851 
L 532.282005 359.164046 
L 534.47189 358.827939 
L 540.245222 358.563218 
L 542.036946 358.194815 
L 544.226831 357.537337 
L 546.217635 356.606932 
L 551.791887 353.115971 
L 555.574415 351.211835 
L 557.366139 350.473264 
L 561.347748 349.015712 
L 563.736713 348.073659 
L 565.528437 346.89671 
L 567.32016 345.510985 
L 569.510045 344.04152 
L 573.690734 341.775158 
L 575.482458 341.535144 
L 577.672342 342.213888 
L 579.663147 343.932191 
L 581.853031 346.664815 
L 584.042916 350.229721 
L 586.03372 354.309156 
L 588.223605 358.498185 
L 590.015329 362.37105 
L 592.006133 365.552376 
L 593.996937 367.776736 
L 596.186822 368.926242 
L 598.177626 369.038307 
L 600.566591 368.283588 
L 602.955556 366.920806 
L 604.946361 365.240182 
L 606.738085 363.507143 
L 610.719693 360.585067 
L 614.900382 358.676695 
L 618.881991 357.289735 
L 620.673714 356.595902 
L 623.062679 355.863155 
L 624.854403 355.117348 
L 628.836012 353.811657 
L 632.81762 353.03779 
L 638.790033 352.274071 
L 640.581757 351.721599 
L 644.961526 349.687396 
L 646.95233 348.242197 
L 650.535778 345.132611 
L 652.526582 343.881982 
L 654.517387 343.129999 
L 656.906352 343.062759 
L 659.096236 343.804683 
L 660.88796 345.40395 
L 663.077845 347.833292 
L 665.26773 351.003323 
L 667.457614 354.784947 
L 669.249338 359.033186 
L 671.041062 363.608267 
L 673.230947 368.386476 
L 675.02267 373.261397 
L 675.02267 373.261397 
" style="fill:none;stroke:#1f77b4;stroke-linecap:square;stroke-width:1.5;"/>
   </g>
   <g id="line2d_39">
    <g clip-path="url(#pa8ccea387a)">
     <use style="fill:#ff0000;stroke:#ff0000;" x="191.854478" xlink:href="#m88487247b3" y="375.511259"/>
     <use style="fill:#ff0000;stroke:#ff0000;" x="270.093085" xlink:href="#m88487247b3" y="372.232163"/>
     <use style="fill:#ff0000;stroke:#ff0000;" x="352.512381" xlink:href="#m88487247b3" y="368.768998"/>
     <use style="fill:#ff0000;stroke:#ff0000;" x="435.329838" xlink:href="#m88487247b3" y="366.753855"/>
     <use style="fill:#ff0000;stroke:#ff0000;" x="516.156491" xlink:href="#m88487247b3" y="369.392503"/>
     <use style="fill:#ff0000;stroke:#ff0000;" x="598.177626" xlink:href="#m88487247b3" y="369.038307"/>
    </g>
   </g>
   <g id="patch_18">
    <path d="M 40.603125 387.918125 
L 40.603125 338.968125 
" style="fill:none;stroke:#000000;stroke-linecap:square;stroke-linejoin:miter;stroke-width:0.8;"/>
   </g>
   <g id="patch_19">
    <path d="M 705.233125 387.918125 
L 705.233125 338.968125 
" style="fill:none;stroke:#000000;stroke-linecap:square;stroke-linejoin:miter;stroke-width:0.8;"/>
   </g>
   <g id="patch_20">
    <path d="M 40.603125 387.918125 
L 705.233125 387.918125 
" style="fill:none;stroke:#000000;stroke-linecap:square;stroke-linejoin:miter;stroke-width:0.8;"/>
   </g>
   <g id="patch_21">
    <path d="M 40.603125 338.968125 
L 705.233125 338.968125 
" style="fill:none;stroke:#000000;stroke-linecap:square;stroke-linejoin:miter;stroke-width:0.8;"/>
   </g>
   <g id="text_44">
    <!-- DC Components -->
    <g transform="translate(324.24125 332.968125)scale(0.12 -0.12)">
     <use xlink:href="#DejaVuSans-68"/>
     <use x="77.001953" xlink:href="#DejaVuSans-67"/>
     <use x="146.826172" xlink:href="#DejaVuSans-32"/>
     <use x="178.613281" xlink:href="#DejaVuSans-67"/>
     <use x="248.4375" xlink:href="#DejaVuSans-111"/>
     <use x="309.619141" xlink:href="#DejaVuSans-109"/>
     <use x="407.03125" xlink:href="#DejaVuSans-112"/>
     <use x="470.507812" xlink:href="#DejaVuSans-111"/>
     <use x="531.689453" xlink:href="#DejaVuSans-110"/>
     <use x="595.068359" xlink:href="#DejaVuSans-101"/>
     <use x="656.591797" xlink:href="#DejaVuSans-110"/>
     <use x="719.970703" xlink:href="#DejaVuSans-116"/>
     <use x="759.179688" xlink:href="#DejaVuSans-115"/>
    </g>
   </g>
  </g>
 </g>
 <defs>
  <clipPath id="p84de08f391">
   <rect height="48.95" width="664.63" x="40.603125" y="22.318125"/>
  </clipPath>
  <clipPath id="p85950f4ab8">
   <rect height="48.95" width="664.63" x="40.603125" y="127.868125"/>
  </clipPath>
  <clipPath id="p5459f90643">
   <rect height="48.95" width="664.63" x="40.603125" y="233.418125"/>
  </clipPath>
  <clipPath id="pa8ccea387a">
   <rect height="48.95" width="664.63" x="40.603125" y="338.968125"/>
  </clipPath>
 </defs>
</svg>
