<?xml version="1.0" encoding="utf-8" standalone="no"?>
<!DOCTYPE svg PUBLIC "-//W3C//DTD SVG 1.1//EN"
  "http://www.w3.org/Graphics/SVG/1.1/DTD/svg11.dtd">
<!-- Created with matplotlib (https://matplotlib.org/) -->
<svg height="424.474375pt" version="1.1" viewBox="0 0 712.433125 424.474375" width="712.433125pt" xmlns="http://www.w3.org/2000/svg" xmlns:xlink="http://www.w3.org/1999/xlink">
 <defs>
  <style type="text/css">
*{stroke-linecap:butt;stroke-linejoin:round;}
  </style>
 </defs>
 <g id="figure_1">
  <g id="patch_1">
   <path d="M 0 424.474375 
L 712.433125 424.474375 
L 712.433125 0 
L 0 0 
z
" style="fill:#ffffff;"/>
  </g>
  <g id="axes_1">
   <g id="patch_2">
    <path d="M 40.603125 176.318125 
L 705.233125 176.318125 
L 705.233125 22.318125 
L 40.603125 22.318125 
z
" style="fill:#ffffff;"/>
   </g>
   <g id="matplotlib.axis_1">
    <g id="xtick_1">
     <g id="line2d_1">
      <defs>
       <path d="M 0 0 
L 0 3.5 
" id="mcf8ce411ce" style="stroke:#000000;stroke-width:0.8;"/>
      </defs>
      <g>
       <use style="stroke:#000000;stroke-width:0.8;" x="136.368291" xlink:href="#mcf8ce411ce" y="176.318125"/>
      </g>
     </g>
     <g id="text_1">
      <!-- 6.580 -->
      <defs>
       <path d="M 33.015625 40.375 
Q 26.375 40.375 22.484375 35.828125 
Q 18.609375 31.296875 18.609375 23.390625 
Q 18.609375 15.53125 22.484375 10.953125 
Q 26.375 6.390625 33.015625 6.390625 
Q 39.65625 6.390625 43.53125 10.953125 
Q 47.40625 15.53125 47.40625 23.390625 
Q 47.40625 31.296875 43.53125 35.828125 
Q 39.65625 40.375 33.015625 40.375 
z
M 52.59375 71.296875 
L 52.59375 62.3125 
Q 48.875 64.0625 45.09375 64.984375 
Q 41.3125 65.921875 37.59375 65.921875 
Q 27.828125 65.921875 22.671875 59.328125 
Q 17.53125 52.734375 16.796875 39.40625 
Q 19.671875 43.65625 24.015625 45.921875 
Q 28.375 48.1875 33.59375 48.1875 
Q 44.578125 48.1875 50.953125 41.515625 
Q 57.328125 34.859375 57.328125 23.390625 
Q 57.328125 12.15625 50.6875 5.359375 
Q 44.046875 -1.421875 33.015625 -1.421875 
Q 20.359375 -1.421875 13.671875 8.265625 
Q 6.984375 17.96875 6.984375 36.375 
Q 6.984375 53.65625 15.1875 63.9375 
Q 23.390625 74.21875 37.203125 74.21875 
Q 40.921875 74.21875 44.703125 73.484375 
Q 48.484375 72.75 52.59375 71.296875 
z
" id="DejaVuSans-54"/>
       <path d="M 10.6875 12.40625 
L 21 12.40625 
L 21 0 
L 10.6875 0 
z
" id="DejaVuSans-46"/>
       <path d="M 10.796875 72.90625 
L 49.515625 72.90625 
L 49.515625 64.59375 
L 19.828125 64.59375 
L 19.828125 46.734375 
Q 21.96875 47.46875 24.109375 47.828125 
Q 26.265625 48.1875 28.421875 48.1875 
Q 40.625 48.1875 47.75 41.5 
Q 54.890625 34.8125 54.890625 23.390625 
Q 54.890625 11.625 47.5625 5.09375 
Q 40.234375 -1.421875 26.90625 -1.421875 
Q 22.3125 -1.421875 17.546875 -0.640625 
Q 12.796875 0.140625 7.71875 1.703125 
L 7.71875 11.625 
Q 12.109375 9.234375 16.796875 8.0625 
Q 21.484375 6.890625 26.703125 6.890625 
Q 35.15625 6.890625 40.078125 11.328125 
Q 45.015625 15.765625 45.015625 23.390625 
Q 45.015625 31 40.078125 35.4375 
Q 35.15625 39.890625 26.703125 39.890625 
Q 22.75 39.890625 18.8125 39.015625 
Q 14.890625 38.140625 10.796875 36.28125 
z
" id="DejaVuSans-53"/>
       <path d="M 31.78125 34.625 
Q 24.75 34.625 20.71875 30.859375 
Q 16.703125 27.09375 16.703125 20.515625 
Q 16.703125 13.921875 20.71875 10.15625 
Q 24.75 6.390625 31.78125 6.390625 
Q 38.8125 6.390625 42.859375 10.171875 
Q 46.921875 13.96875 46.921875 20.515625 
Q 46.921875 27.09375 42.890625 30.859375 
Q 38.875 34.625 31.78125 34.625 
z
M 21.921875 38.8125 
Q 15.578125 40.375 12.03125 44.71875 
Q 8.5 49.078125 8.5 55.328125 
Q 8.5 64.0625 14.71875 69.140625 
Q 20.953125 74.21875 31.78125 74.21875 
Q 42.671875 74.21875 48.875 69.140625 
Q 55.078125 64.0625 55.078125 55.328125 
Q 55.078125 49.078125 51.53125 44.71875 
Q 48 40.375 41.703125 38.8125 
Q 48.828125 37.15625 52.796875 32.3125 
Q 56.78125 27.484375 56.78125 20.515625 
Q 56.78125 9.90625 50.3125 4.234375 
Q 43.84375 -1.421875 31.78125 -1.421875 
Q 19.734375 -1.421875 13.25 4.234375 
Q 6.78125 9.90625 6.78125 20.515625 
Q 6.78125 27.484375 10.78125 32.3125 
Q 14.796875 37.15625 21.921875 38.8125 
z
M 18.3125 54.390625 
Q 18.3125 48.734375 21.84375 45.5625 
Q 25.390625 42.390625 31.78125 42.390625 
Q 38.140625 42.390625 41.71875 45.5625 
Q 45.3125 48.734375 45.3125 54.390625 
Q 45.3125 60.0625 41.71875 63.234375 
Q 38.140625 66.40625 31.78125 66.40625 
Q 25.390625 66.40625 21.84375 63.234375 
Q 18.3125 60.0625 18.3125 54.390625 
z
" id="DejaVuSans-56"/>
       <path d="M 31.78125 66.40625 
Q 24.171875 66.40625 20.328125 58.90625 
Q 16.5 51.421875 16.5 36.375 
Q 16.5 21.390625 20.328125 13.890625 
Q 24.171875 6.390625 31.78125 6.390625 
Q 39.453125 6.390625 43.28125 13.890625 
Q 47.125 21.390625 47.125 36.375 
Q 47.125 51.421875 43.28125 58.90625 
Q 39.453125 66.40625 31.78125 66.40625 
z
M 31.78125 74.21875 
Q 44.046875 74.21875 50.515625 64.515625 
Q 56.984375 54.828125 56.984375 36.375 
Q 56.984375 17.96875 50.515625 8.265625 
Q 44.046875 -1.421875 31.78125 -1.421875 
Q 19.53125 -1.421875 13.0625 8.265625 
Q 6.59375 17.96875 6.59375 36.375 
Q 6.59375 54.828125 13.0625 64.515625 
Q 19.53125 74.21875 31.78125 74.21875 
z
" id="DejaVuSans-48"/>
      </defs>
      <g transform="translate(122.054229 190.916562)scale(0.1 -0.1)">
       <use xlink:href="#DejaVuSans-54"/>
       <use x="63.623047" xlink:href="#DejaVuSans-46"/>
       <use x="95.410156" xlink:href="#DejaVuSans-53"/>
       <use x="159.033203" xlink:href="#DejaVuSans-56"/>
       <use x="222.65625" xlink:href="#DejaVuSans-48"/>
      </g>
     </g>
    </g>
    <g id="xtick_2">
     <g id="line2d_2">
      <g>
       <use style="stroke:#000000;stroke-width:0.8;" x="235.095267" xlink:href="#mcf8ce411ce" y="176.318125"/>
      </g>
     </g>
     <g id="text_2">
      <!-- 6.585 -->
      <g transform="translate(220.781205 190.916562)scale(0.1 -0.1)">
       <use xlink:href="#DejaVuSans-54"/>
       <use x="63.623047" xlink:href="#DejaVuSans-46"/>
       <use x="95.410156" xlink:href="#DejaVuSans-53"/>
       <use x="159.033203" xlink:href="#DejaVuSans-56"/>
       <use x="222.65625" xlink:href="#DejaVuSans-53"/>
      </g>
     </g>
    </g>
    <g id="xtick_3">
     <g id="line2d_3">
      <g>
       <use style="stroke:#000000;stroke-width:0.8;" x="333.822243" xlink:href="#mcf8ce411ce" y="176.318125"/>
      </g>
     </g>
     <g id="text_3">
      <!-- 6.590 -->
      <defs>
       <path d="M 10.984375 1.515625 
L 10.984375 10.5 
Q 14.703125 8.734375 18.5 7.8125 
Q 22.3125 6.890625 25.984375 6.890625 
Q 35.75 6.890625 40.890625 13.453125 
Q 46.046875 20.015625 46.78125 33.40625 
Q 43.953125 29.203125 39.59375 26.953125 
Q 35.25 24.703125 29.984375 24.703125 
Q 19.046875 24.703125 12.671875 31.3125 
Q 6.296875 37.9375 6.296875 49.421875 
Q 6.296875 60.640625 12.9375 67.421875 
Q 19.578125 74.21875 30.609375 74.21875 
Q 43.265625 74.21875 49.921875 64.515625 
Q 56.59375 54.828125 56.59375 36.375 
Q 56.59375 19.140625 48.40625 8.859375 
Q 40.234375 -1.421875 26.421875 -1.421875 
Q 22.703125 -1.421875 18.890625 -0.6875 
Q 15.09375 0.046875 10.984375 1.515625 
z
M 30.609375 32.421875 
Q 37.25 32.421875 41.125 36.953125 
Q 45.015625 41.5 45.015625 49.421875 
Q 45.015625 57.28125 41.125 61.84375 
Q 37.25 66.40625 30.609375 66.40625 
Q 23.96875 66.40625 20.09375 61.84375 
Q 16.21875 57.28125 16.21875 49.421875 
Q 16.21875 41.5 20.09375 36.953125 
Q 23.96875 32.421875 30.609375 32.421875 
z
" id="DejaVuSans-57"/>
      </defs>
      <g transform="translate(319.50818 190.916562)scale(0.1 -0.1)">
       <use xlink:href="#DejaVuSans-54"/>
       <use x="63.623047" xlink:href="#DejaVuSans-46"/>
       <use x="95.410156" xlink:href="#DejaVuSans-53"/>
       <use x="159.033203" xlink:href="#DejaVuSans-57"/>
       <use x="222.65625" xlink:href="#DejaVuSans-48"/>
      </g>
     </g>
    </g>
    <g id="xtick_4">
     <g id="line2d_4">
      <g>
       <use style="stroke:#000000;stroke-width:0.8;" x="432.549218" xlink:href="#mcf8ce411ce" y="176.318125"/>
      </g>
     </g>
     <g id="text_4">
      <!-- 6.595 -->
      <g transform="translate(418.235156 190.916562)scale(0.1 -0.1)">
       <use xlink:href="#DejaVuSans-54"/>
       <use x="63.623047" xlink:href="#DejaVuSans-46"/>
       <use x="95.410156" xlink:href="#DejaVuSans-53"/>
       <use x="159.033203" xlink:href="#DejaVuSans-57"/>
       <use x="222.65625" xlink:href="#DejaVuSans-53"/>
      </g>
     </g>
    </g>
    <g id="xtick_5">
     <g id="line2d_5">
      <g>
       <use style="stroke:#000000;stroke-width:0.8;" x="531.276194" xlink:href="#mcf8ce411ce" y="176.318125"/>
      </g>
     </g>
     <g id="text_5">
      <!-- 6.600 -->
      <g transform="translate(516.962131 190.916562)scale(0.1 -0.1)">
       <use xlink:href="#DejaVuSans-54"/>
       <use x="63.623047" xlink:href="#DejaVuSans-46"/>
       <use x="95.410156" xlink:href="#DejaVuSans-54"/>
       <use x="159.033203" xlink:href="#DejaVuSans-48"/>
       <use x="222.65625" xlink:href="#DejaVuSans-48"/>
      </g>
     </g>
    </g>
    <g id="xtick_6">
     <g id="line2d_6">
      <g>
       <use style="stroke:#000000;stroke-width:0.8;" x="630.00317" xlink:href="#mcf8ce411ce" y="176.318125"/>
      </g>
     </g>
     <g id="text_6">
      <!-- 6.605 -->
      <g transform="translate(615.689107 190.916562)scale(0.1 -0.1)">
       <use xlink:href="#DejaVuSans-54"/>
       <use x="63.623047" xlink:href="#DejaVuSans-46"/>
       <use x="95.410156" xlink:href="#DejaVuSans-54"/>
       <use x="159.033203" xlink:href="#DejaVuSans-48"/>
       <use x="222.65625" xlink:href="#DejaVuSans-53"/>
      </g>
     </g>
    </g>
    <g id="text_7">
     <!-- Time (ms) -->
     <defs>
      <path d="M -0.296875 72.90625 
L 61.375 72.90625 
L 61.375 64.59375 
L 35.5 64.59375 
L 35.5 0 
L 25.59375 0 
L 25.59375 64.59375 
L -0.296875 64.59375 
z
" id="DejaVuSans-84"/>
      <path d="M 9.421875 54.6875 
L 18.40625 54.6875 
L 18.40625 0 
L 9.421875 0 
z
M 9.421875 75.984375 
L 18.40625 75.984375 
L 18.40625 64.59375 
L 9.421875 64.59375 
z
" id="DejaVuSans-105"/>
      <path d="M 52 44.1875 
Q 55.375 50.25 60.0625 53.125 
Q 64.75 56 71.09375 56 
Q 79.640625 56 84.28125 50.015625 
Q 88.921875 44.046875 88.921875 33.015625 
L 88.921875 0 
L 79.890625 0 
L 79.890625 32.71875 
Q 79.890625 40.578125 77.09375 44.375 
Q 74.3125 48.1875 68.609375 48.1875 
Q 61.625 48.1875 57.5625 43.546875 
Q 53.515625 38.921875 53.515625 30.90625 
L 53.515625 0 
L 44.484375 0 
L 44.484375 32.71875 
Q 44.484375 40.625 41.703125 44.40625 
Q 38.921875 48.1875 33.109375 48.1875 
Q 26.21875 48.1875 22.15625 43.53125 
Q 18.109375 38.875 18.109375 30.90625 
L 18.109375 0 
L 9.078125 0 
L 9.078125 54.6875 
L 18.109375 54.6875 
L 18.109375 46.1875 
Q 21.1875 51.21875 25.484375 53.609375 
Q 29.78125 56 35.6875 56 
Q 41.65625 56 45.828125 52.96875 
Q 50 49.953125 52 44.1875 
z
" id="DejaVuSans-109"/>
      <path d="M 56.203125 29.59375 
L 56.203125 25.203125 
L 14.890625 25.203125 
Q 15.484375 15.921875 20.484375 11.0625 
Q 25.484375 6.203125 34.421875 6.203125 
Q 39.59375 6.203125 44.453125 7.46875 
Q 49.3125 8.734375 54.109375 11.28125 
L 54.109375 2.78125 
Q 49.265625 0.734375 44.1875 -0.34375 
Q 39.109375 -1.421875 33.890625 -1.421875 
Q 20.796875 -1.421875 13.15625 6.1875 
Q 5.515625 13.8125 5.515625 26.8125 
Q 5.515625 40.234375 12.765625 48.109375 
Q 20.015625 56 32.328125 56 
Q 43.359375 56 49.78125 48.890625 
Q 56.203125 41.796875 56.203125 29.59375 
z
M 47.21875 32.234375 
Q 47.125 39.59375 43.09375 43.984375 
Q 39.0625 48.390625 32.421875 48.390625 
Q 24.90625 48.390625 20.390625 44.140625 
Q 15.875 39.890625 15.1875 32.171875 
z
" id="DejaVuSans-101"/>
      <path id="DejaVuSans-32"/>
      <path d="M 31 75.875 
Q 24.46875 64.65625 21.28125 53.65625 
Q 18.109375 42.671875 18.109375 31.390625 
Q 18.109375 20.125 21.3125 9.0625 
Q 24.515625 -2 31 -13.1875 
L 23.1875 -13.1875 
Q 15.875 -1.703125 12.234375 9.375 
Q 8.59375 20.453125 8.59375 31.390625 
Q 8.59375 42.28125 12.203125 53.3125 
Q 15.828125 64.359375 23.1875 75.875 
z
" id="DejaVuSans-40"/>
      <path d="M 44.28125 53.078125 
L 44.28125 44.578125 
Q 40.484375 46.53125 36.375 47.5 
Q 32.28125 48.484375 27.875 48.484375 
Q 21.1875 48.484375 17.84375 46.4375 
Q 14.5 44.390625 14.5 40.28125 
Q 14.5 37.15625 16.890625 35.375 
Q 19.28125 33.59375 26.515625 31.984375 
L 29.59375 31.296875 
Q 39.15625 29.25 43.1875 25.515625 
Q 47.21875 21.78125 47.21875 15.09375 
Q 47.21875 7.46875 41.1875 3.015625 
Q 35.15625 -1.421875 24.609375 -1.421875 
Q 20.21875 -1.421875 15.453125 -0.5625 
Q 10.6875 0.296875 5.421875 2 
L 5.421875 11.28125 
Q 10.40625 8.6875 15.234375 7.390625 
Q 20.0625 6.109375 24.8125 6.109375 
Q 31.15625 6.109375 34.5625 8.28125 
Q 37.984375 10.453125 37.984375 14.40625 
Q 37.984375 18.0625 35.515625 20.015625 
Q 33.0625 21.96875 24.703125 23.78125 
L 21.578125 24.515625 
Q 13.234375 26.265625 9.515625 29.90625 
Q 5.8125 33.546875 5.8125 39.890625 
Q 5.8125 47.609375 11.28125 51.796875 
Q 16.75 56 26.8125 56 
Q 31.78125 56 36.171875 55.265625 
Q 40.578125 54.546875 44.28125 53.078125 
z
" id="DejaVuSans-115"/>
      <path d="M 8.015625 75.875 
L 15.828125 75.875 
Q 23.140625 64.359375 26.78125 53.3125 
Q 30.421875 42.28125 30.421875 31.390625 
Q 30.421875 20.453125 26.78125 9.375 
Q 23.140625 -1.703125 15.828125 -13.1875 
L 8.015625 -13.1875 
Q 14.5 -2 17.703125 9.0625 
Q 20.90625 20.125 20.90625 31.390625 
Q 20.90625 42.671875 17.703125 53.65625 
Q 14.5 64.65625 8.015625 75.875 
z
" id="DejaVuSans-41"/>
     </defs>
     <g transform="translate(347.565 204.594687)scale(0.1 -0.1)">
      <use xlink:href="#DejaVuSans-84"/>
      <use x="61.037109" xlink:href="#DejaVuSans-105"/>
      <use x="88.820312" xlink:href="#DejaVuSans-109"/>
      <use x="186.232422" xlink:href="#DejaVuSans-101"/>
      <use x="247.755859" xlink:href="#DejaVuSans-32"/>
      <use x="279.542969" xlink:href="#DejaVuSans-40"/>
      <use x="318.556641" xlink:href="#DejaVuSans-109"/>
      <use x="415.96875" xlink:href="#DejaVuSans-115"/>
      <use x="468.068359" xlink:href="#DejaVuSans-41"/>
     </g>
    </g>
    <g id="text_8">
     <!-- 1e5 -->
     <defs>
      <path d="M 12.40625 8.296875 
L 28.515625 8.296875 
L 28.515625 63.921875 
L 10.984375 60.40625 
L 10.984375 69.390625 
L 28.421875 72.90625 
L 38.28125 72.90625 
L 38.28125 8.296875 
L 54.390625 8.296875 
L 54.390625 0 
L 12.40625 0 
z
" id="DejaVuSans-49"/>
     </defs>
     <g transform="translate(686.355 203.594687)scale(0.1 -0.1)">
      <use xlink:href="#DejaVuSans-49"/>
      <use x="63.623047" xlink:href="#DejaVuSans-101"/>
      <use x="125.146484" xlink:href="#DejaVuSans-53"/>
     </g>
    </g>
   </g>
   <g id="matplotlib.axis_2">
    <g id="ytick_1">
     <g id="line2d_7">
      <defs>
       <path d="M 0 0 
L -3.5 0 
" id="m660efcfb7c" style="stroke:#000000;stroke-width:0.8;"/>
      </defs>
      <g>
       <use style="stroke:#000000;stroke-width:0.8;" x="40.603125" xlink:href="#m660efcfb7c" y="161.48084"/>
      </g>
     </g>
     <g id="text_9">
      <!-- 0 -->
      <g transform="translate(27.240625 165.280059)scale(0.1 -0.1)">
       <use xlink:href="#DejaVuSans-48"/>
      </g>
     </g>
    </g>
    <g id="ytick_2">
     <g id="line2d_8">
      <g>
       <use style="stroke:#000000;stroke-width:0.8;" x="40.603125" xlink:href="#m660efcfb7c" y="134.065285"/>
      </g>
     </g>
     <g id="text_10">
      <!-- 10 -->
      <g transform="translate(20.878125 137.864504)scale(0.1 -0.1)">
       <use xlink:href="#DejaVuSans-49"/>
       <use x="63.623047" xlink:href="#DejaVuSans-48"/>
      </g>
     </g>
    </g>
    <g id="ytick_3">
     <g id="line2d_9">
      <g>
       <use style="stroke:#000000;stroke-width:0.8;" x="40.603125" xlink:href="#m660efcfb7c" y="106.64973"/>
      </g>
     </g>
     <g id="text_11">
      <!-- 20 -->
      <defs>
       <path d="M 19.1875 8.296875 
L 53.609375 8.296875 
L 53.609375 0 
L 7.328125 0 
L 7.328125 8.296875 
Q 12.9375 14.109375 22.625 23.890625 
Q 32.328125 33.6875 34.8125 36.53125 
Q 39.546875 41.84375 41.421875 45.53125 
Q 43.3125 49.21875 43.3125 52.78125 
Q 43.3125 58.59375 39.234375 62.25 
Q 35.15625 65.921875 28.609375 65.921875 
Q 23.96875 65.921875 18.8125 64.3125 
Q 13.671875 62.703125 7.8125 59.421875 
L 7.8125 69.390625 
Q 13.765625 71.78125 18.9375 73 
Q 24.125 74.21875 28.421875 74.21875 
Q 39.75 74.21875 46.484375 68.546875 
Q 53.21875 62.890625 53.21875 53.421875 
Q 53.21875 48.921875 51.53125 44.890625 
Q 49.859375 40.875 45.40625 35.40625 
Q 44.1875 33.984375 37.640625 27.21875 
Q 31.109375 20.453125 19.1875 8.296875 
z
" id="DejaVuSans-50"/>
      </defs>
      <g transform="translate(20.878125 110.448949)scale(0.1 -0.1)">
       <use xlink:href="#DejaVuSans-50"/>
       <use x="63.623047" xlink:href="#DejaVuSans-48"/>
      </g>
     </g>
    </g>
    <g id="ytick_4">
     <g id="line2d_10">
      <g>
       <use style="stroke:#000000;stroke-width:0.8;" x="40.603125" xlink:href="#m660efcfb7c" y="79.234175"/>
      </g>
     </g>
     <g id="text_12">
      <!-- 30 -->
      <defs>
       <path d="M 40.578125 39.3125 
Q 47.65625 37.796875 51.625 33 
Q 55.609375 28.21875 55.609375 21.1875 
Q 55.609375 10.40625 48.1875 4.484375 
Q 40.765625 -1.421875 27.09375 -1.421875 
Q 22.515625 -1.421875 17.65625 -0.515625 
Q 12.796875 0.390625 7.625 2.203125 
L 7.625 11.71875 
Q 11.71875 9.328125 16.59375 8.109375 
Q 21.484375 6.890625 26.8125 6.890625 
Q 36.078125 6.890625 40.9375 10.546875 
Q 45.796875 14.203125 45.796875 21.1875 
Q 45.796875 27.640625 41.28125 31.265625 
Q 36.765625 34.90625 28.71875 34.90625 
L 20.21875 34.90625 
L 20.21875 43.015625 
L 29.109375 43.015625 
Q 36.375 43.015625 40.234375 45.921875 
Q 44.09375 48.828125 44.09375 54.296875 
Q 44.09375 59.90625 40.109375 62.90625 
Q 36.140625 65.921875 28.71875 65.921875 
Q 24.65625 65.921875 20.015625 65.03125 
Q 15.375 64.15625 9.8125 62.3125 
L 9.8125 71.09375 
Q 15.4375 72.65625 20.34375 73.4375 
Q 25.25 74.21875 29.59375 74.21875 
Q 40.828125 74.21875 47.359375 69.109375 
Q 53.90625 64.015625 53.90625 55.328125 
Q 53.90625 49.265625 50.4375 45.09375 
Q 46.96875 40.921875 40.578125 39.3125 
z
" id="DejaVuSans-51"/>
      </defs>
      <g transform="translate(20.878125 83.033393)scale(0.1 -0.1)">
       <use xlink:href="#DejaVuSans-51"/>
       <use x="63.623047" xlink:href="#DejaVuSans-48"/>
      </g>
     </g>
    </g>
    <g id="ytick_5">
     <g id="line2d_11">
      <g>
       <use style="stroke:#000000;stroke-width:0.8;" x="40.603125" xlink:href="#m660efcfb7c" y="51.818619"/>
      </g>
     </g>
     <g id="text_13">
      <!-- 40 -->
      <defs>
       <path d="M 37.796875 64.3125 
L 12.890625 25.390625 
L 37.796875 25.390625 
z
M 35.203125 72.90625 
L 47.609375 72.90625 
L 47.609375 25.390625 
L 58.015625 25.390625 
L 58.015625 17.1875 
L 47.609375 17.1875 
L 47.609375 0 
L 37.796875 0 
L 37.796875 17.1875 
L 4.890625 17.1875 
L 4.890625 26.703125 
z
" id="DejaVuSans-52"/>
      </defs>
      <g transform="translate(20.878125 55.617838)scale(0.1 -0.1)">
       <use xlink:href="#DejaVuSans-52"/>
       <use x="63.623047" xlink:href="#DejaVuSans-48"/>
      </g>
     </g>
    </g>
    <g id="ytick_6">
     <g id="line2d_12">
      <g>
       <use style="stroke:#000000;stroke-width:0.8;" x="40.603125" xlink:href="#m660efcfb7c" y="24.403064"/>
      </g>
     </g>
     <g id="text_14">
      <!-- 50 -->
      <g transform="translate(20.878125 28.202283)scale(0.1 -0.1)">
       <use xlink:href="#DejaVuSans-53"/>
       <use x="63.623047" xlink:href="#DejaVuSans-48"/>
      </g>
     </g>
    </g>
    <g id="text_15">
     <!-- ADC Value -->
     <defs>
      <path d="M 34.1875 63.1875 
L 20.796875 26.90625 
L 47.609375 26.90625 
z
M 28.609375 72.90625 
L 39.796875 72.90625 
L 67.578125 0 
L 57.328125 0 
L 50.6875 18.703125 
L 17.828125 18.703125 
L 11.1875 0 
L 0.78125 0 
z
" id="DejaVuSans-65"/>
      <path d="M 19.671875 64.796875 
L 19.671875 8.109375 
L 31.59375 8.109375 
Q 46.6875 8.109375 53.6875 14.9375 
Q 60.6875 21.78125 60.6875 36.53125 
Q 60.6875 51.171875 53.6875 57.984375 
Q 46.6875 64.796875 31.59375 64.796875 
z
M 9.8125 72.90625 
L 30.078125 72.90625 
Q 51.265625 72.90625 61.171875 64.09375 
Q 71.09375 55.28125 71.09375 36.53125 
Q 71.09375 17.671875 61.125 8.828125 
Q 51.171875 0 30.078125 0 
L 9.8125 0 
z
" id="DejaVuSans-68"/>
      <path d="M 64.40625 67.28125 
L 64.40625 56.890625 
Q 59.421875 61.53125 53.78125 63.8125 
Q 48.140625 66.109375 41.796875 66.109375 
Q 29.296875 66.109375 22.65625 58.46875 
Q 16.015625 50.828125 16.015625 36.375 
Q 16.015625 21.96875 22.65625 14.328125 
Q 29.296875 6.6875 41.796875 6.6875 
Q 48.140625 6.6875 53.78125 8.984375 
Q 59.421875 11.28125 64.40625 15.921875 
L 64.40625 5.609375 
Q 59.234375 2.09375 53.4375 0.328125 
Q 47.65625 -1.421875 41.21875 -1.421875 
Q 24.65625 -1.421875 15.125 8.703125 
Q 5.609375 18.84375 5.609375 36.375 
Q 5.609375 53.953125 15.125 64.078125 
Q 24.65625 74.21875 41.21875 74.21875 
Q 47.75 74.21875 53.53125 72.484375 
Q 59.328125 70.75 64.40625 67.28125 
z
" id="DejaVuSans-67"/>
      <path d="M 28.609375 0 
L 0.78125 72.90625 
L 11.078125 72.90625 
L 34.1875 11.53125 
L 57.328125 72.90625 
L 67.578125 72.90625 
L 39.796875 0 
z
" id="DejaVuSans-86"/>
      <path d="M 34.28125 27.484375 
Q 23.390625 27.484375 19.1875 25 
Q 14.984375 22.515625 14.984375 16.5 
Q 14.984375 11.71875 18.140625 8.90625 
Q 21.296875 6.109375 26.703125 6.109375 
Q 34.1875 6.109375 38.703125 11.40625 
Q 43.21875 16.703125 43.21875 25.484375 
L 43.21875 27.484375 
z
M 52.203125 31.203125 
L 52.203125 0 
L 43.21875 0 
L 43.21875 8.296875 
Q 40.140625 3.328125 35.546875 0.953125 
Q 30.953125 -1.421875 24.3125 -1.421875 
Q 15.921875 -1.421875 10.953125 3.296875 
Q 6 8.015625 6 15.921875 
Q 6 25.140625 12.171875 29.828125 
Q 18.359375 34.515625 30.609375 34.515625 
L 43.21875 34.515625 
L 43.21875 35.40625 
Q 43.21875 41.609375 39.140625 45 
Q 35.0625 48.390625 27.6875 48.390625 
Q 23 48.390625 18.546875 47.265625 
Q 14.109375 46.140625 10.015625 43.890625 
L 10.015625 52.203125 
Q 14.9375 54.109375 19.578125 55.046875 
Q 24.21875 56 28.609375 56 
Q 40.484375 56 46.34375 49.84375 
Q 52.203125 43.703125 52.203125 31.203125 
z
" id="DejaVuSans-97"/>
      <path d="M 9.421875 75.984375 
L 18.40625 75.984375 
L 18.40625 0 
L 9.421875 0 
z
" id="DejaVuSans-108"/>
      <path d="M 8.5 21.578125 
L 8.5 54.6875 
L 17.484375 54.6875 
L 17.484375 21.921875 
Q 17.484375 14.15625 20.5 10.265625 
Q 23.53125 6.390625 29.59375 6.390625 
Q 36.859375 6.390625 41.078125 11.03125 
Q 45.3125 15.671875 45.3125 23.6875 
L 45.3125 54.6875 
L 54.296875 54.6875 
L 54.296875 0 
L 45.3125 0 
L 45.3125 8.40625 
Q 42.046875 3.421875 37.71875 1 
Q 33.40625 -1.421875 27.6875 -1.421875 
Q 18.265625 -1.421875 13.375 4.4375 
Q 8.5 10.296875 8.5 21.578125 
z
M 31.109375 56 
z
" id="DejaVuSans-117"/>
     </defs>
     <g transform="translate(14.798438 125.782187)rotate(-90)scale(0.1 -0.1)">
      <use xlink:href="#DejaVuSans-65"/>
      <use x="68.408203" xlink:href="#DejaVuSans-68"/>
      <use x="145.410156" xlink:href="#DejaVuSans-67"/>
      <use x="215.234375" xlink:href="#DejaVuSans-32"/>
      <use x="247.021484" xlink:href="#DejaVuSans-86"/>
      <use x="315.320312" xlink:href="#DejaVuSans-97"/>
      <use x="376.599609" xlink:href="#DejaVuSans-108"/>
      <use x="404.382812" xlink:href="#DejaVuSans-117"/>
      <use x="467.761719" xlink:href="#DejaVuSans-101"/>
     </g>
    </g>
   </g>
   <g id="line2d_13">
    <path clip-path="url(#p369337cb57)" d="M 70.81358 161.440539 
L 72.788119 156.475582 
L 78.119376 141.77262 
L 80.093915 137.289628 
L 83.84554 129.91457 
L 85.622626 127.132714 
L 89.571705 122.533754 
L 91.34879 119.997267 
L 93.125876 116.801984 
L 97.074955 107.751561 
L 100.629126 96.086791 
L 103.788389 90.072914 
L 111.489094 67.040284 
L 113.463633 60.763767 
L 115.240719 54.399794 
L 117.017804 48.688311 
L 118.992344 44.793383 
L 121.164337 44.074273 
L 123.336331 47.721091 
L 125.113416 56.348766 
L 127.087956 69.691917 
L 129.062495 86.517391 
L 133.011574 122.223136 
L 134.78866 136.545844 
L 136.565745 146.221891 
L 138.540285 150.586173 
L 140.514824 149.893382 
L 142.29191 145.135412 
L 149.79516 114.358984 
L 151.572246 109.609513 
L 153.349331 107.01655 
L 155.521325 106.277975 
L 157.29841 106.742669 
L 159.075496 107.561023 
L 160.852581 107.874383 
L 163.024575 107.006406 
L 164.80166 104.6059 
L 166.578746 100.70686 
L 174.27945 79.191955 
L 178.031075 69.700689 
L 180.400523 64.931754 
L 182.177608 59.801755 
L 186.324141 49.477605 
L 188.298681 46.086027 
L 190.27322 45.708515 
L 192.050306 49.693091 
L 193.827391 58.829325 
L 197.77647 90.995448 
L 201.330641 130.10922 
L 203.107727 146.616949 
L 205.27972 158.858268 
L 207.056806 166.280207 
L 208.833891 169.221896 
L 210.610977 168.62835 
L 212.585517 165.670211 
L 214.560056 161.422993 
L 218.114227 151.982721 
L 220.088767 147.58883 
L 223.840392 140.267232 
L 225.617477 137.361457 
L 227.394563 134.764382 
L 229.369102 132.144277 
L 231.541096 129.068252 
L 233.515635 125.111913 
L 235.292721 119.995074 
L 239.044346 106.455628 
L 241.018886 98.761178 
L 242.795971 91.142944 
L 244.573057 84.031623 
L 246.350142 77.63667 
L 248.522136 71.941089 
L 250.299221 66.816299 
L 252.076307 62.214872 
L 253.853392 58.359423 
L 256.025386 55.844594 
L 257.802471 55.588258 
L 259.579557 58.616032 
L 261.356643 65.732836 
L 263.331182 77.176637 
L 265.305722 92.383223 
L 268.859893 127.945311 
L 271.031886 144.169288 
L 273.401334 156.787297 
L 275.178419 164.62842 
L 276.955505 167.376555 
L 278.73259 165.524635 
L 280.904584 160.1627 
L 282.681669 152.693332 
L 284.458755 144.556944 
L 286.23584 137.011361 
L 288.012926 130.975552 
L 290.777281 126.931209 
L 292.554367 124.877784 
L 294.331452 124.348664 
L 296.108538 124.502739 
L 298.280531 124.289446 
L 300.057617 122.663978 
L 301.834703 118.814834 
L 303.611788 112.346682 
L 305.586328 103.367814 
L 307.560867 92.456971 
L 309.337953 80.51311 
L 311.509946 68.536077 
L 313.287032 57.407006 
L 315.261571 47.747135 
L 317.038657 39.902997 
L 319.013196 34.055807 
L 320.987736 30.403233 
L 323.159729 29.318125 
L 324.936815 31.393208 
L 327.108808 37.31771 
L 329.083348 47.603478 
L 330.860433 62.251609 
L 333.229881 80.507627 
L 335.006966 100.835987 
L 338.758591 139.368824 
L 340.733131 153.72827 
L 342.510217 163.339341 
L 344.68221 168.194087 
L 346.459296 169.019295 
L 348.433835 166.943938 
L 350.408375 163.142771 
L 355.739631 149.448976 
L 357.911625 145.383249 
L 359.68871 141.727933 
L 363.242881 135.350252 
L 365.414875 132.248456 
L 367.19196 128.791629 
L 368.969046 124.616514 
L 370.746132 119.431958 
L 372.720671 113.130767 
L 374.695211 105.861258 
L 378.249382 90.168046 
L 380.223921 82.857414 
L 382.198461 76.48412 
L 383.975546 71.172356 
L 385.752632 66.779288 
L 389.504257 59.688255 
L 391.478796 56.875419 
L 393.255882 55.110131 
L 395.032968 55.318763 
L 397.007507 58.591907 
L 398.982047 65.812067 
L 400.759132 77.263545 
L 402.931126 92.385691 
L 405.103119 109.778119 
L 408.854744 143.486641 
L 410.63183 156.156465 
L 413.001277 164.622389 
L 415.173271 168.818888 
L 418.13508 169.318125 
L 419.912165 167.027281 
L 421.689251 162.894386 
L 424.058698 157.727102 
L 425.835784 152.141731 
L 431.759402 137.109508 
L 433.931396 133.621153 
L 435.708482 131.027093 
L 437.485567 129.106359 
L 439.262653 127.458959 
L 441.434646 125.61115 
L 443.211732 123.154991 
L 444.988817 119.85827 
L 446.765903 115.690557 
L 448.740442 110.763434 
L 450.714982 105.221379 
L 452.492067 99.157607 
L 456.243692 85.677378 
L 459.995318 72.203181 
L 462.167311 67.369545 
L 463.944397 65.433458 
L 465.721482 67.597916 
L 467.893476 74.592995 
L 469.670561 86.340561 
L 471.447647 101.822399 
L 473.61964 119.218939 
L 477.371265 150.936269 
L 479.148351 161.559249 
L 481.12289 167.427822 
L 483.09743 168.652749 
L 484.874515 166.017292 
L 486.651601 160.696481 
L 488.62614 153.976929 
L 490.403226 147.046002 
L 492.377766 140.858037 
L 494.154851 136.070459 
L 496.129391 133.015818 
L 497.906476 131.700968 
L 499.881016 131.826257 
L 503.632641 134.000036 
L 505.60718 134.540122 
L 507.384266 133.759876 
L 509.556259 131.181717 
L 511.333345 126.644991 
L 513.11043 120.335575 
L 514.887516 112.732967 
L 517.059509 104.474031 
L 520.613681 88.287339 
L 522.785674 81.003575 
L 524.56276 74.340498 
L 526.537299 68.29948 
L 528.511839 63.091073 
L 530.486378 59.295938 
L 532.263464 57.864298 
L 534.435457 59.906757 
L 536.409997 66.321722 
L 538.384536 77.385818 
L 542.136161 110.125474 
L 543.913247 128.198356 
L 545.887786 144.498 
L 547.664872 157.216899 
L 549.441957 165.309697 
L 551.416497 168.6119 
L 553.391036 167.720072 
L 555.168122 163.726997 
L 558.919747 151.490612 
L 561.684102 145.426565 
L 563.461188 140.357155 
L 565.238274 136.562294 
L 567.212813 133.989892 
L 569.187353 132.318366 
L 570.964438 131.050396 
L 572.741524 129.628352 
L 574.518609 127.552994 
L 576.690603 124.480259 
L 578.467688 120.27718 
L 580.244774 115.02573 
L 582.021859 108.98389 
L 584.193853 102.515738 
L 587.748024 89.761748 
L 589.52511 83.949102 
L 593.474189 73.2765 
L 595.251274 67.869056 
L 599.002899 55.887636 
L 600.977439 49.851828 
L 602.754524 44.966376 
L 604.53161 42.620975 
L 606.506149 44.248636 
L 608.283235 50.877992 
L 610.652682 62.717948 
L 612.627222 78.934523 
L 614.799215 97.73145 
L 616.576301 116.733445 
L 618.55084 133.548776 
L 620.52538 146.325247 
L 622.302465 154.117845 
L 624.474459 156.970707 
L 626.448998 155.730153 
L 628.226084 151.69568 
L 630.398077 146.244645 
L 632.175163 140.546871 
L 633.952249 135.414405 
L 635.926788 131.276301 
L 637.901328 128.230432 
L 639.678413 126.122999 
L 641.455499 124.628303 
L 643.430038 123.318936 
L 645.404578 121.733494 
L 647.971479 119.442925 
L 649.748565 116.114676 
L 651.920558 111.563968 
L 653.697644 105.785043 
L 655.474729 98.953909 
L 657.251815 91.40531 
L 662.977979 69.045732 
L 667.124512 58.57957 
L 669.296506 55.339325 
L 671.073591 53.334426 
L 672.850677 52.287425 
L 675.02267 51.787366 
L 675.02267 51.787366 
" style="fill:none;stroke:#1f77b4;stroke-linecap:square;stroke-width:1.5;"/>
   </g>
   <g id="line2d_14">
    <defs>
     <path d="M -3 3 
L 3 -3 
M -3 -3 
L 3 3 
" id="mee60e24fd9" style="stroke:#ff0000;"/>
    </defs>
    <g clip-path="url(#p369337cb57)">
     <use style="fill:#ff0000;stroke:#ff0000;" x="190.27322" xlink:href="#mee60e24fd9" y="45.708515"/>
     <use style="fill:#ff0000;stroke:#ff0000;" x="323.159729" xlink:href="#mee60e24fd9" y="29.318125"/>
     <use style="fill:#ff0000;stroke:#ff0000;" x="393.255882" xlink:href="#mee60e24fd9" y="55.110131"/>
     <use style="fill:#ff0000;stroke:#ff0000;" x="463.944397" xlink:href="#mee60e24fd9" y="65.433458"/>
     <use style="fill:#ff0000;stroke:#ff0000;" x="532.263464" xlink:href="#mee60e24fd9" y="57.864298"/>
     <use style="fill:#ff0000;stroke:#ff0000;" x="604.53161" xlink:href="#mee60e24fd9" y="42.620975"/>
    </g>
   </g>
   <g id="line2d_15">
    <path clip-path="url(#p369337cb57)" d="M 190.27322 176.318125 
L 190.27322 22.318125 
" style="fill:none;stroke:#808080;stroke-dasharray:5.55,2.4;stroke-dashoffset:0;stroke-width:1.5;"/>
   </g>
   <g id="line2d_16">
    <path clip-path="url(#p369337cb57)" d="M 323.159729 176.318125 
L 323.159729 22.318125 
" style="fill:none;stroke:#808080;stroke-dasharray:5.55,2.4;stroke-dashoffset:0;stroke-width:1.5;"/>
   </g>
   <g id="line2d_17">
    <path clip-path="url(#p369337cb57)" d="M 393.255882 176.318125 
L 393.255882 22.318125 
" style="fill:none;stroke:#808080;stroke-dasharray:5.55,2.4;stroke-dashoffset:0;stroke-width:1.5;"/>
   </g>
   <g id="line2d_18">
    <path clip-path="url(#p369337cb57)" d="M 463.944397 176.318125 
L 463.944397 22.318125 
" style="fill:none;stroke:#808080;stroke-dasharray:5.55,2.4;stroke-dashoffset:0;stroke-width:1.5;"/>
   </g>
   <g id="line2d_19">
    <path clip-path="url(#p369337cb57)" d="M 532.263464 176.318125 
L 532.263464 22.318125 
" style="fill:none;stroke:#808080;stroke-dasharray:5.55,2.4;stroke-dashoffset:0;stroke-width:1.5;"/>
   </g>
   <g id="line2d_20">
    <path clip-path="url(#p369337cb57)" d="M 604.53161 176.318125 
L 604.53161 22.318125 
" style="fill:none;stroke:#808080;stroke-dasharray:5.55,2.4;stroke-dashoffset:0;stroke-width:1.5;"/>
   </g>
   <g id="patch_3">
    <path d="M 40.603125 176.318125 
L 40.603125 22.318125 
" style="fill:none;stroke:#000000;stroke-linecap:square;stroke-linejoin:miter;stroke-width:0.8;"/>
   </g>
   <g id="patch_4">
    <path d="M 705.233125 176.318125 
L 705.233125 22.318125 
" style="fill:none;stroke:#000000;stroke-linecap:square;stroke-linejoin:miter;stroke-width:0.8;"/>
   </g>
   <g id="patch_5">
    <path d="M 40.603125 176.318125 
L 705.233125 176.318125 
" style="fill:none;stroke:#000000;stroke-linecap:square;stroke-linejoin:miter;stroke-width:0.8;"/>
   </g>
   <g id="patch_6">
    <path d="M 40.603125 22.318125 
L 705.233125 22.318125 
" style="fill:none;stroke:#000000;stroke-linecap:square;stroke-linejoin:miter;stroke-width:0.8;"/>
   </g>
   <g id="text_16">
    <!-- Final Systolic Peaks -->
    <defs>
     <path d="M 9.8125 72.90625 
L 51.703125 72.90625 
L 51.703125 64.59375 
L 19.671875 64.59375 
L 19.671875 43.109375 
L 48.578125 43.109375 
L 48.578125 34.8125 
L 19.671875 34.8125 
L 19.671875 0 
L 9.8125 0 
z
" id="DejaVuSans-70"/>
     <path d="M 54.890625 33.015625 
L 54.890625 0 
L 45.90625 0 
L 45.90625 32.71875 
Q 45.90625 40.484375 42.875 44.328125 
Q 39.84375 48.1875 33.796875 48.1875 
Q 26.515625 48.1875 22.3125 43.546875 
Q 18.109375 38.921875 18.109375 30.90625 
L 18.109375 0 
L 9.078125 0 
L 9.078125 54.6875 
L 18.109375 54.6875 
L 18.109375 46.1875 
Q 21.34375 51.125 25.703125 53.5625 
Q 30.078125 56 35.796875 56 
Q 45.21875 56 50.046875 50.171875 
Q 54.890625 44.34375 54.890625 33.015625 
z
" id="DejaVuSans-110"/>
     <path d="M 53.515625 70.515625 
L 53.515625 60.890625 
Q 47.90625 63.578125 42.921875 64.890625 
Q 37.9375 66.21875 33.296875 66.21875 
Q 25.25 66.21875 20.875 63.09375 
Q 16.5 59.96875 16.5 54.203125 
Q 16.5 49.359375 19.40625 46.890625 
Q 22.3125 44.4375 30.421875 42.921875 
L 36.375 41.703125 
Q 47.40625 39.59375 52.65625 34.296875 
Q 57.90625 29 57.90625 20.125 
Q 57.90625 9.515625 50.796875 4.046875 
Q 43.703125 -1.421875 29.984375 -1.421875 
Q 24.8125 -1.421875 18.96875 -0.25 
Q 13.140625 0.921875 6.890625 3.21875 
L 6.890625 13.375 
Q 12.890625 10.015625 18.65625 8.296875 
Q 24.421875 6.59375 29.984375 6.59375 
Q 38.421875 6.59375 43.015625 9.90625 
Q 47.609375 13.234375 47.609375 19.390625 
Q 47.609375 24.75 44.3125 27.78125 
Q 41.015625 30.8125 33.5 32.328125 
L 27.484375 33.5 
Q 16.453125 35.6875 11.515625 40.375 
Q 6.59375 45.0625 6.59375 53.421875 
Q 6.59375 63.09375 13.40625 68.65625 
Q 20.21875 74.21875 32.171875 74.21875 
Q 37.3125 74.21875 42.625 73.28125 
Q 47.953125 72.359375 53.515625 70.515625 
z
" id="DejaVuSans-83"/>
     <path d="M 32.171875 -5.078125 
Q 28.375 -14.84375 24.75 -17.8125 
Q 21.140625 -20.796875 15.09375 -20.796875 
L 7.90625 -20.796875 
L 7.90625 -13.28125 
L 13.1875 -13.28125 
Q 16.890625 -13.28125 18.9375 -11.515625 
Q 21 -9.765625 23.484375 -3.21875 
L 25.09375 0.875 
L 2.984375 54.6875 
L 12.5 54.6875 
L 29.59375 11.921875 
L 46.6875 54.6875 
L 56.203125 54.6875 
z
" id="DejaVuSans-121"/>
     <path d="M 18.3125 70.21875 
L 18.3125 54.6875 
L 36.8125 54.6875 
L 36.8125 47.703125 
L 18.3125 47.703125 
L 18.3125 18.015625 
Q 18.3125 11.328125 20.140625 9.421875 
Q 21.96875 7.515625 27.59375 7.515625 
L 36.8125 7.515625 
L 36.8125 0 
L 27.59375 0 
Q 17.1875 0 13.234375 3.875 
Q 9.28125 7.765625 9.28125 18.015625 
L 9.28125 47.703125 
L 2.6875 47.703125 
L 2.6875 54.6875 
L 9.28125 54.6875 
L 9.28125 70.21875 
z
" id="DejaVuSans-116"/>
     <path d="M 30.609375 48.390625 
Q 23.390625 48.390625 19.1875 42.75 
Q 14.984375 37.109375 14.984375 27.296875 
Q 14.984375 17.484375 19.15625 11.84375 
Q 23.34375 6.203125 30.609375 6.203125 
Q 37.796875 6.203125 41.984375 11.859375 
Q 46.1875 17.53125 46.1875 27.296875 
Q 46.1875 37.015625 41.984375 42.703125 
Q 37.796875 48.390625 30.609375 48.390625 
z
M 30.609375 56 
Q 42.328125 56 49.015625 48.375 
Q 55.71875 40.765625 55.71875 27.296875 
Q 55.71875 13.875 49.015625 6.21875 
Q 42.328125 -1.421875 30.609375 -1.421875 
Q 18.84375 -1.421875 12.171875 6.21875 
Q 5.515625 13.875 5.515625 27.296875 
Q 5.515625 40.765625 12.171875 48.375 
Q 18.84375 56 30.609375 56 
z
" id="DejaVuSans-111"/>
     <path d="M 48.78125 52.59375 
L 48.78125 44.1875 
Q 44.96875 46.296875 41.140625 47.34375 
Q 37.3125 48.390625 33.40625 48.390625 
Q 24.65625 48.390625 19.8125 42.84375 
Q 14.984375 37.3125 14.984375 27.296875 
Q 14.984375 17.28125 19.8125 11.734375 
Q 24.65625 6.203125 33.40625 6.203125 
Q 37.3125 6.203125 41.140625 7.25 
Q 44.96875 8.296875 48.78125 10.40625 
L 48.78125 2.09375 
Q 45.015625 0.34375 40.984375 -0.53125 
Q 36.96875 -1.421875 32.421875 -1.421875 
Q 20.0625 -1.421875 12.78125 6.34375 
Q 5.515625 14.109375 5.515625 27.296875 
Q 5.515625 40.671875 12.859375 48.328125 
Q 20.21875 56 33.015625 56 
Q 37.15625 56 41.109375 55.140625 
Q 45.0625 54.296875 48.78125 52.59375 
z
" id="DejaVuSans-99"/>
     <path d="M 19.671875 64.796875 
L 19.671875 37.40625 
L 32.078125 37.40625 
Q 38.96875 37.40625 42.71875 40.96875 
Q 46.484375 44.53125 46.484375 51.125 
Q 46.484375 57.671875 42.71875 61.234375 
Q 38.96875 64.796875 32.078125 64.796875 
z
M 9.8125 72.90625 
L 32.078125 72.90625 
Q 44.34375 72.90625 50.609375 67.359375 
Q 56.890625 61.8125 56.890625 51.125 
Q 56.890625 40.328125 50.609375 34.8125 
Q 44.34375 29.296875 32.078125 29.296875 
L 19.671875 29.296875 
L 19.671875 0 
L 9.8125 0 
z
" id="DejaVuSans-80"/>
     <path d="M 9.078125 75.984375 
L 18.109375 75.984375 
L 18.109375 31.109375 
L 44.921875 54.6875 
L 56.390625 54.6875 
L 27.390625 29.109375 
L 57.625 0 
L 45.90625 0 
L 18.109375 26.703125 
L 18.109375 0 
L 9.078125 0 
z
" id="DejaVuSans-107"/>
    </defs>
    <g transform="translate(314.120938 16.318125)scale(0.12 -0.12)">
     <use xlink:href="#DejaVuSans-70"/>
     <use x="57.410156" xlink:href="#DejaVuSans-105"/>
     <use x="85.193359" xlink:href="#DejaVuSans-110"/>
     <use x="148.572266" xlink:href="#DejaVuSans-97"/>
     <use x="209.851562" xlink:href="#DejaVuSans-108"/>
     <use x="237.634766" xlink:href="#DejaVuSans-32"/>
     <use x="269.421875" xlink:href="#DejaVuSans-83"/>
     <use x="332.898438" xlink:href="#DejaVuSans-121"/>
     <use x="392.078125" xlink:href="#DejaVuSans-115"/>
     <use x="444.177734" xlink:href="#DejaVuSans-116"/>
     <use x="483.386719" xlink:href="#DejaVuSans-111"/>
     <use x="544.568359" xlink:href="#DejaVuSans-108"/>
     <use x="572.351562" xlink:href="#DejaVuSans-105"/>
     <use x="600.134766" xlink:href="#DejaVuSans-99"/>
     <use x="655.115234" xlink:href="#DejaVuSans-32"/>
     <use x="686.902344" xlink:href="#DejaVuSans-80"/>
     <use x="747.158203" xlink:href="#DejaVuSans-101"/>
     <use x="808.681641" xlink:href="#DejaVuSans-97"/>
     <use x="869.960938" xlink:href="#DejaVuSans-107"/>
     <use x="927.871094" xlink:href="#DejaVuSans-115"/>
    </g>
   </g>
  </g>
  <g id="axes_2">
   <g id="patch_7">
    <path d="M 40.603125 386.918125 
L 705.233125 386.918125 
L 705.233125 232.918125 
L 40.603125 232.918125 
z
" style="fill:#ffffff;"/>
   </g>
   <g id="matplotlib.axis_3">
    <g id="xtick_7">
     <g id="line2d_21">
      <g>
       <use style="stroke:#000000;stroke-width:0.8;" x="136.368291" xlink:href="#mcf8ce411ce" y="386.918125"/>
      </g>
     </g>
     <g id="text_17">
      <!-- 6.580 -->
      <g transform="translate(122.054229 401.516562)scale(0.1 -0.1)">
       <use xlink:href="#DejaVuSans-54"/>
       <use x="63.623047" xlink:href="#DejaVuSans-46"/>
       <use x="95.410156" xlink:href="#DejaVuSans-53"/>
       <use x="159.033203" xlink:href="#DejaVuSans-56"/>
       <use x="222.65625" xlink:href="#DejaVuSans-48"/>
      </g>
     </g>
    </g>
    <g id="xtick_8">
     <g id="line2d_22">
      <g>
       <use style="stroke:#000000;stroke-width:0.8;" x="235.095267" xlink:href="#mcf8ce411ce" y="386.918125"/>
      </g>
     </g>
     <g id="text_18">
      <!-- 6.585 -->
      <g transform="translate(220.781205 401.516562)scale(0.1 -0.1)">
       <use xlink:href="#DejaVuSans-54"/>
       <use x="63.623047" xlink:href="#DejaVuSans-46"/>
       <use x="95.410156" xlink:href="#DejaVuSans-53"/>
       <use x="159.033203" xlink:href="#DejaVuSans-56"/>
       <use x="222.65625" xlink:href="#DejaVuSans-53"/>
      </g>
     </g>
    </g>
    <g id="xtick_9">
     <g id="line2d_23">
      <g>
       <use style="stroke:#000000;stroke-width:0.8;" x="333.822243" xlink:href="#mcf8ce411ce" y="386.918125"/>
      </g>
     </g>
     <g id="text_19">
      <!-- 6.590 -->
      <g transform="translate(319.50818 401.516562)scale(0.1 -0.1)">
       <use xlink:href="#DejaVuSans-54"/>
       <use x="63.623047" xlink:href="#DejaVuSans-46"/>
       <use x="95.410156" xlink:href="#DejaVuSans-53"/>
       <use x="159.033203" xlink:href="#DejaVuSans-57"/>
       <use x="222.65625" xlink:href="#DejaVuSans-48"/>
      </g>
     </g>
    </g>
    <g id="xtick_10">
     <g id="line2d_24">
      <g>
       <use style="stroke:#000000;stroke-width:0.8;" x="432.549218" xlink:href="#mcf8ce411ce" y="386.918125"/>
      </g>
     </g>
     <g id="text_20">
      <!-- 6.595 -->
      <g transform="translate(418.235156 401.516562)scale(0.1 -0.1)">
       <use xlink:href="#DejaVuSans-54"/>
       <use x="63.623047" xlink:href="#DejaVuSans-46"/>
       <use x="95.410156" xlink:href="#DejaVuSans-53"/>
       <use x="159.033203" xlink:href="#DejaVuSans-57"/>
       <use x="222.65625" xlink:href="#DejaVuSans-53"/>
      </g>
     </g>
    </g>
    <g id="xtick_11">
     <g id="line2d_25">
      <g>
       <use style="stroke:#000000;stroke-width:0.8;" x="531.276194" xlink:href="#mcf8ce411ce" y="386.918125"/>
      </g>
     </g>
     <g id="text_21">
      <!-- 6.600 -->
      <g transform="translate(516.962131 401.516562)scale(0.1 -0.1)">
       <use xlink:href="#DejaVuSans-54"/>
       <use x="63.623047" xlink:href="#DejaVuSans-46"/>
       <use x="95.410156" xlink:href="#DejaVuSans-54"/>
       <use x="159.033203" xlink:href="#DejaVuSans-48"/>
       <use x="222.65625" xlink:href="#DejaVuSans-48"/>
      </g>
     </g>
    </g>
    <g id="xtick_12">
     <g id="line2d_26">
      <g>
       <use style="stroke:#000000;stroke-width:0.8;" x="630.00317" xlink:href="#mcf8ce411ce" y="386.918125"/>
      </g>
     </g>
     <g id="text_22">
      <!-- 6.605 -->
      <g transform="translate(615.689107 401.516562)scale(0.1 -0.1)">
       <use xlink:href="#DejaVuSans-54"/>
       <use x="63.623047" xlink:href="#DejaVuSans-46"/>
       <use x="95.410156" xlink:href="#DejaVuSans-54"/>
       <use x="159.033203" xlink:href="#DejaVuSans-48"/>
       <use x="222.65625" xlink:href="#DejaVuSans-53"/>
      </g>
     </g>
    </g>
    <g id="text_23">
     <!-- Time (ms) -->
     <g transform="translate(347.565 415.194687)scale(0.1 -0.1)">
      <use xlink:href="#DejaVuSans-84"/>
      <use x="61.037109" xlink:href="#DejaVuSans-105"/>
      <use x="88.820312" xlink:href="#DejaVuSans-109"/>
      <use x="186.232422" xlink:href="#DejaVuSans-101"/>
      <use x="247.755859" xlink:href="#DejaVuSans-32"/>
      <use x="279.542969" xlink:href="#DejaVuSans-40"/>
      <use x="318.556641" xlink:href="#DejaVuSans-109"/>
      <use x="415.96875" xlink:href="#DejaVuSans-115"/>
      <use x="468.068359" xlink:href="#DejaVuSans-41"/>
     </g>
    </g>
    <g id="text_24">
     <!-- 1e5 -->
     <g transform="translate(686.355 414.194687)scale(0.1 -0.1)">
      <use xlink:href="#DejaVuSans-49"/>
      <use x="63.623047" xlink:href="#DejaVuSans-101"/>
      <use x="125.146484" xlink:href="#DejaVuSans-53"/>
     </g>
    </g>
   </g>
   <g id="matplotlib.axis_4">
    <g id="ytick_7">
     <g id="line2d_27">
      <g>
       <use style="stroke:#000000;stroke-width:0.8;" x="40.603125" xlink:href="#m660efcfb7c" y="372.08084"/>
      </g>
     </g>
     <g id="text_25">
      <!-- 0 -->
      <g transform="translate(27.240625 375.880059)scale(0.1 -0.1)">
       <use xlink:href="#DejaVuSans-48"/>
      </g>
     </g>
    </g>
    <g id="ytick_8">
     <g id="line2d_28">
      <g>
       <use style="stroke:#000000;stroke-width:0.8;" x="40.603125" xlink:href="#m660efcfb7c" y="344.665285"/>
      </g>
     </g>
     <g id="text_26">
      <!-- 10 -->
      <g transform="translate(20.878125 348.464504)scale(0.1 -0.1)">
       <use xlink:href="#DejaVuSans-49"/>
       <use x="63.623047" xlink:href="#DejaVuSans-48"/>
      </g>
     </g>
    </g>
    <g id="ytick_9">
     <g id="line2d_29">
      <g>
       <use style="stroke:#000000;stroke-width:0.8;" x="40.603125" xlink:href="#m660efcfb7c" y="317.24973"/>
      </g>
     </g>
     <g id="text_27">
      <!-- 20 -->
      <g transform="translate(20.878125 321.048949)scale(0.1 -0.1)">
       <use xlink:href="#DejaVuSans-50"/>
       <use x="63.623047" xlink:href="#DejaVuSans-48"/>
      </g>
     </g>
    </g>
    <g id="ytick_10">
     <g id="line2d_30">
      <g>
       <use style="stroke:#000000;stroke-width:0.8;" x="40.603125" xlink:href="#m660efcfb7c" y="289.834175"/>
      </g>
     </g>
     <g id="text_28">
      <!-- 30 -->
      <g transform="translate(20.878125 293.633393)scale(0.1 -0.1)">
       <use xlink:href="#DejaVuSans-51"/>
       <use x="63.623047" xlink:href="#DejaVuSans-48"/>
      </g>
     </g>
    </g>
    <g id="ytick_11">
     <g id="line2d_31">
      <g>
       <use style="stroke:#000000;stroke-width:0.8;" x="40.603125" xlink:href="#m660efcfb7c" y="262.418619"/>
      </g>
     </g>
     <g id="text_29">
      <!-- 40 -->
      <g transform="translate(20.878125 266.217838)scale(0.1 -0.1)">
       <use xlink:href="#DejaVuSans-52"/>
       <use x="63.623047" xlink:href="#DejaVuSans-48"/>
      </g>
     </g>
    </g>
    <g id="ytick_12">
     <g id="line2d_32">
      <g>
       <use style="stroke:#000000;stroke-width:0.8;" x="40.603125" xlink:href="#m660efcfb7c" y="235.003064"/>
      </g>
     </g>
     <g id="text_30">
      <!-- 50 -->
      <g transform="translate(20.878125 238.802283)scale(0.1 -0.1)">
       <use xlink:href="#DejaVuSans-53"/>
       <use x="63.623047" xlink:href="#DejaVuSans-48"/>
      </g>
     </g>
    </g>
    <g id="text_31">
     <!-- ADC Value -->
     <g transform="translate(14.798438 336.382187)rotate(-90)scale(0.1 -0.1)">
      <use xlink:href="#DejaVuSans-65"/>
      <use x="68.408203" xlink:href="#DejaVuSans-68"/>
      <use x="145.410156" xlink:href="#DejaVuSans-67"/>
      <use x="215.234375" xlink:href="#DejaVuSans-32"/>
      <use x="247.021484" xlink:href="#DejaVuSans-86"/>
      <use x="315.320312" xlink:href="#DejaVuSans-97"/>
      <use x="376.599609" xlink:href="#DejaVuSans-108"/>
      <use x="404.382812" xlink:href="#DejaVuSans-117"/>
      <use x="467.761719" xlink:href="#DejaVuSans-101"/>
     </g>
    </g>
   </g>
   <g id="line2d_33">
    <path clip-path="url(#p2529111150)" d="M 70.81358 372.040539 
L 72.788119 367.075582 
L 78.119376 352.37262 
L 80.093915 347.889628 
L 83.84554 340.51457 
L 85.622626 337.732714 
L 89.571705 333.133754 
L 91.34879 330.597267 
L 93.125876 327.401984 
L 97.074955 318.351561 
L 100.629126 306.686791 
L 103.788389 300.672914 
L 111.489094 277.640284 
L 113.463633 271.363767 
L 115.240719 264.999794 
L 117.017804 259.288311 
L 118.992344 255.393383 
L 121.164337 254.674273 
L 123.336331 258.321091 
L 125.113416 266.948766 
L 127.087956 280.291917 
L 129.062495 297.117391 
L 133.011574 332.823136 
L 134.78866 347.145844 
L 136.565745 356.821891 
L 138.540285 361.186173 
L 140.514824 360.493382 
L 142.29191 355.735412 
L 149.79516 324.958984 
L 151.572246 320.209513 
L 153.349331 317.61655 
L 155.521325 316.877975 
L 157.29841 317.342669 
L 159.075496 318.161023 
L 160.852581 318.474383 
L 163.024575 317.606406 
L 164.80166 315.2059 
L 166.578746 311.30686 
L 174.27945 289.791955 
L 178.031075 280.300689 
L 180.400523 275.531754 
L 182.177608 270.401755 
L 186.324141 260.077605 
L 188.298681 256.686027 
L 190.27322 256.308515 
L 192.050306 260.293091 
L 193.827391 269.429325 
L 197.77647 301.595448 
L 201.330641 340.70922 
L 203.107727 357.216949 
L 205.27972 369.458268 
L 207.056806 376.880207 
L 208.833891 379.821896 
L 210.610977 379.22835 
L 212.585517 376.270211 
L 214.560056 372.022993 
L 218.114227 362.582721 
L 220.088767 358.18883 
L 223.840392 350.867232 
L 225.617477 347.961457 
L 227.394563 345.364382 
L 229.369102 342.744277 
L 231.541096 339.668252 
L 233.515635 335.711913 
L 235.292721 330.595074 
L 239.044346 317.055628 
L 241.018886 309.361178 
L 242.795971 301.742944 
L 244.573057 294.631623 
L 246.350142 288.23667 
L 248.522136 282.541089 
L 250.299221 277.416299 
L 252.076307 272.814872 
L 253.853392 268.959423 
L 256.025386 266.444594 
L 257.802471 266.188258 
L 259.579557 269.216032 
L 261.356643 276.332836 
L 263.331182 287.776637 
L 265.305722 302.983223 
L 268.859893 338.545311 
L 271.031886 354.769288 
L 273.401334 367.387297 
L 275.178419 375.22842 
L 276.955505 377.976555 
L 278.73259 376.124635 
L 280.904584 370.7627 
L 282.681669 363.293332 
L 284.458755 355.156944 
L 286.23584 347.611361 
L 288.012926 341.575552 
L 290.777281 337.531209 
L 292.554367 335.477784 
L 294.331452 334.948664 
L 296.108538 335.102739 
L 298.280531 334.889446 
L 300.057617 333.263978 
L 301.834703 329.414834 
L 303.611788 322.946682 
L 305.586328 313.967814 
L 307.560867 303.056971 
L 309.337953 291.11311 
L 311.509946 279.136077 
L 313.287032 268.007006 
L 315.261571 258.347135 
L 317.038657 250.502997 
L 319.013196 244.655807 
L 320.987736 241.003233 
L 323.159729 239.918125 
L 324.936815 241.993208 
L 327.108808 247.91771 
L 329.083348 258.203478 
L 330.860433 272.851609 
L 333.229881 291.107627 
L 335.006966 311.435987 
L 338.758591 349.968824 
L 340.733131 364.32827 
L 342.510217 373.939341 
L 344.68221 378.794087 
L 346.459296 379.619295 
L 348.433835 377.543938 
L 350.408375 373.742771 
L 355.739631 360.048976 
L 357.911625 355.983249 
L 359.68871 352.327933 
L 363.242881 345.950252 
L 365.414875 342.848456 
L 367.19196 339.391629 
L 368.969046 335.216514 
L 370.746132 330.031958 
L 372.720671 323.730767 
L 374.695211 316.461258 
L 378.249382 300.768046 
L 380.223921 293.457414 
L 382.198461 287.08412 
L 383.975546 281.772356 
L 385.752632 277.379288 
L 389.504257 270.288255 
L 391.478796 267.475419 
L 393.255882 265.710131 
L 395.032968 265.918763 
L 397.007507 269.191907 
L 398.982047 276.412067 
L 400.759132 287.863545 
L 402.931126 302.985691 
L 405.103119 320.378119 
L 408.854744 354.086641 
L 410.63183 366.756465 
L 413.001277 375.222389 
L 415.173271 379.418888 
L 418.13508 379.918125 
L 419.912165 377.627281 
L 421.689251 373.494386 
L 424.058698 368.327102 
L 425.835784 362.741731 
L 431.759402 347.709508 
L 433.931396 344.221153 
L 435.708482 341.627093 
L 437.485567 339.706359 
L 439.262653 338.058959 
L 441.434646 336.21115 
L 443.211732 333.754991 
L 444.988817 330.45827 
L 446.765903 326.290557 
L 448.740442 321.363434 
L 450.714982 315.821379 
L 452.492067 309.757607 
L 456.243692 296.277378 
L 459.995318 282.803181 
L 462.167311 277.969545 
L 463.944397 276.033458 
L 465.721482 278.197916 
L 467.893476 285.192995 
L 469.670561 296.940561 
L 471.447647 312.422399 
L 473.61964 329.818939 
L 477.371265 361.536269 
L 479.148351 372.159249 
L 481.12289 378.027822 
L 483.09743 379.252749 
L 484.874515 376.617292 
L 486.651601 371.296481 
L 488.62614 364.576929 
L 490.403226 357.646002 
L 492.377766 351.458037 
L 494.154851 346.670459 
L 496.129391 343.615818 
L 497.906476 342.300968 
L 499.881016 342.426257 
L 503.632641 344.600036 
L 505.60718 345.140122 
L 507.384266 344.359876 
L 509.556259 341.781717 
L 511.333345 337.244991 
L 513.11043 330.935575 
L 514.887516 323.332967 
L 517.059509 315.074031 
L 520.613681 298.887339 
L 522.785674 291.603575 
L 524.56276 284.940498 
L 526.537299 278.89948 
L 528.511839 273.691073 
L 530.486378 269.895938 
L 532.263464 268.464298 
L 534.435457 270.506757 
L 536.409997 276.921722 
L 538.384536 287.985818 
L 542.136161 320.725474 
L 543.913247 338.798356 
L 545.887786 355.098 
L 547.664872 367.816899 
L 549.441957 375.909697 
L 551.416497 379.2119 
L 553.391036 378.320072 
L 555.168122 374.326997 
L 558.919747 362.090612 
L 561.684102 356.026565 
L 563.461188 350.957155 
L 565.238274 347.162294 
L 567.212813 344.589892 
L 569.187353 342.918366 
L 570.964438 341.650396 
L 572.741524 340.228352 
L 574.518609 338.152994 
L 576.690603 335.080259 
L 578.467688 330.87718 
L 580.244774 325.62573 
L 582.021859 319.58389 
L 584.193853 313.115738 
L 587.748024 300.361748 
L 589.52511 294.549102 
L 593.474189 283.8765 
L 595.251274 278.469056 
L 599.002899 266.487636 
L 600.977439 260.451828 
L 602.754524 255.566376 
L 604.53161 253.220975 
L 606.506149 254.848636 
L 608.283235 261.477992 
L 610.652682 273.317948 
L 612.627222 289.534523 
L 614.799215 308.33145 
L 616.576301 327.333445 
L 618.55084 344.148776 
L 620.52538 356.925247 
L 622.302465 364.717845 
L 624.474459 367.570707 
L 626.448998 366.330153 
L 628.226084 362.29568 
L 630.398077 356.844645 
L 632.175163 351.146871 
L 633.952249 346.014405 
L 635.926788 341.876301 
L 637.901328 338.830432 
L 639.678413 336.722999 
L 641.455499 335.228303 
L 643.430038 333.918936 
L 645.404578 332.333494 
L 647.971479 330.042925 
L 649.748565 326.714676 
L 651.920558 322.163968 
L 653.697644 316.385043 
L 655.474729 309.553909 
L 657.251815 302.00531 
L 662.977979 279.645732 
L 667.124512 269.17957 
L 669.296506 265.939325 
L 671.073591 263.934426 
L 672.850677 262.887425 
L 675.02267 262.387366 
L 675.02267 262.387366 
" style="fill:none;stroke:#1f77b4;stroke-linecap:square;stroke-width:1.5;"/>
   </g>
   <g id="line2d_34">
    <g clip-path="url(#p2529111150)">
     <use style="fill:#ff0000;stroke:#ff0000;" x="227.394563" xlink:href="#mee60e24fd9" y="345.364382"/>
     <use style="fill:#ff0000;stroke:#ff0000;" x="296.108538" xlink:href="#mee60e24fd9" y="335.102739"/>
     <use style="fill:#ff0000;stroke:#ff0000;" x="363.242881" xlink:href="#mee60e24fd9" y="345.950252"/>
     <use style="fill:#ff0000;stroke:#ff0000;" x="439.262653" xlink:href="#mee60e24fd9" y="338.058959"/>
     <use style="fill:#ff0000;stroke:#ff0000;" x="503.632641" xlink:href="#mee60e24fd9" y="344.600036"/>
     <use style="fill:#ff0000;stroke:#ff0000;" x="570.964438" xlink:href="#mee60e24fd9" y="341.650396"/>
    </g>
   </g>
   <g id="line2d_35">
    <path clip-path="url(#p2529111150)" d="M 227.394563 386.918125 
L 227.394563 232.918125 
" style="fill:none;stroke:#808080;stroke-dasharray:5.55,2.4;stroke-dashoffset:0;stroke-width:1.5;"/>
   </g>
   <g id="line2d_36">
    <path clip-path="url(#p2529111150)" d="M 296.108538 386.918125 
L 296.108538 232.918125 
" style="fill:none;stroke:#808080;stroke-dasharray:5.55,2.4;stroke-dashoffset:0;stroke-width:1.5;"/>
   </g>
   <g id="line2d_37">
    <path clip-path="url(#p2529111150)" d="M 363.242881 386.918125 
L 363.242881 232.918125 
" style="fill:none;stroke:#808080;stroke-dasharray:5.55,2.4;stroke-dashoffset:0;stroke-width:1.5;"/>
   </g>
   <g id="line2d_38">
    <path clip-path="url(#p2529111150)" d="M 439.262653 386.918125 
L 439.262653 232.918125 
" style="fill:none;stroke:#808080;stroke-dasharray:5.55,2.4;stroke-dashoffset:0;stroke-width:1.5;"/>
   </g>
   <g id="line2d_39">
    <path clip-path="url(#p2529111150)" d="M 503.632641 386.918125 
L 503.632641 232.918125 
" style="fill:none;stroke:#808080;stroke-dasharray:5.55,2.4;stroke-dashoffset:0;stroke-width:1.5;"/>
   </g>
   <g id="line2d_40">
    <path clip-path="url(#p2529111150)" d="M 570.964438 386.918125 
L 570.964438 232.918125 
" style="fill:none;stroke:#808080;stroke-dasharray:5.55,2.4;stroke-dashoffset:0;stroke-width:1.5;"/>
   </g>
   <g id="patch_8">
    <path d="M 40.603125 386.918125 
L 40.603125 232.918125 
" style="fill:none;stroke:#000000;stroke-linecap:square;stroke-linejoin:miter;stroke-width:0.8;"/>
   </g>
   <g id="patch_9">
    <path d="M 705.233125 386.918125 
L 705.233125 232.918125 
" style="fill:none;stroke:#000000;stroke-linecap:square;stroke-linejoin:miter;stroke-width:0.8;"/>
   </g>
   <g id="patch_10">
    <path d="M 40.603125 386.918125 
L 705.233125 386.918125 
" style="fill:none;stroke:#000000;stroke-linecap:square;stroke-linejoin:miter;stroke-width:0.8;"/>
   </g>
   <g id="patch_11">
    <path d="M 40.603125 232.918125 
L 705.233125 232.918125 
" style="fill:none;stroke:#000000;stroke-linecap:square;stroke-linejoin:miter;stroke-width:0.8;"/>
   </g>
   <g id="text_32">
    <!-- Final Diastolic Peaks -->
    <g transform="translate(311.5175 226.918125)scale(0.12 -0.12)">
     <use xlink:href="#DejaVuSans-70"/>
     <use x="57.410156" xlink:href="#DejaVuSans-105"/>
     <use x="85.193359" xlink:href="#DejaVuSans-110"/>
     <use x="148.572266" xlink:href="#DejaVuSans-97"/>
     <use x="209.851562" xlink:href="#DejaVuSans-108"/>
     <use x="237.634766" xlink:href="#DejaVuSans-32"/>
     <use x="269.421875" xlink:href="#DejaVuSans-68"/>
     <use x="346.423828" xlink:href="#DejaVuSans-105"/>
     <use x="374.207031" xlink:href="#DejaVuSans-97"/>
     <use x="435.486328" xlink:href="#DejaVuSans-115"/>
     <use x="487.585938" xlink:href="#DejaVuSans-116"/>
     <use x="526.794922" xlink:href="#DejaVuSans-111"/>
     <use x="587.976562" xlink:href="#DejaVuSans-108"/>
     <use x="615.759766" xlink:href="#DejaVuSans-105"/>
     <use x="643.542969" xlink:href="#DejaVuSans-99"/>
     <use x="698.523438" xlink:href="#DejaVuSans-32"/>
     <use x="730.310547" xlink:href="#DejaVuSans-80"/>
     <use x="790.566406" xlink:href="#DejaVuSans-101"/>
     <use x="852.089844" xlink:href="#DejaVuSans-97"/>
     <use x="913.369141" xlink:href="#DejaVuSans-107"/>
     <use x="971.279297" xlink:href="#DejaVuSans-115"/>
    </g>
   </g>
  </g>
 </g>
 <defs>
  <clipPath id="p369337cb57">
   <rect height="154" width="664.63" x="40.603125" y="22.318125"/>
  </clipPath>
  <clipPath id="p2529111150">
   <rect height="154" width="664.63" x="40.603125" y="232.918125"/>
  </clipPath>
 </defs>
</svg>
