<?xml version="1.0" encoding="utf-8" standalone="no"?>
<!DOCTYPE svg PUBLIC "-//W3C//DTD SVG 1.1//EN"
  "http://www.w3.org/Graphics/SVG/1.1/DTD/svg11.dtd">
<!-- Created with matplotlib (https://matplotlib.org/) -->
<svg height="424.474375pt" version="1.1" viewBox="0 0 712.433125 424.474375" width="712.433125pt" xmlns="http://www.w3.org/2000/svg" xmlns:xlink="http://www.w3.org/1999/xlink">
 <defs>
  <style type="text/css">
*{stroke-linecap:butt;stroke-linejoin:round;}
  </style>
 </defs>
 <g id="figure_1">
  <g id="patch_1">
   <path d="M 0 424.474375 
L 712.433125 424.474375 
L 712.433125 0 
L 0 0 
z
" style="fill:#ffffff;"/>
  </g>
  <g id="axes_1">
   <g id="patch_2">
    <path d="M 40.603125 176.318125 
L 705.233125 176.318125 
L 705.233125 22.318125 
L 40.603125 22.318125 
z
" style="fill:#ffffff;"/>
   </g>
   <g id="matplotlib.axis_1">
    <g id="xtick_1">
     <g id="line2d_1">
      <defs>
       <path d="M 0 0 
L 0 3.5 
" id="m8e5e013618" style="stroke:#000000;stroke-width:0.8;"/>
      </defs>
      <g>
       <use style="stroke:#000000;stroke-width:0.8;" x="84.670108" xlink:href="#m8e5e013618" y="176.318125"/>
      </g>
     </g>
     <g id="text_1">
      <!-- 2.3 -->
      <defs>
       <path d="M 19.1875 8.296875 
L 53.609375 8.296875 
L 53.609375 0 
L 7.328125 0 
L 7.328125 8.296875 
Q 12.9375 14.109375 22.625 23.890625 
Q 32.328125 33.6875 34.8125 36.53125 
Q 39.546875 41.84375 41.421875 45.53125 
Q 43.3125 49.21875 43.3125 52.78125 
Q 43.3125 58.59375 39.234375 62.25 
Q 35.15625 65.921875 28.609375 65.921875 
Q 23.96875 65.921875 18.8125 64.3125 
Q 13.671875 62.703125 7.8125 59.421875 
L 7.8125 69.390625 
Q 13.765625 71.78125 18.9375 73 
Q 24.125 74.21875 28.421875 74.21875 
Q 39.75 74.21875 46.484375 68.546875 
Q 53.21875 62.890625 53.21875 53.421875 
Q 53.21875 48.921875 51.53125 44.890625 
Q 49.859375 40.875 45.40625 35.40625 
Q 44.1875 33.984375 37.640625 27.21875 
Q 31.109375 20.453125 19.1875 8.296875 
z
" id="DejaVuSans-50"/>
       <path d="M 10.6875 12.40625 
L 21 12.40625 
L 21 0 
L 10.6875 0 
z
" id="DejaVuSans-46"/>
       <path d="M 40.578125 39.3125 
Q 47.65625 37.796875 51.625 33 
Q 55.609375 28.21875 55.609375 21.1875 
Q 55.609375 10.40625 48.1875 4.484375 
Q 40.765625 -1.421875 27.09375 -1.421875 
Q 22.515625 -1.421875 17.65625 -0.515625 
Q 12.796875 0.390625 7.625 2.203125 
L 7.625 11.71875 
Q 11.71875 9.328125 16.59375 8.109375 
Q 21.484375 6.890625 26.8125 6.890625 
Q 36.078125 6.890625 40.9375 10.546875 
Q 45.796875 14.203125 45.796875 21.1875 
Q 45.796875 27.640625 41.28125 31.265625 
Q 36.765625 34.90625 28.71875 34.90625 
L 20.21875 34.90625 
L 20.21875 43.015625 
L 29.109375 43.015625 
Q 36.375 43.015625 40.234375 45.921875 
Q 44.09375 48.828125 44.09375 54.296875 
Q 44.09375 59.90625 40.109375 62.90625 
Q 36.140625 65.921875 28.71875 65.921875 
Q 24.65625 65.921875 20.015625 65.03125 
Q 15.375 64.15625 9.8125 62.3125 
L 9.8125 71.09375 
Q 15.4375 72.65625 20.34375 73.4375 
Q 25.25 74.21875 29.59375 74.21875 
Q 40.828125 74.21875 47.359375 69.109375 
Q 53.90625 64.015625 53.90625 55.328125 
Q 53.90625 49.265625 50.4375 45.09375 
Q 46.96875 40.921875 40.578125 39.3125 
z
" id="DejaVuSans-51"/>
      </defs>
      <g transform="translate(76.718546 190.916562)scale(0.1 -0.1)">
       <use xlink:href="#DejaVuSans-50"/>
       <use x="63.623047" xlink:href="#DejaVuSans-46"/>
       <use x="95.410156" xlink:href="#DejaVuSans-51"/>
      </g>
     </g>
    </g>
    <g id="xtick_2">
     <g id="line2d_2">
      <g>
       <use style="stroke:#000000;stroke-width:0.8;" x="192.085058" xlink:href="#m8e5e013618" y="176.318125"/>
      </g>
     </g>
     <g id="text_2">
      <!-- 2.4 -->
      <defs>
       <path d="M 37.796875 64.3125 
L 12.890625 25.390625 
L 37.796875 25.390625 
z
M 35.203125 72.90625 
L 47.609375 72.90625 
L 47.609375 25.390625 
L 58.015625 25.390625 
L 58.015625 17.1875 
L 47.609375 17.1875 
L 47.609375 0 
L 37.796875 0 
L 37.796875 17.1875 
L 4.890625 17.1875 
L 4.890625 26.703125 
z
" id="DejaVuSans-52"/>
      </defs>
      <g transform="translate(184.133495 190.916562)scale(0.1 -0.1)">
       <use xlink:href="#DejaVuSans-50"/>
       <use x="63.623047" xlink:href="#DejaVuSans-46"/>
       <use x="95.410156" xlink:href="#DejaVuSans-52"/>
      </g>
     </g>
    </g>
    <g id="xtick_3">
     <g id="line2d_3">
      <g>
       <use style="stroke:#000000;stroke-width:0.8;" x="299.500007" xlink:href="#m8e5e013618" y="176.318125"/>
      </g>
     </g>
     <g id="text_3">
      <!-- 2.5 -->
      <defs>
       <path d="M 10.796875 72.90625 
L 49.515625 72.90625 
L 49.515625 64.59375 
L 19.828125 64.59375 
L 19.828125 46.734375 
Q 21.96875 47.46875 24.109375 47.828125 
Q 26.265625 48.1875 28.421875 48.1875 
Q 40.625 48.1875 47.75 41.5 
Q 54.890625 34.8125 54.890625 23.390625 
Q 54.890625 11.625 47.5625 5.09375 
Q 40.234375 -1.421875 26.90625 -1.421875 
Q 22.3125 -1.421875 17.546875 -0.640625 
Q 12.796875 0.140625 7.71875 1.703125 
L 7.71875 11.625 
Q 12.109375 9.234375 16.796875 8.0625 
Q 21.484375 6.890625 26.703125 6.890625 
Q 35.15625 6.890625 40.078125 11.328125 
Q 45.015625 15.765625 45.015625 23.390625 
Q 45.015625 31 40.078125 35.4375 
Q 35.15625 39.890625 26.703125 39.890625 
Q 22.75 39.890625 18.8125 39.015625 
Q 14.890625 38.140625 10.796875 36.28125 
z
" id="DejaVuSans-53"/>
      </defs>
      <g transform="translate(291.548445 190.916562)scale(0.1 -0.1)">
       <use xlink:href="#DejaVuSans-50"/>
       <use x="63.623047" xlink:href="#DejaVuSans-46"/>
       <use x="95.410156" xlink:href="#DejaVuSans-53"/>
      </g>
     </g>
    </g>
    <g id="xtick_4">
     <g id="line2d_4">
      <g>
       <use style="stroke:#000000;stroke-width:0.8;" x="406.914957" xlink:href="#m8e5e013618" y="176.318125"/>
      </g>
     </g>
     <g id="text_4">
      <!-- 2.6 -->
      <defs>
       <path d="M 33.015625 40.375 
Q 26.375 40.375 22.484375 35.828125 
Q 18.609375 31.296875 18.609375 23.390625 
Q 18.609375 15.53125 22.484375 10.953125 
Q 26.375 6.390625 33.015625 6.390625 
Q 39.65625 6.390625 43.53125 10.953125 
Q 47.40625 15.53125 47.40625 23.390625 
Q 47.40625 31.296875 43.53125 35.828125 
Q 39.65625 40.375 33.015625 40.375 
z
M 52.59375 71.296875 
L 52.59375 62.3125 
Q 48.875 64.0625 45.09375 64.984375 
Q 41.3125 65.921875 37.59375 65.921875 
Q 27.828125 65.921875 22.671875 59.328125 
Q 17.53125 52.734375 16.796875 39.40625 
Q 19.671875 43.65625 24.015625 45.921875 
Q 28.375 48.1875 33.59375 48.1875 
Q 44.578125 48.1875 50.953125 41.515625 
Q 57.328125 34.859375 57.328125 23.390625 
Q 57.328125 12.15625 50.6875 5.359375 
Q 44.046875 -1.421875 33.015625 -1.421875 
Q 20.359375 -1.421875 13.671875 8.265625 
Q 6.984375 17.96875 6.984375 36.375 
Q 6.984375 53.65625 15.1875 63.9375 
Q 23.390625 74.21875 37.203125 74.21875 
Q 40.921875 74.21875 44.703125 73.484375 
Q 48.484375 72.75 52.59375 71.296875 
z
" id="DejaVuSans-54"/>
      </defs>
      <g transform="translate(398.963394 190.916562)scale(0.1 -0.1)">
       <use xlink:href="#DejaVuSans-50"/>
       <use x="63.623047" xlink:href="#DejaVuSans-46"/>
       <use x="95.410156" xlink:href="#DejaVuSans-54"/>
      </g>
     </g>
    </g>
    <g id="xtick_5">
     <g id="line2d_5">
      <g>
       <use style="stroke:#000000;stroke-width:0.8;" x="514.329906" xlink:href="#m8e5e013618" y="176.318125"/>
      </g>
     </g>
     <g id="text_5">
      <!-- 2.7 -->
      <defs>
       <path d="M 8.203125 72.90625 
L 55.078125 72.90625 
L 55.078125 68.703125 
L 28.609375 0 
L 18.3125 0 
L 43.21875 64.59375 
L 8.203125 64.59375 
z
" id="DejaVuSans-55"/>
      </defs>
      <g transform="translate(506.378344 190.916562)scale(0.1 -0.1)">
       <use xlink:href="#DejaVuSans-50"/>
       <use x="63.623047" xlink:href="#DejaVuSans-46"/>
       <use x="95.410156" xlink:href="#DejaVuSans-55"/>
      </g>
     </g>
    </g>
    <g id="xtick_6">
     <g id="line2d_6">
      <g>
       <use style="stroke:#000000;stroke-width:0.8;" x="621.744856" xlink:href="#m8e5e013618" y="176.318125"/>
      </g>
     </g>
     <g id="text_6">
      <!-- 2.8 -->
      <defs>
       <path d="M 31.78125 34.625 
Q 24.75 34.625 20.71875 30.859375 
Q 16.703125 27.09375 16.703125 20.515625 
Q 16.703125 13.921875 20.71875 10.15625 
Q 24.75 6.390625 31.78125 6.390625 
Q 38.8125 6.390625 42.859375 10.171875 
Q 46.921875 13.96875 46.921875 20.515625 
Q 46.921875 27.09375 42.890625 30.859375 
Q 38.875 34.625 31.78125 34.625 
z
M 21.921875 38.8125 
Q 15.578125 40.375 12.03125 44.71875 
Q 8.5 49.078125 8.5 55.328125 
Q 8.5 64.0625 14.71875 69.140625 
Q 20.953125 74.21875 31.78125 74.21875 
Q 42.671875 74.21875 48.875 69.140625 
Q 55.078125 64.0625 55.078125 55.328125 
Q 55.078125 49.078125 51.53125 44.71875 
Q 48 40.375 41.703125 38.8125 
Q 48.828125 37.15625 52.796875 32.3125 
Q 56.78125 27.484375 56.78125 20.515625 
Q 56.78125 9.90625 50.3125 4.234375 
Q 43.84375 -1.421875 31.78125 -1.421875 
Q 19.734375 -1.421875 13.25 4.234375 
Q 6.78125 9.90625 6.78125 20.515625 
Q 6.78125 27.484375 10.78125 32.3125 
Q 14.796875 37.15625 21.921875 38.8125 
z
M 18.3125 54.390625 
Q 18.3125 48.734375 21.84375 45.5625 
Q 25.390625 42.390625 31.78125 42.390625 
Q 38.140625 42.390625 41.71875 45.5625 
Q 45.3125 48.734375 45.3125 54.390625 
Q 45.3125 60.0625 41.71875 63.234375 
Q 38.140625 66.40625 31.78125 66.40625 
Q 25.390625 66.40625 21.84375 63.234375 
Q 18.3125 60.0625 18.3125 54.390625 
z
" id="DejaVuSans-56"/>
      </defs>
      <g transform="translate(613.793293 190.916562)scale(0.1 -0.1)">
       <use xlink:href="#DejaVuSans-50"/>
       <use x="63.623047" xlink:href="#DejaVuSans-46"/>
       <use x="95.410156" xlink:href="#DejaVuSans-56"/>
      </g>
     </g>
    </g>
    <g id="text_7">
     <!-- Time (ms) -->
     <defs>
      <path d="M -0.296875 72.90625 
L 61.375 72.90625 
L 61.375 64.59375 
L 35.5 64.59375 
L 35.5 0 
L 25.59375 0 
L 25.59375 64.59375 
L -0.296875 64.59375 
z
" id="DejaVuSans-84"/>
      <path d="M 9.421875 54.6875 
L 18.40625 54.6875 
L 18.40625 0 
L 9.421875 0 
z
M 9.421875 75.984375 
L 18.40625 75.984375 
L 18.40625 64.59375 
L 9.421875 64.59375 
z
" id="DejaVuSans-105"/>
      <path d="M 52 44.1875 
Q 55.375 50.25 60.0625 53.125 
Q 64.75 56 71.09375 56 
Q 79.640625 56 84.28125 50.015625 
Q 88.921875 44.046875 88.921875 33.015625 
L 88.921875 0 
L 79.890625 0 
L 79.890625 32.71875 
Q 79.890625 40.578125 77.09375 44.375 
Q 74.3125 48.1875 68.609375 48.1875 
Q 61.625 48.1875 57.5625 43.546875 
Q 53.515625 38.921875 53.515625 30.90625 
L 53.515625 0 
L 44.484375 0 
L 44.484375 32.71875 
Q 44.484375 40.625 41.703125 44.40625 
Q 38.921875 48.1875 33.109375 48.1875 
Q 26.21875 48.1875 22.15625 43.53125 
Q 18.109375 38.875 18.109375 30.90625 
L 18.109375 0 
L 9.078125 0 
L 9.078125 54.6875 
L 18.109375 54.6875 
L 18.109375 46.1875 
Q 21.1875 51.21875 25.484375 53.609375 
Q 29.78125 56 35.6875 56 
Q 41.65625 56 45.828125 52.96875 
Q 50 49.953125 52 44.1875 
z
" id="DejaVuSans-109"/>
      <path d="M 56.203125 29.59375 
L 56.203125 25.203125 
L 14.890625 25.203125 
Q 15.484375 15.921875 20.484375 11.0625 
Q 25.484375 6.203125 34.421875 6.203125 
Q 39.59375 6.203125 44.453125 7.46875 
Q 49.3125 8.734375 54.109375 11.28125 
L 54.109375 2.78125 
Q 49.265625 0.734375 44.1875 -0.34375 
Q 39.109375 -1.421875 33.890625 -1.421875 
Q 20.796875 -1.421875 13.15625 6.1875 
Q 5.515625 13.8125 5.515625 26.8125 
Q 5.515625 40.234375 12.765625 48.109375 
Q 20.015625 56 32.328125 56 
Q 43.359375 56 49.78125 48.890625 
Q 56.203125 41.796875 56.203125 29.59375 
z
M 47.21875 32.234375 
Q 47.125 39.59375 43.09375 43.984375 
Q 39.0625 48.390625 32.421875 48.390625 
Q 24.90625 48.390625 20.390625 44.140625 
Q 15.875 39.890625 15.1875 32.171875 
z
" id="DejaVuSans-101"/>
      <path id="DejaVuSans-32"/>
      <path d="M 31 75.875 
Q 24.46875 64.65625 21.28125 53.65625 
Q 18.109375 42.671875 18.109375 31.390625 
Q 18.109375 20.125 21.3125 9.0625 
Q 24.515625 -2 31 -13.1875 
L 23.1875 -13.1875 
Q 15.875 -1.703125 12.234375 9.375 
Q 8.59375 20.453125 8.59375 31.390625 
Q 8.59375 42.28125 12.203125 53.3125 
Q 15.828125 64.359375 23.1875 75.875 
z
" id="DejaVuSans-40"/>
      <path d="M 44.28125 53.078125 
L 44.28125 44.578125 
Q 40.484375 46.53125 36.375 47.5 
Q 32.28125 48.484375 27.875 48.484375 
Q 21.1875 48.484375 17.84375 46.4375 
Q 14.5 44.390625 14.5 40.28125 
Q 14.5 37.15625 16.890625 35.375 
Q 19.28125 33.59375 26.515625 31.984375 
L 29.59375 31.296875 
Q 39.15625 29.25 43.1875 25.515625 
Q 47.21875 21.78125 47.21875 15.09375 
Q 47.21875 7.46875 41.1875 3.015625 
Q 35.15625 -1.421875 24.609375 -1.421875 
Q 20.21875 -1.421875 15.453125 -0.5625 
Q 10.6875 0.296875 5.421875 2 
L 5.421875 11.28125 
Q 10.40625 8.6875 15.234375 7.390625 
Q 20.0625 6.109375 24.8125 6.109375 
Q 31.15625 6.109375 34.5625 8.28125 
Q 37.984375 10.453125 37.984375 14.40625 
Q 37.984375 18.0625 35.515625 20.015625 
Q 33.0625 21.96875 24.703125 23.78125 
L 21.578125 24.515625 
Q 13.234375 26.265625 9.515625 29.90625 
Q 5.8125 33.546875 5.8125 39.890625 
Q 5.8125 47.609375 11.28125 51.796875 
Q 16.75 56 26.8125 56 
Q 31.78125 56 36.171875 55.265625 
Q 40.578125 54.546875 44.28125 53.078125 
z
" id="DejaVuSans-115"/>
      <path d="M 8.015625 75.875 
L 15.828125 75.875 
Q 23.140625 64.359375 26.78125 53.3125 
Q 30.421875 42.28125 30.421875 31.390625 
Q 30.421875 20.453125 26.78125 9.375 
Q 23.140625 -1.703125 15.828125 -13.1875 
L 8.015625 -13.1875 
Q 14.5 -2 17.703125 9.0625 
Q 20.90625 20.125 20.90625 31.390625 
Q 20.90625 42.671875 17.703125 53.65625 
Q 14.5 64.65625 8.015625 75.875 
z
" id="DejaVuSans-41"/>
     </defs>
     <g transform="translate(347.565 204.594687)scale(0.1 -0.1)">
      <use xlink:href="#DejaVuSans-84"/>
      <use x="61.037109" xlink:href="#DejaVuSans-105"/>
      <use x="88.820312" xlink:href="#DejaVuSans-109"/>
      <use x="186.232422" xlink:href="#DejaVuSans-101"/>
      <use x="247.755859" xlink:href="#DejaVuSans-32"/>
      <use x="279.542969" xlink:href="#DejaVuSans-40"/>
      <use x="318.556641" xlink:href="#DejaVuSans-109"/>
      <use x="415.96875" xlink:href="#DejaVuSans-115"/>
      <use x="468.068359" xlink:href="#DejaVuSans-41"/>
     </g>
    </g>
    <g id="text_8">
     <!-- 1e4 -->
     <defs>
      <path d="M 12.40625 8.296875 
L 28.515625 8.296875 
L 28.515625 63.921875 
L 10.984375 60.40625 
L 10.984375 69.390625 
L 28.421875 72.90625 
L 38.28125 72.90625 
L 38.28125 8.296875 
L 54.390625 8.296875 
L 54.390625 0 
L 12.40625 0 
z
" id="DejaVuSans-49"/>
     </defs>
     <g transform="translate(686.355 203.594687)scale(0.1 -0.1)">
      <use xlink:href="#DejaVuSans-49"/>
      <use x="63.623047" xlink:href="#DejaVuSans-101"/>
      <use x="125.146484" xlink:href="#DejaVuSans-52"/>
     </g>
    </g>
   </g>
   <g id="matplotlib.axis_2">
    <g id="ytick_1">
     <g id="line2d_7">
      <defs>
       <path d="M 0 0 
L -3.5 0 
" id="m4233317fef" style="stroke:#000000;stroke-width:0.8;"/>
      </defs>
      <g>
       <use style="stroke:#000000;stroke-width:0.8;" x="40.603125" xlink:href="#m4233317fef" y="161.053559"/>
      </g>
     </g>
     <g id="text_9">
      <!-- 0 -->
      <defs>
       <path d="M 31.78125 66.40625 
Q 24.171875 66.40625 20.328125 58.90625 
Q 16.5 51.421875 16.5 36.375 
Q 16.5 21.390625 20.328125 13.890625 
Q 24.171875 6.390625 31.78125 6.390625 
Q 39.453125 6.390625 43.28125 13.890625 
Q 47.125 21.390625 47.125 36.375 
Q 47.125 51.421875 43.28125 58.90625 
Q 39.453125 66.40625 31.78125 66.40625 
z
M 31.78125 74.21875 
Q 44.046875 74.21875 50.515625 64.515625 
Q 56.984375 54.828125 56.984375 36.375 
Q 56.984375 17.96875 50.515625 8.265625 
Q 44.046875 -1.421875 31.78125 -1.421875 
Q 19.53125 -1.421875 13.0625 8.265625 
Q 6.59375 17.96875 6.59375 36.375 
Q 6.59375 54.828125 13.0625 64.515625 
Q 19.53125 74.21875 31.78125 74.21875 
z
" id="DejaVuSans-48"/>
      </defs>
      <g transform="translate(27.240625 164.852778)scale(0.1 -0.1)">
       <use xlink:href="#DejaVuSans-48"/>
      </g>
     </g>
    </g>
    <g id="ytick_2">
     <g id="line2d_8">
      <g>
       <use style="stroke:#000000;stroke-width:0.8;" x="40.603125" xlink:href="#m4233317fef" y="134.053116"/>
      </g>
     </g>
     <g id="text_10">
      <!-- 10 -->
      <g transform="translate(20.878125 137.852334)scale(0.1 -0.1)">
       <use xlink:href="#DejaVuSans-49"/>
       <use x="63.623047" xlink:href="#DejaVuSans-48"/>
      </g>
     </g>
    </g>
    <g id="ytick_3">
     <g id="line2d_9">
      <g>
       <use style="stroke:#000000;stroke-width:0.8;" x="40.603125" xlink:href="#m4233317fef" y="107.052672"/>
      </g>
     </g>
     <g id="text_11">
      <!-- 20 -->
      <g transform="translate(20.878125 110.851891)scale(0.1 -0.1)">
       <use xlink:href="#DejaVuSans-50"/>
       <use x="63.623047" xlink:href="#DejaVuSans-48"/>
      </g>
     </g>
    </g>
    <g id="ytick_4">
     <g id="line2d_10">
      <g>
       <use style="stroke:#000000;stroke-width:0.8;" x="40.603125" xlink:href="#m4233317fef" y="80.052228"/>
      </g>
     </g>
     <g id="text_12">
      <!-- 30 -->
      <g transform="translate(20.878125 83.851447)scale(0.1 -0.1)">
       <use xlink:href="#DejaVuSans-51"/>
       <use x="63.623047" xlink:href="#DejaVuSans-48"/>
      </g>
     </g>
    </g>
    <g id="ytick_5">
     <g id="line2d_11">
      <g>
       <use style="stroke:#000000;stroke-width:0.8;" x="40.603125" xlink:href="#m4233317fef" y="53.051785"/>
      </g>
     </g>
     <g id="text_13">
      <!-- 40 -->
      <g transform="translate(20.878125 56.851004)scale(0.1 -0.1)">
       <use xlink:href="#DejaVuSans-52"/>
       <use x="63.623047" xlink:href="#DejaVuSans-48"/>
      </g>
     </g>
    </g>
    <g id="ytick_6">
     <g id="line2d_12">
      <g>
       <use style="stroke:#000000;stroke-width:0.8;" x="40.603125" xlink:href="#m4233317fef" y="26.051341"/>
      </g>
     </g>
     <g id="text_14">
      <!-- 50 -->
      <g transform="translate(20.878125 29.85056)scale(0.1 -0.1)">
       <use xlink:href="#DejaVuSans-53"/>
       <use x="63.623047" xlink:href="#DejaVuSans-48"/>
      </g>
     </g>
    </g>
    <g id="text_15">
     <!-- ADC Value -->
     <defs>
      <path d="M 34.1875 63.1875 
L 20.796875 26.90625 
L 47.609375 26.90625 
z
M 28.609375 72.90625 
L 39.796875 72.90625 
L 67.578125 0 
L 57.328125 0 
L 50.6875 18.703125 
L 17.828125 18.703125 
L 11.1875 0 
L 0.78125 0 
z
" id="DejaVuSans-65"/>
      <path d="M 19.671875 64.796875 
L 19.671875 8.109375 
L 31.59375 8.109375 
Q 46.6875 8.109375 53.6875 14.9375 
Q 60.6875 21.78125 60.6875 36.53125 
Q 60.6875 51.171875 53.6875 57.984375 
Q 46.6875 64.796875 31.59375 64.796875 
z
M 9.8125 72.90625 
L 30.078125 72.90625 
Q 51.265625 72.90625 61.171875 64.09375 
Q 71.09375 55.28125 71.09375 36.53125 
Q 71.09375 17.671875 61.125 8.828125 
Q 51.171875 0 30.078125 0 
L 9.8125 0 
z
" id="DejaVuSans-68"/>
      <path d="M 64.40625 67.28125 
L 64.40625 56.890625 
Q 59.421875 61.53125 53.78125 63.8125 
Q 48.140625 66.109375 41.796875 66.109375 
Q 29.296875 66.109375 22.65625 58.46875 
Q 16.015625 50.828125 16.015625 36.375 
Q 16.015625 21.96875 22.65625 14.328125 
Q 29.296875 6.6875 41.796875 6.6875 
Q 48.140625 6.6875 53.78125 8.984375 
Q 59.421875 11.28125 64.40625 15.921875 
L 64.40625 5.609375 
Q 59.234375 2.09375 53.4375 0.328125 
Q 47.65625 -1.421875 41.21875 -1.421875 
Q 24.65625 -1.421875 15.125 8.703125 
Q 5.609375 18.84375 5.609375 36.375 
Q 5.609375 53.953125 15.125 64.078125 
Q 24.65625 74.21875 41.21875 74.21875 
Q 47.75 74.21875 53.53125 72.484375 
Q 59.328125 70.75 64.40625 67.28125 
z
" id="DejaVuSans-67"/>
      <path d="M 28.609375 0 
L 0.78125 72.90625 
L 11.078125 72.90625 
L 34.1875 11.53125 
L 57.328125 72.90625 
L 67.578125 72.90625 
L 39.796875 0 
z
" id="DejaVuSans-86"/>
      <path d="M 34.28125 27.484375 
Q 23.390625 27.484375 19.1875 25 
Q 14.984375 22.515625 14.984375 16.5 
Q 14.984375 11.71875 18.140625 8.90625 
Q 21.296875 6.109375 26.703125 6.109375 
Q 34.1875 6.109375 38.703125 11.40625 
Q 43.21875 16.703125 43.21875 25.484375 
L 43.21875 27.484375 
z
M 52.203125 31.203125 
L 52.203125 0 
L 43.21875 0 
L 43.21875 8.296875 
Q 40.140625 3.328125 35.546875 0.953125 
Q 30.953125 -1.421875 24.3125 -1.421875 
Q 15.921875 -1.421875 10.953125 3.296875 
Q 6 8.015625 6 15.921875 
Q 6 25.140625 12.171875 29.828125 
Q 18.359375 34.515625 30.609375 34.515625 
L 43.21875 34.515625 
L 43.21875 35.40625 
Q 43.21875 41.609375 39.140625 45 
Q 35.0625 48.390625 27.6875 48.390625 
Q 23 48.390625 18.546875 47.265625 
Q 14.109375 46.140625 10.015625 43.890625 
L 10.015625 52.203125 
Q 14.9375 54.109375 19.578125 55.046875 
Q 24.21875 56 28.609375 56 
Q 40.484375 56 46.34375 49.84375 
Q 52.203125 43.703125 52.203125 31.203125 
z
" id="DejaVuSans-97"/>
      <path d="M 9.421875 75.984375 
L 18.40625 75.984375 
L 18.40625 0 
L 9.421875 0 
z
" id="DejaVuSans-108"/>
      <path d="M 8.5 21.578125 
L 8.5 54.6875 
L 17.484375 54.6875 
L 17.484375 21.921875 
Q 17.484375 14.15625 20.5 10.265625 
Q 23.53125 6.390625 29.59375 6.390625 
Q 36.859375 6.390625 41.078125 11.03125 
Q 45.3125 15.671875 45.3125 23.6875 
L 45.3125 54.6875 
L 54.296875 54.6875 
L 54.296875 0 
L 45.3125 0 
L 45.3125 8.40625 
Q 42.046875 3.421875 37.71875 1 
Q 33.40625 -1.421875 27.6875 -1.421875 
Q 18.265625 -1.421875 13.375 4.4375 
Q 8.5 10.296875 8.5 21.578125 
z
M 31.109375 56 
z
" id="DejaVuSans-117"/>
     </defs>
     <g transform="translate(14.798438 125.782187)rotate(-90)scale(0.1 -0.1)">
      <use xlink:href="#DejaVuSans-65"/>
      <use x="68.408203" xlink:href="#DejaVuSans-68"/>
      <use x="145.410156" xlink:href="#DejaVuSans-67"/>
      <use x="215.234375" xlink:href="#DejaVuSans-32"/>
      <use x="247.021484" xlink:href="#DejaVuSans-86"/>
      <use x="315.320312" xlink:href="#DejaVuSans-97"/>
      <use x="376.599609" xlink:href="#DejaVuSans-108"/>
      <use x="404.382812" xlink:href="#DejaVuSans-117"/>
      <use x="467.761719" xlink:href="#DejaVuSans-101"/>
     </g>
    </g>
   </g>
   <g id="line2d_13">
    <path clip-path="url(#pef3ba318ed)" d="M 70.81358 66.562267 
L 71.780314 65.302966 
L 75.217592 59.277007 
L 76.184327 57.986926 
L 77.151062 58.990802 
L 78.117796 63.659179 
L 79.406776 72.86363 
L 80.58834 86.540975 
L 82.521809 121.702303 
L 83.703373 138.662361 
L 84.884938 152.299475 
L 86.066502 161.433995 
L 87.033237 166.021371 
L 88.107386 166.967466 
L 89.181536 165.648225 
L 91.329835 160.960678 
L 92.726229 158.67239 
L 93.800379 156.283931 
L 96.163508 149.722013 
L 98.526637 140.250257 
L 99.815616 135.190644 
L 100.78235 130.518758 
L 103.038064 123.265358 
L 104.004799 120.545334 
L 105.078948 118.013502 
L 107.119832 111.938132 
L 108.408812 107.852425 
L 111.41643 92.419512 
L 113.672144 83.539606 
L 116.035273 77.939714 
L 117.216838 75.387632 
L 118.183572 71.995836 
L 119.150307 67.218648 
L 120.117041 61.138418 
L 122.372755 49.72452 
L 123.55432 48.384488 
L 124.521054 52.645428 
L 125.810034 63.467206 
L 127.206428 80.310623 
L 129.354727 122.74317 
L 131.610441 156.390853 
L 132.577176 164.893832 
L 133.75874 167.959463 
L 134.832889 167.1589 
L 136.873773 161.68969 
L 137.947923 159.786698 
L 138.914658 158.983435 
L 141.062957 158.64782 
L 142.351936 157.756265 
L 143.5335 155.844094 
L 144.715065 152.963416 
L 145.896629 149.442288 
L 147.830098 142.050107 
L 151.589622 131.731618 
L 153.845336 123.181657 
L 155.778805 112.771096 
L 156.960369 107.622111 
L 158.356763 102.982085 
L 159.430913 98.966039 
L 161.471797 91.784731 
L 163.727511 82.710422 
L 165.123905 77.10702 
L 166.30547 71.64834 
L 167.594449 67.685755 
L 168.561184 66.819311 
L 169.742748 70.41901 
L 170.816898 79.121523 
L 171.891047 92.490793 
L 172.965197 109.005074 
L 173.931931 126.40821 
L 175.113496 142.317141 
L 176.187645 154.858847 
L 177.15438 163.091283 
L 178.121114 167.069798 
L 179.410093 167.581726 
L 180.484243 165.709246 
L 181.558392 162.428962 
L 183.706691 153.979713 
L 185.210501 149.372357 
L 187.466215 140.620434 
L 188.647779 137.194887 
L 189.614514 134.830458 
L 190.688663 133.588168 
L 191.762813 133.210432 
L 192.729547 133.146441 
L 193.911112 132.682573 
L 195.092676 131.131398 
L 196.059411 128.020947 
L 197.13356 123.230798 
L 198.100295 117.029336 
L 199.389274 109.9995 
L 201.537573 96.259515 
L 202.504308 90.533531 
L 204.867437 81.186247 
L 206.049001 76.662323 
L 207.98247 66.639218 
L 209.05662 62.188465 
L 210.238184 59.819446 
L 211.419748 61.134098 
L 212.493898 67.35716 
L 213.890292 78.801838 
L 214.964442 94.588997 
L 216.897911 130.812252 
L 219.26104 157.819446 
L 220.335189 164.720219 
L 221.301924 167.584967 
L 222.805733 167.503155 
L 223.987298 165.588554 
L 224.954032 162.574494 
L 227.102331 153.80772 
L 228.069066 147.767991 
L 231.184099 125.148909 
L 233.224983 112.735185 
L 234.299133 108.789341 
L 235.265867 106.171378 
L 236.340017 104.289177 
L 238.166071 102.369715 
L 239.132805 99.672101 
L 240.206955 95.689535 
L 242.784914 83.727529 
L 247.188927 57.735552 
L 249.444641 48.891287 
L 250.73362 44.635477 
L 251.915184 40.193634 
L 252.881919 36.005055 
L 253.956068 33.206189 
L 255.030218 33.451623 
L 255.996952 38.445355 
L 256.963687 49.305743 
L 257.930422 65.998228 
L 259.541646 87.087464 
L 260.615795 109.96845 
L 262.764094 149.059962 
L 264.053074 160.915317 
L 265.449468 166.914006 
L 266.631032 168.127135 
L 267.705182 166.336736 
L 270.068311 160.556751 
L 271.035045 158.508767 
L 273.720419 156.042817 
L 275.009399 154.593433 
L 275.976133 152.401267 
L 277.050283 149.313766 
L 278.124432 145.419492 
L 280.380146 136.220441 
L 281.669125 131.451353 
L 282.63586 126.810787 
L 285.106404 117.987042 
L 286.180553 113.582729 
L 288.114022 103.943841 
L 289.188172 98.563733 
L 290.154906 92.95574 
L 291.229056 87.385549 
L 294.558919 73.025093 
L 296.707218 65.229255 
L 297.888783 61.86716 
L 298.855517 59.600472 
L 300.037082 59.550522 
L 301.003816 63.010089 
L 301.970551 70.963339 
L 304.11885 99.925635 
L 305.407829 118.048873 
L 306.374564 135.470639 
L 307.341298 149.895626 
L 308.522863 159.86473 
L 309.597012 165.095256 
L 310.563747 166.398567 
L 311.530481 165.247538 
L 313.67878 161.379995 
L 314.645515 160.265416 
L 316.578984 159.054986 
L 317.653133 157.795146 
L 318.727283 155.534939 
L 319.694018 152.285165 
L 320.660752 148.383061 
L 321.842317 144.314634 
L 326.353744 131.145978 
L 327.642724 127.786313 
L 328.609458 123.683055 
L 330.757757 112.832387 
L 332.046737 106.540744 
L 333.013471 100.330102 
L 334.087621 94.77395 
L 336.23592 87.091244 
L 340.532518 79.045382 
L 341.606667 75.86365 
L 342.573402 72.466994 
L 343.862381 70.012924 
L 345.043946 70.026694 
L 346.44034 73.929878 
L 347.407074 82.499009 
L 348.481224 95.465432 
L 351.488843 143.551602 
L 352.455577 155.477698 
L 353.529727 163.142044 
L 354.603876 166.697192 
L 355.892856 167.060348 
L 357.181835 165.431141 
L 358.363399 162.833968 
L 359.437549 159.85771 
L 363.948977 144.878943 
L 364.915711 140.507842 
L 366.956595 132.929087 
L 368.245575 130.108081 
L 369.427139 127.800353 
L 370.823533 125.637077 
L 371.897683 123.165997 
L 374.045982 116.001969 
L 375.334961 111.259611 
L 377.26843 101.127965 
L 378.55741 96.58973 
L 381.135369 89.096837 
L 383.283668 81.38524 
L 385.217137 71.830323 
L 386.398701 67.95819 
L 387.472851 66.611948 
L 388.439585 69.325222 
L 389.728565 77.045999 
L 390.910129 89.673297 
L 394.239992 140.092845 
L 395.421557 153.423504 
L 396.495706 162.411682 
L 397.569856 167.019037 
L 398.53659 168.052884 
L 399.61074 166.672622 
L 400.899719 163.898596 
L 402.081284 160.334537 
L 403.048018 156.164589 
L 404.014753 151.36526 
L 405.303732 145.968411 
L 407.237201 134.593665 
L 409.3855 125.536636 
L 411.963459 120.189738 
L 412.930194 118.103144 
L 414.219173 115.694704 
L 415.508152 112.549152 
L 417.656451 103.653856 
L 420.8789 88.175042 
L 421.845634 83.894122 
L 423.027199 80.13242 
L 424.531008 76.51976 
L 425.712573 72.553395 
L 426.679307 67.858558 
L 427.646042 62.49411 
L 429.794341 53.292359 
L 430.761075 52.631928 
L 431.72781 56.849937 
L 433.016789 66.840101 
L 434.305769 82.251415 
L 435.487333 101.386899 
L 436.561483 121.579991 
L 438.709782 154.190316 
L 439.676516 163.239785 
L 440.643251 167.327652 
L 441.93223 167.677308 
L 443.113794 165.884479 
L 445.154679 160.685543 
L 446.443658 158.101871 
L 447.410392 155.215793 
L 448.377127 151.625814 
L 449.451277 147.172091 
L 450.418011 142.058207 
L 452.99597 131.837459 
L 454.070119 127.63808 
L 458.474132 115.033463 
L 459.440867 110.931556 
L 460.729846 106.036105 
L 461.696581 100.582016 
L 462.878145 95.008314 
L 463.84488 89.836649 
L 464.919029 85.517928 
L 465.993179 82.278415 
L 468.034063 78.201078 
L 469.108212 76.131224 
L 470.182362 73.041023 
L 474.586375 52.672429 
L 475.553109 52.063569 
L 476.734674 56.821317 
L 477.808823 67.700066 
L 479.097803 84.075025 
L 480.279367 103.951941 
L 481.675761 124.452028 
L 482.642496 142.621706 
L 484.03889 156.267191 
L 485.220455 164.490176 
L 486.509434 167.738599 
L 487.476169 167.406494 
L 488.765148 165.190297 
L 491.987597 157.904227 
L 493.276576 155.727182 
L 494.24331 153.046038 
L 495.31746 149.596191 
L 499.614058 131.460263 
L 502.836506 117.747818 
L 504.018071 112.536462 
L 505.52188 106.830188 
L 507.885009 94.609788 
L 509.818478 83.326572 
L 512.074192 74.891904 
L 514.222491 68.885655 
L 515.51147 65.868625 
L 516.58562 62.220596 
L 517.767184 57.751752 
L 518.733919 52.806621 
L 519.915483 48.419859 
L 520.882218 46.232823 
L 521.848952 48.110974 
L 523.030517 55.531506 
L 524.104666 68.944516 
L 525.393646 87.386359 
L 526.57521 108.558757 
L 529.045754 147.009819 
L 530.119904 159.403562 
L 531.194053 166.067542 
L 532.375618 167.860371 
L 533.664597 166.512779 
L 535.598066 163.921006 
L 536.672216 161.520937 
L 537.746365 159.954371 
L 539.894664 158.292224 
L 540.968813 156.86255 
L 542.042963 154.333419 
L 543.331942 150.644618 
L 544.298677 146.085323 
L 545.909901 141.098611 
L 548.165615 131.111417 
L 549.13235 126.185186 
L 550.528744 121.061042 
L 554.717927 96.845424 
L 556.114321 90.675283 
L 557.940376 84.904748 
L 559.98126 74.438836 
L 561.270239 69.534476 
L 562.236973 65.029452 
L 563.311123 61.597155 
L 564.277858 60.362155 
L 565.674252 62.633432 
L 566.855816 69.438624 
L 567.822551 81.033695 
L 568.789285 96.60593 
L 569.75602 114.332262 
L 571.152414 131.824499 
L 572.226564 146.799215 
L 573.193298 157.718464 
L 574.160033 164.13944 
L 575.663842 166.654261 
L 576.845407 166.477678 
L 578.993706 162.772407 
L 580.067855 160.405279 
L 581.03459 157.566182 
L 582.108739 153.835801 
L 584.149623 142.990802 
L 585.116358 136.476135 
L 586.190507 130.116181 
L 587.264657 124.57164 
L 589.520371 116.909994 
L 590.701935 114.23533 
L 591.776085 111.476965 
L 593.279894 107.966907 
L 594.246628 103.29124 
L 596.502342 90.705794 
L 597.469077 83.753179 
L 599.724791 71.504158 
L 600.691525 66.74479 
L 601.87309 62.624522 
L 603.269484 58.594166 
L 606.384518 44.325242 
L 607.566082 40.898075 
L 608.640232 40.756053 
L 609.821796 45.673104 
L 610.788531 56.664444 
L 612.07751 73.44225 
L 613.044245 94.269852 
L 615.299959 136.516906 
L 616.481523 152.321346 
L 617.448258 162.508343 
L 618.414992 167.286342 
L 619.596557 167.971613 
L 620.778121 166.327826 
L 621.744856 163.881856 
L 623.78574 159.201329 
L 626.041453 153.271221 
L 627.008188 148.874199 
L 627.974923 143.640703 
L 629.908392 138.108582 
L 630.875126 132.901007 
L 631.841861 128.448094 
L 632.808595 124.820314 
L 634.20499 121.735783 
L 635.279139 118.714974 
L 636.245874 115.302658 
L 637.212608 111.263121 
L 638.179343 106.674666 
L 639.360907 101.888567 
L 640.327642 97.370043 
L 642.475941 90.211145 
L 644.83907 83.637887 
L 646.020634 78.634165 
L 646.987369 71.489308 
L 648.598593 62.106924 
L 649.994987 51.252205 
L 650.961722 40.5927 
L 652.143286 32.455847 
L 653.217436 29.318125 
L 654.18417 33.136528 
L 655.25832 44.700278 
L 657.514034 86.443233 
L 659.554918 133.506357 
L 660.629067 151.212438 
L 662.025462 162.802648 
L 663.314441 168.42171 
L 664.281176 169.318125 
L 665.24791 167.19535 
L 667.396209 159.424892 
L 670.618658 145.305821 
L 672.874371 133.152921 
L 673.841106 126.261598 
L 675.02267 118.984708 
L 675.02267 118.984708 
" style="fill:none;stroke:#1f77b4;stroke-linecap:square;stroke-width:1.5;"/>
   </g>
   <g id="line2d_14">
    <defs>
     <path d="M -3 3 
L 3 -3 
M -3 -3 
L 3 3 
" id="me2e0526dbc" style="stroke:#ff0000;"/>
    </defs>
    <g clip-path="url(#pef3ba318ed)">
     <use style="fill:#ff0000;stroke:#ff0000;" x="123.55432" xlink:href="#me2e0526dbc" y="48.384488"/>
     <use style="fill:#ff0000;stroke:#ff0000;" x="168.561184" xlink:href="#me2e0526dbc" y="66.819311"/>
     <use style="fill:#ff0000;stroke:#ff0000;" x="210.238184" xlink:href="#me2e0526dbc" y="59.819446"/>
     <use style="fill:#ff0000;stroke:#ff0000;" x="253.956068" xlink:href="#me2e0526dbc" y="33.206189"/>
     <use style="fill:#ff0000;stroke:#ff0000;" x="300.037082" xlink:href="#me2e0526dbc" y="59.550522"/>
     <use style="fill:#ff0000;stroke:#ff0000;" x="343.862381" xlink:href="#me2e0526dbc" y="70.012924"/>
     <use style="fill:#ff0000;stroke:#ff0000;" x="387.472851" xlink:href="#me2e0526dbc" y="66.611948"/>
     <use style="fill:#ff0000;stroke:#ff0000;" x="430.761075" xlink:href="#me2e0526dbc" y="52.631928"/>
     <use style="fill:#ff0000;stroke:#ff0000;" x="475.553109" xlink:href="#me2e0526dbc" y="52.063569"/>
     <use style="fill:#ff0000;stroke:#ff0000;" x="520.882218" xlink:href="#me2e0526dbc" y="46.232823"/>
     <use style="fill:#ff0000;stroke:#ff0000;" x="564.277858" xlink:href="#me2e0526dbc" y="60.362155"/>
     <use style="fill:#ff0000;stroke:#ff0000;" x="608.640232" xlink:href="#me2e0526dbc" y="40.756053"/>
     <use style="fill:#ff0000;stroke:#ff0000;" x="653.217436" xlink:href="#me2e0526dbc" y="29.318125"/>
    </g>
   </g>
   <g id="line2d_15">
    <path clip-path="url(#pef3ba318ed)" d="M 123.55432 176.318125 
L 123.55432 22.318125 
" style="fill:none;stroke:#808080;stroke-dasharray:5.55,2.4;stroke-dashoffset:0;stroke-width:1.5;"/>
   </g>
   <g id="line2d_16">
    <path clip-path="url(#pef3ba318ed)" d="M 168.561184 176.318125 
L 168.561184 22.318125 
" style="fill:none;stroke:#808080;stroke-dasharray:5.55,2.4;stroke-dashoffset:0;stroke-width:1.5;"/>
   </g>
   <g id="line2d_17">
    <path clip-path="url(#pef3ba318ed)" d="M 210.238184 176.318125 
L 210.238184 22.318125 
" style="fill:none;stroke:#808080;stroke-dasharray:5.55,2.4;stroke-dashoffset:0;stroke-width:1.5;"/>
   </g>
   <g id="line2d_18">
    <path clip-path="url(#pef3ba318ed)" d="M 253.956068 176.318125 
L 253.956068 22.318125 
" style="fill:none;stroke:#808080;stroke-dasharray:5.55,2.4;stroke-dashoffset:0;stroke-width:1.5;"/>
   </g>
   <g id="line2d_19">
    <path clip-path="url(#pef3ba318ed)" d="M 300.037082 176.318125 
L 300.037082 22.318125 
" style="fill:none;stroke:#808080;stroke-dasharray:5.55,2.4;stroke-dashoffset:0;stroke-width:1.5;"/>
   </g>
   <g id="line2d_20">
    <path clip-path="url(#pef3ba318ed)" d="M 343.862381 176.318125 
L 343.862381 22.318125 
" style="fill:none;stroke:#808080;stroke-dasharray:5.55,2.4;stroke-dashoffset:0;stroke-width:1.5;"/>
   </g>
   <g id="line2d_21">
    <path clip-path="url(#pef3ba318ed)" d="M 387.472851 176.318125 
L 387.472851 22.318125 
" style="fill:none;stroke:#808080;stroke-dasharray:5.55,2.4;stroke-dashoffset:0;stroke-width:1.5;"/>
   </g>
   <g id="line2d_22">
    <path clip-path="url(#pef3ba318ed)" d="M 430.761075 176.318125 
L 430.761075 22.318125 
" style="fill:none;stroke:#808080;stroke-dasharray:5.55,2.4;stroke-dashoffset:0;stroke-width:1.5;"/>
   </g>
   <g id="line2d_23">
    <path clip-path="url(#pef3ba318ed)" d="M 475.553109 176.318125 
L 475.553109 22.318125 
" style="fill:none;stroke:#808080;stroke-dasharray:5.55,2.4;stroke-dashoffset:0;stroke-width:1.5;"/>
   </g>
   <g id="line2d_24">
    <path clip-path="url(#pef3ba318ed)" d="M 520.882218 176.318125 
L 520.882218 22.318125 
" style="fill:none;stroke:#808080;stroke-dasharray:5.55,2.4;stroke-dashoffset:0;stroke-width:1.5;"/>
   </g>
   <g id="line2d_25">
    <path clip-path="url(#pef3ba318ed)" d="M 564.277858 176.318125 
L 564.277858 22.318125 
" style="fill:none;stroke:#808080;stroke-dasharray:5.55,2.4;stroke-dashoffset:0;stroke-width:1.5;"/>
   </g>
   <g id="line2d_26">
    <path clip-path="url(#pef3ba318ed)" d="M 608.640232 176.318125 
L 608.640232 22.318125 
" style="fill:none;stroke:#808080;stroke-dasharray:5.55,2.4;stroke-dashoffset:0;stroke-width:1.5;"/>
   </g>
   <g id="line2d_27">
    <path clip-path="url(#pef3ba318ed)" d="M 653.217436 176.318125 
L 653.217436 22.318125 
" style="fill:none;stroke:#808080;stroke-dasharray:5.55,2.4;stroke-dashoffset:0;stroke-width:1.5;"/>
   </g>
   <g id="line2d_28">
    <path clip-path="url(#pef3ba318ed)" d="M 88.107386 176.318125 
L 88.107386 22.318125 
" style="fill:none;stroke:#ff0000;stroke-dasharray:5.55,2.4;stroke-dashoffset:0;stroke-width:1.5;"/>
   </g>
   <g id="patch_3">
    <path d="M 40.603125 176.318125 
L 40.603125 22.318125 
" style="fill:none;stroke:#000000;stroke-linecap:square;stroke-linejoin:miter;stroke-width:0.8;"/>
   </g>
   <g id="patch_4">
    <path d="M 705.233125 176.318125 
L 705.233125 22.318125 
" style="fill:none;stroke:#000000;stroke-linecap:square;stroke-linejoin:miter;stroke-width:0.8;"/>
   </g>
   <g id="patch_5">
    <path d="M 40.603125 176.318125 
L 705.233125 176.318125 
" style="fill:none;stroke:#000000;stroke-linecap:square;stroke-linejoin:miter;stroke-width:0.8;"/>
   </g>
   <g id="patch_6">
    <path d="M 40.603125 22.318125 
L 705.233125 22.318125 
" style="fill:none;stroke:#000000;stroke-linecap:square;stroke-linejoin:miter;stroke-width:0.8;"/>
   </g>
   <g id="text_16">
    <!-- Final Systolic Peaks -->
    <defs>
     <path d="M 9.8125 72.90625 
L 51.703125 72.90625 
L 51.703125 64.59375 
L 19.671875 64.59375 
L 19.671875 43.109375 
L 48.578125 43.109375 
L 48.578125 34.8125 
L 19.671875 34.8125 
L 19.671875 0 
L 9.8125 0 
z
" id="DejaVuSans-70"/>
     <path d="M 54.890625 33.015625 
L 54.890625 0 
L 45.90625 0 
L 45.90625 32.71875 
Q 45.90625 40.484375 42.875 44.328125 
Q 39.84375 48.1875 33.796875 48.1875 
Q 26.515625 48.1875 22.3125 43.546875 
Q 18.109375 38.921875 18.109375 30.90625 
L 18.109375 0 
L 9.078125 0 
L 9.078125 54.6875 
L 18.109375 54.6875 
L 18.109375 46.1875 
Q 21.34375 51.125 25.703125 53.5625 
Q 30.078125 56 35.796875 56 
Q 45.21875 56 50.046875 50.171875 
Q 54.890625 44.34375 54.890625 33.015625 
z
" id="DejaVuSans-110"/>
     <path d="M 53.515625 70.515625 
L 53.515625 60.890625 
Q 47.90625 63.578125 42.921875 64.890625 
Q 37.9375 66.21875 33.296875 66.21875 
Q 25.25 66.21875 20.875 63.09375 
Q 16.5 59.96875 16.5 54.203125 
Q 16.5 49.359375 19.40625 46.890625 
Q 22.3125 44.4375 30.421875 42.921875 
L 36.375 41.703125 
Q 47.40625 39.59375 52.65625 34.296875 
Q 57.90625 29 57.90625 20.125 
Q 57.90625 9.515625 50.796875 4.046875 
Q 43.703125 -1.421875 29.984375 -1.421875 
Q 24.8125 -1.421875 18.96875 -0.25 
Q 13.140625 0.921875 6.890625 3.21875 
L 6.890625 13.375 
Q 12.890625 10.015625 18.65625 8.296875 
Q 24.421875 6.59375 29.984375 6.59375 
Q 38.421875 6.59375 43.015625 9.90625 
Q 47.609375 13.234375 47.609375 19.390625 
Q 47.609375 24.75 44.3125 27.78125 
Q 41.015625 30.8125 33.5 32.328125 
L 27.484375 33.5 
Q 16.453125 35.6875 11.515625 40.375 
Q 6.59375 45.0625 6.59375 53.421875 
Q 6.59375 63.09375 13.40625 68.65625 
Q 20.21875 74.21875 32.171875 74.21875 
Q 37.3125 74.21875 42.625 73.28125 
Q 47.953125 72.359375 53.515625 70.515625 
z
" id="DejaVuSans-83"/>
     <path d="M 32.171875 -5.078125 
Q 28.375 -14.84375 24.75 -17.8125 
Q 21.140625 -20.796875 15.09375 -20.796875 
L 7.90625 -20.796875 
L 7.90625 -13.28125 
L 13.1875 -13.28125 
Q 16.890625 -13.28125 18.9375 -11.515625 
Q 21 -9.765625 23.484375 -3.21875 
L 25.09375 0.875 
L 2.984375 54.6875 
L 12.5 54.6875 
L 29.59375 11.921875 
L 46.6875 54.6875 
L 56.203125 54.6875 
z
" id="DejaVuSans-121"/>
     <path d="M 18.3125 70.21875 
L 18.3125 54.6875 
L 36.8125 54.6875 
L 36.8125 47.703125 
L 18.3125 47.703125 
L 18.3125 18.015625 
Q 18.3125 11.328125 20.140625 9.421875 
Q 21.96875 7.515625 27.59375 7.515625 
L 36.8125 7.515625 
L 36.8125 0 
L 27.59375 0 
Q 17.1875 0 13.234375 3.875 
Q 9.28125 7.765625 9.28125 18.015625 
L 9.28125 47.703125 
L 2.6875 47.703125 
L 2.6875 54.6875 
L 9.28125 54.6875 
L 9.28125 70.21875 
z
" id="DejaVuSans-116"/>
     <path d="M 30.609375 48.390625 
Q 23.390625 48.390625 19.1875 42.75 
Q 14.984375 37.109375 14.984375 27.296875 
Q 14.984375 17.484375 19.15625 11.84375 
Q 23.34375 6.203125 30.609375 6.203125 
Q 37.796875 6.203125 41.984375 11.859375 
Q 46.1875 17.53125 46.1875 27.296875 
Q 46.1875 37.015625 41.984375 42.703125 
Q 37.796875 48.390625 30.609375 48.390625 
z
M 30.609375 56 
Q 42.328125 56 49.015625 48.375 
Q 55.71875 40.765625 55.71875 27.296875 
Q 55.71875 13.875 49.015625 6.21875 
Q 42.328125 -1.421875 30.609375 -1.421875 
Q 18.84375 -1.421875 12.171875 6.21875 
Q 5.515625 13.875 5.515625 27.296875 
Q 5.515625 40.765625 12.171875 48.375 
Q 18.84375 56 30.609375 56 
z
" id="DejaVuSans-111"/>
     <path d="M 48.78125 52.59375 
L 48.78125 44.1875 
Q 44.96875 46.296875 41.140625 47.34375 
Q 37.3125 48.390625 33.40625 48.390625 
Q 24.65625 48.390625 19.8125 42.84375 
Q 14.984375 37.3125 14.984375 27.296875 
Q 14.984375 17.28125 19.8125 11.734375 
Q 24.65625 6.203125 33.40625 6.203125 
Q 37.3125 6.203125 41.140625 7.25 
Q 44.96875 8.296875 48.78125 10.40625 
L 48.78125 2.09375 
Q 45.015625 0.34375 40.984375 -0.53125 
Q 36.96875 -1.421875 32.421875 -1.421875 
Q 20.0625 -1.421875 12.78125 6.34375 
Q 5.515625 14.109375 5.515625 27.296875 
Q 5.515625 40.671875 12.859375 48.328125 
Q 20.21875 56 33.015625 56 
Q 37.15625 56 41.109375 55.140625 
Q 45.0625 54.296875 48.78125 52.59375 
z
" id="DejaVuSans-99"/>
     <path d="M 19.671875 64.796875 
L 19.671875 37.40625 
L 32.078125 37.40625 
Q 38.96875 37.40625 42.71875 40.96875 
Q 46.484375 44.53125 46.484375 51.125 
Q 46.484375 57.671875 42.71875 61.234375 
Q 38.96875 64.796875 32.078125 64.796875 
z
M 9.8125 72.90625 
L 32.078125 72.90625 
Q 44.34375 72.90625 50.609375 67.359375 
Q 56.890625 61.8125 56.890625 51.125 
Q 56.890625 40.328125 50.609375 34.8125 
Q 44.34375 29.296875 32.078125 29.296875 
L 19.671875 29.296875 
L 19.671875 0 
L 9.8125 0 
z
" id="DejaVuSans-80"/>
     <path d="M 9.078125 75.984375 
L 18.109375 75.984375 
L 18.109375 31.109375 
L 44.921875 54.6875 
L 56.390625 54.6875 
L 27.390625 29.109375 
L 57.625 0 
L 45.90625 0 
L 18.109375 26.703125 
L 18.109375 0 
L 9.078125 0 
z
" id="DejaVuSans-107"/>
    </defs>
    <g transform="translate(314.120938 16.318125)scale(0.12 -0.12)">
     <use xlink:href="#DejaVuSans-70"/>
     <use x="57.410156" xlink:href="#DejaVuSans-105"/>
     <use x="85.193359" xlink:href="#DejaVuSans-110"/>
     <use x="148.572266" xlink:href="#DejaVuSans-97"/>
     <use x="209.851562" xlink:href="#DejaVuSans-108"/>
     <use x="237.634766" xlink:href="#DejaVuSans-32"/>
     <use x="269.421875" xlink:href="#DejaVuSans-83"/>
     <use x="332.898438" xlink:href="#DejaVuSans-121"/>
     <use x="392.078125" xlink:href="#DejaVuSans-115"/>
     <use x="444.177734" xlink:href="#DejaVuSans-116"/>
     <use x="483.386719" xlink:href="#DejaVuSans-111"/>
     <use x="544.568359" xlink:href="#DejaVuSans-108"/>
     <use x="572.351562" xlink:href="#DejaVuSans-105"/>
     <use x="600.134766" xlink:href="#DejaVuSans-99"/>
     <use x="655.115234" xlink:href="#DejaVuSans-32"/>
     <use x="686.902344" xlink:href="#DejaVuSans-80"/>
     <use x="747.158203" xlink:href="#DejaVuSans-101"/>
     <use x="808.681641" xlink:href="#DejaVuSans-97"/>
     <use x="869.960938" xlink:href="#DejaVuSans-107"/>
     <use x="927.871094" xlink:href="#DejaVuSans-115"/>
    </g>
   </g>
  </g>
  <g id="axes_2">
   <g id="patch_7">
    <path d="M 40.603125 386.918125 
L 705.233125 386.918125 
L 705.233125 232.918125 
L 40.603125 232.918125 
z
" style="fill:#ffffff;"/>
   </g>
   <g id="matplotlib.axis_3">
    <g id="xtick_7">
     <g id="line2d_29">
      <g>
       <use style="stroke:#000000;stroke-width:0.8;" x="84.670108" xlink:href="#m8e5e013618" y="386.918125"/>
      </g>
     </g>
     <g id="text_17">
      <!-- 2.3 -->
      <g transform="translate(76.718546 401.516562)scale(0.1 -0.1)">
       <use xlink:href="#DejaVuSans-50"/>
       <use x="63.623047" xlink:href="#DejaVuSans-46"/>
       <use x="95.410156" xlink:href="#DejaVuSans-51"/>
      </g>
     </g>
    </g>
    <g id="xtick_8">
     <g id="line2d_30">
      <g>
       <use style="stroke:#000000;stroke-width:0.8;" x="192.085058" xlink:href="#m8e5e013618" y="386.918125"/>
      </g>
     </g>
     <g id="text_18">
      <!-- 2.4 -->
      <g transform="translate(184.133495 401.516562)scale(0.1 -0.1)">
       <use xlink:href="#DejaVuSans-50"/>
       <use x="63.623047" xlink:href="#DejaVuSans-46"/>
       <use x="95.410156" xlink:href="#DejaVuSans-52"/>
      </g>
     </g>
    </g>
    <g id="xtick_9">
     <g id="line2d_31">
      <g>
       <use style="stroke:#000000;stroke-width:0.8;" x="299.500007" xlink:href="#m8e5e013618" y="386.918125"/>
      </g>
     </g>
     <g id="text_19">
      <!-- 2.5 -->
      <g transform="translate(291.548445 401.516562)scale(0.1 -0.1)">
       <use xlink:href="#DejaVuSans-50"/>
       <use x="63.623047" xlink:href="#DejaVuSans-46"/>
       <use x="95.410156" xlink:href="#DejaVuSans-53"/>
      </g>
     </g>
    </g>
    <g id="xtick_10">
     <g id="line2d_32">
      <g>
       <use style="stroke:#000000;stroke-width:0.8;" x="406.914957" xlink:href="#m8e5e013618" y="386.918125"/>
      </g>
     </g>
     <g id="text_20">
      <!-- 2.6 -->
      <g transform="translate(398.963394 401.516562)scale(0.1 -0.1)">
       <use xlink:href="#DejaVuSans-50"/>
       <use x="63.623047" xlink:href="#DejaVuSans-46"/>
       <use x="95.410156" xlink:href="#DejaVuSans-54"/>
      </g>
     </g>
    </g>
    <g id="xtick_11">
     <g id="line2d_33">
      <g>
       <use style="stroke:#000000;stroke-width:0.8;" x="514.329906" xlink:href="#m8e5e013618" y="386.918125"/>
      </g>
     </g>
     <g id="text_21">
      <!-- 2.7 -->
      <g transform="translate(506.378344 401.516562)scale(0.1 -0.1)">
       <use xlink:href="#DejaVuSans-50"/>
       <use x="63.623047" xlink:href="#DejaVuSans-46"/>
       <use x="95.410156" xlink:href="#DejaVuSans-55"/>
      </g>
     </g>
    </g>
    <g id="xtick_12">
     <g id="line2d_34">
      <g>
       <use style="stroke:#000000;stroke-width:0.8;" x="621.744856" xlink:href="#m8e5e013618" y="386.918125"/>
      </g>
     </g>
     <g id="text_22">
      <!-- 2.8 -->
      <g transform="translate(613.793293 401.516562)scale(0.1 -0.1)">
       <use xlink:href="#DejaVuSans-50"/>
       <use x="63.623047" xlink:href="#DejaVuSans-46"/>
       <use x="95.410156" xlink:href="#DejaVuSans-56"/>
      </g>
     </g>
    </g>
    <g id="text_23">
     <!-- Time (ms) -->
     <g transform="translate(347.565 415.194687)scale(0.1 -0.1)">
      <use xlink:href="#DejaVuSans-84"/>
      <use x="61.037109" xlink:href="#DejaVuSans-105"/>
      <use x="88.820312" xlink:href="#DejaVuSans-109"/>
      <use x="186.232422" xlink:href="#DejaVuSans-101"/>
      <use x="247.755859" xlink:href="#DejaVuSans-32"/>
      <use x="279.542969" xlink:href="#DejaVuSans-40"/>
      <use x="318.556641" xlink:href="#DejaVuSans-109"/>
      <use x="415.96875" xlink:href="#DejaVuSans-115"/>
      <use x="468.068359" xlink:href="#DejaVuSans-41"/>
     </g>
    </g>
    <g id="text_24">
     <!-- 1e4 -->
     <g transform="translate(686.355 414.194687)scale(0.1 -0.1)">
      <use xlink:href="#DejaVuSans-49"/>
      <use x="63.623047" xlink:href="#DejaVuSans-101"/>
      <use x="125.146484" xlink:href="#DejaVuSans-52"/>
     </g>
    </g>
   </g>
   <g id="matplotlib.axis_4">
    <g id="ytick_7">
     <g id="line2d_35">
      <g>
       <use style="stroke:#000000;stroke-width:0.8;" x="40.603125" xlink:href="#m4233317fef" y="371.653559"/>
      </g>
     </g>
     <g id="text_25">
      <!-- 0 -->
      <g transform="translate(27.240625 375.452778)scale(0.1 -0.1)">
       <use xlink:href="#DejaVuSans-48"/>
      </g>
     </g>
    </g>
    <g id="ytick_8">
     <g id="line2d_36">
      <g>
       <use style="stroke:#000000;stroke-width:0.8;" x="40.603125" xlink:href="#m4233317fef" y="344.653116"/>
      </g>
     </g>
     <g id="text_26">
      <!-- 10 -->
      <g transform="translate(20.878125 348.452334)scale(0.1 -0.1)">
       <use xlink:href="#DejaVuSans-49"/>
       <use x="63.623047" xlink:href="#DejaVuSans-48"/>
      </g>
     </g>
    </g>
    <g id="ytick_9">
     <g id="line2d_37">
      <g>
       <use style="stroke:#000000;stroke-width:0.8;" x="40.603125" xlink:href="#m4233317fef" y="317.652672"/>
      </g>
     </g>
     <g id="text_27">
      <!-- 20 -->
      <g transform="translate(20.878125 321.451891)scale(0.1 -0.1)">
       <use xlink:href="#DejaVuSans-50"/>
       <use x="63.623047" xlink:href="#DejaVuSans-48"/>
      </g>
     </g>
    </g>
    <g id="ytick_10">
     <g id="line2d_38">
      <g>
       <use style="stroke:#000000;stroke-width:0.8;" x="40.603125" xlink:href="#m4233317fef" y="290.652228"/>
      </g>
     </g>
     <g id="text_28">
      <!-- 30 -->
      <g transform="translate(20.878125 294.451447)scale(0.1 -0.1)">
       <use xlink:href="#DejaVuSans-51"/>
       <use x="63.623047" xlink:href="#DejaVuSans-48"/>
      </g>
     </g>
    </g>
    <g id="ytick_11">
     <g id="line2d_39">
      <g>
       <use style="stroke:#000000;stroke-width:0.8;" x="40.603125" xlink:href="#m4233317fef" y="263.651785"/>
      </g>
     </g>
     <g id="text_29">
      <!-- 40 -->
      <g transform="translate(20.878125 267.451004)scale(0.1 -0.1)">
       <use xlink:href="#DejaVuSans-52"/>
       <use x="63.623047" xlink:href="#DejaVuSans-48"/>
      </g>
     </g>
    </g>
    <g id="ytick_12">
     <g id="line2d_40">
      <g>
       <use style="stroke:#000000;stroke-width:0.8;" x="40.603125" xlink:href="#m4233317fef" y="236.651341"/>
      </g>
     </g>
     <g id="text_30">
      <!-- 50 -->
      <g transform="translate(20.878125 240.45056)scale(0.1 -0.1)">
       <use xlink:href="#DejaVuSans-53"/>
       <use x="63.623047" xlink:href="#DejaVuSans-48"/>
      </g>
     </g>
    </g>
    <g id="text_31">
     <!-- ADC Value -->
     <g transform="translate(14.798438 336.382187)rotate(-90)scale(0.1 -0.1)">
      <use xlink:href="#DejaVuSans-65"/>
      <use x="68.408203" xlink:href="#DejaVuSans-68"/>
      <use x="145.410156" xlink:href="#DejaVuSans-67"/>
      <use x="215.234375" xlink:href="#DejaVuSans-32"/>
      <use x="247.021484" xlink:href="#DejaVuSans-86"/>
      <use x="315.320312" xlink:href="#DejaVuSans-97"/>
      <use x="376.599609" xlink:href="#DejaVuSans-108"/>
      <use x="404.382812" xlink:href="#DejaVuSans-117"/>
      <use x="467.761719" xlink:href="#DejaVuSans-101"/>
     </g>
    </g>
   </g>
   <g id="line2d_41">
    <path clip-path="url(#pf3de620029)" d="M 70.81358 277.162267 
L 71.780314 275.902966 
L 75.217592 269.877007 
L 76.184327 268.586926 
L 77.151062 269.590802 
L 78.117796 274.259179 
L 79.406776 283.46363 
L 80.58834 297.140975 
L 82.521809 332.302303 
L 83.703373 349.262361 
L 84.884938 362.899475 
L 86.066502 372.033995 
L 87.033237 376.621371 
L 88.107386 377.567466 
L 89.181536 376.248225 
L 91.329835 371.560678 
L 92.726229 369.27239 
L 93.800379 366.883931 
L 96.163508 360.322013 
L 98.526637 350.850257 
L 99.815616 345.790644 
L 100.78235 341.118758 
L 103.038064 333.865358 
L 104.004799 331.145334 
L 105.078948 328.613502 
L 107.119832 322.538132 
L 108.408812 318.452425 
L 111.41643 303.019512 
L 113.672144 294.139606 
L 116.035273 288.539714 
L 117.216838 285.987632 
L 118.183572 282.595836 
L 119.150307 277.818648 
L 120.117041 271.738418 
L 122.372755 260.32452 
L 123.55432 258.984488 
L 124.521054 263.245428 
L 125.810034 274.067206 
L 127.206428 290.910623 
L 129.354727 333.34317 
L 131.610441 366.990853 
L 132.577176 375.493832 
L 133.75874 378.559463 
L 134.832889 377.7589 
L 136.873773 372.28969 
L 137.947923 370.386698 
L 138.914658 369.583435 
L 141.062957 369.24782 
L 142.351936 368.356265 
L 143.5335 366.444094 
L 144.715065 363.563416 
L 145.896629 360.042288 
L 147.830098 352.650107 
L 151.589622 342.331618 
L 153.845336 333.781657 
L 155.778805 323.371096 
L 156.960369 318.222111 
L 158.356763 313.582085 
L 159.430913 309.566039 
L 161.471797 302.384731 
L 163.727511 293.310422 
L 165.123905 287.70702 
L 166.30547 282.24834 
L 167.594449 278.285755 
L 168.561184 277.419311 
L 169.742748 281.01901 
L 170.816898 289.721523 
L 171.891047 303.090793 
L 172.965197 319.605074 
L 173.931931 337.00821 
L 175.113496 352.917141 
L 176.187645 365.458847 
L 177.15438 373.691283 
L 178.121114 377.669798 
L 179.410093 378.181726 
L 180.484243 376.309246 
L 181.558392 373.028962 
L 183.706691 364.579713 
L 185.210501 359.972357 
L 187.466215 351.220434 
L 188.647779 347.794887 
L 189.614514 345.430458 
L 190.688663 344.188168 
L 191.762813 343.810432 
L 192.729547 343.746441 
L 193.911112 343.282573 
L 195.092676 341.731398 
L 196.059411 338.620947 
L 197.13356 333.830798 
L 198.100295 327.629336 
L 199.389274 320.5995 
L 201.537573 306.859515 
L 202.504308 301.133531 
L 204.867437 291.786247 
L 206.049001 287.262323 
L 207.98247 277.239218 
L 209.05662 272.788465 
L 210.238184 270.419446 
L 211.419748 271.734098 
L 212.493898 277.95716 
L 213.890292 289.401838 
L 214.964442 305.188997 
L 216.897911 341.412252 
L 219.26104 368.419446 
L 220.335189 375.320219 
L 221.301924 378.184967 
L 222.805733 378.103155 
L 223.987298 376.188554 
L 224.954032 373.174494 
L 227.102331 364.40772 
L 228.069066 358.367991 
L 231.184099 335.748909 
L 233.224983 323.335185 
L 234.299133 319.389341 
L 235.265867 316.771378 
L 236.340017 314.889177 
L 238.166071 312.969715 
L 239.132805 310.272101 
L 240.206955 306.289535 
L 242.784914 294.327529 
L 247.188927 268.335552 
L 249.444641 259.491287 
L 250.73362 255.235477 
L 251.915184 250.793634 
L 252.881919 246.605055 
L 253.956068 243.806189 
L 255.030218 244.051623 
L 255.996952 249.045355 
L 256.963687 259.905743 
L 257.930422 276.598228 
L 259.541646 297.687464 
L 260.615795 320.56845 
L 262.764094 359.659962 
L 264.053074 371.515317 
L 265.449468 377.514006 
L 266.631032 378.727135 
L 267.705182 376.936736 
L 270.068311 371.156751 
L 271.035045 369.108767 
L 273.720419 366.642817 
L 275.009399 365.193433 
L 275.976133 363.001267 
L 277.050283 359.913766 
L 278.124432 356.019492 
L 280.380146 346.820441 
L 281.669125 342.051353 
L 282.63586 337.410787 
L 285.106404 328.587042 
L 286.180553 324.182729 
L 288.114022 314.543841 
L 289.188172 309.163733 
L 290.154906 303.55574 
L 291.229056 297.985549 
L 294.558919 283.625093 
L 296.707218 275.829255 
L 297.888783 272.46716 
L 298.855517 270.200472 
L 300.037082 270.150522 
L 301.003816 273.610089 
L 301.970551 281.563339 
L 304.11885 310.525635 
L 305.407829 328.648873 
L 306.374564 346.070639 
L 307.341298 360.495626 
L 308.522863 370.46473 
L 309.597012 375.695256 
L 310.563747 376.998567 
L 311.530481 375.847538 
L 313.67878 371.979995 
L 314.645515 370.865416 
L 316.578984 369.654986 
L 317.653133 368.395146 
L 318.727283 366.134939 
L 319.694018 362.885165 
L 320.660752 358.983061 
L 321.842317 354.914634 
L 326.353744 341.745978 
L 327.642724 338.386313 
L 328.609458 334.283055 
L 330.757757 323.432387 
L 332.046737 317.140744 
L 333.013471 310.930102 
L 334.087621 305.37395 
L 336.23592 297.691244 
L 340.532518 289.645382 
L 341.606667 286.46365 
L 342.573402 283.066994 
L 343.862381 280.612924 
L 345.043946 280.626694 
L 346.44034 284.529878 
L 347.407074 293.099009 
L 348.481224 306.065432 
L 351.488843 354.151602 
L 352.455577 366.077698 
L 353.529727 373.742044 
L 354.603876 377.297192 
L 355.892856 377.660348 
L 357.181835 376.031141 
L 358.363399 373.433968 
L 359.437549 370.45771 
L 363.948977 355.478943 
L 364.915711 351.107842 
L 366.956595 343.529087 
L 368.245575 340.708081 
L 369.427139 338.400353 
L 370.823533 336.237077 
L 371.897683 333.765997 
L 374.045982 326.601969 
L 375.334961 321.859611 
L 377.26843 311.727965 
L 378.55741 307.18973 
L 381.135369 299.696837 
L 383.283668 291.98524 
L 385.217137 282.430323 
L 386.398701 278.55819 
L 387.472851 277.211948 
L 388.439585 279.925222 
L 389.728565 287.645999 
L 390.910129 300.273297 
L 394.239992 350.692845 
L 395.421557 364.023504 
L 396.495706 373.011682 
L 397.569856 377.619037 
L 398.53659 378.652884 
L 399.61074 377.272622 
L 400.899719 374.498596 
L 402.081284 370.934537 
L 403.048018 366.764589 
L 404.014753 361.96526 
L 405.303732 356.568411 
L 407.237201 345.193665 
L 409.3855 336.136636 
L 411.963459 330.789738 
L 412.930194 328.703144 
L 414.219173 326.294704 
L 415.508152 323.149152 
L 417.656451 314.253856 
L 420.8789 298.775042 
L 421.845634 294.494122 
L 423.027199 290.73242 
L 424.531008 287.11976 
L 425.712573 283.153395 
L 426.679307 278.458558 
L 427.646042 273.09411 
L 429.794341 263.892359 
L 430.761075 263.231928 
L 431.72781 267.449937 
L 433.016789 277.440101 
L 434.305769 292.851415 
L 435.487333 311.986899 
L 436.561483 332.179991 
L 438.709782 364.790316 
L 439.676516 373.839785 
L 440.643251 377.927652 
L 441.93223 378.277308 
L 443.113794 376.484479 
L 445.154679 371.285543 
L 446.443658 368.701871 
L 447.410392 365.815793 
L 448.377127 362.225814 
L 449.451277 357.772091 
L 450.418011 352.658207 
L 452.99597 342.437459 
L 454.070119 338.23808 
L 458.474132 325.633463 
L 459.440867 321.531556 
L 460.729846 316.636105 
L 461.696581 311.182016 
L 462.878145 305.608314 
L 463.84488 300.436649 
L 464.919029 296.117928 
L 465.993179 292.878415 
L 468.034063 288.801078 
L 469.108212 286.731224 
L 470.182362 283.641023 
L 474.586375 263.272429 
L 475.553109 262.663569 
L 476.734674 267.421317 
L 477.808823 278.300066 
L 479.097803 294.675025 
L 480.279367 314.551941 
L 481.675761 335.052028 
L 482.642496 353.221706 
L 484.03889 366.867191 
L 485.220455 375.090176 
L 486.509434 378.338599 
L 487.476169 378.006494 
L 488.765148 375.790297 
L 491.987597 368.504227 
L 493.276576 366.327182 
L 494.24331 363.646038 
L 495.31746 360.196191 
L 499.614058 342.060263 
L 502.836506 328.347818 
L 504.018071 323.136462 
L 505.52188 317.430188 
L 507.885009 305.209788 
L 509.818478 293.926572 
L 512.074192 285.491904 
L 514.222491 279.485655 
L 515.51147 276.468625 
L 516.58562 272.820596 
L 517.767184 268.351752 
L 518.733919 263.406621 
L 519.915483 259.019859 
L 520.882218 256.832823 
L 521.848952 258.710974 
L 523.030517 266.131506 
L 524.104666 279.544516 
L 525.393646 297.986359 
L 526.57521 319.158757 
L 529.045754 357.609819 
L 530.119904 370.003562 
L 531.194053 376.667542 
L 532.375618 378.460371 
L 533.664597 377.112779 
L 535.598066 374.521006 
L 536.672216 372.120937 
L 537.746365 370.554371 
L 539.894664 368.892224 
L 540.968813 367.46255 
L 542.042963 364.933419 
L 543.331942 361.244618 
L 544.298677 356.685323 
L 545.909901 351.698611 
L 548.165615 341.711417 
L 549.13235 336.785186 
L 550.528744 331.661042 
L 554.717927 307.445424 
L 556.114321 301.275283 
L 557.940376 295.504748 
L 559.98126 285.038836 
L 561.270239 280.134476 
L 562.236973 275.629452 
L 563.311123 272.197155 
L 564.277858 270.962155 
L 565.674252 273.233432 
L 566.855816 280.038624 
L 567.822551 291.633695 
L 568.789285 307.20593 
L 569.75602 324.932262 
L 571.152414 342.424499 
L 572.226564 357.399215 
L 573.193298 368.318464 
L 574.160033 374.73944 
L 575.663842 377.254261 
L 576.845407 377.077678 
L 578.993706 373.372407 
L 580.067855 371.005279 
L 581.03459 368.166182 
L 582.108739 364.435801 
L 584.149623 353.590802 
L 585.116358 347.076135 
L 586.190507 340.716181 
L 587.264657 335.17164 
L 589.520371 327.509994 
L 590.701935 324.83533 
L 591.776085 322.076965 
L 593.279894 318.566907 
L 594.246628 313.89124 
L 596.502342 301.305794 
L 597.469077 294.353179 
L 599.724791 282.104158 
L 600.691525 277.34479 
L 601.87309 273.224522 
L 603.269484 269.194166 
L 606.384518 254.925242 
L 607.566082 251.498075 
L 608.640232 251.356053 
L 609.821796 256.273104 
L 610.788531 267.264444 
L 612.07751 284.04225 
L 613.044245 304.869852 
L 615.299959 347.116906 
L 616.481523 362.921346 
L 617.448258 373.108343 
L 618.414992 377.886342 
L 619.596557 378.571613 
L 620.778121 376.927826 
L 621.744856 374.481856 
L 623.78574 369.801329 
L 626.041453 363.871221 
L 627.008188 359.474199 
L 627.974923 354.240703 
L 629.908392 348.708582 
L 630.875126 343.501007 
L 631.841861 339.048094 
L 632.808595 335.420314 
L 634.20499 332.335783 
L 635.279139 329.314974 
L 636.245874 325.902658 
L 637.212608 321.863121 
L 638.179343 317.274666 
L 639.360907 312.488567 
L 640.327642 307.970043 
L 642.475941 300.811145 
L 644.83907 294.237887 
L 646.020634 289.234165 
L 646.987369 282.089308 
L 648.598593 272.706924 
L 649.994987 261.852205 
L 650.961722 251.1927 
L 652.143286 243.055847 
L 653.217436 239.918125 
L 654.18417 243.736528 
L 655.25832 255.300278 
L 657.514034 297.043233 
L 659.554918 344.106357 
L 660.629067 361.812438 
L 662.025462 373.402648 
L 663.314441 379.02171 
L 664.281176 379.918125 
L 665.24791 377.79535 
L 667.396209 370.024892 
L 670.618658 355.905821 
L 672.874371 343.752921 
L 673.841106 336.861598 
L 675.02267 329.584708 
L 675.02267 329.584708 
" style="fill:none;stroke:#1f77b4;stroke-linecap:square;stroke-width:1.5;"/>
   </g>
   <g id="line2d_42">
    <g clip-path="url(#pf3de620029)">
     <use style="fill:#ff0000;stroke:#ff0000;" x="105.078948" xlink:href="#me2e0526dbc" y="328.613502"/>
     <use style="fill:#ff0000;stroke:#ff0000;" x="150.408057" xlink:href="#me2e0526dbc" y="345.858685"/>
     <use style="fill:#ff0000;stroke:#ff0000;" x="192.729547" xlink:href="#me2e0526dbc" y="343.746441"/>
     <use style="fill:#ff0000;stroke:#ff0000;" x="236.340017" xlink:href="#me2e0526dbc" y="314.889177"/>
     <use style="fill:#ff0000;stroke:#ff0000;" x="285.106404" xlink:href="#me2e0526dbc" y="328.587042"/>
     <use style="fill:#ff0000;stroke:#ff0000;" x="325.17218" xlink:href="#me2e0526dbc" y="344.721967"/>
     <use style="fill:#ff0000;stroke:#ff0000;" x="370.823533" xlink:href="#me2e0526dbc" y="336.237077"/>
     <use style="fill:#ff0000;stroke:#ff0000;" x="412.930194" xlink:href="#me2e0526dbc" y="328.703144"/>
     <use style="fill:#ff0000;stroke:#ff0000;" x="456.325833" xlink:href="#me2e0526dbc" y="331.883526"/>
     <use style="fill:#ff0000;stroke:#ff0000;" x="500.688207" xlink:href="#me2e0526dbc" y="337.59466"/>
     <use style="fill:#ff0000;stroke:#ff0000;" x="548.165615" xlink:href="#me2e0526dbc" y="341.711417"/>
     <use style="fill:#ff0000;stroke:#ff0000;" x="590.701935" xlink:href="#me2e0526dbc" y="324.83533"/>
     <use style="fill:#ff0000;stroke:#ff0000;" x="635.279139" xlink:href="#me2e0526dbc" y="329.314974"/>
    </g>
   </g>
   <g id="line2d_43">
    <path clip-path="url(#pf3de620029)" d="M 105.078948 386.918125 
L 105.078948 232.918125 
" style="fill:none;stroke:#808080;stroke-dasharray:5.55,2.4;stroke-dashoffset:0;stroke-width:1.5;"/>
   </g>
   <g id="line2d_44">
    <path clip-path="url(#pf3de620029)" d="M 150.408057 386.918125 
L 150.408057 232.918125 
" style="fill:none;stroke:#808080;stroke-dasharray:5.55,2.4;stroke-dashoffset:0;stroke-width:1.5;"/>
   </g>
   <g id="line2d_45">
    <path clip-path="url(#pf3de620029)" d="M 192.729547 386.918125 
L 192.729547 232.918125 
" style="fill:none;stroke:#808080;stroke-dasharray:5.55,2.4;stroke-dashoffset:0;stroke-width:1.5;"/>
   </g>
   <g id="line2d_46">
    <path clip-path="url(#pf3de620029)" d="M 236.340017 386.918125 
L 236.340017 232.918125 
" style="fill:none;stroke:#808080;stroke-dasharray:5.55,2.4;stroke-dashoffset:0;stroke-width:1.5;"/>
   </g>
   <g id="line2d_47">
    <path clip-path="url(#pf3de620029)" d="M 285.106404 386.918125 
L 285.106404 232.918125 
" style="fill:none;stroke:#808080;stroke-dasharray:5.55,2.4;stroke-dashoffset:0;stroke-width:1.5;"/>
   </g>
   <g id="line2d_48">
    <path clip-path="url(#pf3de620029)" d="M 325.17218 386.918125 
L 325.17218 232.918125 
" style="fill:none;stroke:#808080;stroke-dasharray:5.55,2.4;stroke-dashoffset:0;stroke-width:1.5;"/>
   </g>
   <g id="line2d_49">
    <path clip-path="url(#pf3de620029)" d="M 370.823533 386.918125 
L 370.823533 232.918125 
" style="fill:none;stroke:#808080;stroke-dasharray:5.55,2.4;stroke-dashoffset:0;stroke-width:1.5;"/>
   </g>
   <g id="line2d_50">
    <path clip-path="url(#pf3de620029)" d="M 412.930194 386.918125 
L 412.930194 232.918125 
" style="fill:none;stroke:#808080;stroke-dasharray:5.55,2.4;stroke-dashoffset:0;stroke-width:1.5;"/>
   </g>
   <g id="line2d_51">
    <path clip-path="url(#pf3de620029)" d="M 456.325833 386.918125 
L 456.325833 232.918125 
" style="fill:none;stroke:#808080;stroke-dasharray:5.55,2.4;stroke-dashoffset:0;stroke-width:1.5;"/>
   </g>
   <g id="line2d_52">
    <path clip-path="url(#pf3de620029)" d="M 500.688207 386.918125 
L 500.688207 232.918125 
" style="fill:none;stroke:#808080;stroke-dasharray:5.55,2.4;stroke-dashoffset:0;stroke-width:1.5;"/>
   </g>
   <g id="line2d_53">
    <path clip-path="url(#pf3de620029)" d="M 548.165615 386.918125 
L 548.165615 232.918125 
" style="fill:none;stroke:#808080;stroke-dasharray:5.55,2.4;stroke-dashoffset:0;stroke-width:1.5;"/>
   </g>
   <g id="line2d_54">
    <path clip-path="url(#pf3de620029)" d="M 590.701935 386.918125 
L 590.701935 232.918125 
" style="fill:none;stroke:#808080;stroke-dasharray:5.55,2.4;stroke-dashoffset:0;stroke-width:1.5;"/>
   </g>
   <g id="line2d_55">
    <path clip-path="url(#pf3de620029)" d="M 635.279139 386.918125 
L 635.279139 232.918125 
" style="fill:none;stroke:#808080;stroke-dasharray:5.55,2.4;stroke-dashoffset:0;stroke-width:1.5;"/>
   </g>
   <g id="line2d_56">
    <path clip-path="url(#pf3de620029)" d="M 88.107386 386.918125 
L 88.107386 232.918125 
" style="fill:none;stroke:#ff0000;stroke-dasharray:5.55,2.4;stroke-dashoffset:0;stroke-width:1.5;"/>
   </g>
   <g id="patch_8">
    <path d="M 40.603125 386.918125 
L 40.603125 232.918125 
" style="fill:none;stroke:#000000;stroke-linecap:square;stroke-linejoin:miter;stroke-width:0.8;"/>
   </g>
   <g id="patch_9">
    <path d="M 705.233125 386.918125 
L 705.233125 232.918125 
" style="fill:none;stroke:#000000;stroke-linecap:square;stroke-linejoin:miter;stroke-width:0.8;"/>
   </g>
   <g id="patch_10">
    <path d="M 40.603125 386.918125 
L 705.233125 386.918125 
" style="fill:none;stroke:#000000;stroke-linecap:square;stroke-linejoin:miter;stroke-width:0.8;"/>
   </g>
   <g id="patch_11">
    <path d="M 40.603125 232.918125 
L 705.233125 232.918125 
" style="fill:none;stroke:#000000;stroke-linecap:square;stroke-linejoin:miter;stroke-width:0.8;"/>
   </g>
   <g id="text_32">
    <!-- Final Diastolic Peaks -->
    <g transform="translate(311.5175 226.918125)scale(0.12 -0.12)">
     <use xlink:href="#DejaVuSans-70"/>
     <use x="57.410156" xlink:href="#DejaVuSans-105"/>
     <use x="85.193359" xlink:href="#DejaVuSans-110"/>
     <use x="148.572266" xlink:href="#DejaVuSans-97"/>
     <use x="209.851562" xlink:href="#DejaVuSans-108"/>
     <use x="237.634766" xlink:href="#DejaVuSans-32"/>
     <use x="269.421875" xlink:href="#DejaVuSans-68"/>
     <use x="346.423828" xlink:href="#DejaVuSans-105"/>
     <use x="374.207031" xlink:href="#DejaVuSans-97"/>
     <use x="435.486328" xlink:href="#DejaVuSans-115"/>
     <use x="487.585938" xlink:href="#DejaVuSans-116"/>
     <use x="526.794922" xlink:href="#DejaVuSans-111"/>
     <use x="587.976562" xlink:href="#DejaVuSans-108"/>
     <use x="615.759766" xlink:href="#DejaVuSans-105"/>
     <use x="643.542969" xlink:href="#DejaVuSans-99"/>
     <use x="698.523438" xlink:href="#DejaVuSans-32"/>
     <use x="730.310547" xlink:href="#DejaVuSans-80"/>
     <use x="790.566406" xlink:href="#DejaVuSans-101"/>
     <use x="852.089844" xlink:href="#DejaVuSans-97"/>
     <use x="913.369141" xlink:href="#DejaVuSans-107"/>
     <use x="971.279297" xlink:href="#DejaVuSans-115"/>
    </g>
   </g>
  </g>
 </g>
 <defs>
  <clipPath id="pef3ba318ed">
   <rect height="154" width="664.63" x="40.603125" y="22.318125"/>
  </clipPath>
  <clipPath id="pf3de620029">
   <rect height="154" width="664.63" x="40.603125" y="232.918125"/>
  </clipPath>
 </defs>
</svg>
