<?xml version="1.0" encoding="utf-8" standalone="no"?>
<!DOCTYPE svg PUBLIC "-//W3C//DTD SVG 1.1//EN"
  "http://www.w3.org/Graphics/SVG/1.1/DTD/svg11.dtd">
<!-- Created with matplotlib (https://matplotlib.org/) -->
<svg height="424.474375pt" version="1.1" viewBox="0 0 712.131362 424.474375" width="712.131362pt" xmlns="http://www.w3.org/2000/svg" xmlns:xlink="http://www.w3.org/1999/xlink">
 <defs>
  <style type="text/css">
*{stroke-linecap:butt;stroke-linejoin:round;}
  </style>
 </defs>
 <g id="figure_1">
  <g id="patch_1">
   <path d="M 0 424.474375 
L 712.131362 424.474375 
L 712.131362 0 
L 0 0 
z
" style="fill:#ffffff;"/>
  </g>
  <g id="axes_1">
   <g id="patch_2">
    <path d="M 50.14375 176.318125 
L 692.606023 176.318125 
L 692.606023 22.318125 
L 50.14375 22.318125 
z
" style="fill:#ffffff;"/>
   </g>
   <g id="matplotlib.axis_1">
    <g id="xtick_1">
     <g id="line2d_1">
      <defs>
       <path d="M 0 0 
L 0 3.5 
" id="m4ea28aa02c" style="stroke:#000000;stroke-width:0.8;"/>
      </defs>
      <g>
       <use style="stroke:#000000;stroke-width:0.8;" x="119.69197" xlink:href="#m4ea28aa02c" y="176.318125"/>
      </g>
     </g>
     <g id="text_1">
      <!-- 9.100 -->
      <defs>
       <path d="M 10.984375 1.515625 
L 10.984375 10.5 
Q 14.703125 8.734375 18.5 7.8125 
Q 22.3125 6.890625 25.984375 6.890625 
Q 35.75 6.890625 40.890625 13.453125 
Q 46.046875 20.015625 46.78125 33.40625 
Q 43.953125 29.203125 39.59375 26.953125 
Q 35.25 24.703125 29.984375 24.703125 
Q 19.046875 24.703125 12.671875 31.3125 
Q 6.296875 37.9375 6.296875 49.421875 
Q 6.296875 60.640625 12.9375 67.421875 
Q 19.578125 74.21875 30.609375 74.21875 
Q 43.265625 74.21875 49.921875 64.515625 
Q 56.59375 54.828125 56.59375 36.375 
Q 56.59375 19.140625 48.40625 8.859375 
Q 40.234375 -1.421875 26.421875 -1.421875 
Q 22.703125 -1.421875 18.890625 -0.6875 
Q 15.09375 0.046875 10.984375 1.515625 
z
M 30.609375 32.421875 
Q 37.25 32.421875 41.125 36.953125 
Q 45.015625 41.5 45.015625 49.421875 
Q 45.015625 57.28125 41.125 61.84375 
Q 37.25 66.40625 30.609375 66.40625 
Q 23.96875 66.40625 20.09375 61.84375 
Q 16.21875 57.28125 16.21875 49.421875 
Q 16.21875 41.5 20.09375 36.953125 
Q 23.96875 32.421875 30.609375 32.421875 
z
" id="DejaVuSans-57"/>
       <path d="M 10.6875 12.40625 
L 21 12.40625 
L 21 0 
L 10.6875 0 
z
" id="DejaVuSans-46"/>
       <path d="M 12.40625 8.296875 
L 28.515625 8.296875 
L 28.515625 63.921875 
L 10.984375 60.40625 
L 10.984375 69.390625 
L 28.421875 72.90625 
L 38.28125 72.90625 
L 38.28125 8.296875 
L 54.390625 8.296875 
L 54.390625 0 
L 12.40625 0 
z
" id="DejaVuSans-49"/>
       <path d="M 31.78125 66.40625 
Q 24.171875 66.40625 20.328125 58.90625 
Q 16.5 51.421875 16.5 36.375 
Q 16.5 21.390625 20.328125 13.890625 
Q 24.171875 6.390625 31.78125 6.390625 
Q 39.453125 6.390625 43.28125 13.890625 
Q 47.125 21.390625 47.125 36.375 
Q 47.125 51.421875 43.28125 58.90625 
Q 39.453125 66.40625 31.78125 66.40625 
z
M 31.78125 74.21875 
Q 44.046875 74.21875 50.515625 64.515625 
Q 56.984375 54.828125 56.984375 36.375 
Q 56.984375 17.96875 50.515625 8.265625 
Q 44.046875 -1.421875 31.78125 -1.421875 
Q 19.53125 -1.421875 13.0625 8.265625 
Q 6.59375 17.96875 6.59375 36.375 
Q 6.59375 54.828125 13.0625 64.515625 
Q 19.53125 74.21875 31.78125 74.21875 
z
" id="DejaVuSans-48"/>
      </defs>
      <g transform="translate(105.377908 190.916562)scale(0.1 -0.1)">
       <use xlink:href="#DejaVuSans-57"/>
       <use x="63.623047" xlink:href="#DejaVuSans-46"/>
       <use x="95.410156" xlink:href="#DejaVuSans-49"/>
       <use x="159.033203" xlink:href="#DejaVuSans-48"/>
       <use x="222.65625" xlink:href="#DejaVuSans-48"/>
      </g>
     </g>
    </g>
    <g id="xtick_2">
     <g id="line2d_2">
      <g>
       <use style="stroke:#000000;stroke-width:0.8;" x="214.846192" xlink:href="#m4ea28aa02c" y="176.318125"/>
      </g>
     </g>
     <g id="text_2">
      <!-- 9.105 -->
      <defs>
       <path d="M 10.796875 72.90625 
L 49.515625 72.90625 
L 49.515625 64.59375 
L 19.828125 64.59375 
L 19.828125 46.734375 
Q 21.96875 47.46875 24.109375 47.828125 
Q 26.265625 48.1875 28.421875 48.1875 
Q 40.625 48.1875 47.75 41.5 
Q 54.890625 34.8125 54.890625 23.390625 
Q 54.890625 11.625 47.5625 5.09375 
Q 40.234375 -1.421875 26.90625 -1.421875 
Q 22.3125 -1.421875 17.546875 -0.640625 
Q 12.796875 0.140625 7.71875 1.703125 
L 7.71875 11.625 
Q 12.109375 9.234375 16.796875 8.0625 
Q 21.484375 6.890625 26.703125 6.890625 
Q 35.15625 6.890625 40.078125 11.328125 
Q 45.015625 15.765625 45.015625 23.390625 
Q 45.015625 31 40.078125 35.4375 
Q 35.15625 39.890625 26.703125 39.890625 
Q 22.75 39.890625 18.8125 39.015625 
Q 14.890625 38.140625 10.796875 36.28125 
z
" id="DejaVuSans-53"/>
      </defs>
      <g transform="translate(200.532129 190.916562)scale(0.1 -0.1)">
       <use xlink:href="#DejaVuSans-57"/>
       <use x="63.623047" xlink:href="#DejaVuSans-46"/>
       <use x="95.410156" xlink:href="#DejaVuSans-49"/>
       <use x="159.033203" xlink:href="#DejaVuSans-48"/>
       <use x="222.65625" xlink:href="#DejaVuSans-53"/>
      </g>
     </g>
    </g>
    <g id="xtick_3">
     <g id="line2d_3">
      <g>
       <use style="stroke:#000000;stroke-width:0.8;" x="310.000413" xlink:href="#m4ea28aa02c" y="176.318125"/>
      </g>
     </g>
     <g id="text_3">
      <!-- 9.110 -->
      <g transform="translate(295.686351 190.916562)scale(0.1 -0.1)">
       <use xlink:href="#DejaVuSans-57"/>
       <use x="63.623047" xlink:href="#DejaVuSans-46"/>
       <use x="95.410156" xlink:href="#DejaVuSans-49"/>
       <use x="159.033203" xlink:href="#DejaVuSans-49"/>
       <use x="222.65625" xlink:href="#DejaVuSans-48"/>
      </g>
     </g>
    </g>
    <g id="xtick_4">
     <g id="line2d_4">
      <g>
       <use style="stroke:#000000;stroke-width:0.8;" x="405.154635" xlink:href="#m4ea28aa02c" y="176.318125"/>
      </g>
     </g>
     <g id="text_4">
      <!-- 9.115 -->
      <g transform="translate(390.840572 190.916562)scale(0.1 -0.1)">
       <use xlink:href="#DejaVuSans-57"/>
       <use x="63.623047" xlink:href="#DejaVuSans-46"/>
       <use x="95.410156" xlink:href="#DejaVuSans-49"/>
       <use x="159.033203" xlink:href="#DejaVuSans-49"/>
       <use x="222.65625" xlink:href="#DejaVuSans-53"/>
      </g>
     </g>
    </g>
    <g id="xtick_5">
     <g id="line2d_5">
      <g>
       <use style="stroke:#000000;stroke-width:0.8;" x="500.308856" xlink:href="#m4ea28aa02c" y="176.318125"/>
      </g>
     </g>
     <g id="text_5">
      <!-- 9.120 -->
      <defs>
       <path d="M 19.1875 8.296875 
L 53.609375 8.296875 
L 53.609375 0 
L 7.328125 0 
L 7.328125 8.296875 
Q 12.9375 14.109375 22.625 23.890625 
Q 32.328125 33.6875 34.8125 36.53125 
Q 39.546875 41.84375 41.421875 45.53125 
Q 43.3125 49.21875 43.3125 52.78125 
Q 43.3125 58.59375 39.234375 62.25 
Q 35.15625 65.921875 28.609375 65.921875 
Q 23.96875 65.921875 18.8125 64.3125 
Q 13.671875 62.703125 7.8125 59.421875 
L 7.8125 69.390625 
Q 13.765625 71.78125 18.9375 73 
Q 24.125 74.21875 28.421875 74.21875 
Q 39.75 74.21875 46.484375 68.546875 
Q 53.21875 62.890625 53.21875 53.421875 
Q 53.21875 48.921875 51.53125 44.890625 
Q 49.859375 40.875 45.40625 35.40625 
Q 44.1875 33.984375 37.640625 27.21875 
Q 31.109375 20.453125 19.1875 8.296875 
z
" id="DejaVuSans-50"/>
      </defs>
      <g transform="translate(485.994794 190.916562)scale(0.1 -0.1)">
       <use xlink:href="#DejaVuSans-57"/>
       <use x="63.623047" xlink:href="#DejaVuSans-46"/>
       <use x="95.410156" xlink:href="#DejaVuSans-49"/>
       <use x="159.033203" xlink:href="#DejaVuSans-50"/>
       <use x="222.65625" xlink:href="#DejaVuSans-48"/>
      </g>
     </g>
    </g>
    <g id="xtick_6">
     <g id="line2d_6">
      <g>
       <use style="stroke:#000000;stroke-width:0.8;" x="595.463078" xlink:href="#m4ea28aa02c" y="176.318125"/>
      </g>
     </g>
     <g id="text_6">
      <!-- 9.125 -->
      <g transform="translate(581.149015 190.916562)scale(0.1 -0.1)">
       <use xlink:href="#DejaVuSans-57"/>
       <use x="63.623047" xlink:href="#DejaVuSans-46"/>
       <use x="95.410156" xlink:href="#DejaVuSans-49"/>
       <use x="159.033203" xlink:href="#DejaVuSans-50"/>
       <use x="222.65625" xlink:href="#DejaVuSans-53"/>
      </g>
     </g>
    </g>
    <g id="xtick_7">
     <g id="line2d_7">
      <g>
       <use style="stroke:#000000;stroke-width:0.8;" x="690.617299" xlink:href="#m4ea28aa02c" y="176.318125"/>
      </g>
     </g>
     <g id="text_7">
      <!-- 9.130 -->
      <defs>
       <path d="M 40.578125 39.3125 
Q 47.65625 37.796875 51.625 33 
Q 55.609375 28.21875 55.609375 21.1875 
Q 55.609375 10.40625 48.1875 4.484375 
Q 40.765625 -1.421875 27.09375 -1.421875 
Q 22.515625 -1.421875 17.65625 -0.515625 
Q 12.796875 0.390625 7.625 2.203125 
L 7.625 11.71875 
Q 11.71875 9.328125 16.59375 8.109375 
Q 21.484375 6.890625 26.8125 6.890625 
Q 36.078125 6.890625 40.9375 10.546875 
Q 45.796875 14.203125 45.796875 21.1875 
Q 45.796875 27.640625 41.28125 31.265625 
Q 36.765625 34.90625 28.71875 34.90625 
L 20.21875 34.90625 
L 20.21875 43.015625 
L 29.109375 43.015625 
Q 36.375 43.015625 40.234375 45.921875 
Q 44.09375 48.828125 44.09375 54.296875 
Q 44.09375 59.90625 40.109375 62.90625 
Q 36.140625 65.921875 28.71875 65.921875 
Q 24.65625 65.921875 20.015625 65.03125 
Q 15.375 64.15625 9.8125 62.3125 
L 9.8125 71.09375 
Q 15.4375 72.65625 20.34375 73.4375 
Q 25.25 74.21875 29.59375 74.21875 
Q 40.828125 74.21875 47.359375 69.109375 
Q 53.90625 64.015625 53.90625 55.328125 
Q 53.90625 49.265625 50.4375 45.09375 
Q 46.96875 40.921875 40.578125 39.3125 
z
" id="DejaVuSans-51"/>
      </defs>
      <g transform="translate(676.303237 190.916562)scale(0.1 -0.1)">
       <use xlink:href="#DejaVuSans-57"/>
       <use x="63.623047" xlink:href="#DejaVuSans-46"/>
       <use x="95.410156" xlink:href="#DejaVuSans-49"/>
       <use x="159.033203" xlink:href="#DejaVuSans-51"/>
       <use x="222.65625" xlink:href="#DejaVuSans-48"/>
      </g>
     </g>
    </g>
    <g id="text_8">
     <!-- Time (ms) -->
     <defs>
      <path d="M -0.296875 72.90625 
L 61.375 72.90625 
L 61.375 64.59375 
L 35.5 64.59375 
L 35.5 0 
L 25.59375 0 
L 25.59375 64.59375 
L -0.296875 64.59375 
z
" id="DejaVuSans-84"/>
      <path d="M 9.421875 54.6875 
L 18.40625 54.6875 
L 18.40625 0 
L 9.421875 0 
z
M 9.421875 75.984375 
L 18.40625 75.984375 
L 18.40625 64.59375 
L 9.421875 64.59375 
z
" id="DejaVuSans-105"/>
      <path d="M 52 44.1875 
Q 55.375 50.25 60.0625 53.125 
Q 64.75 56 71.09375 56 
Q 79.640625 56 84.28125 50.015625 
Q 88.921875 44.046875 88.921875 33.015625 
L 88.921875 0 
L 79.890625 0 
L 79.890625 32.71875 
Q 79.890625 40.578125 77.09375 44.375 
Q 74.3125 48.1875 68.609375 48.1875 
Q 61.625 48.1875 57.5625 43.546875 
Q 53.515625 38.921875 53.515625 30.90625 
L 53.515625 0 
L 44.484375 0 
L 44.484375 32.71875 
Q 44.484375 40.625 41.703125 44.40625 
Q 38.921875 48.1875 33.109375 48.1875 
Q 26.21875 48.1875 22.15625 43.53125 
Q 18.109375 38.875 18.109375 30.90625 
L 18.109375 0 
L 9.078125 0 
L 9.078125 54.6875 
L 18.109375 54.6875 
L 18.109375 46.1875 
Q 21.1875 51.21875 25.484375 53.609375 
Q 29.78125 56 35.6875 56 
Q 41.65625 56 45.828125 52.96875 
Q 50 49.953125 52 44.1875 
z
" id="DejaVuSans-109"/>
      <path d="M 56.203125 29.59375 
L 56.203125 25.203125 
L 14.890625 25.203125 
Q 15.484375 15.921875 20.484375 11.0625 
Q 25.484375 6.203125 34.421875 6.203125 
Q 39.59375 6.203125 44.453125 7.46875 
Q 49.3125 8.734375 54.109375 11.28125 
L 54.109375 2.78125 
Q 49.265625 0.734375 44.1875 -0.34375 
Q 39.109375 -1.421875 33.890625 -1.421875 
Q 20.796875 -1.421875 13.15625 6.1875 
Q 5.515625 13.8125 5.515625 26.8125 
Q 5.515625 40.234375 12.765625 48.109375 
Q 20.015625 56 32.328125 56 
Q 43.359375 56 49.78125 48.890625 
Q 56.203125 41.796875 56.203125 29.59375 
z
M 47.21875 32.234375 
Q 47.125 39.59375 43.09375 43.984375 
Q 39.0625 48.390625 32.421875 48.390625 
Q 24.90625 48.390625 20.390625 44.140625 
Q 15.875 39.890625 15.1875 32.171875 
z
" id="DejaVuSans-101"/>
      <path id="DejaVuSans-32"/>
      <path d="M 31 75.875 
Q 24.46875 64.65625 21.28125 53.65625 
Q 18.109375 42.671875 18.109375 31.390625 
Q 18.109375 20.125 21.3125 9.0625 
Q 24.515625 -2 31 -13.1875 
L 23.1875 -13.1875 
Q 15.875 -1.703125 12.234375 9.375 
Q 8.59375 20.453125 8.59375 31.390625 
Q 8.59375 42.28125 12.203125 53.3125 
Q 15.828125 64.359375 23.1875 75.875 
z
" id="DejaVuSans-40"/>
      <path d="M 44.28125 53.078125 
L 44.28125 44.578125 
Q 40.484375 46.53125 36.375 47.5 
Q 32.28125 48.484375 27.875 48.484375 
Q 21.1875 48.484375 17.84375 46.4375 
Q 14.5 44.390625 14.5 40.28125 
Q 14.5 37.15625 16.890625 35.375 
Q 19.28125 33.59375 26.515625 31.984375 
L 29.59375 31.296875 
Q 39.15625 29.25 43.1875 25.515625 
Q 47.21875 21.78125 47.21875 15.09375 
Q 47.21875 7.46875 41.1875 3.015625 
Q 35.15625 -1.421875 24.609375 -1.421875 
Q 20.21875 -1.421875 15.453125 -0.5625 
Q 10.6875 0.296875 5.421875 2 
L 5.421875 11.28125 
Q 10.40625 8.6875 15.234375 7.390625 
Q 20.0625 6.109375 24.8125 6.109375 
Q 31.15625 6.109375 34.5625 8.28125 
Q 37.984375 10.453125 37.984375 14.40625 
Q 37.984375 18.0625 35.515625 20.015625 
Q 33.0625 21.96875 24.703125 23.78125 
L 21.578125 24.515625 
Q 13.234375 26.265625 9.515625 29.90625 
Q 5.8125 33.546875 5.8125 39.890625 
Q 5.8125 47.609375 11.28125 51.796875 
Q 16.75 56 26.8125 56 
Q 31.78125 56 36.171875 55.265625 
Q 40.578125 54.546875 44.28125 53.078125 
z
" id="DejaVuSans-115"/>
      <path d="M 8.015625 75.875 
L 15.828125 75.875 
Q 23.140625 64.359375 26.78125 53.3125 
Q 30.421875 42.28125 30.421875 31.390625 
Q 30.421875 20.453125 26.78125 9.375 
Q 23.140625 -1.703125 15.828125 -13.1875 
L 8.015625 -13.1875 
Q 14.5 -2 17.703125 9.0625 
Q 20.90625 20.125 20.90625 31.390625 
Q 20.90625 42.671875 17.703125 53.65625 
Q 14.5 64.65625 8.015625 75.875 
z
" id="DejaVuSans-41"/>
     </defs>
     <g transform="translate(346.021761 204.594687)scale(0.1 -0.1)">
      <use xlink:href="#DejaVuSans-84"/>
      <use x="61.037109" xlink:href="#DejaVuSans-105"/>
      <use x="88.820312" xlink:href="#DejaVuSans-109"/>
      <use x="186.232422" xlink:href="#DejaVuSans-101"/>
      <use x="247.755859" xlink:href="#DejaVuSans-32"/>
      <use x="279.542969" xlink:href="#DejaVuSans-40"/>
      <use x="318.556641" xlink:href="#DejaVuSans-109"/>
      <use x="415.96875" xlink:href="#DejaVuSans-115"/>
      <use x="468.068359" xlink:href="#DejaVuSans-41"/>
     </g>
    </g>
    <g id="text_9">
     <!-- 1e5 -->
     <g transform="translate(673.727898 203.594687)scale(0.1 -0.1)">
      <use xlink:href="#DejaVuSans-49"/>
      <use x="63.623047" xlink:href="#DejaVuSans-101"/>
      <use x="125.146484" xlink:href="#DejaVuSans-53"/>
     </g>
    </g>
   </g>
   <g id="matplotlib.axis_2">
    <g id="ytick_1">
     <g id="line2d_8">
      <defs>
       <path d="M 0 0 
L -3.5 0 
" id="m516aadc56a" style="stroke:#000000;stroke-width:0.8;"/>
      </defs>
      <g>
       <use style="stroke:#000000;stroke-width:0.8;" x="50.14375" xlink:href="#m516aadc56a" y="166.118928"/>
      </g>
     </g>
     <g id="text_10">
      <!-- 13.5 -->
      <g transform="translate(20.878125 169.918147)scale(0.1 -0.1)">
       <use xlink:href="#DejaVuSans-49"/>
       <use x="63.623047" xlink:href="#DejaVuSans-51"/>
       <use x="127.246094" xlink:href="#DejaVuSans-46"/>
       <use x="159.033203" xlink:href="#DejaVuSans-53"/>
      </g>
     </g>
    </g>
    <g id="ytick_2">
     <g id="line2d_9">
      <g>
       <use style="stroke:#000000;stroke-width:0.8;" x="50.14375" xlink:href="#m516aadc56a" y="138.006478"/>
      </g>
     </g>
     <g id="text_11">
      <!-- 14.0 -->
      <defs>
       <path d="M 37.796875 64.3125 
L 12.890625 25.390625 
L 37.796875 25.390625 
z
M 35.203125 72.90625 
L 47.609375 72.90625 
L 47.609375 25.390625 
L 58.015625 25.390625 
L 58.015625 17.1875 
L 47.609375 17.1875 
L 47.609375 0 
L 37.796875 0 
L 37.796875 17.1875 
L 4.890625 17.1875 
L 4.890625 26.703125 
z
" id="DejaVuSans-52"/>
      </defs>
      <g transform="translate(20.878125 141.805697)scale(0.1 -0.1)">
       <use xlink:href="#DejaVuSans-49"/>
       <use x="63.623047" xlink:href="#DejaVuSans-52"/>
       <use x="127.246094" xlink:href="#DejaVuSans-46"/>
       <use x="159.033203" xlink:href="#DejaVuSans-48"/>
      </g>
     </g>
    </g>
    <g id="ytick_3">
     <g id="line2d_10">
      <g>
       <use style="stroke:#000000;stroke-width:0.8;" x="50.14375" xlink:href="#m516aadc56a" y="109.894029"/>
      </g>
     </g>
     <g id="text_12">
      <!-- 14.5 -->
      <g transform="translate(20.878125 113.693247)scale(0.1 -0.1)">
       <use xlink:href="#DejaVuSans-49"/>
       <use x="63.623047" xlink:href="#DejaVuSans-52"/>
       <use x="127.246094" xlink:href="#DejaVuSans-46"/>
       <use x="159.033203" xlink:href="#DejaVuSans-53"/>
      </g>
     </g>
    </g>
    <g id="ytick_4">
     <g id="line2d_11">
      <g>
       <use style="stroke:#000000;stroke-width:0.8;" x="50.14375" xlink:href="#m516aadc56a" y="81.781579"/>
      </g>
     </g>
     <g id="text_13">
      <!-- 15.0 -->
      <g transform="translate(20.878125 85.580798)scale(0.1 -0.1)">
       <use xlink:href="#DejaVuSans-49"/>
       <use x="63.623047" xlink:href="#DejaVuSans-53"/>
       <use x="127.246094" xlink:href="#DejaVuSans-46"/>
       <use x="159.033203" xlink:href="#DejaVuSans-48"/>
      </g>
     </g>
    </g>
    <g id="ytick_5">
     <g id="line2d_12">
      <g>
       <use style="stroke:#000000;stroke-width:0.8;" x="50.14375" xlink:href="#m516aadc56a" y="53.669129"/>
      </g>
     </g>
     <g id="text_14">
      <!-- 15.5 -->
      <g transform="translate(20.878125 57.468348)scale(0.1 -0.1)">
       <use xlink:href="#DejaVuSans-49"/>
       <use x="63.623047" xlink:href="#DejaVuSans-53"/>
       <use x="127.246094" xlink:href="#DejaVuSans-46"/>
       <use x="159.033203" xlink:href="#DejaVuSans-53"/>
      </g>
     </g>
    </g>
    <g id="ytick_6">
     <g id="line2d_13">
      <g>
       <use style="stroke:#000000;stroke-width:0.8;" x="50.14375" xlink:href="#m516aadc56a" y="25.556679"/>
      </g>
     </g>
     <g id="text_15">
      <!-- 16.0 -->
      <defs>
       <path d="M 33.015625 40.375 
Q 26.375 40.375 22.484375 35.828125 
Q 18.609375 31.296875 18.609375 23.390625 
Q 18.609375 15.53125 22.484375 10.953125 
Q 26.375 6.390625 33.015625 6.390625 
Q 39.65625 6.390625 43.53125 10.953125 
Q 47.40625 15.53125 47.40625 23.390625 
Q 47.40625 31.296875 43.53125 35.828125 
Q 39.65625 40.375 33.015625 40.375 
z
M 52.59375 71.296875 
L 52.59375 62.3125 
Q 48.875 64.0625 45.09375 64.984375 
Q 41.3125 65.921875 37.59375 65.921875 
Q 27.828125 65.921875 22.671875 59.328125 
Q 17.53125 52.734375 16.796875 39.40625 
Q 19.671875 43.65625 24.015625 45.921875 
Q 28.375 48.1875 33.59375 48.1875 
Q 44.578125 48.1875 50.953125 41.515625 
Q 57.328125 34.859375 57.328125 23.390625 
Q 57.328125 12.15625 50.6875 5.359375 
Q 44.046875 -1.421875 33.015625 -1.421875 
Q 20.359375 -1.421875 13.671875 8.265625 
Q 6.984375 17.96875 6.984375 36.375 
Q 6.984375 53.65625 15.1875 63.9375 
Q 23.390625 74.21875 37.203125 74.21875 
Q 40.921875 74.21875 44.703125 73.484375 
Q 48.484375 72.75 52.59375 71.296875 
z
" id="DejaVuSans-54"/>
      </defs>
      <g transform="translate(20.878125 29.355898)scale(0.1 -0.1)">
       <use xlink:href="#DejaVuSans-49"/>
       <use x="63.623047" xlink:href="#DejaVuSans-54"/>
       <use x="127.246094" xlink:href="#DejaVuSans-46"/>
       <use x="159.033203" xlink:href="#DejaVuSans-48"/>
      </g>
     </g>
    </g>
    <g id="text_16">
     <!-- ADC Value -->
     <defs>
      <path d="M 34.1875 63.1875 
L 20.796875 26.90625 
L 47.609375 26.90625 
z
M 28.609375 72.90625 
L 39.796875 72.90625 
L 67.578125 0 
L 57.328125 0 
L 50.6875 18.703125 
L 17.828125 18.703125 
L 11.1875 0 
L 0.78125 0 
z
" id="DejaVuSans-65"/>
      <path d="M 19.671875 64.796875 
L 19.671875 8.109375 
L 31.59375 8.109375 
Q 46.6875 8.109375 53.6875 14.9375 
Q 60.6875 21.78125 60.6875 36.53125 
Q 60.6875 51.171875 53.6875 57.984375 
Q 46.6875 64.796875 31.59375 64.796875 
z
M 9.8125 72.90625 
L 30.078125 72.90625 
Q 51.265625 72.90625 61.171875 64.09375 
Q 71.09375 55.28125 71.09375 36.53125 
Q 71.09375 17.671875 61.125 8.828125 
Q 51.171875 0 30.078125 0 
L 9.8125 0 
z
" id="DejaVuSans-68"/>
      <path d="M 64.40625 67.28125 
L 64.40625 56.890625 
Q 59.421875 61.53125 53.78125 63.8125 
Q 48.140625 66.109375 41.796875 66.109375 
Q 29.296875 66.109375 22.65625 58.46875 
Q 16.015625 50.828125 16.015625 36.375 
Q 16.015625 21.96875 22.65625 14.328125 
Q 29.296875 6.6875 41.796875 6.6875 
Q 48.140625 6.6875 53.78125 8.984375 
Q 59.421875 11.28125 64.40625 15.921875 
L 64.40625 5.609375 
Q 59.234375 2.09375 53.4375 0.328125 
Q 47.65625 -1.421875 41.21875 -1.421875 
Q 24.65625 -1.421875 15.125 8.703125 
Q 5.609375 18.84375 5.609375 36.375 
Q 5.609375 53.953125 15.125 64.078125 
Q 24.65625 74.21875 41.21875 74.21875 
Q 47.75 74.21875 53.53125 72.484375 
Q 59.328125 70.75 64.40625 67.28125 
z
" id="DejaVuSans-67"/>
      <path d="M 28.609375 0 
L 0.78125 72.90625 
L 11.078125 72.90625 
L 34.1875 11.53125 
L 57.328125 72.90625 
L 67.578125 72.90625 
L 39.796875 0 
z
" id="DejaVuSans-86"/>
      <path d="M 34.28125 27.484375 
Q 23.390625 27.484375 19.1875 25 
Q 14.984375 22.515625 14.984375 16.5 
Q 14.984375 11.71875 18.140625 8.90625 
Q 21.296875 6.109375 26.703125 6.109375 
Q 34.1875 6.109375 38.703125 11.40625 
Q 43.21875 16.703125 43.21875 25.484375 
L 43.21875 27.484375 
z
M 52.203125 31.203125 
L 52.203125 0 
L 43.21875 0 
L 43.21875 8.296875 
Q 40.140625 3.328125 35.546875 0.953125 
Q 30.953125 -1.421875 24.3125 -1.421875 
Q 15.921875 -1.421875 10.953125 3.296875 
Q 6 8.015625 6 15.921875 
Q 6 25.140625 12.171875 29.828125 
Q 18.359375 34.515625 30.609375 34.515625 
L 43.21875 34.515625 
L 43.21875 35.40625 
Q 43.21875 41.609375 39.140625 45 
Q 35.0625 48.390625 27.6875 48.390625 
Q 23 48.390625 18.546875 47.265625 
Q 14.109375 46.140625 10.015625 43.890625 
L 10.015625 52.203125 
Q 14.9375 54.109375 19.578125 55.046875 
Q 24.21875 56 28.609375 56 
Q 40.484375 56 46.34375 49.84375 
Q 52.203125 43.703125 52.203125 31.203125 
z
" id="DejaVuSans-97"/>
      <path d="M 9.421875 75.984375 
L 18.40625 75.984375 
L 18.40625 0 
L 9.421875 0 
z
" id="DejaVuSans-108"/>
      <path d="M 8.5 21.578125 
L 8.5 54.6875 
L 17.484375 54.6875 
L 17.484375 21.921875 
Q 17.484375 14.15625 20.5 10.265625 
Q 23.53125 6.390625 29.59375 6.390625 
Q 36.859375 6.390625 41.078125 11.03125 
Q 45.3125 15.671875 45.3125 23.6875 
L 45.3125 54.6875 
L 54.296875 54.6875 
L 54.296875 0 
L 45.3125 0 
L 45.3125 8.40625 
Q 42.046875 3.421875 37.71875 1 
Q 33.40625 -1.421875 27.6875 -1.421875 
Q 18.265625 -1.421875 13.375 4.4375 
Q 8.5 10.296875 8.5 21.578125 
z
M 31.109375 56 
z
" id="DejaVuSans-117"/>
     </defs>
     <g transform="translate(14.798438 125.782187)rotate(-90)scale(0.1 -0.1)">
      <use xlink:href="#DejaVuSans-65"/>
      <use x="68.408203" xlink:href="#DejaVuSans-68"/>
      <use x="145.410156" xlink:href="#DejaVuSans-67"/>
      <use x="215.234375" xlink:href="#DejaVuSans-32"/>
      <use x="247.021484" xlink:href="#DejaVuSans-86"/>
      <use x="315.320312" xlink:href="#DejaVuSans-97"/>
      <use x="376.599609" xlink:href="#DejaVuSans-108"/>
      <use x="404.382812" xlink:href="#DejaVuSans-117"/>
      <use x="467.761719" xlink:href="#DejaVuSans-101"/>
     </g>
    </g>
   </g>
   <g id="line2d_14">
    <path clip-path="url(#p5d23f243d9)" d="M 79.346581 138.32696 
L 81.059357 102.641017 
L 83.152749 72.50447 
L 84.865525 52.106077 
L 86.76861 43.166318 
L 88.862003 44.667523 
L 91.336012 53.477964 
L 95.142181 77.469129 
L 96.854957 87.207282 
L 99.138659 94.634591 
L 101.993285 100.853065 
L 104.086678 107.285193 
L 105.799454 114.791217 
L 109.225006 131.77676 
L 111.318399 139.209691 
L 113.031175 144.775956 
L 114.743951 148.413707 
L 116.456727 150.628968 
L 118.740428 151.955876 
L 120.453204 152.41692 
L 122.356289 151.208085 
L 124.069065 146.957482 
L 125.781841 138.43941 
L 128.636467 125.440213 
L 132.062019 92.930976 
L 133.774795 79.70688 
L 135.868188 72.605675 
L 137.580964 73.038607 
L 139.29374 80.527764 
L 145.002993 121.768727 
L 147.096386 132.92937 
L 148.809162 139.648245 
L 150.521938 140.986398 
L 152.615331 136.539009 
L 154.328107 126.497241 
L 156.040883 111.856278 
L 157.753659 94.544631 
L 160.03736 77.339812 
L 161.750136 63.379169 
L 163.843529 55.339009 
L 165.936922 54.6868 
L 167.840007 61.180776 
L 169.552783 72.8868 
L 171.265559 86.72937 
L 173.168643 99.430575 
L 174.881419 108.375956 
L 176.784503 112.227362 
L 178.497279 110.979169 
L 180.400364 105.592824 
L 184.016224 87.792021 
L 185.729 77.952663 
L 187.822393 69.041017 
L 189.915786 62.142221 
L 191.81887 58.099651 
L 193.912263 57.267523 
L 195.625039 59.342221 
L 197.337815 63.469129 
L 199.050591 68.669932 
L 201.143984 74.258687 
L 204.569536 86.004069 
L 206.282312 92.048245 
L 208.375705 97.367121 
L 210.278789 100.50447 
L 212.372182 99.846639 
L 214.465575 94.533386 
L 216.36866 85.323747 
L 218.271744 74.916519 
L 220.365137 67.253065 
L 222.077913 66.111699 
L 224.361614 73.460294 
L 230.261176 126.002462 
L 231.973952 139.119731 
L 233.877036 144.410494 
L 235.589812 141.964711 
L 237.683205 134.098848 
L 239.395981 124.214511 
L 241.489374 115.409691 
L 243.392458 109.551057 
L 245.105234 107.054671 
L 247.008319 107.330173 
L 249.101712 109.612904 
L 251.004796 113.520535 
L 252.717572 119.221739 
L 254.430348 127.025756 
L 256.143124 136.780776 
L 258.426825 147.412904 
L 260.139601 156.898045 
L 262.042686 162.773547 
L 263.755462 163.065916 
L 265.658546 157.235394 
L 267.942248 146.670735 
L 269.655024 134.402462 
L 271.558108 124.073948 
L 273.651501 118.625756 
L 275.554585 119.137402 
L 277.267361 124.400053 
L 278.980137 131.298848 
L 280.692913 135.847442 
L 282.595998 134.627362 
L 284.499082 126.04182 
L 286.211858 111.024149 
L 288.495559 92.824149 
L 290.398644 75.911699 
L 292.301728 64.447442 
L 294.58543 60.826559 
L 296.298206 64.992824 
L 298.20129 74.742221 
L 299.914066 86.853065 
L 303.529926 108.432181 
L 305.433011 116.854671 
L 309.048871 134.689209 
L 312.474423 156.690013 
L 315.899975 165.461097 
L 317.612751 169.318125 
L 319.706144 166.563105 
L 321.799537 157.241017 
L 323.702621 143.319731 
L 325.415397 128.206478 
L 327.128173 115.634591 
L 328.840949 108.426559 
L 330.934342 107.45949 
L 333.218044 111.288406 
L 335.501745 116.714109 
L 337.404829 119.980776 
L 339.878839 118.288406 
L 341.781923 110.928567 
L 345.207475 88.123747 
L 347.11056 80.640213 
L 349.013644 80.617723 
L 350.916729 89.388808 
L 353.010122 105.649049 
L 354.913206 125.732583 
L 356.81629 144.562302 
L 358.719375 157.117322 
L 360.812768 159.990414 
L 362.715852 152.602462 
L 366.522021 120.053868 
L 368.234797 106.020133 
L 370.518498 100.178366 
L 372.231274 104.170334 
L 373.94405 115.848245 
L 375.847135 130.01692 
L 377.559911 140.334189 
L 379.462995 141.739812 
L 381.556388 132.412101 
L 383.269164 114.487603 
L 384.98194 93.200856 
L 387.075333 74.809691 
L 388.788109 64.183185 
L 390.500885 62.985595 
L 392.213661 69.260294 
L 394.116745 78.44182 
L 396.590755 85.363105 
L 398.303531 86.268326 
L 400.016307 80.184792 
L 401.729083 68.967924 
L 404.012784 56.311699 
L 405.72556 46.067523 
L 407.628645 40.720535 
L 409.341421 40.57435 
L 411.434814 43.970334 
L 413.528206 48.299651 
L 415.240982 51.285193 
L 417.144067 51.965515 
L 421.140544 49.277964 
L 422.85332 48.715715 
L 424.566096 49.857081 
L 426.278872 52.555876 
L 428.372265 56.171137 
L 430.275349 60.028165 
L 434.462135 67.567924 
L 438.077996 74.967121 
L 439.790772 77.660294 
L 441.884164 78.458687 
L 443.787249 76.653868 
L 445.500025 72.470735 
L 447.403109 67.388005 
L 449.115885 63.879571 
L 451.780204 64.53178 
L 453.683288 70.930173 
L 455.586372 82.821739 
L 457.679765 98.047442 
L 459.392541 113.211298 
L 461.676243 124.889209 
L 463.389019 130.702864 
L 465.101795 129.88198 
L 467.004879 123.179972 
L 469.478889 112.334189 
L 472.904441 86.268326 
L 474.997834 74.275555 
L 476.900918 64.312503 
L 478.613694 56.935796 
L 480.516778 52.668326 
L 482.229554 52.173547 
L 484.132639 56.17676 
L 485.845415 64.992824 
L 487.748499 78.003266 
L 489.461275 93.268326 
L 491.744977 107.628165 
L 493.648061 117.41692 
L 495.741454 119.508486 
L 497.45423 112.429772 
L 499.167006 97.029772 
L 501.260399 76.412101 
L 503.163483 55.187201 
L 505.256876 38.212904 
L 506.969652 29.318125 
L 509.253353 30.45949 
L 510.966129 41.417723 
L 512.678905 60.140615 
L 514.58199 83.316519 
L 516.294766 107.094029 
L 518.19785 127.683587 
L 520.291243 141.925354 
L 522.004019 147.800856 
L 523.716795 144.781579 
L 525.810188 133.834591 
L 527.522964 117.062703 
L 530.948516 76.845033 
L 533.041909 58.375153 
L 535.32561 43.565515 
L 537.038386 33.737402 
L 538.751162 29.807282 
L 541.034863 32.157482 
L 543.128256 40.518125 
L 544.841032 53.832181 
L 546.744117 70.424149 
L 549.408435 88.37676 
L 551.121211 105.924551 
L 552.833987 121.695635 
L 554.546763 134.644229 
L 556.449847 143.88198 
L 558.352932 148.588005 
L 560.065708 148.211298 
L 562.1591 142.853065 
L 563.871876 133.626559 
L 567.487737 112.930173 
L 569.390821 107.105274 
L 571.674523 107.032181 
L 573.577607 112.857081 
L 575.290383 122.938205 
L 577.003159 134.334992 
L 578.906243 143.763908 
L 581.189945 148.4868 
L 583.283338 146.968727 
L 585.186422 139.041017 
L 586.899198 125.738205 
L 588.611974 108.977563 
L 590.895675 91.171137 
L 592.608451 74.843426 
L 594.321227 62.215314 
L 596.224312 54.793627 
L 598.127396 52.983185 
L 599.840172 55.968727 
L 601.933565 61.945434 
L 603.646341 68.70929 
L 605.359117 74.427362 
L 607.45251 78.312503 
L 611.06837 83.175956 
L 612.971455 86.791217 
L 614.874539 92.19443 
L 616.587315 98.671539 
L 618.300091 104.428968 
L 620.203176 107.347041 
L 622.296568 106.025756 
L 624.199653 100.515715 
L 628.005822 84.13178 
L 629.718598 77.885193 
L 631.621682 74.680374 
L 633.334458 74.033788 
L 635.237543 74.410494 
L 636.950319 74.191217 
L 639.043711 72.61692 
L 640.946796 70.238607 
L 642.659572 68.726157 
L 644.372348 70.216117 
L 646.656049 76.400856 
L 648.368825 87.792021 
L 651.984686 120.183185 
L 653.88777 134.700454 
L 655.981163 142.84182 
L 657.884247 141.514912 
L 659.597023 129.578366 
L 661.500108 108.449049 
L 663.403192 82.000856 
L 663.403192 82.000856 
" style="fill:none;stroke:#1f77b4;stroke-linecap:square;stroke-width:1.5;"/>
   </g>
   <g id="line2d_15">
    <defs>
     <path d="M -3 3 
L 3 -3 
M -3 -3 
L 3 3 
" id="mf8f09b10cc" style="stroke:#ff0000;"/>
    </defs>
    <g clip-path="url(#p5d23f243d9)">
     <use style="fill:#ff0000;stroke:#ff0000;" x="165.936922" xlink:href="#mf8f09b10cc" y="54.6868"/>
     <use style="fill:#ff0000;stroke:#ff0000;" x="222.077913" xlink:href="#mf8f09b10cc" y="66.111699"/>
     <use style="fill:#ff0000;stroke:#ff0000;" x="294.58543" xlink:href="#mf8f09b10cc" y="60.826559"/>
     <use style="fill:#ff0000;stroke:#ff0000;" x="349.013644" xlink:href="#mf8f09b10cc" y="80.617723"/>
     <use style="fill:#ff0000;stroke:#ff0000;" x="409.341421" xlink:href="#mf8f09b10cc" y="40.57435"/>
     <use style="fill:#ff0000;stroke:#ff0000;" x="449.115885" xlink:href="#mf8f09b10cc" y="63.879571"/>
     <use style="fill:#ff0000;stroke:#ff0000;" x="506.969652" xlink:href="#mf8f09b10cc" y="29.318125"/>
     <use style="fill:#ff0000;stroke:#ff0000;" x="598.127396" xlink:href="#mf8f09b10cc" y="52.983185"/>
     <use style="fill:#ff0000;stroke:#ff0000;" x="642.659572" xlink:href="#mf8f09b10cc" y="68.726157"/>
    </g>
   </g>
   <g id="line2d_16">
    <path clip-path="url(#p5d23f243d9)" d="M 165.936922 176.318125 
L 165.936922 22.318125 
" style="fill:none;stroke:#808080;stroke-dasharray:5.55,2.4;stroke-dashoffset:0;stroke-width:1.5;"/>
   </g>
   <g id="line2d_17">
    <path clip-path="url(#p5d23f243d9)" d="M 222.077913 176.318125 
L 222.077913 22.318125 
" style="fill:none;stroke:#808080;stroke-dasharray:5.55,2.4;stroke-dashoffset:0;stroke-width:1.5;"/>
   </g>
   <g id="line2d_18">
    <path clip-path="url(#p5d23f243d9)" d="M 294.58543 176.318125 
L 294.58543 22.318125 
" style="fill:none;stroke:#808080;stroke-dasharray:5.55,2.4;stroke-dashoffset:0;stroke-width:1.5;"/>
   </g>
   <g id="line2d_19">
    <path clip-path="url(#p5d23f243d9)" d="M 349.013644 176.318125 
L 349.013644 22.318125 
" style="fill:none;stroke:#808080;stroke-dasharray:5.55,2.4;stroke-dashoffset:0;stroke-width:1.5;"/>
   </g>
   <g id="line2d_20">
    <path clip-path="url(#p5d23f243d9)" d="M 409.341421 176.318125 
L 409.341421 22.318125 
" style="fill:none;stroke:#808080;stroke-dasharray:5.55,2.4;stroke-dashoffset:0;stroke-width:1.5;"/>
   </g>
   <g id="line2d_21">
    <path clip-path="url(#p5d23f243d9)" d="M 449.115885 176.318125 
L 449.115885 22.318125 
" style="fill:none;stroke:#808080;stroke-dasharray:5.55,2.4;stroke-dashoffset:0;stroke-width:1.5;"/>
   </g>
   <g id="line2d_22">
    <path clip-path="url(#p5d23f243d9)" d="M 506.969652 176.318125 
L 506.969652 22.318125 
" style="fill:none;stroke:#808080;stroke-dasharray:5.55,2.4;stroke-dashoffset:0;stroke-width:1.5;"/>
   </g>
   <g id="line2d_23">
    <path clip-path="url(#p5d23f243d9)" d="M 598.127396 176.318125 
L 598.127396 22.318125 
" style="fill:none;stroke:#808080;stroke-dasharray:5.55,2.4;stroke-dashoffset:0;stroke-width:1.5;"/>
   </g>
   <g id="line2d_24">
    <path clip-path="url(#p5d23f243d9)" d="M 642.659572 176.318125 
L 642.659572 22.318125 
" style="fill:none;stroke:#808080;stroke-dasharray:5.55,2.4;stroke-dashoffset:0;stroke-width:1.5;"/>
   </g>
   <g id="patch_3">
    <path d="M 50.14375 176.318125 
L 50.14375 22.318125 
" style="fill:none;stroke:#000000;stroke-linecap:square;stroke-linejoin:miter;stroke-width:0.8;"/>
   </g>
   <g id="patch_4">
    <path d="M 692.606023 176.318125 
L 692.606023 22.318125 
" style="fill:none;stroke:#000000;stroke-linecap:square;stroke-linejoin:miter;stroke-width:0.8;"/>
   </g>
   <g id="patch_5">
    <path d="M 50.14375 176.318125 
L 692.606023 176.318125 
" style="fill:none;stroke:#000000;stroke-linecap:square;stroke-linejoin:miter;stroke-width:0.8;"/>
   </g>
   <g id="patch_6">
    <path d="M 50.14375 22.318125 
L 692.606023 22.318125 
" style="fill:none;stroke:#000000;stroke-linecap:square;stroke-linejoin:miter;stroke-width:0.8;"/>
   </g>
   <g id="text_17">
    <!-- Final Systolic Peaks -->
    <defs>
     <path d="M 9.8125 72.90625 
L 51.703125 72.90625 
L 51.703125 64.59375 
L 19.671875 64.59375 
L 19.671875 43.109375 
L 48.578125 43.109375 
L 48.578125 34.8125 
L 19.671875 34.8125 
L 19.671875 0 
L 9.8125 0 
z
" id="DejaVuSans-70"/>
     <path d="M 54.890625 33.015625 
L 54.890625 0 
L 45.90625 0 
L 45.90625 32.71875 
Q 45.90625 40.484375 42.875 44.328125 
Q 39.84375 48.1875 33.796875 48.1875 
Q 26.515625 48.1875 22.3125 43.546875 
Q 18.109375 38.921875 18.109375 30.90625 
L 18.109375 0 
L 9.078125 0 
L 9.078125 54.6875 
L 18.109375 54.6875 
L 18.109375 46.1875 
Q 21.34375 51.125 25.703125 53.5625 
Q 30.078125 56 35.796875 56 
Q 45.21875 56 50.046875 50.171875 
Q 54.890625 44.34375 54.890625 33.015625 
z
" id="DejaVuSans-110"/>
     <path d="M 53.515625 70.515625 
L 53.515625 60.890625 
Q 47.90625 63.578125 42.921875 64.890625 
Q 37.9375 66.21875 33.296875 66.21875 
Q 25.25 66.21875 20.875 63.09375 
Q 16.5 59.96875 16.5 54.203125 
Q 16.5 49.359375 19.40625 46.890625 
Q 22.3125 44.4375 30.421875 42.921875 
L 36.375 41.703125 
Q 47.40625 39.59375 52.65625 34.296875 
Q 57.90625 29 57.90625 20.125 
Q 57.90625 9.515625 50.796875 4.046875 
Q 43.703125 -1.421875 29.984375 -1.421875 
Q 24.8125 -1.421875 18.96875 -0.25 
Q 13.140625 0.921875 6.890625 3.21875 
L 6.890625 13.375 
Q 12.890625 10.015625 18.65625 8.296875 
Q 24.421875 6.59375 29.984375 6.59375 
Q 38.421875 6.59375 43.015625 9.90625 
Q 47.609375 13.234375 47.609375 19.390625 
Q 47.609375 24.75 44.3125 27.78125 
Q 41.015625 30.8125 33.5 32.328125 
L 27.484375 33.5 
Q 16.453125 35.6875 11.515625 40.375 
Q 6.59375 45.0625 6.59375 53.421875 
Q 6.59375 63.09375 13.40625 68.65625 
Q 20.21875 74.21875 32.171875 74.21875 
Q 37.3125 74.21875 42.625 73.28125 
Q 47.953125 72.359375 53.515625 70.515625 
z
" id="DejaVuSans-83"/>
     <path d="M 32.171875 -5.078125 
Q 28.375 -14.84375 24.75 -17.8125 
Q 21.140625 -20.796875 15.09375 -20.796875 
L 7.90625 -20.796875 
L 7.90625 -13.28125 
L 13.1875 -13.28125 
Q 16.890625 -13.28125 18.9375 -11.515625 
Q 21 -9.765625 23.484375 -3.21875 
L 25.09375 0.875 
L 2.984375 54.6875 
L 12.5 54.6875 
L 29.59375 11.921875 
L 46.6875 54.6875 
L 56.203125 54.6875 
z
" id="DejaVuSans-121"/>
     <path d="M 18.3125 70.21875 
L 18.3125 54.6875 
L 36.8125 54.6875 
L 36.8125 47.703125 
L 18.3125 47.703125 
L 18.3125 18.015625 
Q 18.3125 11.328125 20.140625 9.421875 
Q 21.96875 7.515625 27.59375 7.515625 
L 36.8125 7.515625 
L 36.8125 0 
L 27.59375 0 
Q 17.1875 0 13.234375 3.875 
Q 9.28125 7.765625 9.28125 18.015625 
L 9.28125 47.703125 
L 2.6875 47.703125 
L 2.6875 54.6875 
L 9.28125 54.6875 
L 9.28125 70.21875 
z
" id="DejaVuSans-116"/>
     <path d="M 30.609375 48.390625 
Q 23.390625 48.390625 19.1875 42.75 
Q 14.984375 37.109375 14.984375 27.296875 
Q 14.984375 17.484375 19.15625 11.84375 
Q 23.34375 6.203125 30.609375 6.203125 
Q 37.796875 6.203125 41.984375 11.859375 
Q 46.1875 17.53125 46.1875 27.296875 
Q 46.1875 37.015625 41.984375 42.703125 
Q 37.796875 48.390625 30.609375 48.390625 
z
M 30.609375 56 
Q 42.328125 56 49.015625 48.375 
Q 55.71875 40.765625 55.71875 27.296875 
Q 55.71875 13.875 49.015625 6.21875 
Q 42.328125 -1.421875 30.609375 -1.421875 
Q 18.84375 -1.421875 12.171875 6.21875 
Q 5.515625 13.875 5.515625 27.296875 
Q 5.515625 40.765625 12.171875 48.375 
Q 18.84375 56 30.609375 56 
z
" id="DejaVuSans-111"/>
     <path d="M 48.78125 52.59375 
L 48.78125 44.1875 
Q 44.96875 46.296875 41.140625 47.34375 
Q 37.3125 48.390625 33.40625 48.390625 
Q 24.65625 48.390625 19.8125 42.84375 
Q 14.984375 37.3125 14.984375 27.296875 
Q 14.984375 17.28125 19.8125 11.734375 
Q 24.65625 6.203125 33.40625 6.203125 
Q 37.3125 6.203125 41.140625 7.25 
Q 44.96875 8.296875 48.78125 10.40625 
L 48.78125 2.09375 
Q 45.015625 0.34375 40.984375 -0.53125 
Q 36.96875 -1.421875 32.421875 -1.421875 
Q 20.0625 -1.421875 12.78125 6.34375 
Q 5.515625 14.109375 5.515625 27.296875 
Q 5.515625 40.671875 12.859375 48.328125 
Q 20.21875 56 33.015625 56 
Q 37.15625 56 41.109375 55.140625 
Q 45.0625 54.296875 48.78125 52.59375 
z
" id="DejaVuSans-99"/>
     <path d="M 19.671875 64.796875 
L 19.671875 37.40625 
L 32.078125 37.40625 
Q 38.96875 37.40625 42.71875 40.96875 
Q 46.484375 44.53125 46.484375 51.125 
Q 46.484375 57.671875 42.71875 61.234375 
Q 38.96875 64.796875 32.078125 64.796875 
z
M 9.8125 72.90625 
L 32.078125 72.90625 
Q 44.34375 72.90625 50.609375 67.359375 
Q 56.890625 61.8125 56.890625 51.125 
Q 56.890625 40.328125 50.609375 34.8125 
Q 44.34375 29.296875 32.078125 29.296875 
L 19.671875 29.296875 
L 19.671875 0 
L 9.8125 0 
z
" id="DejaVuSans-80"/>
     <path d="M 9.078125 75.984375 
L 18.109375 75.984375 
L 18.109375 31.109375 
L 44.921875 54.6875 
L 56.390625 54.6875 
L 27.390625 29.109375 
L 57.625 0 
L 45.90625 0 
L 18.109375 26.703125 
L 18.109375 0 
L 9.078125 0 
z
" id="DejaVuSans-107"/>
    </defs>
    <g transform="translate(312.577699 16.318125)scale(0.12 -0.12)">
     <use xlink:href="#DejaVuSans-70"/>
     <use x="57.410156" xlink:href="#DejaVuSans-105"/>
     <use x="85.193359" xlink:href="#DejaVuSans-110"/>
     <use x="148.572266" xlink:href="#DejaVuSans-97"/>
     <use x="209.851562" xlink:href="#DejaVuSans-108"/>
     <use x="237.634766" xlink:href="#DejaVuSans-32"/>
     <use x="269.421875" xlink:href="#DejaVuSans-83"/>
     <use x="332.898438" xlink:href="#DejaVuSans-121"/>
     <use x="392.078125" xlink:href="#DejaVuSans-115"/>
     <use x="444.177734" xlink:href="#DejaVuSans-116"/>
     <use x="483.386719" xlink:href="#DejaVuSans-111"/>
     <use x="544.568359" xlink:href="#DejaVuSans-108"/>
     <use x="572.351562" xlink:href="#DejaVuSans-105"/>
     <use x="600.134766" xlink:href="#DejaVuSans-99"/>
     <use x="655.115234" xlink:href="#DejaVuSans-32"/>
     <use x="686.902344" xlink:href="#DejaVuSans-80"/>
     <use x="747.158203" xlink:href="#DejaVuSans-101"/>
     <use x="808.681641" xlink:href="#DejaVuSans-97"/>
     <use x="869.960938" xlink:href="#DejaVuSans-107"/>
     <use x="927.871094" xlink:href="#DejaVuSans-115"/>
    </g>
   </g>
  </g>
  <g id="axes_2">
   <g id="patch_7">
    <path d="M 50.14375 386.918125 
L 692.606023 386.918125 
L 692.606023 232.918125 
L 50.14375 232.918125 
z
" style="fill:#ffffff;"/>
   </g>
   <g id="matplotlib.axis_3">
    <g id="xtick_8">
     <g id="line2d_25">
      <g>
       <use style="stroke:#000000;stroke-width:0.8;" x="119.69197" xlink:href="#m4ea28aa02c" y="386.918125"/>
      </g>
     </g>
     <g id="text_18">
      <!-- 9.100 -->
      <g transform="translate(105.377908 401.516562)scale(0.1 -0.1)">
       <use xlink:href="#DejaVuSans-57"/>
       <use x="63.623047" xlink:href="#DejaVuSans-46"/>
       <use x="95.410156" xlink:href="#DejaVuSans-49"/>
       <use x="159.033203" xlink:href="#DejaVuSans-48"/>
       <use x="222.65625" xlink:href="#DejaVuSans-48"/>
      </g>
     </g>
    </g>
    <g id="xtick_9">
     <g id="line2d_26">
      <g>
       <use style="stroke:#000000;stroke-width:0.8;" x="214.846192" xlink:href="#m4ea28aa02c" y="386.918125"/>
      </g>
     </g>
     <g id="text_19">
      <!-- 9.105 -->
      <g transform="translate(200.532129 401.516562)scale(0.1 -0.1)">
       <use xlink:href="#DejaVuSans-57"/>
       <use x="63.623047" xlink:href="#DejaVuSans-46"/>
       <use x="95.410156" xlink:href="#DejaVuSans-49"/>
       <use x="159.033203" xlink:href="#DejaVuSans-48"/>
       <use x="222.65625" xlink:href="#DejaVuSans-53"/>
      </g>
     </g>
    </g>
    <g id="xtick_10">
     <g id="line2d_27">
      <g>
       <use style="stroke:#000000;stroke-width:0.8;" x="310.000413" xlink:href="#m4ea28aa02c" y="386.918125"/>
      </g>
     </g>
     <g id="text_20">
      <!-- 9.110 -->
      <g transform="translate(295.686351 401.516562)scale(0.1 -0.1)">
       <use xlink:href="#DejaVuSans-57"/>
       <use x="63.623047" xlink:href="#DejaVuSans-46"/>
       <use x="95.410156" xlink:href="#DejaVuSans-49"/>
       <use x="159.033203" xlink:href="#DejaVuSans-49"/>
       <use x="222.65625" xlink:href="#DejaVuSans-48"/>
      </g>
     </g>
    </g>
    <g id="xtick_11">
     <g id="line2d_28">
      <g>
       <use style="stroke:#000000;stroke-width:0.8;" x="405.154635" xlink:href="#m4ea28aa02c" y="386.918125"/>
      </g>
     </g>
     <g id="text_21">
      <!-- 9.115 -->
      <g transform="translate(390.840572 401.516562)scale(0.1 -0.1)">
       <use xlink:href="#DejaVuSans-57"/>
       <use x="63.623047" xlink:href="#DejaVuSans-46"/>
       <use x="95.410156" xlink:href="#DejaVuSans-49"/>
       <use x="159.033203" xlink:href="#DejaVuSans-49"/>
       <use x="222.65625" xlink:href="#DejaVuSans-53"/>
      </g>
     </g>
    </g>
    <g id="xtick_12">
     <g id="line2d_29">
      <g>
       <use style="stroke:#000000;stroke-width:0.8;" x="500.308856" xlink:href="#m4ea28aa02c" y="386.918125"/>
      </g>
     </g>
     <g id="text_22">
      <!-- 9.120 -->
      <g transform="translate(485.994794 401.516562)scale(0.1 -0.1)">
       <use xlink:href="#DejaVuSans-57"/>
       <use x="63.623047" xlink:href="#DejaVuSans-46"/>
       <use x="95.410156" xlink:href="#DejaVuSans-49"/>
       <use x="159.033203" xlink:href="#DejaVuSans-50"/>
       <use x="222.65625" xlink:href="#DejaVuSans-48"/>
      </g>
     </g>
    </g>
    <g id="xtick_13">
     <g id="line2d_30">
      <g>
       <use style="stroke:#000000;stroke-width:0.8;" x="595.463078" xlink:href="#m4ea28aa02c" y="386.918125"/>
      </g>
     </g>
     <g id="text_23">
      <!-- 9.125 -->
      <g transform="translate(581.149015 401.516562)scale(0.1 -0.1)">
       <use xlink:href="#DejaVuSans-57"/>
       <use x="63.623047" xlink:href="#DejaVuSans-46"/>
       <use x="95.410156" xlink:href="#DejaVuSans-49"/>
       <use x="159.033203" xlink:href="#DejaVuSans-50"/>
       <use x="222.65625" xlink:href="#DejaVuSans-53"/>
      </g>
     </g>
    </g>
    <g id="xtick_14">
     <g id="line2d_31">
      <g>
       <use style="stroke:#000000;stroke-width:0.8;" x="690.617299" xlink:href="#m4ea28aa02c" y="386.918125"/>
      </g>
     </g>
     <g id="text_24">
      <!-- 9.130 -->
      <g transform="translate(676.303237 401.516562)scale(0.1 -0.1)">
       <use xlink:href="#DejaVuSans-57"/>
       <use x="63.623047" xlink:href="#DejaVuSans-46"/>
       <use x="95.410156" xlink:href="#DejaVuSans-49"/>
       <use x="159.033203" xlink:href="#DejaVuSans-51"/>
       <use x="222.65625" xlink:href="#DejaVuSans-48"/>
      </g>
     </g>
    </g>
    <g id="text_25">
     <!-- Time (ms) -->
     <g transform="translate(346.021761 415.194687)scale(0.1 -0.1)">
      <use xlink:href="#DejaVuSans-84"/>
      <use x="61.037109" xlink:href="#DejaVuSans-105"/>
      <use x="88.820312" xlink:href="#DejaVuSans-109"/>
      <use x="186.232422" xlink:href="#DejaVuSans-101"/>
      <use x="247.755859" xlink:href="#DejaVuSans-32"/>
      <use x="279.542969" xlink:href="#DejaVuSans-40"/>
      <use x="318.556641" xlink:href="#DejaVuSans-109"/>
      <use x="415.96875" xlink:href="#DejaVuSans-115"/>
      <use x="468.068359" xlink:href="#DejaVuSans-41"/>
     </g>
    </g>
    <g id="text_26">
     <!-- 1e5 -->
     <g transform="translate(673.727898 414.194687)scale(0.1 -0.1)">
      <use xlink:href="#DejaVuSans-49"/>
      <use x="63.623047" xlink:href="#DejaVuSans-101"/>
      <use x="125.146484" xlink:href="#DejaVuSans-53"/>
     </g>
    </g>
   </g>
   <g id="matplotlib.axis_4">
    <g id="ytick_7">
     <g id="line2d_32">
      <g>
       <use style="stroke:#000000;stroke-width:0.8;" x="50.14375" xlink:href="#m516aadc56a" y="376.718928"/>
      </g>
     </g>
     <g id="text_27">
      <!-- 13.5 -->
      <g transform="translate(20.878125 380.518147)scale(0.1 -0.1)">
       <use xlink:href="#DejaVuSans-49"/>
       <use x="63.623047" xlink:href="#DejaVuSans-51"/>
       <use x="127.246094" xlink:href="#DejaVuSans-46"/>
       <use x="159.033203" xlink:href="#DejaVuSans-53"/>
      </g>
     </g>
    </g>
    <g id="ytick_8">
     <g id="line2d_33">
      <g>
       <use style="stroke:#000000;stroke-width:0.8;" x="50.14375" xlink:href="#m516aadc56a" y="348.606478"/>
      </g>
     </g>
     <g id="text_28">
      <!-- 14.0 -->
      <g transform="translate(20.878125 352.405697)scale(0.1 -0.1)">
       <use xlink:href="#DejaVuSans-49"/>
       <use x="63.623047" xlink:href="#DejaVuSans-52"/>
       <use x="127.246094" xlink:href="#DejaVuSans-46"/>
       <use x="159.033203" xlink:href="#DejaVuSans-48"/>
      </g>
     </g>
    </g>
    <g id="ytick_9">
     <g id="line2d_34">
      <g>
       <use style="stroke:#000000;stroke-width:0.8;" x="50.14375" xlink:href="#m516aadc56a" y="320.494029"/>
      </g>
     </g>
     <g id="text_29">
      <!-- 14.5 -->
      <g transform="translate(20.878125 324.293247)scale(0.1 -0.1)">
       <use xlink:href="#DejaVuSans-49"/>
       <use x="63.623047" xlink:href="#DejaVuSans-52"/>
       <use x="127.246094" xlink:href="#DejaVuSans-46"/>
       <use x="159.033203" xlink:href="#DejaVuSans-53"/>
      </g>
     </g>
    </g>
    <g id="ytick_10">
     <g id="line2d_35">
      <g>
       <use style="stroke:#000000;stroke-width:0.8;" x="50.14375" xlink:href="#m516aadc56a" y="292.381579"/>
      </g>
     </g>
     <g id="text_30">
      <!-- 15.0 -->
      <g transform="translate(20.878125 296.180798)scale(0.1 -0.1)">
       <use xlink:href="#DejaVuSans-49"/>
       <use x="63.623047" xlink:href="#DejaVuSans-53"/>
       <use x="127.246094" xlink:href="#DejaVuSans-46"/>
       <use x="159.033203" xlink:href="#DejaVuSans-48"/>
      </g>
     </g>
    </g>
    <g id="ytick_11">
     <g id="line2d_36">
      <g>
       <use style="stroke:#000000;stroke-width:0.8;" x="50.14375" xlink:href="#m516aadc56a" y="264.269129"/>
      </g>
     </g>
     <g id="text_31">
      <!-- 15.5 -->
      <g transform="translate(20.878125 268.068348)scale(0.1 -0.1)">
       <use xlink:href="#DejaVuSans-49"/>
       <use x="63.623047" xlink:href="#DejaVuSans-53"/>
       <use x="127.246094" xlink:href="#DejaVuSans-46"/>
       <use x="159.033203" xlink:href="#DejaVuSans-53"/>
      </g>
     </g>
    </g>
    <g id="ytick_12">
     <g id="line2d_37">
      <g>
       <use style="stroke:#000000;stroke-width:0.8;" x="50.14375" xlink:href="#m516aadc56a" y="236.156679"/>
      </g>
     </g>
     <g id="text_32">
      <!-- 16.0 -->
      <g transform="translate(20.878125 239.955898)scale(0.1 -0.1)">
       <use xlink:href="#DejaVuSans-49"/>
       <use x="63.623047" xlink:href="#DejaVuSans-54"/>
       <use x="127.246094" xlink:href="#DejaVuSans-46"/>
       <use x="159.033203" xlink:href="#DejaVuSans-48"/>
      </g>
     </g>
    </g>
    <g id="text_33">
     <!-- ADC Value -->
     <g transform="translate(14.798438 336.382187)rotate(-90)scale(0.1 -0.1)">
      <use xlink:href="#DejaVuSans-65"/>
      <use x="68.408203" xlink:href="#DejaVuSans-68"/>
      <use x="145.410156" xlink:href="#DejaVuSans-67"/>
      <use x="215.234375" xlink:href="#DejaVuSans-32"/>
      <use x="247.021484" xlink:href="#DejaVuSans-86"/>
      <use x="315.320312" xlink:href="#DejaVuSans-97"/>
      <use x="376.599609" xlink:href="#DejaVuSans-108"/>
      <use x="404.382812" xlink:href="#DejaVuSans-117"/>
      <use x="467.761719" xlink:href="#DejaVuSans-101"/>
     </g>
    </g>
   </g>
   <g id="line2d_38">
    <path clip-path="url(#p25aa3c020a)" d="M 79.346581 348.92696 
L 81.059357 313.241017 
L 83.152749 283.10447 
L 84.865525 262.706077 
L 86.76861 253.766318 
L 88.862003 255.267523 
L 91.336012 264.077964 
L 95.142181 288.069129 
L 96.854957 297.807282 
L 99.138659 305.234591 
L 101.993285 311.453065 
L 104.086678 317.885193 
L 105.799454 325.391217 
L 109.225006 342.37676 
L 111.318399 349.809691 
L 113.031175 355.375956 
L 114.743951 359.013707 
L 116.456727 361.228968 
L 118.740428 362.555876 
L 120.453204 363.01692 
L 122.356289 361.808085 
L 124.069065 357.557482 
L 125.781841 349.03941 
L 128.636467 336.040213 
L 132.062019 303.530976 
L 133.774795 290.30688 
L 135.868188 283.205675 
L 137.580964 283.638607 
L 139.29374 291.127764 
L 145.002993 332.368727 
L 147.096386 343.52937 
L 148.809162 350.248245 
L 150.521938 351.586398 
L 152.615331 347.139009 
L 154.328107 337.097241 
L 156.040883 322.456278 
L 157.753659 305.144631 
L 160.03736 287.939812 
L 161.750136 273.979169 
L 163.843529 265.939009 
L 165.936922 265.2868 
L 167.840007 271.780776 
L 169.552783 283.4868 
L 171.265559 297.32937 
L 173.168643 310.030575 
L 174.881419 318.975956 
L 176.784503 322.827362 
L 178.497279 321.579169 
L 180.400364 316.192824 
L 184.016224 298.392021 
L 185.729 288.552663 
L 187.822393 279.641017 
L 189.915786 272.742221 
L 191.81887 268.699651 
L 193.912263 267.867523 
L 195.625039 269.942221 
L 197.337815 274.069129 
L 199.050591 279.269932 
L 201.143984 284.858687 
L 204.569536 296.604069 
L 206.282312 302.648245 
L 208.375705 307.967121 
L 210.278789 311.10447 
L 212.372182 310.446639 
L 214.465575 305.133386 
L 216.36866 295.923747 
L 218.271744 285.516519 
L 220.365137 277.853065 
L 222.077913 276.711699 
L 224.361614 284.060294 
L 230.261176 336.602462 
L 231.973952 349.719731 
L 233.877036 355.010494 
L 235.589812 352.564711 
L 237.683205 344.698848 
L 239.395981 334.814511 
L 241.489374 326.009691 
L 243.392458 320.151057 
L 245.105234 317.654671 
L 247.008319 317.930173 
L 249.101712 320.212904 
L 251.004796 324.120535 
L 252.717572 329.821739 
L 254.430348 337.625756 
L 256.143124 347.380776 
L 258.426825 358.012904 
L 260.139601 367.498045 
L 262.042686 373.373547 
L 263.755462 373.665916 
L 265.658546 367.835394 
L 267.942248 357.270735 
L 269.655024 345.002462 
L 271.558108 334.673948 
L 273.651501 329.225756 
L 275.554585 329.737402 
L 277.267361 335.000053 
L 278.980137 341.898848 
L 280.692913 346.447442 
L 282.595998 345.227362 
L 284.499082 336.64182 
L 286.211858 321.624149 
L 288.495559 303.424149 
L 290.398644 286.511699 
L 292.301728 275.047442 
L 294.58543 271.426559 
L 296.298206 275.592824 
L 298.20129 285.342221 
L 299.914066 297.453065 
L 303.529926 319.032181 
L 305.433011 327.454671 
L 309.048871 345.289209 
L 312.474423 367.290013 
L 315.899975 376.061097 
L 317.612751 379.918125 
L 319.706144 377.163105 
L 321.799537 367.841017 
L 323.702621 353.919731 
L 325.415397 338.806478 
L 327.128173 326.234591 
L 328.840949 319.026559 
L 330.934342 318.05949 
L 333.218044 321.888406 
L 335.501745 327.314109 
L 337.404829 330.580776 
L 339.878839 328.888406 
L 341.781923 321.528567 
L 345.207475 298.723747 
L 347.11056 291.240213 
L 349.013644 291.217723 
L 350.916729 299.988808 
L 353.010122 316.249049 
L 354.913206 336.332583 
L 356.81629 355.162302 
L 358.719375 367.717322 
L 360.812768 370.590414 
L 362.715852 363.202462 
L 366.522021 330.653868 
L 368.234797 316.620133 
L 370.518498 310.778366 
L 372.231274 314.770334 
L 373.94405 326.448245 
L 375.847135 340.61692 
L 377.559911 350.934189 
L 379.462995 352.339812 
L 381.556388 343.012101 
L 383.269164 325.087603 
L 384.98194 303.800856 
L 387.075333 285.409691 
L 388.788109 274.783185 
L 390.500885 273.585595 
L 392.213661 279.860294 
L 394.116745 289.04182 
L 396.590755 295.963105 
L 398.303531 296.868326 
L 400.016307 290.784792 
L 401.729083 279.567924 
L 404.012784 266.911699 
L 405.72556 256.667523 
L 407.628645 251.320535 
L 409.341421 251.17435 
L 411.434814 254.570334 
L 413.528206 258.899651 
L 415.240982 261.885193 
L 417.144067 262.565515 
L 421.140544 259.877964 
L 422.85332 259.315715 
L 424.566096 260.457081 
L 426.278872 263.155876 
L 428.372265 266.771137 
L 430.275349 270.628165 
L 434.462135 278.167924 
L 438.077996 285.567121 
L 439.790772 288.260294 
L 441.884164 289.058687 
L 443.787249 287.253868 
L 445.500025 283.070735 
L 447.403109 277.988005 
L 449.115885 274.479571 
L 451.780204 275.13178 
L 453.683288 281.530173 
L 455.586372 293.421739 
L 457.679765 308.647442 
L 459.392541 323.811298 
L 461.676243 335.489209 
L 463.389019 341.302864 
L 465.101795 340.48198 
L 467.004879 333.779972 
L 469.478889 322.934189 
L 472.904441 296.868326 
L 474.997834 284.875555 
L 476.900918 274.912503 
L 478.613694 267.535796 
L 480.516778 263.268326 
L 482.229554 262.773547 
L 484.132639 266.77676 
L 485.845415 275.592824 
L 487.748499 288.603266 
L 489.461275 303.868326 
L 491.744977 318.228165 
L 493.648061 328.01692 
L 495.741454 330.108486 
L 497.45423 323.029772 
L 499.167006 307.629772 
L 501.260399 287.012101 
L 503.163483 265.787201 
L 505.256876 248.812904 
L 506.969652 239.918125 
L 509.253353 241.05949 
L 510.966129 252.017723 
L 512.678905 270.740615 
L 514.58199 293.916519 
L 516.294766 317.694029 
L 518.19785 338.283587 
L 520.291243 352.525354 
L 522.004019 358.400856 
L 523.716795 355.381579 
L 525.810188 344.434591 
L 527.522964 327.662703 
L 530.948516 287.445033 
L 533.041909 268.975153 
L 535.32561 254.165515 
L 537.038386 244.337402 
L 538.751162 240.407282 
L 541.034863 242.757482 
L 543.128256 251.118125 
L 544.841032 264.432181 
L 546.744117 281.024149 
L 549.408435 298.97676 
L 551.121211 316.524551 
L 552.833987 332.295635 
L 554.546763 345.244229 
L 556.449847 354.48198 
L 558.352932 359.188005 
L 560.065708 358.811298 
L 562.1591 353.453065 
L 563.871876 344.226559 
L 567.487737 323.530173 
L 569.390821 317.705274 
L 571.674523 317.632181 
L 573.577607 323.457081 
L 575.290383 333.538205 
L 577.003159 344.934992 
L 578.906243 354.363908 
L 581.189945 359.0868 
L 583.283338 357.568727 
L 585.186422 349.641017 
L 586.899198 336.338205 
L 588.611974 319.577563 
L 590.895675 301.771137 
L 592.608451 285.443426 
L 594.321227 272.815314 
L 596.224312 265.393627 
L 598.127396 263.583185 
L 599.840172 266.568727 
L 601.933565 272.545434 
L 603.646341 279.30929 
L 605.359117 285.027362 
L 607.45251 288.912503 
L 611.06837 293.775956 
L 612.971455 297.391217 
L 614.874539 302.79443 
L 616.587315 309.271539 
L 618.300091 315.028968 
L 620.203176 317.947041 
L 622.296568 316.625756 
L 624.199653 311.115715 
L 628.005822 294.73178 
L 629.718598 288.485193 
L 631.621682 285.280374 
L 633.334458 284.633788 
L 635.237543 285.010494 
L 636.950319 284.791217 
L 639.043711 283.21692 
L 640.946796 280.838607 
L 642.659572 279.326157 
L 644.372348 280.816117 
L 646.656049 287.000856 
L 648.368825 298.392021 
L 651.984686 330.783185 
L 653.88777 345.300454 
L 655.981163 353.44182 
L 657.884247 352.114912 
L 659.597023 340.178366 
L 661.500108 319.049049 
L 663.403192 292.600856 
L 663.403192 292.600856 
" style="fill:none;stroke:#1f77b4;stroke-linecap:square;stroke-width:1.5;"/>
   </g>
   <g id="line2d_39">
    <g clip-path="url(#p25aa3c020a)">
     <use style="fill:#ff0000;stroke:#ff0000;" x="143.099909" xlink:href="#mf8f09b10cc" y="318.312503"/>
     <use style="fill:#ff0000;stroke:#ff0000;" x="199.050591" xlink:href="#mf8f09b10cc" y="279.269932"/>
     <use style="fill:#ff0000;stroke:#ff0000;" x="258.426825" xlink:href="#mf8f09b10cc" y="358.012904"/>
     <use style="fill:#ff0000;stroke:#ff0000;" x="310.761647" xlink:href="#mf8f09b10cc" y="356.21933"/>
     <use style="fill:#ff0000;stroke:#ff0000;" x="375.847135" xlink:href="#mf8f09b10cc" y="340.61692"/>
     <use style="fill:#ff0000;stroke:#ff0000;" x="428.372265" xlink:href="#mf8f09b10cc" y="266.771137"/>
     <use style="fill:#ff0000;stroke:#ff0000;" x="489.461275" xlink:href="#mf8f09b10cc" y="303.868326"/>
     <use style="fill:#ff0000;stroke:#ff0000;" x="549.408435" xlink:href="#mf8f09b10cc" y="298.97676"/>
     <use style="fill:#ff0000;stroke:#ff0000;" x="616.587315" xlink:href="#mf8f09b10cc" y="309.271539"/>
    </g>
   </g>
   <g id="line2d_40">
    <path clip-path="url(#p25aa3c020a)" d="M 143.099909 386.918125 
L 143.099909 232.918125 
" style="fill:none;stroke:#808080;stroke-dasharray:5.55,2.4;stroke-dashoffset:0;stroke-width:1.5;"/>
   </g>
   <g id="line2d_41">
    <path clip-path="url(#p25aa3c020a)" d="M 199.050591 386.918125 
L 199.050591 232.918125 
" style="fill:none;stroke:#808080;stroke-dasharray:5.55,2.4;stroke-dashoffset:0;stroke-width:1.5;"/>
   </g>
   <g id="line2d_42">
    <path clip-path="url(#p25aa3c020a)" d="M 258.426825 386.918125 
L 258.426825 232.918125 
" style="fill:none;stroke:#808080;stroke-dasharray:5.55,2.4;stroke-dashoffset:0;stroke-width:1.5;"/>
   </g>
   <g id="line2d_43">
    <path clip-path="url(#p25aa3c020a)" d="M 310.761647 386.918125 
L 310.761647 232.918125 
" style="fill:none;stroke:#808080;stroke-dasharray:5.55,2.4;stroke-dashoffset:0;stroke-width:1.5;"/>
   </g>
   <g id="line2d_44">
    <path clip-path="url(#p25aa3c020a)" d="M 375.847135 386.918125 
L 375.847135 232.918125 
" style="fill:none;stroke:#808080;stroke-dasharray:5.55,2.4;stroke-dashoffset:0;stroke-width:1.5;"/>
   </g>
   <g id="line2d_45">
    <path clip-path="url(#p25aa3c020a)" d="M 428.372265 386.918125 
L 428.372265 232.918125 
" style="fill:none;stroke:#808080;stroke-dasharray:5.55,2.4;stroke-dashoffset:0;stroke-width:1.5;"/>
   </g>
   <g id="line2d_46">
    <path clip-path="url(#p25aa3c020a)" d="M 489.461275 386.918125 
L 489.461275 232.918125 
" style="fill:none;stroke:#808080;stroke-dasharray:5.55,2.4;stroke-dashoffset:0;stroke-width:1.5;"/>
   </g>
   <g id="line2d_47">
    <path clip-path="url(#p25aa3c020a)" d="M 549.408435 386.918125 
L 549.408435 232.918125 
" style="fill:none;stroke:#808080;stroke-dasharray:5.55,2.4;stroke-dashoffset:0;stroke-width:1.5;"/>
   </g>
   <g id="line2d_48">
    <path clip-path="url(#p25aa3c020a)" d="M 616.587315 386.918125 
L 616.587315 232.918125 
" style="fill:none;stroke:#808080;stroke-dasharray:5.55,2.4;stroke-dashoffset:0;stroke-width:1.5;"/>
   </g>
   <g id="patch_8">
    <path d="M 50.14375 386.918125 
L 50.14375 232.918125 
" style="fill:none;stroke:#000000;stroke-linecap:square;stroke-linejoin:miter;stroke-width:0.8;"/>
   </g>
   <g id="patch_9">
    <path d="M 692.606023 386.918125 
L 692.606023 232.918125 
" style="fill:none;stroke:#000000;stroke-linecap:square;stroke-linejoin:miter;stroke-width:0.8;"/>
   </g>
   <g id="patch_10">
    <path d="M 50.14375 386.918125 
L 692.606023 386.918125 
" style="fill:none;stroke:#000000;stroke-linecap:square;stroke-linejoin:miter;stroke-width:0.8;"/>
   </g>
   <g id="patch_11">
    <path d="M 50.14375 232.918125 
L 692.606023 232.918125 
" style="fill:none;stroke:#000000;stroke-linecap:square;stroke-linejoin:miter;stroke-width:0.8;"/>
   </g>
   <g id="text_34">
    <!-- Final Diastolic Peaks -->
    <g transform="translate(309.974261 226.918125)scale(0.12 -0.12)">
     <use xlink:href="#DejaVuSans-70"/>
     <use x="57.410156" xlink:href="#DejaVuSans-105"/>
     <use x="85.193359" xlink:href="#DejaVuSans-110"/>
     <use x="148.572266" xlink:href="#DejaVuSans-97"/>
     <use x="209.851562" xlink:href="#DejaVuSans-108"/>
     <use x="237.634766" xlink:href="#DejaVuSans-32"/>
     <use x="269.421875" xlink:href="#DejaVuSans-68"/>
     <use x="346.423828" xlink:href="#DejaVuSans-105"/>
     <use x="374.207031" xlink:href="#DejaVuSans-97"/>
     <use x="435.486328" xlink:href="#DejaVuSans-115"/>
     <use x="487.585938" xlink:href="#DejaVuSans-116"/>
     <use x="526.794922" xlink:href="#DejaVuSans-111"/>
     <use x="587.976562" xlink:href="#DejaVuSans-108"/>
     <use x="615.759766" xlink:href="#DejaVuSans-105"/>
     <use x="643.542969" xlink:href="#DejaVuSans-99"/>
     <use x="698.523438" xlink:href="#DejaVuSans-32"/>
     <use x="730.310547" xlink:href="#DejaVuSans-80"/>
     <use x="790.566406" xlink:href="#DejaVuSans-101"/>
     <use x="852.089844" xlink:href="#DejaVuSans-97"/>
     <use x="913.369141" xlink:href="#DejaVuSans-107"/>
     <use x="971.279297" xlink:href="#DejaVuSans-115"/>
    </g>
   </g>
  </g>
 </g>
 <defs>
  <clipPath id="p5d23f243d9">
   <rect height="154" width="642.462273" x="50.14375" y="22.318125"/>
  </clipPath>
  <clipPath id="p25aa3c020a">
   <rect height="154" width="642.462273" x="50.14375" y="232.918125"/>
  </clipPath>
 </defs>
</svg>
