<?xml version="1.0" encoding="utf-8" standalone="no"?>
<!DOCTYPE svg PUBLIC "-//W3C//DTD SVG 1.1//EN"
  "http://www.w3.org/Graphics/SVG/1.1/DTD/svg11.dtd">
<!-- Created with matplotlib (https://matplotlib.org/) -->
<svg height="424.474375pt" version="1.1" viewBox="0 0 712.433125 424.474375" width="712.433125pt" xmlns="http://www.w3.org/2000/svg" xmlns:xlink="http://www.w3.org/1999/xlink">
 <defs>
  <style type="text/css">
*{stroke-linecap:butt;stroke-linejoin:round;}
  </style>
 </defs>
 <g id="figure_1">
  <g id="patch_1">
   <path d="M 0 424.474375 
L 712.433125 424.474375 
L 712.433125 0 
L 0 0 
z
" style="fill:#ffffff;"/>
  </g>
  <g id="axes_1">
   <g id="patch_2">
    <path d="M 40.603125 176.318125 
L 705.233125 176.318125 
L 705.233125 22.318125 
L 40.603125 22.318125 
z
" style="fill:#ffffff;"/>
   </g>
   <g id="matplotlib.axis_1">
    <g id="xtick_1">
     <g id="line2d_1">
      <defs>
       <path d="M 0 0 
L 0 3.5 
" id="m18b2d6b1d8" style="stroke:#000000;stroke-width:0.8;"/>
      </defs>
      <g>
       <use style="stroke:#000000;stroke-width:0.8;" x="102.451603" xlink:href="#m18b2d6b1d8" y="176.318125"/>
      </g>
     </g>
     <g id="text_1">
      <!-- 4.60 -->
      <defs>
       <path d="M 37.796875 64.3125 
L 12.890625 25.390625 
L 37.796875 25.390625 
z
M 35.203125 72.90625 
L 47.609375 72.90625 
L 47.609375 25.390625 
L 58.015625 25.390625 
L 58.015625 17.1875 
L 47.609375 17.1875 
L 47.609375 0 
L 37.796875 0 
L 37.796875 17.1875 
L 4.890625 17.1875 
L 4.890625 26.703125 
z
" id="DejaVuSans-52"/>
       <path d="M 10.6875 12.40625 
L 21 12.40625 
L 21 0 
L 10.6875 0 
z
" id="DejaVuSans-46"/>
       <path d="M 33.015625 40.375 
Q 26.375 40.375 22.484375 35.828125 
Q 18.609375 31.296875 18.609375 23.390625 
Q 18.609375 15.53125 22.484375 10.953125 
Q 26.375 6.390625 33.015625 6.390625 
Q 39.65625 6.390625 43.53125 10.953125 
Q 47.40625 15.53125 47.40625 23.390625 
Q 47.40625 31.296875 43.53125 35.828125 
Q 39.65625 40.375 33.015625 40.375 
z
M 52.59375 71.296875 
L 52.59375 62.3125 
Q 48.875 64.0625 45.09375 64.984375 
Q 41.3125 65.921875 37.59375 65.921875 
Q 27.828125 65.921875 22.671875 59.328125 
Q 17.53125 52.734375 16.796875 39.40625 
Q 19.671875 43.65625 24.015625 45.921875 
Q 28.375 48.1875 33.59375 48.1875 
Q 44.578125 48.1875 50.953125 41.515625 
Q 57.328125 34.859375 57.328125 23.390625 
Q 57.328125 12.15625 50.6875 5.359375 
Q 44.046875 -1.421875 33.015625 -1.421875 
Q 20.359375 -1.421875 13.671875 8.265625 
Q 6.984375 17.96875 6.984375 36.375 
Q 6.984375 53.65625 15.1875 63.9375 
Q 23.390625 74.21875 37.203125 74.21875 
Q 40.921875 74.21875 44.703125 73.484375 
Q 48.484375 72.75 52.59375 71.296875 
z
" id="DejaVuSans-54"/>
       <path d="M 31.78125 66.40625 
Q 24.171875 66.40625 20.328125 58.90625 
Q 16.5 51.421875 16.5 36.375 
Q 16.5 21.390625 20.328125 13.890625 
Q 24.171875 6.390625 31.78125 6.390625 
Q 39.453125 6.390625 43.28125 13.890625 
Q 47.125 21.390625 47.125 36.375 
Q 47.125 51.421875 43.28125 58.90625 
Q 39.453125 66.40625 31.78125 66.40625 
z
M 31.78125 74.21875 
Q 44.046875 74.21875 50.515625 64.515625 
Q 56.984375 54.828125 56.984375 36.375 
Q 56.984375 17.96875 50.515625 8.265625 
Q 44.046875 -1.421875 31.78125 -1.421875 
Q 19.53125 -1.421875 13.0625 8.265625 
Q 6.59375 17.96875 6.59375 36.375 
Q 6.59375 54.828125 13.0625 64.515625 
Q 19.53125 74.21875 31.78125 74.21875 
z
" id="DejaVuSans-48"/>
      </defs>
      <g transform="translate(91.318791 190.916562)scale(0.1 -0.1)">
       <use xlink:href="#DejaVuSans-52"/>
       <use x="63.623047" xlink:href="#DejaVuSans-46"/>
       <use x="95.410156" xlink:href="#DejaVuSans-54"/>
       <use x="159.033203" xlink:href="#DejaVuSans-48"/>
      </g>
     </g>
    </g>
    <g id="xtick_2">
     <g id="line2d_2">
      <g>
       <use style="stroke:#000000;stroke-width:0.8;" x="179.617515" xlink:href="#m18b2d6b1d8" y="176.318125"/>
      </g>
     </g>
     <g id="text_2">
      <!-- 4.65 -->
      <defs>
       <path d="M 10.796875 72.90625 
L 49.515625 72.90625 
L 49.515625 64.59375 
L 19.828125 64.59375 
L 19.828125 46.734375 
Q 21.96875 47.46875 24.109375 47.828125 
Q 26.265625 48.1875 28.421875 48.1875 
Q 40.625 48.1875 47.75 41.5 
Q 54.890625 34.8125 54.890625 23.390625 
Q 54.890625 11.625 47.5625 5.09375 
Q 40.234375 -1.421875 26.90625 -1.421875 
Q 22.3125 -1.421875 17.546875 -0.640625 
Q 12.796875 0.140625 7.71875 1.703125 
L 7.71875 11.625 
Q 12.109375 9.234375 16.796875 8.0625 
Q 21.484375 6.890625 26.703125 6.890625 
Q 35.15625 6.890625 40.078125 11.328125 
Q 45.015625 15.765625 45.015625 23.390625 
Q 45.015625 31 40.078125 35.4375 
Q 35.15625 39.890625 26.703125 39.890625 
Q 22.75 39.890625 18.8125 39.015625 
Q 14.890625 38.140625 10.796875 36.28125 
z
" id="DejaVuSans-53"/>
      </defs>
      <g transform="translate(168.484703 190.916562)scale(0.1 -0.1)">
       <use xlink:href="#DejaVuSans-52"/>
       <use x="63.623047" xlink:href="#DejaVuSans-46"/>
       <use x="95.410156" xlink:href="#DejaVuSans-54"/>
       <use x="159.033203" xlink:href="#DejaVuSans-53"/>
      </g>
     </g>
    </g>
    <g id="xtick_3">
     <g id="line2d_3">
      <g>
       <use style="stroke:#000000;stroke-width:0.8;" x="256.783427" xlink:href="#m18b2d6b1d8" y="176.318125"/>
      </g>
     </g>
     <g id="text_3">
      <!-- 4.70 -->
      <defs>
       <path d="M 8.203125 72.90625 
L 55.078125 72.90625 
L 55.078125 68.703125 
L 28.609375 0 
L 18.3125 0 
L 43.21875 64.59375 
L 8.203125 64.59375 
z
" id="DejaVuSans-55"/>
      </defs>
      <g transform="translate(245.650615 190.916562)scale(0.1 -0.1)">
       <use xlink:href="#DejaVuSans-52"/>
       <use x="63.623047" xlink:href="#DejaVuSans-46"/>
       <use x="95.410156" xlink:href="#DejaVuSans-55"/>
       <use x="159.033203" xlink:href="#DejaVuSans-48"/>
      </g>
     </g>
    </g>
    <g id="xtick_4">
     <g id="line2d_4">
      <g>
       <use style="stroke:#000000;stroke-width:0.8;" x="333.949339" xlink:href="#m18b2d6b1d8" y="176.318125"/>
      </g>
     </g>
     <g id="text_4">
      <!-- 4.75 -->
      <g transform="translate(322.816527 190.916562)scale(0.1 -0.1)">
       <use xlink:href="#DejaVuSans-52"/>
       <use x="63.623047" xlink:href="#DejaVuSans-46"/>
       <use x="95.410156" xlink:href="#DejaVuSans-55"/>
       <use x="159.033203" xlink:href="#DejaVuSans-53"/>
      </g>
     </g>
    </g>
    <g id="xtick_5">
     <g id="line2d_5">
      <g>
       <use style="stroke:#000000;stroke-width:0.8;" x="411.115251" xlink:href="#m18b2d6b1d8" y="176.318125"/>
      </g>
     </g>
     <g id="text_5">
      <!-- 4.80 -->
      <defs>
       <path d="M 31.78125 34.625 
Q 24.75 34.625 20.71875 30.859375 
Q 16.703125 27.09375 16.703125 20.515625 
Q 16.703125 13.921875 20.71875 10.15625 
Q 24.75 6.390625 31.78125 6.390625 
Q 38.8125 6.390625 42.859375 10.171875 
Q 46.921875 13.96875 46.921875 20.515625 
Q 46.921875 27.09375 42.890625 30.859375 
Q 38.875 34.625 31.78125 34.625 
z
M 21.921875 38.8125 
Q 15.578125 40.375 12.03125 44.71875 
Q 8.5 49.078125 8.5 55.328125 
Q 8.5 64.0625 14.71875 69.140625 
Q 20.953125 74.21875 31.78125 74.21875 
Q 42.671875 74.21875 48.875 69.140625 
Q 55.078125 64.0625 55.078125 55.328125 
Q 55.078125 49.078125 51.53125 44.71875 
Q 48 40.375 41.703125 38.8125 
Q 48.828125 37.15625 52.796875 32.3125 
Q 56.78125 27.484375 56.78125 20.515625 
Q 56.78125 9.90625 50.3125 4.234375 
Q 43.84375 -1.421875 31.78125 -1.421875 
Q 19.734375 -1.421875 13.25 4.234375 
Q 6.78125 9.90625 6.78125 20.515625 
Q 6.78125 27.484375 10.78125 32.3125 
Q 14.796875 37.15625 21.921875 38.8125 
z
M 18.3125 54.390625 
Q 18.3125 48.734375 21.84375 45.5625 
Q 25.390625 42.390625 31.78125 42.390625 
Q 38.140625 42.390625 41.71875 45.5625 
Q 45.3125 48.734375 45.3125 54.390625 
Q 45.3125 60.0625 41.71875 63.234375 
Q 38.140625 66.40625 31.78125 66.40625 
Q 25.390625 66.40625 21.84375 63.234375 
Q 18.3125 60.0625 18.3125 54.390625 
z
" id="DejaVuSans-56"/>
      </defs>
      <g transform="translate(399.982439 190.916562)scale(0.1 -0.1)">
       <use xlink:href="#DejaVuSans-52"/>
       <use x="63.623047" xlink:href="#DejaVuSans-46"/>
       <use x="95.410156" xlink:href="#DejaVuSans-56"/>
       <use x="159.033203" xlink:href="#DejaVuSans-48"/>
      </g>
     </g>
    </g>
    <g id="xtick_6">
     <g id="line2d_6">
      <g>
       <use style="stroke:#000000;stroke-width:0.8;" x="488.281163" xlink:href="#m18b2d6b1d8" y="176.318125"/>
      </g>
     </g>
     <g id="text_6">
      <!-- 4.85 -->
      <g transform="translate(477.148351 190.916562)scale(0.1 -0.1)">
       <use xlink:href="#DejaVuSans-52"/>
       <use x="63.623047" xlink:href="#DejaVuSans-46"/>
       <use x="95.410156" xlink:href="#DejaVuSans-56"/>
       <use x="159.033203" xlink:href="#DejaVuSans-53"/>
      </g>
     </g>
    </g>
    <g id="xtick_7">
     <g id="line2d_7">
      <g>
       <use style="stroke:#000000;stroke-width:0.8;" x="565.447075" xlink:href="#m18b2d6b1d8" y="176.318125"/>
      </g>
     </g>
     <g id="text_7">
      <!-- 4.90 -->
      <defs>
       <path d="M 10.984375 1.515625 
L 10.984375 10.5 
Q 14.703125 8.734375 18.5 7.8125 
Q 22.3125 6.890625 25.984375 6.890625 
Q 35.75 6.890625 40.890625 13.453125 
Q 46.046875 20.015625 46.78125 33.40625 
Q 43.953125 29.203125 39.59375 26.953125 
Q 35.25 24.703125 29.984375 24.703125 
Q 19.046875 24.703125 12.671875 31.3125 
Q 6.296875 37.9375 6.296875 49.421875 
Q 6.296875 60.640625 12.9375 67.421875 
Q 19.578125 74.21875 30.609375 74.21875 
Q 43.265625 74.21875 49.921875 64.515625 
Q 56.59375 54.828125 56.59375 36.375 
Q 56.59375 19.140625 48.40625 8.859375 
Q 40.234375 -1.421875 26.421875 -1.421875 
Q 22.703125 -1.421875 18.890625 -0.6875 
Q 15.09375 0.046875 10.984375 1.515625 
z
M 30.609375 32.421875 
Q 37.25 32.421875 41.125 36.953125 
Q 45.015625 41.5 45.015625 49.421875 
Q 45.015625 57.28125 41.125 61.84375 
Q 37.25 66.40625 30.609375 66.40625 
Q 23.96875 66.40625 20.09375 61.84375 
Q 16.21875 57.28125 16.21875 49.421875 
Q 16.21875 41.5 20.09375 36.953125 
Q 23.96875 32.421875 30.609375 32.421875 
z
" id="DejaVuSans-57"/>
      </defs>
      <g transform="translate(554.314263 190.916562)scale(0.1 -0.1)">
       <use xlink:href="#DejaVuSans-52"/>
       <use x="63.623047" xlink:href="#DejaVuSans-46"/>
       <use x="95.410156" xlink:href="#DejaVuSans-57"/>
       <use x="159.033203" xlink:href="#DejaVuSans-48"/>
      </g>
     </g>
    </g>
    <g id="xtick_8">
     <g id="line2d_8">
      <g>
       <use style="stroke:#000000;stroke-width:0.8;" x="642.612987" xlink:href="#m18b2d6b1d8" y="176.318125"/>
      </g>
     </g>
     <g id="text_8">
      <!-- 4.95 -->
      <g transform="translate(631.480175 190.916562)scale(0.1 -0.1)">
       <use xlink:href="#DejaVuSans-52"/>
       <use x="63.623047" xlink:href="#DejaVuSans-46"/>
       <use x="95.410156" xlink:href="#DejaVuSans-57"/>
       <use x="159.033203" xlink:href="#DejaVuSans-53"/>
      </g>
     </g>
    </g>
    <g id="text_9">
     <!-- Time (ms) -->
     <defs>
      <path d="M -0.296875 72.90625 
L 61.375 72.90625 
L 61.375 64.59375 
L 35.5 64.59375 
L 35.5 0 
L 25.59375 0 
L 25.59375 64.59375 
L -0.296875 64.59375 
z
" id="DejaVuSans-84"/>
      <path d="M 9.421875 54.6875 
L 18.40625 54.6875 
L 18.40625 0 
L 9.421875 0 
z
M 9.421875 75.984375 
L 18.40625 75.984375 
L 18.40625 64.59375 
L 9.421875 64.59375 
z
" id="DejaVuSans-105"/>
      <path d="M 52 44.1875 
Q 55.375 50.25 60.0625 53.125 
Q 64.75 56 71.09375 56 
Q 79.640625 56 84.28125 50.015625 
Q 88.921875 44.046875 88.921875 33.015625 
L 88.921875 0 
L 79.890625 0 
L 79.890625 32.71875 
Q 79.890625 40.578125 77.09375 44.375 
Q 74.3125 48.1875 68.609375 48.1875 
Q 61.625 48.1875 57.5625 43.546875 
Q 53.515625 38.921875 53.515625 30.90625 
L 53.515625 0 
L 44.484375 0 
L 44.484375 32.71875 
Q 44.484375 40.625 41.703125 44.40625 
Q 38.921875 48.1875 33.109375 48.1875 
Q 26.21875 48.1875 22.15625 43.53125 
Q 18.109375 38.875 18.109375 30.90625 
L 18.109375 0 
L 9.078125 0 
L 9.078125 54.6875 
L 18.109375 54.6875 
L 18.109375 46.1875 
Q 21.1875 51.21875 25.484375 53.609375 
Q 29.78125 56 35.6875 56 
Q 41.65625 56 45.828125 52.96875 
Q 50 49.953125 52 44.1875 
z
" id="DejaVuSans-109"/>
      <path d="M 56.203125 29.59375 
L 56.203125 25.203125 
L 14.890625 25.203125 
Q 15.484375 15.921875 20.484375 11.0625 
Q 25.484375 6.203125 34.421875 6.203125 
Q 39.59375 6.203125 44.453125 7.46875 
Q 49.3125 8.734375 54.109375 11.28125 
L 54.109375 2.78125 
Q 49.265625 0.734375 44.1875 -0.34375 
Q 39.109375 -1.421875 33.890625 -1.421875 
Q 20.796875 -1.421875 13.15625 6.1875 
Q 5.515625 13.8125 5.515625 26.8125 
Q 5.515625 40.234375 12.765625 48.109375 
Q 20.015625 56 32.328125 56 
Q 43.359375 56 49.78125 48.890625 
Q 56.203125 41.796875 56.203125 29.59375 
z
M 47.21875 32.234375 
Q 47.125 39.59375 43.09375 43.984375 
Q 39.0625 48.390625 32.421875 48.390625 
Q 24.90625 48.390625 20.390625 44.140625 
Q 15.875 39.890625 15.1875 32.171875 
z
" id="DejaVuSans-101"/>
      <path id="DejaVuSans-32"/>
      <path d="M 31 75.875 
Q 24.46875 64.65625 21.28125 53.65625 
Q 18.109375 42.671875 18.109375 31.390625 
Q 18.109375 20.125 21.3125 9.0625 
Q 24.515625 -2 31 -13.1875 
L 23.1875 -13.1875 
Q 15.875 -1.703125 12.234375 9.375 
Q 8.59375 20.453125 8.59375 31.390625 
Q 8.59375 42.28125 12.203125 53.3125 
Q 15.828125 64.359375 23.1875 75.875 
z
" id="DejaVuSans-40"/>
      <path d="M 44.28125 53.078125 
L 44.28125 44.578125 
Q 40.484375 46.53125 36.375 47.5 
Q 32.28125 48.484375 27.875 48.484375 
Q 21.1875 48.484375 17.84375 46.4375 
Q 14.5 44.390625 14.5 40.28125 
Q 14.5 37.15625 16.890625 35.375 
Q 19.28125 33.59375 26.515625 31.984375 
L 29.59375 31.296875 
Q 39.15625 29.25 43.1875 25.515625 
Q 47.21875 21.78125 47.21875 15.09375 
Q 47.21875 7.46875 41.1875 3.015625 
Q 35.15625 -1.421875 24.609375 -1.421875 
Q 20.21875 -1.421875 15.453125 -0.5625 
Q 10.6875 0.296875 5.421875 2 
L 5.421875 11.28125 
Q 10.40625 8.6875 15.234375 7.390625 
Q 20.0625 6.109375 24.8125 6.109375 
Q 31.15625 6.109375 34.5625 8.28125 
Q 37.984375 10.453125 37.984375 14.40625 
Q 37.984375 18.0625 35.515625 20.015625 
Q 33.0625 21.96875 24.703125 23.78125 
L 21.578125 24.515625 
Q 13.234375 26.265625 9.515625 29.90625 
Q 5.8125 33.546875 5.8125 39.890625 
Q 5.8125 47.609375 11.28125 51.796875 
Q 16.75 56 26.8125 56 
Q 31.78125 56 36.171875 55.265625 
Q 40.578125 54.546875 44.28125 53.078125 
z
" id="DejaVuSans-115"/>
      <path d="M 8.015625 75.875 
L 15.828125 75.875 
Q 23.140625 64.359375 26.78125 53.3125 
Q 30.421875 42.28125 30.421875 31.390625 
Q 30.421875 20.453125 26.78125 9.375 
Q 23.140625 -1.703125 15.828125 -13.1875 
L 8.015625 -13.1875 
Q 14.5 -2 17.703125 9.0625 
Q 20.90625 20.125 20.90625 31.390625 
Q 20.90625 42.671875 17.703125 53.65625 
Q 14.5 64.65625 8.015625 75.875 
z
" id="DejaVuSans-41"/>
     </defs>
     <g transform="translate(347.565 204.594687)scale(0.1 -0.1)">
      <use xlink:href="#DejaVuSans-84"/>
      <use x="61.037109" xlink:href="#DejaVuSans-105"/>
      <use x="88.820312" xlink:href="#DejaVuSans-109"/>
      <use x="186.232422" xlink:href="#DejaVuSans-101"/>
      <use x="247.755859" xlink:href="#DejaVuSans-32"/>
      <use x="279.542969" xlink:href="#DejaVuSans-40"/>
      <use x="318.556641" xlink:href="#DejaVuSans-109"/>
      <use x="415.96875" xlink:href="#DejaVuSans-115"/>
      <use x="468.068359" xlink:href="#DejaVuSans-41"/>
     </g>
    </g>
    <g id="text_10">
     <!-- 1e4 -->
     <defs>
      <path d="M 12.40625 8.296875 
L 28.515625 8.296875 
L 28.515625 63.921875 
L 10.984375 60.40625 
L 10.984375 69.390625 
L 28.421875 72.90625 
L 38.28125 72.90625 
L 38.28125 8.296875 
L 54.390625 8.296875 
L 54.390625 0 
L 12.40625 0 
z
" id="DejaVuSans-49"/>
     </defs>
     <g transform="translate(686.355 203.594687)scale(0.1 -0.1)">
      <use xlink:href="#DejaVuSans-49"/>
      <use x="63.623047" xlink:href="#DejaVuSans-101"/>
      <use x="125.146484" xlink:href="#DejaVuSans-52"/>
     </g>
    </g>
   </g>
   <g id="matplotlib.axis_2">
    <g id="ytick_1">
     <g id="line2d_9">
      <defs>
       <path d="M 0 0 
L -3.5 0 
" id="m24e565a5c6" style="stroke:#000000;stroke-width:0.8;"/>
      </defs>
      <g>
       <use style="stroke:#000000;stroke-width:0.8;" x="40.603125" xlink:href="#m24e565a5c6" y="163.814029"/>
      </g>
     </g>
     <g id="text_11">
      <!-- 0 -->
      <g transform="translate(27.240625 167.613247)scale(0.1 -0.1)">
       <use xlink:href="#DejaVuSans-48"/>
      </g>
     </g>
    </g>
    <g id="ytick_2">
     <g id="line2d_10">
      <g>
       <use style="stroke:#000000;stroke-width:0.8;" x="40.603125" xlink:href="#m24e565a5c6" y="125.5566"/>
      </g>
     </g>
     <g id="text_12">
      <!-- 10 -->
      <g transform="translate(20.878125 129.355819)scale(0.1 -0.1)">
       <use xlink:href="#DejaVuSans-49"/>
       <use x="63.623047" xlink:href="#DejaVuSans-48"/>
      </g>
     </g>
    </g>
    <g id="ytick_3">
     <g id="line2d_11">
      <g>
       <use style="stroke:#000000;stroke-width:0.8;" x="40.603125" xlink:href="#m24e565a5c6" y="87.299171"/>
      </g>
     </g>
     <g id="text_13">
      <!-- 20 -->
      <defs>
       <path d="M 19.1875 8.296875 
L 53.609375 8.296875 
L 53.609375 0 
L 7.328125 0 
L 7.328125 8.296875 
Q 12.9375 14.109375 22.625 23.890625 
Q 32.328125 33.6875 34.8125 36.53125 
Q 39.546875 41.84375 41.421875 45.53125 
Q 43.3125 49.21875 43.3125 52.78125 
Q 43.3125 58.59375 39.234375 62.25 
Q 35.15625 65.921875 28.609375 65.921875 
Q 23.96875 65.921875 18.8125 64.3125 
Q 13.671875 62.703125 7.8125 59.421875 
L 7.8125 69.390625 
Q 13.765625 71.78125 18.9375 73 
Q 24.125 74.21875 28.421875 74.21875 
Q 39.75 74.21875 46.484375 68.546875 
Q 53.21875 62.890625 53.21875 53.421875 
Q 53.21875 48.921875 51.53125 44.890625 
Q 49.859375 40.875 45.40625 35.40625 
Q 44.1875 33.984375 37.640625 27.21875 
Q 31.109375 20.453125 19.1875 8.296875 
z
" id="DejaVuSans-50"/>
      </defs>
      <g transform="translate(20.878125 91.09839)scale(0.1 -0.1)">
       <use xlink:href="#DejaVuSans-50"/>
       <use x="63.623047" xlink:href="#DejaVuSans-48"/>
      </g>
     </g>
    </g>
    <g id="ytick_4">
     <g id="line2d_12">
      <g>
       <use style="stroke:#000000;stroke-width:0.8;" x="40.603125" xlink:href="#m24e565a5c6" y="49.041742"/>
      </g>
     </g>
     <g id="text_14">
      <!-- 30 -->
      <defs>
       <path d="M 40.578125 39.3125 
Q 47.65625 37.796875 51.625 33 
Q 55.609375 28.21875 55.609375 21.1875 
Q 55.609375 10.40625 48.1875 4.484375 
Q 40.765625 -1.421875 27.09375 -1.421875 
Q 22.515625 -1.421875 17.65625 -0.515625 
Q 12.796875 0.390625 7.625 2.203125 
L 7.625 11.71875 
Q 11.71875 9.328125 16.59375 8.109375 
Q 21.484375 6.890625 26.8125 6.890625 
Q 36.078125 6.890625 40.9375 10.546875 
Q 45.796875 14.203125 45.796875 21.1875 
Q 45.796875 27.640625 41.28125 31.265625 
Q 36.765625 34.90625 28.71875 34.90625 
L 20.21875 34.90625 
L 20.21875 43.015625 
L 29.109375 43.015625 
Q 36.375 43.015625 40.234375 45.921875 
Q 44.09375 48.828125 44.09375 54.296875 
Q 44.09375 59.90625 40.109375 62.90625 
Q 36.140625 65.921875 28.71875 65.921875 
Q 24.65625 65.921875 20.015625 65.03125 
Q 15.375 64.15625 9.8125 62.3125 
L 9.8125 71.09375 
Q 15.4375 72.65625 20.34375 73.4375 
Q 25.25 74.21875 29.59375 74.21875 
Q 40.828125 74.21875 47.359375 69.109375 
Q 53.90625 64.015625 53.90625 55.328125 
Q 53.90625 49.265625 50.4375 45.09375 
Q 46.96875 40.921875 40.578125 39.3125 
z
" id="DejaVuSans-51"/>
      </defs>
      <g transform="translate(20.878125 52.840961)scale(0.1 -0.1)">
       <use xlink:href="#DejaVuSans-51"/>
       <use x="63.623047" xlink:href="#DejaVuSans-48"/>
      </g>
     </g>
    </g>
    <g id="text_15">
     <!-- ADC Value -->
     <defs>
      <path d="M 34.1875 63.1875 
L 20.796875 26.90625 
L 47.609375 26.90625 
z
M 28.609375 72.90625 
L 39.796875 72.90625 
L 67.578125 0 
L 57.328125 0 
L 50.6875 18.703125 
L 17.828125 18.703125 
L 11.1875 0 
L 0.78125 0 
z
" id="DejaVuSans-65"/>
      <path d="M 19.671875 64.796875 
L 19.671875 8.109375 
L 31.59375 8.109375 
Q 46.6875 8.109375 53.6875 14.9375 
Q 60.6875 21.78125 60.6875 36.53125 
Q 60.6875 51.171875 53.6875 57.984375 
Q 46.6875 64.796875 31.59375 64.796875 
z
M 9.8125 72.90625 
L 30.078125 72.90625 
Q 51.265625 72.90625 61.171875 64.09375 
Q 71.09375 55.28125 71.09375 36.53125 
Q 71.09375 17.671875 61.125 8.828125 
Q 51.171875 0 30.078125 0 
L 9.8125 0 
z
" id="DejaVuSans-68"/>
      <path d="M 64.40625 67.28125 
L 64.40625 56.890625 
Q 59.421875 61.53125 53.78125 63.8125 
Q 48.140625 66.109375 41.796875 66.109375 
Q 29.296875 66.109375 22.65625 58.46875 
Q 16.015625 50.828125 16.015625 36.375 
Q 16.015625 21.96875 22.65625 14.328125 
Q 29.296875 6.6875 41.796875 6.6875 
Q 48.140625 6.6875 53.78125 8.984375 
Q 59.421875 11.28125 64.40625 15.921875 
L 64.40625 5.609375 
Q 59.234375 2.09375 53.4375 0.328125 
Q 47.65625 -1.421875 41.21875 -1.421875 
Q 24.65625 -1.421875 15.125 8.703125 
Q 5.609375 18.84375 5.609375 36.375 
Q 5.609375 53.953125 15.125 64.078125 
Q 24.65625 74.21875 41.21875 74.21875 
Q 47.75 74.21875 53.53125 72.484375 
Q 59.328125 70.75 64.40625 67.28125 
z
" id="DejaVuSans-67"/>
      <path d="M 28.609375 0 
L 0.78125 72.90625 
L 11.078125 72.90625 
L 34.1875 11.53125 
L 57.328125 72.90625 
L 67.578125 72.90625 
L 39.796875 0 
z
" id="DejaVuSans-86"/>
      <path d="M 34.28125 27.484375 
Q 23.390625 27.484375 19.1875 25 
Q 14.984375 22.515625 14.984375 16.5 
Q 14.984375 11.71875 18.140625 8.90625 
Q 21.296875 6.109375 26.703125 6.109375 
Q 34.1875 6.109375 38.703125 11.40625 
Q 43.21875 16.703125 43.21875 25.484375 
L 43.21875 27.484375 
z
M 52.203125 31.203125 
L 52.203125 0 
L 43.21875 0 
L 43.21875 8.296875 
Q 40.140625 3.328125 35.546875 0.953125 
Q 30.953125 -1.421875 24.3125 -1.421875 
Q 15.921875 -1.421875 10.953125 3.296875 
Q 6 8.015625 6 15.921875 
Q 6 25.140625 12.171875 29.828125 
Q 18.359375 34.515625 30.609375 34.515625 
L 43.21875 34.515625 
L 43.21875 35.40625 
Q 43.21875 41.609375 39.140625 45 
Q 35.0625 48.390625 27.6875 48.390625 
Q 23 48.390625 18.546875 47.265625 
Q 14.109375 46.140625 10.015625 43.890625 
L 10.015625 52.203125 
Q 14.9375 54.109375 19.578125 55.046875 
Q 24.21875 56 28.609375 56 
Q 40.484375 56 46.34375 49.84375 
Q 52.203125 43.703125 52.203125 31.203125 
z
" id="DejaVuSans-97"/>
      <path d="M 9.421875 75.984375 
L 18.40625 75.984375 
L 18.40625 0 
L 9.421875 0 
z
" id="DejaVuSans-108"/>
      <path d="M 8.5 21.578125 
L 8.5 54.6875 
L 17.484375 54.6875 
L 17.484375 21.921875 
Q 17.484375 14.15625 20.5 10.265625 
Q 23.53125 6.390625 29.59375 6.390625 
Q 36.859375 6.390625 41.078125 11.03125 
Q 45.3125 15.671875 45.3125 23.6875 
L 45.3125 54.6875 
L 54.296875 54.6875 
L 54.296875 0 
L 45.3125 0 
L 45.3125 8.40625 
Q 42.046875 3.421875 37.71875 1 
Q 33.40625 -1.421875 27.6875 -1.421875 
Q 18.265625 -1.421875 13.375 4.4375 
Q 8.5 10.296875 8.5 21.578125 
z
M 31.109375 56 
z
" id="DejaVuSans-117"/>
     </defs>
     <g transform="translate(14.798438 125.782187)rotate(-90)scale(0.1 -0.1)">
      <use xlink:href="#DejaVuSans-65"/>
      <use x="68.408203" xlink:href="#DejaVuSans-68"/>
      <use x="145.410156" xlink:href="#DejaVuSans-67"/>
      <use x="215.234375" xlink:href="#DejaVuSans-32"/>
      <use x="247.021484" xlink:href="#DejaVuSans-86"/>
      <use x="315.320312" xlink:href="#DejaVuSans-97"/>
      <use x="376.599609" xlink:href="#DejaVuSans-108"/>
      <use x="404.382812" xlink:href="#DejaVuSans-117"/>
      <use x="467.761719" xlink:href="#DejaVuSans-101"/>
     </g>
    </g>
   </g>
   <g id="line2d_13">
    <path clip-path="url(#p9a626cf905)" d="M 70.81358 109.69507 
L 73.235259 100.927998 
L 74.446099 97.009289 
L 75.656939 93.599405 
L 76.867779 90.796283 
L 78.078619 88.642007 
L 79.289459 87.120509 
L 80.500298 86.154509 
L 81.711138 85.615079 
L 85.343658 84.729037 
L 86.554498 84.020892 
L 87.765338 82.82726 
L 88.976177 81.050968 
L 90.187017 78.666 
L 91.397857 75.724769 
L 93.819537 68.79367 
L 95.030377 65.293498 
L 96.241217 62.186995 
L 97.452056 59.82039 
L 98.662896 58.534558 
L 99.873736 58.63441 
L 101.084576 60.361733 
L 102.295416 63.868791 
L 103.506256 69.200729 
L 104.717096 76.282179 
L 105.927936 84.914586 
L 108.349615 105.474128 
L 110.771295 127.304964 
L 111.982135 137.360547 
L 113.192975 146.140244 
L 114.403815 153.187645 
L 115.614654 158.1416 
L 116.825494 160.763381 
L 118.036334 160.952756 
L 119.247174 158.755249 
L 120.458014 154.35947 
L 121.668854 148.082191 
L 122.879694 140.344626 
L 128.933893 97.527295 
L 130.144733 91.365936 
L 131.355573 86.698147 
L 132.566412 83.578636 
L 133.777252 81.932419 
L 134.988092 81.565148 
L 136.198932 82.186448 
L 137.409772 83.436701 
L 139.831452 86.260099 
L 141.042292 87.097555 
L 142.253131 87.161827 
L 143.463971 86.277698 
L 144.674811 84.388163 
L 145.885651 81.560557 
L 147.096491 77.985018 
L 150.72901 66.141665 
L 151.93985 63.238309 
L 153.15069 61.586736 
L 154.36153 61.556895 
L 155.57237 63.42271 
L 156.78321 67.336445 
L 157.99405 73.309195 
L 159.204889 81.202467 
L 160.415729 90.733923 
L 162.837409 112.956898 
L 165.259089 135.64891 
L 166.469929 145.660879 
L 167.680768 154.041934 
L 168.891608 160.345993 
L 170.102448 164.255902 
L 171.313288 165.606007 
L 172.524128 164.393629 
L 173.734968 160.777919 
L 174.945808 155.067998 
L 176.156647 147.698469 
L 178.578327 130.144431 
L 181.000007 112.713199 
L 182.210847 105.375806 
L 183.421687 99.494492 
L 184.632527 95.314868 
L 185.843366 92.935256 
L 187.054206 92.308216 
L 188.265046 93.247054 
L 189.475886 95.448769 
L 190.686726 98.521988 
L 193.108406 105.503969 
L 194.319245 108.533192 
L 195.530085 110.75327 
L 196.740925 111.900611 
L 197.951765 111.829835 
L 199.162605 110.527552 
L 200.373445 108.111212 
L 201.584285 104.819926 
L 205.216804 93.418829 
L 206.427644 90.564825 
L 207.638484 88.88762 
L 208.849324 88.716991 
L 210.060164 90.277129 
L 211.271003 93.665207 
L 212.481843 98.84182 
L 213.692683 105.628305 
L 214.903523 113.719369 
L 219.746883 149.931556 
L 220.957722 157.348523 
L 222.168562 163.160974 
L 223.379402 167.035687 
L 224.590242 168.761479 
L 225.801082 168.261072 
L 227.011922 165.595677 
L 228.222762 160.956581 
L 229.433601 154.646018 
L 230.644441 147.053449 
L 236.698641 105.440461 
L 237.90948 99.059887 
L 239.12032 93.847695 
L 240.33116 89.81804 
L 241.542 86.879487 
L 242.75284 84.852991 
L 243.96368 83.492557 
L 247.596199 80.573133 
L 248.807039 79.128915 
L 250.017879 77.161718 
L 251.228719 74.62678 
L 252.439559 71.580724 
L 256.072078 61.356426 
L 257.282918 58.606482 
L 258.493758 56.787341 
L 259.704598 56.248294 
L 260.915438 57.284688 
L 262.126278 60.110382 
L 263.337118 64.830583 
L 264.547957 71.428459 
L 265.758797 79.757484 
L 266.969637 89.5445 
L 269.391317 111.861206 
L 271.812997 134.402483 
L 273.023836 144.381933 
L 274.234676 152.8242 
L 275.445516 159.319929 
L 276.656356 163.573389 
L 277.867196 165.420841 
L 279.078036 164.842388 
L 280.288876 161.958161 
L 281.499715 157.019509 
L 282.710555 150.386436 
L 283.921395 142.498137 
L 288.764755 107.995292 
L 289.975594 100.73518 
L 291.186434 94.579177 
L 292.397274 89.611833 
L 293.608114 85.80101 
L 294.818954 83.009366 
L 296.029794 81.014241 
L 297.240634 79.535591 
L 299.662313 76.920696 
L 300.873153 75.238899 
L 302.083993 73.045984 
L 303.294833 70.2574 
L 304.505673 66.899162 
L 309.349032 51.923675 
L 310.559872 49.510396 
L 311.770712 48.422737 
L 312.981552 49.009224 
L 314.192392 51.534979 
L 315.403232 56.14806 
L 316.614071 62.861856 
L 317.824911 71.542084 
L 319.035751 81.908699 
L 321.457431 105.937425 
L 323.879111 130.531979 
L 325.08995 141.475516 
L 326.30079 150.731901 
L 327.51163 157.820237 
L 328.72247 162.384731 
L 329.93331 164.223383 
L 331.14415 163.298319 
L 332.35499 159.738465 
L 333.565829 153.826544 
L 334.776669 145.97612 
L 337.198349 126.564683 
L 339.620029 106.023505 
L 340.830869 96.651582 
L 342.041709 88.417053 
L 343.252548 81.570504 
L 344.463388 76.219437 
L 345.674228 72.33057 
L 346.885068 69.740542 
L 348.095908 68.177343 
L 349.306748 67.293214 
L 351.728427 66.020389 
L 352.939267 64.905185 
L 354.150107 63.092931 
L 355.360947 60.427536 
L 356.571787 56.877246 
L 357.782627 52.544975 
L 361.415146 37.716013 
L 362.625986 33.563934 
L 363.836826 30.611609 
L 365.047666 29.318125 
L 366.258506 30.067205 
L 367.469346 33.13086 
L 368.680185 38.640313 
L 369.891025 46.567634 
L 371.101865 56.719626 
L 372.312705 68.742405 
L 374.734385 96.316065 
L 377.156065 124.249726 
L 378.366904 136.623709 
L 379.577744 147.092472 
L 380.788584 155.147956 
L 381.999424 160.426333 
L 383.210264 162.728283 
L 384.421104 162.034293 
L 385.631944 158.500837 
L 386.842783 152.446599 
L 388.053623 144.32952 
L 390.475303 124.205348 
L 392.896983 103.070796 
L 394.107823 93.586397 
L 395.318662 85.435269 
L 396.529502 78.918881 
L 397.740342 74.190263 
L 398.951182 71.25171 
L 400.162022 69.962817 
L 401.372862 70.058843 
L 402.583702 71.180169 
L 406.216221 76.410724 
L 407.427061 77.398531 
L 408.637901 77.473133 
L 409.848741 76.467728 
L 411.059581 74.344441 
L 412.270421 71.199297 
L 413.48126 67.255339 
L 417.11378 54.357995 
L 418.32462 51.23045 
L 419.53546 49.464487 
L 420.7463 49.450332 
L 421.957139 51.480271 
L 423.167979 55.719577 
L 424.378819 62.188525 
L 425.589659 70.755129 
L 426.800499 81.137812 
L 429.222179 105.577423 
L 431.643858 131.059549 
L 432.854698 142.605258 
L 434.065538 152.548746 
L 435.276378 160.383485 
L 436.487218 165.721162 
L 437.698058 168.317693 
L 438.908897 168.087766 
L 440.119737 165.109425 
L 441.330577 159.617571 
L 442.541417 151.983684 
L 443.752257 142.690955 
L 449.806456 91.302046 
L 451.017296 83.651325 
L 452.228136 77.668246 
L 453.438976 73.433914 
L 454.649816 70.889795 
L 455.860656 69.84881 
L 457.071495 70.015995 
L 458.282335 71.016809 
L 460.704015 73.841355 
L 461.914855 74.846761 
L 463.125695 75.121832 
L 464.336535 74.433963 
L 465.547374 72.666852 
L 466.758214 69.832359 
L 467.969054 66.071272 
L 470.390734 56.917799 
L 471.601574 52.321934 
L 472.812414 48.331302 
L 474.023253 45.418381 
L 475.234093 44.017012 
L 476.444933 44.483752 
L 477.655773 47.066511 
L 478.866613 51.880826 
L 480.077453 58.893413 
L 481.288293 67.919488 
L 482.499132 78.629655 
L 484.920812 103.180978 
L 487.342492 127.943481 
L 488.553332 138.838814 
L 489.764172 147.98387 
L 490.975012 154.924533 
L 492.185851 159.336762 
L 493.396691 161.048399 
L 494.607531 160.047202 
L 495.818371 156.48008 
L 497.029211 150.641613 
L 498.240051 142.947279 
L 500.66173 124.07642 
L 503.08341 104.322579 
L 504.29425 95.421606 
L 505.50509 87.712734 
L 506.71593 81.456114 
L 507.92677 76.777996 
L 509.137609 73.667667 
L 510.348449 71.985105 
L 511.559289 71.479724 
L 512.770129 71.817155 
L 515.191809 73.465668 
L 516.402649 73.999741 
L 517.613488 73.895681 
L 518.824328 72.920882 
L 520.035168 70.954067 
L 521.246008 67.996003 
L 522.456848 64.174851 
L 527.300207 46.511396 
L 528.511047 43.635585 
L 529.721887 42.265204 
L 530.932727 42.759107 
L 532.143567 45.37056 
L 533.354407 50.223514 
L 534.565247 57.297313 
L 535.776086 66.419414 
L 536.986926 77.273047 
L 539.408606 102.291875 
L 541.830286 127.78586 
L 543.041126 139.134161 
L 544.251965 148.772738 
L 545.462805 156.227198 
L 546.673645 161.150929 
L 547.884485 163.34461 
L 549.095325 162.771514 
L 550.306165 159.555594 
L 551.517005 153.972305 
L 552.727844 146.425645 
L 553.938684 137.420994 
L 558.782044 98.251508 
L 559.992884 90.310413 
L 561.203723 83.880487 
L 562.414563 79.13274 
L 563.625403 76.100074 
L 564.836243 74.679576 
L 566.047083 74.647822 
L 567.257923 75.686129 
L 568.468763 77.409626 
L 570.890442 81.257941 
L 572.101282 82.60728 
L 573.312122 83.15857 
L 574.522962 82.719374 
L 575.733802 81.212414 
L 576.944642 78.685129 
L 578.155482 75.306998 
L 581.788001 63.255525 
L 582.998841 59.980306 
L 584.209681 57.808432 
L 585.420521 57.130128 
L 586.631361 58.254514 
L 587.8422 61.381293 
L 589.05304 66.582391 
L 590.26388 73.790473 
L 591.47472 82.79895 
L 592.68556 93.271921 
L 598.739759 149.854658 
L 599.950599 158.126679 
L 601.161439 164.284213 
L 602.372279 168.057543 
L 603.583119 169.318125 
L 604.793958 168.083558 
L 606.004798 164.516435 
L 607.215638 158.907131 
L 608.426478 151.655435 
L 610.848158 134.169495 
L 613.269838 116.151394 
L 614.480677 108.120394 
L 615.691517 101.217989 
L 616.902357 95.666836 
L 618.113197 91.564874 
L 619.324037 88.886089 
L 620.534877 87.48778 
L 621.745717 87.128543 
L 622.956556 87.493519 
L 625.378236 88.952657 
L 626.589076 89.334084 
L 627.799916 89.079672 
L 629.010756 87.980919 
L 630.221596 85.931468 
L 631.432435 82.936677 
L 632.643275 79.115525 
L 635.064955 69.981181 
L 636.275795 65.359683 
L 637.486635 61.239358 
L 638.697475 58.033386 
L 639.908314 56.121662 
L 641.119154 55.819428 
L 642.329994 57.350108 
L 643.540834 60.82503 
L 644.751674 66.231188 
L 645.962514 73.429323 
L 647.173354 82.161964 
L 649.595033 102.70582 
L 652.016713 124.198844 
L 653.227553 134.052045 
L 654.438393 142.699754 
L 655.649233 149.769344 
L 656.860073 154.982684 
L 658.070912 158.169528 
L 659.281752 159.271342 
L 660.492592 158.337478 
L 661.703432 155.51561 
L 662.914272 151.033369 
L 664.125112 145.17654 
L 665.335952 138.266866 
L 667.757631 122.605039 
L 671.390151 98.788642 
L 673.811831 84.942514 
L 675.02267 78.891336 
L 675.02267 78.891336 
" style="fill:none;stroke:#1f77b4;stroke-linecap:square;stroke-width:1.5;"/>
   </g>
   <g id="line2d_14">
    <defs>
     <path d="M -3 3 
L 3 -3 
M -3 -3 
L 3 3 
" id="me55addcada" style="stroke:#ff0000;"/>
    </defs>
    <g clip-path="url(#p9a626cf905)">
     <use style="fill:#ff0000;stroke:#ff0000;" x="154.36153" xlink:href="#me55addcada" y="61.556895"/>
     <use style="fill:#ff0000;stroke:#ff0000;" x="208.849324" xlink:href="#me55addcada" y="88.716991"/>
     <use style="fill:#ff0000;stroke:#ff0000;" x="259.704598" xlink:href="#me55addcada" y="56.248294"/>
     <use style="fill:#ff0000;stroke:#ff0000;" x="311.770712" xlink:href="#me55addcada" y="48.422737"/>
     <use style="fill:#ff0000;stroke:#ff0000;" x="365.047666" xlink:href="#me55addcada" y="29.318125"/>
     <use style="fill:#ff0000;stroke:#ff0000;" x="420.7463" xlink:href="#me55addcada" y="49.450332"/>
     <use style="fill:#ff0000;stroke:#ff0000;" x="475.234093" xlink:href="#me55addcada" y="44.017012"/>
     <use style="fill:#ff0000;stroke:#ff0000;" x="529.721887" xlink:href="#me55addcada" y="42.265204"/>
     <use style="fill:#ff0000;stroke:#ff0000;" x="585.420521" xlink:href="#me55addcada" y="57.130128"/>
     <use style="fill:#ff0000;stroke:#ff0000;" x="641.119154" xlink:href="#me55addcada" y="55.819428"/>
    </g>
   </g>
   <g id="line2d_15">
    <path clip-path="url(#p9a626cf905)" d="M 154.36153 176.318125 
L 154.36153 22.318125 
" style="fill:none;stroke:#808080;stroke-dasharray:5.55,2.4;stroke-dashoffset:0;stroke-width:1.5;"/>
   </g>
   <g id="line2d_16">
    <path clip-path="url(#p9a626cf905)" d="M 208.849324 176.318125 
L 208.849324 22.318125 
" style="fill:none;stroke:#808080;stroke-dasharray:5.55,2.4;stroke-dashoffset:0;stroke-width:1.5;"/>
   </g>
   <g id="line2d_17">
    <path clip-path="url(#p9a626cf905)" d="M 259.704598 176.318125 
L 259.704598 22.318125 
" style="fill:none;stroke:#808080;stroke-dasharray:5.55,2.4;stroke-dashoffset:0;stroke-width:1.5;"/>
   </g>
   <g id="line2d_18">
    <path clip-path="url(#p9a626cf905)" d="M 311.770712 176.318125 
L 311.770712 22.318125 
" style="fill:none;stroke:#808080;stroke-dasharray:5.55,2.4;stroke-dashoffset:0;stroke-width:1.5;"/>
   </g>
   <g id="line2d_19">
    <path clip-path="url(#p9a626cf905)" d="M 365.047666 176.318125 
L 365.047666 22.318125 
" style="fill:none;stroke:#808080;stroke-dasharray:5.55,2.4;stroke-dashoffset:0;stroke-width:1.5;"/>
   </g>
   <g id="line2d_20">
    <path clip-path="url(#p9a626cf905)" d="M 420.7463 176.318125 
L 420.7463 22.318125 
" style="fill:none;stroke:#808080;stroke-dasharray:5.55,2.4;stroke-dashoffset:0;stroke-width:1.5;"/>
   </g>
   <g id="line2d_21">
    <path clip-path="url(#p9a626cf905)" d="M 475.234093 176.318125 
L 475.234093 22.318125 
" style="fill:none;stroke:#808080;stroke-dasharray:5.55,2.4;stroke-dashoffset:0;stroke-width:1.5;"/>
   </g>
   <g id="line2d_22">
    <path clip-path="url(#p9a626cf905)" d="M 529.721887 176.318125 
L 529.721887 22.318125 
" style="fill:none;stroke:#808080;stroke-dasharray:5.55,2.4;stroke-dashoffset:0;stroke-width:1.5;"/>
   </g>
   <g id="line2d_23">
    <path clip-path="url(#p9a626cf905)" d="M 585.420521 176.318125 
L 585.420521 22.318125 
" style="fill:none;stroke:#808080;stroke-dasharray:5.55,2.4;stroke-dashoffset:0;stroke-width:1.5;"/>
   </g>
   <g id="line2d_24">
    <path clip-path="url(#p9a626cf905)" d="M 641.119154 176.318125 
L 641.119154 22.318125 
" style="fill:none;stroke:#808080;stroke-dasharray:5.55,2.4;stroke-dashoffset:0;stroke-width:1.5;"/>
   </g>
   <g id="patch_3">
    <path d="M 40.603125 176.318125 
L 40.603125 22.318125 
" style="fill:none;stroke:#000000;stroke-linecap:square;stroke-linejoin:miter;stroke-width:0.8;"/>
   </g>
   <g id="patch_4">
    <path d="M 705.233125 176.318125 
L 705.233125 22.318125 
" style="fill:none;stroke:#000000;stroke-linecap:square;stroke-linejoin:miter;stroke-width:0.8;"/>
   </g>
   <g id="patch_5">
    <path d="M 40.603125 176.318125 
L 705.233125 176.318125 
" style="fill:none;stroke:#000000;stroke-linecap:square;stroke-linejoin:miter;stroke-width:0.8;"/>
   </g>
   <g id="patch_6">
    <path d="M 40.603125 22.318125 
L 705.233125 22.318125 
" style="fill:none;stroke:#000000;stroke-linecap:square;stroke-linejoin:miter;stroke-width:0.8;"/>
   </g>
   <g id="text_16">
    <!-- Final Systolic Peaks -->
    <defs>
     <path d="M 9.8125 72.90625 
L 51.703125 72.90625 
L 51.703125 64.59375 
L 19.671875 64.59375 
L 19.671875 43.109375 
L 48.578125 43.109375 
L 48.578125 34.8125 
L 19.671875 34.8125 
L 19.671875 0 
L 9.8125 0 
z
" id="DejaVuSans-70"/>
     <path d="M 54.890625 33.015625 
L 54.890625 0 
L 45.90625 0 
L 45.90625 32.71875 
Q 45.90625 40.484375 42.875 44.328125 
Q 39.84375 48.1875 33.796875 48.1875 
Q 26.515625 48.1875 22.3125 43.546875 
Q 18.109375 38.921875 18.109375 30.90625 
L 18.109375 0 
L 9.078125 0 
L 9.078125 54.6875 
L 18.109375 54.6875 
L 18.109375 46.1875 
Q 21.34375 51.125 25.703125 53.5625 
Q 30.078125 56 35.796875 56 
Q 45.21875 56 50.046875 50.171875 
Q 54.890625 44.34375 54.890625 33.015625 
z
" id="DejaVuSans-110"/>
     <path d="M 53.515625 70.515625 
L 53.515625 60.890625 
Q 47.90625 63.578125 42.921875 64.890625 
Q 37.9375 66.21875 33.296875 66.21875 
Q 25.25 66.21875 20.875 63.09375 
Q 16.5 59.96875 16.5 54.203125 
Q 16.5 49.359375 19.40625 46.890625 
Q 22.3125 44.4375 30.421875 42.921875 
L 36.375 41.703125 
Q 47.40625 39.59375 52.65625 34.296875 
Q 57.90625 29 57.90625 20.125 
Q 57.90625 9.515625 50.796875 4.046875 
Q 43.703125 -1.421875 29.984375 -1.421875 
Q 24.8125 -1.421875 18.96875 -0.25 
Q 13.140625 0.921875 6.890625 3.21875 
L 6.890625 13.375 
Q 12.890625 10.015625 18.65625 8.296875 
Q 24.421875 6.59375 29.984375 6.59375 
Q 38.421875 6.59375 43.015625 9.90625 
Q 47.609375 13.234375 47.609375 19.390625 
Q 47.609375 24.75 44.3125 27.78125 
Q 41.015625 30.8125 33.5 32.328125 
L 27.484375 33.5 
Q 16.453125 35.6875 11.515625 40.375 
Q 6.59375 45.0625 6.59375 53.421875 
Q 6.59375 63.09375 13.40625 68.65625 
Q 20.21875 74.21875 32.171875 74.21875 
Q 37.3125 74.21875 42.625 73.28125 
Q 47.953125 72.359375 53.515625 70.515625 
z
" id="DejaVuSans-83"/>
     <path d="M 32.171875 -5.078125 
Q 28.375 -14.84375 24.75 -17.8125 
Q 21.140625 -20.796875 15.09375 -20.796875 
L 7.90625 -20.796875 
L 7.90625 -13.28125 
L 13.1875 -13.28125 
Q 16.890625 -13.28125 18.9375 -11.515625 
Q 21 -9.765625 23.484375 -3.21875 
L 25.09375 0.875 
L 2.984375 54.6875 
L 12.5 54.6875 
L 29.59375 11.921875 
L 46.6875 54.6875 
L 56.203125 54.6875 
z
" id="DejaVuSans-121"/>
     <path d="M 18.3125 70.21875 
L 18.3125 54.6875 
L 36.8125 54.6875 
L 36.8125 47.703125 
L 18.3125 47.703125 
L 18.3125 18.015625 
Q 18.3125 11.328125 20.140625 9.421875 
Q 21.96875 7.515625 27.59375 7.515625 
L 36.8125 7.515625 
L 36.8125 0 
L 27.59375 0 
Q 17.1875 0 13.234375 3.875 
Q 9.28125 7.765625 9.28125 18.015625 
L 9.28125 47.703125 
L 2.6875 47.703125 
L 2.6875 54.6875 
L 9.28125 54.6875 
L 9.28125 70.21875 
z
" id="DejaVuSans-116"/>
     <path d="M 30.609375 48.390625 
Q 23.390625 48.390625 19.1875 42.75 
Q 14.984375 37.109375 14.984375 27.296875 
Q 14.984375 17.484375 19.15625 11.84375 
Q 23.34375 6.203125 30.609375 6.203125 
Q 37.796875 6.203125 41.984375 11.859375 
Q 46.1875 17.53125 46.1875 27.296875 
Q 46.1875 37.015625 41.984375 42.703125 
Q 37.796875 48.390625 30.609375 48.390625 
z
M 30.609375 56 
Q 42.328125 56 49.015625 48.375 
Q 55.71875 40.765625 55.71875 27.296875 
Q 55.71875 13.875 49.015625 6.21875 
Q 42.328125 -1.421875 30.609375 -1.421875 
Q 18.84375 -1.421875 12.171875 6.21875 
Q 5.515625 13.875 5.515625 27.296875 
Q 5.515625 40.765625 12.171875 48.375 
Q 18.84375 56 30.609375 56 
z
" id="DejaVuSans-111"/>
     <path d="M 48.78125 52.59375 
L 48.78125 44.1875 
Q 44.96875 46.296875 41.140625 47.34375 
Q 37.3125 48.390625 33.40625 48.390625 
Q 24.65625 48.390625 19.8125 42.84375 
Q 14.984375 37.3125 14.984375 27.296875 
Q 14.984375 17.28125 19.8125 11.734375 
Q 24.65625 6.203125 33.40625 6.203125 
Q 37.3125 6.203125 41.140625 7.25 
Q 44.96875 8.296875 48.78125 10.40625 
L 48.78125 2.09375 
Q 45.015625 0.34375 40.984375 -0.53125 
Q 36.96875 -1.421875 32.421875 -1.421875 
Q 20.0625 -1.421875 12.78125 6.34375 
Q 5.515625 14.109375 5.515625 27.296875 
Q 5.515625 40.671875 12.859375 48.328125 
Q 20.21875 56 33.015625 56 
Q 37.15625 56 41.109375 55.140625 
Q 45.0625 54.296875 48.78125 52.59375 
z
" id="DejaVuSans-99"/>
     <path d="M 19.671875 64.796875 
L 19.671875 37.40625 
L 32.078125 37.40625 
Q 38.96875 37.40625 42.71875 40.96875 
Q 46.484375 44.53125 46.484375 51.125 
Q 46.484375 57.671875 42.71875 61.234375 
Q 38.96875 64.796875 32.078125 64.796875 
z
M 9.8125 72.90625 
L 32.078125 72.90625 
Q 44.34375 72.90625 50.609375 67.359375 
Q 56.890625 61.8125 56.890625 51.125 
Q 56.890625 40.328125 50.609375 34.8125 
Q 44.34375 29.296875 32.078125 29.296875 
L 19.671875 29.296875 
L 19.671875 0 
L 9.8125 0 
z
" id="DejaVuSans-80"/>
     <path d="M 9.078125 75.984375 
L 18.109375 75.984375 
L 18.109375 31.109375 
L 44.921875 54.6875 
L 56.390625 54.6875 
L 27.390625 29.109375 
L 57.625 0 
L 45.90625 0 
L 18.109375 26.703125 
L 18.109375 0 
L 9.078125 0 
z
" id="DejaVuSans-107"/>
    </defs>
    <g transform="translate(314.120937 16.318125)scale(0.12 -0.12)">
     <use xlink:href="#DejaVuSans-70"/>
     <use x="57.410156" xlink:href="#DejaVuSans-105"/>
     <use x="85.193359" xlink:href="#DejaVuSans-110"/>
     <use x="148.572266" xlink:href="#DejaVuSans-97"/>
     <use x="209.851562" xlink:href="#DejaVuSans-108"/>
     <use x="237.634766" xlink:href="#DejaVuSans-32"/>
     <use x="269.421875" xlink:href="#DejaVuSans-83"/>
     <use x="332.898438" xlink:href="#DejaVuSans-121"/>
     <use x="392.078125" xlink:href="#DejaVuSans-115"/>
     <use x="444.177734" xlink:href="#DejaVuSans-116"/>
     <use x="483.386719" xlink:href="#DejaVuSans-111"/>
     <use x="544.568359" xlink:href="#DejaVuSans-108"/>
     <use x="572.351562" xlink:href="#DejaVuSans-105"/>
     <use x="600.134766" xlink:href="#DejaVuSans-99"/>
     <use x="655.115234" xlink:href="#DejaVuSans-32"/>
     <use x="686.902344" xlink:href="#DejaVuSans-80"/>
     <use x="747.158203" xlink:href="#DejaVuSans-101"/>
     <use x="808.681641" xlink:href="#DejaVuSans-97"/>
     <use x="869.960938" xlink:href="#DejaVuSans-107"/>
     <use x="927.871094" xlink:href="#DejaVuSans-115"/>
    </g>
   </g>
  </g>
  <g id="axes_2">
   <g id="patch_7">
    <path d="M 40.603125 386.918125 
L 705.233125 386.918125 
L 705.233125 232.918125 
L 40.603125 232.918125 
z
" style="fill:#ffffff;"/>
   </g>
   <g id="matplotlib.axis_3">
    <g id="xtick_9">
     <g id="line2d_25">
      <g>
       <use style="stroke:#000000;stroke-width:0.8;" x="102.451603" xlink:href="#m18b2d6b1d8" y="386.918125"/>
      </g>
     </g>
     <g id="text_17">
      <!-- 4.60 -->
      <g transform="translate(91.318791 401.516562)scale(0.1 -0.1)">
       <use xlink:href="#DejaVuSans-52"/>
       <use x="63.623047" xlink:href="#DejaVuSans-46"/>
       <use x="95.410156" xlink:href="#DejaVuSans-54"/>
       <use x="159.033203" xlink:href="#DejaVuSans-48"/>
      </g>
     </g>
    </g>
    <g id="xtick_10">
     <g id="line2d_26">
      <g>
       <use style="stroke:#000000;stroke-width:0.8;" x="179.617515" xlink:href="#m18b2d6b1d8" y="386.918125"/>
      </g>
     </g>
     <g id="text_18">
      <!-- 4.65 -->
      <g transform="translate(168.484703 401.516562)scale(0.1 -0.1)">
       <use xlink:href="#DejaVuSans-52"/>
       <use x="63.623047" xlink:href="#DejaVuSans-46"/>
       <use x="95.410156" xlink:href="#DejaVuSans-54"/>
       <use x="159.033203" xlink:href="#DejaVuSans-53"/>
      </g>
     </g>
    </g>
    <g id="xtick_11">
     <g id="line2d_27">
      <g>
       <use style="stroke:#000000;stroke-width:0.8;" x="256.783427" xlink:href="#m18b2d6b1d8" y="386.918125"/>
      </g>
     </g>
     <g id="text_19">
      <!-- 4.70 -->
      <g transform="translate(245.650615 401.516562)scale(0.1 -0.1)">
       <use xlink:href="#DejaVuSans-52"/>
       <use x="63.623047" xlink:href="#DejaVuSans-46"/>
       <use x="95.410156" xlink:href="#DejaVuSans-55"/>
       <use x="159.033203" xlink:href="#DejaVuSans-48"/>
      </g>
     </g>
    </g>
    <g id="xtick_12">
     <g id="line2d_28">
      <g>
       <use style="stroke:#000000;stroke-width:0.8;" x="333.949339" xlink:href="#m18b2d6b1d8" y="386.918125"/>
      </g>
     </g>
     <g id="text_20">
      <!-- 4.75 -->
      <g transform="translate(322.816527 401.516562)scale(0.1 -0.1)">
       <use xlink:href="#DejaVuSans-52"/>
       <use x="63.623047" xlink:href="#DejaVuSans-46"/>
       <use x="95.410156" xlink:href="#DejaVuSans-55"/>
       <use x="159.033203" xlink:href="#DejaVuSans-53"/>
      </g>
     </g>
    </g>
    <g id="xtick_13">
     <g id="line2d_29">
      <g>
       <use style="stroke:#000000;stroke-width:0.8;" x="411.115251" xlink:href="#m18b2d6b1d8" y="386.918125"/>
      </g>
     </g>
     <g id="text_21">
      <!-- 4.80 -->
      <g transform="translate(399.982439 401.516562)scale(0.1 -0.1)">
       <use xlink:href="#DejaVuSans-52"/>
       <use x="63.623047" xlink:href="#DejaVuSans-46"/>
       <use x="95.410156" xlink:href="#DejaVuSans-56"/>
       <use x="159.033203" xlink:href="#DejaVuSans-48"/>
      </g>
     </g>
    </g>
    <g id="xtick_14">
     <g id="line2d_30">
      <g>
       <use style="stroke:#000000;stroke-width:0.8;" x="488.281163" xlink:href="#m18b2d6b1d8" y="386.918125"/>
      </g>
     </g>
     <g id="text_22">
      <!-- 4.85 -->
      <g transform="translate(477.148351 401.516562)scale(0.1 -0.1)">
       <use xlink:href="#DejaVuSans-52"/>
       <use x="63.623047" xlink:href="#DejaVuSans-46"/>
       <use x="95.410156" xlink:href="#DejaVuSans-56"/>
       <use x="159.033203" xlink:href="#DejaVuSans-53"/>
      </g>
     </g>
    </g>
    <g id="xtick_15">
     <g id="line2d_31">
      <g>
       <use style="stroke:#000000;stroke-width:0.8;" x="565.447075" xlink:href="#m18b2d6b1d8" y="386.918125"/>
      </g>
     </g>
     <g id="text_23">
      <!-- 4.90 -->
      <g transform="translate(554.314263 401.516562)scale(0.1 -0.1)">
       <use xlink:href="#DejaVuSans-52"/>
       <use x="63.623047" xlink:href="#DejaVuSans-46"/>
       <use x="95.410156" xlink:href="#DejaVuSans-57"/>
       <use x="159.033203" xlink:href="#DejaVuSans-48"/>
      </g>
     </g>
    </g>
    <g id="xtick_16">
     <g id="line2d_32">
      <g>
       <use style="stroke:#000000;stroke-width:0.8;" x="642.612987" xlink:href="#m18b2d6b1d8" y="386.918125"/>
      </g>
     </g>
     <g id="text_24">
      <!-- 4.95 -->
      <g transform="translate(631.480175 401.516562)scale(0.1 -0.1)">
       <use xlink:href="#DejaVuSans-52"/>
       <use x="63.623047" xlink:href="#DejaVuSans-46"/>
       <use x="95.410156" xlink:href="#DejaVuSans-57"/>
       <use x="159.033203" xlink:href="#DejaVuSans-53"/>
      </g>
     </g>
    </g>
    <g id="text_25">
     <!-- Time (ms) -->
     <g transform="translate(347.565 415.194687)scale(0.1 -0.1)">
      <use xlink:href="#DejaVuSans-84"/>
      <use x="61.037109" xlink:href="#DejaVuSans-105"/>
      <use x="88.820312" xlink:href="#DejaVuSans-109"/>
      <use x="186.232422" xlink:href="#DejaVuSans-101"/>
      <use x="247.755859" xlink:href="#DejaVuSans-32"/>
      <use x="279.542969" xlink:href="#DejaVuSans-40"/>
      <use x="318.556641" xlink:href="#DejaVuSans-109"/>
      <use x="415.96875" xlink:href="#DejaVuSans-115"/>
      <use x="468.068359" xlink:href="#DejaVuSans-41"/>
     </g>
    </g>
    <g id="text_26">
     <!-- 1e4 -->
     <g transform="translate(686.355 414.194687)scale(0.1 -0.1)">
      <use xlink:href="#DejaVuSans-49"/>
      <use x="63.623047" xlink:href="#DejaVuSans-101"/>
      <use x="125.146484" xlink:href="#DejaVuSans-52"/>
     </g>
    </g>
   </g>
   <g id="matplotlib.axis_4">
    <g id="ytick_5">
     <g id="line2d_33">
      <g>
       <use style="stroke:#000000;stroke-width:0.8;" x="40.603125" xlink:href="#m24e565a5c6" y="374.414029"/>
      </g>
     </g>
     <g id="text_27">
      <!-- 0 -->
      <g transform="translate(27.240625 378.213247)scale(0.1 -0.1)">
       <use xlink:href="#DejaVuSans-48"/>
      </g>
     </g>
    </g>
    <g id="ytick_6">
     <g id="line2d_34">
      <g>
       <use style="stroke:#000000;stroke-width:0.8;" x="40.603125" xlink:href="#m24e565a5c6" y="336.1566"/>
      </g>
     </g>
     <g id="text_28">
      <!-- 10 -->
      <g transform="translate(20.878125 339.955819)scale(0.1 -0.1)">
       <use xlink:href="#DejaVuSans-49"/>
       <use x="63.623047" xlink:href="#DejaVuSans-48"/>
      </g>
     </g>
    </g>
    <g id="ytick_7">
     <g id="line2d_35">
      <g>
       <use style="stroke:#000000;stroke-width:0.8;" x="40.603125" xlink:href="#m24e565a5c6" y="297.899171"/>
      </g>
     </g>
     <g id="text_29">
      <!-- 20 -->
      <g transform="translate(20.878125 301.69839)scale(0.1 -0.1)">
       <use xlink:href="#DejaVuSans-50"/>
       <use x="63.623047" xlink:href="#DejaVuSans-48"/>
      </g>
     </g>
    </g>
    <g id="ytick_8">
     <g id="line2d_36">
      <g>
       <use style="stroke:#000000;stroke-width:0.8;" x="40.603125" xlink:href="#m24e565a5c6" y="259.641742"/>
      </g>
     </g>
     <g id="text_30">
      <!-- 30 -->
      <g transform="translate(20.878125 263.440961)scale(0.1 -0.1)">
       <use xlink:href="#DejaVuSans-51"/>
       <use x="63.623047" xlink:href="#DejaVuSans-48"/>
      </g>
     </g>
    </g>
    <g id="text_31">
     <!-- ADC Value -->
     <g transform="translate(14.798438 336.382187)rotate(-90)scale(0.1 -0.1)">
      <use xlink:href="#DejaVuSans-65"/>
      <use x="68.408203" xlink:href="#DejaVuSans-68"/>
      <use x="145.410156" xlink:href="#DejaVuSans-67"/>
      <use x="215.234375" xlink:href="#DejaVuSans-32"/>
      <use x="247.021484" xlink:href="#DejaVuSans-86"/>
      <use x="315.320312" xlink:href="#DejaVuSans-97"/>
      <use x="376.599609" xlink:href="#DejaVuSans-108"/>
      <use x="404.382812" xlink:href="#DejaVuSans-117"/>
      <use x="467.761719" xlink:href="#DejaVuSans-101"/>
     </g>
    </g>
   </g>
   <g id="line2d_37">
    <path clip-path="url(#pa76675dd0a)" d="M 70.81358 320.29507 
L 73.235259 311.527998 
L 74.446099 307.609289 
L 75.656939 304.199405 
L 76.867779 301.396283 
L 78.078619 299.242007 
L 79.289459 297.720509 
L 80.500298 296.754509 
L 81.711138 296.215079 
L 85.343658 295.329037 
L 86.554498 294.620892 
L 87.765338 293.42726 
L 88.976177 291.650968 
L 90.187017 289.266 
L 91.397857 286.324769 
L 93.819537 279.39367 
L 95.030377 275.893498 
L 96.241217 272.786995 
L 97.452056 270.42039 
L 98.662896 269.134558 
L 99.873736 269.23441 
L 101.084576 270.961733 
L 102.295416 274.468791 
L 103.506256 279.800729 
L 104.717096 286.882179 
L 105.927936 295.514586 
L 108.349615 316.074128 
L 110.771295 337.904964 
L 111.982135 347.960547 
L 113.192975 356.740244 
L 114.403815 363.787645 
L 115.614654 368.7416 
L 116.825494 371.363381 
L 118.036334 371.552756 
L 119.247174 369.355249 
L 120.458014 364.95947 
L 121.668854 358.682191 
L 122.879694 350.944626 
L 128.933893 308.127295 
L 130.144733 301.965936 
L 131.355573 297.298147 
L 132.566412 294.178636 
L 133.777252 292.532419 
L 134.988092 292.165148 
L 136.198932 292.786448 
L 137.409772 294.036701 
L 139.831452 296.860099 
L 141.042292 297.697555 
L 142.253131 297.761827 
L 143.463971 296.877698 
L 144.674811 294.988163 
L 145.885651 292.160557 
L 147.096491 288.585018 
L 150.72901 276.741665 
L 151.93985 273.838309 
L 153.15069 272.186736 
L 154.36153 272.156895 
L 155.57237 274.02271 
L 156.78321 277.936445 
L 157.99405 283.909195 
L 159.204889 291.802467 
L 160.415729 301.333923 
L 162.837409 323.556898 
L 165.259089 346.24891 
L 166.469929 356.260879 
L 167.680768 364.641934 
L 168.891608 370.945993 
L 170.102448 374.855902 
L 171.313288 376.206007 
L 172.524128 374.993629 
L 173.734968 371.377919 
L 174.945808 365.667998 
L 176.156647 358.298469 
L 178.578327 340.744431 
L 181.000007 323.313199 
L 182.210847 315.975806 
L 183.421687 310.094492 
L 184.632527 305.914868 
L 185.843366 303.535256 
L 187.054206 302.908216 
L 188.265046 303.847054 
L 189.475886 306.048769 
L 190.686726 309.121988 
L 193.108406 316.103969 
L 194.319245 319.133192 
L 195.530085 321.35327 
L 196.740925 322.500611 
L 197.951765 322.429835 
L 199.162605 321.127552 
L 200.373445 318.711212 
L 201.584285 315.419926 
L 205.216804 304.018829 
L 206.427644 301.164825 
L 207.638484 299.48762 
L 208.849324 299.316991 
L 210.060164 300.877129 
L 211.271003 304.265207 
L 212.481843 309.44182 
L 213.692683 316.228305 
L 214.903523 324.319369 
L 219.746883 360.531556 
L 220.957722 367.948523 
L 222.168562 373.760974 
L 223.379402 377.635687 
L 224.590242 379.361479 
L 225.801082 378.861072 
L 227.011922 376.195677 
L 228.222762 371.556581 
L 229.433601 365.246018 
L 230.644441 357.653449 
L 236.698641 316.040461 
L 237.90948 309.659887 
L 239.12032 304.447695 
L 240.33116 300.41804 
L 241.542 297.479487 
L 242.75284 295.452991 
L 243.96368 294.092557 
L 247.596199 291.173133 
L 248.807039 289.728915 
L 250.017879 287.761718 
L 251.228719 285.22678 
L 252.439559 282.180724 
L 256.072078 271.956426 
L 257.282918 269.206482 
L 258.493758 267.387341 
L 259.704598 266.848294 
L 260.915438 267.884688 
L 262.126278 270.710382 
L 263.337118 275.430583 
L 264.547957 282.028459 
L 265.758797 290.357484 
L 266.969637 300.1445 
L 269.391317 322.461206 
L 271.812997 345.002483 
L 273.023836 354.981933 
L 274.234676 363.4242 
L 275.445516 369.919929 
L 276.656356 374.173389 
L 277.867196 376.020841 
L 279.078036 375.442388 
L 280.288876 372.558161 
L 281.499715 367.619509 
L 282.710555 360.986436 
L 283.921395 353.098137 
L 288.764755 318.595292 
L 289.975594 311.33518 
L 291.186434 305.179177 
L 292.397274 300.211833 
L 293.608114 296.40101 
L 294.818954 293.609366 
L 296.029794 291.614241 
L 297.240634 290.135591 
L 299.662313 287.520696 
L 300.873153 285.838899 
L 302.083993 283.645984 
L 303.294833 280.8574 
L 304.505673 277.499162 
L 309.349032 262.523675 
L 310.559872 260.110396 
L 311.770712 259.022737 
L 312.981552 259.609224 
L 314.192392 262.134979 
L 315.403232 266.74806 
L 316.614071 273.461856 
L 317.824911 282.142084 
L 319.035751 292.508699 
L 321.457431 316.537425 
L 323.879111 341.131979 
L 325.08995 352.075516 
L 326.30079 361.331901 
L 327.51163 368.420237 
L 328.72247 372.984731 
L 329.93331 374.823383 
L 331.14415 373.898319 
L 332.35499 370.338465 
L 333.565829 364.426544 
L 334.776669 356.57612 
L 337.198349 337.164683 
L 339.620029 316.623505 
L 340.830869 307.251582 
L 342.041709 299.017053 
L 343.252548 292.170504 
L 344.463388 286.819437 
L 345.674228 282.93057 
L 346.885068 280.340542 
L 348.095908 278.777343 
L 349.306748 277.893214 
L 351.728427 276.620389 
L 352.939267 275.505185 
L 354.150107 273.692931 
L 355.360947 271.027536 
L 356.571787 267.477246 
L 357.782627 263.144975 
L 361.415146 248.316013 
L 362.625986 244.163934 
L 363.836826 241.211609 
L 365.047666 239.918125 
L 366.258506 240.667205 
L 367.469346 243.73086 
L 368.680185 249.240313 
L 369.891025 257.167634 
L 371.101865 267.319626 
L 372.312705 279.342405 
L 374.734385 306.916065 
L 377.156065 334.849726 
L 378.366904 347.223709 
L 379.577744 357.692472 
L 380.788584 365.747956 
L 381.999424 371.026333 
L 383.210264 373.328283 
L 384.421104 372.634293 
L 385.631944 369.100837 
L 386.842783 363.046599 
L 388.053623 354.92952 
L 390.475303 334.805348 
L 392.896983 313.670796 
L 394.107823 304.186397 
L 395.318662 296.035269 
L 396.529502 289.518881 
L 397.740342 284.790263 
L 398.951182 281.85171 
L 400.162022 280.562817 
L 401.372862 280.658843 
L 402.583702 281.780169 
L 406.216221 287.010724 
L 407.427061 287.998531 
L 408.637901 288.073133 
L 409.848741 287.067728 
L 411.059581 284.944441 
L 412.270421 281.799297 
L 413.48126 277.855339 
L 417.11378 264.957995 
L 418.32462 261.83045 
L 419.53546 260.064487 
L 420.7463 260.050332 
L 421.957139 262.080271 
L 423.167979 266.319577 
L 424.378819 272.788525 
L 425.589659 281.355129 
L 426.800499 291.737812 
L 429.222179 316.177423 
L 431.643858 341.659549 
L 432.854698 353.205258 
L 434.065538 363.148746 
L 435.276378 370.983485 
L 436.487218 376.321162 
L 437.698058 378.917693 
L 438.908897 378.687766 
L 440.119737 375.709425 
L 441.330577 370.217571 
L 442.541417 362.583684 
L 443.752257 353.290955 
L 449.806456 301.902046 
L 451.017296 294.251325 
L 452.228136 288.268246 
L 453.438976 284.033914 
L 454.649816 281.489795 
L 455.860656 280.44881 
L 457.071495 280.615995 
L 458.282335 281.616809 
L 460.704015 284.441355 
L 461.914855 285.446761 
L 463.125695 285.721832 
L 464.336535 285.033963 
L 465.547374 283.266852 
L 466.758214 280.432359 
L 467.969054 276.671272 
L 470.390734 267.517799 
L 471.601574 262.921934 
L 472.812414 258.931302 
L 474.023253 256.018381 
L 475.234093 254.617012 
L 476.444933 255.083752 
L 477.655773 257.666511 
L 478.866613 262.480826 
L 480.077453 269.493413 
L 481.288293 278.519488 
L 482.499132 289.229655 
L 484.920812 313.780978 
L 487.342492 338.543481 
L 488.553332 349.438814 
L 489.764172 358.58387 
L 490.975012 365.524533 
L 492.185851 369.936762 
L 493.396691 371.648399 
L 494.607531 370.647202 
L 495.818371 367.08008 
L 497.029211 361.241613 
L 498.240051 353.547279 
L 500.66173 334.67642 
L 503.08341 314.922579 
L 504.29425 306.021606 
L 505.50509 298.312734 
L 506.71593 292.056114 
L 507.92677 287.377996 
L 509.137609 284.267667 
L 510.348449 282.585105 
L 511.559289 282.079724 
L 512.770129 282.417155 
L 515.191809 284.065668 
L 516.402649 284.599741 
L 517.613488 284.495681 
L 518.824328 283.520882 
L 520.035168 281.554067 
L 521.246008 278.596003 
L 522.456848 274.774851 
L 527.300207 257.111396 
L 528.511047 254.235585 
L 529.721887 252.865204 
L 530.932727 253.359107 
L 532.143567 255.97056 
L 533.354407 260.823514 
L 534.565247 267.897313 
L 535.776086 277.019414 
L 536.986926 287.873047 
L 539.408606 312.891875 
L 541.830286 338.38586 
L 543.041126 349.734161 
L 544.251965 359.372738 
L 545.462805 366.827198 
L 546.673645 371.750929 
L 547.884485 373.94461 
L 549.095325 373.371514 
L 550.306165 370.155594 
L 551.517005 364.572305 
L 552.727844 357.025645 
L 553.938684 348.020994 
L 558.782044 308.851508 
L 559.992884 300.910413 
L 561.203723 294.480487 
L 562.414563 289.73274 
L 563.625403 286.700074 
L 564.836243 285.279576 
L 566.047083 285.247822 
L 567.257923 286.286129 
L 568.468763 288.009626 
L 570.890442 291.857941 
L 572.101282 293.20728 
L 573.312122 293.75857 
L 574.522962 293.319374 
L 575.733802 291.812414 
L 576.944642 289.285129 
L 578.155482 285.906998 
L 581.788001 273.855525 
L 582.998841 270.580306 
L 584.209681 268.408432 
L 585.420521 267.730128 
L 586.631361 268.854514 
L 587.8422 271.981293 
L 589.05304 277.182391 
L 590.26388 284.390473 
L 591.47472 293.39895 
L 592.68556 303.871921 
L 598.739759 360.454658 
L 599.950599 368.726679 
L 601.161439 374.884213 
L 602.372279 378.657543 
L 603.583119 379.918125 
L 604.793958 378.683558 
L 606.004798 375.116435 
L 607.215638 369.507131 
L 608.426478 362.255435 
L 610.848158 344.769495 
L 613.269838 326.751394 
L 614.480677 318.720394 
L 615.691517 311.817989 
L 616.902357 306.266836 
L 618.113197 302.164874 
L 619.324037 299.486089 
L 620.534877 298.08778 
L 621.745717 297.728543 
L 622.956556 298.093519 
L 625.378236 299.552657 
L 626.589076 299.934084 
L 627.799916 299.679672 
L 629.010756 298.580919 
L 630.221596 296.531468 
L 631.432435 293.536677 
L 632.643275 289.715525 
L 635.064955 280.581181 
L 636.275795 275.959683 
L 637.486635 271.839358 
L 638.697475 268.633386 
L 639.908314 266.721662 
L 641.119154 266.419428 
L 642.329994 267.950108 
L 643.540834 271.42503 
L 644.751674 276.831188 
L 645.962514 284.029323 
L 647.173354 292.761964 
L 649.595033 313.30582 
L 652.016713 334.798844 
L 653.227553 344.652045 
L 654.438393 353.299754 
L 655.649233 360.369344 
L 656.860073 365.582684 
L 658.070912 368.769528 
L 659.281752 369.871342 
L 660.492592 368.937478 
L 661.703432 366.11561 
L 662.914272 361.633369 
L 664.125112 355.77654 
L 665.335952 348.866866 
L 667.757631 333.205039 
L 671.390151 309.388642 
L 673.811831 295.542514 
L 675.02267 289.491336 
L 675.02267 289.491336 
" style="fill:none;stroke:#1f77b4;stroke-linecap:square;stroke-width:1.5;"/>
   </g>
   <g id="line2d_38">
    <g clip-path="url(#pa76675dd0a)">
     <use style="fill:#ff0000;stroke:#ff0000;" x="138.620612" xlink:href="#me55addcada" y="295.52415"/>
     <use style="fill:#ff0000;stroke:#ff0000;" x="162.837409" xlink:href="#me55addcada" y="323.556898"/>
     <use style="fill:#ff0000;stroke:#ff0000;" x="191.897566" xlink:href="#me55addcada" y="312.625221"/>
     <use style="fill:#ff0000;stroke:#ff0000;" x="217.325203" xlink:href="#me55addcada" y="342.688673"/>
     <use style="fill:#ff0000;stroke:#ff0000;" x="245.17452" xlink:href="#me55addcada" y="293.11508"/>
     <use style="fill:#ff0000;stroke:#ff0000;" x="298.451474" xlink:href="#me55addcada" y="288.86927"/>
     <use style="fill:#ff0000;stroke:#ff0000;" x="350.517588" xlink:href="#me55addcada" y="277.302137"/>
     <use style="fill:#ff0000;stroke:#ff0000;" x="403.794541" xlink:href="#me55addcada" y="283.504814"/>
     <use style="fill:#ff0000;stroke:#ff0000;" x="429.222179" xlink:href="#me55addcada" y="316.177423"/>
     <use style="fill:#ff0000;stroke:#ff0000;" x="459.493175" xlink:href="#me55addcada" y="283.033482"/>
     <use style="fill:#ff0000;stroke:#ff0000;" x="484.920812" xlink:href="#me55addcada" y="313.780978"/>
     <use style="fill:#ff0000;stroke:#ff0000;" x="513.980969" xlink:href="#me55addcada" y="283.212527"/>
     <use style="fill:#ff0000;stroke:#ff0000;" x="569.679603" xlink:href="#me55addcada" y="290.00322"/>
     <use style="fill:#ff0000;stroke:#ff0000;" x="595.10724" xlink:href="#me55addcada" y="327.343619"/>
     <use style="fill:#ff0000;stroke:#ff0000;" x="624.167396" xlink:href="#me55addcada" y="298.824236"/>
    </g>
   </g>
   <g id="line2d_39">
    <path clip-path="url(#pa76675dd0a)" d="M 138.620612 386.918125 
L 138.620612 232.918125 
" style="fill:none;stroke:#808080;stroke-dasharray:5.55,2.4;stroke-dashoffset:0;stroke-width:1.5;"/>
   </g>
   <g id="line2d_40">
    <path clip-path="url(#pa76675dd0a)" d="M 162.837409 386.918125 
L 162.837409 232.918125 
" style="fill:none;stroke:#808080;stroke-dasharray:5.55,2.4;stroke-dashoffset:0;stroke-width:1.5;"/>
   </g>
   <g id="line2d_41">
    <path clip-path="url(#pa76675dd0a)" d="M 191.897566 386.918125 
L 191.897566 232.918125 
" style="fill:none;stroke:#808080;stroke-dasharray:5.55,2.4;stroke-dashoffset:0;stroke-width:1.5;"/>
   </g>
   <g id="line2d_42">
    <path clip-path="url(#pa76675dd0a)" d="M 217.325203 386.918125 
L 217.325203 232.918125 
" style="fill:none;stroke:#808080;stroke-dasharray:5.55,2.4;stroke-dashoffset:0;stroke-width:1.5;"/>
   </g>
   <g id="line2d_43">
    <path clip-path="url(#pa76675dd0a)" d="M 245.17452 386.918125 
L 245.17452 232.918125 
" style="fill:none;stroke:#808080;stroke-dasharray:5.55,2.4;stroke-dashoffset:0;stroke-width:1.5;"/>
   </g>
   <g id="line2d_44">
    <path clip-path="url(#pa76675dd0a)" d="M 298.451474 386.918125 
L 298.451474 232.918125 
" style="fill:none;stroke:#808080;stroke-dasharray:5.55,2.4;stroke-dashoffset:0;stroke-width:1.5;"/>
   </g>
   <g id="line2d_45">
    <path clip-path="url(#pa76675dd0a)" d="M 350.517588 386.918125 
L 350.517588 232.918125 
" style="fill:none;stroke:#808080;stroke-dasharray:5.55,2.4;stroke-dashoffset:0;stroke-width:1.5;"/>
   </g>
   <g id="line2d_46">
    <path clip-path="url(#pa76675dd0a)" d="M 403.794541 386.918125 
L 403.794541 232.918125 
" style="fill:none;stroke:#808080;stroke-dasharray:5.55,2.4;stroke-dashoffset:0;stroke-width:1.5;"/>
   </g>
   <g id="line2d_47">
    <path clip-path="url(#pa76675dd0a)" d="M 429.222179 386.918125 
L 429.222179 232.918125 
" style="fill:none;stroke:#808080;stroke-dasharray:5.55,2.4;stroke-dashoffset:0;stroke-width:1.5;"/>
   </g>
   <g id="line2d_48">
    <path clip-path="url(#pa76675dd0a)" d="M 459.493175 386.918125 
L 459.493175 232.918125 
" style="fill:none;stroke:#808080;stroke-dasharray:5.55,2.4;stroke-dashoffset:0;stroke-width:1.5;"/>
   </g>
   <g id="line2d_49">
    <path clip-path="url(#pa76675dd0a)" d="M 484.920812 386.918125 
L 484.920812 232.918125 
" style="fill:none;stroke:#808080;stroke-dasharray:5.55,2.4;stroke-dashoffset:0;stroke-width:1.5;"/>
   </g>
   <g id="line2d_50">
    <path clip-path="url(#pa76675dd0a)" d="M 513.980969 386.918125 
L 513.980969 232.918125 
" style="fill:none;stroke:#808080;stroke-dasharray:5.55,2.4;stroke-dashoffset:0;stroke-width:1.5;"/>
   </g>
   <g id="line2d_51">
    <path clip-path="url(#pa76675dd0a)" d="M 569.679603 386.918125 
L 569.679603 232.918125 
" style="fill:none;stroke:#808080;stroke-dasharray:5.55,2.4;stroke-dashoffset:0;stroke-width:1.5;"/>
   </g>
   <g id="line2d_52">
    <path clip-path="url(#pa76675dd0a)" d="M 595.10724 386.918125 
L 595.10724 232.918125 
" style="fill:none;stroke:#808080;stroke-dasharray:5.55,2.4;stroke-dashoffset:0;stroke-width:1.5;"/>
   </g>
   <g id="line2d_53">
    <path clip-path="url(#pa76675dd0a)" d="M 624.167396 386.918125 
L 624.167396 232.918125 
" style="fill:none;stroke:#808080;stroke-dasharray:5.55,2.4;stroke-dashoffset:0;stroke-width:1.5;"/>
   </g>
   <g id="patch_8">
    <path d="M 40.603125 386.918125 
L 40.603125 232.918125 
" style="fill:none;stroke:#000000;stroke-linecap:square;stroke-linejoin:miter;stroke-width:0.8;"/>
   </g>
   <g id="patch_9">
    <path d="M 705.233125 386.918125 
L 705.233125 232.918125 
" style="fill:none;stroke:#000000;stroke-linecap:square;stroke-linejoin:miter;stroke-width:0.8;"/>
   </g>
   <g id="patch_10">
    <path d="M 40.603125 386.918125 
L 705.233125 386.918125 
" style="fill:none;stroke:#000000;stroke-linecap:square;stroke-linejoin:miter;stroke-width:0.8;"/>
   </g>
   <g id="patch_11">
    <path d="M 40.603125 232.918125 
L 705.233125 232.918125 
" style="fill:none;stroke:#000000;stroke-linecap:square;stroke-linejoin:miter;stroke-width:0.8;"/>
   </g>
   <g id="text_32">
    <!-- Final Diastolic Peaks -->
    <g transform="translate(311.5175 226.918125)scale(0.12 -0.12)">
     <use xlink:href="#DejaVuSans-70"/>
     <use x="57.410156" xlink:href="#DejaVuSans-105"/>
     <use x="85.193359" xlink:href="#DejaVuSans-110"/>
     <use x="148.572266" xlink:href="#DejaVuSans-97"/>
     <use x="209.851562" xlink:href="#DejaVuSans-108"/>
     <use x="237.634766" xlink:href="#DejaVuSans-32"/>
     <use x="269.421875" xlink:href="#DejaVuSans-68"/>
     <use x="346.423828" xlink:href="#DejaVuSans-105"/>
     <use x="374.207031" xlink:href="#DejaVuSans-97"/>
     <use x="435.486328" xlink:href="#DejaVuSans-115"/>
     <use x="487.585938" xlink:href="#DejaVuSans-116"/>
     <use x="526.794922" xlink:href="#DejaVuSans-111"/>
     <use x="587.976562" xlink:href="#DejaVuSans-108"/>
     <use x="615.759766" xlink:href="#DejaVuSans-105"/>
     <use x="643.542969" xlink:href="#DejaVuSans-99"/>
     <use x="698.523438" xlink:href="#DejaVuSans-32"/>
     <use x="730.310547" xlink:href="#DejaVuSans-80"/>
     <use x="790.566406" xlink:href="#DejaVuSans-101"/>
     <use x="852.089844" xlink:href="#DejaVuSans-97"/>
     <use x="913.369141" xlink:href="#DejaVuSans-107"/>
     <use x="971.279297" xlink:href="#DejaVuSans-115"/>
    </g>
   </g>
  </g>
 </g>
 <defs>
  <clipPath id="p9a626cf905">
   <rect height="154" width="664.63" x="40.603125" y="22.318125"/>
  </clipPath>
  <clipPath id="pa76675dd0a">
   <rect height="154" width="664.63" x="40.603125" y="232.918125"/>
  </clipPath>
 </defs>
</svg>
