<?xml version="1.0" encoding="utf-8" standalone="no"?>
<!DOCTYPE svg PUBLIC "-//W3C//DTD SVG 1.1//EN"
  "http://www.w3.org/Graphics/SVG/1.1/DTD/svg11.dtd">
<!-- Created with matplotlib (https://matplotlib.org/) -->
<svg height="424.474375pt" version="1.1" viewBox="0 0 712.433125 424.474375" width="712.433125pt" xmlns="http://www.w3.org/2000/svg" xmlns:xlink="http://www.w3.org/1999/xlink">
 <defs>
  <style type="text/css">
*{stroke-linecap:butt;stroke-linejoin:round;}
  </style>
 </defs>
 <g id="figure_1">
  <g id="patch_1">
   <path d="M 0 424.474375 
L 712.433125 424.474375 
L 712.433125 0 
L 0 0 
z
" style="fill:#ffffff;"/>
  </g>
  <g id="axes_1">
   <g id="patch_2">
    <path d="M 40.603125 170.054125 
L 350.633125 170.054125 
L 350.633125 22.318125 
L 40.603125 22.318125 
z
" style="fill:#ffffff;"/>
   </g>
   <g id="matplotlib.axis_1">
    <g id="xtick_1">
     <g id="line2d_1">
      <defs>
       <path d="M 0 0 
L 0 3.5 
" id="m31cb638330" style="stroke:#000000;stroke-width:0.8;"/>
      </defs>
      <g>
       <use style="stroke:#000000;stroke-width:0.8;" x="85.274708" xlink:href="#m31cb638330" y="170.054125"/>
      </g>
     </g>
     <g id="text_1">
      <!-- 6.580 -->
      <defs>
       <path d="M 33.015625 40.375 
Q 26.375 40.375 22.484375 35.828125 
Q 18.609375 31.296875 18.609375 23.390625 
Q 18.609375 15.53125 22.484375 10.953125 
Q 26.375 6.390625 33.015625 6.390625 
Q 39.65625 6.390625 43.53125 10.953125 
Q 47.40625 15.53125 47.40625 23.390625 
Q 47.40625 31.296875 43.53125 35.828125 
Q 39.65625 40.375 33.015625 40.375 
z
M 52.59375 71.296875 
L 52.59375 62.3125 
Q 48.875 64.0625 45.09375 64.984375 
Q 41.3125 65.921875 37.59375 65.921875 
Q 27.828125 65.921875 22.671875 59.328125 
Q 17.53125 52.734375 16.796875 39.40625 
Q 19.671875 43.65625 24.015625 45.921875 
Q 28.375 48.1875 33.59375 48.1875 
Q 44.578125 48.1875 50.953125 41.515625 
Q 57.328125 34.859375 57.328125 23.390625 
Q 57.328125 12.15625 50.6875 5.359375 
Q 44.046875 -1.421875 33.015625 -1.421875 
Q 20.359375 -1.421875 13.671875 8.265625 
Q 6.984375 17.96875 6.984375 36.375 
Q 6.984375 53.65625 15.1875 63.9375 
Q 23.390625 74.21875 37.203125 74.21875 
Q 40.921875 74.21875 44.703125 73.484375 
Q 48.484375 72.75 52.59375 71.296875 
z
" id="DejaVuSans-54"/>
       <path d="M 10.6875 12.40625 
L 21 12.40625 
L 21 0 
L 10.6875 0 
z
" id="DejaVuSans-46"/>
       <path d="M 10.796875 72.90625 
L 49.515625 72.90625 
L 49.515625 64.59375 
L 19.828125 64.59375 
L 19.828125 46.734375 
Q 21.96875 47.46875 24.109375 47.828125 
Q 26.265625 48.1875 28.421875 48.1875 
Q 40.625 48.1875 47.75 41.5 
Q 54.890625 34.8125 54.890625 23.390625 
Q 54.890625 11.625 47.5625 5.09375 
Q 40.234375 -1.421875 26.90625 -1.421875 
Q 22.3125 -1.421875 17.546875 -0.640625 
Q 12.796875 0.140625 7.71875 1.703125 
L 7.71875 11.625 
Q 12.109375 9.234375 16.796875 8.0625 
Q 21.484375 6.890625 26.703125 6.890625 
Q 35.15625 6.890625 40.078125 11.328125 
Q 45.015625 15.765625 45.015625 23.390625 
Q 45.015625 31 40.078125 35.4375 
Q 35.15625 39.890625 26.703125 39.890625 
Q 22.75 39.890625 18.8125 39.015625 
Q 14.890625 38.140625 10.796875 36.28125 
z
" id="DejaVuSans-53"/>
       <path d="M 31.78125 34.625 
Q 24.75 34.625 20.71875 30.859375 
Q 16.703125 27.09375 16.703125 20.515625 
Q 16.703125 13.921875 20.71875 10.15625 
Q 24.75 6.390625 31.78125 6.390625 
Q 38.8125 6.390625 42.859375 10.171875 
Q 46.921875 13.96875 46.921875 20.515625 
Q 46.921875 27.09375 42.890625 30.859375 
Q 38.875 34.625 31.78125 34.625 
z
M 21.921875 38.8125 
Q 15.578125 40.375 12.03125 44.71875 
Q 8.5 49.078125 8.5 55.328125 
Q 8.5 64.0625 14.71875 69.140625 
Q 20.953125 74.21875 31.78125 74.21875 
Q 42.671875 74.21875 48.875 69.140625 
Q 55.078125 64.0625 55.078125 55.328125 
Q 55.078125 49.078125 51.53125 44.71875 
Q 48 40.375 41.703125 38.8125 
Q 48.828125 37.15625 52.796875 32.3125 
Q 56.78125 27.484375 56.78125 20.515625 
Q 56.78125 9.90625 50.3125 4.234375 
Q 43.84375 -1.421875 31.78125 -1.421875 
Q 19.734375 -1.421875 13.25 4.234375 
Q 6.78125 9.90625 6.78125 20.515625 
Q 6.78125 27.484375 10.78125 32.3125 
Q 14.796875 37.15625 21.921875 38.8125 
z
M 18.3125 54.390625 
Q 18.3125 48.734375 21.84375 45.5625 
Q 25.390625 42.390625 31.78125 42.390625 
Q 38.140625 42.390625 41.71875 45.5625 
Q 45.3125 48.734375 45.3125 54.390625 
Q 45.3125 60.0625 41.71875 63.234375 
Q 38.140625 66.40625 31.78125 66.40625 
Q 25.390625 66.40625 21.84375 63.234375 
Q 18.3125 60.0625 18.3125 54.390625 
z
" id="DejaVuSans-56"/>
       <path d="M 31.78125 66.40625 
Q 24.171875 66.40625 20.328125 58.90625 
Q 16.5 51.421875 16.5 36.375 
Q 16.5 21.390625 20.328125 13.890625 
Q 24.171875 6.390625 31.78125 6.390625 
Q 39.453125 6.390625 43.28125 13.890625 
Q 47.125 21.390625 47.125 36.375 
Q 47.125 51.421875 43.28125 58.90625 
Q 39.453125 66.40625 31.78125 66.40625 
z
M 31.78125 74.21875 
Q 44.046875 74.21875 50.515625 64.515625 
Q 56.984375 54.828125 56.984375 36.375 
Q 56.984375 17.96875 50.515625 8.265625 
Q 44.046875 -1.421875 31.78125 -1.421875 
Q 19.53125 -1.421875 13.0625 8.265625 
Q 6.59375 17.96875 6.59375 36.375 
Q 6.59375 54.828125 13.0625 64.515625 
Q 19.53125 74.21875 31.78125 74.21875 
z
" id="DejaVuSans-48"/>
      </defs>
      <g transform="translate(70.960646 184.652562)scale(0.1 -0.1)">
       <use xlink:href="#DejaVuSans-54"/>
       <use x="63.623047" xlink:href="#DejaVuSans-46"/>
       <use x="95.410156" xlink:href="#DejaVuSans-53"/>
       <use x="159.033203" xlink:href="#DejaVuSans-56"/>
       <use x="222.65625" xlink:href="#DejaVuSans-48"/>
      </g>
     </g>
    </g>
    <g id="xtick_2">
     <g id="line2d_2">
      <g>
       <use style="stroke:#000000;stroke-width:0.8;" x="131.327887" xlink:href="#m31cb638330" y="170.054125"/>
      </g>
     </g>
     <g id="text_2">
      <!-- 6.585 -->
      <g transform="translate(117.013825 184.652562)scale(0.1 -0.1)">
       <use xlink:href="#DejaVuSans-54"/>
       <use x="63.623047" xlink:href="#DejaVuSans-46"/>
       <use x="95.410156" xlink:href="#DejaVuSans-53"/>
       <use x="159.033203" xlink:href="#DejaVuSans-56"/>
       <use x="222.65625" xlink:href="#DejaVuSans-53"/>
      </g>
     </g>
    </g>
    <g id="xtick_3">
     <g id="line2d_3">
      <g>
       <use style="stroke:#000000;stroke-width:0.8;" x="177.381066" xlink:href="#m31cb638330" y="170.054125"/>
      </g>
     </g>
     <g id="text_3">
      <!-- 6.590 -->
      <defs>
       <path d="M 10.984375 1.515625 
L 10.984375 10.5 
Q 14.703125 8.734375 18.5 7.8125 
Q 22.3125 6.890625 25.984375 6.890625 
Q 35.75 6.890625 40.890625 13.453125 
Q 46.046875 20.015625 46.78125 33.40625 
Q 43.953125 29.203125 39.59375 26.953125 
Q 35.25 24.703125 29.984375 24.703125 
Q 19.046875 24.703125 12.671875 31.3125 
Q 6.296875 37.9375 6.296875 49.421875 
Q 6.296875 60.640625 12.9375 67.421875 
Q 19.578125 74.21875 30.609375 74.21875 
Q 43.265625 74.21875 49.921875 64.515625 
Q 56.59375 54.828125 56.59375 36.375 
Q 56.59375 19.140625 48.40625 8.859375 
Q 40.234375 -1.421875 26.421875 -1.421875 
Q 22.703125 -1.421875 18.890625 -0.6875 
Q 15.09375 0.046875 10.984375 1.515625 
z
M 30.609375 32.421875 
Q 37.25 32.421875 41.125 36.953125 
Q 45.015625 41.5 45.015625 49.421875 
Q 45.015625 57.28125 41.125 61.84375 
Q 37.25 66.40625 30.609375 66.40625 
Q 23.96875 66.40625 20.09375 61.84375 
Q 16.21875 57.28125 16.21875 49.421875 
Q 16.21875 41.5 20.09375 36.953125 
Q 23.96875 32.421875 30.609375 32.421875 
z
" id="DejaVuSans-57"/>
      </defs>
      <g transform="translate(163.067004 184.652562)scale(0.1 -0.1)">
       <use xlink:href="#DejaVuSans-54"/>
       <use x="63.623047" xlink:href="#DejaVuSans-46"/>
       <use x="95.410156" xlink:href="#DejaVuSans-53"/>
       <use x="159.033203" xlink:href="#DejaVuSans-57"/>
       <use x="222.65625" xlink:href="#DejaVuSans-48"/>
      </g>
     </g>
    </g>
    <g id="xtick_4">
     <g id="line2d_4">
      <g>
       <use style="stroke:#000000;stroke-width:0.8;" x="223.434245" xlink:href="#m31cb638330" y="170.054125"/>
      </g>
     </g>
     <g id="text_4">
      <!-- 6.595 -->
      <g transform="translate(209.120183 184.652562)scale(0.1 -0.1)">
       <use xlink:href="#DejaVuSans-54"/>
       <use x="63.623047" xlink:href="#DejaVuSans-46"/>
       <use x="95.410156" xlink:href="#DejaVuSans-53"/>
       <use x="159.033203" xlink:href="#DejaVuSans-57"/>
       <use x="222.65625" xlink:href="#DejaVuSans-53"/>
      </g>
     </g>
    </g>
    <g id="xtick_5">
     <g id="line2d_5">
      <g>
       <use style="stroke:#000000;stroke-width:0.8;" x="269.487424" xlink:href="#m31cb638330" y="170.054125"/>
      </g>
     </g>
     <g id="text_5">
      <!-- 6.600 -->
      <g transform="translate(255.173361 184.652562)scale(0.1 -0.1)">
       <use xlink:href="#DejaVuSans-54"/>
       <use x="63.623047" xlink:href="#DejaVuSans-46"/>
       <use x="95.410156" xlink:href="#DejaVuSans-54"/>
       <use x="159.033203" xlink:href="#DejaVuSans-48"/>
       <use x="222.65625" xlink:href="#DejaVuSans-48"/>
      </g>
     </g>
    </g>
    <g id="xtick_6">
     <g id="line2d_6">
      <g>
       <use style="stroke:#000000;stroke-width:0.8;" x="315.540603" xlink:href="#m31cb638330" y="170.054125"/>
      </g>
     </g>
     <g id="text_6">
      <!-- 6.605 -->
      <g transform="translate(301.22654 184.652562)scale(0.1 -0.1)">
       <use xlink:href="#DejaVuSans-54"/>
       <use x="63.623047" xlink:href="#DejaVuSans-46"/>
       <use x="95.410156" xlink:href="#DejaVuSans-54"/>
       <use x="159.033203" xlink:href="#DejaVuSans-48"/>
       <use x="222.65625" xlink:href="#DejaVuSans-53"/>
      </g>
     </g>
    </g>
    <g id="text_7">
     <!-- Time (ms) -->
     <defs>
      <path d="M -0.296875 72.90625 
L 61.375 72.90625 
L 61.375 64.59375 
L 35.5 64.59375 
L 35.5 0 
L 25.59375 0 
L 25.59375 64.59375 
L -0.296875 64.59375 
z
" id="DejaVuSans-84"/>
      <path d="M 9.421875 54.6875 
L 18.40625 54.6875 
L 18.40625 0 
L 9.421875 0 
z
M 9.421875 75.984375 
L 18.40625 75.984375 
L 18.40625 64.59375 
L 9.421875 64.59375 
z
" id="DejaVuSans-105"/>
      <path d="M 52 44.1875 
Q 55.375 50.25 60.0625 53.125 
Q 64.75 56 71.09375 56 
Q 79.640625 56 84.28125 50.015625 
Q 88.921875 44.046875 88.921875 33.015625 
L 88.921875 0 
L 79.890625 0 
L 79.890625 32.71875 
Q 79.890625 40.578125 77.09375 44.375 
Q 74.3125 48.1875 68.609375 48.1875 
Q 61.625 48.1875 57.5625 43.546875 
Q 53.515625 38.921875 53.515625 30.90625 
L 53.515625 0 
L 44.484375 0 
L 44.484375 32.71875 
Q 44.484375 40.625 41.703125 44.40625 
Q 38.921875 48.1875 33.109375 48.1875 
Q 26.21875 48.1875 22.15625 43.53125 
Q 18.109375 38.875 18.109375 30.90625 
L 18.109375 0 
L 9.078125 0 
L 9.078125 54.6875 
L 18.109375 54.6875 
L 18.109375 46.1875 
Q 21.1875 51.21875 25.484375 53.609375 
Q 29.78125 56 35.6875 56 
Q 41.65625 56 45.828125 52.96875 
Q 50 49.953125 52 44.1875 
z
" id="DejaVuSans-109"/>
      <path d="M 56.203125 29.59375 
L 56.203125 25.203125 
L 14.890625 25.203125 
Q 15.484375 15.921875 20.484375 11.0625 
Q 25.484375 6.203125 34.421875 6.203125 
Q 39.59375 6.203125 44.453125 7.46875 
Q 49.3125 8.734375 54.109375 11.28125 
L 54.109375 2.78125 
Q 49.265625 0.734375 44.1875 -0.34375 
Q 39.109375 -1.421875 33.890625 -1.421875 
Q 20.796875 -1.421875 13.15625 6.1875 
Q 5.515625 13.8125 5.515625 26.8125 
Q 5.515625 40.234375 12.765625 48.109375 
Q 20.015625 56 32.328125 56 
Q 43.359375 56 49.78125 48.890625 
Q 56.203125 41.796875 56.203125 29.59375 
z
M 47.21875 32.234375 
Q 47.125 39.59375 43.09375 43.984375 
Q 39.0625 48.390625 32.421875 48.390625 
Q 24.90625 48.390625 20.390625 44.140625 
Q 15.875 39.890625 15.1875 32.171875 
z
" id="DejaVuSans-101"/>
      <path id="DejaVuSans-32"/>
      <path d="M 31 75.875 
Q 24.46875 64.65625 21.28125 53.65625 
Q 18.109375 42.671875 18.109375 31.390625 
Q 18.109375 20.125 21.3125 9.0625 
Q 24.515625 -2 31 -13.1875 
L 23.1875 -13.1875 
Q 15.875 -1.703125 12.234375 9.375 
Q 8.59375 20.453125 8.59375 31.390625 
Q 8.59375 42.28125 12.203125 53.3125 
Q 15.828125 64.359375 23.1875 75.875 
z
" id="DejaVuSans-40"/>
      <path d="M 44.28125 53.078125 
L 44.28125 44.578125 
Q 40.484375 46.53125 36.375 47.5 
Q 32.28125 48.484375 27.875 48.484375 
Q 21.1875 48.484375 17.84375 46.4375 
Q 14.5 44.390625 14.5 40.28125 
Q 14.5 37.15625 16.890625 35.375 
Q 19.28125 33.59375 26.515625 31.984375 
L 29.59375 31.296875 
Q 39.15625 29.25 43.1875 25.515625 
Q 47.21875 21.78125 47.21875 15.09375 
Q 47.21875 7.46875 41.1875 3.015625 
Q 35.15625 -1.421875 24.609375 -1.421875 
Q 20.21875 -1.421875 15.453125 -0.5625 
Q 10.6875 0.296875 5.421875 2 
L 5.421875 11.28125 
Q 10.40625 8.6875 15.234375 7.390625 
Q 20.0625 6.109375 24.8125 6.109375 
Q 31.15625 6.109375 34.5625 8.28125 
Q 37.984375 10.453125 37.984375 14.40625 
Q 37.984375 18.0625 35.515625 20.015625 
Q 33.0625 21.96875 24.703125 23.78125 
L 21.578125 24.515625 
Q 13.234375 26.265625 9.515625 29.90625 
Q 5.8125 33.546875 5.8125 39.890625 
Q 5.8125 47.609375 11.28125 51.796875 
Q 16.75 56 26.8125 56 
Q 31.78125 56 36.171875 55.265625 
Q 40.578125 54.546875 44.28125 53.078125 
z
" id="DejaVuSans-115"/>
      <path d="M 8.015625 75.875 
L 15.828125 75.875 
Q 23.140625 64.359375 26.78125 53.3125 
Q 30.421875 42.28125 30.421875 31.390625 
Q 30.421875 20.453125 26.78125 9.375 
Q 23.140625 -1.703125 15.828125 -13.1875 
L 8.015625 -13.1875 
Q 14.5 -2 17.703125 9.0625 
Q 20.90625 20.125 20.90625 31.390625 
Q 20.90625 42.671875 17.703125 53.65625 
Q 14.5 64.65625 8.015625 75.875 
z
" id="DejaVuSans-41"/>
     </defs>
     <g transform="translate(170.265 198.330687)scale(0.1 -0.1)">
      <use xlink:href="#DejaVuSans-84"/>
      <use x="61.037109" xlink:href="#DejaVuSans-105"/>
      <use x="88.820312" xlink:href="#DejaVuSans-109"/>
      <use x="186.232422" xlink:href="#DejaVuSans-101"/>
      <use x="247.755859" xlink:href="#DejaVuSans-32"/>
      <use x="279.542969" xlink:href="#DejaVuSans-40"/>
      <use x="318.556641" xlink:href="#DejaVuSans-109"/>
      <use x="415.96875" xlink:href="#DejaVuSans-115"/>
      <use x="468.068359" xlink:href="#DejaVuSans-41"/>
     </g>
    </g>
    <g id="text_8">
     <!-- 1e5 -->
     <defs>
      <path d="M 12.40625 8.296875 
L 28.515625 8.296875 
L 28.515625 63.921875 
L 10.984375 60.40625 
L 10.984375 69.390625 
L 28.421875 72.90625 
L 38.28125 72.90625 
L 38.28125 8.296875 
L 54.390625 8.296875 
L 54.390625 0 
L 12.40625 0 
z
" id="DejaVuSans-49"/>
     </defs>
     <g transform="translate(331.755 197.330687)scale(0.1 -0.1)">
      <use xlink:href="#DejaVuSans-49"/>
      <use x="63.623047" xlink:href="#DejaVuSans-101"/>
      <use x="125.146484" xlink:href="#DejaVuSans-53"/>
     </g>
    </g>
   </g>
   <g id="matplotlib.axis_2">
    <g id="ytick_1">
     <g id="line2d_7">
      <defs>
       <path d="M 0 0 
L -3.5 0 
" id="me2417cfe7c" style="stroke:#000000;stroke-width:0.8;"/>
      </defs>
      <g>
       <use style="stroke:#000000;stroke-width:0.8;" x="40.603125" xlink:href="#me2417cfe7c" y="163.338852"/>
      </g>
     </g>
     <g id="text_9">
      <!-- 0 -->
      <g transform="translate(27.240625 167.138071)scale(0.1 -0.1)">
       <use xlink:href="#DejaVuSans-48"/>
      </g>
     </g>
    </g>
    <g id="ytick_2">
     <g id="line2d_8">
      <g>
       <use style="stroke:#000000;stroke-width:0.8;" x="40.603125" xlink:href="#me2417cfe7c" y="135.358549"/>
      </g>
     </g>
     <g id="text_10">
      <!-- 10 -->
      <g transform="translate(20.878125 139.157768)scale(0.1 -0.1)">
       <use xlink:href="#DejaVuSans-49"/>
       <use x="63.623047" xlink:href="#DejaVuSans-48"/>
      </g>
     </g>
    </g>
    <g id="ytick_3">
     <g id="line2d_9">
      <g>
       <use style="stroke:#000000;stroke-width:0.8;" x="40.603125" xlink:href="#me2417cfe7c" y="107.378246"/>
      </g>
     </g>
     <g id="text_11">
      <!-- 20 -->
      <defs>
       <path d="M 19.1875 8.296875 
L 53.609375 8.296875 
L 53.609375 0 
L 7.328125 0 
L 7.328125 8.296875 
Q 12.9375 14.109375 22.625 23.890625 
Q 32.328125 33.6875 34.8125 36.53125 
Q 39.546875 41.84375 41.421875 45.53125 
Q 43.3125 49.21875 43.3125 52.78125 
Q 43.3125 58.59375 39.234375 62.25 
Q 35.15625 65.921875 28.609375 65.921875 
Q 23.96875 65.921875 18.8125 64.3125 
Q 13.671875 62.703125 7.8125 59.421875 
L 7.8125 69.390625 
Q 13.765625 71.78125 18.9375 73 
Q 24.125 74.21875 28.421875 74.21875 
Q 39.75 74.21875 46.484375 68.546875 
Q 53.21875 62.890625 53.21875 53.421875 
Q 53.21875 48.921875 51.53125 44.890625 
Q 49.859375 40.875 45.40625 35.40625 
Q 44.1875 33.984375 37.640625 27.21875 
Q 31.109375 20.453125 19.1875 8.296875 
z
" id="DejaVuSans-50"/>
      </defs>
      <g transform="translate(20.878125 111.177465)scale(0.1 -0.1)">
       <use xlink:href="#DejaVuSans-50"/>
       <use x="63.623047" xlink:href="#DejaVuSans-48"/>
      </g>
     </g>
    </g>
    <g id="ytick_4">
     <g id="line2d_10">
      <g>
       <use style="stroke:#000000;stroke-width:0.8;" x="40.603125" xlink:href="#me2417cfe7c" y="79.397943"/>
      </g>
     </g>
     <g id="text_12">
      <!-- 30 -->
      <defs>
       <path d="M 40.578125 39.3125 
Q 47.65625 37.796875 51.625 33 
Q 55.609375 28.21875 55.609375 21.1875 
Q 55.609375 10.40625 48.1875 4.484375 
Q 40.765625 -1.421875 27.09375 -1.421875 
Q 22.515625 -1.421875 17.65625 -0.515625 
Q 12.796875 0.390625 7.625 2.203125 
L 7.625 11.71875 
Q 11.71875 9.328125 16.59375 8.109375 
Q 21.484375 6.890625 26.8125 6.890625 
Q 36.078125 6.890625 40.9375 10.546875 
Q 45.796875 14.203125 45.796875 21.1875 
Q 45.796875 27.640625 41.28125 31.265625 
Q 36.765625 34.90625 28.71875 34.90625 
L 20.21875 34.90625 
L 20.21875 43.015625 
L 29.109375 43.015625 
Q 36.375 43.015625 40.234375 45.921875 
Q 44.09375 48.828125 44.09375 54.296875 
Q 44.09375 59.90625 40.109375 62.90625 
Q 36.140625 65.921875 28.71875 65.921875 
Q 24.65625 65.921875 20.015625 65.03125 
Q 15.375 64.15625 9.8125 62.3125 
L 9.8125 71.09375 
Q 15.4375 72.65625 20.34375 73.4375 
Q 25.25 74.21875 29.59375 74.21875 
Q 40.828125 74.21875 47.359375 69.109375 
Q 53.90625 64.015625 53.90625 55.328125 
Q 53.90625 49.265625 50.4375 45.09375 
Q 46.96875 40.921875 40.578125 39.3125 
z
" id="DejaVuSans-51"/>
      </defs>
      <g transform="translate(20.878125 83.197162)scale(0.1 -0.1)">
       <use xlink:href="#DejaVuSans-51"/>
       <use x="63.623047" xlink:href="#DejaVuSans-48"/>
      </g>
     </g>
    </g>
    <g id="ytick_5">
     <g id="line2d_11">
      <g>
       <use style="stroke:#000000;stroke-width:0.8;" x="40.603125" xlink:href="#me2417cfe7c" y="51.41764"/>
      </g>
     </g>
     <g id="text_13">
      <!-- 40 -->
      <defs>
       <path d="M 37.796875 64.3125 
L 12.890625 25.390625 
L 37.796875 25.390625 
z
M 35.203125 72.90625 
L 47.609375 72.90625 
L 47.609375 25.390625 
L 58.015625 25.390625 
L 58.015625 17.1875 
L 47.609375 17.1875 
L 47.609375 0 
L 37.796875 0 
L 37.796875 17.1875 
L 4.890625 17.1875 
L 4.890625 26.703125 
z
" id="DejaVuSans-52"/>
      </defs>
      <g transform="translate(20.878125 55.216859)scale(0.1 -0.1)">
       <use xlink:href="#DejaVuSans-52"/>
       <use x="63.623047" xlink:href="#DejaVuSans-48"/>
      </g>
     </g>
    </g>
    <g id="ytick_6">
     <g id="line2d_12">
      <g>
       <use style="stroke:#000000;stroke-width:0.8;" x="40.603125" xlink:href="#me2417cfe7c" y="23.437337"/>
      </g>
     </g>
     <g id="text_14">
      <!-- 50 -->
      <g transform="translate(20.878125 27.236556)scale(0.1 -0.1)">
       <use xlink:href="#DejaVuSans-53"/>
       <use x="63.623047" xlink:href="#DejaVuSans-48"/>
      </g>
     </g>
    </g>
    <g id="text_15">
     <!-- ADC Value -->
     <defs>
      <path d="M 34.1875 63.1875 
L 20.796875 26.90625 
L 47.609375 26.90625 
z
M 28.609375 72.90625 
L 39.796875 72.90625 
L 67.578125 0 
L 57.328125 0 
L 50.6875 18.703125 
L 17.828125 18.703125 
L 11.1875 0 
L 0.78125 0 
z
" id="DejaVuSans-65"/>
      <path d="M 19.671875 64.796875 
L 19.671875 8.109375 
L 31.59375 8.109375 
Q 46.6875 8.109375 53.6875 14.9375 
Q 60.6875 21.78125 60.6875 36.53125 
Q 60.6875 51.171875 53.6875 57.984375 
Q 46.6875 64.796875 31.59375 64.796875 
z
M 9.8125 72.90625 
L 30.078125 72.90625 
Q 51.265625 72.90625 61.171875 64.09375 
Q 71.09375 55.28125 71.09375 36.53125 
Q 71.09375 17.671875 61.125 8.828125 
Q 51.171875 0 30.078125 0 
L 9.8125 0 
z
" id="DejaVuSans-68"/>
      <path d="M 64.40625 67.28125 
L 64.40625 56.890625 
Q 59.421875 61.53125 53.78125 63.8125 
Q 48.140625 66.109375 41.796875 66.109375 
Q 29.296875 66.109375 22.65625 58.46875 
Q 16.015625 50.828125 16.015625 36.375 
Q 16.015625 21.96875 22.65625 14.328125 
Q 29.296875 6.6875 41.796875 6.6875 
Q 48.140625 6.6875 53.78125 8.984375 
Q 59.421875 11.28125 64.40625 15.921875 
L 64.40625 5.609375 
Q 59.234375 2.09375 53.4375 0.328125 
Q 47.65625 -1.421875 41.21875 -1.421875 
Q 24.65625 -1.421875 15.125 8.703125 
Q 5.609375 18.84375 5.609375 36.375 
Q 5.609375 53.953125 15.125 64.078125 
Q 24.65625 74.21875 41.21875 74.21875 
Q 47.75 74.21875 53.53125 72.484375 
Q 59.328125 70.75 64.40625 67.28125 
z
" id="DejaVuSans-67"/>
      <path d="M 28.609375 0 
L 0.78125 72.90625 
L 11.078125 72.90625 
L 34.1875 11.53125 
L 57.328125 72.90625 
L 67.578125 72.90625 
L 39.796875 0 
z
" id="DejaVuSans-86"/>
      <path d="M 34.28125 27.484375 
Q 23.390625 27.484375 19.1875 25 
Q 14.984375 22.515625 14.984375 16.5 
Q 14.984375 11.71875 18.140625 8.90625 
Q 21.296875 6.109375 26.703125 6.109375 
Q 34.1875 6.109375 38.703125 11.40625 
Q 43.21875 16.703125 43.21875 25.484375 
L 43.21875 27.484375 
z
M 52.203125 31.203125 
L 52.203125 0 
L 43.21875 0 
L 43.21875 8.296875 
Q 40.140625 3.328125 35.546875 0.953125 
Q 30.953125 -1.421875 24.3125 -1.421875 
Q 15.921875 -1.421875 10.953125 3.296875 
Q 6 8.015625 6 15.921875 
Q 6 25.140625 12.171875 29.828125 
Q 18.359375 34.515625 30.609375 34.515625 
L 43.21875 34.515625 
L 43.21875 35.40625 
Q 43.21875 41.609375 39.140625 45 
Q 35.0625 48.390625 27.6875 48.390625 
Q 23 48.390625 18.546875 47.265625 
Q 14.109375 46.140625 10.015625 43.890625 
L 10.015625 52.203125 
Q 14.9375 54.109375 19.578125 55.046875 
Q 24.21875 56 28.609375 56 
Q 40.484375 56 46.34375 49.84375 
Q 52.203125 43.703125 52.203125 31.203125 
z
" id="DejaVuSans-97"/>
      <path d="M 9.421875 75.984375 
L 18.40625 75.984375 
L 18.40625 0 
L 9.421875 0 
z
" id="DejaVuSans-108"/>
      <path d="M 8.5 21.578125 
L 8.5 54.6875 
L 17.484375 54.6875 
L 17.484375 21.921875 
Q 17.484375 14.15625 20.5 10.265625 
Q 23.53125 6.390625 29.59375 6.390625 
Q 36.859375 6.390625 41.078125 11.03125 
Q 45.3125 15.671875 45.3125 23.6875 
L 45.3125 54.6875 
L 54.296875 54.6875 
L 54.296875 0 
L 45.3125 0 
L 45.3125 8.40625 
Q 42.046875 3.421875 37.71875 1 
Q 33.40625 -1.421875 27.6875 -1.421875 
Q 18.265625 -1.421875 13.375 4.4375 
Q 8.5 10.296875 8.5 21.578125 
z
M 31.109375 56 
z
" id="DejaVuSans-117"/>
     </defs>
     <g transform="translate(14.798438 122.650187)rotate(-90)scale(0.1 -0.1)">
      <use xlink:href="#DejaVuSans-65"/>
      <use x="68.408203" xlink:href="#DejaVuSans-68"/>
      <use x="145.410156" xlink:href="#DejaVuSans-67"/>
      <use x="215.234375" xlink:href="#DejaVuSans-32"/>
      <use x="247.021484" xlink:href="#DejaVuSans-86"/>
      <use x="315.320312" xlink:href="#DejaVuSans-97"/>
      <use x="376.599609" xlink:href="#DejaVuSans-108"/>
      <use x="404.382812" xlink:href="#DejaVuSans-117"/>
      <use x="467.761719" xlink:href="#DejaVuSans-101"/>
     </g>
    </g>
   </g>
   <g id="line2d_13">
    <path clip-path="url(#pb7efac11a8)" d="M 54.695398 163.338852 
L 55.616461 157.742792 
L 56.445419 154.944761 
L 57.274376 149.348701 
L 58.103333 140.95461 
L 59.024397 140.95461 
L 60.774417 129.762489 
L 62.524438 124.166428 
L 63.445502 124.166428 
L 64.274459 118.570367 
L 65.932373 118.570367 
L 66.945543 110.176277 
L 67.774501 101.782186 
L 68.603458 98.984155 
L 70.077159 87.792034 
L 70.998223 79.397943 
L 72.748244 73.801883 
L 73.669307 68.205822 
L 74.590371 59.811731 
L 75.419328 57.013701 
L 77.169349 45.82158 
L 78.182519 51.41764 
L 79.195689 45.82158 
L 80.024646 45.82158 
L 80.94571 57.013701 
L 81.866773 79.397943 
L 82.787837 118.570367 
L 84.537858 143.75264 
L 85.366815 149.348701 
L 86.287878 146.55067 
L 87.208942 146.55067 
L 88.037899 143.75264 
L 89.78792 132.560519 
L 90.708984 124.166428 
L 91.537941 118.570367 
L 92.366898 110.176277 
L 93.195855 104.580216 
L 94.209025 107.378246 
L 95.037982 104.580216 
L 96.695897 110.176277 
L 97.709067 110.176277 
L 98.538024 107.378246 
L 101.117002 90.590064 
L 102.038066 82.195973 
L 102.959129 79.397943 
L 103.880193 73.801883 
L 104.70915 62.609761 
L 105.814426 65.407792 
L 106.643383 62.609761 
L 108.577617 51.41764 
L 109.498681 51.41764 
L 110.419744 48.61961 
L 111.248701 51.41764 
L 112.077659 48.61961 
L 112.906616 57.013701 
L 113.919786 82.195973 
L 114.748743 118.570367 
L 115.5777 146.55067 
L 116.406657 160.540822 
L 117.419827 163.338852 
L 122.577783 163.338852 
L 123.406741 160.540822 
L 124.327804 152.146731 
L 125.248868 146.55067 
L 126.077825 138.15658 
L 126.906782 132.560519 
L 127.735739 135.358549 
L 128.656803 135.358549 
L 129.669973 126.964458 
L 130.591036 126.964458 
L 131.419994 124.166428 
L 133.170014 112.974307 
L 134.091078 96.186125 
L 134.920035 84.994004 
L 135.748992 82.195973 
L 136.57795 73.801883 
L 137.59112 73.801883 
L 138.420077 71.003852 
L 139.249034 59.811731 
L 141.091161 59.811731 
L 141.920118 57.013701 
L 142.749076 65.407792 
L 143.578033 62.609761 
L 144.499096 65.407792 
L 145.42016 82.195973 
L 146.249117 110.176277 
L 147.078074 132.560519 
L 148.091244 163.338852 
L 151.683392 163.338852 
L 152.696562 157.742792 
L 153.52552 154.944761 
L 155.183434 143.75264 
L 157.30188 121.368398 
L 158.959795 126.964458 
L 159.788752 124.166428 
L 161.630879 124.166428 
L 162.459836 121.368398 
L 163.288793 115.772337 
L 164.209857 104.580216 
L 165.130921 96.186125 
L 165.959878 82.195973 
L 166.973048 62.609761 
L 167.802005 51.41764 
L 171.394153 29.033398 
L 172.407323 31.831428 
L 173.23628 43.023549 
L 174.24945 40.225519 
L 175.170514 45.82158 
L 175.999471 45.82158 
L 177.104747 65.407792 
L 177.933704 96.186125 
L 178.854768 135.358549 
L 179.683725 157.742792 
L 180.604789 163.338852 
L 185.946957 163.338852 
L 186.775915 160.540822 
L 187.604872 154.944761 
L 188.618042 149.348701 
L 189.446999 140.95461 
L 191.104913 135.358549 
L 192.118083 129.762489 
L 192.947041 129.762489 
L 193.775998 124.166428 
L 194.604955 126.964458 
L 195.526019 112.974307 
L 197.276039 101.782186 
L 198.104997 90.590064 
L 199.02606 82.195973 
L 199.947124 71.003852 
L 200.776081 71.003852 
L 201.605038 62.609761 
L 202.526102 62.609761 
L 203.355059 59.811731 
L 204.276123 62.609761 
L 205.10508 62.609761 
L 205.934037 57.013701 
L 207.776164 62.609761 
L 208.605121 68.205822 
L 209.618291 73.801883 
L 211.552525 140.95461 
L 212.381482 163.338852 
L 220.302629 163.338852 
L 222.236862 140.95461 
L 223.06582 135.358549 
L 224.07899 135.358549 
L 224.907947 129.762489 
L 225.736904 121.368398 
L 226.565861 126.964458 
L 227.579031 135.358549 
L 228.407988 135.358549 
L 229.236946 118.570367 
L 230.065903 112.974307 
L 230.986966 112.974307 
L 231.90803 98.984155 
L 232.736987 96.186125 
L 233.565944 90.590064 
L 234.487008 87.792034 
L 235.408072 82.195973 
L 236.237029 79.397943 
L 237.250199 71.003852 
L 238.079156 68.205822 
L 238.908113 68.205822 
L 239.921283 65.407792 
L 240.75024 73.801883 
L 241.579197 93.388095 
L 242.592367 126.964458 
L 243.513431 152.146731 
L 244.342388 163.338852 
L 248.671387 163.338852 
L 250.421408 152.146731 
L 251.342471 143.75264 
L 253.092492 132.560519 
L 253.921449 129.762489 
L 254.842513 135.358549 
L 255.67147 135.358549 
L 256.592534 132.560519 
L 257.513597 135.358549 
L 258.342555 135.358549 
L 259.355725 129.762489 
L 260.184682 132.560519 
L 262.855766 104.580216 
L 263.684723 93.388095 
L 264.513681 84.994004 
L 265.52685 76.599913 
L 266.355808 71.003852 
L 267.276871 71.003852 
L 268.197935 65.407792 
L 269.118998 71.003852 
L 269.947956 68.205822 
L 270.961126 57.013701 
L 271.882189 57.013701 
L 272.803253 59.811731 
L 275.382231 140.95461 
L 276.303294 157.742792 
L 277.132252 163.338852 
L 281.46125 163.338852 
L 282.382314 157.742792 
L 283.671803 146.55067 
L 284.50076 143.75264 
L 285.329717 135.358549 
L 286.250781 135.358549 
L 287.171845 129.762489 
L 288.829759 135.358549 
L 289.658716 126.964458 
L 290.671886 129.762489 
L 291.500843 118.570367 
L 293.158758 107.378246 
L 294.171928 107.378246 
L 295.829842 90.590064 
L 296.658799 84.994004 
L 298.500927 68.205822 
L 299.329884 65.407792 
L 300.158841 59.811731 
L 301.079905 57.013701 
L 302.000968 57.013701 
L 303.658883 45.82158 
L 304.579946 45.82158 
L 305.408903 43.023549 
L 306.51418 43.023549 
L 307.435243 73.801883 
L 308.448413 101.782186 
L 309.27737 129.762489 
L 310.198434 143.75264 
L 311.119498 152.146731 
L 311.948455 157.742792 
L 312.961625 152.146731 
L 314.711645 146.55067 
L 315.724815 149.348701 
L 317.38273 143.75264 
L 318.303793 129.762489 
L 319.224857 129.762489 
L 321.803835 121.368398 
L 322.724899 124.166428 
L 323.922281 124.166428 
L 324.751238 115.772337 
L 325.764408 110.176277 
L 326.593366 107.378246 
L 327.422323 101.782186 
L 328.25128 90.590064 
L 329.172344 82.195973 
L 330.093407 76.599913 
L 330.922364 73.801883 
L 332.027641 54.21567 
L 332.856598 62.609761 
L 333.869768 57.013701 
L 334.698725 51.41764 
L 336.540852 51.41764 
L 336.540852 51.41764 
" style="fill:none;stroke:#1f77b4;stroke-linecap:square;stroke-width:1.5;"/>
   </g>
   <g id="patch_3">
    <path d="M 40.603125 170.054125 
L 40.603125 22.318125 
" style="fill:none;stroke:#000000;stroke-linecap:square;stroke-linejoin:miter;stroke-width:0.8;"/>
   </g>
   <g id="patch_4">
    <path d="M 350.633125 170.054125 
L 350.633125 22.318125 
" style="fill:none;stroke:#000000;stroke-linecap:square;stroke-linejoin:miter;stroke-width:0.8;"/>
   </g>
   <g id="patch_5">
    <path d="M 40.603125 170.054125 
L 350.633125 170.054125 
" style="fill:none;stroke:#000000;stroke-linecap:square;stroke-linejoin:miter;stroke-width:0.8;"/>
   </g>
   <g id="patch_6">
    <path d="M 40.603125 22.318125 
L 350.633125 22.318125 
" style="fill:none;stroke:#000000;stroke-linecap:square;stroke-linejoin:miter;stroke-width:0.8;"/>
   </g>
   <g id="text_16">
    <!-- Original Signal -->
    <defs>
     <path d="M 39.40625 66.21875 
Q 28.65625 66.21875 22.328125 58.203125 
Q 16.015625 50.203125 16.015625 36.375 
Q 16.015625 22.609375 22.328125 14.59375 
Q 28.65625 6.59375 39.40625 6.59375 
Q 50.140625 6.59375 56.421875 14.59375 
Q 62.703125 22.609375 62.703125 36.375 
Q 62.703125 50.203125 56.421875 58.203125 
Q 50.140625 66.21875 39.40625 66.21875 
z
M 39.40625 74.21875 
Q 54.734375 74.21875 63.90625 63.9375 
Q 73.09375 53.65625 73.09375 36.375 
Q 73.09375 19.140625 63.90625 8.859375 
Q 54.734375 -1.421875 39.40625 -1.421875 
Q 24.03125 -1.421875 14.8125 8.828125 
Q 5.609375 19.09375 5.609375 36.375 
Q 5.609375 53.65625 14.8125 63.9375 
Q 24.03125 74.21875 39.40625 74.21875 
z
" id="DejaVuSans-79"/>
     <path d="M 41.109375 46.296875 
Q 39.59375 47.171875 37.8125 47.578125 
Q 36.03125 48 33.890625 48 
Q 26.265625 48 22.1875 43.046875 
Q 18.109375 38.09375 18.109375 28.8125 
L 18.109375 0 
L 9.078125 0 
L 9.078125 54.6875 
L 18.109375 54.6875 
L 18.109375 46.1875 
Q 20.953125 51.171875 25.484375 53.578125 
Q 30.03125 56 36.53125 56 
Q 37.453125 56 38.578125 55.875 
Q 39.703125 55.765625 41.0625 55.515625 
z
" id="DejaVuSans-114"/>
     <path d="M 45.40625 27.984375 
Q 45.40625 37.75 41.375 43.109375 
Q 37.359375 48.484375 30.078125 48.484375 
Q 22.859375 48.484375 18.828125 43.109375 
Q 14.796875 37.75 14.796875 27.984375 
Q 14.796875 18.265625 18.828125 12.890625 
Q 22.859375 7.515625 30.078125 7.515625 
Q 37.359375 7.515625 41.375 12.890625 
Q 45.40625 18.265625 45.40625 27.984375 
z
M 54.390625 6.78125 
Q 54.390625 -7.171875 48.1875 -13.984375 
Q 42 -20.796875 29.203125 -20.796875 
Q 24.46875 -20.796875 20.265625 -20.09375 
Q 16.0625 -19.390625 12.109375 -17.921875 
L 12.109375 -9.1875 
Q 16.0625 -11.328125 19.921875 -12.34375 
Q 23.78125 -13.375 27.78125 -13.375 
Q 36.625 -13.375 41.015625 -8.765625 
Q 45.40625 -4.15625 45.40625 5.171875 
L 45.40625 9.625 
Q 42.625 4.78125 38.28125 2.390625 
Q 33.9375 0 27.875 0 
Q 17.828125 0 11.671875 7.65625 
Q 5.515625 15.328125 5.515625 27.984375 
Q 5.515625 40.671875 11.671875 48.328125 
Q 17.828125 56 27.875 56 
Q 33.9375 56 38.28125 53.609375 
Q 42.625 51.21875 45.40625 46.390625 
L 45.40625 54.6875 
L 54.390625 54.6875 
z
" id="DejaVuSans-103"/>
     <path d="M 54.890625 33.015625 
L 54.890625 0 
L 45.90625 0 
L 45.90625 32.71875 
Q 45.90625 40.484375 42.875 44.328125 
Q 39.84375 48.1875 33.796875 48.1875 
Q 26.515625 48.1875 22.3125 43.546875 
Q 18.109375 38.921875 18.109375 30.90625 
L 18.109375 0 
L 9.078125 0 
L 9.078125 54.6875 
L 18.109375 54.6875 
L 18.109375 46.1875 
Q 21.34375 51.125 25.703125 53.5625 
Q 30.078125 56 35.796875 56 
Q 45.21875 56 50.046875 50.171875 
Q 54.890625 44.34375 54.890625 33.015625 
z
" id="DejaVuSans-110"/>
     <path d="M 53.515625 70.515625 
L 53.515625 60.890625 
Q 47.90625 63.578125 42.921875 64.890625 
Q 37.9375 66.21875 33.296875 66.21875 
Q 25.25 66.21875 20.875 63.09375 
Q 16.5 59.96875 16.5 54.203125 
Q 16.5 49.359375 19.40625 46.890625 
Q 22.3125 44.4375 30.421875 42.921875 
L 36.375 41.703125 
Q 47.40625 39.59375 52.65625 34.296875 
Q 57.90625 29 57.90625 20.125 
Q 57.90625 9.515625 50.796875 4.046875 
Q 43.703125 -1.421875 29.984375 -1.421875 
Q 24.8125 -1.421875 18.96875 -0.25 
Q 13.140625 0.921875 6.890625 3.21875 
L 6.890625 13.375 
Q 12.890625 10.015625 18.65625 8.296875 
Q 24.421875 6.59375 29.984375 6.59375 
Q 38.421875 6.59375 43.015625 9.90625 
Q 47.609375 13.234375 47.609375 19.390625 
Q 47.609375 24.75 44.3125 27.78125 
Q 41.015625 30.8125 33.5 32.328125 
L 27.484375 33.5 
Q 16.453125 35.6875 11.515625 40.375 
Q 6.59375 45.0625 6.59375 53.421875 
Q 6.59375 63.09375 13.40625 68.65625 
Q 20.21875 74.21875 32.171875 74.21875 
Q 37.3125 74.21875 42.625 73.28125 
Q 47.953125 72.359375 53.515625 70.515625 
z
" id="DejaVuSans-83"/>
    </defs>
    <g transform="translate(151.80125 16.318125)scale(0.12 -0.12)">
     <use xlink:href="#DejaVuSans-79"/>
     <use x="78.710938" xlink:href="#DejaVuSans-114"/>
     <use x="119.824219" xlink:href="#DejaVuSans-105"/>
     <use x="147.607422" xlink:href="#DejaVuSans-103"/>
     <use x="211.083984" xlink:href="#DejaVuSans-105"/>
     <use x="238.867188" xlink:href="#DejaVuSans-110"/>
     <use x="302.246094" xlink:href="#DejaVuSans-97"/>
     <use x="363.525391" xlink:href="#DejaVuSans-108"/>
     <use x="391.308594" xlink:href="#DejaVuSans-32"/>
     <use x="423.095703" xlink:href="#DejaVuSans-83"/>
     <use x="486.572266" xlink:href="#DejaVuSans-105"/>
     <use x="514.355469" xlink:href="#DejaVuSans-103"/>
     <use x="577.832031" xlink:href="#DejaVuSans-110"/>
     <use x="641.210938" xlink:href="#DejaVuSans-97"/>
     <use x="702.490234" xlink:href="#DejaVuSans-108"/>
    </g>
   </g>
  </g>
  <g id="axes_2">
   <g id="patch_7">
    <path d="M 395.203125 170.054125 
L 705.233125 170.054125 
L 705.233125 22.318125 
L 395.203125 22.318125 
z
" style="fill:#ffffff;"/>
   </g>
   <g id="matplotlib.axis_3">
    <g id="xtick_7">
     <g id="line2d_14">
      <g>
       <use style="stroke:#000000;stroke-width:0.8;" x="409.295398" xlink:href="#m31cb638330" y="170.054125"/>
      </g>
     </g>
     <g id="text_17">
      <!-- 0 -->
      <g transform="translate(406.114148 184.652562)scale(0.1 -0.1)">
       <use xlink:href="#DejaVuSans-48"/>
      </g>
     </g>
    </g>
    <g id="xtick_8">
     <g id="line2d_15">
      <g>
       <use style="stroke:#000000;stroke-width:0.8;" x="444.52608" xlink:href="#m31cb638330" y="170.054125"/>
      </g>
     </g>
     <g id="text_18">
      <!-- 50 -->
      <g transform="translate(438.16358 184.652562)scale(0.1 -0.1)">
       <use xlink:href="#DejaVuSans-53"/>
       <use x="63.623047" xlink:href="#DejaVuSans-48"/>
      </g>
     </g>
    </g>
    <g id="xtick_9">
     <g id="line2d_16">
      <g>
       <use style="stroke:#000000;stroke-width:0.8;" x="479.756761" xlink:href="#m31cb638330" y="170.054125"/>
      </g>
     </g>
     <g id="text_19">
      <!-- 100 -->
      <g transform="translate(470.213011 184.652562)scale(0.1 -0.1)">
       <use xlink:href="#DejaVuSans-49"/>
       <use x="63.623047" xlink:href="#DejaVuSans-48"/>
       <use x="127.246094" xlink:href="#DejaVuSans-48"/>
      </g>
     </g>
    </g>
    <g id="xtick_10">
     <g id="line2d_17">
      <g>
       <use style="stroke:#000000;stroke-width:0.8;" x="514.987443" xlink:href="#m31cb638330" y="170.054125"/>
      </g>
     </g>
     <g id="text_20">
      <!-- 150 -->
      <g transform="translate(505.443693 184.652562)scale(0.1 -0.1)">
       <use xlink:href="#DejaVuSans-49"/>
       <use x="63.623047" xlink:href="#DejaVuSans-53"/>
       <use x="127.246094" xlink:href="#DejaVuSans-48"/>
      </g>
     </g>
    </g>
    <g id="xtick_11">
     <g id="line2d_18">
      <g>
       <use style="stroke:#000000;stroke-width:0.8;" x="550.218125" xlink:href="#m31cb638330" y="170.054125"/>
      </g>
     </g>
     <g id="text_21">
      <!-- 200 -->
      <g transform="translate(540.674375 184.652562)scale(0.1 -0.1)">
       <use xlink:href="#DejaVuSans-50"/>
       <use x="63.623047" xlink:href="#DejaVuSans-48"/>
       <use x="127.246094" xlink:href="#DejaVuSans-48"/>
      </g>
     </g>
    </g>
    <g id="xtick_12">
     <g id="line2d_19">
      <g>
       <use style="stroke:#000000;stroke-width:0.8;" x="585.448807" xlink:href="#m31cb638330" y="170.054125"/>
      </g>
     </g>
     <g id="text_22">
      <!-- 250 -->
      <g transform="translate(575.905057 184.652562)scale(0.1 -0.1)">
       <use xlink:href="#DejaVuSans-50"/>
       <use x="63.623047" xlink:href="#DejaVuSans-53"/>
       <use x="127.246094" xlink:href="#DejaVuSans-48"/>
      </g>
     </g>
    </g>
    <g id="xtick_13">
     <g id="line2d_20">
      <g>
       <use style="stroke:#000000;stroke-width:0.8;" x="620.679489" xlink:href="#m31cb638330" y="170.054125"/>
      </g>
     </g>
     <g id="text_23">
      <!-- 300 -->
      <g transform="translate(611.135739 184.652562)scale(0.1 -0.1)">
       <use xlink:href="#DejaVuSans-51"/>
       <use x="63.623047" xlink:href="#DejaVuSans-48"/>
       <use x="127.246094" xlink:href="#DejaVuSans-48"/>
      </g>
     </g>
    </g>
    <g id="xtick_14">
     <g id="line2d_21">
      <g>
       <use style="stroke:#000000;stroke-width:0.8;" x="655.91017" xlink:href="#m31cb638330" y="170.054125"/>
      </g>
     </g>
     <g id="text_24">
      <!-- 350 -->
      <g transform="translate(646.36642 184.652562)scale(0.1 -0.1)">
       <use xlink:href="#DejaVuSans-51"/>
       <use x="63.623047" xlink:href="#DejaVuSans-53"/>
       <use x="127.246094" xlink:href="#DejaVuSans-48"/>
      </g>
     </g>
    </g>
    <g id="xtick_15">
     <g id="line2d_22">
      <g>
       <use style="stroke:#000000;stroke-width:0.8;" x="691.140852" xlink:href="#m31cb638330" y="170.054125"/>
      </g>
     </g>
     <g id="text_25">
      <!-- 400 -->
      <g transform="translate(681.597102 184.652562)scale(0.1 -0.1)">
       <use xlink:href="#DejaVuSans-52"/>
       <use x="63.623047" xlink:href="#DejaVuSans-48"/>
       <use x="127.246094" xlink:href="#DejaVuSans-48"/>
      </g>
     </g>
    </g>
    <g id="text_26">
     <!-- Frequency (Hz) -->
     <defs>
      <path d="M 9.8125 72.90625 
L 51.703125 72.90625 
L 51.703125 64.59375 
L 19.671875 64.59375 
L 19.671875 43.109375 
L 48.578125 43.109375 
L 48.578125 34.8125 
L 19.671875 34.8125 
L 19.671875 0 
L 9.8125 0 
z
" id="DejaVuSans-70"/>
      <path d="M 14.796875 27.296875 
Q 14.796875 17.390625 18.875 11.75 
Q 22.953125 6.109375 30.078125 6.109375 
Q 37.203125 6.109375 41.296875 11.75 
Q 45.40625 17.390625 45.40625 27.296875 
Q 45.40625 37.203125 41.296875 42.84375 
Q 37.203125 48.484375 30.078125 48.484375 
Q 22.953125 48.484375 18.875 42.84375 
Q 14.796875 37.203125 14.796875 27.296875 
z
M 45.40625 8.203125 
Q 42.578125 3.328125 38.25 0.953125 
Q 33.9375 -1.421875 27.875 -1.421875 
Q 17.96875 -1.421875 11.734375 6.484375 
Q 5.515625 14.40625 5.515625 27.296875 
Q 5.515625 40.1875 11.734375 48.09375 
Q 17.96875 56 27.875 56 
Q 33.9375 56 38.25 53.625 
Q 42.578125 51.265625 45.40625 46.390625 
L 45.40625 54.6875 
L 54.390625 54.6875 
L 54.390625 -20.796875 
L 45.40625 -20.796875 
z
" id="DejaVuSans-113"/>
      <path d="M 48.78125 52.59375 
L 48.78125 44.1875 
Q 44.96875 46.296875 41.140625 47.34375 
Q 37.3125 48.390625 33.40625 48.390625 
Q 24.65625 48.390625 19.8125 42.84375 
Q 14.984375 37.3125 14.984375 27.296875 
Q 14.984375 17.28125 19.8125 11.734375 
Q 24.65625 6.203125 33.40625 6.203125 
Q 37.3125 6.203125 41.140625 7.25 
Q 44.96875 8.296875 48.78125 10.40625 
L 48.78125 2.09375 
Q 45.015625 0.34375 40.984375 -0.53125 
Q 36.96875 -1.421875 32.421875 -1.421875 
Q 20.0625 -1.421875 12.78125 6.34375 
Q 5.515625 14.109375 5.515625 27.296875 
Q 5.515625 40.671875 12.859375 48.328125 
Q 20.21875 56 33.015625 56 
Q 37.15625 56 41.109375 55.140625 
Q 45.0625 54.296875 48.78125 52.59375 
z
" id="DejaVuSans-99"/>
      <path d="M 32.171875 -5.078125 
Q 28.375 -14.84375 24.75 -17.8125 
Q 21.140625 -20.796875 15.09375 -20.796875 
L 7.90625 -20.796875 
L 7.90625 -13.28125 
L 13.1875 -13.28125 
Q 16.890625 -13.28125 18.9375 -11.515625 
Q 21 -9.765625 23.484375 -3.21875 
L 25.09375 0.875 
L 2.984375 54.6875 
L 12.5 54.6875 
L 29.59375 11.921875 
L 46.6875 54.6875 
L 56.203125 54.6875 
z
" id="DejaVuSans-121"/>
      <path d="M 9.8125 72.90625 
L 19.671875 72.90625 
L 19.671875 43.015625 
L 55.515625 43.015625 
L 55.515625 72.90625 
L 65.375 72.90625 
L 65.375 0 
L 55.515625 0 
L 55.515625 34.71875 
L 19.671875 34.71875 
L 19.671875 0 
L 9.8125 0 
z
" id="DejaVuSans-72"/>
      <path d="M 5.515625 54.6875 
L 48.1875 54.6875 
L 48.1875 46.484375 
L 14.40625 7.171875 
L 48.1875 7.171875 
L 48.1875 0 
L 4.296875 0 
L 4.296875 8.203125 
L 38.09375 47.515625 
L 5.515625 47.515625 
z
" id="DejaVuSans-122"/>
     </defs>
     <g transform="translate(512.045469 198.330687)scale(0.1 -0.1)">
      <use xlink:href="#DejaVuSans-70"/>
      <use x="57.410156" xlink:href="#DejaVuSans-114"/>
      <use x="98.492188" xlink:href="#DejaVuSans-101"/>
      <use x="160.015625" xlink:href="#DejaVuSans-113"/>
      <use x="223.492188" xlink:href="#DejaVuSans-117"/>
      <use x="286.871094" xlink:href="#DejaVuSans-101"/>
      <use x="348.394531" xlink:href="#DejaVuSans-110"/>
      <use x="411.773438" xlink:href="#DejaVuSans-99"/>
      <use x="466.753906" xlink:href="#DejaVuSans-121"/>
      <use x="525.933594" xlink:href="#DejaVuSans-32"/>
      <use x="557.720703" xlink:href="#DejaVuSans-40"/>
      <use x="596.734375" xlink:href="#DejaVuSans-72"/>
      <use x="671.929688" xlink:href="#DejaVuSans-122"/>
      <use x="724.419922" xlink:href="#DejaVuSans-41"/>
     </g>
    </g>
   </g>
   <g id="matplotlib.axis_4">
    <g id="ytick_7">
     <g id="line2d_23">
      <g>
       <use style="stroke:#000000;stroke-width:0.8;" x="395.203125" xlink:href="#me2417cfe7c" y="163.366483"/>
      </g>
     </g>
     <g id="text_27">
      <!-- 0 -->
      <g transform="translate(381.840625 167.165701)scale(0.1 -0.1)">
       <use xlink:href="#DejaVuSans-48"/>
      </g>
     </g>
    </g>
    <g id="ytick_8">
     <g id="line2d_24">
      <g>
       <use style="stroke:#000000;stroke-width:0.8;" x="395.203125" xlink:href="#me2417cfe7c" y="128.045086"/>
      </g>
     </g>
     <g id="text_28">
      <!-- 10 -->
      <g transform="translate(375.478125 131.844304)scale(0.1 -0.1)">
       <use xlink:href="#DejaVuSans-49"/>
       <use x="63.623047" xlink:href="#DejaVuSans-48"/>
      </g>
     </g>
    </g>
    <g id="ytick_9">
     <g id="line2d_25">
      <g>
       <use style="stroke:#000000;stroke-width:0.8;" x="395.203125" xlink:href="#me2417cfe7c" y="92.723689"/>
      </g>
     </g>
     <g id="text_29">
      <!-- 20 -->
      <g transform="translate(375.478125 96.522908)scale(0.1 -0.1)">
       <use xlink:href="#DejaVuSans-50"/>
       <use x="63.623047" xlink:href="#DejaVuSans-48"/>
      </g>
     </g>
    </g>
    <g id="ytick_10">
     <g id="line2d_26">
      <g>
       <use style="stroke:#000000;stroke-width:0.8;" x="395.203125" xlink:href="#me2417cfe7c" y="57.402292"/>
      </g>
     </g>
     <g id="text_30">
      <!-- 30 -->
      <g transform="translate(375.478125 61.201511)scale(0.1 -0.1)">
       <use xlink:href="#DejaVuSans-51"/>
       <use x="63.623047" xlink:href="#DejaVuSans-48"/>
      </g>
     </g>
    </g>
    <g id="text_31">
     <!-- ADC Value -->
     <g transform="translate(369.398438 122.650187)rotate(-90)scale(0.1 -0.1)">
      <use xlink:href="#DejaVuSans-65"/>
      <use x="68.408203" xlink:href="#DejaVuSans-68"/>
      <use x="145.410156" xlink:href="#DejaVuSans-67"/>
      <use x="215.234375" xlink:href="#DejaVuSans-32"/>
      <use x="247.021484" xlink:href="#DejaVuSans-86"/>
      <use x="315.320312" xlink:href="#DejaVuSans-97"/>
      <use x="376.599609" xlink:href="#DejaVuSans-108"/>
      <use x="404.382812" xlink:href="#DejaVuSans-117"/>
      <use x="467.761719" xlink:href="#DejaVuSans-101"/>
     </g>
    </g>
   </g>
   <g id="line2d_27">
    <path clip-path="url(#p9fc456e741)" d="M 409.295398 29.033398 
L 411.090592 153.692201 
L 412.885786 158.09509 
L 414.68098 157.416009 
L 416.476174 157.823103 
L 418.271368 161.697976 
L 420.066562 155.743905 
L 421.861756 155.780684 
L 423.65695 143.731408 
L 425.452144 108.455348 
L 427.247338 154.974931 
L 429.042531 156.146659 
L 430.837725 158.349898 
L 432.632919 159.838463 
L 434.428113 158.82801 
L 436.223307 160.22858 
L 438.018501 158.822016 
L 439.813695 150.42035 
L 441.608889 144.873731 
L 443.404083 157.075168 
L 445.199277 160.141581 
L 446.994471 155.882768 
L 448.789665 161.046607 
L 450.584859 159.650963 
L 452.380053 161.224212 
L 454.175247 161.565753 
L 455.970441 158.206103 
L 457.765635 158.303511 
L 459.560829 160.687017 
L 461.356023 160.353429 
L 463.151217 160.198481 
L 464.946411 161.836597 
L 466.741605 159.883206 
L 470.331993 161.839696 
L 472.127187 157.49194 
L 475.717575 163.122221 
L 477.512769 161.633854 
L 479.307963 161.441669 
L 481.103157 161.769416 
L 482.898351 159.064267 
L 484.693545 161.1635 
L 486.488739 162.122005 
L 488.283933 160.249498 
L 491.874321 162.827076 
L 493.669515 163.188929 
L 495.464709 161.722323 
L 497.259903 162.345368 
L 499.055097 161.500793 
L 502.645485 161.336554 
L 506.235873 161.655662 
L 508.031067 162.687018 
L 509.82626 162.871011 
L 511.621454 162.182733 
L 513.416648 162.682744 
L 515.211842 161.840557 
L 517.007036 162.455611 
L 518.80223 161.680149 
L 520.597424 161.743146 
L 522.392618 162.835197 
L 525.983006 162.580027 
L 527.7782 162.138809 
L 529.573394 162.419422 
L 531.368588 163.006246 
L 533.163782 162.641992 
L 534.958976 162.077484 
L 536.75417 162.431331 
L 538.549364 162.228029 
L 540.344558 162.900404 
L 542.139752 162.18106 
L 543.934946 162.501752 
L 545.73014 162.427844 
L 547.525334 162.037582 
L 549.320528 163.108664 
L 551.115722 161.955262 
L 552.910916 162.564155 
L 554.70611 162.123551 
L 556.501304 162.58479 
L 558.296498 162.879135 
L 560.091692 162.580298 
L 561.886886 162.660288 
L 563.68208 162.895776 
L 565.477274 162.621438 
L 567.272468 162.924478 
L 569.067662 163.041941 
L 570.862856 162.857467 
L 572.65805 163.052978 
L 574.453244 162.73458 
L 576.248438 162.550038 
L 578.043632 163.273487 
L 579.838826 162.741523 
L 583.429214 162.80082 
L 585.224408 162.797352 
L 587.019602 162.618322 
L 588.814796 162.741529 
L 590.60999 163.071887 
L 592.405183 163.114119 
L 594.200377 162.675112 
L 595.995571 162.864035 
L 597.790765 162.654879 
L 599.585959 163.018488 
L 601.381153 163.181337 
L 603.176347 162.848177 
L 604.971541 162.931841 
L 606.766735 163.338852 
L 608.561929 162.562178 
L 610.357123 162.503179 
L 612.152317 163.071111 
L 613.947511 162.429621 
L 615.742705 162.770932 
L 617.537899 162.86205 
L 619.333093 162.713868 
L 621.128287 163.03367 
L 622.923481 163.132572 
L 624.718675 162.916832 
L 626.513869 162.393682 
L 628.309063 162.29322 
L 630.104257 162.595026 
L 631.899451 162.620052 
L 633.694645 162.510154 
L 635.489839 162.954184 
L 637.285033 162.721883 
L 639.080227 162.922575 
L 640.875421 162.625169 
L 642.670615 162.853055 
L 644.465809 162.859309 
L 646.261003 162.697537 
L 648.056197 162.3286 
L 649.851391 162.680377 
L 651.646585 162.437307 
L 653.441779 163.201274 
L 655.236973 162.828806 
L 657.032167 162.947641 
L 658.827361 162.677719 
L 660.622555 162.913868 
L 662.417749 162.705588 
L 664.212943 163.177204 
L 666.008137 162.51839 
L 667.803331 162.622685 
L 669.598525 162.450297 
L 671.393719 162.844031 
L 673.188912 162.873132 
L 674.984106 163.129977 
L 676.7793 163.111661 
L 678.574494 162.749259 
L 680.369688 162.993433 
L 682.164882 162.971263 
L 683.960076 163.099108 
L 685.75527 162.96164 
L 689.345658 163.009112 
L 691.140852 162.670596 
L 691.140852 162.670596 
" style="fill:none;stroke:#1f77b4;stroke-linecap:square;stroke-width:1.5;"/>
   </g>
   <g id="patch_8">
    <path d="M 395.203125 170.054125 
L 395.203125 22.318125 
" style="fill:none;stroke:#000000;stroke-linecap:square;stroke-linejoin:miter;stroke-width:0.8;"/>
   </g>
   <g id="patch_9">
    <path d="M 705.233125 170.054125 
L 705.233125 22.318125 
" style="fill:none;stroke:#000000;stroke-linecap:square;stroke-linejoin:miter;stroke-width:0.8;"/>
   </g>
   <g id="patch_10">
    <path d="M 395.203125 170.054125 
L 705.233125 170.054125 
" style="fill:none;stroke:#000000;stroke-linecap:square;stroke-linejoin:miter;stroke-width:0.8;"/>
   </g>
   <g id="patch_11">
    <path d="M 395.203125 22.318125 
L 705.233125 22.318125 
" style="fill:none;stroke:#000000;stroke-linecap:square;stroke-linejoin:miter;stroke-width:0.8;"/>
   </g>
   <g id="text_32">
    <!-- FFT of Original Signal -->
    <defs>
     <path d="M 30.609375 48.390625 
Q 23.390625 48.390625 19.1875 42.75 
Q 14.984375 37.109375 14.984375 27.296875 
Q 14.984375 17.484375 19.15625 11.84375 
Q 23.34375 6.203125 30.609375 6.203125 
Q 37.796875 6.203125 41.984375 11.859375 
Q 46.1875 17.53125 46.1875 27.296875 
Q 46.1875 37.015625 41.984375 42.703125 
Q 37.796875 48.390625 30.609375 48.390625 
z
M 30.609375 56 
Q 42.328125 56 49.015625 48.375 
Q 55.71875 40.765625 55.71875 27.296875 
Q 55.71875 13.875 49.015625 6.21875 
Q 42.328125 -1.421875 30.609375 -1.421875 
Q 18.84375 -1.421875 12.171875 6.21875 
Q 5.515625 13.875 5.515625 27.296875 
Q 5.515625 40.765625 12.171875 48.375 
Q 18.84375 56 30.609375 56 
z
" id="DejaVuSans-111"/>
     <path d="M 37.109375 75.984375 
L 37.109375 68.5 
L 28.515625 68.5 
Q 23.6875 68.5 21.796875 66.546875 
Q 19.921875 64.59375 19.921875 59.515625 
L 19.921875 54.6875 
L 34.71875 54.6875 
L 34.71875 47.703125 
L 19.921875 47.703125 
L 19.921875 0 
L 10.890625 0 
L 10.890625 47.703125 
L 2.296875 47.703125 
L 2.296875 54.6875 
L 10.890625 54.6875 
L 10.890625 58.5 
Q 10.890625 67.625 15.140625 71.796875 
Q 19.390625 75.984375 28.609375 75.984375 
z
" id="DejaVuSans-102"/>
    </defs>
    <g transform="translate(486.238438 16.318125)scale(0.12 -0.12)">
     <use xlink:href="#DejaVuSans-70"/>
     <use x="57.519531" xlink:href="#DejaVuSans-70"/>
     <use x="115.023438" xlink:href="#DejaVuSans-84"/>
     <use x="176.107422" xlink:href="#DejaVuSans-32"/>
     <use x="207.894531" xlink:href="#DejaVuSans-111"/>
     <use x="269.076172" xlink:href="#DejaVuSans-102"/>
     <use x="304.28125" xlink:href="#DejaVuSans-32"/>
     <use x="336.068359" xlink:href="#DejaVuSans-79"/>
     <use x="414.779297" xlink:href="#DejaVuSans-114"/>
     <use x="455.892578" xlink:href="#DejaVuSans-105"/>
     <use x="483.675781" xlink:href="#DejaVuSans-103"/>
     <use x="547.152344" xlink:href="#DejaVuSans-105"/>
     <use x="574.935547" xlink:href="#DejaVuSans-110"/>
     <use x="638.314453" xlink:href="#DejaVuSans-97"/>
     <use x="699.59375" xlink:href="#DejaVuSans-108"/>
     <use x="727.376953" xlink:href="#DejaVuSans-32"/>
     <use x="759.164062" xlink:href="#DejaVuSans-83"/>
     <use x="822.640625" xlink:href="#DejaVuSans-105"/>
     <use x="850.423828" xlink:href="#DejaVuSans-103"/>
     <use x="913.900391" xlink:href="#DejaVuSans-110"/>
     <use x="977.279297" xlink:href="#DejaVuSans-97"/>
     <use x="1038.558594" xlink:href="#DejaVuSans-108"/>
    </g>
   </g>
  </g>
  <g id="axes_3">
   <g id="patch_12">
    <path d="M 40.603125 386.918125 
L 350.633125 386.918125 
L 350.633125 239.182125 
L 40.603125 239.182125 
z
" style="fill:#ffffff;"/>
   </g>
   <g id="matplotlib.axis_5">
    <g id="xtick_16">
     <g id="line2d_28">
      <g>
       <use style="stroke:#000000;stroke-width:0.8;" x="85.274708" xlink:href="#m31cb638330" y="386.918125"/>
      </g>
     </g>
     <g id="text_33">
      <!-- 6.580 -->
      <g transform="translate(70.960646 401.516562)scale(0.1 -0.1)">
       <use xlink:href="#DejaVuSans-54"/>
       <use x="63.623047" xlink:href="#DejaVuSans-46"/>
       <use x="95.410156" xlink:href="#DejaVuSans-53"/>
       <use x="159.033203" xlink:href="#DejaVuSans-56"/>
       <use x="222.65625" xlink:href="#DejaVuSans-48"/>
      </g>
     </g>
    </g>
    <g id="xtick_17">
     <g id="line2d_29">
      <g>
       <use style="stroke:#000000;stroke-width:0.8;" x="131.327887" xlink:href="#m31cb638330" y="386.918125"/>
      </g>
     </g>
     <g id="text_34">
      <!-- 6.585 -->
      <g transform="translate(117.013825 401.516562)scale(0.1 -0.1)">
       <use xlink:href="#DejaVuSans-54"/>
       <use x="63.623047" xlink:href="#DejaVuSans-46"/>
       <use x="95.410156" xlink:href="#DejaVuSans-53"/>
       <use x="159.033203" xlink:href="#DejaVuSans-56"/>
       <use x="222.65625" xlink:href="#DejaVuSans-53"/>
      </g>
     </g>
    </g>
    <g id="xtick_18">
     <g id="line2d_30">
      <g>
       <use style="stroke:#000000;stroke-width:0.8;" x="177.381066" xlink:href="#m31cb638330" y="386.918125"/>
      </g>
     </g>
     <g id="text_35">
      <!-- 6.590 -->
      <g transform="translate(163.067004 401.516562)scale(0.1 -0.1)">
       <use xlink:href="#DejaVuSans-54"/>
       <use x="63.623047" xlink:href="#DejaVuSans-46"/>
       <use x="95.410156" xlink:href="#DejaVuSans-53"/>
       <use x="159.033203" xlink:href="#DejaVuSans-57"/>
       <use x="222.65625" xlink:href="#DejaVuSans-48"/>
      </g>
     </g>
    </g>
    <g id="xtick_19">
     <g id="line2d_31">
      <g>
       <use style="stroke:#000000;stroke-width:0.8;" x="223.434245" xlink:href="#m31cb638330" y="386.918125"/>
      </g>
     </g>
     <g id="text_36">
      <!-- 6.595 -->
      <g transform="translate(209.120183 401.516562)scale(0.1 -0.1)">
       <use xlink:href="#DejaVuSans-54"/>
       <use x="63.623047" xlink:href="#DejaVuSans-46"/>
       <use x="95.410156" xlink:href="#DejaVuSans-53"/>
       <use x="159.033203" xlink:href="#DejaVuSans-57"/>
       <use x="222.65625" xlink:href="#DejaVuSans-53"/>
      </g>
     </g>
    </g>
    <g id="xtick_20">
     <g id="line2d_32">
      <g>
       <use style="stroke:#000000;stroke-width:0.8;" x="269.487424" xlink:href="#m31cb638330" y="386.918125"/>
      </g>
     </g>
     <g id="text_37">
      <!-- 6.600 -->
      <g transform="translate(255.173361 401.516562)scale(0.1 -0.1)">
       <use xlink:href="#DejaVuSans-54"/>
       <use x="63.623047" xlink:href="#DejaVuSans-46"/>
       <use x="95.410156" xlink:href="#DejaVuSans-54"/>
       <use x="159.033203" xlink:href="#DejaVuSans-48"/>
       <use x="222.65625" xlink:href="#DejaVuSans-48"/>
      </g>
     </g>
    </g>
    <g id="xtick_21">
     <g id="line2d_33">
      <g>
       <use style="stroke:#000000;stroke-width:0.8;" x="315.540603" xlink:href="#m31cb638330" y="386.918125"/>
      </g>
     </g>
     <g id="text_38">
      <!-- 6.605 -->
      <g transform="translate(301.22654 401.516562)scale(0.1 -0.1)">
       <use xlink:href="#DejaVuSans-54"/>
       <use x="63.623047" xlink:href="#DejaVuSans-46"/>
       <use x="95.410156" xlink:href="#DejaVuSans-54"/>
       <use x="159.033203" xlink:href="#DejaVuSans-48"/>
       <use x="222.65625" xlink:href="#DejaVuSans-53"/>
      </g>
     </g>
    </g>
    <g id="text_39">
     <!-- Time (ms) -->
     <g transform="translate(170.265 415.194687)scale(0.1 -0.1)">
      <use xlink:href="#DejaVuSans-84"/>
      <use x="61.037109" xlink:href="#DejaVuSans-105"/>
      <use x="88.820312" xlink:href="#DejaVuSans-109"/>
      <use x="186.232422" xlink:href="#DejaVuSans-101"/>
      <use x="247.755859" xlink:href="#DejaVuSans-32"/>
      <use x="279.542969" xlink:href="#DejaVuSans-40"/>
      <use x="318.556641" xlink:href="#DejaVuSans-109"/>
      <use x="415.96875" xlink:href="#DejaVuSans-115"/>
      <use x="468.068359" xlink:href="#DejaVuSans-41"/>
     </g>
    </g>
    <g id="text_40">
     <!-- 1e5 -->
     <g transform="translate(331.755 414.194687)scale(0.1 -0.1)">
      <use xlink:href="#DejaVuSans-49"/>
      <use x="63.623047" xlink:href="#DejaVuSans-101"/>
      <use x="125.146484" xlink:href="#DejaVuSans-53"/>
     </g>
    </g>
   </g>
   <g id="matplotlib.axis_6">
    <g id="ytick_11">
     <g id="line2d_34">
      <g>
       <use style="stroke:#000000;stroke-width:0.8;" x="40.603125" xlink:href="#me2417cfe7c" y="372.684352"/>
      </g>
     </g>
     <g id="text_41">
      <!-- 0 -->
      <g transform="translate(27.240625 376.48357)scale(0.1 -0.1)">
       <use xlink:href="#DejaVuSans-48"/>
      </g>
     </g>
    </g>
    <g id="ytick_12">
     <g id="line2d_35">
      <g>
       <use style="stroke:#000000;stroke-width:0.8;" x="40.603125" xlink:href="#me2417cfe7c" y="346.383933"/>
      </g>
     </g>
     <g id="text_42">
      <!-- 10 -->
      <g transform="translate(20.878125 350.183152)scale(0.1 -0.1)">
       <use xlink:href="#DejaVuSans-49"/>
       <use x="63.623047" xlink:href="#DejaVuSans-48"/>
      </g>
     </g>
    </g>
    <g id="ytick_13">
     <g id="line2d_36">
      <g>
       <use style="stroke:#000000;stroke-width:0.8;" x="40.603125" xlink:href="#me2417cfe7c" y="320.083514"/>
      </g>
     </g>
     <g id="text_43">
      <!-- 20 -->
      <g transform="translate(20.878125 323.882733)scale(0.1 -0.1)">
       <use xlink:href="#DejaVuSans-50"/>
       <use x="63.623047" xlink:href="#DejaVuSans-48"/>
      </g>
     </g>
    </g>
    <g id="ytick_14">
     <g id="line2d_37">
      <g>
       <use style="stroke:#000000;stroke-width:0.8;" x="40.603125" xlink:href="#me2417cfe7c" y="293.783096"/>
      </g>
     </g>
     <g id="text_44">
      <!-- 30 -->
      <g transform="translate(20.878125 297.582315)scale(0.1 -0.1)">
       <use xlink:href="#DejaVuSans-51"/>
       <use x="63.623047" xlink:href="#DejaVuSans-48"/>
      </g>
     </g>
    </g>
    <g id="ytick_15">
     <g id="line2d_38">
      <g>
       <use style="stroke:#000000;stroke-width:0.8;" x="40.603125" xlink:href="#me2417cfe7c" y="267.482677"/>
      </g>
     </g>
     <g id="text_45">
      <!-- 40 -->
      <g transform="translate(20.878125 271.281896)scale(0.1 -0.1)">
       <use xlink:href="#DejaVuSans-52"/>
       <use x="63.623047" xlink:href="#DejaVuSans-48"/>
      </g>
     </g>
    </g>
    <g id="ytick_16">
     <g id="line2d_39">
      <g>
       <use style="stroke:#000000;stroke-width:0.8;" x="40.603125" xlink:href="#me2417cfe7c" y="241.182259"/>
      </g>
     </g>
     <g id="text_46">
      <!-- 50 -->
      <g transform="translate(20.878125 244.981477)scale(0.1 -0.1)">
       <use xlink:href="#DejaVuSans-53"/>
       <use x="63.623047" xlink:href="#DejaVuSans-48"/>
      </g>
     </g>
    </g>
    <g id="text_47">
     <!-- ADC Value -->
     <g transform="translate(14.798438 339.514187)rotate(-90)scale(0.1 -0.1)">
      <use xlink:href="#DejaVuSans-65"/>
      <use x="68.408203" xlink:href="#DejaVuSans-68"/>
      <use x="145.410156" xlink:href="#DejaVuSans-67"/>
      <use x="215.234375" xlink:href="#DejaVuSans-32"/>
      <use x="247.021484" xlink:href="#DejaVuSans-86"/>
      <use x="315.320312" xlink:href="#DejaVuSans-97"/>
      <use x="376.599609" xlink:href="#DejaVuSans-108"/>
      <use x="404.382812" xlink:href="#DejaVuSans-117"/>
      <use x="467.761719" xlink:href="#DejaVuSans-101"/>
     </g>
    </g>
   </g>
   <g id="line2d_40">
    <path clip-path="url(#p5eabd68f90)" d="M 54.695398 372.64569 
L 56.445419 363.114681 
L 58.103333 353.77777 
L 59.94546 345.647258 
L 60.774417 342.40205 
L 61.603375 339.733346 
L 63.445502 335.321451 
L 64.274459 332.888136 
L 65.103416 329.822822 
L 66.945543 321.140528 
L 68.603458 309.950226 
L 70.077159 304.180966 
L 73.669307 282.085196 
L 75.419328 269.958862 
L 76.248285 264.479695 
L 77.169349 260.743195 
L 78.182519 260.053335 
L 79.195689 263.551817 
L 80.024646 271.828558 
L 80.94571 284.628972 
L 82.787837 318.324279 
L 84.537858 348.763595 
L 85.366815 358.046065 
L 86.287878 362.232828 
L 87.208942 361.568217 
L 88.037899 357.003779 
L 91.537941 327.479192 
L 92.366898 322.922908 
L 93.195855 320.435414 
L 94.209025 319.726881 
L 95.037982 320.172673 
L 95.86694 320.95774 
L 96.695897 321.258354 
L 97.709067 320.425683 
L 98.538024 318.122818 
L 99.366981 314.382373 
L 102.959129 293.742593 
L 104.70915 284.637388 
L 105.814426 280.06243 
L 106.643383 275.141096 
L 108.577617 265.236885 
L 109.498681 261.98326 
L 110.419744 261.621103 
L 111.248701 265.443606 
L 112.077659 274.20822 
L 113.919786 305.065975 
L 115.5777 342.588783 
L 116.406657 358.425054 
L 117.419827 370.168454 
L 118.248785 377.288503 
L 119.077742 380.110538 
L 119.906699 379.541134 
L 120.827763 376.703319 
L 121.748826 372.628858 
L 123.406741 363.572572 
L 125.248868 355.590921 
L 126.077825 352.333614 
L 127.735739 347.054594 
L 129.669973 341.590156 
L 130.591036 337.794742 
L 131.419994 332.886032 
L 133.170014 319.897307 
L 136.57795 292.25057 
L 140.077991 273.757431 
L 141.091161 271.344894 
L 141.920118 271.098985 
L 142.749076 274.003603 
L 143.578033 280.830929 
L 144.499096 291.809249 
L 145.42016 306.397303 
L 147.078074 340.512891 
L 148.091244 356.076952 
L 149.196521 368.18172 
L 150.025478 375.703903 
L 150.854435 378.340257 
L 151.683392 376.563663 
L 152.696562 371.419827 
L 156.012391 343.419876 
L 157.30188 339.540038 
L 158.130837 337.570137 
L 158.959795 337.062539 
L 159.788752 337.210347 
L 160.801922 337.00573 
L 161.630879 335.446378 
L 162.459836 331.753799 
L 163.288793 325.548741 
L 164.209857 316.935091 
L 165.130921 306.468051 
L 165.959878 295.01001 
L 166.973048 283.520147 
L 167.802005 272.843755 
L 169.552026 256.051726 
L 170.473089 250.442373 
L 171.394153 246.938368 
L 172.407323 245.897398 
L 173.23628 247.888076 
L 174.24945 253.571597 
L 175.170514 263.438988 
L 177.104747 295.00475 
L 178.854768 334.012479 
L 179.683725 351.471749 
L 180.604789 365.247119 
L 181.433746 374.467257 
L 182.446916 379.124535 
L 183.275873 379.916178 
L 184.196937 377.925236 
L 185.118 374.278683 
L 187.604872 361.141887 
L 191.104913 347.616634 
L 192.118083 344.641004 
L 192.947041 341.324785 
L 193.775998 337.319494 
L 195.526019 326.300933 
L 196.447082 319.327114 
L 198.104997 304.272229 
L 199.02606 297.258959 
L 200.776081 286.049195 
L 201.605038 281.834816 
L 203.355059 275.032212 
L 204.276123 272.333789 
L 205.10508 270.640306 
L 205.934037 270.840452 
L 206.855101 273.980459 
L 207.776164 280.906937 
L 209.618291 306.39967 
L 211.552525 340.074463 
L 212.381482 355.422072 
L 213.210439 367.576547 
L 214.315716 375.698117 
L 215.328886 379.723922 
L 216.710481 380.202852 
L 217.539438 378.005189 
L 219.473672 369.083298 
L 220.302629 363.725114 
L 223.06582 349.304332 
L 224.907947 343.469321 
L 226.565861 340.046321 
L 227.579031 338.273673 
L 228.407988 335.917418 
L 229.236946 332.754793 
L 230.986966 324.029892 
L 231.90803 318.713263 
L 234.487008 299.96422 
L 236.237029 287.038091 
L 237.250199 282.401064 
L 238.079156 280.543728 
L 238.908113 282.620146 
L 239.921283 289.330698 
L 240.75024 300.600427 
L 243.513431 348.52768 
L 244.342388 362.568685 
L 245.171345 372.759571 
L 246.092409 378.389438 
L 247.013473 379.564541 
L 247.84243 377.036282 
L 248.671387 371.931897 
L 249.592451 365.485664 
L 250.421408 358.836655 
L 251.342471 352.900388 
L 252.171429 348.307546 
L 253.092492 345.377153 
L 253.921449 344.115785 
L 254.842513 344.235978 
L 256.592534 346.321338 
L 257.513597 346.839456 
L 258.342555 346.090946 
L 259.355725 343.617655 
L 260.184682 339.265462 
L 261.013639 333.212683 
L 261.842596 325.919314 
L 262.855766 317.996313 
L 264.513681 302.46802 
L 267.276871 283.293174 
L 268.197935 278.29662 
L 269.118998 274.655853 
L 269.947956 273.282446 
L 270.961126 275.241827 
L 271.882189 281.395862 
L 272.803253 292.009922 
L 274.553274 323.417882 
L 275.382231 340.755643 
L 277.132252 368.593848 
L 277.961209 376.357468 
L 278.882272 379.525353 
L 279.803336 378.669801 
L 280.632293 374.839145 
L 282.382314 363.100479 
L 283.671803 357.283089 
L 284.50076 352.419879 
L 285.329717 348.779375 
L 286.250781 346.311607 
L 287.171845 344.70807 
L 288.829759 342.127473 
L 289.658716 340.136532 
L 290.671886 337.188781 
L 291.500843 333.156664 
L 292.329801 328.118818 
L 293.158758 322.322732 
L 294.171928 316.117674 
L 295.829842 303.882457 
L 296.658799 298.306242 
L 299.329884 282.880257 
L 302.000968 265.595885 
L 302.829925 260.909151 
L 303.658883 258.65915 
L 304.579946 260.220606 
L 305.408903 266.58031 
L 306.51418 277.938672 
L 308.448413 311.527988 
L 309.27737 329.757071 
L 310.198434 345.888433 
L 311.119498 358.145217 
L 311.948455 365.620848 
L 312.961625 368.35767 
L 313.882688 367.167576 
L 315.724815 358.067894 
L 317.38273 347.678177 
L 318.303793 343.708391 
L 319.224857 340.786415 
L 320.053814 338.764702 
L 320.882771 337.330803 
L 321.803835 336.074695 
L 322.724899 334.553742 
L 323.922281 332.356342 
L 324.751238 329.163471 
L 325.764408 324.797864 
L 326.593366 319.253999 
L 328.25128 305.459167 
L 330.922364 284.009071 
L 332.856598 273.968623 
L 333.869768 270.860177 
L 334.698725 268.936827 
L 335.527682 267.932414 
L 336.540852 267.452695 
L 336.540852 267.452695 
" style="fill:none;stroke:#1f77b4;stroke-linecap:square;stroke-width:1.5;"/>
   </g>
   <g id="patch_13">
    <path d="M 40.603125 386.918125 
L 40.603125 239.182125 
" style="fill:none;stroke:#000000;stroke-linecap:square;stroke-linejoin:miter;stroke-width:0.8;"/>
   </g>
   <g id="patch_14">
    <path d="M 350.633125 386.918125 
L 350.633125 239.182125 
" style="fill:none;stroke:#000000;stroke-linecap:square;stroke-linejoin:miter;stroke-width:0.8;"/>
   </g>
   <g id="patch_15">
    <path d="M 40.603125 386.918125 
L 350.633125 386.918125 
" style="fill:none;stroke:#000000;stroke-linecap:square;stroke-linejoin:miter;stroke-width:0.8;"/>
   </g>
   <g id="patch_16">
    <path d="M 40.603125 239.182125 
L 350.633125 239.182125 
" style="fill:none;stroke:#000000;stroke-linecap:square;stroke-linejoin:miter;stroke-width:0.8;"/>
   </g>
   <g id="text_48">
    <!-- 5th Order 10 Hz Low Pass -->
    <defs>
     <path d="M 18.3125 70.21875 
L 18.3125 54.6875 
L 36.8125 54.6875 
L 36.8125 47.703125 
L 18.3125 47.703125 
L 18.3125 18.015625 
Q 18.3125 11.328125 20.140625 9.421875 
Q 21.96875 7.515625 27.59375 7.515625 
L 36.8125 7.515625 
L 36.8125 0 
L 27.59375 0 
Q 17.1875 0 13.234375 3.875 
Q 9.28125 7.765625 9.28125 18.015625 
L 9.28125 47.703125 
L 2.6875 47.703125 
L 2.6875 54.6875 
L 9.28125 54.6875 
L 9.28125 70.21875 
z
" id="DejaVuSans-116"/>
     <path d="M 54.890625 33.015625 
L 54.890625 0 
L 45.90625 0 
L 45.90625 32.71875 
Q 45.90625 40.484375 42.875 44.328125 
Q 39.84375 48.1875 33.796875 48.1875 
Q 26.515625 48.1875 22.3125 43.546875 
Q 18.109375 38.921875 18.109375 30.90625 
L 18.109375 0 
L 9.078125 0 
L 9.078125 75.984375 
L 18.109375 75.984375 
L 18.109375 46.1875 
Q 21.34375 51.125 25.703125 53.5625 
Q 30.078125 56 35.796875 56 
Q 45.21875 56 50.046875 50.171875 
Q 54.890625 44.34375 54.890625 33.015625 
z
" id="DejaVuSans-104"/>
     <path d="M 45.40625 46.390625 
L 45.40625 75.984375 
L 54.390625 75.984375 
L 54.390625 0 
L 45.40625 0 
L 45.40625 8.203125 
Q 42.578125 3.328125 38.25 0.953125 
Q 33.9375 -1.421875 27.875 -1.421875 
Q 17.96875 -1.421875 11.734375 6.484375 
Q 5.515625 14.40625 5.515625 27.296875 
Q 5.515625 40.1875 11.734375 48.09375 
Q 17.96875 56 27.875 56 
Q 33.9375 56 38.25 53.625 
Q 42.578125 51.265625 45.40625 46.390625 
z
M 14.796875 27.296875 
Q 14.796875 17.390625 18.875 11.75 
Q 22.953125 6.109375 30.078125 6.109375 
Q 37.203125 6.109375 41.296875 11.75 
Q 45.40625 17.390625 45.40625 27.296875 
Q 45.40625 37.203125 41.296875 42.84375 
Q 37.203125 48.484375 30.078125 48.484375 
Q 22.953125 48.484375 18.875 42.84375 
Q 14.796875 37.203125 14.796875 27.296875 
z
" id="DejaVuSans-100"/>
     <path d="M 9.8125 72.90625 
L 19.671875 72.90625 
L 19.671875 8.296875 
L 55.171875 8.296875 
L 55.171875 0 
L 9.8125 0 
z
" id="DejaVuSans-76"/>
     <path d="M 4.203125 54.6875 
L 13.1875 54.6875 
L 24.421875 12.015625 
L 35.59375 54.6875 
L 46.1875 54.6875 
L 57.421875 12.015625 
L 68.609375 54.6875 
L 77.59375 54.6875 
L 63.28125 0 
L 52.6875 0 
L 40.921875 44.828125 
L 29.109375 0 
L 18.5 0 
z
" id="DejaVuSans-119"/>
     <path d="M 19.671875 64.796875 
L 19.671875 37.40625 
L 32.078125 37.40625 
Q 38.96875 37.40625 42.71875 40.96875 
Q 46.484375 44.53125 46.484375 51.125 
Q 46.484375 57.671875 42.71875 61.234375 
Q 38.96875 64.796875 32.078125 64.796875 
z
M 9.8125 72.90625 
L 32.078125 72.90625 
Q 44.34375 72.90625 50.609375 67.359375 
Q 56.890625 61.8125 56.890625 51.125 
Q 56.890625 40.328125 50.609375 34.8125 
Q 44.34375 29.296875 32.078125 29.296875 
L 19.671875 29.296875 
L 19.671875 0 
L 9.8125 0 
z
" id="DejaVuSans-80"/>
    </defs>
    <g transform="translate(118.196562 219.74475)scale(0.12 -0.12)">
     <use xlink:href="#DejaVuSans-53"/>
     <use x="63.623047" xlink:href="#DejaVuSans-116"/>
     <use x="102.832031" xlink:href="#DejaVuSans-104"/>
     <use x="166.210938" xlink:href="#DejaVuSans-32"/>
     <use x="197.998047" xlink:href="#DejaVuSans-79"/>
     <use x="276.708984" xlink:href="#DejaVuSans-114"/>
     <use x="317.806641" xlink:href="#DejaVuSans-100"/>
     <use x="381.283203" xlink:href="#DejaVuSans-101"/>
     <use x="442.806641" xlink:href="#DejaVuSans-114"/>
     <use x="483.919922" xlink:href="#DejaVuSans-32"/>
     <use x="515.707031" xlink:href="#DejaVuSans-49"/>
     <use x="579.330078" xlink:href="#DejaVuSans-48"/>
     <use x="642.953125" xlink:href="#DejaVuSans-32"/>
     <use x="674.740234" xlink:href="#DejaVuSans-72"/>
     <use x="749.935547" xlink:href="#DejaVuSans-122"/>
     <use x="802.425781" xlink:href="#DejaVuSans-32"/>
     <use x="834.212891" xlink:href="#DejaVuSans-76"/>
     <use x="889.910156" xlink:href="#DejaVuSans-111"/>
     <use x="951.091797" xlink:href="#DejaVuSans-119"/>
     <use x="1032.878906" xlink:href="#DejaVuSans-32"/>
     <use x="1064.666016" xlink:href="#DejaVuSans-80"/>
     <use x="1124.90625" xlink:href="#DejaVuSans-97"/>
     <use x="1186.185547" xlink:href="#DejaVuSans-115"/>
     <use x="1238.285156" xlink:href="#DejaVuSans-115"/>
    </g>
    <!-- Zero-Phase Butterworth Filter -->
    <defs>
     <path d="M 5.609375 72.90625 
L 62.890625 72.90625 
L 62.890625 65.375 
L 16.796875 8.296875 
L 64.015625 8.296875 
L 64.015625 0 
L 4.5 0 
L 4.5 7.515625 
L 50.59375 64.59375 
L 5.609375 64.59375 
z
" id="DejaVuSans-90"/>
     <path d="M 4.890625 31.390625 
L 31.203125 31.390625 
L 31.203125 23.390625 
L 4.890625 23.390625 
z
" id="DejaVuSans-45"/>
     <path d="M 19.671875 34.8125 
L 19.671875 8.109375 
L 35.5 8.109375 
Q 43.453125 8.109375 47.28125 11.40625 
Q 51.125 14.703125 51.125 21.484375 
Q 51.125 28.328125 47.28125 31.5625 
Q 43.453125 34.8125 35.5 34.8125 
z
M 19.671875 64.796875 
L 19.671875 42.828125 
L 34.28125 42.828125 
Q 41.5 42.828125 45.03125 45.53125 
Q 48.578125 48.25 48.578125 53.8125 
Q 48.578125 59.328125 45.03125 62.0625 
Q 41.5 64.796875 34.28125 64.796875 
z
M 9.8125 72.90625 
L 35.015625 72.90625 
Q 46.296875 72.90625 52.390625 68.21875 
Q 58.5 63.53125 58.5 54.890625 
Q 58.5 48.1875 55.375 44.234375 
Q 52.25 40.28125 46.1875 39.3125 
Q 53.46875 37.75 57.5 32.78125 
Q 61.53125 27.828125 61.53125 20.40625 
Q 61.53125 10.640625 54.890625 5.3125 
Q 48.25 0 35.984375 0 
L 9.8125 0 
z
" id="DejaVuSans-66"/>
    </defs>
    <g transform="translate(106.51625 233.182125)scale(0.12 -0.12)">
     <use xlink:href="#DejaVuSans-90"/>
     <use x="68.505859" xlink:href="#DejaVuSans-101"/>
     <use x="130.029297" xlink:href="#DejaVuSans-114"/>
     <use x="171.111328" xlink:href="#DejaVuSans-111"/>
     <use x="232.308594" xlink:href="#DejaVuSans-45"/>
     <use x="268.392578" xlink:href="#DejaVuSans-80"/>
     <use x="328.695312" xlink:href="#DejaVuSans-104"/>
     <use x="392.074219" xlink:href="#DejaVuSans-97"/>
     <use x="453.353516" xlink:href="#DejaVuSans-115"/>
     <use x="505.453125" xlink:href="#DejaVuSans-101"/>
     <use x="566.976562" xlink:href="#DejaVuSans-32"/>
     <use x="598.763672" xlink:href="#DejaVuSans-66"/>
     <use x="667.367188" xlink:href="#DejaVuSans-117"/>
     <use x="730.746094" xlink:href="#DejaVuSans-116"/>
     <use x="769.955078" xlink:href="#DejaVuSans-116"/>
     <use x="809.164062" xlink:href="#DejaVuSans-101"/>
     <use x="870.6875" xlink:href="#DejaVuSans-114"/>
     <use x="911.800781" xlink:href="#DejaVuSans-119"/>
     <use x="993.587891" xlink:href="#DejaVuSans-111"/>
     <use x="1054.769531" xlink:href="#DejaVuSans-114"/>
     <use x="1095.882812" xlink:href="#DejaVuSans-116"/>
     <use x="1135.091797" xlink:href="#DejaVuSans-104"/>
     <use x="1198.470703" xlink:href="#DejaVuSans-32"/>
     <use x="1230.257812" xlink:href="#DejaVuSans-70"/>
     <use x="1287.667969" xlink:href="#DejaVuSans-105"/>
     <use x="1315.451172" xlink:href="#DejaVuSans-108"/>
     <use x="1343.234375" xlink:href="#DejaVuSans-116"/>
     <use x="1382.443359" xlink:href="#DejaVuSans-101"/>
     <use x="1443.966797" xlink:href="#DejaVuSans-114"/>
    </g>
   </g>
  </g>
  <g id="axes_4">
   <g id="patch_17">
    <path d="M 395.203125 386.918125 
L 705.233125 386.918125 
L 705.233125 239.182125 
L 395.203125 239.182125 
z
" style="fill:#ffffff;"/>
   </g>
   <g id="matplotlib.axis_7">
    <g id="xtick_22">
     <g id="line2d_41">
      <g>
       <use style="stroke:#000000;stroke-width:0.8;" x="439.874708" xlink:href="#m31cb638330" y="386.918125"/>
      </g>
     </g>
     <g id="text_49">
      <!-- 6.580 -->
      <g transform="translate(425.560646 401.516562)scale(0.1 -0.1)">
       <use xlink:href="#DejaVuSans-54"/>
       <use x="63.623047" xlink:href="#DejaVuSans-46"/>
       <use x="95.410156" xlink:href="#DejaVuSans-53"/>
       <use x="159.033203" xlink:href="#DejaVuSans-56"/>
       <use x="222.65625" xlink:href="#DejaVuSans-48"/>
      </g>
     </g>
    </g>
    <g id="xtick_23">
     <g id="line2d_42">
      <g>
       <use style="stroke:#000000;stroke-width:0.8;" x="485.927887" xlink:href="#m31cb638330" y="386.918125"/>
      </g>
     </g>
     <g id="text_50">
      <!-- 6.585 -->
      <g transform="translate(471.613825 401.516562)scale(0.1 -0.1)">
       <use xlink:href="#DejaVuSans-54"/>
       <use x="63.623047" xlink:href="#DejaVuSans-46"/>
       <use x="95.410156" xlink:href="#DejaVuSans-53"/>
       <use x="159.033203" xlink:href="#DejaVuSans-56"/>
       <use x="222.65625" xlink:href="#DejaVuSans-53"/>
      </g>
     </g>
    </g>
    <g id="xtick_24">
     <g id="line2d_43">
      <g>
       <use style="stroke:#000000;stroke-width:0.8;" x="531.981066" xlink:href="#m31cb638330" y="386.918125"/>
      </g>
     </g>
     <g id="text_51">
      <!-- 6.590 -->
      <g transform="translate(517.667004 401.516562)scale(0.1 -0.1)">
       <use xlink:href="#DejaVuSans-54"/>
       <use x="63.623047" xlink:href="#DejaVuSans-46"/>
       <use x="95.410156" xlink:href="#DejaVuSans-53"/>
       <use x="159.033203" xlink:href="#DejaVuSans-57"/>
       <use x="222.65625" xlink:href="#DejaVuSans-48"/>
      </g>
     </g>
    </g>
    <g id="xtick_25">
     <g id="line2d_44">
      <g>
       <use style="stroke:#000000;stroke-width:0.8;" x="578.034245" xlink:href="#m31cb638330" y="386.918125"/>
      </g>
     </g>
     <g id="text_52">
      <!-- 6.595 -->
      <g transform="translate(563.720183 401.516562)scale(0.1 -0.1)">
       <use xlink:href="#DejaVuSans-54"/>
       <use x="63.623047" xlink:href="#DejaVuSans-46"/>
       <use x="95.410156" xlink:href="#DejaVuSans-53"/>
       <use x="159.033203" xlink:href="#DejaVuSans-57"/>
       <use x="222.65625" xlink:href="#DejaVuSans-53"/>
      </g>
     </g>
    </g>
    <g id="xtick_26">
     <g id="line2d_45">
      <g>
       <use style="stroke:#000000;stroke-width:0.8;" x="624.087424" xlink:href="#m31cb638330" y="386.918125"/>
      </g>
     </g>
     <g id="text_53">
      <!-- 6.600 -->
      <g transform="translate(609.773361 401.516562)scale(0.1 -0.1)">
       <use xlink:href="#DejaVuSans-54"/>
       <use x="63.623047" xlink:href="#DejaVuSans-46"/>
       <use x="95.410156" xlink:href="#DejaVuSans-54"/>
       <use x="159.033203" xlink:href="#DejaVuSans-48"/>
       <use x="222.65625" xlink:href="#DejaVuSans-48"/>
      </g>
     </g>
    </g>
    <g id="xtick_27">
     <g id="line2d_46">
      <g>
       <use style="stroke:#000000;stroke-width:0.8;" x="670.140603" xlink:href="#m31cb638330" y="386.918125"/>
      </g>
     </g>
     <g id="text_54">
      <!-- 6.605 -->
      <g transform="translate(655.82654 401.516562)scale(0.1 -0.1)">
       <use xlink:href="#DejaVuSans-54"/>
       <use x="63.623047" xlink:href="#DejaVuSans-46"/>
       <use x="95.410156" xlink:href="#DejaVuSans-54"/>
       <use x="159.033203" xlink:href="#DejaVuSans-48"/>
       <use x="222.65625" xlink:href="#DejaVuSans-53"/>
      </g>
     </g>
    </g>
    <g id="text_55">
     <!-- Time (ms) -->
     <g transform="translate(524.865 415.194687)scale(0.1 -0.1)">
      <use xlink:href="#DejaVuSans-84"/>
      <use x="61.037109" xlink:href="#DejaVuSans-105"/>
      <use x="88.820312" xlink:href="#DejaVuSans-109"/>
      <use x="186.232422" xlink:href="#DejaVuSans-101"/>
      <use x="247.755859" xlink:href="#DejaVuSans-32"/>
      <use x="279.542969" xlink:href="#DejaVuSans-40"/>
      <use x="318.556641" xlink:href="#DejaVuSans-109"/>
      <use x="415.96875" xlink:href="#DejaVuSans-115"/>
      <use x="468.068359" xlink:href="#DejaVuSans-41"/>
     </g>
    </g>
    <g id="text_56">
     <!-- 1e5 -->
     <g transform="translate(686.355 414.194687)scale(0.1 -0.1)">
      <use xlink:href="#DejaVuSans-49"/>
      <use x="63.623047" xlink:href="#DejaVuSans-101"/>
      <use x="125.146484" xlink:href="#DejaVuSans-53"/>
     </g>
    </g>
   </g>
   <g id="matplotlib.axis_8">
    <g id="ytick_17">
     <g id="line2d_47">
      <g>
       <use style="stroke:#000000;stroke-width:0.8;" x="395.203125" xlink:href="#me2417cfe7c" y="372.684352"/>
      </g>
     </g>
     <g id="text_57">
      <!-- 0 -->
      <g transform="translate(381.840625 376.48357)scale(0.1 -0.1)">
       <use xlink:href="#DejaVuSans-48"/>
      </g>
     </g>
    </g>
    <g id="ytick_18">
     <g id="line2d_48">
      <g>
       <use style="stroke:#000000;stroke-width:0.8;" x="395.203125" xlink:href="#me2417cfe7c" y="346.383933"/>
      </g>
     </g>
     <g id="text_58">
      <!-- 10 -->
      <g transform="translate(375.478125 350.183152)scale(0.1 -0.1)">
       <use xlink:href="#DejaVuSans-49"/>
       <use x="63.623047" xlink:href="#DejaVuSans-48"/>
      </g>
     </g>
    </g>
    <g id="ytick_19">
     <g id="line2d_49">
      <g>
       <use style="stroke:#000000;stroke-width:0.8;" x="395.203125" xlink:href="#me2417cfe7c" y="320.083514"/>
      </g>
     </g>
     <g id="text_59">
      <!-- 20 -->
      <g transform="translate(375.478125 323.882733)scale(0.1 -0.1)">
       <use xlink:href="#DejaVuSans-50"/>
       <use x="63.623047" xlink:href="#DejaVuSans-48"/>
      </g>
     </g>
    </g>
    <g id="ytick_20">
     <g id="line2d_50">
      <g>
       <use style="stroke:#000000;stroke-width:0.8;" x="395.203125" xlink:href="#me2417cfe7c" y="293.783096"/>
      </g>
     </g>
     <g id="text_60">
      <!-- 30 -->
      <g transform="translate(375.478125 297.582315)scale(0.1 -0.1)">
       <use xlink:href="#DejaVuSans-51"/>
       <use x="63.623047" xlink:href="#DejaVuSans-48"/>
      </g>
     </g>
    </g>
    <g id="ytick_21">
     <g id="line2d_51">
      <g>
       <use style="stroke:#000000;stroke-width:0.8;" x="395.203125" xlink:href="#me2417cfe7c" y="267.482677"/>
      </g>
     </g>
     <g id="text_61">
      <!-- 40 -->
      <g transform="translate(375.478125 271.281896)scale(0.1 -0.1)">
       <use xlink:href="#DejaVuSans-52"/>
       <use x="63.623047" xlink:href="#DejaVuSans-48"/>
      </g>
     </g>
    </g>
    <g id="ytick_22">
     <g id="line2d_52">
      <g>
       <use style="stroke:#000000;stroke-width:0.8;" x="395.203125" xlink:href="#me2417cfe7c" y="241.182259"/>
      </g>
     </g>
     <g id="text_62">
      <!-- 50 -->
      <g transform="translate(375.478125 244.981477)scale(0.1 -0.1)">
       <use xlink:href="#DejaVuSans-53"/>
       <use x="63.623047" xlink:href="#DejaVuSans-48"/>
      </g>
     </g>
    </g>
    <g id="text_63">
     <!-- ADC Value -->
     <g transform="translate(369.398438 339.514187)rotate(-90)scale(0.1 -0.1)">
      <use xlink:href="#DejaVuSans-65"/>
      <use x="68.408203" xlink:href="#DejaVuSans-68"/>
      <use x="145.410156" xlink:href="#DejaVuSans-67"/>
      <use x="215.234375" xlink:href="#DejaVuSans-32"/>
      <use x="247.021484" xlink:href="#DejaVuSans-86"/>
      <use x="315.320312" xlink:href="#DejaVuSans-97"/>
      <use x="376.599609" xlink:href="#DejaVuSans-108"/>
      <use x="404.382812" xlink:href="#DejaVuSans-117"/>
      <use x="467.761719" xlink:href="#DejaVuSans-101"/>
     </g>
    </g>
   </g>
   <g id="line2d_53">
    <path clip-path="url(#p640664fe9e)" d="M 409.295398 372.64569 
L 411.045419 363.114681 
L 412.703333 353.77777 
L 414.54546 345.647258 
L 415.374417 342.40205 
L 416.203375 339.733346 
L 418.045502 335.321451 
L 418.874459 332.888136 
L 419.703416 329.822822 
L 421.545543 321.140528 
L 423.203458 309.950226 
L 424.677159 304.180966 
L 428.269307 282.085196 
L 430.019328 269.958862 
L 430.848285 264.479695 
L 431.769349 260.743195 
L 432.782519 260.053335 
L 433.795689 263.551817 
L 434.624646 271.828558 
L 435.54571 284.628972 
L 437.387837 318.324279 
L 439.137858 348.763595 
L 439.966815 358.046065 
L 440.887878 362.232828 
L 441.808942 361.568217 
L 442.637899 357.003779 
L 446.137941 327.479192 
L 446.966898 322.922908 
L 447.795855 320.435414 
L 448.809025 319.726881 
L 449.637982 320.172673 
L 450.46694 320.95774 
L 451.295897 321.258354 
L 452.309067 320.425683 
L 453.138024 318.122818 
L 453.966981 314.382373 
L 457.559129 293.742593 
L 459.30915 284.637388 
L 460.414426 280.06243 
L 461.243383 275.141096 
L 463.177617 265.236885 
L 464.098681 261.98326 
L 465.019744 261.621103 
L 465.848701 265.443606 
L 466.677659 274.20822 
L 468.519786 305.065975 
L 470.1777 342.588783 
L 471.006657 358.425054 
L 472.019827 370.168454 
L 472.848785 377.288503 
L 473.677742 380.110538 
L 474.506699 379.541134 
L 475.427763 376.703319 
L 476.348826 372.628858 
L 478.006741 363.572572 
L 479.848868 355.590921 
L 480.677825 352.333614 
L 482.335739 347.054594 
L 484.269973 341.590156 
L 485.191036 337.794742 
L 486.019994 332.886032 
L 487.770014 319.897307 
L 491.17795 292.25057 
L 494.677991 273.757431 
L 495.691161 271.344894 
L 496.520118 271.098985 
L 497.349076 274.003603 
L 498.178033 280.830929 
L 499.099096 291.809249 
L 500.02016 306.397303 
L 501.678074 340.512891 
L 502.691244 356.076952 
L 503.796521 368.18172 
L 504.625478 375.703903 
L 505.454435 378.340257 
L 506.283392 376.563663 
L 507.296562 371.419827 
L 510.612391 343.419876 
L 511.90188 339.540038 
L 512.730837 337.570137 
L 513.559795 337.062539 
L 514.388752 337.210347 
L 515.401922 337.00573 
L 516.230879 335.446378 
L 517.059836 331.753799 
L 517.888793 325.548741 
L 518.809857 316.935091 
L 519.730921 306.468051 
L 520.559878 295.01001 
L 521.573048 283.520147 
L 522.402005 272.843755 
L 524.152026 256.051726 
L 525.073089 250.442373 
L 525.994153 246.938368 
L 527.007323 245.897398 
L 527.83628 247.888076 
L 528.84945 253.571597 
L 529.770514 263.438988 
L 531.704747 295.00475 
L 533.454768 334.012479 
L 534.283725 351.471749 
L 535.204789 365.247119 
L 536.033746 374.467257 
L 537.046916 379.124535 
L 537.875873 379.916178 
L 538.796937 377.925236 
L 539.718 374.278683 
L 542.204872 361.141887 
L 545.704913 347.616634 
L 546.718083 344.641004 
L 547.547041 341.324785 
L 548.375998 337.319494 
L 550.126019 326.300933 
L 551.047082 319.327114 
L 552.704997 304.272229 
L 553.62606 297.258959 
L 555.376081 286.049195 
L 556.205038 281.834816 
L 557.955059 275.032212 
L 558.876123 272.333789 
L 559.70508 270.640306 
L 560.534037 270.840452 
L 561.455101 273.980459 
L 562.376164 280.906937 
L 564.218291 306.39967 
L 566.152525 340.074463 
L 566.981482 355.422072 
L 567.810439 367.576547 
L 568.915716 375.698117 
L 569.928886 379.723922 
L 571.310481 380.202852 
L 572.139438 378.005189 
L 574.073672 369.083298 
L 574.902629 363.725114 
L 577.66582 349.304332 
L 579.507947 343.469321 
L 581.165861 340.046321 
L 582.179031 338.273673 
L 583.007988 335.917418 
L 583.836946 332.754793 
L 585.586966 324.029892 
L 586.50803 318.713263 
L 589.087008 299.96422 
L 590.837029 287.038091 
L 591.850199 282.401064 
L 592.679156 280.543728 
L 593.508113 282.620146 
L 594.521283 289.330698 
L 595.35024 300.600427 
L 598.113431 348.52768 
L 598.942388 362.568685 
L 599.771345 372.759571 
L 600.692409 378.389438 
L 601.613473 379.564541 
L 602.44243 377.036282 
L 603.271387 371.931897 
L 604.192451 365.485664 
L 605.021408 358.836655 
L 605.942471 352.900388 
L 606.771429 348.307546 
L 607.692492 345.377153 
L 608.521449 344.115785 
L 609.442513 344.235978 
L 611.192534 346.321338 
L 612.113597 346.839456 
L 612.942555 346.090946 
L 613.955725 343.617655 
L 614.784682 339.265462 
L 615.613639 333.212683 
L 616.442596 325.919314 
L 617.455766 317.996313 
L 619.113681 302.46802 
L 621.876871 283.293174 
L 622.797935 278.29662 
L 623.718998 274.655853 
L 624.547956 273.282446 
L 625.561126 275.241827 
L 626.482189 281.395862 
L 627.403253 292.009922 
L 629.153274 323.417882 
L 629.982231 340.755643 
L 631.732252 368.593848 
L 632.561209 376.357468 
L 633.482272 379.525353 
L 634.403336 378.669801 
L 635.232293 374.839145 
L 636.982314 363.100479 
L 638.271803 357.283089 
L 639.10076 352.419879 
L 639.929717 348.779375 
L 640.850781 346.311607 
L 641.771845 344.70807 
L 643.429759 342.127473 
L 644.258716 340.136532 
L 645.271886 337.188781 
L 646.100843 333.156664 
L 646.929801 328.118818 
L 647.758758 322.322732 
L 648.771928 316.117674 
L 650.429842 303.882457 
L 651.258799 298.306242 
L 653.929884 282.880257 
L 656.600968 265.595885 
L 657.429925 260.909151 
L 658.258883 258.65915 
L 659.179946 260.220606 
L 660.008903 266.58031 
L 661.11418 277.938672 
L 663.048413 311.527988 
L 663.87737 329.757071 
L 664.798434 345.888433 
L 665.719498 358.145217 
L 666.548455 365.620848 
L 667.561625 368.35767 
L 668.482688 367.167576 
L 670.324815 358.067894 
L 671.98273 347.678177 
L 672.903793 343.708391 
L 673.824857 340.786415 
L 674.653814 338.764702 
L 675.482771 337.330803 
L 676.403835 336.074695 
L 677.324899 334.553742 
L 678.522281 332.356342 
L 679.351238 329.163471 
L 680.364408 324.797864 
L 681.193366 319.253999 
L 682.85128 305.459167 
L 685.522364 284.009071 
L 687.456598 273.968623 
L 688.469768 270.860177 
L 689.298725 268.936827 
L 690.127682 267.932414 
L 691.140852 267.452695 
L 691.140852 267.452695 
" style="fill:none;stroke:#1f77b4;stroke-linecap:square;stroke-width:1.5;"/>
   </g>
   <g id="line2d_54">
    <defs>
     <path d="M -3 3 
L 3 -3 
M -3 -3 
L 3 3 
" id="m1f9076668d" style="stroke:#ff0000;"/>
    </defs>
    <g clip-path="url(#p640664fe9e)">
     <use style="fill:#ff0000;stroke:#ff0000;" x="432.782519" xlink:href="#m1f9076668d" y="260.053335"/>
     <use style="fill:#ff0000;stroke:#ff0000;" x="465.019744" xlink:href="#m1f9076668d" y="261.621103"/>
     <use style="fill:#ff0000;stroke:#ff0000;" x="496.520118" xlink:href="#m1f9076668d" y="271.098985"/>
     <use style="fill:#ff0000;stroke:#ff0000;" x="527.007323" xlink:href="#m1f9076668d" y="245.897398"/>
     <use style="fill:#ff0000;stroke:#ff0000;" x="559.70508" xlink:href="#m1f9076668d" y="270.640306"/>
     <use style="fill:#ff0000;stroke:#ff0000;" x="592.679156" xlink:href="#m1f9076668d" y="280.543728"/>
     <use style="fill:#ff0000;stroke:#ff0000;" x="624.547956" xlink:href="#m1f9076668d" y="273.282446"/>
     <use style="fill:#ff0000;stroke:#ff0000;" x="658.258883" xlink:href="#m1f9076668d" y="258.65915"/>
    </g>
   </g>
   <g id="line2d_55">
    <path clip-path="url(#p640664fe9e)" d="M 432.782519 386.918125 
L 432.782519 239.182125 
" style="fill:none;stroke:#808080;stroke-dasharray:5.55,2.4;stroke-dashoffset:0;stroke-width:1.5;"/>
   </g>
   <g id="line2d_56">
    <path clip-path="url(#p640664fe9e)" d="M 465.019744 386.918125 
L 465.019744 239.182125 
" style="fill:none;stroke:#808080;stroke-dasharray:5.55,2.4;stroke-dashoffset:0;stroke-width:1.5;"/>
   </g>
   <g id="line2d_57">
    <path clip-path="url(#p640664fe9e)" d="M 496.520118 386.918125 
L 496.520118 239.182125 
" style="fill:none;stroke:#808080;stroke-dasharray:5.55,2.4;stroke-dashoffset:0;stroke-width:1.5;"/>
   </g>
   <g id="line2d_58">
    <path clip-path="url(#p640664fe9e)" d="M 527.007323 386.918125 
L 527.007323 239.182125 
" style="fill:none;stroke:#808080;stroke-dasharray:5.55,2.4;stroke-dashoffset:0;stroke-width:1.5;"/>
   </g>
   <g id="line2d_59">
    <path clip-path="url(#p640664fe9e)" d="M 559.70508 386.918125 
L 559.70508 239.182125 
" style="fill:none;stroke:#808080;stroke-dasharray:5.55,2.4;stroke-dashoffset:0;stroke-width:1.5;"/>
   </g>
   <g id="line2d_60">
    <path clip-path="url(#p640664fe9e)" d="M 592.679156 386.918125 
L 592.679156 239.182125 
" style="fill:none;stroke:#808080;stroke-dasharray:5.55,2.4;stroke-dashoffset:0;stroke-width:1.5;"/>
   </g>
   <g id="line2d_61">
    <path clip-path="url(#p640664fe9e)" d="M 624.547956 386.918125 
L 624.547956 239.182125 
" style="fill:none;stroke:#808080;stroke-dasharray:5.55,2.4;stroke-dashoffset:0;stroke-width:1.5;"/>
   </g>
   <g id="line2d_62">
    <path clip-path="url(#p640664fe9e)" d="M 658.258883 386.918125 
L 658.258883 239.182125 
" style="fill:none;stroke:#808080;stroke-dasharray:5.55,2.4;stroke-dashoffset:0;stroke-width:1.5;"/>
   </g>
   <g id="patch_18">
    <path d="M 395.203125 386.918125 
L 395.203125 239.182125 
" style="fill:none;stroke:#000000;stroke-linecap:square;stroke-linejoin:miter;stroke-width:0.8;"/>
   </g>
   <g id="patch_19">
    <path d="M 705.233125 386.918125 
L 705.233125 239.182125 
" style="fill:none;stroke:#000000;stroke-linecap:square;stroke-linejoin:miter;stroke-width:0.8;"/>
   </g>
   <g id="patch_20">
    <path d="M 395.203125 386.918125 
L 705.233125 386.918125 
" style="fill:none;stroke:#000000;stroke-linecap:square;stroke-linejoin:miter;stroke-width:0.8;"/>
   </g>
   <g id="patch_21">
    <path d="M 395.203125 239.182125 
L 705.233125 239.182125 
" style="fill:none;stroke:#000000;stroke-linecap:square;stroke-linejoin:miter;stroke-width:0.8;"/>
   </g>
   <g id="text_64">
    <!-- Initial Systolic Peaks -->
    <defs>
     <path d="M 9.8125 72.90625 
L 19.671875 72.90625 
L 19.671875 0 
L 9.8125 0 
z
" id="DejaVuSans-73"/>
     <path d="M 9.078125 75.984375 
L 18.109375 75.984375 
L 18.109375 31.109375 
L 44.921875 54.6875 
L 56.390625 54.6875 
L 27.390625 29.109375 
L 57.625 0 
L 45.90625 0 
L 18.109375 26.703125 
L 18.109375 0 
L 9.078125 0 
z
" id="DejaVuSans-107"/>
    </defs>
    <g transform="translate(489.07625 233.182125)scale(0.12 -0.12)">
     <use xlink:href="#DejaVuSans-73"/>
     <use x="29.492188" xlink:href="#DejaVuSans-110"/>
     <use x="92.871094" xlink:href="#DejaVuSans-105"/>
     <use x="120.654297" xlink:href="#DejaVuSans-116"/>
     <use x="159.863281" xlink:href="#DejaVuSans-105"/>
     <use x="187.646484" xlink:href="#DejaVuSans-97"/>
     <use x="248.925781" xlink:href="#DejaVuSans-108"/>
     <use x="276.708984" xlink:href="#DejaVuSans-32"/>
     <use x="308.496094" xlink:href="#DejaVuSans-83"/>
     <use x="371.972656" xlink:href="#DejaVuSans-121"/>
     <use x="431.152344" xlink:href="#DejaVuSans-115"/>
     <use x="483.251953" xlink:href="#DejaVuSans-116"/>
     <use x="522.460938" xlink:href="#DejaVuSans-111"/>
     <use x="583.642578" xlink:href="#DejaVuSans-108"/>
     <use x="611.425781" xlink:href="#DejaVuSans-105"/>
     <use x="639.208984" xlink:href="#DejaVuSans-99"/>
     <use x="694.189453" xlink:href="#DejaVuSans-32"/>
     <use x="725.976562" xlink:href="#DejaVuSans-80"/>
     <use x="786.232422" xlink:href="#DejaVuSans-101"/>
     <use x="847.755859" xlink:href="#DejaVuSans-97"/>
     <use x="909.035156" xlink:href="#DejaVuSans-107"/>
     <use x="966.945312" xlink:href="#DejaVuSans-115"/>
    </g>
   </g>
  </g>
 </g>
 <defs>
  <clipPath id="pb7efac11a8">
   <rect height="147.736" width="310.03" x="40.603125" y="22.318125"/>
  </clipPath>
  <clipPath id="p9fc456e741">
   <rect height="147.736" width="310.03" x="395.203125" y="22.318125"/>
  </clipPath>
  <clipPath id="p5eabd68f90">
   <rect height="147.736" width="310.03" x="40.603125" y="239.182125"/>
  </clipPath>
  <clipPath id="p640664fe9e">
   <rect height="147.736" width="310.03" x="395.203125" y="239.182125"/>
  </clipPath>
 </defs>
</svg>
