<?xml version="1.0" encoding="utf-8" standalone="no"?>
<!DOCTYPE svg PUBLIC "-//W3C//DTD SVG 1.1//EN"
  "http://www.w3.org/Graphics/SVG/1.1/DTD/svg11.dtd">
<!-- Created with matplotlib (https://matplotlib.org/) -->
<svg height="424.474375pt" version="1.1" viewBox="0 0 712.073046 424.474375" width="712.073046pt" xmlns="http://www.w3.org/2000/svg" xmlns:xlink="http://www.w3.org/1999/xlink">
 <defs>
  <style type="text/css">
*{stroke-linecap:butt;stroke-linejoin:round;}
  </style>
 </defs>
 <g id="figure_1">
  <g id="patch_1">
   <path d="M 0 424.474375 
L 712.073046 424.474375 
L 712.073046 0 
L 0 0 
z
" style="fill:#ffffff;"/>
  </g>
  <g id="axes_1">
   <g id="patch_2">
    <path d="M 50.14375 176.318125 
L 699.078536 176.318125 
L 699.078536 22.318125 
L 50.14375 22.318125 
z
" style="fill:#ffffff;"/>
   </g>
   <g id="matplotlib.axis_1">
    <g id="xtick_1">
     <g id="line2d_1">
      <defs>
       <path d="M 0 0 
L 0 3.5 
" id="ma6958c6627" style="stroke:#000000;stroke-width:0.8;"/>
      </defs>
      <g>
       <use style="stroke:#000000;stroke-width:0.8;" x="73.195618" xlink:href="#ma6958c6627" y="176.318125"/>
      </g>
     </g>
     <g id="text_1">
      <!-- 2.3 -->
      <defs>
       <path d="M 19.1875 8.296875 
L 53.609375 8.296875 
L 53.609375 0 
L 7.328125 0 
L 7.328125 8.296875 
Q 12.9375 14.109375 22.625 23.890625 
Q 32.328125 33.6875 34.8125 36.53125 
Q 39.546875 41.84375 41.421875 45.53125 
Q 43.3125 49.21875 43.3125 52.78125 
Q 43.3125 58.59375 39.234375 62.25 
Q 35.15625 65.921875 28.609375 65.921875 
Q 23.96875 65.921875 18.8125 64.3125 
Q 13.671875 62.703125 7.8125 59.421875 
L 7.8125 69.390625 
Q 13.765625 71.78125 18.9375 73 
Q 24.125 74.21875 28.421875 74.21875 
Q 39.75 74.21875 46.484375 68.546875 
Q 53.21875 62.890625 53.21875 53.421875 
Q 53.21875 48.921875 51.53125 44.890625 
Q 49.859375 40.875 45.40625 35.40625 
Q 44.1875 33.984375 37.640625 27.21875 
Q 31.109375 20.453125 19.1875 8.296875 
z
" id="DejaVuSans-50"/>
       <path d="M 10.6875 12.40625 
L 21 12.40625 
L 21 0 
L 10.6875 0 
z
" id="DejaVuSans-46"/>
       <path d="M 40.578125 39.3125 
Q 47.65625 37.796875 51.625 33 
Q 55.609375 28.21875 55.609375 21.1875 
Q 55.609375 10.40625 48.1875 4.484375 
Q 40.765625 -1.421875 27.09375 -1.421875 
Q 22.515625 -1.421875 17.65625 -0.515625 
Q 12.796875 0.390625 7.625 2.203125 
L 7.625 11.71875 
Q 11.71875 9.328125 16.59375 8.109375 
Q 21.484375 6.890625 26.8125 6.890625 
Q 36.078125 6.890625 40.9375 10.546875 
Q 45.796875 14.203125 45.796875 21.1875 
Q 45.796875 27.640625 41.28125 31.265625 
Q 36.765625 34.90625 28.71875 34.90625 
L 20.21875 34.90625 
L 20.21875 43.015625 
L 29.109375 43.015625 
Q 36.375 43.015625 40.234375 45.921875 
Q 44.09375 48.828125 44.09375 54.296875 
Q 44.09375 59.90625 40.109375 62.90625 
Q 36.140625 65.921875 28.71875 65.921875 
Q 24.65625 65.921875 20.015625 65.03125 
Q 15.375 64.15625 9.8125 62.3125 
L 9.8125 71.09375 
Q 15.4375 72.65625 20.34375 73.4375 
Q 25.25 74.21875 29.59375 74.21875 
Q 40.828125 74.21875 47.359375 69.109375 
Q 53.90625 64.015625 53.90625 55.328125 
Q 53.90625 49.265625 50.4375 45.09375 
Q 46.96875 40.921875 40.578125 39.3125 
z
" id="DejaVuSans-51"/>
      </defs>
      <g transform="translate(65.244056 190.916562)scale(0.1 -0.1)">
       <use xlink:href="#DejaVuSans-50"/>
       <use x="63.623047" xlink:href="#DejaVuSans-46"/>
       <use x="95.410156" xlink:href="#DejaVuSans-51"/>
      </g>
     </g>
    </g>
    <g id="xtick_2">
     <g id="line2d_2">
      <g>
       <use style="stroke:#000000;stroke-width:0.8;" x="177.149929" xlink:href="#ma6958c6627" y="176.318125"/>
      </g>
     </g>
     <g id="text_2">
      <!-- 2.4 -->
      <defs>
       <path d="M 37.796875 64.3125 
L 12.890625 25.390625 
L 37.796875 25.390625 
z
M 35.203125 72.90625 
L 47.609375 72.90625 
L 47.609375 25.390625 
L 58.015625 25.390625 
L 58.015625 17.1875 
L 47.609375 17.1875 
L 47.609375 0 
L 37.796875 0 
L 37.796875 17.1875 
L 4.890625 17.1875 
L 4.890625 26.703125 
z
" id="DejaVuSans-52"/>
      </defs>
      <g transform="translate(169.198367 190.916562)scale(0.1 -0.1)">
       <use xlink:href="#DejaVuSans-50"/>
       <use x="63.623047" xlink:href="#DejaVuSans-46"/>
       <use x="95.410156" xlink:href="#DejaVuSans-52"/>
      </g>
     </g>
    </g>
    <g id="xtick_3">
     <g id="line2d_3">
      <g>
       <use style="stroke:#000000;stroke-width:0.8;" x="281.10424" xlink:href="#ma6958c6627" y="176.318125"/>
      </g>
     </g>
     <g id="text_3">
      <!-- 2.5 -->
      <defs>
       <path d="M 10.796875 72.90625 
L 49.515625 72.90625 
L 49.515625 64.59375 
L 19.828125 64.59375 
L 19.828125 46.734375 
Q 21.96875 47.46875 24.109375 47.828125 
Q 26.265625 48.1875 28.421875 48.1875 
Q 40.625 48.1875 47.75 41.5 
Q 54.890625 34.8125 54.890625 23.390625 
Q 54.890625 11.625 47.5625 5.09375 
Q 40.234375 -1.421875 26.90625 -1.421875 
Q 22.3125 -1.421875 17.546875 -0.640625 
Q 12.796875 0.140625 7.71875 1.703125 
L 7.71875 11.625 
Q 12.109375 9.234375 16.796875 8.0625 
Q 21.484375 6.890625 26.703125 6.890625 
Q 35.15625 6.890625 40.078125 11.328125 
Q 45.015625 15.765625 45.015625 23.390625 
Q 45.015625 31 40.078125 35.4375 
Q 35.15625 39.890625 26.703125 39.890625 
Q 22.75 39.890625 18.8125 39.015625 
Q 14.890625 38.140625 10.796875 36.28125 
z
" id="DejaVuSans-53"/>
      </defs>
      <g transform="translate(273.152678 190.916562)scale(0.1 -0.1)">
       <use xlink:href="#DejaVuSans-50"/>
       <use x="63.623047" xlink:href="#DejaVuSans-46"/>
       <use x="95.410156" xlink:href="#DejaVuSans-53"/>
      </g>
     </g>
    </g>
    <g id="xtick_4">
     <g id="line2d_4">
      <g>
       <use style="stroke:#000000;stroke-width:0.8;" x="385.058551" xlink:href="#ma6958c6627" y="176.318125"/>
      </g>
     </g>
     <g id="text_4">
      <!-- 2.6 -->
      <defs>
       <path d="M 33.015625 40.375 
Q 26.375 40.375 22.484375 35.828125 
Q 18.609375 31.296875 18.609375 23.390625 
Q 18.609375 15.53125 22.484375 10.953125 
Q 26.375 6.390625 33.015625 6.390625 
Q 39.65625 6.390625 43.53125 10.953125 
Q 47.40625 15.53125 47.40625 23.390625 
Q 47.40625 31.296875 43.53125 35.828125 
Q 39.65625 40.375 33.015625 40.375 
z
M 52.59375 71.296875 
L 52.59375 62.3125 
Q 48.875 64.0625 45.09375 64.984375 
Q 41.3125 65.921875 37.59375 65.921875 
Q 27.828125 65.921875 22.671875 59.328125 
Q 17.53125 52.734375 16.796875 39.40625 
Q 19.671875 43.65625 24.015625 45.921875 
Q 28.375 48.1875 33.59375 48.1875 
Q 44.578125 48.1875 50.953125 41.515625 
Q 57.328125 34.859375 57.328125 23.390625 
Q 57.328125 12.15625 50.6875 5.359375 
Q 44.046875 -1.421875 33.015625 -1.421875 
Q 20.359375 -1.421875 13.671875 8.265625 
Q 6.984375 17.96875 6.984375 36.375 
Q 6.984375 53.65625 15.1875 63.9375 
Q 23.390625 74.21875 37.203125 74.21875 
Q 40.921875 74.21875 44.703125 73.484375 
Q 48.484375 72.75 52.59375 71.296875 
z
" id="DejaVuSans-54"/>
      </defs>
      <g transform="translate(377.106989 190.916562)scale(0.1 -0.1)">
       <use xlink:href="#DejaVuSans-50"/>
       <use x="63.623047" xlink:href="#DejaVuSans-46"/>
       <use x="95.410156" xlink:href="#DejaVuSans-54"/>
      </g>
     </g>
    </g>
    <g id="xtick_5">
     <g id="line2d_5">
      <g>
       <use style="stroke:#000000;stroke-width:0.8;" x="489.012862" xlink:href="#ma6958c6627" y="176.318125"/>
      </g>
     </g>
     <g id="text_5">
      <!-- 2.7 -->
      <defs>
       <path d="M 8.203125 72.90625 
L 55.078125 72.90625 
L 55.078125 68.703125 
L 28.609375 0 
L 18.3125 0 
L 43.21875 64.59375 
L 8.203125 64.59375 
z
" id="DejaVuSans-55"/>
      </defs>
      <g transform="translate(481.0613 190.916562)scale(0.1 -0.1)">
       <use xlink:href="#DejaVuSans-50"/>
       <use x="63.623047" xlink:href="#DejaVuSans-46"/>
       <use x="95.410156" xlink:href="#DejaVuSans-55"/>
      </g>
     </g>
    </g>
    <g id="xtick_6">
     <g id="line2d_6">
      <g>
       <use style="stroke:#000000;stroke-width:0.8;" x="592.967173" xlink:href="#ma6958c6627" y="176.318125"/>
      </g>
     </g>
     <g id="text_6">
      <!-- 2.8 -->
      <defs>
       <path d="M 31.78125 34.625 
Q 24.75 34.625 20.71875 30.859375 
Q 16.703125 27.09375 16.703125 20.515625 
Q 16.703125 13.921875 20.71875 10.15625 
Q 24.75 6.390625 31.78125 6.390625 
Q 38.8125 6.390625 42.859375 10.171875 
Q 46.921875 13.96875 46.921875 20.515625 
Q 46.921875 27.09375 42.890625 30.859375 
Q 38.875 34.625 31.78125 34.625 
z
M 21.921875 38.8125 
Q 15.578125 40.375 12.03125 44.71875 
Q 8.5 49.078125 8.5 55.328125 
Q 8.5 64.0625 14.71875 69.140625 
Q 20.953125 74.21875 31.78125 74.21875 
Q 42.671875 74.21875 48.875 69.140625 
Q 55.078125 64.0625 55.078125 55.328125 
Q 55.078125 49.078125 51.53125 44.71875 
Q 48 40.375 41.703125 38.8125 
Q 48.828125 37.15625 52.796875 32.3125 
Q 56.78125 27.484375 56.78125 20.515625 
Q 56.78125 9.90625 50.3125 4.234375 
Q 43.84375 -1.421875 31.78125 -1.421875 
Q 19.734375 -1.421875 13.25 4.234375 
Q 6.78125 9.90625 6.78125 20.515625 
Q 6.78125 27.484375 10.78125 32.3125 
Q 14.796875 37.15625 21.921875 38.8125 
z
M 18.3125 54.390625 
Q 18.3125 48.734375 21.84375 45.5625 
Q 25.390625 42.390625 31.78125 42.390625 
Q 38.140625 42.390625 41.71875 45.5625 
Q 45.3125 48.734375 45.3125 54.390625 
Q 45.3125 60.0625 41.71875 63.234375 
Q 38.140625 66.40625 31.78125 66.40625 
Q 25.390625 66.40625 21.84375 63.234375 
Q 18.3125 60.0625 18.3125 54.390625 
z
" id="DejaVuSans-56"/>
      </defs>
      <g transform="translate(585.01561 190.916562)scale(0.1 -0.1)">
       <use xlink:href="#DejaVuSans-50"/>
       <use x="63.623047" xlink:href="#DejaVuSans-46"/>
       <use x="95.410156" xlink:href="#DejaVuSans-56"/>
      </g>
     </g>
    </g>
    <g id="xtick_7">
     <g id="line2d_7">
      <g>
       <use style="stroke:#000000;stroke-width:0.8;" x="696.921484" xlink:href="#ma6958c6627" y="176.318125"/>
      </g>
     </g>
     <g id="text_7">
      <!-- 2.9 -->
      <defs>
       <path d="M 10.984375 1.515625 
L 10.984375 10.5 
Q 14.703125 8.734375 18.5 7.8125 
Q 22.3125 6.890625 25.984375 6.890625 
Q 35.75 6.890625 40.890625 13.453125 
Q 46.046875 20.015625 46.78125 33.40625 
Q 43.953125 29.203125 39.59375 26.953125 
Q 35.25 24.703125 29.984375 24.703125 
Q 19.046875 24.703125 12.671875 31.3125 
Q 6.296875 37.9375 6.296875 49.421875 
Q 6.296875 60.640625 12.9375 67.421875 
Q 19.578125 74.21875 30.609375 74.21875 
Q 43.265625 74.21875 49.921875 64.515625 
Q 56.59375 54.828125 56.59375 36.375 
Q 56.59375 19.140625 48.40625 8.859375 
Q 40.234375 -1.421875 26.421875 -1.421875 
Q 22.703125 -1.421875 18.890625 -0.6875 
Q 15.09375 0.046875 10.984375 1.515625 
z
M 30.609375 32.421875 
Q 37.25 32.421875 41.125 36.953125 
Q 45.015625 41.5 45.015625 49.421875 
Q 45.015625 57.28125 41.125 61.84375 
Q 37.25 66.40625 30.609375 66.40625 
Q 23.96875 66.40625 20.09375 61.84375 
Q 16.21875 57.28125 16.21875 49.421875 
Q 16.21875 41.5 20.09375 36.953125 
Q 23.96875 32.421875 30.609375 32.421875 
z
" id="DejaVuSans-57"/>
      </defs>
      <g transform="translate(688.969921 190.916562)scale(0.1 -0.1)">
       <use xlink:href="#DejaVuSans-50"/>
       <use x="63.623047" xlink:href="#DejaVuSans-46"/>
       <use x="95.410156" xlink:href="#DejaVuSans-57"/>
      </g>
     </g>
    </g>
    <g id="text_8">
     <!-- Time (ms) -->
     <defs>
      <path d="M -0.296875 72.90625 
L 61.375 72.90625 
L 61.375 64.59375 
L 35.5 64.59375 
L 35.5 0 
L 25.59375 0 
L 25.59375 64.59375 
L -0.296875 64.59375 
z
" id="DejaVuSans-84"/>
      <path d="M 9.421875 54.6875 
L 18.40625 54.6875 
L 18.40625 0 
L 9.421875 0 
z
M 9.421875 75.984375 
L 18.40625 75.984375 
L 18.40625 64.59375 
L 9.421875 64.59375 
z
" id="DejaVuSans-105"/>
      <path d="M 52 44.1875 
Q 55.375 50.25 60.0625 53.125 
Q 64.75 56 71.09375 56 
Q 79.640625 56 84.28125 50.015625 
Q 88.921875 44.046875 88.921875 33.015625 
L 88.921875 0 
L 79.890625 0 
L 79.890625 32.71875 
Q 79.890625 40.578125 77.09375 44.375 
Q 74.3125 48.1875 68.609375 48.1875 
Q 61.625 48.1875 57.5625 43.546875 
Q 53.515625 38.921875 53.515625 30.90625 
L 53.515625 0 
L 44.484375 0 
L 44.484375 32.71875 
Q 44.484375 40.625 41.703125 44.40625 
Q 38.921875 48.1875 33.109375 48.1875 
Q 26.21875 48.1875 22.15625 43.53125 
Q 18.109375 38.875 18.109375 30.90625 
L 18.109375 0 
L 9.078125 0 
L 9.078125 54.6875 
L 18.109375 54.6875 
L 18.109375 46.1875 
Q 21.1875 51.21875 25.484375 53.609375 
Q 29.78125 56 35.6875 56 
Q 41.65625 56 45.828125 52.96875 
Q 50 49.953125 52 44.1875 
z
" id="DejaVuSans-109"/>
      <path d="M 56.203125 29.59375 
L 56.203125 25.203125 
L 14.890625 25.203125 
Q 15.484375 15.921875 20.484375 11.0625 
Q 25.484375 6.203125 34.421875 6.203125 
Q 39.59375 6.203125 44.453125 7.46875 
Q 49.3125 8.734375 54.109375 11.28125 
L 54.109375 2.78125 
Q 49.265625 0.734375 44.1875 -0.34375 
Q 39.109375 -1.421875 33.890625 -1.421875 
Q 20.796875 -1.421875 13.15625 6.1875 
Q 5.515625 13.8125 5.515625 26.8125 
Q 5.515625 40.234375 12.765625 48.109375 
Q 20.015625 56 32.328125 56 
Q 43.359375 56 49.78125 48.890625 
Q 56.203125 41.796875 56.203125 29.59375 
z
M 47.21875 32.234375 
Q 47.125 39.59375 43.09375 43.984375 
Q 39.0625 48.390625 32.421875 48.390625 
Q 24.90625 48.390625 20.390625 44.140625 
Q 15.875 39.890625 15.1875 32.171875 
z
" id="DejaVuSans-101"/>
      <path id="DejaVuSans-32"/>
      <path d="M 31 75.875 
Q 24.46875 64.65625 21.28125 53.65625 
Q 18.109375 42.671875 18.109375 31.390625 
Q 18.109375 20.125 21.3125 9.0625 
Q 24.515625 -2 31 -13.1875 
L 23.1875 -13.1875 
Q 15.875 -1.703125 12.234375 9.375 
Q 8.59375 20.453125 8.59375 31.390625 
Q 8.59375 42.28125 12.203125 53.3125 
Q 15.828125 64.359375 23.1875 75.875 
z
" id="DejaVuSans-40"/>
      <path d="M 44.28125 53.078125 
L 44.28125 44.578125 
Q 40.484375 46.53125 36.375 47.5 
Q 32.28125 48.484375 27.875 48.484375 
Q 21.1875 48.484375 17.84375 46.4375 
Q 14.5 44.390625 14.5 40.28125 
Q 14.5 37.15625 16.890625 35.375 
Q 19.28125 33.59375 26.515625 31.984375 
L 29.59375 31.296875 
Q 39.15625 29.25 43.1875 25.515625 
Q 47.21875 21.78125 47.21875 15.09375 
Q 47.21875 7.46875 41.1875 3.015625 
Q 35.15625 -1.421875 24.609375 -1.421875 
Q 20.21875 -1.421875 15.453125 -0.5625 
Q 10.6875 0.296875 5.421875 2 
L 5.421875 11.28125 
Q 10.40625 8.6875 15.234375 7.390625 
Q 20.0625 6.109375 24.8125 6.109375 
Q 31.15625 6.109375 34.5625 8.28125 
Q 37.984375 10.453125 37.984375 14.40625 
Q 37.984375 18.0625 35.515625 20.015625 
Q 33.0625 21.96875 24.703125 23.78125 
L 21.578125 24.515625 
Q 13.234375 26.265625 9.515625 29.90625 
Q 5.8125 33.546875 5.8125 39.890625 
Q 5.8125 47.609375 11.28125 51.796875 
Q 16.75 56 26.8125 56 
Q 31.78125 56 36.171875 55.265625 
Q 40.578125 54.546875 44.28125 53.078125 
z
" id="DejaVuSans-115"/>
      <path d="M 8.015625 75.875 
L 15.828125 75.875 
Q 23.140625 64.359375 26.78125 53.3125 
Q 30.421875 42.28125 30.421875 31.390625 
Q 30.421875 20.453125 26.78125 9.375 
Q 23.140625 -1.703125 15.828125 -13.1875 
L 8.015625 -13.1875 
Q 14.5 -2 17.703125 9.0625 
Q 20.90625 20.125 20.90625 31.390625 
Q 20.90625 42.671875 17.703125 53.65625 
Q 14.5 64.65625 8.015625 75.875 
z
" id="DejaVuSans-41"/>
     </defs>
     <g transform="translate(349.258018 204.594687)scale(0.1 -0.1)">
      <use xlink:href="#DejaVuSans-84"/>
      <use x="61.037109" xlink:href="#DejaVuSans-105"/>
      <use x="88.820312" xlink:href="#DejaVuSans-109"/>
      <use x="186.232422" xlink:href="#DejaVuSans-101"/>
      <use x="247.755859" xlink:href="#DejaVuSans-32"/>
      <use x="279.542969" xlink:href="#DejaVuSans-40"/>
      <use x="318.556641" xlink:href="#DejaVuSans-109"/>
      <use x="415.96875" xlink:href="#DejaVuSans-115"/>
      <use x="468.068359" xlink:href="#DejaVuSans-41"/>
     </g>
    </g>
    <g id="text_9">
     <!-- 1e4 -->
     <defs>
      <path d="M 12.40625 8.296875 
L 28.515625 8.296875 
L 28.515625 63.921875 
L 10.984375 60.40625 
L 10.984375 69.390625 
L 28.421875 72.90625 
L 38.28125 72.90625 
L 38.28125 8.296875 
L 54.390625 8.296875 
L 54.390625 0 
L 12.40625 0 
z
" id="DejaVuSans-49"/>
     </defs>
     <g transform="translate(680.200411 203.594687)scale(0.1 -0.1)">
      <use xlink:href="#DejaVuSans-49"/>
      <use x="63.623047" xlink:href="#DejaVuSans-101"/>
      <use x="125.146484" xlink:href="#DejaVuSans-52"/>
     </g>
    </g>
   </g>
   <g id="matplotlib.axis_2">
    <g id="ytick_1">
     <g id="line2d_8">
      <defs>
       <path d="M 0 0 
L -3.5 0 
" id="mdc657450d8" style="stroke:#000000;stroke-width:0.8;"/>
      </defs>
      <g>
       <use style="stroke:#000000;stroke-width:0.8;" x="50.14375" xlink:href="#mdc657450d8" y="169.223072"/>
      </g>
     </g>
     <g id="text_10">
      <!-- 14.0 -->
      <defs>
       <path d="M 31.78125 66.40625 
Q 24.171875 66.40625 20.328125 58.90625 
Q 16.5 51.421875 16.5 36.375 
Q 16.5 21.390625 20.328125 13.890625 
Q 24.171875 6.390625 31.78125 6.390625 
Q 39.453125 6.390625 43.28125 13.890625 
Q 47.125 21.390625 47.125 36.375 
Q 47.125 51.421875 43.28125 58.90625 
Q 39.453125 66.40625 31.78125 66.40625 
z
M 31.78125 74.21875 
Q 44.046875 74.21875 50.515625 64.515625 
Q 56.984375 54.828125 56.984375 36.375 
Q 56.984375 17.96875 50.515625 8.265625 
Q 44.046875 -1.421875 31.78125 -1.421875 
Q 19.53125 -1.421875 13.0625 8.265625 
Q 6.59375 17.96875 6.59375 36.375 
Q 6.59375 54.828125 13.0625 64.515625 
Q 19.53125 74.21875 31.78125 74.21875 
z
" id="DejaVuSans-48"/>
      </defs>
      <g transform="translate(20.878125 173.02229)scale(0.1 -0.1)">
       <use xlink:href="#DejaVuSans-49"/>
       <use x="63.623047" xlink:href="#DejaVuSans-52"/>
       <use x="127.246094" xlink:href="#DejaVuSans-46"/>
       <use x="159.033203" xlink:href="#DejaVuSans-48"/>
      </g>
     </g>
    </g>
    <g id="ytick_2">
     <g id="line2d_9">
      <g>
       <use style="stroke:#000000;stroke-width:0.8;" x="50.14375" xlink:href="#mdc657450d8" y="146.591323"/>
      </g>
     </g>
     <g id="text_11">
      <!-- 14.5 -->
      <g transform="translate(20.878125 150.390541)scale(0.1 -0.1)">
       <use xlink:href="#DejaVuSans-49"/>
       <use x="63.623047" xlink:href="#DejaVuSans-52"/>
       <use x="127.246094" xlink:href="#DejaVuSans-46"/>
       <use x="159.033203" xlink:href="#DejaVuSans-53"/>
      </g>
     </g>
    </g>
    <g id="ytick_3">
     <g id="line2d_10">
      <g>
       <use style="stroke:#000000;stroke-width:0.8;" x="50.14375" xlink:href="#mdc657450d8" y="123.959573"/>
      </g>
     </g>
     <g id="text_12">
      <!-- 15.0 -->
      <g transform="translate(20.878125 127.758792)scale(0.1 -0.1)">
       <use xlink:href="#DejaVuSans-49"/>
       <use x="63.623047" xlink:href="#DejaVuSans-53"/>
       <use x="127.246094" xlink:href="#DejaVuSans-46"/>
       <use x="159.033203" xlink:href="#DejaVuSans-48"/>
      </g>
     </g>
    </g>
    <g id="ytick_4">
     <g id="line2d_11">
      <g>
       <use style="stroke:#000000;stroke-width:0.8;" x="50.14375" xlink:href="#mdc657450d8" y="101.327824"/>
      </g>
     </g>
     <g id="text_13">
      <!-- 15.5 -->
      <g transform="translate(20.878125 105.127043)scale(0.1 -0.1)">
       <use xlink:href="#DejaVuSans-49"/>
       <use x="63.623047" xlink:href="#DejaVuSans-53"/>
       <use x="127.246094" xlink:href="#DejaVuSans-46"/>
       <use x="159.033203" xlink:href="#DejaVuSans-53"/>
      </g>
     </g>
    </g>
    <g id="ytick_5">
     <g id="line2d_12">
      <g>
       <use style="stroke:#000000;stroke-width:0.8;" x="50.14375" xlink:href="#mdc657450d8" y="78.696075"/>
      </g>
     </g>
     <g id="text_14">
      <!-- 16.0 -->
      <g transform="translate(20.878125 82.495294)scale(0.1 -0.1)">
       <use xlink:href="#DejaVuSans-49"/>
       <use x="63.623047" xlink:href="#DejaVuSans-54"/>
       <use x="127.246094" xlink:href="#DejaVuSans-46"/>
       <use x="159.033203" xlink:href="#DejaVuSans-48"/>
      </g>
     </g>
    </g>
    <g id="ytick_6">
     <g id="line2d_13">
      <g>
       <use style="stroke:#000000;stroke-width:0.8;" x="50.14375" xlink:href="#mdc657450d8" y="56.064326"/>
      </g>
     </g>
     <g id="text_15">
      <!-- 16.5 -->
      <g transform="translate(20.878125 59.863545)scale(0.1 -0.1)">
       <use xlink:href="#DejaVuSans-49"/>
       <use x="63.623047" xlink:href="#DejaVuSans-54"/>
       <use x="127.246094" xlink:href="#DejaVuSans-46"/>
       <use x="159.033203" xlink:href="#DejaVuSans-53"/>
      </g>
     </g>
    </g>
    <g id="ytick_7">
     <g id="line2d_14">
      <g>
       <use style="stroke:#000000;stroke-width:0.8;" x="50.14375" xlink:href="#mdc657450d8" y="33.432577"/>
      </g>
     </g>
     <g id="text_16">
      <!-- 17.0 -->
      <g transform="translate(20.878125 37.231796)scale(0.1 -0.1)">
       <use xlink:href="#DejaVuSans-49"/>
       <use x="63.623047" xlink:href="#DejaVuSans-55"/>
       <use x="127.246094" xlink:href="#DejaVuSans-46"/>
       <use x="159.033203" xlink:href="#DejaVuSans-48"/>
      </g>
     </g>
    </g>
    <g id="text_17">
     <!-- ADC Value -->
     <defs>
      <path d="M 34.1875 63.1875 
L 20.796875 26.90625 
L 47.609375 26.90625 
z
M 28.609375 72.90625 
L 39.796875 72.90625 
L 67.578125 0 
L 57.328125 0 
L 50.6875 18.703125 
L 17.828125 18.703125 
L 11.1875 0 
L 0.78125 0 
z
" id="DejaVuSans-65"/>
      <path d="M 19.671875 64.796875 
L 19.671875 8.109375 
L 31.59375 8.109375 
Q 46.6875 8.109375 53.6875 14.9375 
Q 60.6875 21.78125 60.6875 36.53125 
Q 60.6875 51.171875 53.6875 57.984375 
Q 46.6875 64.796875 31.59375 64.796875 
z
M 9.8125 72.90625 
L 30.078125 72.90625 
Q 51.265625 72.90625 61.171875 64.09375 
Q 71.09375 55.28125 71.09375 36.53125 
Q 71.09375 17.671875 61.125 8.828125 
Q 51.171875 0 30.078125 0 
L 9.8125 0 
z
" id="DejaVuSans-68"/>
      <path d="M 64.40625 67.28125 
L 64.40625 56.890625 
Q 59.421875 61.53125 53.78125 63.8125 
Q 48.140625 66.109375 41.796875 66.109375 
Q 29.296875 66.109375 22.65625 58.46875 
Q 16.015625 50.828125 16.015625 36.375 
Q 16.015625 21.96875 22.65625 14.328125 
Q 29.296875 6.6875 41.796875 6.6875 
Q 48.140625 6.6875 53.78125 8.984375 
Q 59.421875 11.28125 64.40625 15.921875 
L 64.40625 5.609375 
Q 59.234375 2.09375 53.4375 0.328125 
Q 47.65625 -1.421875 41.21875 -1.421875 
Q 24.65625 -1.421875 15.125 8.703125 
Q 5.609375 18.84375 5.609375 36.375 
Q 5.609375 53.953125 15.125 64.078125 
Q 24.65625 74.21875 41.21875 74.21875 
Q 47.75 74.21875 53.53125 72.484375 
Q 59.328125 70.75 64.40625 67.28125 
z
" id="DejaVuSans-67"/>
      <path d="M 28.609375 0 
L 0.78125 72.90625 
L 11.078125 72.90625 
L 34.1875 11.53125 
L 57.328125 72.90625 
L 67.578125 72.90625 
L 39.796875 0 
z
" id="DejaVuSans-86"/>
      <path d="M 34.28125 27.484375 
Q 23.390625 27.484375 19.1875 25 
Q 14.984375 22.515625 14.984375 16.5 
Q 14.984375 11.71875 18.140625 8.90625 
Q 21.296875 6.109375 26.703125 6.109375 
Q 34.1875 6.109375 38.703125 11.40625 
Q 43.21875 16.703125 43.21875 25.484375 
L 43.21875 27.484375 
z
M 52.203125 31.203125 
L 52.203125 0 
L 43.21875 0 
L 43.21875 8.296875 
Q 40.140625 3.328125 35.546875 0.953125 
Q 30.953125 -1.421875 24.3125 -1.421875 
Q 15.921875 -1.421875 10.953125 3.296875 
Q 6 8.015625 6 15.921875 
Q 6 25.140625 12.171875 29.828125 
Q 18.359375 34.515625 30.609375 34.515625 
L 43.21875 34.515625 
L 43.21875 35.40625 
Q 43.21875 41.609375 39.140625 45 
Q 35.0625 48.390625 27.6875 48.390625 
Q 23 48.390625 18.546875 47.265625 
Q 14.109375 46.140625 10.015625 43.890625 
L 10.015625 52.203125 
Q 14.9375 54.109375 19.578125 55.046875 
Q 24.21875 56 28.609375 56 
Q 40.484375 56 46.34375 49.84375 
Q 52.203125 43.703125 52.203125 31.203125 
z
" id="DejaVuSans-97"/>
      <path d="M 9.421875 75.984375 
L 18.40625 75.984375 
L 18.40625 0 
L 9.421875 0 
z
" id="DejaVuSans-108"/>
      <path d="M 8.5 21.578125 
L 8.5 54.6875 
L 17.484375 54.6875 
L 17.484375 21.921875 
Q 17.484375 14.15625 20.5 10.265625 
Q 23.53125 6.390625 29.59375 6.390625 
Q 36.859375 6.390625 41.078125 11.03125 
Q 45.3125 15.671875 45.3125 23.6875 
L 45.3125 54.6875 
L 54.296875 54.6875 
L 54.296875 0 
L 45.3125 0 
L 45.3125 8.40625 
Q 42.046875 3.421875 37.71875 1 
Q 33.40625 -1.421875 27.6875 -1.421875 
Q 18.265625 -1.421875 13.375 4.4375 
Q 8.5 10.296875 8.5 21.578125 
z
M 31.109375 56 
z
" id="DejaVuSans-117"/>
     </defs>
     <g transform="translate(14.798438 125.782187)rotate(-90)scale(0.1 -0.1)">
      <use xlink:href="#DejaVuSans-65"/>
      <use x="68.408203" xlink:href="#DejaVuSans-68"/>
      <use x="145.410156" xlink:href="#DejaVuSans-67"/>
      <use x="215.234375" xlink:href="#DejaVuSans-32"/>
      <use x="247.021484" xlink:href="#DejaVuSans-86"/>
      <use x="315.320312" xlink:href="#DejaVuSans-97"/>
      <use x="376.599609" xlink:href="#DejaVuSans-108"/>
      <use x="404.382812" xlink:href="#DejaVuSans-117"/>
      <use x="467.761719" xlink:href="#DejaVuSans-101"/>
     </g>
    </g>
   </g>
   <g id="line2d_15">
    <path clip-path="url(#p7ff4ce68db)" d="M 79.640786 169.318125 
L 81.615918 103.160996 
L 82.655461 79.470081 
L 83.59105 64.098597 
L 84.526638 56.159379 
L 85.670136 53.515991 
L 86.813633 53.837362 
L 87.749222 55.430637 
L 88.684811 57.58518 
L 90.763897 64.112176 
L 92.635075 74.124462 
L 93.570663 79.112499 
L 94.506252 83.00516 
L 95.64975 85.363388 
L 96.585338 86.264132 
L 97.520927 86.132868 
L 98.456516 85.43581 
L 99.600013 84.335907 
L 100.535602 82.602315 
L 101.471191 79.728083 
L 102.40678 75.34205 
L 105.421455 58.974769 
L 106.357044 57.997077 
L 107.396587 62.405742 
L 108.43613 72.825399 
L 109.371719 88.242147 
L 111.242896 122.298403 
L 112.282439 133.360802 
L 113.321982 136.38893 
L 114.257571 130.472991 
L 115.19316 116.839625 
L 118.207835 61.735842 
L 119.143424 49.25217 
L 120.182967 42.281591 
L 121.118556 40.308102 
L 122.366007 41.973799 
L 123.301596 45.762354 
L 127.459769 67.402832 
L 129.330946 79.990611 
L 130.266535 85.354336 
L 131.306078 89.532157 
L 133.28121 96.077259 
L 134.216799 100.454239 
L 135.256342 106.465231 
L 137.231474 119.686699 
L 138.167063 122.497562 
L 139.102652 119.741015 
L 140.246149 110.624947 
L 141.181738 96.321681 
L 143.052915 64.77755 
L 144.092458 54.837685 
L 145.132002 52.072086 
L 146.06759 56.71612 
L 147.003179 67.135778 
L 147.938768 80.343667 
L 149.082265 92.786602 
L 150.017854 101.223718 
L 150.953443 103.486893 
L 151.889032 99.096334 
L 153.032529 89.468788 
L 153.968118 77.641436 
L 154.903707 67.52957 
L 155.839296 62.785956 
L 156.878839 65.614924 
L 157.918382 75.948581 
L 159.789559 107.565134 
L 160.725148 120.10765 
L 161.868646 125.457795 
L 162.804234 122.266719 
L 163.739823 111.602638 
L 165.714955 80.067559 
L 166.754498 65.841242 
L 167.690087 55.457795 
L 168.625676 49.279328 
L 169.665219 46.67215 
L 170.704762 46.753625 
L 171.640351 49.05301 
L 172.57594 53.823783 
L 173.615483 61.903317 
L 174.551072 74.169725 
L 175.590615 90.835745 
L 177.461792 131.91237 
L 178.501335 150.48851 
L 179.540878 162.954077 
L 180.476467 166.403156 
L 181.619965 159.468788 
L 182.555553 142.816347 
L 186.713726 48.514375 
L 187.649315 38.923039 
L 188.688858 39.792098 
L 189.728401 50.148387 
L 191.807487 85.766234 
L 192.84703 101.771407 
L 193.782619 111.000634 
L 194.718208 111.408005 
L 195.757751 103.405419 
L 198.668472 60.853204 
L 199.708015 52.95925 
L 200.643604 51.664714 
L 201.683147 56.412855 
L 203.658279 75.948581 
L 204.593867 86.119289 
L 205.529456 94.330087 
L 206.568999 99.87034 
L 207.504588 102.617834 
L 208.544131 102.726466 
L 209.47972 100.413502 
L 210.519263 95.927889 
L 212.494395 82.203996 
L 213.429984 74.626887 
L 214.365573 68.176838 
L 215.405116 64.207229 
L 216.444659 63.790805 
L 217.380248 67.416411 
L 219.563288 84.566751 
L 220.498877 95.126725 
L 221.434466 104.392163 
L 222.577963 110.516314 
L 223.721461 112.19559 
L 224.761004 108.972829 
L 225.800547 101.391193 
L 227.671724 79.836715 
L 228.711268 70.299696 
L 229.750811 64.112176 
L 230.686399 62.057213 
L 231.621988 63.736489 
L 233.701074 72.10571 
L 234.636663 74.893941 
L 235.572252 74.826046 
L 236.507841 71.648549 
L 239.522516 56.136748 
L 240.458105 55.041371 
L 241.497648 57.775286 
L 242.641145 63.781753 
L 244.616277 78.827339 
L 245.551866 83.847061 
L 246.591409 85.295493 
L 247.734906 83.000634 
L 250.749581 66.592616 
L 251.68517 63.854174 
L 252.620759 64.039754 
L 253.660302 66.420614 
L 254.595891 69.367268 
L 255.635434 70.983175 
L 256.571023 69.865167 
L 257.506612 65.642082 
L 258.650109 59.092454 
L 260.729195 45.748775 
L 261.664784 42.213696 
L 262.600373 41.783692 
L 263.847825 44.078552 
L 266.758545 56.182011 
L 267.694134 59.024559 
L 268.733677 61.283207 
L 269.77322 63.845121 
L 270.708809 67.67894 
L 271.644398 73.314245 
L 274.659073 93.537976 
L 275.594662 95.927889 
L 276.530251 94.063033 
L 277.569794 88.427727 
L 279.544926 74.400569 
L 280.480514 71.567074 
L 281.520057 74.056567 
L 282.559601 81.674413 
L 284.430778 102.581623 
L 285.366367 109.00904 
L 286.509864 109.104093 
L 287.445453 102.210463 
L 288.381042 89.658894 
L 289.316631 74.323621 
L 290.356174 59.812144 
L 291.395717 49.469434 
L 292.331306 45.567721 
L 293.266895 48.754271 
L 294.202483 57.938235 
L 295.345981 70.621067 
L 296.28157 83.584533 
L 297.217158 93.750715 
L 298.152747 99.037491 
L 299.296245 98.838332 
L 300.231833 94.031348 
L 303.142554 71.05107 
L 304.286052 65.664714 
L 305.325595 62.242794 
L 306.261183 60.527307 
L 307.196772 60.196883 
L 308.236315 61.061416 
L 309.275858 63.043958 
L 310.211447 66.040401 
L 313.226122 77.994491 
L 314.161711 81.217252 
L 315.0973 83.082108 
L 316.032889 83.168109 
L 317.072432 81.285147 
L 318.111975 77.609751 
L 320.918741 63.016799 
L 322.062239 60.255726 
L 322.997828 59.71709 
L 323.933416 61.260576 
L 324.869005 64.139334 
L 326.948091 69.747482 
L 327.88368 71.146124 
L 329.858812 72.513081 
L 330.898355 74.269305 
L 331.833944 77.58712 
L 333.705122 87.024559 
L 334.848619 90.419321 
L 335.784208 90.790482 
L 336.719797 87.241824 
L 337.655385 80.044927 
L 339.734472 61.500472 
L 340.67006 54.896528 
L 341.605649 52.728406 
L 342.645192 55.733903 
L 343.684735 63.38796 
L 346.491502 94.701248 
L 347.531045 100.069499 
L 348.570588 100.286764 
L 349.506177 95.448096 
L 352.520852 67.570307 
L 353.456441 61.450682 
L 354.392029 59.540563 
L 355.431573 61.695105 
L 357.406704 71.988025 
L 358.342293 75.953107 
L 359.381836 77.143537 
L 360.317425 75.473314 
L 362.292557 68.815054 
L 363.228146 67.592939 
L 364.267689 69.638849 
L 365.203278 75.097627 
L 366.242821 82.941791 
L 367.17841 91.320065 
L 368.217953 98.172958 
L 369.153542 101.86646 
L 370.193085 101.703511 
L 371.128673 98.123169 
L 372.168217 92.469758 
L 373.103805 86.540239 
L 374.039394 81.932415 
L 375.286846 79.537976 
L 376.222435 79.289027 
L 377.158023 80.248613 
L 378.197567 80.981882 
L 379.23711 80.112823 
L 380.172699 76.785956 
L 381.108287 71.019386 
L 383.187374 56.489803 
L 384.330871 51.270922 
L 385.26646 49.976386 
L 386.202049 54.063679 
L 387.137637 64.175545 
L 388.281135 79.764294 
L 389.424632 98.910754 
L 390.360221 118.437427 
L 391.29581 134.465231 
L 392.335353 143.386667 
L 393.270942 142.924979 
L 394.310485 132.890062 
L 395.246074 115.368561 
L 396.181662 94.10377 
L 397.221205 73.450036 
L 398.364703 57.137071 
L 399.404246 47.355629 
L 400.339835 44.431607 
L 401.379378 47.097627 
L 403.458464 60.67215 
L 404.394053 67.86452 
L 405.433596 74.079198 
L 407.408728 83.602638 
L 409.487814 89.925949 
L 410.527357 91.075642 
L 411.5669 90.039108 
L 412.502489 86.422554 
L 413.438078 80.416088 
L 415.621119 65.329764 
L 416.556707 59.504352 
L 417.59625 57.073702 
L 418.531839 59.074349 
L 419.571382 65.524397 
L 422.482103 95.267042 
L 423.521646 100.418028 
L 424.457235 100.196237 
L 425.496778 94.818933 
L 427.367956 76.600375 
L 428.407499 69.498532 
L 429.447042 66.95925 
L 430.382631 69.82443 
L 431.526128 77.206906 
L 433.50126 95.140304 
L 434.436849 99.390547 
L 435.476392 97.494006 
L 436.411981 89.210786 
L 437.451524 76.165846 
L 438.387113 61.455209 
L 439.426656 48.795008 
L 440.362245 41.552849 
L 441.401788 41.851588 
L 442.337376 50.098597 
L 443.272965 64.940498 
L 444.312508 83.679586 
L 445.248097 102.998047 
L 446.28764 119.645962 
L 447.431138 131.047837 
L 448.366726 135.569661 
L 449.40627 132.68185 
L 450.445813 122.936618 
L 451.381401 107.922716 
L 453.252579 72.648872 
L 454.396076 58.698662 
L 455.331665 51.040078 
L 456.267254 51.375028 
L 457.410751 59.86646 
L 459.489838 93.854821 
L 460.425427 112.612014 
L 461.361015 127.512758 
L 462.296604 135.728083 
L 463.336147 135.995138 
L 464.37569 128.902347 
L 465.311279 116.599729 
L 467.182457 88.599729 
L 468.325954 78.252493 
L 469.261543 72.214342 
L 470.197132 70.358539 
L 471.132721 71.711917 
L 472.276218 74.925626 
L 474.147396 82.425787 
L 475.082984 85.562548 
L 477.162071 90.586796 
L 478.097659 92.782076 
L 479.033248 94.660511 
L 479.968837 95.81473 
L 481.112334 95.674413 
L 482.047923 93.746188 
L 482.983512 89.894265 
L 484.958644 78.270598 
L 487.141684 68.14968 
L 488.077273 66.275771 
L 489.012862 67.339464 
L 490.052405 71.349809 
L 491.091948 77.836069 
L 492.027537 85.847708 
L 494.106623 100.970243 
L 495.146166 105.15259 
L 496.185709 105.736489 
L 497.121298 102.749098 
L 500.032019 85.58518 
L 501.071562 82.552525 
L 502.007151 82.027469 
L 502.94274 83.24053 
L 503.982283 84.806647 
L 505.021826 85.376968 
L 505.957415 84.277065 
L 507.932547 79.06271 
L 508.97209 77.659541 
L 509.907678 78.908814 
L 510.843267 83.312952 
L 512.818399 98.100537 
L 513.857942 104.654691 
L 514.793531 107.895558 
L 515.72912 106.605548 
L 516.768663 100.721293 
L 517.808206 91.306486 
L 519.679384 69.208846 
L 520.614973 60.192357 
L 521.75847 54.140627 
L 522.798013 51.34787 
L 523.837556 51.447449 
L 524.773145 53.665361 
L 525.812688 57.137071 
L 528.723409 69.331057 
L 530.698541 76.921746 
L 531.842038 79.949874 
L 533.193444 81.841888 
L 534.232987 82.0501 
L 535.168576 80.230508 
L 536.208119 76.387637 
L 537.143708 70.942438 
L 539.11884 58.34108 
L 540.054429 52.796302 
L 541.093972 48.500796 
L 542.029561 45.689932 
L 543.380967 44.427081 
L 544.42051 44.712241 
L 545.356099 46.53636 
L 546.291687 49.799858 
L 548.370774 59.463615 
L 551.17754 75.52763 
L 555.335712 93.424818 
L 556.375255 96.452946 
L 557.310844 98.172958 
L 558.350387 98.358539 
L 559.285976 97.10474 
L 560.221565 94.751038 
L 562.300651 88.482044 
L 565.107418 78.67797 
L 566.250915 75.405419 
L 567.186504 72.309396 
L 568.330001 69.815377 
L 569.26559 68.538946 
L 570.513042 69.082108 
L 571.448631 71.829603 
L 572.384219 76.71806 
L 573.319808 83.199793 
L 575.398894 96.597789 
L 576.334483 100.974769 
L 577.270072 102.396043 
L 578.413569 100.44066 
L 579.557067 95.416411 
L 582.363833 73.943408 
L 583.403376 69.543796 
L 584.442919 68.031995 
L 585.378508 69.231478 
L 586.314097 72.273185 
L 587.249686 75.957634 
L 588.393183 79.157763 
L 589.328772 81.140304 
L 590.264361 81.687992 
L 591.19995 81.00904 
L 592.343447 79.474607 
L 593.279036 77.410592 
L 595.150213 72.232448 
L 596.293711 69.249583 
L 598.164888 63.510172 
L 599.100477 61.514051 
L 600.036066 60.522781 
L 601.179563 60.577097 
L 602.323061 61.400893 
L 603.25865 62.509848 
L 604.194238 63.406066 
L 605.233782 63.795332 
L 606.273325 63.67312 
L 608.144502 62.881009 
L 609.080091 62.699955 
L 610.119634 62.781429 
L 611.159177 63.093747 
L 612.094766 63.600699 
L 614.069898 64.958603 
L 615.109441 65.38408 
L 616.04503 65.044604 
L 616.980619 63.419645 
L 617.916208 60.224042 
L 619.059705 55.666007 
L 620.930883 45.898144 
L 621.866471 42.978649 
L 623.009969 42.458119 
L 623.945558 44.336554 
L 625.089055 47.907844 
L 626.024644 52.072086 
L 626.960233 55.72485 
L 627.999776 58.128342 
L 629.039319 59.11056 
L 629.974908 58.988348 
L 631.950039 57.730023 
L 632.989583 57.521811 
L 633.925171 57.829603 
L 634.86076 58.62624 
L 635.796349 59.884565 
L 636.835892 61.681526 
L 637.875435 64.189124 
L 638.811024 67.556728 
L 642.761288 85.698338 
L 643.696877 89.034258 
L 646.087826 92.632706 
L 647.023415 93.537976 
L 647.959003 94.262192 
L 648.998546 94.601668 
L 650.03809 93.805031 
L 650.973678 90.76785 
L 651.909267 84.562225 
L 652.94881 74.975416 
L 653.988353 62.885535 
L 654.923942 50.130281 
L 655.859531 39.045251 
L 656.79512 31.703511 
L 658.146526 29.318125 
L 659.186069 31.961513 
L 660.121658 38.732933 
L 661.161201 48.242794 
L 664.071922 80.977356 
L 665.423328 90.962483 
L 666.358916 100.033288 
L 668.438003 115.726143 
L 669.5815 123.081462 
L 669.5815 123.081462 
" style="fill:none;stroke:#1f77b4;stroke-linecap:square;stroke-width:1.5;"/>
   </g>
   <g id="line2d_16">
    <defs>
     <path d="M -3 3 
L 3 -3 
M -3 -3 
L 3 3 
" id="mf8f96b797e" style="stroke:#ff0000;"/>
    </defs>
    <g clip-path="url(#p7ff4ce68db)">
     <use style="fill:#ff0000;stroke:#ff0000;" x="121.118556" xlink:href="#mf8f96b797e" y="40.308102"/>
     <use style="fill:#ff0000;stroke:#ff0000;" x="145.132002" xlink:href="#mf8f96b797e" y="52.072086"/>
     <use style="fill:#ff0000;stroke:#ff0000;" x="187.649315" xlink:href="#mf8f96b797e" y="38.923039"/>
     <use style="fill:#ff0000;stroke:#ff0000;" x="216.444659" xlink:href="#mf8f96b797e" y="63.790805"/>
     <use style="fill:#ff0000;stroke:#ff0000;" x="240.458105" xlink:href="#mf8f96b797e" y="55.041371"/>
     <use style="fill:#ff0000;stroke:#ff0000;" x="262.600373" xlink:href="#mf8f96b797e" y="41.783692"/>
     <use style="fill:#ff0000;stroke:#ff0000;" x="292.331306" xlink:href="#mf8f96b797e" y="45.567721"/>
     <use style="fill:#ff0000;stroke:#ff0000;" x="341.605649" xlink:href="#mf8f96b797e" y="52.728406"/>
     <use style="fill:#ff0000;stroke:#ff0000;" x="363.228146" xlink:href="#mf8f96b797e" y="67.592939"/>
     <use style="fill:#ff0000;stroke:#ff0000;" x="400.339835" xlink:href="#mf8f96b797e" y="44.431607"/>
     <use style="fill:#ff0000;stroke:#ff0000;" x="440.362245" xlink:href="#mf8f96b797e" y="41.552849"/>
     <use style="fill:#ff0000;stroke:#ff0000;" x="488.077273" xlink:href="#mf8f96b797e" y="66.275771"/>
     <use style="fill:#ff0000;stroke:#ff0000;" x="522.798013" xlink:href="#mf8f96b797e" y="51.34787"/>
     <use style="fill:#ff0000;stroke:#ff0000;" x="543.380967" xlink:href="#mf8f96b797e" y="44.427081"/>
     <use style="fill:#ff0000;stroke:#ff0000;" x="569.26559" xlink:href="#mf8f96b797e" y="68.538946"/>
     <use style="fill:#ff0000;stroke:#ff0000;" x="600.036066" xlink:href="#mf8f96b797e" y="60.522781"/>
     <use style="fill:#ff0000;stroke:#ff0000;" x="623.009969" xlink:href="#mf8f96b797e" y="42.458119"/>
     <use style="fill:#ff0000;stroke:#ff0000;" x="658.146526" xlink:href="#mf8f96b797e" y="29.318125"/>
    </g>
   </g>
   <g id="line2d_17">
    <path clip-path="url(#p7ff4ce68db)" d="M 121.118556 176.318125 
L 121.118556 22.318125 
" style="fill:none;stroke:#808080;stroke-dasharray:5.55,2.4;stroke-dashoffset:0;stroke-width:1.5;"/>
   </g>
   <g id="line2d_18">
    <path clip-path="url(#p7ff4ce68db)" d="M 145.132002 176.318125 
L 145.132002 22.318125 
" style="fill:none;stroke:#808080;stroke-dasharray:5.55,2.4;stroke-dashoffset:0;stroke-width:1.5;"/>
   </g>
   <g id="line2d_19">
    <path clip-path="url(#p7ff4ce68db)" d="M 187.649315 176.318125 
L 187.649315 22.318125 
" style="fill:none;stroke:#808080;stroke-dasharray:5.55,2.4;stroke-dashoffset:0;stroke-width:1.5;"/>
   </g>
   <g id="line2d_20">
    <path clip-path="url(#p7ff4ce68db)" d="M 216.444659 176.318125 
L 216.444659 22.318125 
" style="fill:none;stroke:#808080;stroke-dasharray:5.55,2.4;stroke-dashoffset:0;stroke-width:1.5;"/>
   </g>
   <g id="line2d_21">
    <path clip-path="url(#p7ff4ce68db)" d="M 240.458105 176.318125 
L 240.458105 22.318125 
" style="fill:none;stroke:#808080;stroke-dasharray:5.55,2.4;stroke-dashoffset:0;stroke-width:1.5;"/>
   </g>
   <g id="line2d_22">
    <path clip-path="url(#p7ff4ce68db)" d="M 262.600373 176.318125 
L 262.600373 22.318125 
" style="fill:none;stroke:#808080;stroke-dasharray:5.55,2.4;stroke-dashoffset:0;stroke-width:1.5;"/>
   </g>
   <g id="line2d_23">
    <path clip-path="url(#p7ff4ce68db)" d="M 292.331306 176.318125 
L 292.331306 22.318125 
" style="fill:none;stroke:#808080;stroke-dasharray:5.55,2.4;stroke-dashoffset:0;stroke-width:1.5;"/>
   </g>
   <g id="line2d_24">
    <path clip-path="url(#p7ff4ce68db)" d="M 341.605649 176.318125 
L 341.605649 22.318125 
" style="fill:none;stroke:#808080;stroke-dasharray:5.55,2.4;stroke-dashoffset:0;stroke-width:1.5;"/>
   </g>
   <g id="line2d_25">
    <path clip-path="url(#p7ff4ce68db)" d="M 363.228146 176.318125 
L 363.228146 22.318125 
" style="fill:none;stroke:#808080;stroke-dasharray:5.55,2.4;stroke-dashoffset:0;stroke-width:1.5;"/>
   </g>
   <g id="line2d_26">
    <path clip-path="url(#p7ff4ce68db)" d="M 400.339835 176.318125 
L 400.339835 22.318125 
" style="fill:none;stroke:#808080;stroke-dasharray:5.55,2.4;stroke-dashoffset:0;stroke-width:1.5;"/>
   </g>
   <g id="line2d_27">
    <path clip-path="url(#p7ff4ce68db)" d="M 440.362245 176.318125 
L 440.362245 22.318125 
" style="fill:none;stroke:#808080;stroke-dasharray:5.55,2.4;stroke-dashoffset:0;stroke-width:1.5;"/>
   </g>
   <g id="line2d_28">
    <path clip-path="url(#p7ff4ce68db)" d="M 488.077273 176.318125 
L 488.077273 22.318125 
" style="fill:none;stroke:#808080;stroke-dasharray:5.55,2.4;stroke-dashoffset:0;stroke-width:1.5;"/>
   </g>
   <g id="line2d_29">
    <path clip-path="url(#p7ff4ce68db)" d="M 522.798013 176.318125 
L 522.798013 22.318125 
" style="fill:none;stroke:#808080;stroke-dasharray:5.55,2.4;stroke-dashoffset:0;stroke-width:1.5;"/>
   </g>
   <g id="line2d_30">
    <path clip-path="url(#p7ff4ce68db)" d="M 543.380967 176.318125 
L 543.380967 22.318125 
" style="fill:none;stroke:#808080;stroke-dasharray:5.55,2.4;stroke-dashoffset:0;stroke-width:1.5;"/>
   </g>
   <g id="line2d_31">
    <path clip-path="url(#p7ff4ce68db)" d="M 569.26559 176.318125 
L 569.26559 22.318125 
" style="fill:none;stroke:#808080;stroke-dasharray:5.55,2.4;stroke-dashoffset:0;stroke-width:1.5;"/>
   </g>
   <g id="line2d_32">
    <path clip-path="url(#p7ff4ce68db)" d="M 600.036066 176.318125 
L 600.036066 22.318125 
" style="fill:none;stroke:#808080;stroke-dasharray:5.55,2.4;stroke-dashoffset:0;stroke-width:1.5;"/>
   </g>
   <g id="line2d_33">
    <path clip-path="url(#p7ff4ce68db)" d="M 623.009969 176.318125 
L 623.009969 22.318125 
" style="fill:none;stroke:#808080;stroke-dasharray:5.55,2.4;stroke-dashoffset:0;stroke-width:1.5;"/>
   </g>
   <g id="line2d_34">
    <path clip-path="url(#p7ff4ce68db)" d="M 658.146526 176.318125 
L 658.146526 22.318125 
" style="fill:none;stroke:#808080;stroke-dasharray:5.55,2.4;stroke-dashoffset:0;stroke-width:1.5;"/>
   </g>
   <g id="patch_3">
    <path d="M 50.14375 176.318125 
L 50.14375 22.318125 
" style="fill:none;stroke:#000000;stroke-linecap:square;stroke-linejoin:miter;stroke-width:0.8;"/>
   </g>
   <g id="patch_4">
    <path d="M 699.078536 176.318125 
L 699.078536 22.318125 
" style="fill:none;stroke:#000000;stroke-linecap:square;stroke-linejoin:miter;stroke-width:0.8;"/>
   </g>
   <g id="patch_5">
    <path d="M 50.14375 176.318125 
L 699.078536 176.318125 
" style="fill:none;stroke:#000000;stroke-linecap:square;stroke-linejoin:miter;stroke-width:0.8;"/>
   </g>
   <g id="patch_6">
    <path d="M 50.14375 22.318125 
L 699.078536 22.318125 
" style="fill:none;stroke:#000000;stroke-linecap:square;stroke-linejoin:miter;stroke-width:0.8;"/>
   </g>
   <g id="text_18">
    <!-- Final Systolic Peaks -->
    <defs>
     <path d="M 9.8125 72.90625 
L 51.703125 72.90625 
L 51.703125 64.59375 
L 19.671875 64.59375 
L 19.671875 43.109375 
L 48.578125 43.109375 
L 48.578125 34.8125 
L 19.671875 34.8125 
L 19.671875 0 
L 9.8125 0 
z
" id="DejaVuSans-70"/>
     <path d="M 54.890625 33.015625 
L 54.890625 0 
L 45.90625 0 
L 45.90625 32.71875 
Q 45.90625 40.484375 42.875 44.328125 
Q 39.84375 48.1875 33.796875 48.1875 
Q 26.515625 48.1875 22.3125 43.546875 
Q 18.109375 38.921875 18.109375 30.90625 
L 18.109375 0 
L 9.078125 0 
L 9.078125 54.6875 
L 18.109375 54.6875 
L 18.109375 46.1875 
Q 21.34375 51.125 25.703125 53.5625 
Q 30.078125 56 35.796875 56 
Q 45.21875 56 50.046875 50.171875 
Q 54.890625 44.34375 54.890625 33.015625 
z
" id="DejaVuSans-110"/>
     <path d="M 53.515625 70.515625 
L 53.515625 60.890625 
Q 47.90625 63.578125 42.921875 64.890625 
Q 37.9375 66.21875 33.296875 66.21875 
Q 25.25 66.21875 20.875 63.09375 
Q 16.5 59.96875 16.5 54.203125 
Q 16.5 49.359375 19.40625 46.890625 
Q 22.3125 44.4375 30.421875 42.921875 
L 36.375 41.703125 
Q 47.40625 39.59375 52.65625 34.296875 
Q 57.90625 29 57.90625 20.125 
Q 57.90625 9.515625 50.796875 4.046875 
Q 43.703125 -1.421875 29.984375 -1.421875 
Q 24.8125 -1.421875 18.96875 -0.25 
Q 13.140625 0.921875 6.890625 3.21875 
L 6.890625 13.375 
Q 12.890625 10.015625 18.65625 8.296875 
Q 24.421875 6.59375 29.984375 6.59375 
Q 38.421875 6.59375 43.015625 9.90625 
Q 47.609375 13.234375 47.609375 19.390625 
Q 47.609375 24.75 44.3125 27.78125 
Q 41.015625 30.8125 33.5 32.328125 
L 27.484375 33.5 
Q 16.453125 35.6875 11.515625 40.375 
Q 6.59375 45.0625 6.59375 53.421875 
Q 6.59375 63.09375 13.40625 68.65625 
Q 20.21875 74.21875 32.171875 74.21875 
Q 37.3125 74.21875 42.625 73.28125 
Q 47.953125 72.359375 53.515625 70.515625 
z
" id="DejaVuSans-83"/>
     <path d="M 32.171875 -5.078125 
Q 28.375 -14.84375 24.75 -17.8125 
Q 21.140625 -20.796875 15.09375 -20.796875 
L 7.90625 -20.796875 
L 7.90625 -13.28125 
L 13.1875 -13.28125 
Q 16.890625 -13.28125 18.9375 -11.515625 
Q 21 -9.765625 23.484375 -3.21875 
L 25.09375 0.875 
L 2.984375 54.6875 
L 12.5 54.6875 
L 29.59375 11.921875 
L 46.6875 54.6875 
L 56.203125 54.6875 
z
" id="DejaVuSans-121"/>
     <path d="M 18.3125 70.21875 
L 18.3125 54.6875 
L 36.8125 54.6875 
L 36.8125 47.703125 
L 18.3125 47.703125 
L 18.3125 18.015625 
Q 18.3125 11.328125 20.140625 9.421875 
Q 21.96875 7.515625 27.59375 7.515625 
L 36.8125 7.515625 
L 36.8125 0 
L 27.59375 0 
Q 17.1875 0 13.234375 3.875 
Q 9.28125 7.765625 9.28125 18.015625 
L 9.28125 47.703125 
L 2.6875 47.703125 
L 2.6875 54.6875 
L 9.28125 54.6875 
L 9.28125 70.21875 
z
" id="DejaVuSans-116"/>
     <path d="M 30.609375 48.390625 
Q 23.390625 48.390625 19.1875 42.75 
Q 14.984375 37.109375 14.984375 27.296875 
Q 14.984375 17.484375 19.15625 11.84375 
Q 23.34375 6.203125 30.609375 6.203125 
Q 37.796875 6.203125 41.984375 11.859375 
Q 46.1875 17.53125 46.1875 27.296875 
Q 46.1875 37.015625 41.984375 42.703125 
Q 37.796875 48.390625 30.609375 48.390625 
z
M 30.609375 56 
Q 42.328125 56 49.015625 48.375 
Q 55.71875 40.765625 55.71875 27.296875 
Q 55.71875 13.875 49.015625 6.21875 
Q 42.328125 -1.421875 30.609375 -1.421875 
Q 18.84375 -1.421875 12.171875 6.21875 
Q 5.515625 13.875 5.515625 27.296875 
Q 5.515625 40.765625 12.171875 48.375 
Q 18.84375 56 30.609375 56 
z
" id="DejaVuSans-111"/>
     <path d="M 48.78125 52.59375 
L 48.78125 44.1875 
Q 44.96875 46.296875 41.140625 47.34375 
Q 37.3125 48.390625 33.40625 48.390625 
Q 24.65625 48.390625 19.8125 42.84375 
Q 14.984375 37.3125 14.984375 27.296875 
Q 14.984375 17.28125 19.8125 11.734375 
Q 24.65625 6.203125 33.40625 6.203125 
Q 37.3125 6.203125 41.140625 7.25 
Q 44.96875 8.296875 48.78125 10.40625 
L 48.78125 2.09375 
Q 45.015625 0.34375 40.984375 -0.53125 
Q 36.96875 -1.421875 32.421875 -1.421875 
Q 20.0625 -1.421875 12.78125 6.34375 
Q 5.515625 14.109375 5.515625 27.296875 
Q 5.515625 40.671875 12.859375 48.328125 
Q 20.21875 56 33.015625 56 
Q 37.15625 56 41.109375 55.140625 
Q 45.0625 54.296875 48.78125 52.59375 
z
" id="DejaVuSans-99"/>
     <path d="M 19.671875 64.796875 
L 19.671875 37.40625 
L 32.078125 37.40625 
Q 38.96875 37.40625 42.71875 40.96875 
Q 46.484375 44.53125 46.484375 51.125 
Q 46.484375 57.671875 42.71875 61.234375 
Q 38.96875 64.796875 32.078125 64.796875 
z
M 9.8125 72.90625 
L 32.078125 72.90625 
Q 44.34375 72.90625 50.609375 67.359375 
Q 56.890625 61.8125 56.890625 51.125 
Q 56.890625 40.328125 50.609375 34.8125 
Q 44.34375 29.296875 32.078125 29.296875 
L 19.671875 29.296875 
L 19.671875 0 
L 9.8125 0 
z
" id="DejaVuSans-80"/>
     <path d="M 9.078125 75.984375 
L 18.109375 75.984375 
L 18.109375 31.109375 
L 44.921875 54.6875 
L 56.390625 54.6875 
L 27.390625 29.109375 
L 57.625 0 
L 45.90625 0 
L 18.109375 26.703125 
L 18.109375 0 
L 9.078125 0 
z
" id="DejaVuSans-107"/>
    </defs>
    <g transform="translate(315.813955 16.318125)scale(0.12 -0.12)">
     <use xlink:href="#DejaVuSans-70"/>
     <use x="57.410156" xlink:href="#DejaVuSans-105"/>
     <use x="85.193359" xlink:href="#DejaVuSans-110"/>
     <use x="148.572266" xlink:href="#DejaVuSans-97"/>
     <use x="209.851562" xlink:href="#DejaVuSans-108"/>
     <use x="237.634766" xlink:href="#DejaVuSans-32"/>
     <use x="269.421875" xlink:href="#DejaVuSans-83"/>
     <use x="332.898438" xlink:href="#DejaVuSans-121"/>
     <use x="392.078125" xlink:href="#DejaVuSans-115"/>
     <use x="444.177734" xlink:href="#DejaVuSans-116"/>
     <use x="483.386719" xlink:href="#DejaVuSans-111"/>
     <use x="544.568359" xlink:href="#DejaVuSans-108"/>
     <use x="572.351562" xlink:href="#DejaVuSans-105"/>
     <use x="600.134766" xlink:href="#DejaVuSans-99"/>
     <use x="655.115234" xlink:href="#DejaVuSans-32"/>
     <use x="686.902344" xlink:href="#DejaVuSans-80"/>
     <use x="747.158203" xlink:href="#DejaVuSans-101"/>
     <use x="808.681641" xlink:href="#DejaVuSans-97"/>
     <use x="869.960938" xlink:href="#DejaVuSans-107"/>
     <use x="927.871094" xlink:href="#DejaVuSans-115"/>
    </g>
   </g>
  </g>
  <g id="axes_2">
   <g id="patch_7">
    <path d="M 50.14375 386.918125 
L 699.078536 386.918125 
L 699.078536 232.918125 
L 50.14375 232.918125 
z
" style="fill:#ffffff;"/>
   </g>
   <g id="matplotlib.axis_3">
    <g id="xtick_8">
     <g id="line2d_35">
      <g>
       <use style="stroke:#000000;stroke-width:0.8;" x="73.195618" xlink:href="#ma6958c6627" y="386.918125"/>
      </g>
     </g>
     <g id="text_19">
      <!-- 2.3 -->
      <g transform="translate(65.244056 401.516562)scale(0.1 -0.1)">
       <use xlink:href="#DejaVuSans-50"/>
       <use x="63.623047" xlink:href="#DejaVuSans-46"/>
       <use x="95.410156" xlink:href="#DejaVuSans-51"/>
      </g>
     </g>
    </g>
    <g id="xtick_9">
     <g id="line2d_36">
      <g>
       <use style="stroke:#000000;stroke-width:0.8;" x="177.149929" xlink:href="#ma6958c6627" y="386.918125"/>
      </g>
     </g>
     <g id="text_20">
      <!-- 2.4 -->
      <g transform="translate(169.198367 401.516562)scale(0.1 -0.1)">
       <use xlink:href="#DejaVuSans-50"/>
       <use x="63.623047" xlink:href="#DejaVuSans-46"/>
       <use x="95.410156" xlink:href="#DejaVuSans-52"/>
      </g>
     </g>
    </g>
    <g id="xtick_10">
     <g id="line2d_37">
      <g>
       <use style="stroke:#000000;stroke-width:0.8;" x="281.10424" xlink:href="#ma6958c6627" y="386.918125"/>
      </g>
     </g>
     <g id="text_21">
      <!-- 2.5 -->
      <g transform="translate(273.152678 401.516562)scale(0.1 -0.1)">
       <use xlink:href="#DejaVuSans-50"/>
       <use x="63.623047" xlink:href="#DejaVuSans-46"/>
       <use x="95.410156" xlink:href="#DejaVuSans-53"/>
      </g>
     </g>
    </g>
    <g id="xtick_11">
     <g id="line2d_38">
      <g>
       <use style="stroke:#000000;stroke-width:0.8;" x="385.058551" xlink:href="#ma6958c6627" y="386.918125"/>
      </g>
     </g>
     <g id="text_22">
      <!-- 2.6 -->
      <g transform="translate(377.106989 401.516562)scale(0.1 -0.1)">
       <use xlink:href="#DejaVuSans-50"/>
       <use x="63.623047" xlink:href="#DejaVuSans-46"/>
       <use x="95.410156" xlink:href="#DejaVuSans-54"/>
      </g>
     </g>
    </g>
    <g id="xtick_12">
     <g id="line2d_39">
      <g>
       <use style="stroke:#000000;stroke-width:0.8;" x="489.012862" xlink:href="#ma6958c6627" y="386.918125"/>
      </g>
     </g>
     <g id="text_23">
      <!-- 2.7 -->
      <g transform="translate(481.0613 401.516562)scale(0.1 -0.1)">
       <use xlink:href="#DejaVuSans-50"/>
       <use x="63.623047" xlink:href="#DejaVuSans-46"/>
       <use x="95.410156" xlink:href="#DejaVuSans-55"/>
      </g>
     </g>
    </g>
    <g id="xtick_13">
     <g id="line2d_40">
      <g>
       <use style="stroke:#000000;stroke-width:0.8;" x="592.967173" xlink:href="#ma6958c6627" y="386.918125"/>
      </g>
     </g>
     <g id="text_24">
      <!-- 2.8 -->
      <g transform="translate(585.01561 401.516562)scale(0.1 -0.1)">
       <use xlink:href="#DejaVuSans-50"/>
       <use x="63.623047" xlink:href="#DejaVuSans-46"/>
       <use x="95.410156" xlink:href="#DejaVuSans-56"/>
      </g>
     </g>
    </g>
    <g id="xtick_14">
     <g id="line2d_41">
      <g>
       <use style="stroke:#000000;stroke-width:0.8;" x="696.921484" xlink:href="#ma6958c6627" y="386.918125"/>
      </g>
     </g>
     <g id="text_25">
      <!-- 2.9 -->
      <g transform="translate(688.969921 401.516562)scale(0.1 -0.1)">
       <use xlink:href="#DejaVuSans-50"/>
       <use x="63.623047" xlink:href="#DejaVuSans-46"/>
       <use x="95.410156" xlink:href="#DejaVuSans-57"/>
      </g>
     </g>
    </g>
    <g id="text_26">
     <!-- Time (ms) -->
     <g transform="translate(349.258018 415.194687)scale(0.1 -0.1)">
      <use xlink:href="#DejaVuSans-84"/>
      <use x="61.037109" xlink:href="#DejaVuSans-105"/>
      <use x="88.820312" xlink:href="#DejaVuSans-109"/>
      <use x="186.232422" xlink:href="#DejaVuSans-101"/>
      <use x="247.755859" xlink:href="#DejaVuSans-32"/>
      <use x="279.542969" xlink:href="#DejaVuSans-40"/>
      <use x="318.556641" xlink:href="#DejaVuSans-109"/>
      <use x="415.96875" xlink:href="#DejaVuSans-115"/>
      <use x="468.068359" xlink:href="#DejaVuSans-41"/>
     </g>
    </g>
    <g id="text_27">
     <!-- 1e4 -->
     <g transform="translate(680.200411 414.194687)scale(0.1 -0.1)">
      <use xlink:href="#DejaVuSans-49"/>
      <use x="63.623047" xlink:href="#DejaVuSans-101"/>
      <use x="125.146484" xlink:href="#DejaVuSans-52"/>
     </g>
    </g>
   </g>
   <g id="matplotlib.axis_4">
    <g id="ytick_8">
     <g id="line2d_42">
      <g>
       <use style="stroke:#000000;stroke-width:0.8;" x="50.14375" xlink:href="#mdc657450d8" y="379.823072"/>
      </g>
     </g>
     <g id="text_28">
      <!-- 14.0 -->
      <g transform="translate(20.878125 383.62229)scale(0.1 -0.1)">
       <use xlink:href="#DejaVuSans-49"/>
       <use x="63.623047" xlink:href="#DejaVuSans-52"/>
       <use x="127.246094" xlink:href="#DejaVuSans-46"/>
       <use x="159.033203" xlink:href="#DejaVuSans-48"/>
      </g>
     </g>
    </g>
    <g id="ytick_9">
     <g id="line2d_43">
      <g>
       <use style="stroke:#000000;stroke-width:0.8;" x="50.14375" xlink:href="#mdc657450d8" y="357.191323"/>
      </g>
     </g>
     <g id="text_29">
      <!-- 14.5 -->
      <g transform="translate(20.878125 360.990541)scale(0.1 -0.1)">
       <use xlink:href="#DejaVuSans-49"/>
       <use x="63.623047" xlink:href="#DejaVuSans-52"/>
       <use x="127.246094" xlink:href="#DejaVuSans-46"/>
       <use x="159.033203" xlink:href="#DejaVuSans-53"/>
      </g>
     </g>
    </g>
    <g id="ytick_10">
     <g id="line2d_44">
      <g>
       <use style="stroke:#000000;stroke-width:0.8;" x="50.14375" xlink:href="#mdc657450d8" y="334.559573"/>
      </g>
     </g>
     <g id="text_30">
      <!-- 15.0 -->
      <g transform="translate(20.878125 338.358792)scale(0.1 -0.1)">
       <use xlink:href="#DejaVuSans-49"/>
       <use x="63.623047" xlink:href="#DejaVuSans-53"/>
       <use x="127.246094" xlink:href="#DejaVuSans-46"/>
       <use x="159.033203" xlink:href="#DejaVuSans-48"/>
      </g>
     </g>
    </g>
    <g id="ytick_11">
     <g id="line2d_45">
      <g>
       <use style="stroke:#000000;stroke-width:0.8;" x="50.14375" xlink:href="#mdc657450d8" y="311.927824"/>
      </g>
     </g>
     <g id="text_31">
      <!-- 15.5 -->
      <g transform="translate(20.878125 315.727043)scale(0.1 -0.1)">
       <use xlink:href="#DejaVuSans-49"/>
       <use x="63.623047" xlink:href="#DejaVuSans-53"/>
       <use x="127.246094" xlink:href="#DejaVuSans-46"/>
       <use x="159.033203" xlink:href="#DejaVuSans-53"/>
      </g>
     </g>
    </g>
    <g id="ytick_12">
     <g id="line2d_46">
      <g>
       <use style="stroke:#000000;stroke-width:0.8;" x="50.14375" xlink:href="#mdc657450d8" y="289.296075"/>
      </g>
     </g>
     <g id="text_32">
      <!-- 16.0 -->
      <g transform="translate(20.878125 293.095294)scale(0.1 -0.1)">
       <use xlink:href="#DejaVuSans-49"/>
       <use x="63.623047" xlink:href="#DejaVuSans-54"/>
       <use x="127.246094" xlink:href="#DejaVuSans-46"/>
       <use x="159.033203" xlink:href="#DejaVuSans-48"/>
      </g>
     </g>
    </g>
    <g id="ytick_13">
     <g id="line2d_47">
      <g>
       <use style="stroke:#000000;stroke-width:0.8;" x="50.14375" xlink:href="#mdc657450d8" y="266.664326"/>
      </g>
     </g>
     <g id="text_33">
      <!-- 16.5 -->
      <g transform="translate(20.878125 270.463545)scale(0.1 -0.1)">
       <use xlink:href="#DejaVuSans-49"/>
       <use x="63.623047" xlink:href="#DejaVuSans-54"/>
       <use x="127.246094" xlink:href="#DejaVuSans-46"/>
       <use x="159.033203" xlink:href="#DejaVuSans-53"/>
      </g>
     </g>
    </g>
    <g id="ytick_14">
     <g id="line2d_48">
      <g>
       <use style="stroke:#000000;stroke-width:0.8;" x="50.14375" xlink:href="#mdc657450d8" y="244.032577"/>
      </g>
     </g>
     <g id="text_34">
      <!-- 17.0 -->
      <g transform="translate(20.878125 247.831796)scale(0.1 -0.1)">
       <use xlink:href="#DejaVuSans-49"/>
       <use x="63.623047" xlink:href="#DejaVuSans-55"/>
       <use x="127.246094" xlink:href="#DejaVuSans-46"/>
       <use x="159.033203" xlink:href="#DejaVuSans-48"/>
      </g>
     </g>
    </g>
    <g id="text_35">
     <!-- ADC Value -->
     <g transform="translate(14.798438 336.382187)rotate(-90)scale(0.1 -0.1)">
      <use xlink:href="#DejaVuSans-65"/>
      <use x="68.408203" xlink:href="#DejaVuSans-68"/>
      <use x="145.410156" xlink:href="#DejaVuSans-67"/>
      <use x="215.234375" xlink:href="#DejaVuSans-32"/>
      <use x="247.021484" xlink:href="#DejaVuSans-86"/>
      <use x="315.320312" xlink:href="#DejaVuSans-97"/>
      <use x="376.599609" xlink:href="#DejaVuSans-108"/>
      <use x="404.382812" xlink:href="#DejaVuSans-117"/>
      <use x="467.761719" xlink:href="#DejaVuSans-101"/>
     </g>
    </g>
   </g>
   <g id="line2d_49">
    <path clip-path="url(#p92f453e9be)" d="M 79.640786 379.918125 
L 81.615918 313.760996 
L 82.655461 290.070081 
L 83.59105 274.698597 
L 84.526638 266.759379 
L 85.670136 264.115991 
L 86.813633 264.437362 
L 87.749222 266.030637 
L 88.684811 268.18518 
L 90.763897 274.712176 
L 92.635075 284.724462 
L 93.570663 289.712499 
L 94.506252 293.60516 
L 95.64975 295.963388 
L 96.585338 296.864132 
L 97.520927 296.732868 
L 98.456516 296.03581 
L 99.600013 294.935907 
L 100.535602 293.202315 
L 101.471191 290.328083 
L 102.40678 285.94205 
L 105.421455 269.574769 
L 106.357044 268.597077 
L 107.396587 273.005742 
L 108.43613 283.425399 
L 109.371719 298.842147 
L 111.242896 332.898403 
L 112.282439 343.960802 
L 113.321982 346.98893 
L 114.257571 341.072991 
L 115.19316 327.439625 
L 118.207835 272.335842 
L 119.143424 259.85217 
L 120.182967 252.881591 
L 121.118556 250.908102 
L 122.366007 252.573799 
L 123.301596 256.362354 
L 127.459769 278.002832 
L 129.330946 290.590611 
L 130.266535 295.954336 
L 131.306078 300.132157 
L 133.28121 306.677259 
L 134.216799 311.054239 
L 135.256342 317.065231 
L 137.231474 330.286699 
L 138.167063 333.097562 
L 139.102652 330.341015 
L 140.246149 321.224947 
L 141.181738 306.921681 
L 143.052915 275.37755 
L 144.092458 265.437685 
L 145.132002 262.672086 
L 146.06759 267.31612 
L 147.003179 277.735778 
L 147.938768 290.943667 
L 149.082265 303.386602 
L 150.017854 311.823718 
L 150.953443 314.086893 
L 151.889032 309.696334 
L 153.032529 300.068788 
L 153.968118 288.241436 
L 154.903707 278.12957 
L 155.839296 273.385956 
L 156.878839 276.214924 
L 157.918382 286.548581 
L 159.789559 318.165134 
L 160.725148 330.70765 
L 161.868646 336.057795 
L 162.804234 332.866719 
L 163.739823 322.202638 
L 165.714955 290.667559 
L 166.754498 276.441242 
L 167.690087 266.057795 
L 168.625676 259.879328 
L 169.665219 257.27215 
L 170.704762 257.353625 
L 171.640351 259.65301 
L 172.57594 264.423783 
L 173.615483 272.503317 
L 174.551072 284.769725 
L 175.590615 301.435745 
L 177.461792 342.51237 
L 178.501335 361.08851 
L 179.540878 373.554077 
L 180.476467 377.003156 
L 181.619965 370.068788 
L 182.555553 353.416347 
L 186.713726 259.114375 
L 187.649315 249.523039 
L 188.688858 250.392098 
L 189.728401 260.748387 
L 191.807487 296.366234 
L 192.84703 312.371407 
L 193.782619 321.600634 
L 194.718208 322.008005 
L 195.757751 314.005419 
L 198.668472 271.453204 
L 199.708015 263.55925 
L 200.643604 262.264714 
L 201.683147 267.012855 
L 203.658279 286.548581 
L 204.593867 296.719289 
L 205.529456 304.930087 
L 206.568999 310.47034 
L 207.504588 313.217834 
L 208.544131 313.326466 
L 209.47972 311.013502 
L 210.519263 306.527889 
L 212.494395 292.803996 
L 213.429984 285.226887 
L 214.365573 278.776838 
L 215.405116 274.807229 
L 216.444659 274.390805 
L 217.380248 278.016411 
L 219.563288 295.166751 
L 220.498877 305.726725 
L 221.434466 314.992163 
L 222.577963 321.116314 
L 223.721461 322.79559 
L 224.761004 319.572829 
L 225.800547 311.991193 
L 227.671724 290.436715 
L 228.711268 280.899696 
L 229.750811 274.712176 
L 230.686399 272.657213 
L 231.621988 274.336489 
L 233.701074 282.70571 
L 234.636663 285.493941 
L 235.572252 285.426046 
L 236.507841 282.248549 
L 239.522516 266.736748 
L 240.458105 265.641371 
L 241.497648 268.375286 
L 242.641145 274.381753 
L 244.616277 289.427339 
L 245.551866 294.447061 
L 246.591409 295.895493 
L 247.734906 293.600634 
L 250.749581 277.192616 
L 251.68517 274.454174 
L 252.620759 274.639754 
L 253.660302 277.020614 
L 254.595891 279.967268 
L 255.635434 281.583175 
L 256.571023 280.465167 
L 257.506612 276.242082 
L 258.650109 269.692454 
L 260.729195 256.348775 
L 261.664784 252.813696 
L 262.600373 252.383692 
L 263.847825 254.678552 
L 266.758545 266.782011 
L 267.694134 269.624559 
L 268.733677 271.883207 
L 269.77322 274.445121 
L 270.708809 278.27894 
L 271.644398 283.914245 
L 274.659073 304.137976 
L 275.594662 306.527889 
L 276.530251 304.663033 
L 277.569794 299.027727 
L 279.544926 285.000569 
L 280.480514 282.167074 
L 281.520057 284.656567 
L 282.559601 292.274413 
L 284.430778 313.181623 
L 285.366367 319.60904 
L 286.509864 319.704093 
L 287.445453 312.810463 
L 288.381042 300.258894 
L 289.316631 284.923621 
L 290.356174 270.412144 
L 291.395717 260.069434 
L 292.331306 256.167721 
L 293.266895 259.354271 
L 294.202483 268.538235 
L 295.345981 281.221067 
L 296.28157 294.184533 
L 297.217158 304.350715 
L 298.152747 309.637491 
L 299.296245 309.438332 
L 300.231833 304.631348 
L 303.142554 281.65107 
L 304.286052 276.264714 
L 305.325595 272.842794 
L 306.261183 271.127307 
L 307.196772 270.796883 
L 308.236315 271.661416 
L 309.275858 273.643958 
L 310.211447 276.640401 
L 313.226122 288.594491 
L 314.161711 291.817252 
L 315.0973 293.682108 
L 316.032889 293.768109 
L 317.072432 291.885147 
L 318.111975 288.209751 
L 320.918741 273.616799 
L 322.062239 270.855726 
L 322.997828 270.31709 
L 323.933416 271.860576 
L 324.869005 274.739334 
L 326.948091 280.347482 
L 327.88368 281.746124 
L 329.858812 283.113081 
L 330.898355 284.869305 
L 331.833944 288.18712 
L 333.705122 297.624559 
L 334.848619 301.019321 
L 335.784208 301.390482 
L 336.719797 297.841824 
L 337.655385 290.644927 
L 339.734472 272.100472 
L 340.67006 265.496528 
L 341.605649 263.328406 
L 342.645192 266.333903 
L 343.684735 273.98796 
L 346.491502 305.301248 
L 347.531045 310.669499 
L 348.570588 310.886764 
L 349.506177 306.048096 
L 352.520852 278.170307 
L 353.456441 272.050682 
L 354.392029 270.140563 
L 355.431573 272.295105 
L 357.406704 282.588025 
L 358.342293 286.553107 
L 359.381836 287.743537 
L 360.317425 286.073314 
L 362.292557 279.415054 
L 363.228146 278.192939 
L 364.267689 280.238849 
L 365.203278 285.697627 
L 366.242821 293.541791 
L 367.17841 301.920065 
L 368.217953 308.772958 
L 369.153542 312.46646 
L 370.193085 312.303511 
L 371.128673 308.723169 
L 372.168217 303.069758 
L 373.103805 297.140239 
L 374.039394 292.532415 
L 375.286846 290.137976 
L 376.222435 289.889027 
L 377.158023 290.848613 
L 378.197567 291.581882 
L 379.23711 290.712823 
L 380.172699 287.385956 
L 381.108287 281.619386 
L 383.187374 267.089803 
L 384.330871 261.870922 
L 385.26646 260.576386 
L 386.202049 264.663679 
L 387.137637 274.775545 
L 388.281135 290.364294 
L 389.424632 309.510754 
L 390.360221 329.037427 
L 391.29581 345.065231 
L 392.335353 353.986667 
L 393.270942 353.524979 
L 394.310485 343.490062 
L 395.246074 325.968561 
L 396.181662 304.70377 
L 397.221205 284.050036 
L 398.364703 267.737071 
L 399.404246 257.955629 
L 400.339835 255.031607 
L 401.379378 257.697627 
L 403.458464 271.27215 
L 404.394053 278.46452 
L 405.433596 284.679198 
L 407.408728 294.202638 
L 409.487814 300.525949 
L 410.527357 301.675642 
L 411.5669 300.639108 
L 412.502489 297.022554 
L 413.438078 291.016088 
L 415.621119 275.929764 
L 416.556707 270.104352 
L 417.59625 267.673702 
L 418.531839 269.674349 
L 419.571382 276.124397 
L 422.482103 305.867042 
L 423.521646 311.018028 
L 424.457235 310.796237 
L 425.496778 305.418933 
L 427.367956 287.200375 
L 428.407499 280.098532 
L 429.447042 277.55925 
L 430.382631 280.42443 
L 431.526128 287.806906 
L 433.50126 305.740304 
L 434.436849 309.990547 
L 435.476392 308.094006 
L 436.411981 299.810786 
L 437.451524 286.765846 
L 438.387113 272.055209 
L 439.426656 259.395008 
L 440.362245 252.152849 
L 441.401788 252.451588 
L 442.337376 260.698597 
L 443.272965 275.540498 
L 444.312508 294.279586 
L 445.248097 313.598047 
L 446.28764 330.245962 
L 447.431138 341.647837 
L 448.366726 346.169661 
L 449.40627 343.28185 
L 450.445813 333.536618 
L 451.381401 318.522716 
L 453.252579 283.248872 
L 454.396076 269.298662 
L 455.331665 261.640078 
L 456.267254 261.975028 
L 457.410751 270.46646 
L 459.489838 304.454821 
L 460.425427 323.212014 
L 461.361015 338.112758 
L 462.296604 346.328083 
L 463.336147 346.595138 
L 464.37569 339.502347 
L 465.311279 327.199729 
L 467.182457 299.199729 
L 468.325954 288.852493 
L 469.261543 282.814342 
L 470.197132 280.958539 
L 471.132721 282.311917 
L 472.276218 285.525626 
L 474.147396 293.025787 
L 475.082984 296.162548 
L 477.162071 301.186796 
L 478.097659 303.382076 
L 479.033248 305.260511 
L 479.968837 306.41473 
L 481.112334 306.274413 
L 482.047923 304.346188 
L 482.983512 300.494265 
L 484.958644 288.870598 
L 487.141684 278.74968 
L 488.077273 276.875771 
L 489.012862 277.939464 
L 490.052405 281.949809 
L 491.091948 288.436069 
L 492.027537 296.447708 
L 494.106623 311.570243 
L 495.146166 315.75259 
L 496.185709 316.336489 
L 497.121298 313.349098 
L 500.032019 296.18518 
L 501.071562 293.152525 
L 502.007151 292.627469 
L 502.94274 293.84053 
L 503.982283 295.406647 
L 505.021826 295.976968 
L 505.957415 294.877065 
L 507.932547 289.66271 
L 508.97209 288.259541 
L 509.907678 289.508814 
L 510.843267 293.912952 
L 512.818399 308.700537 
L 513.857942 315.254691 
L 514.793531 318.495558 
L 515.72912 317.205548 
L 516.768663 311.321293 
L 517.808206 301.906486 
L 519.679384 279.808846 
L 520.614973 270.792357 
L 521.75847 264.740627 
L 522.798013 261.94787 
L 523.837556 262.047449 
L 524.773145 264.265361 
L 525.812688 267.737071 
L 528.723409 279.931057 
L 530.698541 287.521746 
L 531.842038 290.549874 
L 533.193444 292.441888 
L 534.232987 292.6501 
L 535.168576 290.830508 
L 536.208119 286.987637 
L 537.143708 281.542438 
L 539.11884 268.94108 
L 540.054429 263.396302 
L 541.093972 259.100796 
L 542.029561 256.289932 
L 543.380967 255.027081 
L 544.42051 255.312241 
L 545.356099 257.13636 
L 546.291687 260.399858 
L 548.370774 270.063615 
L 551.17754 286.12763 
L 555.335712 304.024818 
L 556.375255 307.052946 
L 557.310844 308.772958 
L 558.350387 308.958539 
L 559.285976 307.70474 
L 560.221565 305.351038 
L 562.300651 299.082044 
L 565.107418 289.27797 
L 566.250915 286.005419 
L 567.186504 282.909396 
L 568.330001 280.415377 
L 569.26559 279.138946 
L 570.513042 279.682108 
L 571.448631 282.429603 
L 572.384219 287.31806 
L 573.319808 293.799793 
L 575.398894 307.197789 
L 576.334483 311.574769 
L 577.270072 312.996043 
L 578.413569 311.04066 
L 579.557067 306.016411 
L 582.363833 284.543408 
L 583.403376 280.143796 
L 584.442919 278.631995 
L 585.378508 279.831478 
L 586.314097 282.873185 
L 587.249686 286.557634 
L 588.393183 289.757763 
L 589.328772 291.740304 
L 590.264361 292.287992 
L 591.19995 291.60904 
L 592.343447 290.074607 
L 593.279036 288.010592 
L 595.150213 282.832448 
L 596.293711 279.849583 
L 598.164888 274.110172 
L 599.100477 272.114051 
L 600.036066 271.122781 
L 601.179563 271.177097 
L 602.323061 272.000893 
L 603.25865 273.109848 
L 604.194238 274.006066 
L 605.233782 274.395332 
L 606.273325 274.27312 
L 608.144502 273.481009 
L 609.080091 273.299955 
L 610.119634 273.381429 
L 611.159177 273.693747 
L 612.094766 274.200699 
L 614.069898 275.558603 
L 615.109441 275.98408 
L 616.04503 275.644604 
L 616.980619 274.019645 
L 617.916208 270.824042 
L 619.059705 266.266007 
L 620.930883 256.498144 
L 621.866471 253.578649 
L 623.009969 253.058119 
L 623.945558 254.936554 
L 625.089055 258.507844 
L 626.024644 262.672086 
L 626.960233 266.32485 
L 627.999776 268.728342 
L 629.039319 269.71056 
L 629.974908 269.588348 
L 631.950039 268.330023 
L 632.989583 268.121811 
L 633.925171 268.429603 
L 634.86076 269.22624 
L 635.796349 270.484565 
L 636.835892 272.281526 
L 637.875435 274.789124 
L 638.811024 278.156728 
L 642.761288 296.298338 
L 643.696877 299.634258 
L 646.087826 303.232706 
L 647.023415 304.137976 
L 647.959003 304.862192 
L 648.998546 305.201668 
L 650.03809 304.405031 
L 650.973678 301.36785 
L 651.909267 295.162225 
L 652.94881 285.575416 
L 653.988353 273.485535 
L 654.923942 260.730281 
L 655.859531 249.645251 
L 656.79512 242.303511 
L 658.146526 239.918125 
L 659.186069 242.561513 
L 660.121658 249.332933 
L 661.161201 258.842794 
L 664.071922 291.577356 
L 665.423328 301.562483 
L 666.358916 310.633288 
L 668.438003 326.326143 
L 669.5815 333.681462 
L 669.5815 333.681462 
" style="fill:none;stroke:#1f77b4;stroke-linecap:square;stroke-width:1.5;"/>
   </g>
   <g id="line2d_50">
    <g clip-path="url(#p92f453e9be)">
     <use style="fill:#ff0000;stroke:#ff0000;" x="92.635075" xlink:href="#mf8f96b797e" y="284.724462"/>
     <use style="fill:#ff0000;stroke:#ff0000;" x="126.420226" xlink:href="#mf8f96b797e" y="271.932997"/>
     <use style="fill:#ff0000;stroke:#ff0000;" x="159.789559" xlink:href="#mf8f96b797e" y="318.165134"/>
     <use style="fill:#ff0000;stroke:#ff0000;" x="203.658279" xlink:href="#mf8f96b797e" y="286.548581"/>
     <use style="fill:#ff0000;stroke:#ff0000;" x="232.661531" xlink:href="#mf8f96b797e" y="278.342309"/>
     <use style="fill:#ff0000;stroke:#ff0000;" x="254.595891" xlink:href="#mf8f96b797e" y="279.967268"/>
     <use style="fill:#ff0000;stroke:#ff0000;" x="296.28157" xlink:href="#mf8f96b797e" y="294.184533"/>
     <use style="fill:#ff0000;stroke:#ff0000;" x="326.012503" xlink:href="#mf8f96b797e" y="277.880621"/>
     <use style="fill:#ff0000;stroke:#ff0000;" x="357.406704" xlink:href="#mf8f96b797e" y="282.588025"/>
     <use style="fill:#ff0000;stroke:#ff0000;" x="377.158023" xlink:href="#mf8f96b797e" y="290.848613"/>
     <use style="fill:#ff0000;stroke:#ff0000;" x="421.546514" xlink:href="#mf8f96b797e" y="296.678552"/>
     <use style="fill:#ff0000;stroke:#ff0000;" x="459.489838" xlink:href="#mf8f96b797e" y="304.454821"/>
     <use style="fill:#ff0000;stroke:#ff0000;" x="493.171034" xlink:href="#mf8f96b797e" y="304.667559"/>
     <use style="fill:#ff0000;stroke:#ff0000;" x="527.78782" xlink:href="#mf8f96b797e" y="275.866395"/>
     <use style="fill:#ff0000;stroke:#ff0000;" x="549.306362" xlink:href="#mf8f96b797e" y="275.576709"/>
     <use style="fill:#ff0000;stroke:#ff0000;" x="587.249686" xlink:href="#mf8f96b797e" y="286.557634"/>
     <use style="fill:#ff0000;stroke:#ff0000;" x="609.080091" xlink:href="#mf8f96b797e" y="273.299955"/>
     <use style="fill:#ff0000;stroke:#ff0000;" x="640.786156" xlink:href="#mf8f96b797e" y="287.150585"/>
    </g>
   </g>
   <g id="line2d_51">
    <path clip-path="url(#p92f453e9be)" d="M 92.635075 386.918125 
L 92.635075 232.918125 
" style="fill:none;stroke:#808080;stroke-dasharray:5.55,2.4;stroke-dashoffset:0;stroke-width:1.5;"/>
   </g>
   <g id="line2d_52">
    <path clip-path="url(#p92f453e9be)" d="M 126.420226 386.918125 
L 126.420226 232.918125 
" style="fill:none;stroke:#808080;stroke-dasharray:5.55,2.4;stroke-dashoffset:0;stroke-width:1.5;"/>
   </g>
   <g id="line2d_53">
    <path clip-path="url(#p92f453e9be)" d="M 159.789559 386.918125 
L 159.789559 232.918125 
" style="fill:none;stroke:#808080;stroke-dasharray:5.55,2.4;stroke-dashoffset:0;stroke-width:1.5;"/>
   </g>
   <g id="line2d_54">
    <path clip-path="url(#p92f453e9be)" d="M 203.658279 386.918125 
L 203.658279 232.918125 
" style="fill:none;stroke:#808080;stroke-dasharray:5.55,2.4;stroke-dashoffset:0;stroke-width:1.5;"/>
   </g>
   <g id="line2d_55">
    <path clip-path="url(#p92f453e9be)" d="M 232.661531 386.918125 
L 232.661531 232.918125 
" style="fill:none;stroke:#808080;stroke-dasharray:5.55,2.4;stroke-dashoffset:0;stroke-width:1.5;"/>
   </g>
   <g id="line2d_56">
    <path clip-path="url(#p92f453e9be)" d="M 254.595891 386.918125 
L 254.595891 232.918125 
" style="fill:none;stroke:#808080;stroke-dasharray:5.55,2.4;stroke-dashoffset:0;stroke-width:1.5;"/>
   </g>
   <g id="line2d_57">
    <path clip-path="url(#p92f453e9be)" d="M 296.28157 386.918125 
L 296.28157 232.918125 
" style="fill:none;stroke:#808080;stroke-dasharray:5.55,2.4;stroke-dashoffset:0;stroke-width:1.5;"/>
   </g>
   <g id="line2d_58">
    <path clip-path="url(#p92f453e9be)" d="M 326.012503 386.918125 
L 326.012503 232.918125 
" style="fill:none;stroke:#808080;stroke-dasharray:5.55,2.4;stroke-dashoffset:0;stroke-width:1.5;"/>
   </g>
   <g id="line2d_59">
    <path clip-path="url(#p92f453e9be)" d="M 357.406704 386.918125 
L 357.406704 232.918125 
" style="fill:none;stroke:#808080;stroke-dasharray:5.55,2.4;stroke-dashoffset:0;stroke-width:1.5;"/>
   </g>
   <g id="line2d_60">
    <path clip-path="url(#p92f453e9be)" d="M 377.158023 386.918125 
L 377.158023 232.918125 
" style="fill:none;stroke:#808080;stroke-dasharray:5.55,2.4;stroke-dashoffset:0;stroke-width:1.5;"/>
   </g>
   <g id="line2d_61">
    <path clip-path="url(#p92f453e9be)" d="M 421.546514 386.918125 
L 421.546514 232.918125 
" style="fill:none;stroke:#808080;stroke-dasharray:5.55,2.4;stroke-dashoffset:0;stroke-width:1.5;"/>
   </g>
   <g id="line2d_62">
    <path clip-path="url(#p92f453e9be)" d="M 459.489838 386.918125 
L 459.489838 232.918125 
" style="fill:none;stroke:#808080;stroke-dasharray:5.55,2.4;stroke-dashoffset:0;stroke-width:1.5;"/>
   </g>
   <g id="line2d_63">
    <path clip-path="url(#p92f453e9be)" d="M 493.171034 386.918125 
L 493.171034 232.918125 
" style="fill:none;stroke:#808080;stroke-dasharray:5.55,2.4;stroke-dashoffset:0;stroke-width:1.5;"/>
   </g>
   <g id="line2d_64">
    <path clip-path="url(#p92f453e9be)" d="M 527.78782 386.918125 
L 527.78782 232.918125 
" style="fill:none;stroke:#808080;stroke-dasharray:5.55,2.4;stroke-dashoffset:0;stroke-width:1.5;"/>
   </g>
   <g id="line2d_65">
    <path clip-path="url(#p92f453e9be)" d="M 549.306362 386.918125 
L 549.306362 232.918125 
" style="fill:none;stroke:#808080;stroke-dasharray:5.55,2.4;stroke-dashoffset:0;stroke-width:1.5;"/>
   </g>
   <g id="line2d_66">
    <path clip-path="url(#p92f453e9be)" d="M 587.249686 386.918125 
L 587.249686 232.918125 
" style="fill:none;stroke:#808080;stroke-dasharray:5.55,2.4;stroke-dashoffset:0;stroke-width:1.5;"/>
   </g>
   <g id="line2d_67">
    <path clip-path="url(#p92f453e9be)" d="M 609.080091 386.918125 
L 609.080091 232.918125 
" style="fill:none;stroke:#808080;stroke-dasharray:5.55,2.4;stroke-dashoffset:0;stroke-width:1.5;"/>
   </g>
   <g id="line2d_68">
    <path clip-path="url(#p92f453e9be)" d="M 640.786156 386.918125 
L 640.786156 232.918125 
" style="fill:none;stroke:#808080;stroke-dasharray:5.55,2.4;stroke-dashoffset:0;stroke-width:1.5;"/>
   </g>
   <g id="patch_8">
    <path d="M 50.14375 386.918125 
L 50.14375 232.918125 
" style="fill:none;stroke:#000000;stroke-linecap:square;stroke-linejoin:miter;stroke-width:0.8;"/>
   </g>
   <g id="patch_9">
    <path d="M 699.078536 386.918125 
L 699.078536 232.918125 
" style="fill:none;stroke:#000000;stroke-linecap:square;stroke-linejoin:miter;stroke-width:0.8;"/>
   </g>
   <g id="patch_10">
    <path d="M 50.14375 386.918125 
L 699.078536 386.918125 
" style="fill:none;stroke:#000000;stroke-linecap:square;stroke-linejoin:miter;stroke-width:0.8;"/>
   </g>
   <g id="patch_11">
    <path d="M 50.14375 232.918125 
L 699.078536 232.918125 
" style="fill:none;stroke:#000000;stroke-linecap:square;stroke-linejoin:miter;stroke-width:0.8;"/>
   </g>
   <g id="text_36">
    <!-- Final Diastolic Peaks -->
    <g transform="translate(313.210518 226.918125)scale(0.12 -0.12)">
     <use xlink:href="#DejaVuSans-70"/>
     <use x="57.410156" xlink:href="#DejaVuSans-105"/>
     <use x="85.193359" xlink:href="#DejaVuSans-110"/>
     <use x="148.572266" xlink:href="#DejaVuSans-97"/>
     <use x="209.851562" xlink:href="#DejaVuSans-108"/>
     <use x="237.634766" xlink:href="#DejaVuSans-32"/>
     <use x="269.421875" xlink:href="#DejaVuSans-68"/>
     <use x="346.423828" xlink:href="#DejaVuSans-105"/>
     <use x="374.207031" xlink:href="#DejaVuSans-97"/>
     <use x="435.486328" xlink:href="#DejaVuSans-115"/>
     <use x="487.585938" xlink:href="#DejaVuSans-116"/>
     <use x="526.794922" xlink:href="#DejaVuSans-111"/>
     <use x="587.976562" xlink:href="#DejaVuSans-108"/>
     <use x="615.759766" xlink:href="#DejaVuSans-105"/>
     <use x="643.542969" xlink:href="#DejaVuSans-99"/>
     <use x="698.523438" xlink:href="#DejaVuSans-32"/>
     <use x="730.310547" xlink:href="#DejaVuSans-80"/>
     <use x="790.566406" xlink:href="#DejaVuSans-101"/>
     <use x="852.089844" xlink:href="#DejaVuSans-97"/>
     <use x="913.369141" xlink:href="#DejaVuSans-107"/>
     <use x="971.279297" xlink:href="#DejaVuSans-115"/>
    </g>
   </g>
  </g>
 </g>
 <defs>
  <clipPath id="p7ff4ce68db">
   <rect height="154" width="648.934786" x="50.14375" y="22.318125"/>
  </clipPath>
  <clipPath id="p92f453e9be">
   <rect height="154" width="648.934786" x="50.14375" y="232.918125"/>
  </clipPath>
 </defs>
</svg>
