<?xml version="1.0" encoding="utf-8" standalone="no"?>
<!DOCTYPE svg PUBLIC "-//W3C//DTD SVG 1.1//EN"
  "http://www.w3.org/Graphics/SVG/1.1/DTD/svg11.dtd">
<!-- Created with matplotlib (https://matplotlib.org/) -->
<svg height="424.474375pt" version="1.1" viewBox="0 0 712.433125 424.474375" width="712.433125pt" xmlns="http://www.w3.org/2000/svg" xmlns:xlink="http://www.w3.org/1999/xlink">
 <defs>
  <style type="text/css">
*{stroke-linecap:butt;stroke-linejoin:round;}
  </style>
 </defs>
 <g id="figure_1">
  <g id="patch_1">
   <path d="M 0 424.474375 
L 712.433125 424.474375 
L 712.433125 0 
L 0 0 
z
" style="fill:#ffffff;"/>
  </g>
  <g id="axes_1">
   <g id="patch_2">
    <path d="M 40.603125 106.118125 
L 705.233125 106.118125 
L 705.233125 22.318125 
L 40.603125 22.318125 
z
" style="fill:#ffffff;"/>
   </g>
   <g id="matplotlib.axis_1">
    <g id="xtick_1">
     <g id="line2d_1">
      <defs>
       <path d="M 0 0 
L 0 3.5 
" id="mc5204e78b1" style="stroke:#000000;stroke-width:0.8;"/>
      </defs>
      <g>
       <use style="stroke:#000000;stroke-width:0.8;" x="102.451603" xlink:href="#mc5204e78b1" y="106.118125"/>
      </g>
     </g>
     <g id="text_1">
      <!-- 4.60 -->
      <defs>
       <path d="M 37.796875 64.3125 
L 12.890625 25.390625 
L 37.796875 25.390625 
z
M 35.203125 72.90625 
L 47.609375 72.90625 
L 47.609375 25.390625 
L 58.015625 25.390625 
L 58.015625 17.1875 
L 47.609375 17.1875 
L 47.609375 0 
L 37.796875 0 
L 37.796875 17.1875 
L 4.890625 17.1875 
L 4.890625 26.703125 
z
" id="DejaVuSans-52"/>
       <path d="M 10.6875 12.40625 
L 21 12.40625 
L 21 0 
L 10.6875 0 
z
" id="DejaVuSans-46"/>
       <path d="M 33.015625 40.375 
Q 26.375 40.375 22.484375 35.828125 
Q 18.609375 31.296875 18.609375 23.390625 
Q 18.609375 15.53125 22.484375 10.953125 
Q 26.375 6.390625 33.015625 6.390625 
Q 39.65625 6.390625 43.53125 10.953125 
Q 47.40625 15.53125 47.40625 23.390625 
Q 47.40625 31.296875 43.53125 35.828125 
Q 39.65625 40.375 33.015625 40.375 
z
M 52.59375 71.296875 
L 52.59375 62.3125 
Q 48.875 64.0625 45.09375 64.984375 
Q 41.3125 65.921875 37.59375 65.921875 
Q 27.828125 65.921875 22.671875 59.328125 
Q 17.53125 52.734375 16.796875 39.40625 
Q 19.671875 43.65625 24.015625 45.921875 
Q 28.375 48.1875 33.59375 48.1875 
Q 44.578125 48.1875 50.953125 41.515625 
Q 57.328125 34.859375 57.328125 23.390625 
Q 57.328125 12.15625 50.6875 5.359375 
Q 44.046875 -1.421875 33.015625 -1.421875 
Q 20.359375 -1.421875 13.671875 8.265625 
Q 6.984375 17.96875 6.984375 36.375 
Q 6.984375 53.65625 15.1875 63.9375 
Q 23.390625 74.21875 37.203125 74.21875 
Q 40.921875 74.21875 44.703125 73.484375 
Q 48.484375 72.75 52.59375 71.296875 
z
" id="DejaVuSans-54"/>
       <path d="M 31.78125 66.40625 
Q 24.171875 66.40625 20.328125 58.90625 
Q 16.5 51.421875 16.5 36.375 
Q 16.5 21.390625 20.328125 13.890625 
Q 24.171875 6.390625 31.78125 6.390625 
Q 39.453125 6.390625 43.28125 13.890625 
Q 47.125 21.390625 47.125 36.375 
Q 47.125 51.421875 43.28125 58.90625 
Q 39.453125 66.40625 31.78125 66.40625 
z
M 31.78125 74.21875 
Q 44.046875 74.21875 50.515625 64.515625 
Q 56.984375 54.828125 56.984375 36.375 
Q 56.984375 17.96875 50.515625 8.265625 
Q 44.046875 -1.421875 31.78125 -1.421875 
Q 19.53125 -1.421875 13.0625 8.265625 
Q 6.59375 17.96875 6.59375 36.375 
Q 6.59375 54.828125 13.0625 64.515625 
Q 19.53125 74.21875 31.78125 74.21875 
z
" id="DejaVuSans-48"/>
      </defs>
      <g transform="translate(91.318791 120.716562)scale(0.1 -0.1)">
       <use xlink:href="#DejaVuSans-52"/>
       <use x="63.623047" xlink:href="#DejaVuSans-46"/>
       <use x="95.410156" xlink:href="#DejaVuSans-54"/>
       <use x="159.033203" xlink:href="#DejaVuSans-48"/>
      </g>
     </g>
    </g>
    <g id="xtick_2">
     <g id="line2d_2">
      <g>
       <use style="stroke:#000000;stroke-width:0.8;" x="179.617515" xlink:href="#mc5204e78b1" y="106.118125"/>
      </g>
     </g>
     <g id="text_2">
      <!-- 4.65 -->
      <defs>
       <path d="M 10.796875 72.90625 
L 49.515625 72.90625 
L 49.515625 64.59375 
L 19.828125 64.59375 
L 19.828125 46.734375 
Q 21.96875 47.46875 24.109375 47.828125 
Q 26.265625 48.1875 28.421875 48.1875 
Q 40.625 48.1875 47.75 41.5 
Q 54.890625 34.8125 54.890625 23.390625 
Q 54.890625 11.625 47.5625 5.09375 
Q 40.234375 -1.421875 26.90625 -1.421875 
Q 22.3125 -1.421875 17.546875 -0.640625 
Q 12.796875 0.140625 7.71875 1.703125 
L 7.71875 11.625 
Q 12.109375 9.234375 16.796875 8.0625 
Q 21.484375 6.890625 26.703125 6.890625 
Q 35.15625 6.890625 40.078125 11.328125 
Q 45.015625 15.765625 45.015625 23.390625 
Q 45.015625 31 40.078125 35.4375 
Q 35.15625 39.890625 26.703125 39.890625 
Q 22.75 39.890625 18.8125 39.015625 
Q 14.890625 38.140625 10.796875 36.28125 
z
" id="DejaVuSans-53"/>
      </defs>
      <g transform="translate(168.484703 120.716562)scale(0.1 -0.1)">
       <use xlink:href="#DejaVuSans-52"/>
       <use x="63.623047" xlink:href="#DejaVuSans-46"/>
       <use x="95.410156" xlink:href="#DejaVuSans-54"/>
       <use x="159.033203" xlink:href="#DejaVuSans-53"/>
      </g>
     </g>
    </g>
    <g id="xtick_3">
     <g id="line2d_3">
      <g>
       <use style="stroke:#000000;stroke-width:0.8;" x="256.783427" xlink:href="#mc5204e78b1" y="106.118125"/>
      </g>
     </g>
     <g id="text_3">
      <!-- 4.70 -->
      <defs>
       <path d="M 8.203125 72.90625 
L 55.078125 72.90625 
L 55.078125 68.703125 
L 28.609375 0 
L 18.3125 0 
L 43.21875 64.59375 
L 8.203125 64.59375 
z
" id="DejaVuSans-55"/>
      </defs>
      <g transform="translate(245.650615 120.716562)scale(0.1 -0.1)">
       <use xlink:href="#DejaVuSans-52"/>
       <use x="63.623047" xlink:href="#DejaVuSans-46"/>
       <use x="95.410156" xlink:href="#DejaVuSans-55"/>
       <use x="159.033203" xlink:href="#DejaVuSans-48"/>
      </g>
     </g>
    </g>
    <g id="xtick_4">
     <g id="line2d_4">
      <g>
       <use style="stroke:#000000;stroke-width:0.8;" x="333.949339" xlink:href="#mc5204e78b1" y="106.118125"/>
      </g>
     </g>
     <g id="text_4">
      <!-- 4.75 -->
      <g transform="translate(322.816527 120.716562)scale(0.1 -0.1)">
       <use xlink:href="#DejaVuSans-52"/>
       <use x="63.623047" xlink:href="#DejaVuSans-46"/>
       <use x="95.410156" xlink:href="#DejaVuSans-55"/>
       <use x="159.033203" xlink:href="#DejaVuSans-53"/>
      </g>
     </g>
    </g>
    <g id="xtick_5">
     <g id="line2d_5">
      <g>
       <use style="stroke:#000000;stroke-width:0.8;" x="411.115251" xlink:href="#mc5204e78b1" y="106.118125"/>
      </g>
     </g>
     <g id="text_5">
      <!-- 4.80 -->
      <defs>
       <path d="M 31.78125 34.625 
Q 24.75 34.625 20.71875 30.859375 
Q 16.703125 27.09375 16.703125 20.515625 
Q 16.703125 13.921875 20.71875 10.15625 
Q 24.75 6.390625 31.78125 6.390625 
Q 38.8125 6.390625 42.859375 10.171875 
Q 46.921875 13.96875 46.921875 20.515625 
Q 46.921875 27.09375 42.890625 30.859375 
Q 38.875 34.625 31.78125 34.625 
z
M 21.921875 38.8125 
Q 15.578125 40.375 12.03125 44.71875 
Q 8.5 49.078125 8.5 55.328125 
Q 8.5 64.0625 14.71875 69.140625 
Q 20.953125 74.21875 31.78125 74.21875 
Q 42.671875 74.21875 48.875 69.140625 
Q 55.078125 64.0625 55.078125 55.328125 
Q 55.078125 49.078125 51.53125 44.71875 
Q 48 40.375 41.703125 38.8125 
Q 48.828125 37.15625 52.796875 32.3125 
Q 56.78125 27.484375 56.78125 20.515625 
Q 56.78125 9.90625 50.3125 4.234375 
Q 43.84375 -1.421875 31.78125 -1.421875 
Q 19.734375 -1.421875 13.25 4.234375 
Q 6.78125 9.90625 6.78125 20.515625 
Q 6.78125 27.484375 10.78125 32.3125 
Q 14.796875 37.15625 21.921875 38.8125 
z
M 18.3125 54.390625 
Q 18.3125 48.734375 21.84375 45.5625 
Q 25.390625 42.390625 31.78125 42.390625 
Q 38.140625 42.390625 41.71875 45.5625 
Q 45.3125 48.734375 45.3125 54.390625 
Q 45.3125 60.0625 41.71875 63.234375 
Q 38.140625 66.40625 31.78125 66.40625 
Q 25.390625 66.40625 21.84375 63.234375 
Q 18.3125 60.0625 18.3125 54.390625 
z
" id="DejaVuSans-56"/>
      </defs>
      <g transform="translate(399.982439 120.716562)scale(0.1 -0.1)">
       <use xlink:href="#DejaVuSans-52"/>
       <use x="63.623047" xlink:href="#DejaVuSans-46"/>
       <use x="95.410156" xlink:href="#DejaVuSans-56"/>
       <use x="159.033203" xlink:href="#DejaVuSans-48"/>
      </g>
     </g>
    </g>
    <g id="xtick_6">
     <g id="line2d_6">
      <g>
       <use style="stroke:#000000;stroke-width:0.8;" x="488.281163" xlink:href="#mc5204e78b1" y="106.118125"/>
      </g>
     </g>
     <g id="text_6">
      <!-- 4.85 -->
      <g transform="translate(477.148351 120.716562)scale(0.1 -0.1)">
       <use xlink:href="#DejaVuSans-52"/>
       <use x="63.623047" xlink:href="#DejaVuSans-46"/>
       <use x="95.410156" xlink:href="#DejaVuSans-56"/>
       <use x="159.033203" xlink:href="#DejaVuSans-53"/>
      </g>
     </g>
    </g>
    <g id="xtick_7">
     <g id="line2d_7">
      <g>
       <use style="stroke:#000000;stroke-width:0.8;" x="565.447075" xlink:href="#mc5204e78b1" y="106.118125"/>
      </g>
     </g>
     <g id="text_7">
      <!-- 4.90 -->
      <defs>
       <path d="M 10.984375 1.515625 
L 10.984375 10.5 
Q 14.703125 8.734375 18.5 7.8125 
Q 22.3125 6.890625 25.984375 6.890625 
Q 35.75 6.890625 40.890625 13.453125 
Q 46.046875 20.015625 46.78125 33.40625 
Q 43.953125 29.203125 39.59375 26.953125 
Q 35.25 24.703125 29.984375 24.703125 
Q 19.046875 24.703125 12.671875 31.3125 
Q 6.296875 37.9375 6.296875 49.421875 
Q 6.296875 60.640625 12.9375 67.421875 
Q 19.578125 74.21875 30.609375 74.21875 
Q 43.265625 74.21875 49.921875 64.515625 
Q 56.59375 54.828125 56.59375 36.375 
Q 56.59375 19.140625 48.40625 8.859375 
Q 40.234375 -1.421875 26.421875 -1.421875 
Q 22.703125 -1.421875 18.890625 -0.6875 
Q 15.09375 0.046875 10.984375 1.515625 
z
M 30.609375 32.421875 
Q 37.25 32.421875 41.125 36.953125 
Q 45.015625 41.5 45.015625 49.421875 
Q 45.015625 57.28125 41.125 61.84375 
Q 37.25 66.40625 30.609375 66.40625 
Q 23.96875 66.40625 20.09375 61.84375 
Q 16.21875 57.28125 16.21875 49.421875 
Q 16.21875 41.5 20.09375 36.953125 
Q 23.96875 32.421875 30.609375 32.421875 
z
" id="DejaVuSans-57"/>
      </defs>
      <g transform="translate(554.314263 120.716562)scale(0.1 -0.1)">
       <use xlink:href="#DejaVuSans-52"/>
       <use x="63.623047" xlink:href="#DejaVuSans-46"/>
       <use x="95.410156" xlink:href="#DejaVuSans-57"/>
       <use x="159.033203" xlink:href="#DejaVuSans-48"/>
      </g>
     </g>
    </g>
    <g id="xtick_8">
     <g id="line2d_8">
      <g>
       <use style="stroke:#000000;stroke-width:0.8;" x="642.612987" xlink:href="#mc5204e78b1" y="106.118125"/>
      </g>
     </g>
     <g id="text_8">
      <!-- 4.95 -->
      <g transform="translate(631.480175 120.716562)scale(0.1 -0.1)">
       <use xlink:href="#DejaVuSans-52"/>
       <use x="63.623047" xlink:href="#DejaVuSans-46"/>
       <use x="95.410156" xlink:href="#DejaVuSans-57"/>
       <use x="159.033203" xlink:href="#DejaVuSans-53"/>
      </g>
     </g>
    </g>
    <g id="text_9">
     <!-- Time (ms) -->
     <defs>
      <path d="M -0.296875 72.90625 
L 61.375 72.90625 
L 61.375 64.59375 
L 35.5 64.59375 
L 35.5 0 
L 25.59375 0 
L 25.59375 64.59375 
L -0.296875 64.59375 
z
" id="DejaVuSans-84"/>
      <path d="M 9.421875 54.6875 
L 18.40625 54.6875 
L 18.40625 0 
L 9.421875 0 
z
M 9.421875 75.984375 
L 18.40625 75.984375 
L 18.40625 64.59375 
L 9.421875 64.59375 
z
" id="DejaVuSans-105"/>
      <path d="M 52 44.1875 
Q 55.375 50.25 60.0625 53.125 
Q 64.75 56 71.09375 56 
Q 79.640625 56 84.28125 50.015625 
Q 88.921875 44.046875 88.921875 33.015625 
L 88.921875 0 
L 79.890625 0 
L 79.890625 32.71875 
Q 79.890625 40.578125 77.09375 44.375 
Q 74.3125 48.1875 68.609375 48.1875 
Q 61.625 48.1875 57.5625 43.546875 
Q 53.515625 38.921875 53.515625 30.90625 
L 53.515625 0 
L 44.484375 0 
L 44.484375 32.71875 
Q 44.484375 40.625 41.703125 44.40625 
Q 38.921875 48.1875 33.109375 48.1875 
Q 26.21875 48.1875 22.15625 43.53125 
Q 18.109375 38.875 18.109375 30.90625 
L 18.109375 0 
L 9.078125 0 
L 9.078125 54.6875 
L 18.109375 54.6875 
L 18.109375 46.1875 
Q 21.1875 51.21875 25.484375 53.609375 
Q 29.78125 56 35.6875 56 
Q 41.65625 56 45.828125 52.96875 
Q 50 49.953125 52 44.1875 
z
" id="DejaVuSans-109"/>
      <path d="M 56.203125 29.59375 
L 56.203125 25.203125 
L 14.890625 25.203125 
Q 15.484375 15.921875 20.484375 11.0625 
Q 25.484375 6.203125 34.421875 6.203125 
Q 39.59375 6.203125 44.453125 7.46875 
Q 49.3125 8.734375 54.109375 11.28125 
L 54.109375 2.78125 
Q 49.265625 0.734375 44.1875 -0.34375 
Q 39.109375 -1.421875 33.890625 -1.421875 
Q 20.796875 -1.421875 13.15625 6.1875 
Q 5.515625 13.8125 5.515625 26.8125 
Q 5.515625 40.234375 12.765625 48.109375 
Q 20.015625 56 32.328125 56 
Q 43.359375 56 49.78125 48.890625 
Q 56.203125 41.796875 56.203125 29.59375 
z
M 47.21875 32.234375 
Q 47.125 39.59375 43.09375 43.984375 
Q 39.0625 48.390625 32.421875 48.390625 
Q 24.90625 48.390625 20.390625 44.140625 
Q 15.875 39.890625 15.1875 32.171875 
z
" id="DejaVuSans-101"/>
      <path id="DejaVuSans-32"/>
      <path d="M 31 75.875 
Q 24.46875 64.65625 21.28125 53.65625 
Q 18.109375 42.671875 18.109375 31.390625 
Q 18.109375 20.125 21.3125 9.0625 
Q 24.515625 -2 31 -13.1875 
L 23.1875 -13.1875 
Q 15.875 -1.703125 12.234375 9.375 
Q 8.59375 20.453125 8.59375 31.390625 
Q 8.59375 42.28125 12.203125 53.3125 
Q 15.828125 64.359375 23.1875 75.875 
z
" id="DejaVuSans-40"/>
      <path d="M 44.28125 53.078125 
L 44.28125 44.578125 
Q 40.484375 46.53125 36.375 47.5 
Q 32.28125 48.484375 27.875 48.484375 
Q 21.1875 48.484375 17.84375 46.4375 
Q 14.5 44.390625 14.5 40.28125 
Q 14.5 37.15625 16.890625 35.375 
Q 19.28125 33.59375 26.515625 31.984375 
L 29.59375 31.296875 
Q 39.15625 29.25 43.1875 25.515625 
Q 47.21875 21.78125 47.21875 15.09375 
Q 47.21875 7.46875 41.1875 3.015625 
Q 35.15625 -1.421875 24.609375 -1.421875 
Q 20.21875 -1.421875 15.453125 -0.5625 
Q 10.6875 0.296875 5.421875 2 
L 5.421875 11.28125 
Q 10.40625 8.6875 15.234375 7.390625 
Q 20.0625 6.109375 24.8125 6.109375 
Q 31.15625 6.109375 34.5625 8.28125 
Q 37.984375 10.453125 37.984375 14.40625 
Q 37.984375 18.0625 35.515625 20.015625 
Q 33.0625 21.96875 24.703125 23.78125 
L 21.578125 24.515625 
Q 13.234375 26.265625 9.515625 29.90625 
Q 5.8125 33.546875 5.8125 39.890625 
Q 5.8125 47.609375 11.28125 51.796875 
Q 16.75 56 26.8125 56 
Q 31.78125 56 36.171875 55.265625 
Q 40.578125 54.546875 44.28125 53.078125 
z
" id="DejaVuSans-115"/>
      <path d="M 8.015625 75.875 
L 15.828125 75.875 
Q 23.140625 64.359375 26.78125 53.3125 
Q 30.421875 42.28125 30.421875 31.390625 
Q 30.421875 20.453125 26.78125 9.375 
Q 23.140625 -1.703125 15.828125 -13.1875 
L 8.015625 -13.1875 
Q 14.5 -2 17.703125 9.0625 
Q 20.90625 20.125 20.90625 31.390625 
Q 20.90625 42.671875 17.703125 53.65625 
Q 14.5 64.65625 8.015625 75.875 
z
" id="DejaVuSans-41"/>
     </defs>
     <g transform="translate(347.565 134.394687)scale(0.1 -0.1)">
      <use xlink:href="#DejaVuSans-84"/>
      <use x="61.037109" xlink:href="#DejaVuSans-105"/>
      <use x="88.820312" xlink:href="#DejaVuSans-109"/>
      <use x="186.232422" xlink:href="#DejaVuSans-101"/>
      <use x="247.755859" xlink:href="#DejaVuSans-32"/>
      <use x="279.542969" xlink:href="#DejaVuSans-40"/>
      <use x="318.556641" xlink:href="#DejaVuSans-109"/>
      <use x="415.96875" xlink:href="#DejaVuSans-115"/>
      <use x="468.068359" xlink:href="#DejaVuSans-41"/>
     </g>
    </g>
    <g id="text_10">
     <!-- 1e4 -->
     <defs>
      <path d="M 12.40625 8.296875 
L 28.515625 8.296875 
L 28.515625 63.921875 
L 10.984375 60.40625 
L 10.984375 69.390625 
L 28.421875 72.90625 
L 38.28125 72.90625 
L 38.28125 8.296875 
L 54.390625 8.296875 
L 54.390625 0 
L 12.40625 0 
z
" id="DejaVuSans-49"/>
     </defs>
     <g transform="translate(686.355 133.394687)scale(0.1 -0.1)">
      <use xlink:href="#DejaVuSans-49"/>
      <use x="63.623047" xlink:href="#DejaVuSans-101"/>
      <use x="125.146484" xlink:href="#DejaVuSans-52"/>
     </g>
    </g>
   </g>
   <g id="matplotlib.axis_2">
    <g id="ytick_1">
     <g id="line2d_9">
      <defs>
       <path d="M 0 0 
L -3.5 0 
" id="ma8c409fca2" style="stroke:#000000;stroke-width:0.8;"/>
      </defs>
      <g>
       <use style="stroke:#000000;stroke-width:0.8;" x="40.603125" xlink:href="#ma8c409fca2" y="102.309034"/>
      </g>
     </g>
     <g id="text_11">
      <!-- 0 -->
      <g transform="translate(27.240625 106.108253)scale(0.1 -0.1)">
       <use xlink:href="#DejaVuSans-48"/>
      </g>
     </g>
    </g>
    <g id="ytick_2">
     <g id="line2d_10">
      <g>
       <use style="stroke:#000000;stroke-width:0.8;" x="40.603125" xlink:href="#ma8c409fca2" y="79.902617"/>
      </g>
     </g>
     <g id="text_12">
      <!-- 10 -->
      <g transform="translate(20.878125 83.701836)scale(0.1 -0.1)">
       <use xlink:href="#DejaVuSans-49"/>
       <use x="63.623047" xlink:href="#DejaVuSans-48"/>
      </g>
     </g>
    </g>
    <g id="ytick_3">
     <g id="line2d_11">
      <g>
       <use style="stroke:#000000;stroke-width:0.8;" x="40.603125" xlink:href="#ma8c409fca2" y="57.4962"/>
      </g>
     </g>
     <g id="text_13">
      <!-- 20 -->
      <defs>
       <path d="M 19.1875 8.296875 
L 53.609375 8.296875 
L 53.609375 0 
L 7.328125 0 
L 7.328125 8.296875 
Q 12.9375 14.109375 22.625 23.890625 
Q 32.328125 33.6875 34.8125 36.53125 
Q 39.546875 41.84375 41.421875 45.53125 
Q 43.3125 49.21875 43.3125 52.78125 
Q 43.3125 58.59375 39.234375 62.25 
Q 35.15625 65.921875 28.609375 65.921875 
Q 23.96875 65.921875 18.8125 64.3125 
Q 13.671875 62.703125 7.8125 59.421875 
L 7.8125 69.390625 
Q 13.765625 71.78125 18.9375 73 
Q 24.125 74.21875 28.421875 74.21875 
Q 39.75 74.21875 46.484375 68.546875 
Q 53.21875 62.890625 53.21875 53.421875 
Q 53.21875 48.921875 51.53125 44.890625 
Q 49.859375 40.875 45.40625 35.40625 
Q 44.1875 33.984375 37.640625 27.21875 
Q 31.109375 20.453125 19.1875 8.296875 
z
" id="DejaVuSans-50"/>
      </defs>
      <g transform="translate(20.878125 61.295419)scale(0.1 -0.1)">
       <use xlink:href="#DejaVuSans-50"/>
       <use x="63.623047" xlink:href="#DejaVuSans-48"/>
      </g>
     </g>
    </g>
    <g id="ytick_4">
     <g id="line2d_12">
      <g>
       <use style="stroke:#000000;stroke-width:0.8;" x="40.603125" xlink:href="#ma8c409fca2" y="35.089783"/>
      </g>
     </g>
     <g id="text_14">
      <!-- 30 -->
      <defs>
       <path d="M 40.578125 39.3125 
Q 47.65625 37.796875 51.625 33 
Q 55.609375 28.21875 55.609375 21.1875 
Q 55.609375 10.40625 48.1875 4.484375 
Q 40.765625 -1.421875 27.09375 -1.421875 
Q 22.515625 -1.421875 17.65625 -0.515625 
Q 12.796875 0.390625 7.625 2.203125 
L 7.625 11.71875 
Q 11.71875 9.328125 16.59375 8.109375 
Q 21.484375 6.890625 26.8125 6.890625 
Q 36.078125 6.890625 40.9375 10.546875 
Q 45.796875 14.203125 45.796875 21.1875 
Q 45.796875 27.640625 41.28125 31.265625 
Q 36.765625 34.90625 28.71875 34.90625 
L 20.21875 34.90625 
L 20.21875 43.015625 
L 29.109375 43.015625 
Q 36.375 43.015625 40.234375 45.921875 
Q 44.09375 48.828125 44.09375 54.296875 
Q 44.09375 59.90625 40.109375 62.90625 
Q 36.140625 65.921875 28.71875 65.921875 
Q 24.65625 65.921875 20.015625 65.03125 
Q 15.375 64.15625 9.8125 62.3125 
L 9.8125 71.09375 
Q 15.4375 72.65625 20.34375 73.4375 
Q 25.25 74.21875 29.59375 74.21875 
Q 40.828125 74.21875 47.359375 69.109375 
Q 53.90625 64.015625 53.90625 55.328125 
Q 53.90625 49.265625 50.4375 45.09375 
Q 46.96875 40.921875 40.578125 39.3125 
z
" id="DejaVuSans-51"/>
      </defs>
      <g transform="translate(20.878125 38.889002)scale(0.1 -0.1)">
       <use xlink:href="#DejaVuSans-51"/>
       <use x="63.623047" xlink:href="#DejaVuSans-48"/>
      </g>
     </g>
    </g>
    <g id="text_15">
     <!-- ADC Value -->
     <defs>
      <path d="M 34.1875 63.1875 
L 20.796875 26.90625 
L 47.609375 26.90625 
z
M 28.609375 72.90625 
L 39.796875 72.90625 
L 67.578125 0 
L 57.328125 0 
L 50.6875 18.703125 
L 17.828125 18.703125 
L 11.1875 0 
L 0.78125 0 
z
" id="DejaVuSans-65"/>
      <path d="M 19.671875 64.796875 
L 19.671875 8.109375 
L 31.59375 8.109375 
Q 46.6875 8.109375 53.6875 14.9375 
Q 60.6875 21.78125 60.6875 36.53125 
Q 60.6875 51.171875 53.6875 57.984375 
Q 46.6875 64.796875 31.59375 64.796875 
z
M 9.8125 72.90625 
L 30.078125 72.90625 
Q 51.265625 72.90625 61.171875 64.09375 
Q 71.09375 55.28125 71.09375 36.53125 
Q 71.09375 17.671875 61.125 8.828125 
Q 51.171875 0 30.078125 0 
L 9.8125 0 
z
" id="DejaVuSans-68"/>
      <path d="M 64.40625 67.28125 
L 64.40625 56.890625 
Q 59.421875 61.53125 53.78125 63.8125 
Q 48.140625 66.109375 41.796875 66.109375 
Q 29.296875 66.109375 22.65625 58.46875 
Q 16.015625 50.828125 16.015625 36.375 
Q 16.015625 21.96875 22.65625 14.328125 
Q 29.296875 6.6875 41.796875 6.6875 
Q 48.140625 6.6875 53.78125 8.984375 
Q 59.421875 11.28125 64.40625 15.921875 
L 64.40625 5.609375 
Q 59.234375 2.09375 53.4375 0.328125 
Q 47.65625 -1.421875 41.21875 -1.421875 
Q 24.65625 -1.421875 15.125 8.703125 
Q 5.609375 18.84375 5.609375 36.375 
Q 5.609375 53.953125 15.125 64.078125 
Q 24.65625 74.21875 41.21875 74.21875 
Q 47.75 74.21875 53.53125 72.484375 
Q 59.328125 70.75 64.40625 67.28125 
z
" id="DejaVuSans-67"/>
      <path d="M 28.609375 0 
L 0.78125 72.90625 
L 11.078125 72.90625 
L 34.1875 11.53125 
L 57.328125 72.90625 
L 67.578125 72.90625 
L 39.796875 0 
z
" id="DejaVuSans-86"/>
      <path d="M 34.28125 27.484375 
Q 23.390625 27.484375 19.1875 25 
Q 14.984375 22.515625 14.984375 16.5 
Q 14.984375 11.71875 18.140625 8.90625 
Q 21.296875 6.109375 26.703125 6.109375 
Q 34.1875 6.109375 38.703125 11.40625 
Q 43.21875 16.703125 43.21875 25.484375 
L 43.21875 27.484375 
z
M 52.203125 31.203125 
L 52.203125 0 
L 43.21875 0 
L 43.21875 8.296875 
Q 40.140625 3.328125 35.546875 0.953125 
Q 30.953125 -1.421875 24.3125 -1.421875 
Q 15.921875 -1.421875 10.953125 3.296875 
Q 6 8.015625 6 15.921875 
Q 6 25.140625 12.171875 29.828125 
Q 18.359375 34.515625 30.609375 34.515625 
L 43.21875 34.515625 
L 43.21875 35.40625 
Q 43.21875 41.609375 39.140625 45 
Q 35.0625 48.390625 27.6875 48.390625 
Q 23 48.390625 18.546875 47.265625 
Q 14.109375 46.140625 10.015625 43.890625 
L 10.015625 52.203125 
Q 14.9375 54.109375 19.578125 55.046875 
Q 24.21875 56 28.609375 56 
Q 40.484375 56 46.34375 49.84375 
Q 52.203125 43.703125 52.203125 31.203125 
z
" id="DejaVuSans-97"/>
      <path d="M 9.421875 75.984375 
L 18.40625 75.984375 
L 18.40625 0 
L 9.421875 0 
z
" id="DejaVuSans-108"/>
      <path d="M 8.5 21.578125 
L 8.5 54.6875 
L 17.484375 54.6875 
L 17.484375 21.921875 
Q 17.484375 14.15625 20.5 10.265625 
Q 23.53125 6.390625 29.59375 6.390625 
Q 36.859375 6.390625 41.078125 11.03125 
Q 45.3125 15.671875 45.3125 23.6875 
L 45.3125 54.6875 
L 54.296875 54.6875 
L 54.296875 0 
L 45.3125 0 
L 45.3125 8.40625 
Q 42.046875 3.421875 37.71875 1 
Q 33.40625 -1.421875 27.6875 -1.421875 
Q 18.265625 -1.421875 13.375 4.4375 
Q 8.5 10.296875 8.5 21.578125 
z
M 31.109375 56 
z
" id="DejaVuSans-117"/>
     </defs>
     <g transform="translate(14.798438 90.682187)rotate(-90)scale(0.1 -0.1)">
      <use xlink:href="#DejaVuSans-65"/>
      <use x="68.408203" xlink:href="#DejaVuSans-68"/>
      <use x="145.410156" xlink:href="#DejaVuSans-67"/>
      <use x="215.234375" xlink:href="#DejaVuSans-32"/>
      <use x="247.021484" xlink:href="#DejaVuSans-86"/>
      <use x="315.320312" xlink:href="#DejaVuSans-97"/>
      <use x="376.599609" xlink:href="#DejaVuSans-108"/>
      <use x="404.382812" xlink:href="#DejaVuSans-117"/>
      <use x="467.761719" xlink:href="#DejaVuSans-101"/>
     </g>
    </g>
   </g>
   <g id="line2d_13">
    <path clip-path="url(#pb8a76b7efc)" d="M 70.81358 70.94005 
L 72.51123 70.94005 
L 74.054548 61.977483 
L 76.060862 59.736842 
L 77.758512 59.736842 
L 79.147498 57.4962 
L 80.690816 55.255558 
L 82.234135 57.4962 
L 83.777453 55.255558 
L 85.475103 55.255558 
L 87.172753 50.774275 
L 88.870403 53.014916 
L 90.413721 50.774275 
L 94.117685 50.774275 
L 95.815335 44.05235 
L 97.512985 46.292991 
L 99.210635 44.05235 
L 100.753953 44.05235 
L 102.914599 46.292991 
L 104.457917 44.05235 
L 105.846904 46.292991 
L 107.544554 48.533633 
L 112.174508 100.068392 
L 113.872158 102.309034 
L 118.965109 102.309034 
L 120.354095 100.068392 
L 121.897413 91.105826 
L 123.2864 79.902617 
L 124.98405 79.902617 
L 126.6817 66.458767 
L 128.37935 64.218125 
L 130.077 57.4962 
L 131.77465 57.4962 
L 133.163636 55.255558 
L 135.015618 59.736842 
L 136.558937 53.014916 
L 138.102255 57.4962 
L 139.645573 55.255558 
L 141.497555 57.4962 
L 142.886541 55.255558 
L 144.738523 57.4962 
L 146.590505 53.014916 
L 148.442487 46.292991 
L 150.140137 48.533633 
L 151.529123 44.05235 
L 153.226774 48.533633 
L 154.924424 44.05235 
L 156.776406 48.533633 
L 159.863042 48.533633 
L 161.715024 53.014916 
L 163.412674 70.94005 
L 164.80166 88.865184 
L 166.190647 102.309034 
L 174.215902 102.309034 
L 175.75922 100.068392 
L 177.302538 86.624542 
L 178.691525 82.143259 
L 180.389175 70.94005 
L 185.019129 57.4962 
L 188.568761 57.4962 
L 190.112079 68.699408 
L 191.501066 70.94005 
L 193.198716 73.180692 
L 195.050698 68.699408 
L 196.594016 75.421334 
L 198.291666 66.458767 
L 199.989316 70.94005 
L 201.686966 66.458767 
L 203.384616 66.458767 
L 204.773603 61.977483 
L 206.471253 64.218125 
L 208.323235 57.4962 
L 212.027198 57.4962 
L 214.187844 59.736842 
L 217.274481 88.865184 
L 218.972131 102.309034 
L 229.158031 102.309034 
L 231.473008 88.865184 
L 234.713977 73.180692 
L 236.257295 61.977483 
L 237.954945 64.218125 
L 239.343931 64.218125 
L 241.195913 57.4962 
L 245.9802 57.4962 
L 248.140845 50.774275 
L 249.529832 48.533633 
L 251.690477 46.292991 
L 253.542459 46.292991 
L 255.085777 48.533633 
L 256.783427 44.05235 
L 258.635409 41.811708 
L 260.178728 41.811708 
L 261.567714 44.05235 
L 263.265364 44.05235 
L 264.963014 48.533633 
L 266.660664 46.292991 
L 268.203982 50.774275 
L 271.290619 91.105826 
L 273.451264 102.309034 
L 281.630851 102.309034 
L 283.174169 88.865184 
L 284.717488 86.624542 
L 286.260806 77.661975 
L 287.958456 70.94005 
L 289.347442 66.458767 
L 290.890761 59.736842 
L 292.742742 59.736842 
L 294.903388 53.014916 
L 296.292374 53.014916 
L 297.681361 57.4962 
L 299.533343 50.774275 
L 300.922329 48.533633 
L 302.311316 48.533633 
L 304.008966 44.05235 
L 306.478275 44.05235 
L 308.175925 41.811708 
L 309.719243 44.05235 
L 311.416893 35.089783 
L 313.423207 35.089783 
L 315.120857 41.811708 
L 316.664175 39.571066 
L 318.053162 44.05235 
L 319.905143 44.05235 
L 321.29413 55.255558 
L 322.99178 79.902617 
L 324.68943 102.309034 
L 332.714685 102.309034 
L 334.566667 97.827751 
L 335.955653 88.865184 
L 337.653303 70.94005 
L 339.505285 64.218125 
L 341.820262 53.014916 
L 343.672244 48.533633 
L 345.83289 50.774275 
L 347.221876 50.774275 
L 348.919526 48.533633 
L 350.617176 48.533633 
L 352.314826 50.774275 
L 354.012477 46.292991 
L 355.401463 39.571066 
L 357.099113 30.608499 
L 358.951095 30.608499 
L 360.494413 28.367858 
L 362.037731 28.367858 
L 363.426718 30.608499 
L 364.815704 35.089783 
L 367.902341 26.127216 
L 369.445659 30.608499 
L 371.143309 26.127216 
L 372.995291 35.089783 
L 374.538609 50.774275 
L 375.927596 75.421334 
L 377.625246 97.827751 
L 379.477228 102.309034 
L 384.415846 102.309034 
L 386.113496 100.068392 
L 387.811146 88.865184 
L 389.508796 75.421334 
L 391.052114 73.180692 
L 392.749764 64.218125 
L 394.138751 55.255558 
L 395.682069 59.736842 
L 397.225387 53.014916 
L 400.620687 48.533633 
L 402.318337 53.014916 
L 403.861656 48.533633 
L 405.713638 53.014916 
L 407.411288 48.533633 
L 410.18926 48.533633 
L 412.195574 46.292991 
L 413.584561 44.05235 
L 415.282211 41.811708 
L 416.671197 44.05235 
L 418.523179 39.571066 
L 422.998802 39.571066 
L 424.850784 41.811708 
L 426.394102 39.571066 
L 427.93742 48.533633 
L 429.480738 61.977483 
L 431.33272 93.346467 
L 433.03037 102.309034 
L 441.364289 102.309034 
L 442.753275 97.827751 
L 444.296594 84.3839 
L 445.839912 79.902617 
L 447.38323 64.218125 
L 449.08088 61.977483 
L 450.932862 55.255558 
L 452.47618 53.014916 
L 453.865167 48.533633 
L 455.408485 50.774275 
L 458.032126 48.533633 
L 461.118762 48.533633 
L 462.816412 53.014916 
L 464.514063 46.292991 
L 466.211713 46.292991 
L 467.909363 41.811708 
L 469.452681 39.571066 
L 471.304663 39.571066 
L 472.693649 41.811708 
L 474.391299 37.330424 
L 475.780286 39.571066 
L 477.477936 37.330424 
L 479.021254 35.089783 
L 480.41024 37.330424 
L 481.953559 37.330424 
L 483.342545 39.571066 
L 485.194527 61.977483 
L 486.737845 82.143259 
L 488.126832 102.309034 
L 494.7631 102.309034 
L 496.306418 100.068392 
L 498.1584 84.3839 
L 500.010382 75.421334 
L 502.788355 66.458767 
L 504.640337 57.4962 
L 506.337987 57.4962 
L 507.881305 55.255558 
L 509.578955 50.774275 
L 511.430937 53.014916 
L 512.819923 50.774275 
L 514.20891 46.292991 
L 515.90656 50.774275 
L 517.758542 46.292991 
L 519.30186 46.292991 
L 520.690846 44.05235 
L 523.160156 41.811708 
L 525.320801 39.571066 
L 527.018451 37.330424 
L 528.561769 35.089783 
L 530.413751 37.330424 
L 532.111401 35.089783 
L 533.65472 37.330424 
L 535.043706 37.330424 
L 536.741356 39.571066 
L 538.74767 48.533633 
L 542.14297 93.346467 
L 543.84062 102.309034 
L 551.094216 102.309034 
L 552.637534 91.105826 
L 554.335184 79.902617 
L 556.187166 75.421334 
L 557.576152 64.218125 
L 558.965139 57.4962 
L 560.354125 55.255558 
L 562.669103 53.014916 
L 564.058089 55.255558 
L 565.447075 53.014916 
L 567.144725 55.255558 
L 568.533712 55.255558 
L 570.385694 53.014916 
L 571.77468 55.255558 
L 573.47233 48.533633 
L 575.015649 53.014916 
L 576.86763 48.533633 
L 578.256617 48.533633 
L 579.799935 50.774275 
L 581.343253 44.05235 
L 583.658231 46.292991 
L 585.047217 48.533633 
L 586.744867 44.05235 
L 588.288185 44.05235 
L 589.985835 39.571066 
L 591.374822 41.811708 
L 592.91814 50.774275 
L 594.461458 64.218125 
L 596.930768 102.309034 
L 607.425332 102.309034 
L 609.122982 93.346467 
L 611.437959 77.661975 
L 612.981277 70.94005 
L 616.067914 66.458767 
L 618.074227 61.977483 
L 619.617546 59.736842 
L 621.006532 61.977483 
L 622.858514 55.255558 
L 624.556164 57.4962 
L 628.41446 57.4962 
L 630.11211 53.014916 
L 631.655428 53.014916 
L 633.353078 50.774275 
L 635.20506 50.774275 
L 636.594046 48.533633 
L 638.291696 48.533633 
L 641.069669 39.571066 
L 642.612987 39.571066 
L 644.001974 44.05235 
L 645.699624 39.571066 
L 649.094924 48.533633 
L 650.638242 66.458767 
L 652.181561 88.865184 
L 653.724879 102.309034 
L 661.904465 102.309034 
L 663.447784 91.105826 
L 664.991102 84.3839 
L 666.688752 73.180692 
L 668.540734 68.699408 
L 670.084052 57.4962 
L 671.781702 53.014916 
L 673.479352 50.774275 
L 675.02267 57.4962 
L 675.02267 57.4962 
" style="fill:none;stroke:#1f77b4;stroke-linecap:square;stroke-width:1.5;"/>
   </g>
   <g id="patch_3">
    <path d="M 40.603125 106.118125 
L 40.603125 22.318125 
" style="fill:none;stroke:#000000;stroke-linecap:square;stroke-linejoin:miter;stroke-width:0.8;"/>
   </g>
   <g id="patch_4">
    <path d="M 705.233125 106.118125 
L 705.233125 22.318125 
" style="fill:none;stroke:#000000;stroke-linecap:square;stroke-linejoin:miter;stroke-width:0.8;"/>
   </g>
   <g id="patch_5">
    <path d="M 40.603125 106.118125 
L 705.233125 106.118125 
" style="fill:none;stroke:#000000;stroke-linecap:square;stroke-linejoin:miter;stroke-width:0.8;"/>
   </g>
   <g id="patch_6">
    <path d="M 40.603125 22.318125 
L 705.233125 22.318125 
" style="fill:none;stroke:#000000;stroke-linecap:square;stroke-linejoin:miter;stroke-width:0.8;"/>
   </g>
   <g id="text_16">
    <!-- Input Signal -->
    <defs>
     <path d="M 9.8125 72.90625 
L 19.671875 72.90625 
L 19.671875 0 
L 9.8125 0 
z
" id="DejaVuSans-73"/>
     <path d="M 54.890625 33.015625 
L 54.890625 0 
L 45.90625 0 
L 45.90625 32.71875 
Q 45.90625 40.484375 42.875 44.328125 
Q 39.84375 48.1875 33.796875 48.1875 
Q 26.515625 48.1875 22.3125 43.546875 
Q 18.109375 38.921875 18.109375 30.90625 
L 18.109375 0 
L 9.078125 0 
L 9.078125 54.6875 
L 18.109375 54.6875 
L 18.109375 46.1875 
Q 21.34375 51.125 25.703125 53.5625 
Q 30.078125 56 35.796875 56 
Q 45.21875 56 50.046875 50.171875 
Q 54.890625 44.34375 54.890625 33.015625 
z
" id="DejaVuSans-110"/>
     <path d="M 18.109375 8.203125 
L 18.109375 -20.796875 
L 9.078125 -20.796875 
L 9.078125 54.6875 
L 18.109375 54.6875 
L 18.109375 46.390625 
Q 20.953125 51.265625 25.265625 53.625 
Q 29.59375 56 35.59375 56 
Q 45.5625 56 51.78125 48.09375 
Q 58.015625 40.1875 58.015625 27.296875 
Q 58.015625 14.40625 51.78125 6.484375 
Q 45.5625 -1.421875 35.59375 -1.421875 
Q 29.59375 -1.421875 25.265625 0.953125 
Q 20.953125 3.328125 18.109375 8.203125 
z
M 48.6875 27.296875 
Q 48.6875 37.203125 44.609375 42.84375 
Q 40.53125 48.484375 33.40625 48.484375 
Q 26.265625 48.484375 22.1875 42.84375 
Q 18.109375 37.203125 18.109375 27.296875 
Q 18.109375 17.390625 22.1875 11.75 
Q 26.265625 6.109375 33.40625 6.109375 
Q 40.53125 6.109375 44.609375 11.75 
Q 48.6875 17.390625 48.6875 27.296875 
z
" id="DejaVuSans-112"/>
     <path d="M 18.3125 70.21875 
L 18.3125 54.6875 
L 36.8125 54.6875 
L 36.8125 47.703125 
L 18.3125 47.703125 
L 18.3125 18.015625 
Q 18.3125 11.328125 20.140625 9.421875 
Q 21.96875 7.515625 27.59375 7.515625 
L 36.8125 7.515625 
L 36.8125 0 
L 27.59375 0 
Q 17.1875 0 13.234375 3.875 
Q 9.28125 7.765625 9.28125 18.015625 
L 9.28125 47.703125 
L 2.6875 47.703125 
L 2.6875 54.6875 
L 9.28125 54.6875 
L 9.28125 70.21875 
z
" id="DejaVuSans-116"/>
     <path d="M 53.515625 70.515625 
L 53.515625 60.890625 
Q 47.90625 63.578125 42.921875 64.890625 
Q 37.9375 66.21875 33.296875 66.21875 
Q 25.25 66.21875 20.875 63.09375 
Q 16.5 59.96875 16.5 54.203125 
Q 16.5 49.359375 19.40625 46.890625 
Q 22.3125 44.4375 30.421875 42.921875 
L 36.375 41.703125 
Q 47.40625 39.59375 52.65625 34.296875 
Q 57.90625 29 57.90625 20.125 
Q 57.90625 9.515625 50.796875 4.046875 
Q 43.703125 -1.421875 29.984375 -1.421875 
Q 24.8125 -1.421875 18.96875 -0.25 
Q 13.140625 0.921875 6.890625 3.21875 
L 6.890625 13.375 
Q 12.890625 10.015625 18.65625 8.296875 
Q 24.421875 6.59375 29.984375 6.59375 
Q 38.421875 6.59375 43.015625 9.90625 
Q 47.609375 13.234375 47.609375 19.390625 
Q 47.609375 24.75 44.3125 27.78125 
Q 41.015625 30.8125 33.5 32.328125 
L 27.484375 33.5 
Q 16.453125 35.6875 11.515625 40.375 
Q 6.59375 45.0625 6.59375 53.421875 
Q 6.59375 63.09375 13.40625 68.65625 
Q 20.21875 74.21875 32.171875 74.21875 
Q 37.3125 74.21875 42.625 73.28125 
Q 47.953125 72.359375 53.515625 70.515625 
z
" id="DejaVuSans-83"/>
     <path d="M 45.40625 27.984375 
Q 45.40625 37.75 41.375 43.109375 
Q 37.359375 48.484375 30.078125 48.484375 
Q 22.859375 48.484375 18.828125 43.109375 
Q 14.796875 37.75 14.796875 27.984375 
Q 14.796875 18.265625 18.828125 12.890625 
Q 22.859375 7.515625 30.078125 7.515625 
Q 37.359375 7.515625 41.375 12.890625 
Q 45.40625 18.265625 45.40625 27.984375 
z
M 54.390625 6.78125 
Q 54.390625 -7.171875 48.1875 -13.984375 
Q 42 -20.796875 29.203125 -20.796875 
Q 24.46875 -20.796875 20.265625 -20.09375 
Q 16.0625 -19.390625 12.109375 -17.921875 
L 12.109375 -9.1875 
Q 16.0625 -11.328125 19.921875 -12.34375 
Q 23.78125 -13.375 27.78125 -13.375 
Q 36.625 -13.375 41.015625 -8.765625 
Q 45.40625 -4.15625 45.40625 5.171875 
L 45.40625 9.625 
Q 42.625 4.78125 38.28125 2.390625 
Q 33.9375 0 27.875 0 
Q 17.828125 0 11.671875 7.65625 
Q 5.515625 15.328125 5.515625 27.984375 
Q 5.515625 40.671875 11.671875 48.328125 
Q 17.828125 56 27.875 56 
Q 33.9375 56 38.28125 53.609375 
Q 42.625 51.21875 45.40625 46.390625 
L 45.40625 54.6875 
L 54.390625 54.6875 
z
" id="DejaVuSans-103"/>
    </defs>
    <g transform="translate(337.04375 16.318125)scale(0.12 -0.12)">
     <use xlink:href="#DejaVuSans-73"/>
     <use x="29.492188" xlink:href="#DejaVuSans-110"/>
     <use x="92.871094" xlink:href="#DejaVuSans-112"/>
     <use x="156.347656" xlink:href="#DejaVuSans-117"/>
     <use x="219.726562" xlink:href="#DejaVuSans-116"/>
     <use x="258.935547" xlink:href="#DejaVuSans-32"/>
     <use x="290.722656" xlink:href="#DejaVuSans-83"/>
     <use x="354.199219" xlink:href="#DejaVuSans-105"/>
     <use x="381.982422" xlink:href="#DejaVuSans-103"/>
     <use x="445.458984" xlink:href="#DejaVuSans-110"/>
     <use x="508.837891" xlink:href="#DejaVuSans-97"/>
     <use x="570.117188" xlink:href="#DejaVuSans-108"/>
    </g>
   </g>
  </g>
  <g id="axes_2">
   <g id="patch_7">
    <path d="M 40.603125 246.518125 
L 705.233125 246.518125 
L 705.233125 162.718125 
L 40.603125 162.718125 
z
" style="fill:#ffffff;"/>
   </g>
   <g id="matplotlib.axis_3">
    <g id="xtick_9">
     <g id="line2d_14">
      <g>
       <use style="stroke:#000000;stroke-width:0.8;" x="102.451603" xlink:href="#mc5204e78b1" y="246.518125"/>
      </g>
     </g>
     <g id="text_17">
      <!-- 4.60 -->
      <g transform="translate(91.318791 261.116562)scale(0.1 -0.1)">
       <use xlink:href="#DejaVuSans-52"/>
       <use x="63.623047" xlink:href="#DejaVuSans-46"/>
       <use x="95.410156" xlink:href="#DejaVuSans-54"/>
       <use x="159.033203" xlink:href="#DejaVuSans-48"/>
      </g>
     </g>
    </g>
    <g id="xtick_10">
     <g id="line2d_15">
      <g>
       <use style="stroke:#000000;stroke-width:0.8;" x="179.617515" xlink:href="#mc5204e78b1" y="246.518125"/>
      </g>
     </g>
     <g id="text_18">
      <!-- 4.65 -->
      <g transform="translate(168.484703 261.116562)scale(0.1 -0.1)">
       <use xlink:href="#DejaVuSans-52"/>
       <use x="63.623047" xlink:href="#DejaVuSans-46"/>
       <use x="95.410156" xlink:href="#DejaVuSans-54"/>
       <use x="159.033203" xlink:href="#DejaVuSans-53"/>
      </g>
     </g>
    </g>
    <g id="xtick_11">
     <g id="line2d_16">
      <g>
       <use style="stroke:#000000;stroke-width:0.8;" x="256.783427" xlink:href="#mc5204e78b1" y="246.518125"/>
      </g>
     </g>
     <g id="text_19">
      <!-- 4.70 -->
      <g transform="translate(245.650615 261.116562)scale(0.1 -0.1)">
       <use xlink:href="#DejaVuSans-52"/>
       <use x="63.623047" xlink:href="#DejaVuSans-46"/>
       <use x="95.410156" xlink:href="#DejaVuSans-55"/>
       <use x="159.033203" xlink:href="#DejaVuSans-48"/>
      </g>
     </g>
    </g>
    <g id="xtick_12">
     <g id="line2d_17">
      <g>
       <use style="stroke:#000000;stroke-width:0.8;" x="333.949339" xlink:href="#mc5204e78b1" y="246.518125"/>
      </g>
     </g>
     <g id="text_20">
      <!-- 4.75 -->
      <g transform="translate(322.816527 261.116562)scale(0.1 -0.1)">
       <use xlink:href="#DejaVuSans-52"/>
       <use x="63.623047" xlink:href="#DejaVuSans-46"/>
       <use x="95.410156" xlink:href="#DejaVuSans-55"/>
       <use x="159.033203" xlink:href="#DejaVuSans-53"/>
      </g>
     </g>
    </g>
    <g id="xtick_13">
     <g id="line2d_18">
      <g>
       <use style="stroke:#000000;stroke-width:0.8;" x="411.115251" xlink:href="#mc5204e78b1" y="246.518125"/>
      </g>
     </g>
     <g id="text_21">
      <!-- 4.80 -->
      <g transform="translate(399.982439 261.116562)scale(0.1 -0.1)">
       <use xlink:href="#DejaVuSans-52"/>
       <use x="63.623047" xlink:href="#DejaVuSans-46"/>
       <use x="95.410156" xlink:href="#DejaVuSans-56"/>
       <use x="159.033203" xlink:href="#DejaVuSans-48"/>
      </g>
     </g>
    </g>
    <g id="xtick_14">
     <g id="line2d_19">
      <g>
       <use style="stroke:#000000;stroke-width:0.8;" x="488.281163" xlink:href="#mc5204e78b1" y="246.518125"/>
      </g>
     </g>
     <g id="text_22">
      <!-- 4.85 -->
      <g transform="translate(477.148351 261.116562)scale(0.1 -0.1)">
       <use xlink:href="#DejaVuSans-52"/>
       <use x="63.623047" xlink:href="#DejaVuSans-46"/>
       <use x="95.410156" xlink:href="#DejaVuSans-56"/>
       <use x="159.033203" xlink:href="#DejaVuSans-53"/>
      </g>
     </g>
    </g>
    <g id="xtick_15">
     <g id="line2d_20">
      <g>
       <use style="stroke:#000000;stroke-width:0.8;" x="565.447075" xlink:href="#mc5204e78b1" y="246.518125"/>
      </g>
     </g>
     <g id="text_23">
      <!-- 4.90 -->
      <g transform="translate(554.314263 261.116562)scale(0.1 -0.1)">
       <use xlink:href="#DejaVuSans-52"/>
       <use x="63.623047" xlink:href="#DejaVuSans-46"/>
       <use x="95.410156" xlink:href="#DejaVuSans-57"/>
       <use x="159.033203" xlink:href="#DejaVuSans-48"/>
      </g>
     </g>
    </g>
    <g id="xtick_16">
     <g id="line2d_21">
      <g>
       <use style="stroke:#000000;stroke-width:0.8;" x="642.612987" xlink:href="#mc5204e78b1" y="246.518125"/>
      </g>
     </g>
     <g id="text_24">
      <!-- 4.95 -->
      <g transform="translate(631.480175 261.116562)scale(0.1 -0.1)">
       <use xlink:href="#DejaVuSans-52"/>
       <use x="63.623047" xlink:href="#DejaVuSans-46"/>
       <use x="95.410156" xlink:href="#DejaVuSans-57"/>
       <use x="159.033203" xlink:href="#DejaVuSans-53"/>
      </g>
     </g>
    </g>
    <g id="text_25">
     <!-- Time (ms) -->
     <g transform="translate(347.565 274.794687)scale(0.1 -0.1)">
      <use xlink:href="#DejaVuSans-84"/>
      <use x="61.037109" xlink:href="#DejaVuSans-105"/>
      <use x="88.820312" xlink:href="#DejaVuSans-109"/>
      <use x="186.232422" xlink:href="#DejaVuSans-101"/>
      <use x="247.755859" xlink:href="#DejaVuSans-32"/>
      <use x="279.542969" xlink:href="#DejaVuSans-40"/>
      <use x="318.556641" xlink:href="#DejaVuSans-109"/>
      <use x="415.96875" xlink:href="#DejaVuSans-115"/>
      <use x="468.068359" xlink:href="#DejaVuSans-41"/>
     </g>
    </g>
    <g id="text_26">
     <!-- 1e4 -->
     <g transform="translate(686.355 273.794687)scale(0.1 -0.1)">
      <use xlink:href="#DejaVuSans-49"/>
      <use x="63.623047" xlink:href="#DejaVuSans-101"/>
      <use x="125.146484" xlink:href="#DejaVuSans-52"/>
     </g>
    </g>
   </g>
   <g id="matplotlib.axis_4">
    <g id="ytick_5">
     <g id="line2d_22">
      <g>
       <use style="stroke:#000000;stroke-width:0.8;" x="40.603125" xlink:href="#ma8c409fca2" y="239.713948"/>
      </g>
     </g>
     <g id="text_27">
      <!-- 0 -->
      <g transform="translate(27.240625 243.513167)scale(0.1 -0.1)">
       <use xlink:href="#DejaVuSans-48"/>
      </g>
     </g>
    </g>
    <g id="ytick_6">
     <g id="line2d_23">
      <g>
       <use style="stroke:#000000;stroke-width:0.8;" x="40.603125" xlink:href="#ma8c409fca2" y="198.077941"/>
      </g>
     </g>
     <g id="text_28">
      <!-- 20 -->
      <g transform="translate(20.878125 201.87716)scale(0.1 -0.1)">
       <use xlink:href="#DejaVuSans-50"/>
       <use x="63.623047" xlink:href="#DejaVuSans-48"/>
      </g>
     </g>
    </g>
    <g id="text_29">
     <!-- ADC Value -->
     <g transform="translate(14.798438 231.082187)rotate(-90)scale(0.1 -0.1)">
      <use xlink:href="#DejaVuSans-65"/>
      <use x="68.408203" xlink:href="#DejaVuSans-68"/>
      <use x="145.410156" xlink:href="#DejaVuSans-67"/>
      <use x="215.234375" xlink:href="#DejaVuSans-32"/>
      <use x="247.021484" xlink:href="#DejaVuSans-86"/>
      <use x="315.320312" xlink:href="#DejaVuSans-97"/>
      <use x="376.599609" xlink:href="#DejaVuSans-108"/>
      <use x="404.382812" xlink:href="#DejaVuSans-117"/>
      <use x="467.761719" xlink:href="#DejaVuSans-101"/>
     </g>
    </g>
   </g>
   <g id="line2d_24">
    <path clip-path="url(#p4248b837f5)" d="M 70.81358 210.2648 
L 73.235259 205.494147 
L 74.446099 203.361758 
L 75.656939 201.50625 
L 76.867779 199.980915 
L 78.078619 198.808653 
L 79.289459 197.980721 
L 80.500298 197.455066 
L 81.711138 197.161533 
L 85.343658 196.679388 
L 86.554498 196.294046 
L 87.765338 195.644525 
L 88.976177 194.677945 
L 90.187017 193.38015 
L 91.397857 191.779662 
L 96.241217 184.413004 
L 97.452056 183.125202 
L 98.662896 182.425509 
L 99.873736 182.479844 
L 101.084576 183.419777 
L 102.295416 185.328163 
L 103.506256 188.229568 
L 104.717096 192.082981 
L 105.927936 196.780355 
L 108.349615 207.96795 
L 110.771295 219.847327 
L 111.982135 225.319131 
L 113.192975 230.096655 
L 114.403815 233.931539 
L 115.614654 236.627263 
L 116.825494 238.05392 
L 118.036334 238.156969 
L 119.247174 236.961183 
L 120.458014 234.569195 
L 121.668854 231.153377 
L 122.879694 226.942936 
L 128.933893 203.643634 
L 130.144733 200.290895 
L 131.355573 197.75089 
L 132.566412 196.05339 
L 133.777252 195.157592 
L 134.988092 194.957739 
L 136.198932 195.295823 
L 137.409772 195.976155 
L 139.831452 197.512524 
L 141.042292 197.96823 
L 142.253131 198.003204 
L 143.463971 197.5221 
L 144.674811 196.493899 
L 145.885651 194.955241 
L 147.096491 193.00959 
L 150.72901 186.564961 
L 151.93985 184.985082 
L 153.15069 184.086369 
L 154.36153 184.070131 
L 155.57237 185.085425 
L 156.78321 187.215107 
L 157.99405 190.465214 
L 159.204889 194.760384 
L 160.415729 199.946981 
L 162.837409 212.039743 
L 165.259089 224.387734 
L 166.469929 229.835805 
L 167.680768 234.396405 
L 168.891608 237.826796 
L 170.102448 239.954396 
L 171.313288 240.689063 
L 172.524128 240.029341 
L 173.734968 238.061831 
L 174.945808 234.954744 
L 176.156647 230.944572 
L 178.578327 221.392439 
L 181.000007 211.907133 
L 182.210847 207.914448 
L 183.421687 204.714096 
L 184.632527 202.439729 
L 185.843366 201.144849 
L 187.054206 200.803642 
L 188.265046 201.314516 
L 189.475886 202.512592 
L 190.686726 204.184902 
L 193.108406 207.984188 
L 194.319245 209.632557 
L 195.530085 210.840626 
L 196.740925 211.464958 
L 197.951765 211.426445 
L 199.162605 210.7178 
L 200.373445 209.402935 
L 201.584285 207.611962 
L 205.216804 201.407989 
L 206.427644 199.854966 
L 207.638484 198.942305 
L 208.849324 198.849456 
L 210.060164 199.698414 
L 211.271003 201.542057 
L 212.481843 204.358941 
L 213.692683 208.051846 
L 214.903523 212.454646 
L 219.746883 232.159719 
L 220.957722 236.195705 
L 222.168562 239.358585 
L 223.379402 241.467032 
L 224.590242 242.406132 
L 225.801082 242.133833 
L 227.011922 240.683442 
L 228.222762 238.159051 
L 229.433601 234.725122 
L 230.644441 230.593581 
L 236.698641 207.94963 
L 237.90948 204.477603 
L 239.12032 201.641359 
L 240.33116 199.448598 
L 241.542 197.849568 
L 242.75284 196.746838 
L 243.96368 196.00655 
L 247.596199 194.417928 
L 248.807039 193.632048 
L 250.017879 192.561586 
L 251.228719 191.182186 
L 252.439559 189.524656 
L 256.072078 183.961045 
L 257.282918 182.464647 
L 258.493758 181.474751 
L 259.704598 181.181425 
L 260.915438 181.745385 
L 262.126278 183.283002 
L 263.337118 185.851528 
L 264.547957 189.4418 
L 265.758797 193.974088 
L 266.969637 199.29975 
L 269.391317 211.443516 
L 271.812997 223.709483 
L 273.023836 229.139859 
L 274.234676 233.733768 
L 275.445516 237.268457 
L 276.656356 239.583003 
L 277.867196 240.588304 
L 279.078036 240.273536 
L 280.288876 238.704067 
L 281.499715 236.016671 
L 282.710555 232.407245 
L 283.921395 228.114781 
L 288.764755 209.339856 
L 289.975594 205.389224 
L 291.186434 202.039399 
L 292.397274 199.336389 
L 293.608114 197.262708 
L 294.818954 195.743618 
L 296.029794 194.657959 
L 298.451474 193.164268 
L 299.662313 192.430433 
L 300.873153 191.515274 
L 302.083993 190.321986 
L 303.294833 188.804561 
L 304.505673 186.977157 
L 309.349032 178.828158 
L 310.559872 177.514958 
L 311.770712 176.923102 
L 312.981552 177.242242 
L 314.192392 178.616647 
L 315.403232 181.126882 
L 316.614071 184.780233 
L 317.824911 189.50363 
L 319.035751 195.144684 
L 321.457431 208.220056 
L 323.879111 221.603326 
L 325.08995 227.558316 
L 326.30079 232.595232 
L 327.51163 236.452391 
L 328.72247 238.936187 
L 329.93331 239.936701 
L 331.14415 239.433321 
L 332.35499 237.496206 
L 333.565829 234.2792 
L 334.776669 230.007346 
L 337.198349 219.444499 
L 339.620029 208.266896 
L 340.830869 203.16711 
L 342.041709 198.686243 
L 343.252548 194.960653 
L 344.463388 192.048839 
L 345.674228 189.932689 
L 346.885068 188.52331 
L 348.095908 187.672687 
L 349.306748 187.191582 
L 351.728427 186.498968 
L 352.939267 185.892123 
L 354.150107 184.905974 
L 355.360947 183.455584 
L 356.571787 181.523673 
L 357.782627 179.166242 
L 361.415146 171.096976 
L 362.625986 168.837598 
L 363.836826 167.231073 
L 365.047666 166.527216 
L 366.258506 166.934832 
L 367.469346 168.601938 
L 368.680185 171.599939 
L 369.891025 175.913637 
L 371.101865 181.437903 
L 372.312705 187.980168 
L 374.734385 202.984536 
L 377.156065 218.184801 
L 378.366904 224.918177 
L 379.577744 230.614815 
L 380.788584 234.998254 
L 381.999424 237.870514 
L 383.210264 239.123133 
L 384.421104 238.745494 
L 385.631944 236.822744 
L 386.842783 233.528295 
L 388.053623 229.111339 
L 390.475303 218.160653 
L 392.896983 206.660163 
L 394.107823 201.499172 
L 395.318662 197.063688 
L 396.529502 193.517757 
L 397.740342 190.944652 
L 398.951182 189.345621 
L 400.162022 188.644263 
L 401.372862 188.696516 
L 402.583702 189.306692 
L 406.216221 192.152929 
L 407.427061 192.69045 
L 408.637901 192.731045 
L 409.848741 192.183948 
L 411.059581 191.028549 
L 412.270421 189.317101 
L 413.48126 187.170973 
L 417.11378 180.152807 
L 418.32462 178.450936 
L 419.53546 177.489977 
L 420.7463 177.482274 
L 421.957139 178.586877 
L 423.167979 180.89372 
L 424.378819 184.413836 
L 425.589659 189.075404 
L 426.800499 194.725202 
L 429.222179 208.024159 
L 431.643858 221.890406 
L 432.854698 228.173071 
L 434.065538 233.583879 
L 435.276378 237.847198 
L 436.487218 240.751725 
L 437.698058 242.164643 
L 438.908897 242.039527 
L 440.119737 240.418846 
L 441.330577 237.430421 
L 442.541417 233.276397 
L 443.752257 228.219704 
L 449.806456 200.256129 
L 451.017296 196.092944 
L 452.228136 192.837217 
L 453.438976 190.53308 
L 454.649816 189.148683 
L 455.860656 188.582225 
L 457.071495 188.6732 
L 458.282335 189.217799 
L 460.704015 190.754792 
L 461.914855 191.301889 
L 463.125695 191.451571 
L 464.336535 191.077263 
L 465.547374 190.115679 
L 466.758214 188.573273 
L 467.969054 186.526655 
L 470.390734 181.54574 
L 471.601574 179.044873 
L 472.812414 176.873347 
L 474.023253 175.288264 
L 475.234093 174.525701 
L 476.444933 174.779681 
L 477.655773 176.185104 
L 478.866613 178.804842 
L 480.077453 182.620782 
L 481.288293 187.532373 
L 482.499132 193.360373 
L 484.920812 206.720119 
L 487.342492 220.19478 
L 488.553332 226.123539 
L 489.764172 231.099874 
L 490.975012 234.876677 
L 492.185851 237.277617 
L 493.396691 238.209014 
L 494.607531 237.664207 
L 495.818371 235.723137 
L 497.029211 232.546101 
L 498.240051 228.359184 
L 500.66173 218.090496 
L 503.08341 207.341328 
L 504.29425 202.497811 
L 505.50509 198.302984 
L 506.71593 194.898407 
L 507.92677 192.352782 
L 509.137609 190.660278 
L 510.348449 189.744702 
L 511.559289 189.469697 
L 512.770129 189.653311 
L 516.402649 190.840978 
L 517.613488 190.784354 
L 518.824328 190.253911 
L 520.035168 189.183657 
L 521.246008 187.574009 
L 522.456848 185.494707 
L 527.300207 175.883035 
L 528.511047 174.318146 
L 529.721887 173.572445 
L 530.932727 173.841205 
L 532.143567 175.262242 
L 533.354407 177.903006 
L 534.565247 181.752255 
L 535.776086 186.716099 
L 536.986926 192.622167 
L 539.408606 206.236308 
L 541.830286 220.10901 
L 543.041126 226.284254 
L 544.251965 231.529142 
L 545.462805 235.58553 
L 546.673645 238.264807 
L 547.884485 239.458511 
L 549.095325 239.146657 
L 550.306165 237.396696 
L 551.517005 234.358517 
L 552.727844 230.251957 
L 553.938684 225.352024 
L 558.782044 204.037719 
L 559.992884 199.716526 
L 561.203723 196.217644 
L 562.414563 193.63413 
L 563.625403 191.983887 
L 564.836243 191.210914 
L 566.047083 191.193635 
L 567.257923 191.758636 
L 568.468763 192.696487 
L 570.890442 194.79057 
L 572.101282 195.524821 
L 573.312122 195.824809 
L 574.522962 195.585818 
L 575.733802 194.765797 
L 576.944642 193.390559 
L 578.155482 191.55233 
L 581.788001 184.99445 
L 582.998841 183.212221 
L 584.209681 182.030383 
L 585.420521 181.66128 
L 586.631361 182.273121 
L 587.8422 183.974576 
L 589.05304 186.804784 
L 590.26388 190.727104 
L 591.47472 195.629119 
L 592.68556 201.328048 
L 598.739759 232.117875 
L 599.950599 236.619144 
L 601.161439 239.969801 
L 602.372279 242.023081 
L 603.583119 242.709034 
L 604.793958 242.037237 
L 606.004798 240.096166 
L 607.215638 237.043831 
L 608.426478 233.097778 
L 610.848158 223.582702 
L 613.269838 213.778047 
L 614.480677 209.407931 
L 615.691517 205.651947 
L 616.902357 202.631255 
L 618.113197 200.399148 
L 619.324037 198.941472 
L 620.534877 198.180574 
L 621.745717 197.985093 
L 622.956556 198.183696 
L 625.378236 198.977695 
L 626.589076 199.185251 
L 627.799916 199.046811 
L 629.010756 198.448918 
L 630.221596 197.333697 
L 631.432435 195.704064 
L 632.643275 193.624762 
L 635.064955 188.654255 
L 636.275795 186.139441 
L 637.486635 183.897342 
L 638.697475 182.152793 
L 639.908314 181.112517 
L 641.119154 180.948055 
L 642.329994 181.780983 
L 643.540834 183.671883 
L 644.751674 186.613675 
L 645.962514 190.530582 
L 647.173354 195.2825 
L 649.595033 206.461559 
L 652.016713 218.157114 
L 653.227553 223.51879 
L 654.438393 228.224492 
L 655.649233 232.071451 
L 656.860073 234.90832 
L 658.070912 236.64246 
L 659.281752 237.242018 
L 660.492592 236.733851 
L 661.703432 235.198315 
L 662.914272 232.759278 
L 664.125112 229.572249 
L 665.335952 225.81231 
L 667.757631 217.289836 
L 671.390151 204.330004 
L 673.811831 196.795552 
L 675.02267 193.502768 
L 675.02267 193.502768 
" style="fill:none;stroke:#1f77b4;stroke-linecap:square;stroke-width:1.5;"/>
   </g>
   <g id="patch_8">
    <path d="M 40.603125 246.518125 
L 40.603125 162.718125 
" style="fill:none;stroke:#000000;stroke-linecap:square;stroke-linejoin:miter;stroke-width:0.8;"/>
   </g>
   <g id="patch_9">
    <path d="M 705.233125 246.518125 
L 705.233125 162.718125 
" style="fill:none;stroke:#000000;stroke-linecap:square;stroke-linejoin:miter;stroke-width:0.8;"/>
   </g>
   <g id="patch_10">
    <path d="M 40.603125 246.518125 
L 705.233125 246.518125 
" style="fill:none;stroke:#000000;stroke-linecap:square;stroke-linejoin:miter;stroke-width:0.8;"/>
   </g>
   <g id="patch_11">
    <path d="M 40.603125 162.718125 
L 705.233125 162.718125 
" style="fill:none;stroke:#000000;stroke-linecap:square;stroke-linejoin:miter;stroke-width:0.8;"/>
   </g>
   <g id="text_30">
    <!-- Pre-processed Signal -->
    <defs>
     <path d="M 19.671875 64.796875 
L 19.671875 37.40625 
L 32.078125 37.40625 
Q 38.96875 37.40625 42.71875 40.96875 
Q 46.484375 44.53125 46.484375 51.125 
Q 46.484375 57.671875 42.71875 61.234375 
Q 38.96875 64.796875 32.078125 64.796875 
z
M 9.8125 72.90625 
L 32.078125 72.90625 
Q 44.34375 72.90625 50.609375 67.359375 
Q 56.890625 61.8125 56.890625 51.125 
Q 56.890625 40.328125 50.609375 34.8125 
Q 44.34375 29.296875 32.078125 29.296875 
L 19.671875 29.296875 
L 19.671875 0 
L 9.8125 0 
z
" id="DejaVuSans-80"/>
     <path d="M 41.109375 46.296875 
Q 39.59375 47.171875 37.8125 47.578125 
Q 36.03125 48 33.890625 48 
Q 26.265625 48 22.1875 43.046875 
Q 18.109375 38.09375 18.109375 28.8125 
L 18.109375 0 
L 9.078125 0 
L 9.078125 54.6875 
L 18.109375 54.6875 
L 18.109375 46.1875 
Q 20.953125 51.171875 25.484375 53.578125 
Q 30.03125 56 36.53125 56 
Q 37.453125 56 38.578125 55.875 
Q 39.703125 55.765625 41.0625 55.515625 
z
" id="DejaVuSans-114"/>
     <path d="M 4.890625 31.390625 
L 31.203125 31.390625 
L 31.203125 23.390625 
L 4.890625 23.390625 
z
" id="DejaVuSans-45"/>
     <path d="M 30.609375 48.390625 
Q 23.390625 48.390625 19.1875 42.75 
Q 14.984375 37.109375 14.984375 27.296875 
Q 14.984375 17.484375 19.15625 11.84375 
Q 23.34375 6.203125 30.609375 6.203125 
Q 37.796875 6.203125 41.984375 11.859375 
Q 46.1875 17.53125 46.1875 27.296875 
Q 46.1875 37.015625 41.984375 42.703125 
Q 37.796875 48.390625 30.609375 48.390625 
z
M 30.609375 56 
Q 42.328125 56 49.015625 48.375 
Q 55.71875 40.765625 55.71875 27.296875 
Q 55.71875 13.875 49.015625 6.21875 
Q 42.328125 -1.421875 30.609375 -1.421875 
Q 18.84375 -1.421875 12.171875 6.21875 
Q 5.515625 13.875 5.515625 27.296875 
Q 5.515625 40.765625 12.171875 48.375 
Q 18.84375 56 30.609375 56 
z
" id="DejaVuSans-111"/>
     <path d="M 48.78125 52.59375 
L 48.78125 44.1875 
Q 44.96875 46.296875 41.140625 47.34375 
Q 37.3125 48.390625 33.40625 48.390625 
Q 24.65625 48.390625 19.8125 42.84375 
Q 14.984375 37.3125 14.984375 27.296875 
Q 14.984375 17.28125 19.8125 11.734375 
Q 24.65625 6.203125 33.40625 6.203125 
Q 37.3125 6.203125 41.140625 7.25 
Q 44.96875 8.296875 48.78125 10.40625 
L 48.78125 2.09375 
Q 45.015625 0.34375 40.984375 -0.53125 
Q 36.96875 -1.421875 32.421875 -1.421875 
Q 20.0625 -1.421875 12.78125 6.34375 
Q 5.515625 14.109375 5.515625 27.296875 
Q 5.515625 40.671875 12.859375 48.328125 
Q 20.21875 56 33.015625 56 
Q 37.15625 56 41.109375 55.140625 
Q 45.0625 54.296875 48.78125 52.59375 
z
" id="DejaVuSans-99"/>
     <path d="M 45.40625 46.390625 
L 45.40625 75.984375 
L 54.390625 75.984375 
L 54.390625 0 
L 45.40625 0 
L 45.40625 8.203125 
Q 42.578125 3.328125 38.25 0.953125 
Q 33.9375 -1.421875 27.875 -1.421875 
Q 17.96875 -1.421875 11.734375 6.484375 
Q 5.515625 14.40625 5.515625 27.296875 
Q 5.515625 40.1875 11.734375 48.09375 
Q 17.96875 56 27.875 56 
Q 33.9375 56 38.25 53.625 
Q 42.578125 51.265625 45.40625 46.390625 
z
M 14.796875 27.296875 
Q 14.796875 17.390625 18.875 11.75 
Q 22.953125 6.109375 30.078125 6.109375 
Q 37.203125 6.109375 41.296875 11.75 
Q 45.40625 17.390625 45.40625 27.296875 
Q 45.40625 37.203125 41.296875 42.84375 
Q 37.203125 48.484375 30.078125 48.484375 
Q 22.953125 48.484375 18.875 42.84375 
Q 14.796875 37.203125 14.796875 27.296875 
z
" id="DejaVuSans-100"/>
    </defs>
    <g transform="translate(309.95375 156.718125)scale(0.12 -0.12)">
     <use xlink:href="#DejaVuSans-80"/>
     <use x="60.287109" xlink:href="#DejaVuSans-114"/>
     <use x="101.369141" xlink:href="#DejaVuSans-101"/>
     <use x="162.892578" xlink:href="#DejaVuSans-45"/>
     <use x="198.976562" xlink:href="#DejaVuSans-112"/>
     <use x="262.453125" xlink:href="#DejaVuSans-114"/>
     <use x="303.535156" xlink:href="#DejaVuSans-111"/>
     <use x="364.716797" xlink:href="#DejaVuSans-99"/>
     <use x="419.697266" xlink:href="#DejaVuSans-101"/>
     <use x="481.220703" xlink:href="#DejaVuSans-115"/>
     <use x="533.320312" xlink:href="#DejaVuSans-115"/>
     <use x="585.419922" xlink:href="#DejaVuSans-101"/>
     <use x="646.943359" xlink:href="#DejaVuSans-100"/>
     <use x="710.419922" xlink:href="#DejaVuSans-32"/>
     <use x="742.207031" xlink:href="#DejaVuSans-83"/>
     <use x="805.683594" xlink:href="#DejaVuSans-105"/>
     <use x="833.466797" xlink:href="#DejaVuSans-103"/>
     <use x="896.943359" xlink:href="#DejaVuSans-110"/>
     <use x="960.322266" xlink:href="#DejaVuSans-97"/>
     <use x="1021.601562" xlink:href="#DejaVuSans-108"/>
    </g>
   </g>
  </g>
  <g id="axes_3">
   <g id="patch_12">
    <path d="M 40.603125 386.918125 
L 705.233125 386.918125 
L 705.233125 303.118125 
L 40.603125 303.118125 
z
" style="fill:#ffffff;"/>
   </g>
   <g id="matplotlib.axis_5">
    <g id="xtick_17">
     <g id="line2d_25">
      <g>
       <use style="stroke:#000000;stroke-width:0.8;" x="102.451603" xlink:href="#mc5204e78b1" y="386.918125"/>
      </g>
     </g>
     <g id="text_31">
      <!-- 4.60 -->
      <g transform="translate(91.318791 401.516562)scale(0.1 -0.1)">
       <use xlink:href="#DejaVuSans-52"/>
       <use x="63.623047" xlink:href="#DejaVuSans-46"/>
       <use x="95.410156" xlink:href="#DejaVuSans-54"/>
       <use x="159.033203" xlink:href="#DejaVuSans-48"/>
      </g>
     </g>
    </g>
    <g id="xtick_18">
     <g id="line2d_26">
      <g>
       <use style="stroke:#000000;stroke-width:0.8;" x="179.617515" xlink:href="#mc5204e78b1" y="386.918125"/>
      </g>
     </g>
     <g id="text_32">
      <!-- 4.65 -->
      <g transform="translate(168.484703 401.516562)scale(0.1 -0.1)">
       <use xlink:href="#DejaVuSans-52"/>
       <use x="63.623047" xlink:href="#DejaVuSans-46"/>
       <use x="95.410156" xlink:href="#DejaVuSans-54"/>
       <use x="159.033203" xlink:href="#DejaVuSans-53"/>
      </g>
     </g>
    </g>
    <g id="xtick_19">
     <g id="line2d_27">
      <g>
       <use style="stroke:#000000;stroke-width:0.8;" x="256.783427" xlink:href="#mc5204e78b1" y="386.918125"/>
      </g>
     </g>
     <g id="text_33">
      <!-- 4.70 -->
      <g transform="translate(245.650615 401.516562)scale(0.1 -0.1)">
       <use xlink:href="#DejaVuSans-52"/>
       <use x="63.623047" xlink:href="#DejaVuSans-46"/>
       <use x="95.410156" xlink:href="#DejaVuSans-55"/>
       <use x="159.033203" xlink:href="#DejaVuSans-48"/>
      </g>
     </g>
    </g>
    <g id="xtick_20">
     <g id="line2d_28">
      <g>
       <use style="stroke:#000000;stroke-width:0.8;" x="333.949339" xlink:href="#mc5204e78b1" y="386.918125"/>
      </g>
     </g>
     <g id="text_34">
      <!-- 4.75 -->
      <g transform="translate(322.816527 401.516562)scale(0.1 -0.1)">
       <use xlink:href="#DejaVuSans-52"/>
       <use x="63.623047" xlink:href="#DejaVuSans-46"/>
       <use x="95.410156" xlink:href="#DejaVuSans-55"/>
       <use x="159.033203" xlink:href="#DejaVuSans-53"/>
      </g>
     </g>
    </g>
    <g id="xtick_21">
     <g id="line2d_29">
      <g>
       <use style="stroke:#000000;stroke-width:0.8;" x="411.115251" xlink:href="#mc5204e78b1" y="386.918125"/>
      </g>
     </g>
     <g id="text_35">
      <!-- 4.80 -->
      <g transform="translate(399.982439 401.516562)scale(0.1 -0.1)">
       <use xlink:href="#DejaVuSans-52"/>
       <use x="63.623047" xlink:href="#DejaVuSans-46"/>
       <use x="95.410156" xlink:href="#DejaVuSans-56"/>
       <use x="159.033203" xlink:href="#DejaVuSans-48"/>
      </g>
     </g>
    </g>
    <g id="xtick_22">
     <g id="line2d_30">
      <g>
       <use style="stroke:#000000;stroke-width:0.8;" x="488.281163" xlink:href="#mc5204e78b1" y="386.918125"/>
      </g>
     </g>
     <g id="text_36">
      <!-- 4.85 -->
      <g transform="translate(477.148351 401.516562)scale(0.1 -0.1)">
       <use xlink:href="#DejaVuSans-52"/>
       <use x="63.623047" xlink:href="#DejaVuSans-46"/>
       <use x="95.410156" xlink:href="#DejaVuSans-56"/>
       <use x="159.033203" xlink:href="#DejaVuSans-53"/>
      </g>
     </g>
    </g>
    <g id="xtick_23">
     <g id="line2d_31">
      <g>
       <use style="stroke:#000000;stroke-width:0.8;" x="565.447075" xlink:href="#mc5204e78b1" y="386.918125"/>
      </g>
     </g>
     <g id="text_37">
      <!-- 4.90 -->
      <g transform="translate(554.314263 401.516562)scale(0.1 -0.1)">
       <use xlink:href="#DejaVuSans-52"/>
       <use x="63.623047" xlink:href="#DejaVuSans-46"/>
       <use x="95.410156" xlink:href="#DejaVuSans-57"/>
       <use x="159.033203" xlink:href="#DejaVuSans-48"/>
      </g>
     </g>
    </g>
    <g id="xtick_24">
     <g id="line2d_32">
      <g>
       <use style="stroke:#000000;stroke-width:0.8;" x="642.612987" xlink:href="#mc5204e78b1" y="386.918125"/>
      </g>
     </g>
     <g id="text_38">
      <!-- 4.95 -->
      <g transform="translate(631.480175 401.516562)scale(0.1 -0.1)">
       <use xlink:href="#DejaVuSans-52"/>
       <use x="63.623047" xlink:href="#DejaVuSans-46"/>
       <use x="95.410156" xlink:href="#DejaVuSans-57"/>
       <use x="159.033203" xlink:href="#DejaVuSans-53"/>
      </g>
     </g>
    </g>
    <g id="text_39">
     <!-- Time (ms) -->
     <g transform="translate(347.565 415.194687)scale(0.1 -0.1)">
      <use xlink:href="#DejaVuSans-84"/>
      <use x="61.037109" xlink:href="#DejaVuSans-105"/>
      <use x="88.820312" xlink:href="#DejaVuSans-109"/>
      <use x="186.232422" xlink:href="#DejaVuSans-101"/>
      <use x="247.755859" xlink:href="#DejaVuSans-32"/>
      <use x="279.542969" xlink:href="#DejaVuSans-40"/>
      <use x="318.556641" xlink:href="#DejaVuSans-109"/>
      <use x="415.96875" xlink:href="#DejaVuSans-115"/>
      <use x="468.068359" xlink:href="#DejaVuSans-41"/>
     </g>
    </g>
    <g id="text_40">
     <!-- 1e4 -->
     <g transform="translate(686.355 414.194687)scale(0.1 -0.1)">
      <use xlink:href="#DejaVuSans-49"/>
      <use x="63.623047" xlink:href="#DejaVuSans-101"/>
      <use x="125.146484" xlink:href="#DejaVuSans-52"/>
     </g>
    </g>
   </g>
   <g id="matplotlib.axis_6">
    <g id="ytick_7">
     <g id="line2d_33">
      <g>
       <use style="stroke:#000000;stroke-width:0.8;" x="40.603125" xlink:href="#ma8c409fca2" y="380.113948"/>
      </g>
     </g>
     <g id="text_41">
      <!-- 0 -->
      <g transform="translate(27.240625 383.913167)scale(0.1 -0.1)">
       <use xlink:href="#DejaVuSans-48"/>
      </g>
     </g>
    </g>
    <g id="ytick_8">
     <g id="line2d_34">
      <g>
       <use style="stroke:#000000;stroke-width:0.8;" x="40.603125" xlink:href="#ma8c409fca2" y="338.477941"/>
      </g>
     </g>
     <g id="text_42">
      <!-- 20 -->
      <g transform="translate(20.878125 342.27716)scale(0.1 -0.1)">
       <use xlink:href="#DejaVuSans-50"/>
       <use x="63.623047" xlink:href="#DejaVuSans-48"/>
      </g>
     </g>
    </g>
    <g id="text_43">
     <!-- ADC Value -->
     <g transform="translate(14.798438 371.482187)rotate(-90)scale(0.1 -0.1)">
      <use xlink:href="#DejaVuSans-65"/>
      <use x="68.408203" xlink:href="#DejaVuSans-68"/>
      <use x="145.410156" xlink:href="#DejaVuSans-67"/>
      <use x="215.234375" xlink:href="#DejaVuSans-32"/>
      <use x="247.021484" xlink:href="#DejaVuSans-86"/>
      <use x="315.320312" xlink:href="#DejaVuSans-97"/>
      <use x="376.599609" xlink:href="#DejaVuSans-108"/>
      <use x="404.382812" xlink:href="#DejaVuSans-117"/>
      <use x="467.761719" xlink:href="#DejaVuSans-101"/>
     </g>
    </g>
   </g>
   <g id="line2d_35">
    <path clip-path="url(#p26034b59ad)" d="M 70.81358 350.6648 
L 73.235259 345.894147 
L 74.446099 343.761758 
L 75.656939 341.90625 
L 76.867779 340.380915 
L 78.078619 339.208653 
L 79.289459 338.380721 
L 80.500298 337.855066 
L 81.711138 337.561533 
L 85.343658 337.079388 
L 86.554498 336.694046 
L 87.765338 336.044525 
L 88.976177 335.077945 
L 90.187017 333.78015 
L 91.397857 332.179662 
L 96.241217 324.813004 
L 97.452056 323.525202 
L 98.662896 322.825509 
L 99.873736 322.879844 
L 101.084576 323.819777 
L 102.295416 325.728163 
L 103.506256 328.629568 
L 104.717096 332.482981 
L 105.927936 337.180355 
L 108.349615 348.36795 
L 110.771295 360.247327 
L 111.982135 365.719131 
L 113.192975 370.496655 
L 114.403815 374.331539 
L 115.614654 377.027263 
L 116.825494 378.45392 
L 118.036334 378.556969 
L 119.247174 377.361183 
L 120.458014 374.969195 
L 121.668854 371.553377 
L 122.879694 367.342936 
L 128.933893 344.043634 
L 130.144733 340.690895 
L 131.355573 338.15089 
L 132.566412 336.45339 
L 133.777252 335.557592 
L 134.988092 335.357739 
L 136.198932 335.695823 
L 137.409772 336.376155 
L 139.831452 337.912524 
L 141.042292 338.36823 
L 142.253131 338.403204 
L 143.463971 337.9221 
L 144.674811 336.893899 
L 145.885651 335.355241 
L 147.096491 333.40959 
L 150.72901 326.964961 
L 151.93985 325.385082 
L 153.15069 324.486369 
L 154.36153 324.470131 
L 155.57237 325.485425 
L 156.78321 327.615107 
L 157.99405 330.865214 
L 159.204889 335.160384 
L 160.415729 340.346981 
L 162.837409 352.439743 
L 165.259089 364.787734 
L 166.469929 370.235805 
L 167.680768 374.796405 
L 168.891608 378.226796 
L 170.102448 380.354396 
L 171.313288 381.089063 
L 172.524128 380.429341 
L 173.734968 378.461831 
L 174.945808 375.354744 
L 176.156647 371.344572 
L 178.578327 361.792439 
L 181.000007 352.307133 
L 182.210847 348.314448 
L 183.421687 345.114096 
L 184.632527 342.839729 
L 185.843366 341.544849 
L 187.054206 341.203642 
L 188.265046 341.714516 
L 189.475886 342.912592 
L 190.686726 344.584902 
L 193.108406 348.384188 
L 194.319245 350.032557 
L 195.530085 351.240626 
L 196.740925 351.864958 
L 197.951765 351.826445 
L 199.162605 351.1178 
L 200.373445 349.802935 
L 201.584285 348.011962 
L 205.216804 341.807989 
L 206.427644 340.254966 
L 207.638484 339.342305 
L 208.849324 339.249456 
L 210.060164 340.098414 
L 211.271003 341.942057 
L 212.481843 344.758941 
L 213.692683 348.451846 
L 214.903523 352.854646 
L 219.746883 372.559719 
L 220.957722 376.595705 
L 222.168562 379.758585 
L 223.379402 381.867032 
L 224.590242 382.806132 
L 225.801082 382.533833 
L 227.011922 381.083442 
L 228.222762 378.559051 
L 229.433601 375.125122 
L 230.644441 370.993581 
L 236.698641 348.34963 
L 237.90948 344.877603 
L 239.12032 342.041359 
L 240.33116 339.848598 
L 241.542 338.249568 
L 242.75284 337.146838 
L 243.96368 336.40655 
L 247.596199 334.817928 
L 248.807039 334.032048 
L 250.017879 332.961586 
L 251.228719 331.582186 
L 252.439559 329.924656 
L 256.072078 324.361045 
L 257.282918 322.864647 
L 258.493758 321.874751 
L 259.704598 321.581425 
L 260.915438 322.145385 
L 262.126278 323.683002 
L 263.337118 326.251528 
L 264.547957 329.8418 
L 265.758797 334.374088 
L 266.969637 339.69975 
L 269.391317 351.843516 
L 271.812997 364.109483 
L 273.023836 369.539859 
L 274.234676 374.133768 
L 275.445516 377.668457 
L 276.656356 379.983003 
L 277.867196 380.988304 
L 279.078036 380.673536 
L 280.288876 379.104067 
L 281.499715 376.416671 
L 282.710555 372.807245 
L 283.921395 368.514781 
L 288.764755 349.739856 
L 289.975594 345.789224 
L 291.186434 342.439399 
L 292.397274 339.736389 
L 293.608114 337.662708 
L 294.818954 336.143618 
L 296.029794 335.057959 
L 298.451474 333.564268 
L 299.662313 332.830433 
L 300.873153 331.915274 
L 302.083993 330.721986 
L 303.294833 329.204561 
L 304.505673 327.377157 
L 309.349032 319.228158 
L 310.559872 317.914958 
L 311.770712 317.323102 
L 312.981552 317.642242 
L 314.192392 319.016647 
L 315.403232 321.526882 
L 316.614071 325.180233 
L 317.824911 329.90363 
L 319.035751 335.544684 
L 321.457431 348.620056 
L 323.879111 362.003326 
L 325.08995 367.958316 
L 326.30079 372.995232 
L 327.51163 376.852391 
L 328.72247 379.336187 
L 329.93331 380.336701 
L 331.14415 379.833321 
L 332.35499 377.896206 
L 333.565829 374.6792 
L 334.776669 370.407346 
L 337.198349 359.844499 
L 339.620029 348.666896 
L 340.830869 343.56711 
L 342.041709 339.086243 
L 343.252548 335.360653 
L 344.463388 332.448839 
L 345.674228 330.332689 
L 346.885068 328.92331 
L 348.095908 328.072687 
L 349.306748 327.591582 
L 351.728427 326.898968 
L 352.939267 326.292123 
L 354.150107 325.305974 
L 355.360947 323.855584 
L 356.571787 321.923673 
L 357.782627 319.566242 
L 361.415146 311.496976 
L 362.625986 309.237598 
L 363.836826 307.631073 
L 365.047666 306.927216 
L 366.258506 307.334832 
L 367.469346 309.001938 
L 368.680185 311.999939 
L 369.891025 316.313637 
L 371.101865 321.837903 
L 372.312705 328.380168 
L 374.734385 343.384536 
L 377.156065 358.584801 
L 378.366904 365.318177 
L 379.577744 371.014815 
L 380.788584 375.398254 
L 381.999424 378.270514 
L 383.210264 379.523133 
L 384.421104 379.145494 
L 385.631944 377.222744 
L 386.842783 373.928295 
L 388.053623 369.511339 
L 390.475303 358.560653 
L 392.896983 347.060163 
L 394.107823 341.899172 
L 395.318662 337.463688 
L 396.529502 333.917757 
L 397.740342 331.344652 
L 398.951182 329.745621 
L 400.162022 329.044263 
L 401.372862 329.096516 
L 402.583702 329.706692 
L 406.216221 332.552929 
L 407.427061 333.09045 
L 408.637901 333.131045 
L 409.848741 332.583948 
L 411.059581 331.428549 
L 412.270421 329.717101 
L 413.48126 327.570973 
L 417.11378 320.552807 
L 418.32462 318.850936 
L 419.53546 317.889977 
L 420.7463 317.882274 
L 421.957139 318.986877 
L 423.167979 321.29372 
L 424.378819 324.813836 
L 425.589659 329.475404 
L 426.800499 335.125202 
L 429.222179 348.424159 
L 431.643858 362.290406 
L 432.854698 368.573071 
L 434.065538 373.983879 
L 435.276378 378.247198 
L 436.487218 381.151725 
L 437.698058 382.564643 
L 438.908897 382.439527 
L 440.119737 380.818846 
L 441.330577 377.830421 
L 442.541417 373.676397 
L 443.752257 368.619704 
L 449.806456 340.656129 
L 451.017296 336.492944 
L 452.228136 333.237217 
L 453.438976 330.93308 
L 454.649816 329.548683 
L 455.860656 328.982225 
L 457.071495 329.0732 
L 458.282335 329.617799 
L 460.704015 331.154792 
L 461.914855 331.701889 
L 463.125695 331.851571 
L 464.336535 331.477263 
L 465.547374 330.515679 
L 466.758214 328.973273 
L 467.969054 326.926655 
L 470.390734 321.94574 
L 471.601574 319.444873 
L 472.812414 317.273347 
L 474.023253 315.688264 
L 475.234093 314.925701 
L 476.444933 315.179681 
L 477.655773 316.585104 
L 478.866613 319.204842 
L 480.077453 323.020782 
L 481.288293 327.932373 
L 482.499132 333.760373 
L 484.920812 347.120119 
L 487.342492 360.59478 
L 488.553332 366.523539 
L 489.764172 371.499874 
L 490.975012 375.276677 
L 492.185851 377.677617 
L 493.396691 378.609014 
L 494.607531 378.064207 
L 495.818371 376.123137 
L 497.029211 372.946101 
L 498.240051 368.759184 
L 500.66173 358.490496 
L 503.08341 347.741328 
L 504.29425 342.897811 
L 505.50509 338.702984 
L 506.71593 335.298407 
L 507.92677 332.752782 
L 509.137609 331.060278 
L 510.348449 330.144702 
L 511.559289 329.869697 
L 512.770129 330.053311 
L 516.402649 331.240978 
L 517.613488 331.184354 
L 518.824328 330.653911 
L 520.035168 329.583657 
L 521.246008 327.974009 
L 522.456848 325.894707 
L 527.300207 316.283035 
L 528.511047 314.718146 
L 529.721887 313.972445 
L 530.932727 314.241205 
L 532.143567 315.662242 
L 533.354407 318.303006 
L 534.565247 322.152255 
L 535.776086 327.116099 
L 536.986926 333.022167 
L 539.408606 346.636308 
L 541.830286 360.50901 
L 543.041126 366.684254 
L 544.251965 371.929142 
L 545.462805 375.98553 
L 546.673645 378.664807 
L 547.884485 379.858511 
L 549.095325 379.546657 
L 550.306165 377.796696 
L 551.517005 374.758517 
L 552.727844 370.651957 
L 553.938684 365.752024 
L 558.782044 344.437719 
L 559.992884 340.116526 
L 561.203723 336.617644 
L 562.414563 334.03413 
L 563.625403 332.383887 
L 564.836243 331.610914 
L 566.047083 331.593635 
L 567.257923 332.158636 
L 568.468763 333.096487 
L 570.890442 335.19057 
L 572.101282 335.924821 
L 573.312122 336.224809 
L 574.522962 335.985818 
L 575.733802 335.165797 
L 576.944642 333.790559 
L 578.155482 331.95233 
L 581.788001 325.39445 
L 582.998841 323.612221 
L 584.209681 322.430383 
L 585.420521 322.06128 
L 586.631361 322.673121 
L 587.8422 324.374576 
L 589.05304 327.204784 
L 590.26388 331.127104 
L 591.47472 336.029119 
L 592.68556 341.728048 
L 598.739759 372.517875 
L 599.950599 377.019144 
L 601.161439 380.369801 
L 602.372279 382.423081 
L 603.583119 383.109034 
L 604.793958 382.437237 
L 606.004798 380.496166 
L 607.215638 377.443831 
L 608.426478 373.497778 
L 610.848158 363.982702 
L 613.269838 354.178047 
L 614.480677 349.807931 
L 615.691517 346.051947 
L 616.902357 343.031255 
L 618.113197 340.799148 
L 619.324037 339.341472 
L 620.534877 338.580574 
L 621.745717 338.385093 
L 622.956556 338.583696 
L 625.378236 339.377695 
L 626.589076 339.585251 
L 627.799916 339.446811 
L 629.010756 338.848918 
L 630.221596 337.733697 
L 631.432435 336.104064 
L 632.643275 334.024762 
L 635.064955 329.054255 
L 636.275795 326.539441 
L 637.486635 324.297342 
L 638.697475 322.552793 
L 639.908314 321.512517 
L 641.119154 321.348055 
L 642.329994 322.180983 
L 643.540834 324.071883 
L 644.751674 327.013675 
L 645.962514 330.930582 
L 647.173354 335.6825 
L 649.595033 346.861559 
L 652.016713 358.557114 
L 653.227553 363.91879 
L 654.438393 368.624492 
L 655.649233 372.471451 
L 656.860073 375.30832 
L 658.070912 377.04246 
L 659.281752 377.642018 
L 660.492592 377.133851 
L 661.703432 375.598315 
L 662.914272 373.159278 
L 664.125112 369.972249 
L 665.335952 366.21231 
L 667.757631 357.689836 
L 671.390151 344.730004 
L 673.811831 337.195552 
L 675.02267 333.902768 
L 675.02267 333.902768 
" style="fill:none;stroke:#1f77b4;stroke-linecap:square;stroke-width:1.5;"/>
   </g>
   <g id="line2d_36">
    <defs>
     <path d="M -3 3 
L 3 -3 
M -3 -3 
L 3 3 
" id="m3b89ce92d6" style="stroke:#ff0000;"/>
    </defs>
    <g clip-path="url(#p26034b59ad)">
     <use style="fill:#ff0000;stroke:#ff0000;" x="98.662896" xlink:href="#m3b89ce92d6" y="322.825509"/>
     <use style="fill:#ff0000;stroke:#ff0000;" x="154.36153" xlink:href="#m3b89ce92d6" y="324.470131"/>
     <use style="fill:#ff0000;stroke:#ff0000;" x="208.849324" xlink:href="#m3b89ce92d6" y="339.249456"/>
     <use style="fill:#ff0000;stroke:#ff0000;" x="259.704598" xlink:href="#m3b89ce92d6" y="321.581425"/>
     <use style="fill:#ff0000;stroke:#ff0000;" x="311.770712" xlink:href="#m3b89ce92d6" y="317.323102"/>
     <use style="fill:#ff0000;stroke:#ff0000;" x="365.047666" xlink:href="#m3b89ce92d6" y="306.927216"/>
     <use style="fill:#ff0000;stroke:#ff0000;" x="420.7463" xlink:href="#m3b89ce92d6" y="317.882274"/>
     <use style="fill:#ff0000;stroke:#ff0000;" x="475.234093" xlink:href="#m3b89ce92d6" y="314.925701"/>
     <use style="fill:#ff0000;stroke:#ff0000;" x="529.721887" xlink:href="#m3b89ce92d6" y="313.972445"/>
     <use style="fill:#ff0000;stroke:#ff0000;" x="585.420521" xlink:href="#m3b89ce92d6" y="322.06128"/>
     <use style="fill:#ff0000;stroke:#ff0000;" x="641.119154" xlink:href="#m3b89ce92d6" y="321.348055"/>
    </g>
   </g>
   <g id="patch_13">
    <path d="M 40.603125 386.918125 
L 40.603125 303.118125 
" style="fill:none;stroke:#000000;stroke-linecap:square;stroke-linejoin:miter;stroke-width:0.8;"/>
   </g>
   <g id="patch_14">
    <path d="M 705.233125 386.918125 
L 705.233125 303.118125 
" style="fill:none;stroke:#000000;stroke-linecap:square;stroke-linejoin:miter;stroke-width:0.8;"/>
   </g>
   <g id="patch_15">
    <path d="M 40.603125 386.918125 
L 705.233125 386.918125 
" style="fill:none;stroke:#000000;stroke-linecap:square;stroke-linejoin:miter;stroke-width:0.8;"/>
   </g>
   <g id="patch_16">
    <path d="M 40.603125 303.118125 
L 705.233125 303.118125 
" style="fill:none;stroke:#000000;stroke-linecap:square;stroke-linejoin:miter;stroke-width:0.8;"/>
   </g>
   <g id="text_44">
    <!-- Initial Systolic Peaks -->
    <defs>
     <path d="M 32.171875 -5.078125 
Q 28.375 -14.84375 24.75 -17.8125 
Q 21.140625 -20.796875 15.09375 -20.796875 
L 7.90625 -20.796875 
L 7.90625 -13.28125 
L 13.1875 -13.28125 
Q 16.890625 -13.28125 18.9375 -11.515625 
Q 21 -9.765625 23.484375 -3.21875 
L 25.09375 0.875 
L 2.984375 54.6875 
L 12.5 54.6875 
L 29.59375 11.921875 
L 46.6875 54.6875 
L 56.203125 54.6875 
z
" id="DejaVuSans-121"/>
     <path d="M 9.078125 75.984375 
L 18.109375 75.984375 
L 18.109375 31.109375 
L 44.921875 54.6875 
L 56.390625 54.6875 
L 27.390625 29.109375 
L 57.625 0 
L 45.90625 0 
L 18.109375 26.703125 
L 18.109375 0 
L 9.078125 0 
z
" id="DejaVuSans-107"/>
    </defs>
    <g transform="translate(311.77625 297.118125)scale(0.12 -0.12)">
     <use xlink:href="#DejaVuSans-73"/>
     <use x="29.492188" xlink:href="#DejaVuSans-110"/>
     <use x="92.871094" xlink:href="#DejaVuSans-105"/>
     <use x="120.654297" xlink:href="#DejaVuSans-116"/>
     <use x="159.863281" xlink:href="#DejaVuSans-105"/>
     <use x="187.646484" xlink:href="#DejaVuSans-97"/>
     <use x="248.925781" xlink:href="#DejaVuSans-108"/>
     <use x="276.708984" xlink:href="#DejaVuSans-32"/>
     <use x="308.496094" xlink:href="#DejaVuSans-83"/>
     <use x="371.972656" xlink:href="#DejaVuSans-121"/>
     <use x="431.152344" xlink:href="#DejaVuSans-115"/>
     <use x="483.251953" xlink:href="#DejaVuSans-116"/>
     <use x="522.460938" xlink:href="#DejaVuSans-111"/>
     <use x="583.642578" xlink:href="#DejaVuSans-108"/>
     <use x="611.425781" xlink:href="#DejaVuSans-105"/>
     <use x="639.208984" xlink:href="#DejaVuSans-99"/>
     <use x="694.189453" xlink:href="#DejaVuSans-32"/>
     <use x="725.976562" xlink:href="#DejaVuSans-80"/>
     <use x="786.232422" xlink:href="#DejaVuSans-101"/>
     <use x="847.755859" xlink:href="#DejaVuSans-97"/>
     <use x="909.035156" xlink:href="#DejaVuSans-107"/>
     <use x="966.945312" xlink:href="#DejaVuSans-115"/>
    </g>
   </g>
  </g>
 </g>
 <defs>
  <clipPath id="pb8a76b7efc">
   <rect height="83.8" width="664.63" x="40.603125" y="22.318125"/>
  </clipPath>
  <clipPath id="p4248b837f5">
   <rect height="83.8" width="664.63" x="40.603125" y="162.718125"/>
  </clipPath>
  <clipPath id="p26034b59ad">
   <rect height="83.8" width="664.63" x="40.603125" y="303.118125"/>
  </clipPath>
 </defs>
</svg>
