<?xml version="1.0" encoding="utf-8" standalone="no"?>
<!DOCTYPE svg PUBLIC "-//W3C//DTD SVG 1.1//EN"
  "http://www.w3.org/Graphics/SVG/1.1/DTD/svg11.dtd">
<!-- Created with matplotlib (https://matplotlib.org/) -->
<svg height="424.474375pt" version="1.1" viewBox="0 0 712.523125 424.474375" width="712.523125pt" xmlns="http://www.w3.org/2000/svg" xmlns:xlink="http://www.w3.org/1999/xlink">
 <defs>
  <style type="text/css">
*{stroke-linecap:butt;stroke-linejoin:round;}
  </style>
 </defs>
 <g id="figure_1">
  <g id="patch_1">
   <path d="M 0 424.474375 
L 712.523125 424.474375 
L 712.523125 0 
L 0 0 
z
" style="fill:#ffffff;"/>
  </g>
  <g id="axes_1">
   <g id="patch_2">
    <path d="M 40.603125 106.118125 
L 705.323125 106.118125 
L 705.323125 22.318125 
L 40.603125 22.318125 
z
" style="fill:#ffffff;"/>
   </g>
   <g id="matplotlib.axis_1">
    <g id="xtick_1">
     <g id="line2d_1">
      <defs>
       <path d="M 0 0 
L 0 3.5 
" id="m2eaf3d9e3d" style="stroke:#000000;stroke-width:0.8;"/>
      </defs>
      <g>
       <use style="stroke:#000000;stroke-width:0.8;" x="136.381259" xlink:href="#m2eaf3d9e3d" y="106.118125"/>
      </g>
     </g>
     <g id="text_1">
      <!-- 6.580 -->
      <defs>
       <path d="M 33.015625 40.375 
Q 26.375 40.375 22.484375 35.828125 
Q 18.609375 31.296875 18.609375 23.390625 
Q 18.609375 15.53125 22.484375 10.953125 
Q 26.375 6.390625 33.015625 6.390625 
Q 39.65625 6.390625 43.53125 10.953125 
Q 47.40625 15.53125 47.40625 23.390625 
Q 47.40625 31.296875 43.53125 35.828125 
Q 39.65625 40.375 33.015625 40.375 
z
M 52.59375 71.296875 
L 52.59375 62.3125 
Q 48.875 64.0625 45.09375 64.984375 
Q 41.3125 65.921875 37.59375 65.921875 
Q 27.828125 65.921875 22.671875 59.328125 
Q 17.53125 52.734375 16.796875 39.40625 
Q 19.671875 43.65625 24.015625 45.921875 
Q 28.375 48.1875 33.59375 48.1875 
Q 44.578125 48.1875 50.953125 41.515625 
Q 57.328125 34.859375 57.328125 23.390625 
Q 57.328125 12.15625 50.6875 5.359375 
Q 44.046875 -1.421875 33.015625 -1.421875 
Q 20.359375 -1.421875 13.671875 8.265625 
Q 6.984375 17.96875 6.984375 36.375 
Q 6.984375 53.65625 15.1875 63.9375 
Q 23.390625 74.21875 37.203125 74.21875 
Q 40.921875 74.21875 44.703125 73.484375 
Q 48.484375 72.75 52.59375 71.296875 
z
" id="DejaVuSans-54"/>
       <path d="M 10.6875 12.40625 
L 21 12.40625 
L 21 0 
L 10.6875 0 
z
" id="DejaVuSans-46"/>
       <path d="M 10.796875 72.90625 
L 49.515625 72.90625 
L 49.515625 64.59375 
L 19.828125 64.59375 
L 19.828125 46.734375 
Q 21.96875 47.46875 24.109375 47.828125 
Q 26.265625 48.1875 28.421875 48.1875 
Q 40.625 48.1875 47.75 41.5 
Q 54.890625 34.8125 54.890625 23.390625 
Q 54.890625 11.625 47.5625 5.09375 
Q 40.234375 -1.421875 26.90625 -1.421875 
Q 22.3125 -1.421875 17.546875 -0.640625 
Q 12.796875 0.140625 7.71875 1.703125 
L 7.71875 11.625 
Q 12.109375 9.234375 16.796875 8.0625 
Q 21.484375 6.890625 26.703125 6.890625 
Q 35.15625 6.890625 40.078125 11.328125 
Q 45.015625 15.765625 45.015625 23.390625 
Q 45.015625 31 40.078125 35.4375 
Q 35.15625 39.890625 26.703125 39.890625 
Q 22.75 39.890625 18.8125 39.015625 
Q 14.890625 38.140625 10.796875 36.28125 
z
" id="DejaVuSans-53"/>
       <path d="M 31.78125 34.625 
Q 24.75 34.625 20.71875 30.859375 
Q 16.703125 27.09375 16.703125 20.515625 
Q 16.703125 13.921875 20.71875 10.15625 
Q 24.75 6.390625 31.78125 6.390625 
Q 38.8125 6.390625 42.859375 10.171875 
Q 46.921875 13.96875 46.921875 20.515625 
Q 46.921875 27.09375 42.890625 30.859375 
Q 38.875 34.625 31.78125 34.625 
z
M 21.921875 38.8125 
Q 15.578125 40.375 12.03125 44.71875 
Q 8.5 49.078125 8.5 55.328125 
Q 8.5 64.0625 14.71875 69.140625 
Q 20.953125 74.21875 31.78125 74.21875 
Q 42.671875 74.21875 48.875 69.140625 
Q 55.078125 64.0625 55.078125 55.328125 
Q 55.078125 49.078125 51.53125 44.71875 
Q 48 40.375 41.703125 38.8125 
Q 48.828125 37.15625 52.796875 32.3125 
Q 56.78125 27.484375 56.78125 20.515625 
Q 56.78125 9.90625 50.3125 4.234375 
Q 43.84375 -1.421875 31.78125 -1.421875 
Q 19.734375 -1.421875 13.25 4.234375 
Q 6.78125 9.90625 6.78125 20.515625 
Q 6.78125 27.484375 10.78125 32.3125 
Q 14.796875 37.15625 21.921875 38.8125 
z
M 18.3125 54.390625 
Q 18.3125 48.734375 21.84375 45.5625 
Q 25.390625 42.390625 31.78125 42.390625 
Q 38.140625 42.390625 41.71875 45.5625 
Q 45.3125 48.734375 45.3125 54.390625 
Q 45.3125 60.0625 41.71875 63.234375 
Q 38.140625 66.40625 31.78125 66.40625 
Q 25.390625 66.40625 21.84375 63.234375 
Q 18.3125 60.0625 18.3125 54.390625 
z
" id="DejaVuSans-56"/>
       <path d="M 31.78125 66.40625 
Q 24.171875 66.40625 20.328125 58.90625 
Q 16.5 51.421875 16.5 36.375 
Q 16.5 21.390625 20.328125 13.890625 
Q 24.171875 6.390625 31.78125 6.390625 
Q 39.453125 6.390625 43.28125 13.890625 
Q 47.125 21.390625 47.125 36.375 
Q 47.125 51.421875 43.28125 58.90625 
Q 39.453125 66.40625 31.78125 66.40625 
z
M 31.78125 74.21875 
Q 44.046875 74.21875 50.515625 64.515625 
Q 56.984375 54.828125 56.984375 36.375 
Q 56.984375 17.96875 50.515625 8.265625 
Q 44.046875 -1.421875 31.78125 -1.421875 
Q 19.53125 -1.421875 13.0625 8.265625 
Q 6.59375 17.96875 6.59375 36.375 
Q 6.59375 54.828125 13.0625 64.515625 
Q 19.53125 74.21875 31.78125 74.21875 
z
" id="DejaVuSans-48"/>
      </defs>
      <g transform="translate(122.067197 120.716562)scale(0.1 -0.1)">
       <use xlink:href="#DejaVuSans-54"/>
       <use x="63.623047" xlink:href="#DejaVuSans-46"/>
       <use x="95.410156" xlink:href="#DejaVuSans-53"/>
       <use x="159.033203" xlink:href="#DejaVuSans-56"/>
       <use x="222.65625" xlink:href="#DejaVuSans-48"/>
      </g>
     </g>
    </g>
    <g id="xtick_2">
     <g id="line2d_2">
      <g>
       <use style="stroke:#000000;stroke-width:0.8;" x="235.121604" xlink:href="#m2eaf3d9e3d" y="106.118125"/>
      </g>
     </g>
     <g id="text_2">
      <!-- 6.585 -->
      <g transform="translate(220.807541 120.716562)scale(0.1 -0.1)">
       <use xlink:href="#DejaVuSans-54"/>
       <use x="63.623047" xlink:href="#DejaVuSans-46"/>
       <use x="95.410156" xlink:href="#DejaVuSans-53"/>
       <use x="159.033203" xlink:href="#DejaVuSans-56"/>
       <use x="222.65625" xlink:href="#DejaVuSans-53"/>
      </g>
     </g>
    </g>
    <g id="xtick_3">
     <g id="line2d_3">
      <g>
       <use style="stroke:#000000;stroke-width:0.8;" x="333.861949" xlink:href="#m2eaf3d9e3d" y="106.118125"/>
      </g>
     </g>
     <g id="text_3">
      <!-- 6.590 -->
      <defs>
       <path d="M 10.984375 1.515625 
L 10.984375 10.5 
Q 14.703125 8.734375 18.5 7.8125 
Q 22.3125 6.890625 25.984375 6.890625 
Q 35.75 6.890625 40.890625 13.453125 
Q 46.046875 20.015625 46.78125 33.40625 
Q 43.953125 29.203125 39.59375 26.953125 
Q 35.25 24.703125 29.984375 24.703125 
Q 19.046875 24.703125 12.671875 31.3125 
Q 6.296875 37.9375 6.296875 49.421875 
Q 6.296875 60.640625 12.9375 67.421875 
Q 19.578125 74.21875 30.609375 74.21875 
Q 43.265625 74.21875 49.921875 64.515625 
Q 56.59375 54.828125 56.59375 36.375 
Q 56.59375 19.140625 48.40625 8.859375 
Q 40.234375 -1.421875 26.421875 -1.421875 
Q 22.703125 -1.421875 18.890625 -0.6875 
Q 15.09375 0.046875 10.984375 1.515625 
z
M 30.609375 32.421875 
Q 37.25 32.421875 41.125 36.953125 
Q 45.015625 41.5 45.015625 49.421875 
Q 45.015625 57.28125 41.125 61.84375 
Q 37.25 66.40625 30.609375 66.40625 
Q 23.96875 66.40625 20.09375 61.84375 
Q 16.21875 57.28125 16.21875 49.421875 
Q 16.21875 41.5 20.09375 36.953125 
Q 23.96875 32.421875 30.609375 32.421875 
z
" id="DejaVuSans-57"/>
      </defs>
      <g transform="translate(319.547886 120.716562)scale(0.1 -0.1)">
       <use xlink:href="#DejaVuSans-54"/>
       <use x="63.623047" xlink:href="#DejaVuSans-46"/>
       <use x="95.410156" xlink:href="#DejaVuSans-53"/>
       <use x="159.033203" xlink:href="#DejaVuSans-57"/>
       <use x="222.65625" xlink:href="#DejaVuSans-48"/>
      </g>
     </g>
    </g>
    <g id="xtick_4">
     <g id="line2d_4">
      <g>
       <use style="stroke:#000000;stroke-width:0.8;" x="432.602293" xlink:href="#m2eaf3d9e3d" y="106.118125"/>
      </g>
     </g>
     <g id="text_4">
      <!-- 6.595 -->
      <g transform="translate(418.288231 120.716562)scale(0.1 -0.1)">
       <use xlink:href="#DejaVuSans-54"/>
       <use x="63.623047" xlink:href="#DejaVuSans-46"/>
       <use x="95.410156" xlink:href="#DejaVuSans-53"/>
       <use x="159.033203" xlink:href="#DejaVuSans-57"/>
       <use x="222.65625" xlink:href="#DejaVuSans-53"/>
      </g>
     </g>
    </g>
    <g id="xtick_5">
     <g id="line2d_5">
      <g>
       <use style="stroke:#000000;stroke-width:0.8;" x="531.342638" xlink:href="#m2eaf3d9e3d" y="106.118125"/>
      </g>
     </g>
     <g id="text_5">
      <!-- 6.600 -->
      <g transform="translate(517.028575 120.716562)scale(0.1 -0.1)">
       <use xlink:href="#DejaVuSans-54"/>
       <use x="63.623047" xlink:href="#DejaVuSans-46"/>
       <use x="95.410156" xlink:href="#DejaVuSans-54"/>
       <use x="159.033203" xlink:href="#DejaVuSans-48"/>
       <use x="222.65625" xlink:href="#DejaVuSans-48"/>
      </g>
     </g>
    </g>
    <g id="xtick_6">
     <g id="line2d_6">
      <g>
       <use style="stroke:#000000;stroke-width:0.8;" x="630.082982" xlink:href="#m2eaf3d9e3d" y="106.118125"/>
      </g>
     </g>
     <g id="text_6">
      <!-- 6.605 -->
      <g transform="translate(615.76892 120.716562)scale(0.1 -0.1)">
       <use xlink:href="#DejaVuSans-54"/>
       <use x="63.623047" xlink:href="#DejaVuSans-46"/>
       <use x="95.410156" xlink:href="#DejaVuSans-54"/>
       <use x="159.033203" xlink:href="#DejaVuSans-48"/>
       <use x="222.65625" xlink:href="#DejaVuSans-53"/>
      </g>
     </g>
    </g>
    <g id="text_7">
     <!-- Time (ms) -->
     <defs>
      <path d="M -0.296875 72.90625 
L 61.375 72.90625 
L 61.375 64.59375 
L 35.5 64.59375 
L 35.5 0 
L 25.59375 0 
L 25.59375 64.59375 
L -0.296875 64.59375 
z
" id="DejaVuSans-84"/>
      <path d="M 9.421875 54.6875 
L 18.40625 54.6875 
L 18.40625 0 
L 9.421875 0 
z
M 9.421875 75.984375 
L 18.40625 75.984375 
L 18.40625 64.59375 
L 9.421875 64.59375 
z
" id="DejaVuSans-105"/>
      <path d="M 52 44.1875 
Q 55.375 50.25 60.0625 53.125 
Q 64.75 56 71.09375 56 
Q 79.640625 56 84.28125 50.015625 
Q 88.921875 44.046875 88.921875 33.015625 
L 88.921875 0 
L 79.890625 0 
L 79.890625 32.71875 
Q 79.890625 40.578125 77.09375 44.375 
Q 74.3125 48.1875 68.609375 48.1875 
Q 61.625 48.1875 57.5625 43.546875 
Q 53.515625 38.921875 53.515625 30.90625 
L 53.515625 0 
L 44.484375 0 
L 44.484375 32.71875 
Q 44.484375 40.625 41.703125 44.40625 
Q 38.921875 48.1875 33.109375 48.1875 
Q 26.21875 48.1875 22.15625 43.53125 
Q 18.109375 38.875 18.109375 30.90625 
L 18.109375 0 
L 9.078125 0 
L 9.078125 54.6875 
L 18.109375 54.6875 
L 18.109375 46.1875 
Q 21.1875 51.21875 25.484375 53.609375 
Q 29.78125 56 35.6875 56 
Q 41.65625 56 45.828125 52.96875 
Q 50 49.953125 52 44.1875 
z
" id="DejaVuSans-109"/>
      <path d="M 56.203125 29.59375 
L 56.203125 25.203125 
L 14.890625 25.203125 
Q 15.484375 15.921875 20.484375 11.0625 
Q 25.484375 6.203125 34.421875 6.203125 
Q 39.59375 6.203125 44.453125 7.46875 
Q 49.3125 8.734375 54.109375 11.28125 
L 54.109375 2.78125 
Q 49.265625 0.734375 44.1875 -0.34375 
Q 39.109375 -1.421875 33.890625 -1.421875 
Q 20.796875 -1.421875 13.15625 6.1875 
Q 5.515625 13.8125 5.515625 26.8125 
Q 5.515625 40.234375 12.765625 48.109375 
Q 20.015625 56 32.328125 56 
Q 43.359375 56 49.78125 48.890625 
Q 56.203125 41.796875 56.203125 29.59375 
z
M 47.21875 32.234375 
Q 47.125 39.59375 43.09375 43.984375 
Q 39.0625 48.390625 32.421875 48.390625 
Q 24.90625 48.390625 20.390625 44.140625 
Q 15.875 39.890625 15.1875 32.171875 
z
" id="DejaVuSans-101"/>
      <path id="DejaVuSans-32"/>
      <path d="M 31 75.875 
Q 24.46875 64.65625 21.28125 53.65625 
Q 18.109375 42.671875 18.109375 31.390625 
Q 18.109375 20.125 21.3125 9.0625 
Q 24.515625 -2 31 -13.1875 
L 23.1875 -13.1875 
Q 15.875 -1.703125 12.234375 9.375 
Q 8.59375 20.453125 8.59375 31.390625 
Q 8.59375 42.28125 12.203125 53.3125 
Q 15.828125 64.359375 23.1875 75.875 
z
" id="DejaVuSans-40"/>
      <path d="M 44.28125 53.078125 
L 44.28125 44.578125 
Q 40.484375 46.53125 36.375 47.5 
Q 32.28125 48.484375 27.875 48.484375 
Q 21.1875 48.484375 17.84375 46.4375 
Q 14.5 44.390625 14.5 40.28125 
Q 14.5 37.15625 16.890625 35.375 
Q 19.28125 33.59375 26.515625 31.984375 
L 29.59375 31.296875 
Q 39.15625 29.25 43.1875 25.515625 
Q 47.21875 21.78125 47.21875 15.09375 
Q 47.21875 7.46875 41.1875 3.015625 
Q 35.15625 -1.421875 24.609375 -1.421875 
Q 20.21875 -1.421875 15.453125 -0.5625 
Q 10.6875 0.296875 5.421875 2 
L 5.421875 11.28125 
Q 10.40625 8.6875 15.234375 7.390625 
Q 20.0625 6.109375 24.8125 6.109375 
Q 31.15625 6.109375 34.5625 8.28125 
Q 37.984375 10.453125 37.984375 14.40625 
Q 37.984375 18.0625 35.515625 20.015625 
Q 33.0625 21.96875 24.703125 23.78125 
L 21.578125 24.515625 
Q 13.234375 26.265625 9.515625 29.90625 
Q 5.8125 33.546875 5.8125 39.890625 
Q 5.8125 47.609375 11.28125 51.796875 
Q 16.75 56 26.8125 56 
Q 31.78125 56 36.171875 55.265625 
Q 40.578125 54.546875 44.28125 53.078125 
z
" id="DejaVuSans-115"/>
      <path d="M 8.015625 75.875 
L 15.828125 75.875 
Q 23.140625 64.359375 26.78125 53.3125 
Q 30.421875 42.28125 30.421875 31.390625 
Q 30.421875 20.453125 26.78125 9.375 
Q 23.140625 -1.703125 15.828125 -13.1875 
L 8.015625 -13.1875 
Q 14.5 -2 17.703125 9.0625 
Q 20.90625 20.125 20.90625 31.390625 
Q 20.90625 42.671875 17.703125 53.65625 
Q 14.5 64.65625 8.015625 75.875 
z
" id="DejaVuSans-41"/>
     </defs>
     <g transform="translate(347.61 134.394687)scale(0.1 -0.1)">
      <use xlink:href="#DejaVuSans-84"/>
      <use x="61.037109" xlink:href="#DejaVuSans-105"/>
      <use x="88.820312" xlink:href="#DejaVuSans-109"/>
      <use x="186.232422" xlink:href="#DejaVuSans-101"/>
      <use x="247.755859" xlink:href="#DejaVuSans-32"/>
      <use x="279.542969" xlink:href="#DejaVuSans-40"/>
      <use x="318.556641" xlink:href="#DejaVuSans-109"/>
      <use x="415.96875" xlink:href="#DejaVuSans-115"/>
      <use x="468.068359" xlink:href="#DejaVuSans-41"/>
     </g>
    </g>
    <g id="text_8">
     <!-- 1e5 -->
     <defs>
      <path d="M 12.40625 8.296875 
L 28.515625 8.296875 
L 28.515625 63.921875 
L 10.984375 60.40625 
L 10.984375 69.390625 
L 28.421875 72.90625 
L 38.28125 72.90625 
L 38.28125 8.296875 
L 54.390625 8.296875 
L 54.390625 0 
L 12.40625 0 
z
" id="DejaVuSans-49"/>
     </defs>
     <g transform="translate(686.445 133.394687)scale(0.1 -0.1)">
      <use xlink:href="#DejaVuSans-49"/>
      <use x="63.623047" xlink:href="#DejaVuSans-101"/>
      <use x="125.146484" xlink:href="#DejaVuSans-53"/>
     </g>
    </g>
   </g>
   <g id="matplotlib.axis_2">
    <g id="ytick_1">
     <g id="line2d_7">
      <defs>
       <path d="M 0 0 
L -3.5 0 
" id="mfba2afb32c" style="stroke:#000000;stroke-width:0.8;"/>
      </defs>
      <g>
       <use style="stroke:#000000;stroke-width:0.8;" x="40.603125" xlink:href="#mfba2afb32c" y="102.309034"/>
      </g>
     </g>
     <g id="text_9">
      <!-- 0 -->
      <g transform="translate(27.240625 106.108253)scale(0.1 -0.1)">
       <use xlink:href="#DejaVuSans-48"/>
      </g>
     </g>
    </g>
    <g id="ytick_2">
     <g id="line2d_8">
      <g>
       <use style="stroke:#000000;stroke-width:0.8;" x="40.603125" xlink:href="#mfba2afb32c" y="70.56661"/>
      </g>
     </g>
     <g id="text_10">
      <!-- 20 -->
      <defs>
       <path d="M 19.1875 8.296875 
L 53.609375 8.296875 
L 53.609375 0 
L 7.328125 0 
L 7.328125 8.296875 
Q 12.9375 14.109375 22.625 23.890625 
Q 32.328125 33.6875 34.8125 36.53125 
Q 39.546875 41.84375 41.421875 45.53125 
Q 43.3125 49.21875 43.3125 52.78125 
Q 43.3125 58.59375 39.234375 62.25 
Q 35.15625 65.921875 28.609375 65.921875 
Q 23.96875 65.921875 18.8125 64.3125 
Q 13.671875 62.703125 7.8125 59.421875 
L 7.8125 69.390625 
Q 13.765625 71.78125 18.9375 73 
Q 24.125 74.21875 28.421875 74.21875 
Q 39.75 74.21875 46.484375 68.546875 
Q 53.21875 62.890625 53.21875 53.421875 
Q 53.21875 48.921875 51.53125 44.890625 
Q 49.859375 40.875 45.40625 35.40625 
Q 44.1875 33.984375 37.640625 27.21875 
Q 31.109375 20.453125 19.1875 8.296875 
z
" id="DejaVuSans-50"/>
      </defs>
      <g transform="translate(20.878125 74.365829)scale(0.1 -0.1)">
       <use xlink:href="#DejaVuSans-50"/>
       <use x="63.623047" xlink:href="#DejaVuSans-48"/>
      </g>
     </g>
    </g>
    <g id="ytick_3">
     <g id="line2d_9">
      <g>
       <use style="stroke:#000000;stroke-width:0.8;" x="40.603125" xlink:href="#mfba2afb32c" y="38.824186"/>
      </g>
     </g>
     <g id="text_11">
      <!-- 40 -->
      <defs>
       <path d="M 37.796875 64.3125 
L 12.890625 25.390625 
L 37.796875 25.390625 
z
M 35.203125 72.90625 
L 47.609375 72.90625 
L 47.609375 25.390625 
L 58.015625 25.390625 
L 58.015625 17.1875 
L 47.609375 17.1875 
L 47.609375 0 
L 37.796875 0 
L 37.796875 17.1875 
L 4.890625 17.1875 
L 4.890625 26.703125 
z
" id="DejaVuSans-52"/>
      </defs>
      <g transform="translate(20.878125 42.623404)scale(0.1 -0.1)">
       <use xlink:href="#DejaVuSans-52"/>
       <use x="63.623047" xlink:href="#DejaVuSans-48"/>
      </g>
     </g>
    </g>
    <g id="text_12">
     <!-- ADC Value -->
     <defs>
      <path d="M 34.1875 63.1875 
L 20.796875 26.90625 
L 47.609375 26.90625 
z
M 28.609375 72.90625 
L 39.796875 72.90625 
L 67.578125 0 
L 57.328125 0 
L 50.6875 18.703125 
L 17.828125 18.703125 
L 11.1875 0 
L 0.78125 0 
z
" id="DejaVuSans-65"/>
      <path d="M 19.671875 64.796875 
L 19.671875 8.109375 
L 31.59375 8.109375 
Q 46.6875 8.109375 53.6875 14.9375 
Q 60.6875 21.78125 60.6875 36.53125 
Q 60.6875 51.171875 53.6875 57.984375 
Q 46.6875 64.796875 31.59375 64.796875 
z
M 9.8125 72.90625 
L 30.078125 72.90625 
Q 51.265625 72.90625 61.171875 64.09375 
Q 71.09375 55.28125 71.09375 36.53125 
Q 71.09375 17.671875 61.125 8.828125 
Q 51.171875 0 30.078125 0 
L 9.8125 0 
z
" id="DejaVuSans-68"/>
      <path d="M 64.40625 67.28125 
L 64.40625 56.890625 
Q 59.421875 61.53125 53.78125 63.8125 
Q 48.140625 66.109375 41.796875 66.109375 
Q 29.296875 66.109375 22.65625 58.46875 
Q 16.015625 50.828125 16.015625 36.375 
Q 16.015625 21.96875 22.65625 14.328125 
Q 29.296875 6.6875 41.796875 6.6875 
Q 48.140625 6.6875 53.78125 8.984375 
Q 59.421875 11.28125 64.40625 15.921875 
L 64.40625 5.609375 
Q 59.234375 2.09375 53.4375 0.328125 
Q 47.65625 -1.421875 41.21875 -1.421875 
Q 24.65625 -1.421875 15.125 8.703125 
Q 5.609375 18.84375 5.609375 36.375 
Q 5.609375 53.953125 15.125 64.078125 
Q 24.65625 74.21875 41.21875 74.21875 
Q 47.75 74.21875 53.53125 72.484375 
Q 59.328125 70.75 64.40625 67.28125 
z
" id="DejaVuSans-67"/>
      <path d="M 28.609375 0 
L 0.78125 72.90625 
L 11.078125 72.90625 
L 34.1875 11.53125 
L 57.328125 72.90625 
L 67.578125 72.90625 
L 39.796875 0 
z
" id="DejaVuSans-86"/>
      <path d="M 34.28125 27.484375 
Q 23.390625 27.484375 19.1875 25 
Q 14.984375 22.515625 14.984375 16.5 
Q 14.984375 11.71875 18.140625 8.90625 
Q 21.296875 6.109375 26.703125 6.109375 
Q 34.1875 6.109375 38.703125 11.40625 
Q 43.21875 16.703125 43.21875 25.484375 
L 43.21875 27.484375 
z
M 52.203125 31.203125 
L 52.203125 0 
L 43.21875 0 
L 43.21875 8.296875 
Q 40.140625 3.328125 35.546875 0.953125 
Q 30.953125 -1.421875 24.3125 -1.421875 
Q 15.921875 -1.421875 10.953125 3.296875 
Q 6 8.015625 6 15.921875 
Q 6 25.140625 12.171875 29.828125 
Q 18.359375 34.515625 30.609375 34.515625 
L 43.21875 34.515625 
L 43.21875 35.40625 
Q 43.21875 41.609375 39.140625 45 
Q 35.0625 48.390625 27.6875 48.390625 
Q 23 48.390625 18.546875 47.265625 
Q 14.109375 46.140625 10.015625 43.890625 
L 10.015625 52.203125 
Q 14.9375 54.109375 19.578125 55.046875 
Q 24.21875 56 28.609375 56 
Q 40.484375 56 46.34375 49.84375 
Q 52.203125 43.703125 52.203125 31.203125 
z
" id="DejaVuSans-97"/>
      <path d="M 9.421875 75.984375 
L 18.40625 75.984375 
L 18.40625 0 
L 9.421875 0 
z
" id="DejaVuSans-108"/>
      <path d="M 8.5 21.578125 
L 8.5 54.6875 
L 17.484375 54.6875 
L 17.484375 21.921875 
Q 17.484375 14.15625 20.5 10.265625 
Q 23.53125 6.390625 29.59375 6.390625 
Q 36.859375 6.390625 41.078125 11.03125 
Q 45.3125 15.671875 45.3125 23.6875 
L 45.3125 54.6875 
L 54.296875 54.6875 
L 54.296875 0 
L 45.3125 0 
L 45.3125 8.40625 
Q 42.046875 3.421875 37.71875 1 
Q 33.40625 -1.421875 27.6875 -1.421875 
Q 18.265625 -1.421875 13.375 4.4375 
Q 8.5 10.296875 8.5 21.578125 
z
M 31.109375 56 
z
" id="DejaVuSans-117"/>
     </defs>
     <g transform="translate(14.798438 90.682187)rotate(-90)scale(0.1 -0.1)">
      <use xlink:href="#DejaVuSans-65"/>
      <use x="68.408203" xlink:href="#DejaVuSans-68"/>
      <use x="145.410156" xlink:href="#DejaVuSans-67"/>
      <use x="215.234375" xlink:href="#DejaVuSans-32"/>
      <use x="247.021484" xlink:href="#DejaVuSans-86"/>
      <use x="315.320312" xlink:href="#DejaVuSans-97"/>
      <use x="376.599609" xlink:href="#DejaVuSans-108"/>
      <use x="404.382812" xlink:href="#DejaVuSans-117"/>
      <use x="467.761719" xlink:href="#DejaVuSans-101"/>
     </g>
    </g>
   </g>
   <g id="line2d_10">
    <path clip-path="url(#pc77cb310cc)" d="M 70.81767 102.309034 
L 72.792477 99.134792 
L 74.569804 97.54767 
L 76.34713 94.373428 
L 78.124456 89.612064 
L 80.099263 89.612064 
L 82.07407 86.437822 
L 83.851396 83.26358 
L 85.628722 81.676458 
L 87.603529 80.089337 
L 89.578336 80.089337 
L 91.355662 76.915095 
L 94.910315 76.915095 
L 97.082602 72.153731 
L 98.859928 67.392367 
L 100.637255 65.805246 
L 103.796946 59.456761 
L 105.771752 54.695398 
L 107.746559 53.108277 
L 109.523886 51.521155 
L 111.498692 48.346913 
L 113.473499 43.585549 
L 115.250826 41.998428 
L 117.028152 38.824186 
L 119.002959 35.649943 
L 121.175246 38.824186 
L 123.347534 35.649943 
L 125.12486 35.649943 
L 127.099667 41.998428 
L 129.074474 54.695398 
L 131.049281 76.915095 
L 133.024088 84.850701 
L 134.801414 91.199186 
L 136.57874 94.373428 
L 138.553547 92.786307 
L 140.528354 92.786307 
L 142.30568 91.199186 
L 144.083006 88.024943 
L 146.057813 84.850701 
L 148.03262 80.089337 
L 149.809946 76.915095 
L 151.587272 72.153731 
L 153.364599 68.979489 
L 155.536886 70.56661 
L 157.314212 68.979489 
L 160.868865 72.153731 
L 163.041152 72.153731 
L 164.818479 70.56661 
L 168.373131 64.218125 
L 170.347938 61.043883 
L 172.322745 56.282519 
L 174.297552 54.695398 
L 176.272359 51.521155 
L 178.049685 45.17267 
L 180.419453 46.759792 
L 182.196779 45.17267 
L 184.369067 41.998428 
L 186.343874 38.824186 
L 188.318681 38.824186 
L 190.293487 37.237064 
L 192.070814 38.824186 
L 193.84814 37.237064 
L 195.625466 41.998428 
L 197.797754 56.282519 
L 199.57508 76.915095 
L 201.352406 92.786307 
L 203.129732 100.721913 
L 205.30202 102.309034 
L 216.360938 102.309034 
L 218.138265 100.721913 
L 220.113072 95.960549 
L 222.087878 92.786307 
L 223.865205 88.024943 
L 225.642531 84.850701 
L 227.419857 86.437822 
L 229.394664 86.437822 
L 231.566952 81.676458 
L 233.541758 81.676458 
L 235.319085 80.089337 
L 237.096411 76.915095 
L 239.071218 73.740852 
L 241.046025 64.218125 
L 242.823351 57.86964 
L 244.600677 56.282519 
L 246.378003 51.521155 
L 248.550291 51.521155 
L 250.327617 49.934034 
L 252.104943 43.585549 
L 256.054557 43.585549 
L 257.831883 41.998428 
L 259.609209 46.759792 
L 261.386536 45.17267 
L 263.361342 46.759792 
L 265.336149 56.282519 
L 267.113476 72.153731 
L 268.890802 84.850701 
L 271.063089 102.309034 
L 278.764836 102.309034 
L 280.937124 99.134792 
L 282.71445 97.54767 
L 286.269102 91.199186 
L 288.046429 86.437822 
L 290.811158 78.502216 
L 294.365811 81.676458 
L 296.143137 80.089337 
L 300.092751 80.089337 
L 301.870077 78.502216 
L 303.647403 75.327973 
L 305.62221 68.979489 
L 307.597017 64.218125 
L 309.374343 56.282519 
L 311.546631 45.17267 
L 313.323957 38.824186 
L 315.298764 35.649943 
L 317.07609 32.475701 
L 321.025704 26.127216 
L 323.197991 27.714337 
L 324.975318 34.062822 
L 327.147605 32.475701 
L 329.122412 35.649943 
L 330.899738 35.649943 
L 333.269506 46.759792 
L 335.046833 64.218125 
L 337.02164 86.437822 
L 338.798966 99.134792 
L 340.773773 102.309034 
L 352.227653 102.309034 
L 354.004979 100.721913 
L 355.782305 97.54767 
L 357.954593 94.373428 
L 359.731919 89.612064 
L 363.286571 86.437822 
L 365.458859 83.26358 
L 367.236185 83.26358 
L 369.013511 80.089337 
L 370.790837 81.676458 
L 372.765644 73.740852 
L 374.740451 70.56661 
L 376.517777 67.392367 
L 378.295104 61.043883 
L 380.269911 56.282519 
L 382.244717 49.934034 
L 384.022044 49.934034 
L 385.79937 45.17267 
L 387.774177 45.17267 
L 389.551503 43.585549 
L 391.52631 45.17267 
L 393.303636 45.17267 
L 395.080962 41.998428 
L 399.030576 45.17267 
L 400.807902 48.346913 
L 402.98019 51.521155 
L 405.152477 72.153731 
L 407.127284 89.612064 
L 408.90461 102.309034 
L 425.88795 102.309034 
L 428.060237 95.960549 
L 430.035044 89.612064 
L 431.81237 86.437822 
L 433.984658 86.437822 
L 435.761984 83.26358 
L 437.53931 78.502216 
L 439.316637 81.676458 
L 441.488924 86.437822 
L 443.26625 86.437822 
L 445.043577 76.915095 
L 446.820903 73.740852 
L 448.79571 73.740852 
L 450.770517 65.805246 
L 452.547843 64.218125 
L 454.325169 61.043883 
L 456.299976 59.456761 
L 458.274783 56.282519 
L 460.052109 54.695398 
L 462.224397 49.934034 
L 464.001723 48.346913 
L 465.779049 48.346913 
L 467.951337 46.759792 
L 469.728663 51.521155 
L 471.505989 62.631004 
L 473.678277 81.676458 
L 475.653083 95.960549 
L 477.43041 102.309034 
L 486.712002 102.309034 
L 488.686809 99.134792 
L 490.464135 95.960549 
L 492.438942 91.199186 
L 494.216268 88.024943 
L 496.191075 84.850701 
L 497.968401 83.26358 
L 499.943208 86.437822 
L 501.720534 86.437822 
L 503.695341 84.850701 
L 505.670148 86.437822 
L 507.447474 86.437822 
L 509.619762 83.26358 
L 511.397088 84.850701 
L 514.951741 75.327973 
L 517.124028 68.979489 
L 518.901354 62.631004 
L 520.678681 57.86964 
L 522.850968 53.108277 
L 524.628294 49.934034 
L 526.603101 49.934034 
L 528.577908 46.759792 
L 530.552715 49.934034 
L 532.330041 48.346913 
L 534.502329 41.998428 
L 536.477136 41.998428 
L 538.451943 43.585549 
L 540.229269 57.86964 
L 542.204076 75.327973 
L 543.981402 89.612064 
L 545.956209 99.134792 
L 547.733535 102.309034 
L 557.015127 102.309034 
L 558.989934 99.134792 
L 561.754664 92.786307 
L 563.53199 91.199186 
L 565.309316 86.437822 
L 567.284123 86.437822 
L 569.25893 83.26358 
L 572.813583 86.437822 
L 574.590909 81.676458 
L 576.763196 83.26358 
L 578.540523 76.915095 
L 582.095175 70.56661 
L 584.267462 70.56661 
L 587.822115 61.043883 
L 589.599441 57.86964 
L 593.549055 48.346913 
L 595.326381 46.759792 
L 597.103707 43.585549 
L 599.078514 41.998428 
L 601.053321 41.998428 
L 604.607973 35.649943 
L 606.58278 35.649943 
L 608.360107 34.062822 
L 610.729875 34.062822 
L 612.704682 51.521155 
L 614.876969 67.392367 
L 616.654296 83.26358 
L 618.629102 91.199186 
L 620.603909 95.960549 
L 622.381236 99.134792 
L 624.553523 95.960549 
L 626.52833 94.373428 
L 628.305656 92.786307 
L 630.477944 94.373428 
L 634.032596 91.199186 
L 636.007403 83.26358 
L 637.98221 83.26358 
L 641.536862 80.089337 
L 643.511669 78.502216 
L 645.486476 80.089337 
L 648.053725 80.089337 
L 649.831051 75.327973 
L 652.003339 72.153731 
L 653.780665 70.56661 
L 655.557991 67.392367 
L 657.335318 61.043883 
L 659.310124 56.282519 
L 661.284931 53.108277 
L 663.062258 51.521155 
L 665.432026 40.411307 
L 667.209352 45.17267 
L 669.38164 41.998428 
L 671.158966 38.824186 
L 675.10858 38.824186 
L 675.10858 38.824186 
" style="fill:none;stroke:#1f77b4;stroke-linecap:square;stroke-width:1.5;"/>
   </g>
   <g id="patch_3">
    <path d="M 40.603125 106.118125 
L 40.603125 22.318125 
" style="fill:none;stroke:#000000;stroke-linecap:square;stroke-linejoin:miter;stroke-width:0.8;"/>
   </g>
   <g id="patch_4">
    <path d="M 705.323125 106.118125 
L 705.323125 22.318125 
" style="fill:none;stroke:#000000;stroke-linecap:square;stroke-linejoin:miter;stroke-width:0.8;"/>
   </g>
   <g id="patch_5">
    <path d="M 40.603125 106.118125 
L 705.323125 106.118125 
" style="fill:none;stroke:#000000;stroke-linecap:square;stroke-linejoin:miter;stroke-width:0.8;"/>
   </g>
   <g id="patch_6">
    <path d="M 40.603125 22.318125 
L 705.323125 22.318125 
" style="fill:none;stroke:#000000;stroke-linecap:square;stroke-linejoin:miter;stroke-width:0.8;"/>
   </g>
   <g id="text_13">
    <!-- Input Signal -->
    <defs>
     <path d="M 9.8125 72.90625 
L 19.671875 72.90625 
L 19.671875 0 
L 9.8125 0 
z
" id="DejaVuSans-73"/>
     <path d="M 54.890625 33.015625 
L 54.890625 0 
L 45.90625 0 
L 45.90625 32.71875 
Q 45.90625 40.484375 42.875 44.328125 
Q 39.84375 48.1875 33.796875 48.1875 
Q 26.515625 48.1875 22.3125 43.546875 
Q 18.109375 38.921875 18.109375 30.90625 
L 18.109375 0 
L 9.078125 0 
L 9.078125 54.6875 
L 18.109375 54.6875 
L 18.109375 46.1875 
Q 21.34375 51.125 25.703125 53.5625 
Q 30.078125 56 35.796875 56 
Q 45.21875 56 50.046875 50.171875 
Q 54.890625 44.34375 54.890625 33.015625 
z
" id="DejaVuSans-110"/>
     <path d="M 18.109375 8.203125 
L 18.109375 -20.796875 
L 9.078125 -20.796875 
L 9.078125 54.6875 
L 18.109375 54.6875 
L 18.109375 46.390625 
Q 20.953125 51.265625 25.265625 53.625 
Q 29.59375 56 35.59375 56 
Q 45.5625 56 51.78125 48.09375 
Q 58.015625 40.1875 58.015625 27.296875 
Q 58.015625 14.40625 51.78125 6.484375 
Q 45.5625 -1.421875 35.59375 -1.421875 
Q 29.59375 -1.421875 25.265625 0.953125 
Q 20.953125 3.328125 18.109375 8.203125 
z
M 48.6875 27.296875 
Q 48.6875 37.203125 44.609375 42.84375 
Q 40.53125 48.484375 33.40625 48.484375 
Q 26.265625 48.484375 22.1875 42.84375 
Q 18.109375 37.203125 18.109375 27.296875 
Q 18.109375 17.390625 22.1875 11.75 
Q 26.265625 6.109375 33.40625 6.109375 
Q 40.53125 6.109375 44.609375 11.75 
Q 48.6875 17.390625 48.6875 27.296875 
z
" id="DejaVuSans-112"/>
     <path d="M 18.3125 70.21875 
L 18.3125 54.6875 
L 36.8125 54.6875 
L 36.8125 47.703125 
L 18.3125 47.703125 
L 18.3125 18.015625 
Q 18.3125 11.328125 20.140625 9.421875 
Q 21.96875 7.515625 27.59375 7.515625 
L 36.8125 7.515625 
L 36.8125 0 
L 27.59375 0 
Q 17.1875 0 13.234375 3.875 
Q 9.28125 7.765625 9.28125 18.015625 
L 9.28125 47.703125 
L 2.6875 47.703125 
L 2.6875 54.6875 
L 9.28125 54.6875 
L 9.28125 70.21875 
z
" id="DejaVuSans-116"/>
     <path d="M 53.515625 70.515625 
L 53.515625 60.890625 
Q 47.90625 63.578125 42.921875 64.890625 
Q 37.9375 66.21875 33.296875 66.21875 
Q 25.25 66.21875 20.875 63.09375 
Q 16.5 59.96875 16.5 54.203125 
Q 16.5 49.359375 19.40625 46.890625 
Q 22.3125 44.4375 30.421875 42.921875 
L 36.375 41.703125 
Q 47.40625 39.59375 52.65625 34.296875 
Q 57.90625 29 57.90625 20.125 
Q 57.90625 9.515625 50.796875 4.046875 
Q 43.703125 -1.421875 29.984375 -1.421875 
Q 24.8125 -1.421875 18.96875 -0.25 
Q 13.140625 0.921875 6.890625 3.21875 
L 6.890625 13.375 
Q 12.890625 10.015625 18.65625 8.296875 
Q 24.421875 6.59375 29.984375 6.59375 
Q 38.421875 6.59375 43.015625 9.90625 
Q 47.609375 13.234375 47.609375 19.390625 
Q 47.609375 24.75 44.3125 27.78125 
Q 41.015625 30.8125 33.5 32.328125 
L 27.484375 33.5 
Q 16.453125 35.6875 11.515625 40.375 
Q 6.59375 45.0625 6.59375 53.421875 
Q 6.59375 63.09375 13.40625 68.65625 
Q 20.21875 74.21875 32.171875 74.21875 
Q 37.3125 74.21875 42.625 73.28125 
Q 47.953125 72.359375 53.515625 70.515625 
z
" id="DejaVuSans-83"/>
     <path d="M 45.40625 27.984375 
Q 45.40625 37.75 41.375 43.109375 
Q 37.359375 48.484375 30.078125 48.484375 
Q 22.859375 48.484375 18.828125 43.109375 
Q 14.796875 37.75 14.796875 27.984375 
Q 14.796875 18.265625 18.828125 12.890625 
Q 22.859375 7.515625 30.078125 7.515625 
Q 37.359375 7.515625 41.375 12.890625 
Q 45.40625 18.265625 45.40625 27.984375 
z
M 54.390625 6.78125 
Q 54.390625 -7.171875 48.1875 -13.984375 
Q 42 -20.796875 29.203125 -20.796875 
Q 24.46875 -20.796875 20.265625 -20.09375 
Q 16.0625 -19.390625 12.109375 -17.921875 
L 12.109375 -9.1875 
Q 16.0625 -11.328125 19.921875 -12.34375 
Q 23.78125 -13.375 27.78125 -13.375 
Q 36.625 -13.375 41.015625 -8.765625 
Q 45.40625 -4.15625 45.40625 5.171875 
L 45.40625 9.625 
Q 42.625 4.78125 38.28125 2.390625 
Q 33.9375 0 27.875 0 
Q 17.828125 0 11.671875 7.65625 
Q 5.515625 15.328125 5.515625 27.984375 
Q 5.515625 40.671875 11.671875 48.328125 
Q 17.828125 56 27.875 56 
Q 33.9375 56 38.28125 53.609375 
Q 42.625 51.21875 45.40625 46.390625 
L 45.40625 54.6875 
L 54.390625 54.6875 
z
" id="DejaVuSans-103"/>
    </defs>
    <g transform="translate(337.08875 16.318125)scale(0.12 -0.12)">
     <use xlink:href="#DejaVuSans-73"/>
     <use x="29.492188" xlink:href="#DejaVuSans-110"/>
     <use x="92.871094" xlink:href="#DejaVuSans-112"/>
     <use x="156.347656" xlink:href="#DejaVuSans-117"/>
     <use x="219.726562" xlink:href="#DejaVuSans-116"/>
     <use x="258.935547" xlink:href="#DejaVuSans-32"/>
     <use x="290.722656" xlink:href="#DejaVuSans-83"/>
     <use x="354.199219" xlink:href="#DejaVuSans-105"/>
     <use x="381.982422" xlink:href="#DejaVuSans-103"/>
     <use x="445.458984" xlink:href="#DejaVuSans-110"/>
     <use x="508.837891" xlink:href="#DejaVuSans-97"/>
     <use x="570.117188" xlink:href="#DejaVuSans-108"/>
    </g>
   </g>
  </g>
  <g id="axes_2">
   <g id="patch_7">
    <path d="M 40.603125 246.518125 
L 705.323125 246.518125 
L 705.323125 162.718125 
L 40.603125 162.718125 
z
" style="fill:#ffffff;"/>
   </g>
   <g id="matplotlib.axis_3">
    <g id="xtick_7">
     <g id="line2d_11">
      <g>
       <use style="stroke:#000000;stroke-width:0.8;" x="136.381259" xlink:href="#m2eaf3d9e3d" y="246.518125"/>
      </g>
     </g>
     <g id="text_14">
      <!-- 6.580 -->
      <g transform="translate(122.067197 261.116562)scale(0.1 -0.1)">
       <use xlink:href="#DejaVuSans-54"/>
       <use x="63.623047" xlink:href="#DejaVuSans-46"/>
       <use x="95.410156" xlink:href="#DejaVuSans-53"/>
       <use x="159.033203" xlink:href="#DejaVuSans-56"/>
       <use x="222.65625" xlink:href="#DejaVuSans-48"/>
      </g>
     </g>
    </g>
    <g id="xtick_8">
     <g id="line2d_12">
      <g>
       <use style="stroke:#000000;stroke-width:0.8;" x="235.121604" xlink:href="#m2eaf3d9e3d" y="246.518125"/>
      </g>
     </g>
     <g id="text_15">
      <!-- 6.585 -->
      <g transform="translate(220.807541 261.116562)scale(0.1 -0.1)">
       <use xlink:href="#DejaVuSans-54"/>
       <use x="63.623047" xlink:href="#DejaVuSans-46"/>
       <use x="95.410156" xlink:href="#DejaVuSans-53"/>
       <use x="159.033203" xlink:href="#DejaVuSans-56"/>
       <use x="222.65625" xlink:href="#DejaVuSans-53"/>
      </g>
     </g>
    </g>
    <g id="xtick_9">
     <g id="line2d_13">
      <g>
       <use style="stroke:#000000;stroke-width:0.8;" x="333.861949" xlink:href="#m2eaf3d9e3d" y="246.518125"/>
      </g>
     </g>
     <g id="text_16">
      <!-- 6.590 -->
      <g transform="translate(319.547886 261.116562)scale(0.1 -0.1)">
       <use xlink:href="#DejaVuSans-54"/>
       <use x="63.623047" xlink:href="#DejaVuSans-46"/>
       <use x="95.410156" xlink:href="#DejaVuSans-53"/>
       <use x="159.033203" xlink:href="#DejaVuSans-57"/>
       <use x="222.65625" xlink:href="#DejaVuSans-48"/>
      </g>
     </g>
    </g>
    <g id="xtick_10">
     <g id="line2d_14">
      <g>
       <use style="stroke:#000000;stroke-width:0.8;" x="432.602293" xlink:href="#m2eaf3d9e3d" y="246.518125"/>
      </g>
     </g>
     <g id="text_17">
      <!-- 6.595 -->
      <g transform="translate(418.288231 261.116562)scale(0.1 -0.1)">
       <use xlink:href="#DejaVuSans-54"/>
       <use x="63.623047" xlink:href="#DejaVuSans-46"/>
       <use x="95.410156" xlink:href="#DejaVuSans-53"/>
       <use x="159.033203" xlink:href="#DejaVuSans-57"/>
       <use x="222.65625" xlink:href="#DejaVuSans-53"/>
      </g>
     </g>
    </g>
    <g id="xtick_11">
     <g id="line2d_15">
      <g>
       <use style="stroke:#000000;stroke-width:0.8;" x="531.342638" xlink:href="#m2eaf3d9e3d" y="246.518125"/>
      </g>
     </g>
     <g id="text_18">
      <!-- 6.600 -->
      <g transform="translate(517.028575 261.116562)scale(0.1 -0.1)">
       <use xlink:href="#DejaVuSans-54"/>
       <use x="63.623047" xlink:href="#DejaVuSans-46"/>
       <use x="95.410156" xlink:href="#DejaVuSans-54"/>
       <use x="159.033203" xlink:href="#DejaVuSans-48"/>
       <use x="222.65625" xlink:href="#DejaVuSans-48"/>
      </g>
     </g>
    </g>
    <g id="xtick_12">
     <g id="line2d_16">
      <g>
       <use style="stroke:#000000;stroke-width:0.8;" x="630.082982" xlink:href="#m2eaf3d9e3d" y="246.518125"/>
      </g>
     </g>
     <g id="text_19">
      <!-- 6.605 -->
      <g transform="translate(615.76892 261.116562)scale(0.1 -0.1)">
       <use xlink:href="#DejaVuSans-54"/>
       <use x="63.623047" xlink:href="#DejaVuSans-46"/>
       <use x="95.410156" xlink:href="#DejaVuSans-54"/>
       <use x="159.033203" xlink:href="#DejaVuSans-48"/>
       <use x="222.65625" xlink:href="#DejaVuSans-53"/>
      </g>
     </g>
    </g>
    <g id="text_20">
     <!-- Time (ms) -->
     <g transform="translate(347.61 274.794687)scale(0.1 -0.1)">
      <use xlink:href="#DejaVuSans-84"/>
      <use x="61.037109" xlink:href="#DejaVuSans-105"/>
      <use x="88.820312" xlink:href="#DejaVuSans-109"/>
      <use x="186.232422" xlink:href="#DejaVuSans-101"/>
      <use x="247.755859" xlink:href="#DejaVuSans-32"/>
      <use x="279.542969" xlink:href="#DejaVuSans-40"/>
      <use x="318.556641" xlink:href="#DejaVuSans-109"/>
      <use x="415.96875" xlink:href="#DejaVuSans-115"/>
      <use x="468.068359" xlink:href="#DejaVuSans-41"/>
     </g>
    </g>
    <g id="text_21">
     <!-- 1e5 -->
     <g transform="translate(686.445 273.794687)scale(0.1 -0.1)">
      <use xlink:href="#DejaVuSans-49"/>
      <use x="63.623047" xlink:href="#DejaVuSans-101"/>
      <use x="125.146484" xlink:href="#DejaVuSans-53"/>
     </g>
    </g>
   </g>
   <g id="matplotlib.axis_4">
    <g id="ytick_4">
     <g id="line2d_17">
      <g>
       <use style="stroke:#000000;stroke-width:0.8;" x="40.603125" xlink:href="#mfba2afb32c" y="238.14598"/>
      </g>
     </g>
     <g id="text_22">
      <!-- 0 -->
      <g transform="translate(27.240625 241.945199)scale(0.1 -0.1)">
       <use xlink:href="#DejaVuSans-48"/>
      </g>
     </g>
    </g>
    <g id="ytick_5">
     <g id="line2d_18">
      <g>
       <use style="stroke:#000000;stroke-width:0.8;" x="40.603125" xlink:href="#mfba2afb32c" y="209.233871"/>
      </g>
     </g>
     <g id="text_23">
      <!-- 20 -->
      <g transform="translate(20.878125 213.03309)scale(0.1 -0.1)">
       <use xlink:href="#DejaVuSans-50"/>
       <use x="63.623047" xlink:href="#DejaVuSans-48"/>
      </g>
     </g>
    </g>
    <g id="ytick_6">
     <g id="line2d_19">
      <g>
       <use style="stroke:#000000;stroke-width:0.8;" x="40.603125" xlink:href="#mfba2afb32c" y="180.321762"/>
      </g>
     </g>
     <g id="text_24">
      <!-- 40 -->
      <g transform="translate(20.878125 184.12098)scale(0.1 -0.1)">
       <use xlink:href="#DejaVuSans-52"/>
       <use x="63.623047" xlink:href="#DejaVuSans-48"/>
      </g>
     </g>
    </g>
    <g id="text_25">
     <!-- ADC Value -->
     <g transform="translate(14.798438 231.082187)rotate(-90)scale(0.1 -0.1)">
      <use xlink:href="#DejaVuSans-65"/>
      <use x="68.408203" xlink:href="#DejaVuSans-68"/>
      <use x="145.410156" xlink:href="#DejaVuSans-67"/>
      <use x="215.234375" xlink:href="#DejaVuSans-32"/>
      <use x="247.021484" xlink:href="#DejaVuSans-86"/>
      <use x="315.320312" xlink:href="#DejaVuSans-97"/>
      <use x="376.599609" xlink:href="#DejaVuSans-108"/>
      <use x="404.382812" xlink:href="#DejaVuSans-117"/>
      <use x="467.761719" xlink:href="#DejaVuSans-101"/>
     </g>
    </g>
   </g>
   <g id="line2d_20">
    <path clip-path="url(#p27e0ba0955)" d="M 70.81767 237.730803 
L 73.239678 234.13616 
L 75.661686 230.901473 
L 78.083693 228.070689 
L 80.505701 225.57355 
L 91.404735 214.988248 
L 101.092766 204.943169 
L 103.514774 201.907976 
L 105.936781 198.22732 
L 108.358789 193.790468 
L 111.991801 186.148419 
L 114.413808 181.242323 
L 115.624812 179.17424 
L 116.835816 177.531454 
L 118.04682 176.437564 
L 119.257823 176.003449 
L 120.468827 176.318013 
L 121.679831 177.440525 
L 122.890835 179.393972 
L 124.101839 182.160572 
L 125.312843 185.680187 
L 126.523846 189.851193 
L 128.945854 199.562048 
L 132.578866 214.756951 
L 133.789869 219.205368 
L 135.000873 223.056028 
L 136.211877 226.179837 
L 137.422881 228.488179 
L 138.633885 229.937688 
L 139.844889 230.530386 
L 141.055892 230.312678 
L 142.266896 229.370288 
L 143.4779 227.82031 
L 144.688904 225.802534 
L 147.110911 220.9745 
L 149.532919 216.065513 
L 150.743923 213.884817 
L 151.954927 211.998013 
L 153.165931 210.450493 
L 154.376934 209.257001 
L 155.587938 208.404527 
L 156.798942 207.854908 
L 158.009946 207.552054 
L 160.431954 207.401855 
L 162.853961 207.353427 
L 164.064965 207.192532 
L 165.275969 206.864957 
L 166.486973 206.329505 
L 167.697977 205.556973 
L 168.90898 204.531172 
L 170.119984 203.246751 
L 171.330988 201.708627 
L 172.541992 199.931255 
L 174.963999 195.758081 
L 178.597011 188.547401 
L 181.019019 183.782107 
L 182.230022 181.642467 
L 183.441026 179.786309 
L 184.65203 178.310057 
L 185.863034 177.309987 
L 187.074038 176.877173 
L 188.285042 177.091267 
L 189.496045 178.015153 
L 190.707049 179.688731 
L 191.918053 182.124287 
L 193.129057 185.302884 
L 194.340061 189.172336 
L 195.551065 193.647497 
L 197.973072 203.92662 
L 201.606084 220.302005 
L 202.817087 225.333001 
L 204.028091 229.886947 
L 205.239095 233.837064 
L 206.450099 237.088086 
L 207.661103 239.579732 
L 208.872107 241.288727 
L 210.08311 242.228949 
L 211.294114 242.447958 
L 212.505118 242.022082 
L 213.716122 241.050635 
L 214.927126 239.647097 
L 216.13813 237.931886 
L 222.193149 228.424717 
L 223.404153 226.856669 
L 224.615156 225.473369 
L 227.037164 223.200588 
L 233.092183 218.445269 
L 234.303187 217.252211 
L 235.514191 215.879319 
L 236.725195 214.300863 
L 237.936198 212.501084 
L 239.147202 210.475357 
L 241.56921 205.782777 
L 243.991218 200.406281 
L 248.835233 189.212669 
L 250.046237 186.750658 
L 251.257241 184.602055 
L 252.468244 182.86357 
L 253.679248 181.629023 
L 254.890252 180.986017 
L 256.101256 181.009581 
L 257.31226 181.75667 
L 258.523263 183.261545 
L 259.734267 185.530712 
L 260.945271 188.53945 
L 262.156275 192.23037 
L 263.367279 196.513121 
L 265.789286 206.345696 
L 269.422298 221.810639 
L 270.633302 226.44843 
L 271.844306 230.55366 
L 273.055309 233.995213 
L 274.266313 236.674932 
L 275.477317 238.533836 
L 276.688321 239.553856 
L 277.899325 239.759132 
L 279.110328 239.212982 
L 280.321332 238.012696 
L 281.532336 236.282884 
L 282.74334 234.165939 
L 287.587355 224.751867 
L 288.798359 222.780929 
L 290.009363 221.123831 
L 291.220367 219.804861 
L 292.431371 218.814332 
L 293.642374 218.111479 
L 294.853378 217.629225 
L 298.48639 216.567428 
L 299.697394 215.99439 
L 300.908397 215.14712 
L 302.119401 213.9464 
L 303.330405 212.333972 
L 304.541409 210.275141 
L 305.752413 207.761666 
L 306.963416 204.810896 
L 308.17442 201.466199 
L 310.596428 193.87865 
L 315.440443 178.001565 
L 316.651447 174.588779 
L 317.862451 171.642925 
L 319.073455 169.274734 
L 320.284459 167.58193 
L 321.495462 166.645466 
L 322.706466 166.527216 
L 323.91747 167.266065 
L 325.128474 168.876036 
L 326.339478 171.344696 
L 327.550482 174.631858 
L 328.761485 178.670013 
L 329.972489 183.365195 
L 332.394497 194.237304 
L 337.238512 217.66363 
L 338.449516 222.945439 
L 339.66052 227.715214 
L 340.871524 231.867427 
L 342.082527 235.325026 
L 343.293531 238.042041 
L 344.504535 240.004306 
L 345.715539 241.229168 
L 346.926543 241.762018 
L 348.137547 241.67268 
L 349.34855 241.049045 
L 350.559554 239.991585 
L 351.770558 238.605683 
L 354.192566 235.257805 
L 357.825577 230.035122 
L 360.247585 226.98475 
L 362.669592 224.346953 
L 367.513608 219.422065 
L 369.935615 216.554417 
L 372.357623 213.137006 
L 374.779631 209.116488 
L 377.201638 204.565866 
L 382.045654 194.646844 
L 384.467661 189.850036 
L 386.889669 185.662262 
L 388.100673 183.939678 
L 389.311677 182.54756 
L 390.52268 181.549803 
L 391.733684 181.008424 
L 392.944688 180.980669 
L 394.155692 181.51482 
L 395.366696 182.646584 
L 396.5777 184.395622 
L 397.788703 186.762223 
L 398.999707 189.724558 
L 400.210711 193.238102 
L 401.421715 197.234912 
L 403.843723 206.302328 
L 408.687738 225.321002 
L 409.898742 229.501549 
L 411.109746 233.219791 
L 412.320749 236.389425 
L 413.531753 238.947135 
L 414.742757 240.855912 
L 415.953761 242.104916 
L 417.164765 242.709034 
L 418.375768 242.706287 
L 419.586772 242.155512 
L 420.797776 241.130867 
L 422.00878 239.71851 
L 423.219784 238.010961 
L 425.641791 234.084696 
L 429.274803 228.175784 
L 430.485807 226.463175 
L 431.696811 224.948181 
L 432.907814 223.649593 
L 434.118818 222.570593 
L 435.329822 221.699905 
L 436.540826 221.012231 
L 438.962834 220.026617 
L 441.384841 219.204356 
L 442.595845 218.700708 
L 443.806849 218.051052 
L 445.017853 217.196844 
L 446.228856 216.08792 
L 447.43986 214.68655 
L 448.650864 212.970906 
L 449.861868 210.938674 
L 451.072872 208.608936 
L 453.494879 203.251233 
L 457.127891 194.78143 
L 458.338895 192.314071 
L 459.549899 190.247289 
L 460.760902 188.711044 
L 461.971906 187.821129 
L 463.18291 187.672232 
L 464.393914 188.329259 
L 465.604918 189.822714 
L 466.815922 192.143779 
L 468.026925 195.242868 
L 469.237929 199.030788 
L 471.659937 208.139837 
L 475.292948 223.016274 
L 476.503952 227.542898 
L 477.714956 231.564572 
L 478.92596 234.94541 
L 480.136964 237.585808 
L 481.347967 239.427221 
L 482.558971 240.454468 
L 483.769975 240.694583 
L 484.980979 240.214064 
L 486.191983 239.112512 
L 487.402987 237.514974 
L 489.824994 233.403527 
L 492.247002 229.028402 
L 493.458006 227.056596 
L 494.669009 225.352083 
L 495.880013 223.971963 
L 497.091017 222.942403 
L 498.302021 222.259644 
L 499.513025 221.892894 
L 500.724029 221.788087 
L 503.146036 222.067234 
L 505.568044 222.424443 
L 506.779048 222.418371 
L 507.990052 222.189821 
L 509.201055 221.679667 
L 510.412059 220.843818 
L 511.623063 219.654663 
L 512.834067 218.100348 
L 514.045071 216.185065 
L 515.256075 213.928186 
L 516.467078 211.36238 
L 518.889086 205.499294 
L 524.944105 189.951084 
L 526.155109 187.413757 
L 527.366113 185.301872 
L 528.577117 183.713586 
L 529.78812 182.737657 
L 530.999124 182.449693 
L 532.210128 182.90607 
L 533.421132 184.13975 
L 534.632136 186.155647 
L 535.84314 188.928318 
L 537.054143 192.400229 
L 538.265147 196.481896 
L 540.687155 205.977211 
L 544.320166 221.178909 
L 545.53117 225.823206 
L 546.742174 229.995368 
L 547.953178 233.571506 
L 549.164182 236.459103 
L 550.375185 238.601202 
L 551.586189 239.979297 
L 552.797193 240.612472 
L 554.008197 240.554504 
L 555.219201 239.888369 
L 556.430205 238.719741 
L 557.641208 237.168896 
L 560.063216 233.418561 
L 562.485224 229.555181 
L 564.907231 226.228987 
L 566.118235 224.866215 
L 567.329239 223.707273 
L 569.751247 221.891159 
L 575.806266 218.04209 
L 578.228273 215.871802 
L 580.650281 213.117924 
L 583.072289 209.829171 
L 585.494296 206.1024 
L 587.916304 202.006277 
L 590.338312 197.560318 
L 593.971323 190.305547 
L 597.604335 182.959702 
L 598.815339 180.763539 
L 600.026342 178.842763 
L 601.237346 177.302615 
L 602.44835 176.251659 
L 603.659354 175.793113 
L 604.870358 176.01776 
L 606.081361 176.99499 
L 607.292365 178.766001 
L 608.503369 181.337589 
L 609.714373 184.678094 
L 610.925377 188.716393 
L 612.136381 193.342764 
L 614.558388 203.758207 
L 616.980396 214.505705 
L 618.1914 219.520221 
L 619.402404 224.054652 
L 620.613407 227.958654 
L 621.824411 231.11629 
L 623.035415 233.45369 
L 624.246419 234.941507 
L 625.457423 235.596077 
L 626.668427 235.476236 
L 627.87943 234.678407 
L 629.090434 233.328211 
L 630.301438 231.570644 
L 635.145453 223.449955 
L 636.356457 221.771318 
L 637.567461 220.39062 
L 638.778465 219.328245 
L 639.989469 218.569736 
L 641.200472 218.070568 
L 643.62248 217.552463 
L 646.044488 217.051705 
L 647.255492 216.571186 
L 648.466495 215.832048 
L 649.677499 214.780081 
L 650.888503 213.385794 
L 652.099507 211.646442 
L 653.310511 209.585153 
L 655.732518 204.703054 
L 660.576534 194.091154 
L 661.787537 191.737419 
L 662.998541 189.629437 
L 664.209545 187.799156 
L 665.420549 186.257996 
L 666.631553 184.996416 
L 667.842557 183.986661 
L 669.05356 183.186084 
L 671.475568 181.99505 
L 675.10858 180.383778 
L 675.10858 180.383778 
" style="fill:none;stroke:#1f77b4;stroke-linecap:square;stroke-width:1.5;"/>
   </g>
   <g id="patch_8">
    <path d="M 40.603125 246.518125 
L 40.603125 162.718125 
" style="fill:none;stroke:#000000;stroke-linecap:square;stroke-linejoin:miter;stroke-width:0.8;"/>
   </g>
   <g id="patch_9">
    <path d="M 705.323125 246.518125 
L 705.323125 162.718125 
" style="fill:none;stroke:#000000;stroke-linecap:square;stroke-linejoin:miter;stroke-width:0.8;"/>
   </g>
   <g id="patch_10">
    <path d="M 40.603125 246.518125 
L 705.323125 246.518125 
" style="fill:none;stroke:#000000;stroke-linecap:square;stroke-linejoin:miter;stroke-width:0.8;"/>
   </g>
   <g id="patch_11">
    <path d="M 40.603125 162.718125 
L 705.323125 162.718125 
" style="fill:none;stroke:#000000;stroke-linecap:square;stroke-linejoin:miter;stroke-width:0.8;"/>
   </g>
   <g id="text_26">
    <!-- Pre-processed Signal -->
    <defs>
     <path d="M 19.671875 64.796875 
L 19.671875 37.40625 
L 32.078125 37.40625 
Q 38.96875 37.40625 42.71875 40.96875 
Q 46.484375 44.53125 46.484375 51.125 
Q 46.484375 57.671875 42.71875 61.234375 
Q 38.96875 64.796875 32.078125 64.796875 
z
M 9.8125 72.90625 
L 32.078125 72.90625 
Q 44.34375 72.90625 50.609375 67.359375 
Q 56.890625 61.8125 56.890625 51.125 
Q 56.890625 40.328125 50.609375 34.8125 
Q 44.34375 29.296875 32.078125 29.296875 
L 19.671875 29.296875 
L 19.671875 0 
L 9.8125 0 
z
" id="DejaVuSans-80"/>
     <path d="M 41.109375 46.296875 
Q 39.59375 47.171875 37.8125 47.578125 
Q 36.03125 48 33.890625 48 
Q 26.265625 48 22.1875 43.046875 
Q 18.109375 38.09375 18.109375 28.8125 
L 18.109375 0 
L 9.078125 0 
L 9.078125 54.6875 
L 18.109375 54.6875 
L 18.109375 46.1875 
Q 20.953125 51.171875 25.484375 53.578125 
Q 30.03125 56 36.53125 56 
Q 37.453125 56 38.578125 55.875 
Q 39.703125 55.765625 41.0625 55.515625 
z
" id="DejaVuSans-114"/>
     <path d="M 4.890625 31.390625 
L 31.203125 31.390625 
L 31.203125 23.390625 
L 4.890625 23.390625 
z
" id="DejaVuSans-45"/>
     <path d="M 30.609375 48.390625 
Q 23.390625 48.390625 19.1875 42.75 
Q 14.984375 37.109375 14.984375 27.296875 
Q 14.984375 17.484375 19.15625 11.84375 
Q 23.34375 6.203125 30.609375 6.203125 
Q 37.796875 6.203125 41.984375 11.859375 
Q 46.1875 17.53125 46.1875 27.296875 
Q 46.1875 37.015625 41.984375 42.703125 
Q 37.796875 48.390625 30.609375 48.390625 
z
M 30.609375 56 
Q 42.328125 56 49.015625 48.375 
Q 55.71875 40.765625 55.71875 27.296875 
Q 55.71875 13.875 49.015625 6.21875 
Q 42.328125 -1.421875 30.609375 -1.421875 
Q 18.84375 -1.421875 12.171875 6.21875 
Q 5.515625 13.875 5.515625 27.296875 
Q 5.515625 40.765625 12.171875 48.375 
Q 18.84375 56 30.609375 56 
z
" id="DejaVuSans-111"/>
     <path d="M 48.78125 52.59375 
L 48.78125 44.1875 
Q 44.96875 46.296875 41.140625 47.34375 
Q 37.3125 48.390625 33.40625 48.390625 
Q 24.65625 48.390625 19.8125 42.84375 
Q 14.984375 37.3125 14.984375 27.296875 
Q 14.984375 17.28125 19.8125 11.734375 
Q 24.65625 6.203125 33.40625 6.203125 
Q 37.3125 6.203125 41.140625 7.25 
Q 44.96875 8.296875 48.78125 10.40625 
L 48.78125 2.09375 
Q 45.015625 0.34375 40.984375 -0.53125 
Q 36.96875 -1.421875 32.421875 -1.421875 
Q 20.0625 -1.421875 12.78125 6.34375 
Q 5.515625 14.109375 5.515625 27.296875 
Q 5.515625 40.671875 12.859375 48.328125 
Q 20.21875 56 33.015625 56 
Q 37.15625 56 41.109375 55.140625 
Q 45.0625 54.296875 48.78125 52.59375 
z
" id="DejaVuSans-99"/>
     <path d="M 45.40625 46.390625 
L 45.40625 75.984375 
L 54.390625 75.984375 
L 54.390625 0 
L 45.40625 0 
L 45.40625 8.203125 
Q 42.578125 3.328125 38.25 0.953125 
Q 33.9375 -1.421875 27.875 -1.421875 
Q 17.96875 -1.421875 11.734375 6.484375 
Q 5.515625 14.40625 5.515625 27.296875 
Q 5.515625 40.1875 11.734375 48.09375 
Q 17.96875 56 27.875 56 
Q 33.9375 56 38.25 53.625 
Q 42.578125 51.265625 45.40625 46.390625 
z
M 14.796875 27.296875 
Q 14.796875 17.390625 18.875 11.75 
Q 22.953125 6.109375 30.078125 6.109375 
Q 37.203125 6.109375 41.296875 11.75 
Q 45.40625 17.390625 45.40625 27.296875 
Q 45.40625 37.203125 41.296875 42.84375 
Q 37.203125 48.484375 30.078125 48.484375 
Q 22.953125 48.484375 18.875 42.84375 
Q 14.796875 37.203125 14.796875 27.296875 
z
" id="DejaVuSans-100"/>
    </defs>
    <g transform="translate(309.99875 156.718125)scale(0.12 -0.12)">
     <use xlink:href="#DejaVuSans-80"/>
     <use x="60.287109" xlink:href="#DejaVuSans-114"/>
     <use x="101.369141" xlink:href="#DejaVuSans-101"/>
     <use x="162.892578" xlink:href="#DejaVuSans-45"/>
     <use x="198.976562" xlink:href="#DejaVuSans-112"/>
     <use x="262.453125" xlink:href="#DejaVuSans-114"/>
     <use x="303.535156" xlink:href="#DejaVuSans-111"/>
     <use x="364.716797" xlink:href="#DejaVuSans-99"/>
     <use x="419.697266" xlink:href="#DejaVuSans-101"/>
     <use x="481.220703" xlink:href="#DejaVuSans-115"/>
     <use x="533.320312" xlink:href="#DejaVuSans-115"/>
     <use x="585.419922" xlink:href="#DejaVuSans-101"/>
     <use x="646.943359" xlink:href="#DejaVuSans-100"/>
     <use x="710.419922" xlink:href="#DejaVuSans-32"/>
     <use x="742.207031" xlink:href="#DejaVuSans-83"/>
     <use x="805.683594" xlink:href="#DejaVuSans-105"/>
     <use x="833.466797" xlink:href="#DejaVuSans-103"/>
     <use x="896.943359" xlink:href="#DejaVuSans-110"/>
     <use x="960.322266" xlink:href="#DejaVuSans-97"/>
     <use x="1021.601562" xlink:href="#DejaVuSans-108"/>
    </g>
   </g>
  </g>
  <g id="axes_3">
   <g id="patch_12">
    <path d="M 40.603125 386.918125 
L 705.323125 386.918125 
L 705.323125 303.118125 
L 40.603125 303.118125 
z
" style="fill:#ffffff;"/>
   </g>
   <g id="matplotlib.axis_5">
    <g id="xtick_13">
     <g id="line2d_21">
      <g>
       <use style="stroke:#000000;stroke-width:0.8;" x="136.381259" xlink:href="#m2eaf3d9e3d" y="386.918125"/>
      </g>
     </g>
     <g id="text_27">
      <!-- 6.580 -->
      <g transform="translate(122.067197 401.516562)scale(0.1 -0.1)">
       <use xlink:href="#DejaVuSans-54"/>
       <use x="63.623047" xlink:href="#DejaVuSans-46"/>
       <use x="95.410156" xlink:href="#DejaVuSans-53"/>
       <use x="159.033203" xlink:href="#DejaVuSans-56"/>
       <use x="222.65625" xlink:href="#DejaVuSans-48"/>
      </g>
     </g>
    </g>
    <g id="xtick_14">
     <g id="line2d_22">
      <g>
       <use style="stroke:#000000;stroke-width:0.8;" x="235.121604" xlink:href="#m2eaf3d9e3d" y="386.918125"/>
      </g>
     </g>
     <g id="text_28">
      <!-- 6.585 -->
      <g transform="translate(220.807541 401.516562)scale(0.1 -0.1)">
       <use xlink:href="#DejaVuSans-54"/>
       <use x="63.623047" xlink:href="#DejaVuSans-46"/>
       <use x="95.410156" xlink:href="#DejaVuSans-53"/>
       <use x="159.033203" xlink:href="#DejaVuSans-56"/>
       <use x="222.65625" xlink:href="#DejaVuSans-53"/>
      </g>
     </g>
    </g>
    <g id="xtick_15">
     <g id="line2d_23">
      <g>
       <use style="stroke:#000000;stroke-width:0.8;" x="333.861949" xlink:href="#m2eaf3d9e3d" y="386.918125"/>
      </g>
     </g>
     <g id="text_29">
      <!-- 6.590 -->
      <g transform="translate(319.547886 401.516562)scale(0.1 -0.1)">
       <use xlink:href="#DejaVuSans-54"/>
       <use x="63.623047" xlink:href="#DejaVuSans-46"/>
       <use x="95.410156" xlink:href="#DejaVuSans-53"/>
       <use x="159.033203" xlink:href="#DejaVuSans-57"/>
       <use x="222.65625" xlink:href="#DejaVuSans-48"/>
      </g>
     </g>
    </g>
    <g id="xtick_16">
     <g id="line2d_24">
      <g>
       <use style="stroke:#000000;stroke-width:0.8;" x="432.602293" xlink:href="#m2eaf3d9e3d" y="386.918125"/>
      </g>
     </g>
     <g id="text_30">
      <!-- 6.595 -->
      <g transform="translate(418.288231 401.516562)scale(0.1 -0.1)">
       <use xlink:href="#DejaVuSans-54"/>
       <use x="63.623047" xlink:href="#DejaVuSans-46"/>
       <use x="95.410156" xlink:href="#DejaVuSans-53"/>
       <use x="159.033203" xlink:href="#DejaVuSans-57"/>
       <use x="222.65625" xlink:href="#DejaVuSans-53"/>
      </g>
     </g>
    </g>
    <g id="xtick_17">
     <g id="line2d_25">
      <g>
       <use style="stroke:#000000;stroke-width:0.8;" x="531.342638" xlink:href="#m2eaf3d9e3d" y="386.918125"/>
      </g>
     </g>
     <g id="text_31">
      <!-- 6.600 -->
      <g transform="translate(517.028575 401.516562)scale(0.1 -0.1)">
       <use xlink:href="#DejaVuSans-54"/>
       <use x="63.623047" xlink:href="#DejaVuSans-46"/>
       <use x="95.410156" xlink:href="#DejaVuSans-54"/>
       <use x="159.033203" xlink:href="#DejaVuSans-48"/>
       <use x="222.65625" xlink:href="#DejaVuSans-48"/>
      </g>
     </g>
    </g>
    <g id="xtick_18">
     <g id="line2d_26">
      <g>
       <use style="stroke:#000000;stroke-width:0.8;" x="630.082982" xlink:href="#m2eaf3d9e3d" y="386.918125"/>
      </g>
     </g>
     <g id="text_32">
      <!-- 6.605 -->
      <g transform="translate(615.76892 401.516562)scale(0.1 -0.1)">
       <use xlink:href="#DejaVuSans-54"/>
       <use x="63.623047" xlink:href="#DejaVuSans-46"/>
       <use x="95.410156" xlink:href="#DejaVuSans-54"/>
       <use x="159.033203" xlink:href="#DejaVuSans-48"/>
       <use x="222.65625" xlink:href="#DejaVuSans-53"/>
      </g>
     </g>
    </g>
    <g id="text_33">
     <!-- Time (ms) -->
     <g transform="translate(347.61 415.194687)scale(0.1 -0.1)">
      <use xlink:href="#DejaVuSans-84"/>
      <use x="61.037109" xlink:href="#DejaVuSans-105"/>
      <use x="88.820312" xlink:href="#DejaVuSans-109"/>
      <use x="186.232422" xlink:href="#DejaVuSans-101"/>
      <use x="247.755859" xlink:href="#DejaVuSans-32"/>
      <use x="279.542969" xlink:href="#DejaVuSans-40"/>
      <use x="318.556641" xlink:href="#DejaVuSans-109"/>
      <use x="415.96875" xlink:href="#DejaVuSans-115"/>
      <use x="468.068359" xlink:href="#DejaVuSans-41"/>
     </g>
    </g>
    <g id="text_34">
     <!-- 1e5 -->
     <g transform="translate(686.445 414.194687)scale(0.1 -0.1)">
      <use xlink:href="#DejaVuSans-49"/>
      <use x="63.623047" xlink:href="#DejaVuSans-101"/>
      <use x="125.146484" xlink:href="#DejaVuSans-53"/>
     </g>
    </g>
   </g>
   <g id="matplotlib.axis_6">
    <g id="ytick_7">
     <g id="line2d_27">
      <g>
       <use style="stroke:#000000;stroke-width:0.8;" x="40.603125" xlink:href="#mfba2afb32c" y="378.54598"/>
      </g>
     </g>
     <g id="text_35">
      <!-- 0 -->
      <g transform="translate(27.240625 382.345199)scale(0.1 -0.1)">
       <use xlink:href="#DejaVuSans-48"/>
      </g>
     </g>
    </g>
    <g id="ytick_8">
     <g id="line2d_28">
      <g>
       <use style="stroke:#000000;stroke-width:0.8;" x="40.603125" xlink:href="#mfba2afb32c" y="349.633871"/>
      </g>
     </g>
     <g id="text_36">
      <!-- 20 -->
      <g transform="translate(20.878125 353.43309)scale(0.1 -0.1)">
       <use xlink:href="#DejaVuSans-50"/>
       <use x="63.623047" xlink:href="#DejaVuSans-48"/>
      </g>
     </g>
    </g>
    <g id="ytick_9">
     <g id="line2d_29">
      <g>
       <use style="stroke:#000000;stroke-width:0.8;" x="40.603125" xlink:href="#mfba2afb32c" y="320.721762"/>
      </g>
     </g>
     <g id="text_37">
      <!-- 40 -->
      <g transform="translate(20.878125 324.52098)scale(0.1 -0.1)">
       <use xlink:href="#DejaVuSans-52"/>
       <use x="63.623047" xlink:href="#DejaVuSans-48"/>
      </g>
     </g>
    </g>
    <g id="text_38">
     <!-- ADC Value -->
     <g transform="translate(14.798438 371.482187)rotate(-90)scale(0.1 -0.1)">
      <use xlink:href="#DejaVuSans-65"/>
      <use x="68.408203" xlink:href="#DejaVuSans-68"/>
      <use x="145.410156" xlink:href="#DejaVuSans-67"/>
      <use x="215.234375" xlink:href="#DejaVuSans-32"/>
      <use x="247.021484" xlink:href="#DejaVuSans-86"/>
      <use x="315.320312" xlink:href="#DejaVuSans-97"/>
      <use x="376.599609" xlink:href="#DejaVuSans-108"/>
      <use x="404.382812" xlink:href="#DejaVuSans-117"/>
      <use x="467.761719" xlink:href="#DejaVuSans-101"/>
     </g>
    </g>
   </g>
   <g id="line2d_30">
    <path clip-path="url(#pc23c08eb00)" d="M 70.81767 378.130803 
L 73.239678 374.53616 
L 75.661686 371.301473 
L 78.083693 368.470689 
L 80.505701 365.97355 
L 91.404735 355.388248 
L 101.092766 345.343169 
L 103.514774 342.307976 
L 105.936781 338.62732 
L 108.358789 334.190468 
L 111.991801 326.548419 
L 114.413808 321.642323 
L 115.624812 319.57424 
L 116.835816 317.931454 
L 118.04682 316.837564 
L 119.257823 316.403449 
L 120.468827 316.718013 
L 121.679831 317.840525 
L 122.890835 319.793972 
L 124.101839 322.560572 
L 125.312843 326.080187 
L 126.523846 330.251193 
L 128.945854 339.962048 
L 132.578866 355.156951 
L 133.789869 359.605368 
L 135.000873 363.456028 
L 136.211877 366.579837 
L 137.422881 368.888179 
L 138.633885 370.337688 
L 139.844889 370.930386 
L 141.055892 370.712678 
L 142.266896 369.770288 
L 143.4779 368.22031 
L 144.688904 366.202534 
L 147.110911 361.3745 
L 149.532919 356.465513 
L 150.743923 354.284817 
L 151.954927 352.398013 
L 153.165931 350.850493 
L 154.376934 349.657001 
L 155.587938 348.804527 
L 156.798942 348.254908 
L 158.009946 347.952054 
L 160.431954 347.801855 
L 162.853961 347.753427 
L 164.064965 347.592532 
L 165.275969 347.264957 
L 166.486973 346.729505 
L 167.697977 345.956973 
L 168.90898 344.931172 
L 170.119984 343.646751 
L 171.330988 342.108627 
L 172.541992 340.331255 
L 174.963999 336.158081 
L 178.597011 328.947401 
L 181.019019 324.182107 
L 182.230022 322.042467 
L 183.441026 320.186309 
L 184.65203 318.710057 
L 185.863034 317.709987 
L 187.074038 317.277173 
L 188.285042 317.491267 
L 189.496045 318.415153 
L 190.707049 320.088731 
L 191.918053 322.524287 
L 193.129057 325.702884 
L 194.340061 329.572336 
L 195.551065 334.047497 
L 197.973072 344.32662 
L 201.606084 360.702005 
L 202.817087 365.733001 
L 204.028091 370.286947 
L 205.239095 374.237064 
L 206.450099 377.488086 
L 207.661103 379.979732 
L 208.872107 381.688727 
L 210.08311 382.628949 
L 211.294114 382.847958 
L 212.505118 382.422082 
L 213.716122 381.450635 
L 214.927126 380.047097 
L 216.13813 378.331886 
L 222.193149 368.824717 
L 223.404153 367.256669 
L 224.615156 365.873369 
L 227.037164 363.600588 
L 233.092183 358.845269 
L 234.303187 357.652211 
L 235.514191 356.279319 
L 236.725195 354.700863 
L 237.936198 352.901084 
L 239.147202 350.875357 
L 241.56921 346.182777 
L 243.991218 340.806281 
L 248.835233 329.612669 
L 250.046237 327.150658 
L 251.257241 325.002055 
L 252.468244 323.26357 
L 253.679248 322.029023 
L 254.890252 321.386017 
L 256.101256 321.409581 
L 257.31226 322.15667 
L 258.523263 323.661545 
L 259.734267 325.930712 
L 260.945271 328.93945 
L 262.156275 332.63037 
L 263.367279 336.913121 
L 265.789286 346.745696 
L 269.422298 362.210639 
L 270.633302 366.84843 
L 271.844306 370.95366 
L 273.055309 374.395213 
L 274.266313 377.074932 
L 275.477317 378.933836 
L 276.688321 379.953856 
L 277.899325 380.159132 
L 279.110328 379.612982 
L 280.321332 378.412696 
L 281.532336 376.682884 
L 282.74334 374.565939 
L 287.587355 365.151867 
L 288.798359 363.180929 
L 290.009363 361.523831 
L 291.220367 360.204861 
L 292.431371 359.214332 
L 293.642374 358.511479 
L 294.853378 358.029225 
L 298.48639 356.967428 
L 299.697394 356.39439 
L 300.908397 355.54712 
L 302.119401 354.3464 
L 303.330405 352.733972 
L 304.541409 350.675141 
L 305.752413 348.161666 
L 306.963416 345.210896 
L 308.17442 341.866199 
L 310.596428 334.27865 
L 315.440443 318.401565 
L 316.651447 314.988779 
L 317.862451 312.042925 
L 319.073455 309.674734 
L 320.284459 307.98193 
L 321.495462 307.045466 
L 322.706466 306.927216 
L 323.91747 307.666065 
L 325.128474 309.276036 
L 326.339478 311.744696 
L 327.550482 315.031858 
L 328.761485 319.070013 
L 329.972489 323.765195 
L 332.394497 334.637304 
L 337.238512 358.06363 
L 338.449516 363.345439 
L 339.66052 368.115214 
L 340.871524 372.267427 
L 342.082527 375.725026 
L 343.293531 378.442041 
L 344.504535 380.404306 
L 345.715539 381.629168 
L 346.926543 382.162018 
L 348.137547 382.07268 
L 349.34855 381.449045 
L 350.559554 380.391585 
L 351.770558 379.005683 
L 354.192566 375.657805 
L 357.825577 370.435122 
L 360.247585 367.38475 
L 362.669592 364.746953 
L 367.513608 359.822065 
L 369.935615 356.954417 
L 372.357623 353.537006 
L 374.779631 349.516488 
L 377.201638 344.965866 
L 382.045654 335.046844 
L 384.467661 330.250036 
L 386.889669 326.062262 
L 388.100673 324.339678 
L 389.311677 322.94756 
L 390.52268 321.949803 
L 391.733684 321.408424 
L 392.944688 321.380669 
L 394.155692 321.91482 
L 395.366696 323.046584 
L 396.5777 324.795622 
L 397.788703 327.162223 
L 398.999707 330.124558 
L 400.210711 333.638102 
L 401.421715 337.634912 
L 403.843723 346.702328 
L 408.687738 365.721002 
L 409.898742 369.901549 
L 411.109746 373.619791 
L 412.320749 376.789425 
L 413.531753 379.347135 
L 414.742757 381.255912 
L 415.953761 382.504916 
L 417.164765 383.109034 
L 418.375768 383.106287 
L 419.586772 382.555512 
L 420.797776 381.530867 
L 422.00878 380.11851 
L 423.219784 378.410961 
L 425.641791 374.484696 
L 429.274803 368.575784 
L 430.485807 366.863175 
L 431.696811 365.348181 
L 432.907814 364.049593 
L 434.118818 362.970593 
L 435.329822 362.099905 
L 436.540826 361.412231 
L 438.962834 360.426617 
L 441.384841 359.604356 
L 442.595845 359.100708 
L 443.806849 358.451052 
L 445.017853 357.596844 
L 446.228856 356.48792 
L 447.43986 355.08655 
L 448.650864 353.370906 
L 449.861868 351.338674 
L 451.072872 349.008936 
L 453.494879 343.651233 
L 457.127891 335.18143 
L 458.338895 332.714071 
L 459.549899 330.647289 
L 460.760902 329.111044 
L 461.971906 328.221129 
L 463.18291 328.072232 
L 464.393914 328.729259 
L 465.604918 330.222714 
L 466.815922 332.543779 
L 468.026925 335.642868 
L 469.237929 339.430788 
L 471.659937 348.539837 
L 475.292948 363.416274 
L 476.503952 367.942898 
L 477.714956 371.964572 
L 478.92596 375.34541 
L 480.136964 377.985808 
L 481.347967 379.827221 
L 482.558971 380.854468 
L 483.769975 381.094583 
L 484.980979 380.614064 
L 486.191983 379.512512 
L 487.402987 377.914974 
L 489.824994 373.803527 
L 492.247002 369.428402 
L 493.458006 367.456596 
L 494.669009 365.752083 
L 495.880013 364.371963 
L 497.091017 363.342403 
L 498.302021 362.659644 
L 499.513025 362.292894 
L 500.724029 362.188087 
L 503.146036 362.467234 
L 505.568044 362.824443 
L 506.779048 362.818371 
L 507.990052 362.589821 
L 509.201055 362.079667 
L 510.412059 361.243818 
L 511.623063 360.054663 
L 512.834067 358.500348 
L 514.045071 356.585065 
L 515.256075 354.328186 
L 516.467078 351.76238 
L 518.889086 345.899294 
L 524.944105 330.351084 
L 526.155109 327.813757 
L 527.366113 325.701872 
L 528.577117 324.113586 
L 529.78812 323.137657 
L 530.999124 322.849693 
L 532.210128 323.30607 
L 533.421132 324.53975 
L 534.632136 326.555647 
L 535.84314 329.328318 
L 537.054143 332.800229 
L 538.265147 336.881896 
L 540.687155 346.377211 
L 544.320166 361.578909 
L 545.53117 366.223206 
L 546.742174 370.395368 
L 547.953178 373.971506 
L 549.164182 376.859103 
L 550.375185 379.001202 
L 551.586189 380.379297 
L 552.797193 381.012472 
L 554.008197 380.954504 
L 555.219201 380.288369 
L 556.430205 379.119741 
L 557.641208 377.568896 
L 560.063216 373.818561 
L 562.485224 369.955181 
L 564.907231 366.628987 
L 566.118235 365.266215 
L 567.329239 364.107273 
L 569.751247 362.291159 
L 575.806266 358.44209 
L 578.228273 356.271802 
L 580.650281 353.517924 
L 583.072289 350.229171 
L 585.494296 346.5024 
L 587.916304 342.406277 
L 590.338312 337.960318 
L 593.971323 330.705547 
L 597.604335 323.359702 
L 598.815339 321.163539 
L 600.026342 319.242763 
L 601.237346 317.702615 
L 602.44835 316.651659 
L 603.659354 316.193113 
L 604.870358 316.41776 
L 606.081361 317.39499 
L 607.292365 319.166001 
L 608.503369 321.737589 
L 609.714373 325.078094 
L 610.925377 329.116393 
L 612.136381 333.742764 
L 614.558388 344.158207 
L 616.980396 354.905705 
L 618.1914 359.920221 
L 619.402404 364.454652 
L 620.613407 368.358654 
L 621.824411 371.51629 
L 623.035415 373.85369 
L 624.246419 375.341507 
L 625.457423 375.996077 
L 626.668427 375.876236 
L 627.87943 375.078407 
L 629.090434 373.728211 
L 630.301438 371.970644 
L 635.145453 363.849955 
L 636.356457 362.171318 
L 637.567461 360.79062 
L 638.778465 359.728245 
L 639.989469 358.969736 
L 641.200472 358.470568 
L 643.62248 357.952463 
L 646.044488 357.451705 
L 647.255492 356.971186 
L 648.466495 356.232048 
L 649.677499 355.180081 
L 650.888503 353.785794 
L 652.099507 352.046442 
L 653.310511 349.985153 
L 655.732518 345.103054 
L 660.576534 334.491154 
L 661.787537 332.137419 
L 662.998541 330.029437 
L 664.209545 328.199156 
L 665.420549 326.657996 
L 666.631553 325.396416 
L 667.842557 324.386661 
L 669.05356 323.586084 
L 671.475568 322.39505 
L 675.10858 320.783778 
L 675.10858 320.783778 
" style="fill:none;stroke:#1f77b4;stroke-linecap:square;stroke-width:1.5;"/>
   </g>
   <g id="line2d_31">
    <defs>
     <path d="M -3 3 
L 3 -3 
M -3 -3 
L 3 3 
" id="macb6fab1f0" style="stroke:#ff0000;"/>
    </defs>
    <g clip-path="url(#pc23c08eb00)">
     <use style="fill:#ff0000;stroke:#ff0000;" x="119.257823" xlink:href="#macb6fab1f0" y="316.403449"/>
     <use style="fill:#ff0000;stroke:#ff0000;" x="187.074038" xlink:href="#macb6fab1f0" y="317.277173"/>
     <use style="fill:#ff0000;stroke:#ff0000;" x="254.890252" xlink:href="#macb6fab1f0" y="321.386017"/>
     <use style="fill:#ff0000;stroke:#ff0000;" x="322.706466" xlink:href="#macb6fab1f0" y="306.927216"/>
     <use style="fill:#ff0000;stroke:#ff0000;" x="392.944688" xlink:href="#macb6fab1f0" y="321.380669"/>
     <use style="fill:#ff0000;stroke:#ff0000;" x="463.18291" xlink:href="#macb6fab1f0" y="328.072232"/>
     <use style="fill:#ff0000;stroke:#ff0000;" x="530.999124" xlink:href="#macb6fab1f0" y="322.849693"/>
     <use style="fill:#ff0000;stroke:#ff0000;" x="603.659354" xlink:href="#macb6fab1f0" y="316.193113"/>
    </g>
   </g>
   <g id="patch_13">
    <path d="M 40.603125 386.918125 
L 40.603125 303.118125 
" style="fill:none;stroke:#000000;stroke-linecap:square;stroke-linejoin:miter;stroke-width:0.8;"/>
   </g>
   <g id="patch_14">
    <path d="M 705.323125 386.918125 
L 705.323125 303.118125 
" style="fill:none;stroke:#000000;stroke-linecap:square;stroke-linejoin:miter;stroke-width:0.8;"/>
   </g>
   <g id="patch_15">
    <path d="M 40.603125 386.918125 
L 705.323125 386.918125 
" style="fill:none;stroke:#000000;stroke-linecap:square;stroke-linejoin:miter;stroke-width:0.8;"/>
   </g>
   <g id="patch_16">
    <path d="M 40.603125 303.118125 
L 705.323125 303.118125 
" style="fill:none;stroke:#000000;stroke-linecap:square;stroke-linejoin:miter;stroke-width:0.8;"/>
   </g>
   <g id="text_39">
    <!-- Initial Systolic Peaks -->
    <defs>
     <path d="M 32.171875 -5.078125 
Q 28.375 -14.84375 24.75 -17.8125 
Q 21.140625 -20.796875 15.09375 -20.796875 
L 7.90625 -20.796875 
L 7.90625 -13.28125 
L 13.1875 -13.28125 
Q 16.890625 -13.28125 18.9375 -11.515625 
Q 21 -9.765625 23.484375 -3.21875 
L 25.09375 0.875 
L 2.984375 54.6875 
L 12.5 54.6875 
L 29.59375 11.921875 
L 46.6875 54.6875 
L 56.203125 54.6875 
z
" id="DejaVuSans-121"/>
     <path d="M 9.078125 75.984375 
L 18.109375 75.984375 
L 18.109375 31.109375 
L 44.921875 54.6875 
L 56.390625 54.6875 
L 27.390625 29.109375 
L 57.625 0 
L 45.90625 0 
L 18.109375 26.703125 
L 18.109375 0 
L 9.078125 0 
z
" id="DejaVuSans-107"/>
    </defs>
    <g transform="translate(311.82125 297.118125)scale(0.12 -0.12)">
     <use xlink:href="#DejaVuSans-73"/>
     <use x="29.492188" xlink:href="#DejaVuSans-110"/>
     <use x="92.871094" xlink:href="#DejaVuSans-105"/>
     <use x="120.654297" xlink:href="#DejaVuSans-116"/>
     <use x="159.863281" xlink:href="#DejaVuSans-105"/>
     <use x="187.646484" xlink:href="#DejaVuSans-97"/>
     <use x="248.925781" xlink:href="#DejaVuSans-108"/>
     <use x="276.708984" xlink:href="#DejaVuSans-32"/>
     <use x="308.496094" xlink:href="#DejaVuSans-83"/>
     <use x="371.972656" xlink:href="#DejaVuSans-121"/>
     <use x="431.152344" xlink:href="#DejaVuSans-115"/>
     <use x="483.251953" xlink:href="#DejaVuSans-116"/>
     <use x="522.460938" xlink:href="#DejaVuSans-111"/>
     <use x="583.642578" xlink:href="#DejaVuSans-108"/>
     <use x="611.425781" xlink:href="#DejaVuSans-105"/>
     <use x="639.208984" xlink:href="#DejaVuSans-99"/>
     <use x="694.189453" xlink:href="#DejaVuSans-32"/>
     <use x="725.976562" xlink:href="#DejaVuSans-80"/>
     <use x="786.232422" xlink:href="#DejaVuSans-101"/>
     <use x="847.755859" xlink:href="#DejaVuSans-97"/>
     <use x="909.035156" xlink:href="#DejaVuSans-107"/>
     <use x="966.945312" xlink:href="#DejaVuSans-115"/>
    </g>
   </g>
  </g>
 </g>
 <defs>
  <clipPath id="pc77cb310cc">
   <rect height="83.8" width="664.72" x="40.603125" y="22.318125"/>
  </clipPath>
  <clipPath id="p27e0ba0955">
   <rect height="83.8" width="664.72" x="40.603125" y="162.718125"/>
  </clipPath>
  <clipPath id="pc23c08eb00">
   <rect height="83.8" width="664.72" x="40.603125" y="303.118125"/>
  </clipPath>
 </defs>
</svg>
