<?xml version="1.0" encoding="utf-8" standalone="no"?>
<!DOCTYPE svg PUBLIC "-//W3C//DTD SVG 1.1//EN"
  "http://www.w3.org/Graphics/SVG/1.1/DTD/svg11.dtd">
<!-- Created with matplotlib (https://matplotlib.org/) -->
<svg height="424.474375pt" version="1.1" viewBox="0 0 712.433125 424.474375" width="712.433125pt" xmlns="http://www.w3.org/2000/svg" xmlns:xlink="http://www.w3.org/1999/xlink">
 <defs>
  <style type="text/css">
*{stroke-linecap:butt;stroke-linejoin:round;}
  </style>
 </defs>
 <g id="figure_1">
  <g id="patch_1">
   <path d="M 0 424.474375 
L 712.433125 424.474375 
L 712.433125 0 
L 0 0 
z
" style="fill:#ffffff;"/>
  </g>
  <g id="axes_1">
   <g id="patch_2">
    <path d="M 40.603125 176.318125 
L 705.233125 176.318125 
L 705.233125 22.318125 
L 40.603125 22.318125 
z
" style="fill:#ffffff;"/>
   </g>
   <g id="matplotlib.axis_1">
    <g id="xtick_1">
     <g id="line2d_1">
      <defs>
       <path d="M 0 0 
L 0 3.5 
" id="m1934e4859d" style="stroke:#000000;stroke-width:0.8;"/>
      </defs>
      <g>
       <use style="stroke:#000000;stroke-width:0.8;" x="136.368291" xlink:href="#m1934e4859d" y="176.318125"/>
      </g>
     </g>
     <g id="text_1">
      <!-- 6.580 -->
      <defs>
       <path d="M 33.015625 40.375 
Q 26.375 40.375 22.484375 35.828125 
Q 18.609375 31.296875 18.609375 23.390625 
Q 18.609375 15.53125 22.484375 10.953125 
Q 26.375 6.390625 33.015625 6.390625 
Q 39.65625 6.390625 43.53125 10.953125 
Q 47.40625 15.53125 47.40625 23.390625 
Q 47.40625 31.296875 43.53125 35.828125 
Q 39.65625 40.375 33.015625 40.375 
z
M 52.59375 71.296875 
L 52.59375 62.3125 
Q 48.875 64.0625 45.09375 64.984375 
Q 41.3125 65.921875 37.59375 65.921875 
Q 27.828125 65.921875 22.671875 59.328125 
Q 17.53125 52.734375 16.796875 39.40625 
Q 19.671875 43.65625 24.015625 45.921875 
Q 28.375 48.1875 33.59375 48.1875 
Q 44.578125 48.1875 50.953125 41.515625 
Q 57.328125 34.859375 57.328125 23.390625 
Q 57.328125 12.15625 50.6875 5.359375 
Q 44.046875 -1.421875 33.015625 -1.421875 
Q 20.359375 -1.421875 13.671875 8.265625 
Q 6.984375 17.96875 6.984375 36.375 
Q 6.984375 53.65625 15.1875 63.9375 
Q 23.390625 74.21875 37.203125 74.21875 
Q 40.921875 74.21875 44.703125 73.484375 
Q 48.484375 72.75 52.59375 71.296875 
z
" id="DejaVuSans-54"/>
       <path d="M 10.6875 12.40625 
L 21 12.40625 
L 21 0 
L 10.6875 0 
z
" id="DejaVuSans-46"/>
       <path d="M 10.796875 72.90625 
L 49.515625 72.90625 
L 49.515625 64.59375 
L 19.828125 64.59375 
L 19.828125 46.734375 
Q 21.96875 47.46875 24.109375 47.828125 
Q 26.265625 48.1875 28.421875 48.1875 
Q 40.625 48.1875 47.75 41.5 
Q 54.890625 34.8125 54.890625 23.390625 
Q 54.890625 11.625 47.5625 5.09375 
Q 40.234375 -1.421875 26.90625 -1.421875 
Q 22.3125 -1.421875 17.546875 -0.640625 
Q 12.796875 0.140625 7.71875 1.703125 
L 7.71875 11.625 
Q 12.109375 9.234375 16.796875 8.0625 
Q 21.484375 6.890625 26.703125 6.890625 
Q 35.15625 6.890625 40.078125 11.328125 
Q 45.015625 15.765625 45.015625 23.390625 
Q 45.015625 31 40.078125 35.4375 
Q 35.15625 39.890625 26.703125 39.890625 
Q 22.75 39.890625 18.8125 39.015625 
Q 14.890625 38.140625 10.796875 36.28125 
z
" id="DejaVuSans-53"/>
       <path d="M 31.78125 34.625 
Q 24.75 34.625 20.71875 30.859375 
Q 16.703125 27.09375 16.703125 20.515625 
Q 16.703125 13.921875 20.71875 10.15625 
Q 24.75 6.390625 31.78125 6.390625 
Q 38.8125 6.390625 42.859375 10.171875 
Q 46.921875 13.96875 46.921875 20.515625 
Q 46.921875 27.09375 42.890625 30.859375 
Q 38.875 34.625 31.78125 34.625 
z
M 21.921875 38.8125 
Q 15.578125 40.375 12.03125 44.71875 
Q 8.5 49.078125 8.5 55.328125 
Q 8.5 64.0625 14.71875 69.140625 
Q 20.953125 74.21875 31.78125 74.21875 
Q 42.671875 74.21875 48.875 69.140625 
Q 55.078125 64.0625 55.078125 55.328125 
Q 55.078125 49.078125 51.53125 44.71875 
Q 48 40.375 41.703125 38.8125 
Q 48.828125 37.15625 52.796875 32.3125 
Q 56.78125 27.484375 56.78125 20.515625 
Q 56.78125 9.90625 50.3125 4.234375 
Q 43.84375 -1.421875 31.78125 -1.421875 
Q 19.734375 -1.421875 13.25 4.234375 
Q 6.78125 9.90625 6.78125 20.515625 
Q 6.78125 27.484375 10.78125 32.3125 
Q 14.796875 37.15625 21.921875 38.8125 
z
M 18.3125 54.390625 
Q 18.3125 48.734375 21.84375 45.5625 
Q 25.390625 42.390625 31.78125 42.390625 
Q 38.140625 42.390625 41.71875 45.5625 
Q 45.3125 48.734375 45.3125 54.390625 
Q 45.3125 60.0625 41.71875 63.234375 
Q 38.140625 66.40625 31.78125 66.40625 
Q 25.390625 66.40625 21.84375 63.234375 
Q 18.3125 60.0625 18.3125 54.390625 
z
" id="DejaVuSans-56"/>
       <path d="M 31.78125 66.40625 
Q 24.171875 66.40625 20.328125 58.90625 
Q 16.5 51.421875 16.5 36.375 
Q 16.5 21.390625 20.328125 13.890625 
Q 24.171875 6.390625 31.78125 6.390625 
Q 39.453125 6.390625 43.28125 13.890625 
Q 47.125 21.390625 47.125 36.375 
Q 47.125 51.421875 43.28125 58.90625 
Q 39.453125 66.40625 31.78125 66.40625 
z
M 31.78125 74.21875 
Q 44.046875 74.21875 50.515625 64.515625 
Q 56.984375 54.828125 56.984375 36.375 
Q 56.984375 17.96875 50.515625 8.265625 
Q 44.046875 -1.421875 31.78125 -1.421875 
Q 19.53125 -1.421875 13.0625 8.265625 
Q 6.59375 17.96875 6.59375 36.375 
Q 6.59375 54.828125 13.0625 64.515625 
Q 19.53125 74.21875 31.78125 74.21875 
z
" id="DejaVuSans-48"/>
      </defs>
      <g transform="translate(122.054229 190.916562)scale(0.1 -0.1)">
       <use xlink:href="#DejaVuSans-54"/>
       <use x="63.623047" xlink:href="#DejaVuSans-46"/>
       <use x="95.410156" xlink:href="#DejaVuSans-53"/>
       <use x="159.033203" xlink:href="#DejaVuSans-56"/>
       <use x="222.65625" xlink:href="#DejaVuSans-48"/>
      </g>
     </g>
    </g>
    <g id="xtick_2">
     <g id="line2d_2">
      <g>
       <use style="stroke:#000000;stroke-width:0.8;" x="235.095267" xlink:href="#m1934e4859d" y="176.318125"/>
      </g>
     </g>
     <g id="text_2">
      <!-- 6.585 -->
      <g transform="translate(220.781205 190.916562)scale(0.1 -0.1)">
       <use xlink:href="#DejaVuSans-54"/>
       <use x="63.623047" xlink:href="#DejaVuSans-46"/>
       <use x="95.410156" xlink:href="#DejaVuSans-53"/>
       <use x="159.033203" xlink:href="#DejaVuSans-56"/>
       <use x="222.65625" xlink:href="#DejaVuSans-53"/>
      </g>
     </g>
    </g>
    <g id="xtick_3">
     <g id="line2d_3">
      <g>
       <use style="stroke:#000000;stroke-width:0.8;" x="333.822243" xlink:href="#m1934e4859d" y="176.318125"/>
      </g>
     </g>
     <g id="text_3">
      <!-- 6.590 -->
      <defs>
       <path d="M 10.984375 1.515625 
L 10.984375 10.5 
Q 14.703125 8.734375 18.5 7.8125 
Q 22.3125 6.890625 25.984375 6.890625 
Q 35.75 6.890625 40.890625 13.453125 
Q 46.046875 20.015625 46.78125 33.40625 
Q 43.953125 29.203125 39.59375 26.953125 
Q 35.25 24.703125 29.984375 24.703125 
Q 19.046875 24.703125 12.671875 31.3125 
Q 6.296875 37.9375 6.296875 49.421875 
Q 6.296875 60.640625 12.9375 67.421875 
Q 19.578125 74.21875 30.609375 74.21875 
Q 43.265625 74.21875 49.921875 64.515625 
Q 56.59375 54.828125 56.59375 36.375 
Q 56.59375 19.140625 48.40625 8.859375 
Q 40.234375 -1.421875 26.421875 -1.421875 
Q 22.703125 -1.421875 18.890625 -0.6875 
Q 15.09375 0.046875 10.984375 1.515625 
z
M 30.609375 32.421875 
Q 37.25 32.421875 41.125 36.953125 
Q 45.015625 41.5 45.015625 49.421875 
Q 45.015625 57.28125 41.125 61.84375 
Q 37.25 66.40625 30.609375 66.40625 
Q 23.96875 66.40625 20.09375 61.84375 
Q 16.21875 57.28125 16.21875 49.421875 
Q 16.21875 41.5 20.09375 36.953125 
Q 23.96875 32.421875 30.609375 32.421875 
z
" id="DejaVuSans-57"/>
      </defs>
      <g transform="translate(319.50818 190.916562)scale(0.1 -0.1)">
       <use xlink:href="#DejaVuSans-54"/>
       <use x="63.623047" xlink:href="#DejaVuSans-46"/>
       <use x="95.410156" xlink:href="#DejaVuSans-53"/>
       <use x="159.033203" xlink:href="#DejaVuSans-57"/>
       <use x="222.65625" xlink:href="#DejaVuSans-48"/>
      </g>
     </g>
    </g>
    <g id="xtick_4">
     <g id="line2d_4">
      <g>
       <use style="stroke:#000000;stroke-width:0.8;" x="432.549218" xlink:href="#m1934e4859d" y="176.318125"/>
      </g>
     </g>
     <g id="text_4">
      <!-- 6.595 -->
      <g transform="translate(418.235156 190.916562)scale(0.1 -0.1)">
       <use xlink:href="#DejaVuSans-54"/>
       <use x="63.623047" xlink:href="#DejaVuSans-46"/>
       <use x="95.410156" xlink:href="#DejaVuSans-53"/>
       <use x="159.033203" xlink:href="#DejaVuSans-57"/>
       <use x="222.65625" xlink:href="#DejaVuSans-53"/>
      </g>
     </g>
    </g>
    <g id="xtick_5">
     <g id="line2d_5">
      <g>
       <use style="stroke:#000000;stroke-width:0.8;" x="531.276194" xlink:href="#m1934e4859d" y="176.318125"/>
      </g>
     </g>
     <g id="text_5">
      <!-- 6.600 -->
      <g transform="translate(516.962131 190.916562)scale(0.1 -0.1)">
       <use xlink:href="#DejaVuSans-54"/>
       <use x="63.623047" xlink:href="#DejaVuSans-46"/>
       <use x="95.410156" xlink:href="#DejaVuSans-54"/>
       <use x="159.033203" xlink:href="#DejaVuSans-48"/>
       <use x="222.65625" xlink:href="#DejaVuSans-48"/>
      </g>
     </g>
    </g>
    <g id="xtick_6">
     <g id="line2d_6">
      <g>
       <use style="stroke:#000000;stroke-width:0.8;" x="630.00317" xlink:href="#m1934e4859d" y="176.318125"/>
      </g>
     </g>
     <g id="text_6">
      <!-- 6.605 -->
      <g transform="translate(615.689107 190.916562)scale(0.1 -0.1)">
       <use xlink:href="#DejaVuSans-54"/>
       <use x="63.623047" xlink:href="#DejaVuSans-46"/>
       <use x="95.410156" xlink:href="#DejaVuSans-54"/>
       <use x="159.033203" xlink:href="#DejaVuSans-48"/>
       <use x="222.65625" xlink:href="#DejaVuSans-53"/>
      </g>
     </g>
    </g>
    <g id="text_7">
     <!-- Time (ms) -->
     <defs>
      <path d="M -0.296875 72.90625 
L 61.375 72.90625 
L 61.375 64.59375 
L 35.5 64.59375 
L 35.5 0 
L 25.59375 0 
L 25.59375 64.59375 
L -0.296875 64.59375 
z
" id="DejaVuSans-84"/>
      <path d="M 9.421875 54.6875 
L 18.40625 54.6875 
L 18.40625 0 
L 9.421875 0 
z
M 9.421875 75.984375 
L 18.40625 75.984375 
L 18.40625 64.59375 
L 9.421875 64.59375 
z
" id="DejaVuSans-105"/>
      <path d="M 52 44.1875 
Q 55.375 50.25 60.0625 53.125 
Q 64.75 56 71.09375 56 
Q 79.640625 56 84.28125 50.015625 
Q 88.921875 44.046875 88.921875 33.015625 
L 88.921875 0 
L 79.890625 0 
L 79.890625 32.71875 
Q 79.890625 40.578125 77.09375 44.375 
Q 74.3125 48.1875 68.609375 48.1875 
Q 61.625 48.1875 57.5625 43.546875 
Q 53.515625 38.921875 53.515625 30.90625 
L 53.515625 0 
L 44.484375 0 
L 44.484375 32.71875 
Q 44.484375 40.625 41.703125 44.40625 
Q 38.921875 48.1875 33.109375 48.1875 
Q 26.21875 48.1875 22.15625 43.53125 
Q 18.109375 38.875 18.109375 30.90625 
L 18.109375 0 
L 9.078125 0 
L 9.078125 54.6875 
L 18.109375 54.6875 
L 18.109375 46.1875 
Q 21.1875 51.21875 25.484375 53.609375 
Q 29.78125 56 35.6875 56 
Q 41.65625 56 45.828125 52.96875 
Q 50 49.953125 52 44.1875 
z
" id="DejaVuSans-109"/>
      <path d="M 56.203125 29.59375 
L 56.203125 25.203125 
L 14.890625 25.203125 
Q 15.484375 15.921875 20.484375 11.0625 
Q 25.484375 6.203125 34.421875 6.203125 
Q 39.59375 6.203125 44.453125 7.46875 
Q 49.3125 8.734375 54.109375 11.28125 
L 54.109375 2.78125 
Q 49.265625 0.734375 44.1875 -0.34375 
Q 39.109375 -1.421875 33.890625 -1.421875 
Q 20.796875 -1.421875 13.15625 6.1875 
Q 5.515625 13.8125 5.515625 26.8125 
Q 5.515625 40.234375 12.765625 48.109375 
Q 20.015625 56 32.328125 56 
Q 43.359375 56 49.78125 48.890625 
Q 56.203125 41.796875 56.203125 29.59375 
z
M 47.21875 32.234375 
Q 47.125 39.59375 43.09375 43.984375 
Q 39.0625 48.390625 32.421875 48.390625 
Q 24.90625 48.390625 20.390625 44.140625 
Q 15.875 39.890625 15.1875 32.171875 
z
" id="DejaVuSans-101"/>
      <path id="DejaVuSans-32"/>
      <path d="M 31 75.875 
Q 24.46875 64.65625 21.28125 53.65625 
Q 18.109375 42.671875 18.109375 31.390625 
Q 18.109375 20.125 21.3125 9.0625 
Q 24.515625 -2 31 -13.1875 
L 23.1875 -13.1875 
Q 15.875 -1.703125 12.234375 9.375 
Q 8.59375 20.453125 8.59375 31.390625 
Q 8.59375 42.28125 12.203125 53.3125 
Q 15.828125 64.359375 23.1875 75.875 
z
" id="DejaVuSans-40"/>
      <path d="M 44.28125 53.078125 
L 44.28125 44.578125 
Q 40.484375 46.53125 36.375 47.5 
Q 32.28125 48.484375 27.875 48.484375 
Q 21.1875 48.484375 17.84375 46.4375 
Q 14.5 44.390625 14.5 40.28125 
Q 14.5 37.15625 16.890625 35.375 
Q 19.28125 33.59375 26.515625 31.984375 
L 29.59375 31.296875 
Q 39.15625 29.25 43.1875 25.515625 
Q 47.21875 21.78125 47.21875 15.09375 
Q 47.21875 7.46875 41.1875 3.015625 
Q 35.15625 -1.421875 24.609375 -1.421875 
Q 20.21875 -1.421875 15.453125 -0.5625 
Q 10.6875 0.296875 5.421875 2 
L 5.421875 11.28125 
Q 10.40625 8.6875 15.234375 7.390625 
Q 20.0625 6.109375 24.8125 6.109375 
Q 31.15625 6.109375 34.5625 8.28125 
Q 37.984375 10.453125 37.984375 14.40625 
Q 37.984375 18.0625 35.515625 20.015625 
Q 33.0625 21.96875 24.703125 23.78125 
L 21.578125 24.515625 
Q 13.234375 26.265625 9.515625 29.90625 
Q 5.8125 33.546875 5.8125 39.890625 
Q 5.8125 47.609375 11.28125 51.796875 
Q 16.75 56 26.8125 56 
Q 31.78125 56 36.171875 55.265625 
Q 40.578125 54.546875 44.28125 53.078125 
z
" id="DejaVuSans-115"/>
      <path d="M 8.015625 75.875 
L 15.828125 75.875 
Q 23.140625 64.359375 26.78125 53.3125 
Q 30.421875 42.28125 30.421875 31.390625 
Q 30.421875 20.453125 26.78125 9.375 
Q 23.140625 -1.703125 15.828125 -13.1875 
L 8.015625 -13.1875 
Q 14.5 -2 17.703125 9.0625 
Q 20.90625 20.125 20.90625 31.390625 
Q 20.90625 42.671875 17.703125 53.65625 
Q 14.5 64.65625 8.015625 75.875 
z
" id="DejaVuSans-41"/>
     </defs>
     <g transform="translate(347.565 204.594687)scale(0.1 -0.1)">
      <use xlink:href="#DejaVuSans-84"/>
      <use x="61.037109" xlink:href="#DejaVuSans-105"/>
      <use x="88.820312" xlink:href="#DejaVuSans-109"/>
      <use x="186.232422" xlink:href="#DejaVuSans-101"/>
      <use x="247.755859" xlink:href="#DejaVuSans-32"/>
      <use x="279.542969" xlink:href="#DejaVuSans-40"/>
      <use x="318.556641" xlink:href="#DejaVuSans-109"/>
      <use x="415.96875" xlink:href="#DejaVuSans-115"/>
      <use x="468.068359" xlink:href="#DejaVuSans-41"/>
     </g>
    </g>
    <g id="text_8">
     <!-- 1e5 -->
     <defs>
      <path d="M 12.40625 8.296875 
L 28.515625 8.296875 
L 28.515625 63.921875 
L 10.984375 60.40625 
L 10.984375 69.390625 
L 28.421875 72.90625 
L 38.28125 72.90625 
L 38.28125 8.296875 
L 54.390625 8.296875 
L 54.390625 0 
L 12.40625 0 
z
" id="DejaVuSans-49"/>
     </defs>
     <g transform="translate(686.355 203.594687)scale(0.1 -0.1)">
      <use xlink:href="#DejaVuSans-49"/>
      <use x="63.623047" xlink:href="#DejaVuSans-101"/>
      <use x="125.146484" xlink:href="#DejaVuSans-53"/>
     </g>
    </g>
   </g>
   <g id="matplotlib.axis_2">
    <g id="ytick_1">
     <g id="line2d_7">
      <defs>
       <path d="M 0 0 
L -3.5 0 
" id="m94811386cb" style="stroke:#000000;stroke-width:0.8;"/>
      </defs>
      <g>
       <use style="stroke:#000000;stroke-width:0.8;" x="40.603125" xlink:href="#m94811386cb" y="160.932561"/>
      </g>
     </g>
     <g id="text_9">
      <!-- 0 -->
      <g transform="translate(27.240625 164.73178)scale(0.1 -0.1)">
       <use xlink:href="#DejaVuSans-48"/>
      </g>
     </g>
    </g>
    <g id="ytick_2">
     <g id="line2d_8">
      <g>
       <use style="stroke:#000000;stroke-width:0.8;" x="40.603125" xlink:href="#m94811386cb" y="134.366542"/>
      </g>
     </g>
     <g id="text_10">
      <!-- 10 -->
      <g transform="translate(20.878125 138.16576)scale(0.1 -0.1)">
       <use xlink:href="#DejaVuSans-49"/>
       <use x="63.623047" xlink:href="#DejaVuSans-48"/>
      </g>
     </g>
    </g>
    <g id="ytick_3">
     <g id="line2d_9">
      <g>
       <use style="stroke:#000000;stroke-width:0.8;" x="40.603125" xlink:href="#m94811386cb" y="107.800522"/>
      </g>
     </g>
     <g id="text_11">
      <!-- 20 -->
      <defs>
       <path d="M 19.1875 8.296875 
L 53.609375 8.296875 
L 53.609375 0 
L 7.328125 0 
L 7.328125 8.296875 
Q 12.9375 14.109375 22.625 23.890625 
Q 32.328125 33.6875 34.8125 36.53125 
Q 39.546875 41.84375 41.421875 45.53125 
Q 43.3125 49.21875 43.3125 52.78125 
Q 43.3125 58.59375 39.234375 62.25 
Q 35.15625 65.921875 28.609375 65.921875 
Q 23.96875 65.921875 18.8125 64.3125 
Q 13.671875 62.703125 7.8125 59.421875 
L 7.8125 69.390625 
Q 13.765625 71.78125 18.9375 73 
Q 24.125 74.21875 28.421875 74.21875 
Q 39.75 74.21875 46.484375 68.546875 
Q 53.21875 62.890625 53.21875 53.421875 
Q 53.21875 48.921875 51.53125 44.890625 
Q 49.859375 40.875 45.40625 35.40625 
Q 44.1875 33.984375 37.640625 27.21875 
Q 31.109375 20.453125 19.1875 8.296875 
z
" id="DejaVuSans-50"/>
      </defs>
      <g transform="translate(20.878125 111.599741)scale(0.1 -0.1)">
       <use xlink:href="#DejaVuSans-50"/>
       <use x="63.623047" xlink:href="#DejaVuSans-48"/>
      </g>
     </g>
    </g>
    <g id="ytick_4">
     <g id="line2d_10">
      <g>
       <use style="stroke:#000000;stroke-width:0.8;" x="40.603125" xlink:href="#m94811386cb" y="81.234503"/>
      </g>
     </g>
     <g id="text_12">
      <!-- 30 -->
      <defs>
       <path d="M 40.578125 39.3125 
Q 47.65625 37.796875 51.625 33 
Q 55.609375 28.21875 55.609375 21.1875 
Q 55.609375 10.40625 48.1875 4.484375 
Q 40.765625 -1.421875 27.09375 -1.421875 
Q 22.515625 -1.421875 17.65625 -0.515625 
Q 12.796875 0.390625 7.625 2.203125 
L 7.625 11.71875 
Q 11.71875 9.328125 16.59375 8.109375 
Q 21.484375 6.890625 26.8125 6.890625 
Q 36.078125 6.890625 40.9375 10.546875 
Q 45.796875 14.203125 45.796875 21.1875 
Q 45.796875 27.640625 41.28125 31.265625 
Q 36.765625 34.90625 28.71875 34.90625 
L 20.21875 34.90625 
L 20.21875 43.015625 
L 29.109375 43.015625 
Q 36.375 43.015625 40.234375 45.921875 
Q 44.09375 48.828125 44.09375 54.296875 
Q 44.09375 59.90625 40.109375 62.90625 
Q 36.140625 65.921875 28.71875 65.921875 
Q 24.65625 65.921875 20.015625 65.03125 
Q 15.375 64.15625 9.8125 62.3125 
L 9.8125 71.09375 
Q 15.4375 72.65625 20.34375 73.4375 
Q 25.25 74.21875 29.59375 74.21875 
Q 40.828125 74.21875 47.359375 69.109375 
Q 53.90625 64.015625 53.90625 55.328125 
Q 53.90625 49.265625 50.4375 45.09375 
Q 46.96875 40.921875 40.578125 39.3125 
z
" id="DejaVuSans-51"/>
      </defs>
      <g transform="translate(20.878125 85.033722)scale(0.1 -0.1)">
       <use xlink:href="#DejaVuSans-51"/>
       <use x="63.623047" xlink:href="#DejaVuSans-48"/>
      </g>
     </g>
    </g>
    <g id="ytick_5">
     <g id="line2d_11">
      <g>
       <use style="stroke:#000000;stroke-width:0.8;" x="40.603125" xlink:href="#m94811386cb" y="54.668483"/>
      </g>
     </g>
     <g id="text_13">
      <!-- 40 -->
      <defs>
       <path d="M 37.796875 64.3125 
L 12.890625 25.390625 
L 37.796875 25.390625 
z
M 35.203125 72.90625 
L 47.609375 72.90625 
L 47.609375 25.390625 
L 58.015625 25.390625 
L 58.015625 17.1875 
L 47.609375 17.1875 
L 47.609375 0 
L 37.796875 0 
L 37.796875 17.1875 
L 4.890625 17.1875 
L 4.890625 26.703125 
z
" id="DejaVuSans-52"/>
      </defs>
      <g transform="translate(20.878125 58.467702)scale(0.1 -0.1)">
       <use xlink:href="#DejaVuSans-52"/>
       <use x="63.623047" xlink:href="#DejaVuSans-48"/>
      </g>
     </g>
    </g>
    <g id="ytick_6">
     <g id="line2d_12">
      <g>
       <use style="stroke:#000000;stroke-width:0.8;" x="40.603125" xlink:href="#m94811386cb" y="28.102464"/>
      </g>
     </g>
     <g id="text_14">
      <!-- 50 -->
      <g transform="translate(20.878125 31.901683)scale(0.1 -0.1)">
       <use xlink:href="#DejaVuSans-53"/>
       <use x="63.623047" xlink:href="#DejaVuSans-48"/>
      </g>
     </g>
    </g>
    <g id="text_15">
     <!-- ADC Value -->
     <defs>
      <path d="M 34.1875 63.1875 
L 20.796875 26.90625 
L 47.609375 26.90625 
z
M 28.609375 72.90625 
L 39.796875 72.90625 
L 67.578125 0 
L 57.328125 0 
L 50.6875 18.703125 
L 17.828125 18.703125 
L 11.1875 0 
L 0.78125 0 
z
" id="DejaVuSans-65"/>
      <path d="M 19.671875 64.796875 
L 19.671875 8.109375 
L 31.59375 8.109375 
Q 46.6875 8.109375 53.6875 14.9375 
Q 60.6875 21.78125 60.6875 36.53125 
Q 60.6875 51.171875 53.6875 57.984375 
Q 46.6875 64.796875 31.59375 64.796875 
z
M 9.8125 72.90625 
L 30.078125 72.90625 
Q 51.265625 72.90625 61.171875 64.09375 
Q 71.09375 55.28125 71.09375 36.53125 
Q 71.09375 17.671875 61.125 8.828125 
Q 51.171875 0 30.078125 0 
L 9.8125 0 
z
" id="DejaVuSans-68"/>
      <path d="M 64.40625 67.28125 
L 64.40625 56.890625 
Q 59.421875 61.53125 53.78125 63.8125 
Q 48.140625 66.109375 41.796875 66.109375 
Q 29.296875 66.109375 22.65625 58.46875 
Q 16.015625 50.828125 16.015625 36.375 
Q 16.015625 21.96875 22.65625 14.328125 
Q 29.296875 6.6875 41.796875 6.6875 
Q 48.140625 6.6875 53.78125 8.984375 
Q 59.421875 11.28125 64.40625 15.921875 
L 64.40625 5.609375 
Q 59.234375 2.09375 53.4375 0.328125 
Q 47.65625 -1.421875 41.21875 -1.421875 
Q 24.65625 -1.421875 15.125 8.703125 
Q 5.609375 18.84375 5.609375 36.375 
Q 5.609375 53.953125 15.125 64.078125 
Q 24.65625 74.21875 41.21875 74.21875 
Q 47.75 74.21875 53.53125 72.484375 
Q 59.328125 70.75 64.40625 67.28125 
z
" id="DejaVuSans-67"/>
      <path d="M 28.609375 0 
L 0.78125 72.90625 
L 11.078125 72.90625 
L 34.1875 11.53125 
L 57.328125 72.90625 
L 67.578125 72.90625 
L 39.796875 0 
z
" id="DejaVuSans-86"/>
      <path d="M 34.28125 27.484375 
Q 23.390625 27.484375 19.1875 25 
Q 14.984375 22.515625 14.984375 16.5 
Q 14.984375 11.71875 18.140625 8.90625 
Q 21.296875 6.109375 26.703125 6.109375 
Q 34.1875 6.109375 38.703125 11.40625 
Q 43.21875 16.703125 43.21875 25.484375 
L 43.21875 27.484375 
z
M 52.203125 31.203125 
L 52.203125 0 
L 43.21875 0 
L 43.21875 8.296875 
Q 40.140625 3.328125 35.546875 0.953125 
Q 30.953125 -1.421875 24.3125 -1.421875 
Q 15.921875 -1.421875 10.953125 3.296875 
Q 6 8.015625 6 15.921875 
Q 6 25.140625 12.171875 29.828125 
Q 18.359375 34.515625 30.609375 34.515625 
L 43.21875 34.515625 
L 43.21875 35.40625 
Q 43.21875 41.609375 39.140625 45 
Q 35.0625 48.390625 27.6875 48.390625 
Q 23 48.390625 18.546875 47.265625 
Q 14.109375 46.140625 10.015625 43.890625 
L 10.015625 52.203125 
Q 14.9375 54.109375 19.578125 55.046875 
Q 24.21875 56 28.609375 56 
Q 40.484375 56 46.34375 49.84375 
Q 52.203125 43.703125 52.203125 31.203125 
z
" id="DejaVuSans-97"/>
      <path d="M 9.421875 75.984375 
L 18.40625 75.984375 
L 18.40625 0 
L 9.421875 0 
z
" id="DejaVuSans-108"/>
      <path d="M 8.5 21.578125 
L 8.5 54.6875 
L 17.484375 54.6875 
L 17.484375 21.921875 
Q 17.484375 14.15625 20.5 10.265625 
Q 23.53125 6.390625 29.59375 6.390625 
Q 36.859375 6.390625 41.078125 11.03125 
Q 45.3125 15.671875 45.3125 23.6875 
L 45.3125 54.6875 
L 54.296875 54.6875 
L 54.296875 0 
L 45.3125 0 
L 45.3125 8.40625 
Q 42.046875 3.421875 37.71875 1 
Q 33.40625 -1.421875 27.6875 -1.421875 
Q 18.265625 -1.421875 13.375 4.4375 
Q 8.5 10.296875 8.5 21.578125 
z
M 31.109375 56 
z
" id="DejaVuSans-117"/>
     </defs>
     <g transform="translate(14.798438 125.782187)rotate(-90)scale(0.1 -0.1)">
      <use xlink:href="#DejaVuSans-65"/>
      <use x="68.408203" xlink:href="#DejaVuSans-68"/>
      <use x="145.410156" xlink:href="#DejaVuSans-67"/>
      <use x="215.234375" xlink:href="#DejaVuSans-32"/>
      <use x="247.021484" xlink:href="#DejaVuSans-86"/>
      <use x="315.320312" xlink:href="#DejaVuSans-97"/>
      <use x="376.599609" xlink:href="#DejaVuSans-108"/>
      <use x="404.382812" xlink:href="#DejaVuSans-117"/>
      <use x="467.761719" xlink:href="#DejaVuSans-101"/>
     </g>
    </g>
   </g>
   <g id="line2d_13">
    <path clip-path="url(#pe15c77fdaa)" d="M 70.81358 160.169585 
L 73.235259 153.563679 
L 75.656939 147.619266 
L 78.078619 142.417108 
L 80.500298 137.828094 
L 91.397857 118.375392 
L 101.084576 99.915462 
L 103.506256 94.337661 
L 104.717096 91.125563 
L 105.927936 87.573686 
L 108.349615 79.420044 
L 110.771295 70.160192 
L 113.192975 60.708002 
L 114.403815 56.360207 
L 115.614654 52.559673 
L 116.825494 49.54071 
L 118.036334 47.53046 
L 119.247174 46.732682 
L 120.458014 47.310759 
L 121.668854 49.37361 
L 122.879694 52.963476 
L 124.090533 58.047681 
L 125.301373 64.51571 
L 126.512213 72.180803 
L 128.933893 90.026527 
L 132.566412 117.950336 
L 133.777252 126.125231 
L 134.988092 133.201622 
L 136.198932 138.942273 
L 137.409772 143.184335 
L 138.620612 145.848109 
L 139.831452 146.937316 
L 141.042292 146.537232 
L 142.253131 144.805393 
L 143.463971 141.956985 
L 144.674811 138.2489 
L 147.096491 129.37638 
L 149.518171 120.355092 
L 150.72901 116.347608 
L 151.93985 112.880211 
L 153.15069 110.036318 
L 154.36153 107.843028 
L 155.57237 106.27643 
L 156.78321 105.26639 
L 157.99405 104.709831 
L 159.204889 104.478707 
L 162.837409 104.344814 
L 164.048249 104.049135 
L 165.259089 103.447149 
L 166.469929 102.463143 
L 167.680768 101.043455 
L 168.891608 99.15833 
L 170.102448 96.79794 
L 171.313288 93.971315 
L 172.524128 90.705023 
L 174.945808 83.035945 
L 177.367487 74.310335 
L 181.000007 61.027591 
L 182.210847 57.095555 
L 183.421687 53.684478 
L 184.632527 50.971556 
L 185.843366 49.133719 
L 187.054206 48.338332 
L 188.265046 48.731775 
L 189.475886 50.429609 
L 190.686726 53.505157 
L 191.897566 57.981 
L 193.108406 63.822337 
L 194.319245 70.933263 
L 195.530085 79.157306 
L 197.951765 98.047339 
L 201.584285 128.140529 
L 202.795124 137.386035 
L 204.005964 145.754863 
L 205.216804 153.014028 
L 206.427644 158.98846 
L 207.638484 163.567379 
L 208.849324 166.708014 
L 210.060164 168.435867 
L 211.271003 168.838343 
L 212.481843 168.055708 
L 213.692683 166.270471 
L 214.903523 163.691176 
L 216.114363 160.539118 
L 222.168562 143.06771 
L 223.379402 140.186094 
L 224.590242 137.643991 
L 225.801082 135.421478 
L 228.222762 131.707017 
L 231.855281 126.65602 
L 233.066121 124.72839 
L 234.276961 122.535896 
L 235.487801 120.012921 
L 236.698641 117.112178 
L 237.90948 113.804708 
L 239.12032 110.082012 
L 241.542 101.458416 
L 243.96368 91.577982 
L 248.807039 71.007382 
L 250.017879 66.482924 
L 251.228719 62.534416 
L 252.439559 59.339587 
L 253.650399 57.070848 
L 254.861238 55.889192 
L 256.072078 55.932495 
L 257.282918 57.305426 
L 258.493758 60.070949 
L 259.704598 64.241017 
L 260.915438 69.770203 
L 262.126278 76.553039 
L 263.337118 84.423488 
L 265.758797 102.492897 
L 269.391317 130.912959 
L 270.602157 139.435869 
L 271.812997 146.980088 
L 273.023836 153.30466 
L 274.234676 158.229203 
L 275.445516 161.645327 
L 276.656356 163.519826 
L 277.867196 163.897063 
L 279.078036 162.893399 
L 280.288876 160.687622 
L 281.499715 157.508732 
L 282.710555 153.618405 
L 287.553915 136.318081 
L 288.764755 132.69607 
L 289.975594 129.650807 
L 291.186434 127.226924 
L 292.397274 125.40662 
L 293.608114 124.11498 
L 294.818954 123.228738 
L 298.451474 121.277464 
L 299.662313 120.224387 
L 300.873153 118.667352 
L 302.083993 116.460779 
L 303.294833 113.497605 
L 304.505673 109.714073 
L 305.716513 105.095039 
L 306.927353 99.672383 
L 308.138192 93.525803 
L 310.559872 79.582096 
L 315.403232 50.404637 
L 316.614071 44.132931 
L 317.824911 38.719308 
L 319.035751 34.367263 
L 320.246591 31.256382 
L 321.457431 29.535435 
L 322.668271 29.318125 
L 323.879111 30.675914 
L 325.08995 33.634572 
L 326.30079 38.171251 
L 327.51163 44.212098 
L 328.72247 51.63305 
L 329.93331 60.261427 
L 332.35499 80.241199 
L 337.198349 123.291965 
L 338.409189 132.998392 
L 339.620029 141.76385 
L 340.830869 149.394407 
L 342.041709 155.748468 
L 343.252548 160.741551 
L 344.463388 164.347623 
L 345.674228 166.598562 
L 346.885068 167.577785 
L 348.095908 167.413607 
L 349.306748 166.267549 
L 350.517588 164.324245 
L 351.728427 161.77736 
L 354.150107 155.624936 
L 357.782627 146.027164 
L 360.204306 140.421469 
L 362.625986 135.573967 
L 367.469346 126.523456 
L 369.891025 121.253554 
L 372.312705 114.973347 
L 374.734385 107.584806 
L 377.156065 99.222089 
L 381.999424 80.993815 
L 384.421104 72.178678 
L 386.842783 64.482768 
L 388.053623 61.317161 
L 389.264463 58.758853 
L 390.475303 56.925267 
L 391.686143 55.930369 
L 392.896983 55.879363 
L 394.107823 56.860977 
L 395.318662 58.940831 
L 396.529502 62.155053 
L 397.740342 66.504176 
L 398.951182 71.948085 
L 400.162022 78.404956 
L 401.372862 85.749929 
L 403.794541 102.413199 
L 408.637901 137.363986 
L 409.848741 145.046613 
L 411.059581 151.879659 
L 412.270421 157.704524 
L 413.48126 162.40485 
L 414.6921 165.912627 
L 415.90294 168.207931 
L 417.11378 169.318125 
L 418.32462 169.313077 
L 419.53546 168.300912 
L 420.7463 166.417913 
L 421.957139 163.822413 
L 423.167979 160.684434 
L 425.589659 153.469103 
L 428.011339 146.058247 
L 430.433018 139.462967 
L 431.643858 136.678848 
L 432.854698 134.292422 
L 434.065538 132.309535 
L 435.276378 130.709463 
L 436.487218 129.445718 
L 437.698058 128.450023 
L 442.541417 125.197811 
L 443.752257 124.003934 
L 444.963097 122.434148 
L 446.173937 120.396269 
L 447.384776 117.820959 
L 448.595616 114.668104 
L 449.806456 110.933453 
L 451.017296 106.652073 
L 453.438976 96.806175 
L 457.071495 81.241144 
L 458.282335 76.706856 
L 459.493175 72.908712 
L 460.704015 70.085541 
L 461.914855 68.450137 
L 463.125695 68.176507 
L 464.336535 69.383933 
L 465.547374 72.128468 
L 466.758214 76.393908 
L 467.969054 82.089132 
L 469.179894 89.050226 
L 470.390734 97.046332 
L 472.812414 114.953423 
L 475.234093 133.128565 
L 476.444933 141.447183 
L 477.655773 148.837849 
L 478.866613 155.050844 
L 480.077453 159.903128 
L 481.288293 163.287107 
L 482.499132 165.174889 
L 483.709972 165.61615 
L 484.920812 164.733096 
L 486.131652 162.708765 
L 487.342492 159.772954 
L 488.553332 156.185479 
L 493.396691 140.553502 
L 494.607531 137.421102 
L 495.818371 134.884845 
L 497.029211 132.992813 
L 498.240051 131.7381 
L 499.450891 131.06412 
L 500.66173 130.871516 
L 501.87257 131.029318 
L 505.50509 132.040952 
L 506.71593 132.029795 
L 507.92677 131.609786 
L 509.137609 130.672271 
L 510.348449 129.136224 
L 511.559289 126.950903 
L 512.770129 124.094525 
L 513.980969 120.574793 
L 515.191809 116.427306 
L 516.402649 111.712103 
L 518.824328 100.937457 
L 523.667688 77.621524 
L 524.878528 72.364375 
L 526.089367 67.701507 
L 527.300207 63.820477 
L 528.511047 60.901668 
L 529.721887 59.108197 
L 530.932727 58.579001 
L 532.143567 59.417691 
L 533.354407 61.684835 
L 534.565247 65.389466 
L 535.776086 70.484829 
L 536.986926 76.86519 
L 538.197766 84.366105 
L 540.619446 101.815729 
L 544.251965 129.752024 
L 545.462805 138.286889 
L 546.673645 145.954108 
L 547.884485 152.52601 
L 549.095325 157.832572 
L 550.306165 161.769125 
L 551.517005 164.301664 
L 552.727844 165.465255 
L 553.938684 165.358725 
L 555.149524 164.134563 
L 556.360364 161.986966 
L 557.571204 159.136964 
L 559.992884 152.244941 
L 562.414563 145.145173 
L 563.625403 141.917667 
L 564.836243 139.032597 
L 566.047083 136.528219 
L 567.257923 134.398421 
L 568.468763 132.600167 
L 570.890442 129.68986 
L 573.312122 127.059292 
L 574.522962 125.615695 
L 575.733802 123.987463 
L 576.944642 122.124654 
L 578.155482 119.999107 
L 579.366321 117.601258 
L 581.788001 112.028238 
L 584.209681 105.560475 
L 586.631361 98.362944 
L 589.05304 90.513216 
L 591.47472 82.028295 
L 598.739759 55.480341 
L 599.950599 51.950514 
L 601.161439 49.12017 
L 602.372279 47.188821 
L 603.583119 46.346146 
L 604.793958 46.758982 
L 606.004798 48.554845 
L 607.215638 51.809448 
L 608.426478 56.535278 
L 609.637318 62.674153 
L 610.848158 70.095371 
L 612.058998 78.597294 
L 614.480677 97.737845 
L 616.902357 117.488618 
L 618.113197 126.703839 
L 619.324037 135.036802 
L 620.534877 142.211221 
L 621.745717 148.014037 
L 622.956556 152.309497 
L 624.167396 155.043671 
L 625.378236 156.246581 
L 626.589076 156.026349 
L 627.799916 154.56017 
L 629.010756 152.078904 
L 630.221596 148.849007 
L 635.064955 133.925546 
L 636.275795 130.840699 
L 637.486635 128.303379 
L 638.697475 126.351042 
L 639.908314 124.957123 
L 641.119154 124.039799 
L 642.329994 123.470489 
L 644.751674 122.713357 
L 645.962514 122.167425 
L 647.173354 121.284371 
L 648.384194 119.92605 
L 649.595033 117.992841 
L 650.805873 115.430549 
L 652.016713 112.234125 
L 653.227553 108.446076 
L 655.649233 99.4742 
L 660.492592 79.972617 
L 661.703432 75.647138 
L 662.914272 71.773281 
L 664.125112 68.409757 
L 665.335952 65.577554 
L 666.546791 63.259137 
L 667.757631 61.403501 
L 668.968471 59.932274 
L 670.179311 58.748227 
L 675.02267 54.782452 
L 675.02267 54.782452 
" style="fill:none;stroke:#1f77b4;stroke-linecap:square;stroke-width:1.5;"/>
   </g>
   <g id="line2d_14">
    <defs>
     <path d="M -3 3 
L 3 -3 
M -3 -3 
L 3 3 
" id="m1d755a09ff" style="stroke:#ff0000;"/>
    </defs>
    <g clip-path="url(#pe15c77fdaa)">
     <use style="fill:#ff0000;stroke:#ff0000;" x="187.054206" xlink:href="#m1d755a09ff" y="48.338332"/>
     <use style="fill:#ff0000;stroke:#ff0000;" x="254.861238" xlink:href="#m1d755a09ff" y="55.889192"/>
     <use style="fill:#ff0000;stroke:#ff0000;" x="322.668271" xlink:href="#m1d755a09ff" y="29.318125"/>
     <use style="fill:#ff0000;stroke:#ff0000;" x="392.896983" xlink:href="#m1d755a09ff" y="55.879363"/>
     <use style="fill:#ff0000;stroke:#ff0000;" x="463.125695" xlink:href="#m1d755a09ff" y="68.176507"/>
     <use style="fill:#ff0000;stroke:#ff0000;" x="530.932727" xlink:href="#m1d755a09ff" y="58.579001"/>
     <use style="fill:#ff0000;stroke:#ff0000;" x="603.583119" xlink:href="#m1d755a09ff" y="46.346146"/>
    </g>
   </g>
   <g id="line2d_15">
    <path clip-path="url(#pe15c77fdaa)" d="M 187.054206 176.318125 
L 187.054206 22.318125 
" style="fill:none;stroke:#808080;stroke-dasharray:5.55,2.4;stroke-dashoffset:0;stroke-width:1.5;"/>
   </g>
   <g id="line2d_16">
    <path clip-path="url(#pe15c77fdaa)" d="M 254.861238 176.318125 
L 254.861238 22.318125 
" style="fill:none;stroke:#808080;stroke-dasharray:5.55,2.4;stroke-dashoffset:0;stroke-width:1.5;"/>
   </g>
   <g id="line2d_17">
    <path clip-path="url(#pe15c77fdaa)" d="M 322.668271 176.318125 
L 322.668271 22.318125 
" style="fill:none;stroke:#808080;stroke-dasharray:5.55,2.4;stroke-dashoffset:0;stroke-width:1.5;"/>
   </g>
   <g id="line2d_18">
    <path clip-path="url(#pe15c77fdaa)" d="M 392.896983 176.318125 
L 392.896983 22.318125 
" style="fill:none;stroke:#808080;stroke-dasharray:5.55,2.4;stroke-dashoffset:0;stroke-width:1.5;"/>
   </g>
   <g id="line2d_19">
    <path clip-path="url(#pe15c77fdaa)" d="M 463.125695 176.318125 
L 463.125695 22.318125 
" style="fill:none;stroke:#808080;stroke-dasharray:5.55,2.4;stroke-dashoffset:0;stroke-width:1.5;"/>
   </g>
   <g id="line2d_20">
    <path clip-path="url(#pe15c77fdaa)" d="M 530.932727 176.318125 
L 530.932727 22.318125 
" style="fill:none;stroke:#808080;stroke-dasharray:5.55,2.4;stroke-dashoffset:0;stroke-width:1.5;"/>
   </g>
   <g id="line2d_21">
    <path clip-path="url(#pe15c77fdaa)" d="M 603.583119 176.318125 
L 603.583119 22.318125 
" style="fill:none;stroke:#808080;stroke-dasharray:5.55,2.4;stroke-dashoffset:0;stroke-width:1.5;"/>
   </g>
   <g id="patch_3">
    <path d="M 40.603125 176.318125 
L 40.603125 22.318125 
" style="fill:none;stroke:#000000;stroke-linecap:square;stroke-linejoin:miter;stroke-width:0.8;"/>
   </g>
   <g id="patch_4">
    <path d="M 705.233125 176.318125 
L 705.233125 22.318125 
" style="fill:none;stroke:#000000;stroke-linecap:square;stroke-linejoin:miter;stroke-width:0.8;"/>
   </g>
   <g id="patch_5">
    <path d="M 40.603125 176.318125 
L 705.233125 176.318125 
" style="fill:none;stroke:#000000;stroke-linecap:square;stroke-linejoin:miter;stroke-width:0.8;"/>
   </g>
   <g id="patch_6">
    <path d="M 40.603125 22.318125 
L 705.233125 22.318125 
" style="fill:none;stroke:#000000;stroke-linecap:square;stroke-linejoin:miter;stroke-width:0.8;"/>
   </g>
   <g id="text_16">
    <!-- Final Systolic Peaks -->
    <defs>
     <path d="M 9.8125 72.90625 
L 51.703125 72.90625 
L 51.703125 64.59375 
L 19.671875 64.59375 
L 19.671875 43.109375 
L 48.578125 43.109375 
L 48.578125 34.8125 
L 19.671875 34.8125 
L 19.671875 0 
L 9.8125 0 
z
" id="DejaVuSans-70"/>
     <path d="M 54.890625 33.015625 
L 54.890625 0 
L 45.90625 0 
L 45.90625 32.71875 
Q 45.90625 40.484375 42.875 44.328125 
Q 39.84375 48.1875 33.796875 48.1875 
Q 26.515625 48.1875 22.3125 43.546875 
Q 18.109375 38.921875 18.109375 30.90625 
L 18.109375 0 
L 9.078125 0 
L 9.078125 54.6875 
L 18.109375 54.6875 
L 18.109375 46.1875 
Q 21.34375 51.125 25.703125 53.5625 
Q 30.078125 56 35.796875 56 
Q 45.21875 56 50.046875 50.171875 
Q 54.890625 44.34375 54.890625 33.015625 
z
" id="DejaVuSans-110"/>
     <path d="M 53.515625 70.515625 
L 53.515625 60.890625 
Q 47.90625 63.578125 42.921875 64.890625 
Q 37.9375 66.21875 33.296875 66.21875 
Q 25.25 66.21875 20.875 63.09375 
Q 16.5 59.96875 16.5 54.203125 
Q 16.5 49.359375 19.40625 46.890625 
Q 22.3125 44.4375 30.421875 42.921875 
L 36.375 41.703125 
Q 47.40625 39.59375 52.65625 34.296875 
Q 57.90625 29 57.90625 20.125 
Q 57.90625 9.515625 50.796875 4.046875 
Q 43.703125 -1.421875 29.984375 -1.421875 
Q 24.8125 -1.421875 18.96875 -0.25 
Q 13.140625 0.921875 6.890625 3.21875 
L 6.890625 13.375 
Q 12.890625 10.015625 18.65625 8.296875 
Q 24.421875 6.59375 29.984375 6.59375 
Q 38.421875 6.59375 43.015625 9.90625 
Q 47.609375 13.234375 47.609375 19.390625 
Q 47.609375 24.75 44.3125 27.78125 
Q 41.015625 30.8125 33.5 32.328125 
L 27.484375 33.5 
Q 16.453125 35.6875 11.515625 40.375 
Q 6.59375 45.0625 6.59375 53.421875 
Q 6.59375 63.09375 13.40625 68.65625 
Q 20.21875 74.21875 32.171875 74.21875 
Q 37.3125 74.21875 42.625 73.28125 
Q 47.953125 72.359375 53.515625 70.515625 
z
" id="DejaVuSans-83"/>
     <path d="M 32.171875 -5.078125 
Q 28.375 -14.84375 24.75 -17.8125 
Q 21.140625 -20.796875 15.09375 -20.796875 
L 7.90625 -20.796875 
L 7.90625 -13.28125 
L 13.1875 -13.28125 
Q 16.890625 -13.28125 18.9375 -11.515625 
Q 21 -9.765625 23.484375 -3.21875 
L 25.09375 0.875 
L 2.984375 54.6875 
L 12.5 54.6875 
L 29.59375 11.921875 
L 46.6875 54.6875 
L 56.203125 54.6875 
z
" id="DejaVuSans-121"/>
     <path d="M 18.3125 70.21875 
L 18.3125 54.6875 
L 36.8125 54.6875 
L 36.8125 47.703125 
L 18.3125 47.703125 
L 18.3125 18.015625 
Q 18.3125 11.328125 20.140625 9.421875 
Q 21.96875 7.515625 27.59375 7.515625 
L 36.8125 7.515625 
L 36.8125 0 
L 27.59375 0 
Q 17.1875 0 13.234375 3.875 
Q 9.28125 7.765625 9.28125 18.015625 
L 9.28125 47.703125 
L 2.6875 47.703125 
L 2.6875 54.6875 
L 9.28125 54.6875 
L 9.28125 70.21875 
z
" id="DejaVuSans-116"/>
     <path d="M 30.609375 48.390625 
Q 23.390625 48.390625 19.1875 42.75 
Q 14.984375 37.109375 14.984375 27.296875 
Q 14.984375 17.484375 19.15625 11.84375 
Q 23.34375 6.203125 30.609375 6.203125 
Q 37.796875 6.203125 41.984375 11.859375 
Q 46.1875 17.53125 46.1875 27.296875 
Q 46.1875 37.015625 41.984375 42.703125 
Q 37.796875 48.390625 30.609375 48.390625 
z
M 30.609375 56 
Q 42.328125 56 49.015625 48.375 
Q 55.71875 40.765625 55.71875 27.296875 
Q 55.71875 13.875 49.015625 6.21875 
Q 42.328125 -1.421875 30.609375 -1.421875 
Q 18.84375 -1.421875 12.171875 6.21875 
Q 5.515625 13.875 5.515625 27.296875 
Q 5.515625 40.765625 12.171875 48.375 
Q 18.84375 56 30.609375 56 
z
" id="DejaVuSans-111"/>
     <path d="M 48.78125 52.59375 
L 48.78125 44.1875 
Q 44.96875 46.296875 41.140625 47.34375 
Q 37.3125 48.390625 33.40625 48.390625 
Q 24.65625 48.390625 19.8125 42.84375 
Q 14.984375 37.3125 14.984375 27.296875 
Q 14.984375 17.28125 19.8125 11.734375 
Q 24.65625 6.203125 33.40625 6.203125 
Q 37.3125 6.203125 41.140625 7.25 
Q 44.96875 8.296875 48.78125 10.40625 
L 48.78125 2.09375 
Q 45.015625 0.34375 40.984375 -0.53125 
Q 36.96875 -1.421875 32.421875 -1.421875 
Q 20.0625 -1.421875 12.78125 6.34375 
Q 5.515625 14.109375 5.515625 27.296875 
Q 5.515625 40.671875 12.859375 48.328125 
Q 20.21875 56 33.015625 56 
Q 37.15625 56 41.109375 55.140625 
Q 45.0625 54.296875 48.78125 52.59375 
z
" id="DejaVuSans-99"/>
     <path d="M 19.671875 64.796875 
L 19.671875 37.40625 
L 32.078125 37.40625 
Q 38.96875 37.40625 42.71875 40.96875 
Q 46.484375 44.53125 46.484375 51.125 
Q 46.484375 57.671875 42.71875 61.234375 
Q 38.96875 64.796875 32.078125 64.796875 
z
M 9.8125 72.90625 
L 32.078125 72.90625 
Q 44.34375 72.90625 50.609375 67.359375 
Q 56.890625 61.8125 56.890625 51.125 
Q 56.890625 40.328125 50.609375 34.8125 
Q 44.34375 29.296875 32.078125 29.296875 
L 19.671875 29.296875 
L 19.671875 0 
L 9.8125 0 
z
" id="DejaVuSans-80"/>
     <path d="M 9.078125 75.984375 
L 18.109375 75.984375 
L 18.109375 31.109375 
L 44.921875 54.6875 
L 56.390625 54.6875 
L 27.390625 29.109375 
L 57.625 0 
L 45.90625 0 
L 18.109375 26.703125 
L 18.109375 0 
L 9.078125 0 
z
" id="DejaVuSans-107"/>
    </defs>
    <g transform="translate(314.120938 16.318125)scale(0.12 -0.12)">
     <use xlink:href="#DejaVuSans-70"/>
     <use x="57.410156" xlink:href="#DejaVuSans-105"/>
     <use x="85.193359" xlink:href="#DejaVuSans-110"/>
     <use x="148.572266" xlink:href="#DejaVuSans-97"/>
     <use x="209.851562" xlink:href="#DejaVuSans-108"/>
     <use x="237.634766" xlink:href="#DejaVuSans-32"/>
     <use x="269.421875" xlink:href="#DejaVuSans-83"/>
     <use x="332.898438" xlink:href="#DejaVuSans-121"/>
     <use x="392.078125" xlink:href="#DejaVuSans-115"/>
     <use x="444.177734" xlink:href="#DejaVuSans-116"/>
     <use x="483.386719" xlink:href="#DejaVuSans-111"/>
     <use x="544.568359" xlink:href="#DejaVuSans-108"/>
     <use x="572.351562" xlink:href="#DejaVuSans-105"/>
     <use x="600.134766" xlink:href="#DejaVuSans-99"/>
     <use x="655.115234" xlink:href="#DejaVuSans-32"/>
     <use x="686.902344" xlink:href="#DejaVuSans-80"/>
     <use x="747.158203" xlink:href="#DejaVuSans-101"/>
     <use x="808.681641" xlink:href="#DejaVuSans-97"/>
     <use x="869.960938" xlink:href="#DejaVuSans-107"/>
     <use x="927.871094" xlink:href="#DejaVuSans-115"/>
    </g>
   </g>
  </g>
  <g id="axes_2">
   <g id="patch_7">
    <path d="M 40.603125 386.918125 
L 705.233125 386.918125 
L 705.233125 232.918125 
L 40.603125 232.918125 
z
" style="fill:#ffffff;"/>
   </g>
   <g id="matplotlib.axis_3">
    <g id="xtick_7">
     <g id="line2d_22">
      <g>
       <use style="stroke:#000000;stroke-width:0.8;" x="136.368291" xlink:href="#m1934e4859d" y="386.918125"/>
      </g>
     </g>
     <g id="text_17">
      <!-- 6.580 -->
      <g transform="translate(122.054229 401.516562)scale(0.1 -0.1)">
       <use xlink:href="#DejaVuSans-54"/>
       <use x="63.623047" xlink:href="#DejaVuSans-46"/>
       <use x="95.410156" xlink:href="#DejaVuSans-53"/>
       <use x="159.033203" xlink:href="#DejaVuSans-56"/>
       <use x="222.65625" xlink:href="#DejaVuSans-48"/>
      </g>
     </g>
    </g>
    <g id="xtick_8">
     <g id="line2d_23">
      <g>
       <use style="stroke:#000000;stroke-width:0.8;" x="235.095267" xlink:href="#m1934e4859d" y="386.918125"/>
      </g>
     </g>
     <g id="text_18">
      <!-- 6.585 -->
      <g transform="translate(220.781205 401.516562)scale(0.1 -0.1)">
       <use xlink:href="#DejaVuSans-54"/>
       <use x="63.623047" xlink:href="#DejaVuSans-46"/>
       <use x="95.410156" xlink:href="#DejaVuSans-53"/>
       <use x="159.033203" xlink:href="#DejaVuSans-56"/>
       <use x="222.65625" xlink:href="#DejaVuSans-53"/>
      </g>
     </g>
    </g>
    <g id="xtick_9">
     <g id="line2d_24">
      <g>
       <use style="stroke:#000000;stroke-width:0.8;" x="333.822243" xlink:href="#m1934e4859d" y="386.918125"/>
      </g>
     </g>
     <g id="text_19">
      <!-- 6.590 -->
      <g transform="translate(319.50818 401.516562)scale(0.1 -0.1)">
       <use xlink:href="#DejaVuSans-54"/>
       <use x="63.623047" xlink:href="#DejaVuSans-46"/>
       <use x="95.410156" xlink:href="#DejaVuSans-53"/>
       <use x="159.033203" xlink:href="#DejaVuSans-57"/>
       <use x="222.65625" xlink:href="#DejaVuSans-48"/>
      </g>
     </g>
    </g>
    <g id="xtick_10">
     <g id="line2d_25">
      <g>
       <use style="stroke:#000000;stroke-width:0.8;" x="432.549218" xlink:href="#m1934e4859d" y="386.918125"/>
      </g>
     </g>
     <g id="text_20">
      <!-- 6.595 -->
      <g transform="translate(418.235156 401.516562)scale(0.1 -0.1)">
       <use xlink:href="#DejaVuSans-54"/>
       <use x="63.623047" xlink:href="#DejaVuSans-46"/>
       <use x="95.410156" xlink:href="#DejaVuSans-53"/>
       <use x="159.033203" xlink:href="#DejaVuSans-57"/>
       <use x="222.65625" xlink:href="#DejaVuSans-53"/>
      </g>
     </g>
    </g>
    <g id="xtick_11">
     <g id="line2d_26">
      <g>
       <use style="stroke:#000000;stroke-width:0.8;" x="531.276194" xlink:href="#m1934e4859d" y="386.918125"/>
      </g>
     </g>
     <g id="text_21">
      <!-- 6.600 -->
      <g transform="translate(516.962131 401.516562)scale(0.1 -0.1)">
       <use xlink:href="#DejaVuSans-54"/>
       <use x="63.623047" xlink:href="#DejaVuSans-46"/>
       <use x="95.410156" xlink:href="#DejaVuSans-54"/>
       <use x="159.033203" xlink:href="#DejaVuSans-48"/>
       <use x="222.65625" xlink:href="#DejaVuSans-48"/>
      </g>
     </g>
    </g>
    <g id="xtick_12">
     <g id="line2d_27">
      <g>
       <use style="stroke:#000000;stroke-width:0.8;" x="630.00317" xlink:href="#m1934e4859d" y="386.918125"/>
      </g>
     </g>
     <g id="text_22">
      <!-- 6.605 -->
      <g transform="translate(615.689107 401.516562)scale(0.1 -0.1)">
       <use xlink:href="#DejaVuSans-54"/>
       <use x="63.623047" xlink:href="#DejaVuSans-46"/>
       <use x="95.410156" xlink:href="#DejaVuSans-54"/>
       <use x="159.033203" xlink:href="#DejaVuSans-48"/>
       <use x="222.65625" xlink:href="#DejaVuSans-53"/>
      </g>
     </g>
    </g>
    <g id="text_23">
     <!-- Time (ms) -->
     <g transform="translate(347.565 415.194687)scale(0.1 -0.1)">
      <use xlink:href="#DejaVuSans-84"/>
      <use x="61.037109" xlink:href="#DejaVuSans-105"/>
      <use x="88.820312" xlink:href="#DejaVuSans-109"/>
      <use x="186.232422" xlink:href="#DejaVuSans-101"/>
      <use x="247.755859" xlink:href="#DejaVuSans-32"/>
      <use x="279.542969" xlink:href="#DejaVuSans-40"/>
      <use x="318.556641" xlink:href="#DejaVuSans-109"/>
      <use x="415.96875" xlink:href="#DejaVuSans-115"/>
      <use x="468.068359" xlink:href="#DejaVuSans-41"/>
     </g>
    </g>
    <g id="text_24">
     <!-- 1e5 -->
     <g transform="translate(686.355 414.194687)scale(0.1 -0.1)">
      <use xlink:href="#DejaVuSans-49"/>
      <use x="63.623047" xlink:href="#DejaVuSans-101"/>
      <use x="125.146484" xlink:href="#DejaVuSans-53"/>
     </g>
    </g>
   </g>
   <g id="matplotlib.axis_4">
    <g id="ytick_7">
     <g id="line2d_28">
      <g>
       <use style="stroke:#000000;stroke-width:0.8;" x="40.603125" xlink:href="#m94811386cb" y="371.532561"/>
      </g>
     </g>
     <g id="text_25">
      <!-- 0 -->
      <g transform="translate(27.240625 375.33178)scale(0.1 -0.1)">
       <use xlink:href="#DejaVuSans-48"/>
      </g>
     </g>
    </g>
    <g id="ytick_8">
     <g id="line2d_29">
      <g>
       <use style="stroke:#000000;stroke-width:0.8;" x="40.603125" xlink:href="#m94811386cb" y="344.966542"/>
      </g>
     </g>
     <g id="text_26">
      <!-- 10 -->
      <g transform="translate(20.878125 348.76576)scale(0.1 -0.1)">
       <use xlink:href="#DejaVuSans-49"/>
       <use x="63.623047" xlink:href="#DejaVuSans-48"/>
      </g>
     </g>
    </g>
    <g id="ytick_9">
     <g id="line2d_30">
      <g>
       <use style="stroke:#000000;stroke-width:0.8;" x="40.603125" xlink:href="#m94811386cb" y="318.400522"/>
      </g>
     </g>
     <g id="text_27">
      <!-- 20 -->
      <g transform="translate(20.878125 322.199741)scale(0.1 -0.1)">
       <use xlink:href="#DejaVuSans-50"/>
       <use x="63.623047" xlink:href="#DejaVuSans-48"/>
      </g>
     </g>
    </g>
    <g id="ytick_10">
     <g id="line2d_31">
      <g>
       <use style="stroke:#000000;stroke-width:0.8;" x="40.603125" xlink:href="#m94811386cb" y="291.834503"/>
      </g>
     </g>
     <g id="text_28">
      <!-- 30 -->
      <g transform="translate(20.878125 295.633722)scale(0.1 -0.1)">
       <use xlink:href="#DejaVuSans-51"/>
       <use x="63.623047" xlink:href="#DejaVuSans-48"/>
      </g>
     </g>
    </g>
    <g id="ytick_11">
     <g id="line2d_32">
      <g>
       <use style="stroke:#000000;stroke-width:0.8;" x="40.603125" xlink:href="#m94811386cb" y="265.268483"/>
      </g>
     </g>
     <g id="text_29">
      <!-- 40 -->
      <g transform="translate(20.878125 269.067702)scale(0.1 -0.1)">
       <use xlink:href="#DejaVuSans-52"/>
       <use x="63.623047" xlink:href="#DejaVuSans-48"/>
      </g>
     </g>
    </g>
    <g id="ytick_12">
     <g id="line2d_33">
      <g>
       <use style="stroke:#000000;stroke-width:0.8;" x="40.603125" xlink:href="#m94811386cb" y="238.702464"/>
      </g>
     </g>
     <g id="text_30">
      <!-- 50 -->
      <g transform="translate(20.878125 242.501683)scale(0.1 -0.1)">
       <use xlink:href="#DejaVuSans-53"/>
       <use x="63.623047" xlink:href="#DejaVuSans-48"/>
      </g>
     </g>
    </g>
    <g id="text_31">
     <!-- ADC Value -->
     <g transform="translate(14.798438 336.382187)rotate(-90)scale(0.1 -0.1)">
      <use xlink:href="#DejaVuSans-65"/>
      <use x="68.408203" xlink:href="#DejaVuSans-68"/>
      <use x="145.410156" xlink:href="#DejaVuSans-67"/>
      <use x="215.234375" xlink:href="#DejaVuSans-32"/>
      <use x="247.021484" xlink:href="#DejaVuSans-86"/>
      <use x="315.320312" xlink:href="#DejaVuSans-97"/>
      <use x="376.599609" xlink:href="#DejaVuSans-108"/>
      <use x="404.382812" xlink:href="#DejaVuSans-117"/>
      <use x="467.761719" xlink:href="#DejaVuSans-101"/>
     </g>
    </g>
   </g>
   <g id="line2d_34">
    <path clip-path="url(#pcd9c489e5e)" d="M 70.81358 370.769585 
L 73.235259 364.163679 
L 75.656939 358.219266 
L 78.078619 353.017108 
L 80.500298 348.428094 
L 91.397857 328.975392 
L 101.084576 310.515462 
L 103.506256 304.937661 
L 104.717096 301.725563 
L 105.927936 298.173686 
L 108.349615 290.020044 
L 110.771295 280.760192 
L 113.192975 271.308002 
L 114.403815 266.960207 
L 115.614654 263.159673 
L 116.825494 260.14071 
L 118.036334 258.13046 
L 119.247174 257.332682 
L 120.458014 257.910759 
L 121.668854 259.97361 
L 122.879694 263.563476 
L 124.090533 268.647681 
L 125.301373 275.11571 
L 126.512213 282.780803 
L 128.933893 300.626527 
L 132.566412 328.550336 
L 133.777252 336.725231 
L 134.988092 343.801622 
L 136.198932 349.542273 
L 137.409772 353.784335 
L 138.620612 356.448109 
L 139.831452 357.537316 
L 141.042292 357.137232 
L 142.253131 355.405393 
L 143.463971 352.556985 
L 144.674811 348.8489 
L 147.096491 339.97638 
L 149.518171 330.955092 
L 150.72901 326.947608 
L 151.93985 323.480211 
L 153.15069 320.636318 
L 154.36153 318.443028 
L 155.57237 316.87643 
L 156.78321 315.86639 
L 157.99405 315.309831 
L 159.204889 315.078707 
L 162.837409 314.944814 
L 164.048249 314.649135 
L 165.259089 314.047149 
L 166.469929 313.063143 
L 167.680768 311.643455 
L 168.891608 309.75833 
L 170.102448 307.39794 
L 171.313288 304.571315 
L 172.524128 301.305023 
L 174.945808 293.635945 
L 177.367487 284.910335 
L 181.000007 271.627591 
L 182.210847 267.695555 
L 183.421687 264.284478 
L 184.632527 261.571556 
L 185.843366 259.733719 
L 187.054206 258.938332 
L 188.265046 259.331775 
L 189.475886 261.029609 
L 190.686726 264.105157 
L 191.897566 268.581 
L 193.108406 274.422337 
L 194.319245 281.533263 
L 195.530085 289.757306 
L 197.951765 308.647339 
L 201.584285 338.740529 
L 202.795124 347.986035 
L 204.005964 356.354863 
L 205.216804 363.614028 
L 206.427644 369.58846 
L 207.638484 374.167379 
L 208.849324 377.308014 
L 210.060164 379.035867 
L 211.271003 379.438343 
L 212.481843 378.655708 
L 213.692683 376.870471 
L 214.903523 374.291176 
L 216.114363 371.139118 
L 222.168562 353.66771 
L 223.379402 350.786094 
L 224.590242 348.243991 
L 225.801082 346.021478 
L 228.222762 342.307017 
L 231.855281 337.25602 
L 233.066121 335.32839 
L 234.276961 333.135896 
L 235.487801 330.612921 
L 236.698641 327.712178 
L 237.90948 324.404708 
L 239.12032 320.682012 
L 241.542 312.058416 
L 243.96368 302.177982 
L 248.807039 281.607382 
L 250.017879 277.082924 
L 251.228719 273.134416 
L 252.439559 269.939587 
L 253.650399 267.670848 
L 254.861238 266.489192 
L 256.072078 266.532495 
L 257.282918 267.905426 
L 258.493758 270.670949 
L 259.704598 274.841017 
L 260.915438 280.370203 
L 262.126278 287.153039 
L 263.337118 295.023488 
L 265.758797 313.092897 
L 269.391317 341.512959 
L 270.602157 350.035869 
L 271.812997 357.580088 
L 273.023836 363.90466 
L 274.234676 368.829203 
L 275.445516 372.245327 
L 276.656356 374.119826 
L 277.867196 374.497063 
L 279.078036 373.493399 
L 280.288876 371.287622 
L 281.499715 368.108732 
L 282.710555 364.218405 
L 287.553915 346.918081 
L 288.764755 343.29607 
L 289.975594 340.250807 
L 291.186434 337.826924 
L 292.397274 336.00662 
L 293.608114 334.71498 
L 294.818954 333.828738 
L 298.451474 331.877464 
L 299.662313 330.824387 
L 300.873153 329.267352 
L 302.083993 327.060779 
L 303.294833 324.097605 
L 304.505673 320.314073 
L 305.716513 315.695039 
L 306.927353 310.272383 
L 308.138192 304.125803 
L 310.559872 290.182096 
L 315.403232 261.004637 
L 316.614071 254.732931 
L 317.824911 249.319308 
L 319.035751 244.967263 
L 320.246591 241.856382 
L 321.457431 240.135435 
L 322.668271 239.918125 
L 323.879111 241.275914 
L 325.08995 244.234572 
L 326.30079 248.771251 
L 327.51163 254.812098 
L 328.72247 262.23305 
L 329.93331 270.861427 
L 332.35499 290.841199 
L 337.198349 333.891965 
L 338.409189 343.598392 
L 339.620029 352.36385 
L 340.830869 359.994407 
L 342.041709 366.348468 
L 343.252548 371.341551 
L 344.463388 374.947623 
L 345.674228 377.198562 
L 346.885068 378.177785 
L 348.095908 378.013607 
L 349.306748 376.867549 
L 350.517588 374.924245 
L 351.728427 372.37736 
L 354.150107 366.224936 
L 357.782627 356.627164 
L 360.204306 351.021469 
L 362.625986 346.173967 
L 367.469346 337.123456 
L 369.891025 331.853554 
L 372.312705 325.573347 
L 374.734385 318.184806 
L 377.156065 309.822089 
L 381.999424 291.593815 
L 384.421104 282.778678 
L 386.842783 275.082768 
L 388.053623 271.917161 
L 389.264463 269.358853 
L 390.475303 267.525267 
L 391.686143 266.530369 
L 392.896983 266.479363 
L 394.107823 267.460977 
L 395.318662 269.540831 
L 396.529502 272.755053 
L 397.740342 277.104176 
L 398.951182 282.548085 
L 400.162022 289.004956 
L 401.372862 296.349929 
L 403.794541 313.013199 
L 408.637901 347.963986 
L 409.848741 355.646613 
L 411.059581 362.479659 
L 412.270421 368.304524 
L 413.48126 373.00485 
L 414.6921 376.512627 
L 415.90294 378.807931 
L 417.11378 379.918125 
L 418.32462 379.913077 
L 419.53546 378.900912 
L 420.7463 377.017913 
L 421.957139 374.422413 
L 423.167979 371.284434 
L 425.589659 364.069103 
L 428.011339 356.658247 
L 430.433018 350.062967 
L 431.643858 347.278848 
L 432.854698 344.892422 
L 434.065538 342.909535 
L 435.276378 341.309463 
L 436.487218 340.045718 
L 437.698058 339.050023 
L 442.541417 335.797811 
L 443.752257 334.603934 
L 444.963097 333.034148 
L 446.173937 330.996269 
L 447.384776 328.420959 
L 448.595616 325.268104 
L 449.806456 321.533453 
L 451.017296 317.252073 
L 453.438976 307.406175 
L 457.071495 291.841144 
L 458.282335 287.306856 
L 459.493175 283.508712 
L 460.704015 280.685541 
L 461.914855 279.050137 
L 463.125695 278.776507 
L 464.336535 279.983933 
L 465.547374 282.728468 
L 466.758214 286.993908 
L 467.969054 292.689132 
L 469.179894 299.650226 
L 470.390734 307.646332 
L 472.812414 325.553423 
L 475.234093 343.728565 
L 476.444933 352.047183 
L 477.655773 359.437849 
L 478.866613 365.650844 
L 480.077453 370.503128 
L 481.288293 373.887107 
L 482.499132 375.774889 
L 483.709972 376.21615 
L 484.920812 375.333096 
L 486.131652 373.308765 
L 487.342492 370.372954 
L 488.553332 366.785479 
L 493.396691 351.153502 
L 494.607531 348.021102 
L 495.818371 345.484845 
L 497.029211 343.592813 
L 498.240051 342.3381 
L 499.450891 341.66412 
L 500.66173 341.471516 
L 501.87257 341.629318 
L 505.50509 342.640952 
L 506.71593 342.629795 
L 507.92677 342.209786 
L 509.137609 341.272271 
L 510.348449 339.736224 
L 511.559289 337.550903 
L 512.770129 334.694525 
L 513.980969 331.174793 
L 515.191809 327.027306 
L 516.402649 322.312103 
L 518.824328 311.537457 
L 523.667688 288.221524 
L 524.878528 282.964375 
L 526.089367 278.301507 
L 527.300207 274.420477 
L 528.511047 271.501668 
L 529.721887 269.708197 
L 530.932727 269.179001 
L 532.143567 270.017691 
L 533.354407 272.284835 
L 534.565247 275.989466 
L 535.776086 281.084829 
L 536.986926 287.46519 
L 538.197766 294.966105 
L 540.619446 312.415729 
L 544.251965 340.352024 
L 545.462805 348.886889 
L 546.673645 356.554108 
L 547.884485 363.12601 
L 549.095325 368.432572 
L 550.306165 372.369125 
L 551.517005 374.901664 
L 552.727844 376.065255 
L 553.938684 375.958725 
L 555.149524 374.734563 
L 556.360364 372.586966 
L 557.571204 369.736964 
L 559.992884 362.844941 
L 562.414563 355.745173 
L 563.625403 352.517667 
L 564.836243 349.632597 
L 566.047083 347.128219 
L 567.257923 344.998421 
L 568.468763 343.200167 
L 570.890442 340.28986 
L 573.312122 337.659292 
L 574.522962 336.215695 
L 575.733802 334.587463 
L 576.944642 332.724654 
L 578.155482 330.599107 
L 579.366321 328.201258 
L 581.788001 322.628238 
L 584.209681 316.160475 
L 586.631361 308.962944 
L 589.05304 301.113216 
L 591.47472 292.628295 
L 598.739759 266.080341 
L 599.950599 262.550514 
L 601.161439 259.72017 
L 602.372279 257.788821 
L 603.583119 256.946146 
L 604.793958 257.358982 
L 606.004798 259.154845 
L 607.215638 262.409448 
L 608.426478 267.135278 
L 609.637318 273.274153 
L 610.848158 280.695371 
L 612.058998 289.197294 
L 614.480677 308.337845 
L 616.902357 328.088618 
L 618.113197 337.303839 
L 619.324037 345.636802 
L 620.534877 352.811221 
L 621.745717 358.614037 
L 622.956556 362.909497 
L 624.167396 365.643671 
L 625.378236 366.846581 
L 626.589076 366.626349 
L 627.799916 365.16017 
L 629.010756 362.678904 
L 630.221596 359.449007 
L 635.064955 344.525546 
L 636.275795 341.440699 
L 637.486635 338.903379 
L 638.697475 336.951042 
L 639.908314 335.557123 
L 641.119154 334.639799 
L 642.329994 334.070489 
L 644.751674 333.313357 
L 645.962514 332.767425 
L 647.173354 331.884371 
L 648.384194 330.52605 
L 649.595033 328.592841 
L 650.805873 326.030549 
L 652.016713 322.834125 
L 653.227553 319.046076 
L 655.649233 310.0742 
L 660.492592 290.572617 
L 661.703432 286.247138 
L 662.914272 282.373281 
L 664.125112 279.009757 
L 665.335952 276.177554 
L 666.546791 273.859137 
L 667.757631 272.003501 
L 668.968471 270.532274 
L 670.179311 269.348227 
L 675.02267 265.382452 
L 675.02267 265.382452 
" style="fill:none;stroke:#1f77b4;stroke-linecap:square;stroke-width:1.5;"/>
   </g>
   <g id="line2d_35">
    <g clip-path="url(#pcd9c489e5e)">
     <use style="fill:#ff0000;stroke:#ff0000;" x="160.415729" xlink:href="#m1d755a09ff" y="315.033811"/>
     <use style="fill:#ff0000;stroke:#ff0000;" x="229.433601" xlink:href="#m1d755a09ff" y="340.65036"/>
     <use style="fill:#ff0000;stroke:#ff0000;" x="296.029794" xlink:href="#m1d755a09ff" y="333.18584"/>
     <use style="fill:#ff0000;stroke:#ff0000;" x="363.836826" xlink:href="#m1d755a09ff" y="343.931529"/>
     <use style="fill:#ff0000;stroke:#ff0000;" x="440.119737" xlink:href="#m1d755a09ff" y="337.496443"/>
     <use style="fill:#ff0000;stroke:#ff0000;" x="503.08341" xlink:href="#m1d755a09ff" y="341.984506"/>
     <use style="fill:#ff0000;stroke:#ff0000;" x="572.101282" xlink:href="#m1d755a09ff" y="338.98839"/>
    </g>
   </g>
   <g id="line2d_36">
    <path clip-path="url(#pcd9c489e5e)" d="M 160.415729 386.918125 
L 160.415729 232.918125 
" style="fill:none;stroke:#808080;stroke-dasharray:5.55,2.4;stroke-dashoffset:0;stroke-width:1.5;"/>
   </g>
   <g id="line2d_37">
    <path clip-path="url(#pcd9c489e5e)" d="M 229.433601 386.918125 
L 229.433601 232.918125 
" style="fill:none;stroke:#808080;stroke-dasharray:5.55,2.4;stroke-dashoffset:0;stroke-width:1.5;"/>
   </g>
   <g id="line2d_38">
    <path clip-path="url(#pcd9c489e5e)" d="M 296.029794 386.918125 
L 296.029794 232.918125 
" style="fill:none;stroke:#808080;stroke-dasharray:5.55,2.4;stroke-dashoffset:0;stroke-width:1.5;"/>
   </g>
   <g id="line2d_39">
    <path clip-path="url(#pcd9c489e5e)" d="M 363.836826 386.918125 
L 363.836826 232.918125 
" style="fill:none;stroke:#808080;stroke-dasharray:5.55,2.4;stroke-dashoffset:0;stroke-width:1.5;"/>
   </g>
   <g id="line2d_40">
    <path clip-path="url(#pcd9c489e5e)" d="M 440.119737 386.918125 
L 440.119737 232.918125 
" style="fill:none;stroke:#808080;stroke-dasharray:5.55,2.4;stroke-dashoffset:0;stroke-width:1.5;"/>
   </g>
   <g id="line2d_41">
    <path clip-path="url(#pcd9c489e5e)" d="M 503.08341 386.918125 
L 503.08341 232.918125 
" style="fill:none;stroke:#808080;stroke-dasharray:5.55,2.4;stroke-dashoffset:0;stroke-width:1.5;"/>
   </g>
   <g id="line2d_42">
    <path clip-path="url(#pcd9c489e5e)" d="M 572.101282 386.918125 
L 572.101282 232.918125 
" style="fill:none;stroke:#808080;stroke-dasharray:5.55,2.4;stroke-dashoffset:0;stroke-width:1.5;"/>
   </g>
   <g id="patch_8">
    <path d="M 40.603125 386.918125 
L 40.603125 232.918125 
" style="fill:none;stroke:#000000;stroke-linecap:square;stroke-linejoin:miter;stroke-width:0.8;"/>
   </g>
   <g id="patch_9">
    <path d="M 705.233125 386.918125 
L 705.233125 232.918125 
" style="fill:none;stroke:#000000;stroke-linecap:square;stroke-linejoin:miter;stroke-width:0.8;"/>
   </g>
   <g id="patch_10">
    <path d="M 40.603125 386.918125 
L 705.233125 386.918125 
" style="fill:none;stroke:#000000;stroke-linecap:square;stroke-linejoin:miter;stroke-width:0.8;"/>
   </g>
   <g id="patch_11">
    <path d="M 40.603125 232.918125 
L 705.233125 232.918125 
" style="fill:none;stroke:#000000;stroke-linecap:square;stroke-linejoin:miter;stroke-width:0.8;"/>
   </g>
   <g id="text_32">
    <!-- Final Diastolic Peaks -->
    <g transform="translate(311.5175 226.918125)scale(0.12 -0.12)">
     <use xlink:href="#DejaVuSans-70"/>
     <use x="57.410156" xlink:href="#DejaVuSans-105"/>
     <use x="85.193359" xlink:href="#DejaVuSans-110"/>
     <use x="148.572266" xlink:href="#DejaVuSans-97"/>
     <use x="209.851562" xlink:href="#DejaVuSans-108"/>
     <use x="237.634766" xlink:href="#DejaVuSans-32"/>
     <use x="269.421875" xlink:href="#DejaVuSans-68"/>
     <use x="346.423828" xlink:href="#DejaVuSans-105"/>
     <use x="374.207031" xlink:href="#DejaVuSans-97"/>
     <use x="435.486328" xlink:href="#DejaVuSans-115"/>
     <use x="487.585938" xlink:href="#DejaVuSans-116"/>
     <use x="526.794922" xlink:href="#DejaVuSans-111"/>
     <use x="587.976562" xlink:href="#DejaVuSans-108"/>
     <use x="615.759766" xlink:href="#DejaVuSans-105"/>
     <use x="643.542969" xlink:href="#DejaVuSans-99"/>
     <use x="698.523438" xlink:href="#DejaVuSans-32"/>
     <use x="730.310547" xlink:href="#DejaVuSans-80"/>
     <use x="790.566406" xlink:href="#DejaVuSans-101"/>
     <use x="852.089844" xlink:href="#DejaVuSans-97"/>
     <use x="913.369141" xlink:href="#DejaVuSans-107"/>
     <use x="971.279297" xlink:href="#DejaVuSans-115"/>
    </g>
   </g>
  </g>
 </g>
 <defs>
  <clipPath id="pe15c77fdaa">
   <rect height="154" width="664.63" x="40.603125" y="22.318125"/>
  </clipPath>
  <clipPath id="pcd9c489e5e">
   <rect height="154" width="664.63" x="40.603125" y="232.918125"/>
  </clipPath>
 </defs>
</svg>
